<svg width="414" height="896" viewBox="0 0 414 896" fill="none" xmlns="http://www.w3.org/2000/svg">
<rect width="414" height="896" fill="white"/>
<path d="M159.762 97.6816H138.688V100.271H159.762V97.6816ZM139.576 94.3809L140.566 96.8438C144.794 96.5264 147.739 95.2949 149.187 93.4287C150.646 95.2949 153.579 96.5264 157.832 96.8438L158.822 94.3809C153.77 94.0635 151.434 92.5654 151.053 90.9023H157.73V88.3887H150.799V86.3066H147.6V88.3887H140.719V90.9023H147.333C146.939 92.5654 144.591 94.0635 139.576 94.3809ZM141.023 104.562H153.973V109.336H157.197V102.023H141.023V104.562ZM180.633 86.2305H177.408V91.8672H173.803V94.4824H177.408V99.9414H180.633V86.2305ZM161.006 97.4023L162.682 99.9668C165.424 99.0273 167.277 97.1357 168.293 94.7871C169.296 96.8564 171.061 98.5322 173.6 99.3574L175.199 96.8184C171.606 95.625 169.956 92.9082 169.893 90.2168H174.488V87.627H161.945V90.2168H166.592C166.516 93.1113 164.789 96.1328 161.006 97.4023ZM164.789 104.918C164.789 107.724 167.811 109.361 172.736 109.361C177.675 109.361 180.696 107.724 180.709 104.918C180.696 102.112 177.675 100.462 172.736 100.449C167.811 100.462 164.789 102.112 164.789 104.918ZM168.014 104.918C168.014 103.585 169.677 102.925 172.736 102.938C175.809 102.925 177.472 103.585 177.484 104.918C177.472 106.238 175.809 106.898 172.736 106.898C169.677 106.898 168.014 106.238 168.014 104.918ZM198.609 91.4609V88.0078H195.334V91.4609C195.321 95.9424 193.354 100.373 189.316 102.074L191.271 104.766C194.09 103.483 195.981 100.97 197.022 97.8467C198.076 100.703 199.904 103.014 202.545 104.207L204.449 101.617C200.526 99.9541 198.597 95.7012 198.609 91.4609ZM205.693 109.387H208.969V86.2305H205.693V109.387ZM225.219 87.5762H212.625V90.166H217.348C217.31 93.0479 215.558 96.0186 211.736 97.25L213.463 99.7383C216.142 98.8623 217.995 97.0596 219.023 94.8125C220.026 96.8691 221.791 98.5195 224.355 99.3574L226.006 96.8438C222.261 95.6504 220.636 92.8701 220.623 90.166H225.219V87.5762ZM214.859 103.725H227.174V109.336H230.424V101.16H214.859V103.725ZM227.174 100.17H230.424V94.5332H233.547V91.8418H230.424V86.2305H227.174V100.17ZM252.793 86.2305H249.594V109.336H252.793V97.9355H256.195V95.2695H252.793V86.2305ZM234.436 92.2734H248.02V89.6836H242.916V86.5859H239.666V89.6836H234.436V92.2734ZM235.375 99.0781C235.362 102.303 237.876 104.575 241.291 104.588C244.655 104.575 247.182 102.303 247.182 99.0781C247.182 95.8535 244.655 93.5557 241.291 93.5684C237.876 93.5557 235.362 95.8535 235.375 99.0781ZM238.473 99.0781C238.473 97.3008 239.653 96.209 241.291 96.1836C242.903 96.209 244.084 97.3008 244.084 99.0781C244.084 100.868 242.903 101.935 241.291 101.922C239.653 101.935 238.473 100.868 238.473 99.0781ZM276.457 86.2305H273.182V109.336H276.457V86.2305ZM257.109 102.785L258.811 105.375C267.062 101.478 269.513 95.6504 269.525 88.6426H258.354V91.1816H266.225C265.704 96.3105 263.076 99.9668 257.109 102.785Z" fill="#8666FF"/>
<path d="M34.752 130.693C31.4033 130.702 28.9424 132.363 28.9512 134.877C28.9424 137.232 31.0078 138.806 33.9258 139.043V142.137H27.5801V143.525H41.9941V142.137H35.5781V139.043C38.5137 138.806 40.5703 137.232 40.5703 134.877C40.5703 132.363 38.1182 130.702 34.752 130.693ZM30.5684 134.877C30.5684 133.172 32.3262 132.047 34.752 132.064C37.1953 132.047 38.9443 133.172 38.9531 134.877C38.9443 136.644 37.1953 137.742 34.752 137.76C32.3262 137.742 30.5684 136.644 30.5684 134.877ZM55.8457 133.33H46.6699V129.973H45.0352V134.684H55.8457V133.33ZM43.1191 137.408H57.5332V136.072H43.1191V137.408ZM44.877 139.975H54.0703V141.293H44.9121V145.301H56.2676V143.982H46.582V142.523H55.7227V138.674H44.877V139.975ZM73.0898 139.008H58.6758V140.326H65.0215V145.494H66.6562V140.326H73.0898V139.008ZM60.4688 137.215H71.2793V130.377H69.6094V132.434H62.1211V130.377H60.4688V137.215ZM62.1211 135.879V133.77H69.6094V135.879H62.1211ZM87.3809 129.744H85.7285V135.562H82.5996V136.934H85.7285V145.529H87.3809V129.744ZM74.9707 141.803H76.2012C79.1191 141.794 81.0967 141.697 83.3906 141.328L83.2148 139.975C81.123 140.335 79.2949 140.414 76.6582 140.414V136.898H81.668V135.562H76.6582V132.504H82.3359V131.15H74.9707V141.803ZM99.2637 144.176C101.9 144.176 103.86 142.62 103.852 140.502C103.86 138.894 102.85 137.725 101.109 137.479V137.391C102.48 137.048 103.377 136.011 103.359 134.561C103.377 132.68 101.804 131.098 99.2988 131.098C96.9258 131.098 95.0098 132.504 94.957 134.578H96.8203C96.8643 133.427 98.0068 132.715 99.2812 132.715C100.626 132.715 101.496 133.506 101.496 134.666C101.496 135.888 100.485 136.696 99.0352 136.688H97.9453V138.27H99.0352C100.854 138.278 101.9 139.175 101.9 140.432C101.9 141.671 100.784 142.506 99.2461 142.506C97.8223 142.506 96.7148 141.794 96.6445 140.678H94.6758C94.7549 142.761 96.627 144.176 99.2637 144.176ZM109.898 130.271C107.499 130.289 105.759 131.739 105.75 133.805C105.759 135.879 107.499 137.32 109.898 137.32C112.271 137.32 114.021 135.879 114.029 133.805C114.021 131.739 112.271 130.289 109.898 130.271ZM107.385 133.805C107.376 132.521 108.448 131.66 109.898 131.678C111.34 131.66 112.412 132.521 112.412 133.805C112.412 135.105 111.34 135.967 109.898 135.967C108.448 135.967 107.376 135.105 107.385 133.805ZM108.141 139.816H116.842V141.205H108.193V145.301H119.021V143.965H109.811V142.453H118.494V138.48H108.141V139.816ZM116.824 137.76H118.494V129.744H116.824V137.76ZM135.369 137.408H128.988V135.738H133.699V134.402H124.436V131.783H133.594V130.465H122.783V135.738H127.371V137.408H120.99V138.744H135.369V137.408ZM122.695 142.629C122.695 144.457 124.743 145.485 128.162 145.494C131.555 145.485 133.585 144.457 133.594 142.629C133.585 140.801 131.555 139.772 128.162 139.764C124.743 139.772 122.695 140.801 122.695 142.629ZM124.383 142.629C124.374 141.636 125.754 141.064 128.162 141.064C130.535 141.064 131.924 141.636 131.924 142.629C131.924 143.64 130.535 144.193 128.162 144.176C125.754 144.193 124.374 143.64 124.383 142.629ZM148.922 129.727H147.252V141.311H148.922V135.844H151.207V134.438H148.922V129.727ZM136.793 134.736C136.775 137.03 138.604 138.665 140.977 138.656C143.358 138.665 145.16 137.03 145.178 134.736C145.16 132.442 143.358 130.825 140.977 130.816C138.604 130.825 136.775 132.442 136.793 134.736ZM138.428 134.736C138.41 133.269 139.535 132.275 140.977 132.275C142.436 132.275 143.534 133.269 143.543 134.736C143.534 136.204 142.436 137.197 140.977 137.197C139.535 137.197 138.41 136.204 138.428 134.736ZM138.938 145.16H149.59V143.807H140.607V140.098H138.938V145.16ZM169.102 140.045H158.221V145.301H169.102V140.045ZM156.498 138.656H170.859V137.303H164.496V135.668H169.031V130.307H158.326V135.668H162.844V137.303H156.498V138.656ZM159.873 143.947V141.381H167.484V143.947H159.873ZM159.961 134.332V131.66H167.379V134.332H159.961ZM185.607 129.744H184.008V145.494H185.607V129.744ZM172.23 136.547C172.23 139.966 173.566 142.11 175.623 142.102C177.574 142.11 178.884 140.203 179.033 137.127H180.809V144.721H182.408V130.043H180.809V135.773H179.024C178.831 132.82 177.539 131.001 175.623 131.01C173.566 131.001 172.23 133.137 172.23 136.547ZM173.777 136.547C173.777 134.033 174.489 132.565 175.623 132.574C176.783 132.565 177.504 134.033 177.504 136.547C177.504 139.052 176.783 140.528 175.623 140.52C174.489 140.528 173.777 139.052 173.777 136.547ZM204.68 139.342H200.004V137.848H206.367V136.529H192.006V137.848H198.334V139.342H193.781V145.336H204.891V144.088H195.434V142.893H204.328V141.715H195.434V140.537H204.68V139.342ZM193.887 135.352H204.504V130.008H202.834V131.432H195.539V130.008H193.887V135.352ZM195.539 134.068V132.697H202.834V134.068H195.539ZM220.623 129.762H218.953V141.205H220.623V129.762ZM207.879 134.719C207.888 137.03 209.698 138.639 212.08 138.639C214.453 138.639 216.264 137.03 216.264 134.719C216.264 132.442 214.453 130.825 212.08 130.816C209.698 130.825 207.888 132.442 207.879 134.719ZM209.514 134.719C209.505 133.269 210.612 132.275 212.08 132.275C213.521 132.275 214.629 133.269 214.629 134.719C214.629 136.204 213.521 137.18 212.08 137.18C210.612 137.18 209.505 136.204 209.514 134.719ZM210.322 145.16H221.098V143.807H212.01V140.045H210.322V145.16ZM241.875 137.654H227.514V138.99H241.875V137.654ZM228.287 135.58L228.814 136.863C231.513 136.608 233.71 135.694 234.686 134.218C235.652 135.694 237.841 136.608 240.557 136.863L241.084 135.58C237.92 135.334 235.767 134.174 235.608 132.609H240.434V131.291H235.512V129.727H233.859V131.291H228.955V132.609H233.763C233.587 134.174 231.425 135.334 228.287 135.58ZM229.113 141.855H238.43V145.494H240.117V140.52H229.113V141.855ZM256.201 129.744H254.531V133.752H251.596V135.123H254.531V139.113H256.201V129.744ZM243.07 137.689L243.949 139.025C245.83 138.331 247.21 136.916 247.896 135.158C248.581 136.714 249.882 137.979 251.648 138.586L252.51 137.268C250.128 136.459 248.704 134.517 248.713 132.521V132.188H252.088V130.834H243.598V132.188H247.008V132.539C247.017 134.71 245.514 136.837 243.07 137.689ZM245.602 142.523C245.593 144.396 247.614 145.485 250.928 145.494C254.224 145.485 256.245 144.396 256.254 142.523C256.245 140.651 254.224 139.562 250.928 139.553C247.614 139.562 245.593 140.651 245.602 142.523ZM247.254 142.523C247.245 141.451 248.616 140.845 250.928 140.854C253.222 140.845 254.593 141.451 254.602 142.523C254.593 143.587 253.222 144.193 250.928 144.176C248.616 144.193 247.245 143.587 247.254 142.523ZM276.451 129.744H274.869V141.557H276.451V129.744ZM262.986 138.076L263.918 139.359C265.395 138.656 266.432 137.338 267.003 135.826C267.53 137.188 268.497 138.313 269.895 138.955L270.826 137.672C268.813 136.793 267.785 134.93 267.785 133.084V130.834H266.168V133.084C266.177 134.947 265.061 137.092 262.986 138.076ZM266.01 145.16H276.908V143.807H267.662V140.115H266.01V145.16ZM269.42 134.982H271.723V141.1H273.322V130.025H271.723V133.611H269.42V134.982ZM284.256 133.752V131.062H282.568V133.752C282.56 136.67 280.934 139.702 278.49 140.871L279.545 142.225C281.364 141.284 282.735 139.368 283.43 137.101C284.124 139.254 285.478 141.029 287.262 141.926L288.281 140.59C285.873 139.509 284.256 136.635 284.256 133.752ZM286.541 136.336H290.057V145.529H291.709V129.744H290.057V134.982H286.541V136.336ZM308.531 136.969H294.117V138.252H308.531V136.969ZM295.822 140.555H305.104V141.715H295.84V145.301H307.248V144.123H297.51V142.822H306.756V139.359H295.822V140.555ZM295.928 131.326H305.051V132.451H295.963V135.932H306.984V134.754H297.615V133.559H306.721V130.148H295.928V131.326ZM328.447 138.023H322.084V136.652H326.795V135.352H317.619V134.016H326.285V132.768H317.619V131.484H326.689V130.166H315.932V136.652H320.414V138.023H314.051V139.342H328.447V138.023ZM315.791 142.928C315.791 144.589 317.751 145.468 321.258 145.459C324.712 145.468 326.681 144.589 326.689 142.928C326.681 141.275 324.712 140.37 321.258 140.379C317.751 140.37 315.791 141.275 315.791 142.928ZM317.461 142.928C317.452 142.075 318.771 141.627 321.258 141.627C323.71 141.627 325.02 142.075 325.02 142.928C325.02 143.78 323.71 144.211 321.258 144.193C318.771 144.211 317.452 143.78 317.461 142.928ZM337.43 132.346H334.354V130.201H332.701V132.346H329.607V133.699H337.43V132.346ZM330.117 138.27C330.108 140.423 331.55 141.935 333.527 141.926C335.522 141.935 336.946 140.423 336.955 138.27C336.946 136.151 335.522 134.648 333.527 134.648C331.55 134.648 330.108 136.151 330.117 138.27ZM331.594 138.27C331.585 136.96 332.394 136.046 333.527 136.037C334.661 136.046 335.479 136.96 335.479 138.27C335.479 139.605 334.661 140.502 333.527 140.502C332.394 140.502 331.585 139.605 331.594 138.27ZM338.15 144.756H339.732V137.672H341.543V145.494H343.125V129.744H341.543V136.301H339.732V130.096H338.15V144.756ZM354.059 130.271C351.659 130.289 349.919 131.739 349.91 133.805C349.919 135.879 351.659 137.32 354.059 137.32C356.432 137.32 358.181 135.879 358.189 133.805C358.181 131.739 356.432 130.289 354.059 130.271ZM351.545 133.805C351.536 132.521 352.608 131.66 354.059 131.678C355.5 131.66 356.572 132.521 356.572 133.805C356.572 135.105 355.5 135.967 354.059 135.967C352.608 135.967 351.536 135.105 351.545 133.805ZM352.301 139.816H361.002V141.205H352.354V145.301H363.182V143.965H353.971V142.453H362.654V138.48H352.301V139.816ZM360.984 137.76H362.654V129.744H360.984V137.76ZM370.582 132.258V130.57H368.93V132.117C368.912 134.473 367.488 136.573 365.027 137.443L365.924 138.779C367.761 138.103 369.097 136.714 369.782 134.947C370.468 136.503 371.76 137.733 373.482 138.34L374.379 137.021C372.032 136.248 370.573 134.323 370.582 132.258ZM367.154 142.541C367.154 144.404 369.167 145.468 372.445 145.459C375.68 145.468 377.666 144.404 377.666 142.541C377.666 140.695 375.68 139.614 372.445 139.623C369.167 139.614 367.154 140.695 367.154 142.541ZM368.824 142.541C368.815 141.539 370.169 140.941 372.445 140.941C374.704 140.941 376.04 141.539 376.031 142.541C376.04 143.578 374.704 144.141 372.445 144.158C370.169 144.141 368.815 143.578 368.824 142.541ZM375.855 139.254H377.525V135.105H379.811V133.699H377.525V129.744H375.855V139.254ZM41.9766 162.566H35.5781V160.264H33.9258V162.566H27.5801V163.938H41.9766V162.566ZM28.4062 159.807L29.0215 161.125C31.5352 160.721 33.7412 159.508 34.7432 157.768C35.7451 159.508 37.9512 160.721 40.4473 161.125L41.0977 159.807C38.0566 159.42 35.5869 157.671 35.5957 155.658V154.99H33.9082V155.658C33.8994 157.645 31.4209 159.42 28.4062 159.807ZM29.1797 166.645H38.4961V170.494H40.1836V165.326H29.1797V166.645ZM56.6895 154.744H55.0898V170.494H56.6895V154.744ZM43.3125 161.547C43.3125 164.966 44.6484 167.11 46.7051 167.102C48.6562 167.11 49.9658 165.203 50.1152 162.127H51.8906V169.721H53.4902V155.043H51.8906V160.773H50.1064C49.9131 157.82 48.6211 156.001 46.7051 156.01C44.6484 156.001 43.3125 158.137 43.3125 161.547ZM44.8594 161.547C44.8594 159.033 45.5713 157.565 46.7051 157.574C47.8652 157.565 48.5859 159.033 48.5859 161.547C48.5859 164.052 47.8652 165.528 46.7051 165.52C45.5713 165.528 44.8594 164.052 44.8594 161.547ZM64.3711 158.752V156.062H62.6836V158.752C62.6748 161.67 61.0488 164.702 58.6055 165.871L59.6602 167.225C61.4795 166.284 62.8506 164.368 63.5449 162.101C64.2393 164.254 65.5928 166.029 67.377 166.926L68.3965 165.59C65.9883 164.509 64.3711 161.635 64.3711 158.752ZM66.6562 161.336H70.1719V170.529H71.8242V154.744H70.1719V159.982H66.6562V161.336ZM84.1289 159.385V157.715H87.5566V156.326H78.9258V157.715H82.4766V159.385C82.4678 162.048 80.7363 165.019 78.3457 166.17L79.3301 167.488C81.123 166.592 82.5996 164.649 83.3203 162.408C84.0322 164.465 85.4385 166.24 87.2051 167.084L88.1543 165.783C85.7637 164.649 84.1201 161.872 84.1289 159.385ZM89.2441 170.494H90.9141V162.391H93.4453V160.984H90.9141V154.744H89.2441V170.494ZM99 159.051V156.186H97.3828V159.121C97.3916 161.802 96.2139 164.588 93.9902 165.924L95.0273 167.172C96.5566 166.24 97.6465 164.535 98.2178 162.54C98.7627 164.359 99.7559 165.933 101.232 166.82L102.164 165.537C100.055 164.245 99 161.564 99 159.051ZM100.459 161.67H102.902V169.721H104.484V155.043H102.902V160.281H100.459V161.67ZM106.154 170.494H107.754V154.744H106.154V170.494ZM128.514 162.654H114.152V163.99H128.514V162.654ZM114.926 160.58L115.453 161.863C118.151 161.608 120.349 160.694 121.324 159.218C122.291 160.694 124.479 161.608 127.195 161.863L127.723 160.58C124.559 160.334 122.405 159.174 122.247 157.609H127.072V156.291H122.15V154.727H120.498V156.291H115.594V157.609H120.401C120.226 159.174 118.063 160.334 114.926 160.58ZM115.752 166.855H125.068V170.494H126.756V165.52H115.752V166.855ZM142.84 154.744H141.17V158.752H138.234V160.123H141.17V164.113H142.84V154.744ZM129.709 162.689L130.588 164.025C132.469 163.331 133.849 161.916 134.534 160.158C135.22 161.714 136.521 162.979 138.287 163.586L139.148 162.268C136.767 161.459 135.343 159.517 135.352 157.521V157.188H138.727V155.834H130.236V157.188H133.646V157.539C133.655 159.71 132.152 161.837 129.709 162.689ZM132.24 167.523C132.231 169.396 134.253 170.485 137.566 170.494C140.862 170.485 142.884 169.396 142.893 167.523C142.884 165.651 140.862 164.562 137.566 164.553C134.253 164.562 132.231 165.651 132.24 167.523ZM133.893 167.523C133.884 166.451 135.255 165.845 137.566 165.854C139.86 165.845 141.231 166.451 141.24 167.523C141.231 168.587 139.86 169.193 137.566 169.176C135.255 169.193 133.884 168.587 133.893 167.523ZM152.438 155.008C148.887 154.999 146.804 155.957 146.812 157.715C146.804 159.481 148.887 160.439 152.438 160.439C155.988 160.439 158.054 159.481 158.062 157.715C158.054 155.957 155.988 154.999 152.438 155.008ZM145.266 162.742H159.627V161.406H145.266V162.742ZM146.988 165.203H156.164V166.434H147.006V170.336H158.256V169.053H148.641V167.646H157.816V163.955H146.988V165.203ZM148.553 157.715C148.544 156.783 149.933 156.238 152.438 156.238C154.96 156.238 156.349 156.783 156.34 157.715C156.349 158.69 154.96 159.191 152.438 159.191C149.933 159.191 148.544 158.69 148.553 157.715ZM171 158.752V156.062H169.312V158.752C169.312 161.758 167.572 164.772 165.094 165.871L166.113 167.277C168.003 166.354 169.453 164.456 170.183 162.145C170.921 164.298 172.354 166.064 174.164 166.926L175.166 165.607C172.723 164.526 170.982 161.626 171 158.752ZM176.59 170.529H178.26V154.744H176.59V170.529ZM186.275 157.574V157.135H189.668V155.781H181.143V157.135H184.605V157.557C184.597 159.728 183.111 161.767 180.65 162.602L181.547 163.902C183.393 163.252 184.764 161.907 185.449 160.211C186.135 161.758 187.444 162.988 189.229 163.604L190.072 162.303C187.664 161.494 186.267 159.587 186.275 157.574ZM182.742 166.363H191.479V170.494H193.148V165.01H182.742V166.363ZM191.479 164.236H193.148V160.193H195.434V158.787H193.148V154.744H191.479V164.236ZM208.705 154.691H207.035V163.357H208.705V159.754H211.008V158.383H208.705V154.691ZM196.348 157.398H205.734V156.08H201.885V154.604H200.215V156.08H196.348V157.398ZM197.209 160.58C197.2 162.18 198.729 163.155 201.041 163.146C203.353 163.155 204.855 162.18 204.855 160.58C204.855 158.989 203.353 157.996 201.041 157.996C198.729 157.996 197.2 158.989 197.209 160.58ZM198.527 165.344H207.053V166.574H198.562V170.336H209.25V169.07H200.197V167.752H208.705V164.096H198.527V165.344ZM198.826 160.58C198.809 159.728 199.679 159.2 201.041 159.191C202.395 159.2 203.273 159.728 203.291 160.58C203.273 161.433 202.395 161.934 201.041 161.934C199.679 161.934 198.809 161.433 198.826 160.58ZM225.422 154.744H223.84V170.494H225.422V154.744ZM211.834 165.941L212.783 167.137C215.007 165.836 216.51 164.236 217.441 162.408H220.518V169.721H222.1V155.148H220.518V161.072H218.021C218.505 159.701 218.716 158.233 218.725 156.695H212.572V158.066H217.063C216.773 161.31 215.174 163.955 211.834 165.941ZM241.857 167.137H238.412V162.988C239.678 162.276 240.434 161.16 240.434 159.771C240.434 157.293 237.999 155.667 234.615 155.658C231.24 155.667 228.806 157.293 228.814 159.771C228.806 161.187 229.597 162.312 230.889 163.023V167.137H227.443V168.525H241.857V167.137ZM230.432 159.771C230.432 158.075 232.146 156.994 234.615 156.994C237.067 156.994 238.808 158.075 238.816 159.771C238.808 161.459 237.067 162.558 234.615 162.566C232.146 162.558 230.432 161.459 230.432 159.771ZM232.541 167.137V163.639C233.174 163.788 233.877 163.867 234.615 163.867C235.371 163.867 236.083 163.788 236.725 163.639V167.137H232.541ZM244.793 169.123C245.47 169.114 246.032 168.561 246.041 167.875C246.032 167.189 245.47 166.627 244.793 166.627C244.107 166.627 243.536 167.189 243.545 167.875C243.536 168.561 244.107 169.114 244.793 169.123ZM265.061 154.744H263.391V158.752H260.455V160.123H263.391V164.113H265.061V154.744ZM251.93 162.689L252.809 164.025C254.689 163.331 256.069 161.916 256.755 160.158C257.44 161.714 258.741 162.979 260.508 163.586L261.369 162.268C258.987 161.459 257.563 159.517 257.572 157.521V157.188H260.947V155.834H252.457V157.188H255.867V157.539C255.876 159.71 254.373 161.837 251.93 162.689ZM254.461 167.523C254.452 169.396 256.474 170.485 259.787 170.494C263.083 170.485 265.104 169.396 265.113 167.523C265.104 165.651 263.083 164.562 259.787 164.553C256.474 164.562 254.452 165.651 254.461 167.523ZM256.113 167.523C256.104 166.451 257.476 165.845 259.787 165.854C262.081 165.845 263.452 166.451 263.461 167.523C263.452 168.587 262.081 169.193 259.787 169.176C257.476 169.193 256.104 168.587 256.113 167.523ZM279.879 154.762H278.209V165.361H279.879V160.809H282.129V159.438H279.879V154.762ZM267.381 163.604L267.557 164.939C270.334 164.939 274.069 164.913 277.453 164.324L277.312 163.129C275.994 163.322 274.57 163.437 273.164 163.507V162.505C274.939 162.294 276.056 161.45 276.064 160.193C276.056 158.752 274.579 157.855 272.32 157.873C270.062 157.855 268.559 158.752 268.576 160.193C268.559 161.459 269.701 162.303 271.494 162.505V163.568C270.018 163.604 268.603 163.604 267.381 163.604ZM267.785 157.346H276.873V156.098H273.164V154.621H271.494V156.098H267.785V157.346ZM269.35 167.4H278.209V170.494H279.879V166.1H269.35V167.4ZM270.158 160.193C270.158 159.438 270.976 158.998 272.32 159.016C273.647 158.998 274.474 159.438 274.465 160.193C274.474 160.932 273.647 161.415 272.32 161.406C270.976 161.415 270.158 160.932 270.158 160.193ZM295.418 154.762H293.748V166.539H295.418V161.213H297.703V159.824H295.418V154.762ZM283.061 157.943H292.447V156.59H288.598V154.744H286.928V156.59H283.061V157.943ZM283.922 161.67C283.913 163.454 285.469 164.614 287.754 164.623C290.013 164.614 291.568 163.454 291.568 161.67C291.568 159.868 290.013 158.69 287.754 158.699C285.469 158.69 283.913 159.868 283.922 161.67ZM285.434 170.16H296.086V168.807H287.104V165.607H285.434V170.16ZM285.539 161.67C285.521 160.633 286.418 159.991 287.754 159.982C289.09 159.991 289.986 160.633 290.004 161.67C289.986 162.698 289.09 163.331 287.754 163.322C286.418 163.331 285.521 162.698 285.539 161.67ZM308.479 159.385V157.715H311.906V156.326H303.275V157.715H306.826V159.385C306.817 162.048 305.086 165.019 302.695 166.17L303.68 167.488C305.473 166.592 306.949 164.649 307.67 162.408C308.382 164.465 309.788 166.24 311.555 167.084L312.504 165.783C310.113 164.649 308.47 161.872 308.479 159.385ZM313.594 170.494H315.264V162.391H317.795V160.984H315.264V154.744H313.594V170.494ZM323.35 159.051V156.186H321.732V159.121C321.741 161.802 320.563 164.588 318.34 165.924L319.377 167.172C320.906 166.24 321.996 164.535 322.567 162.54C323.112 164.359 324.105 165.933 325.582 166.82L326.514 165.537C324.404 164.245 323.35 161.564 323.35 159.051ZM324.809 161.67H327.252V169.721H328.834V155.043H327.252V160.281H324.809V161.67ZM330.504 170.494H332.104V154.744H330.504V170.494ZM352.037 154.744H350.42V170.494H352.037V154.744ZM339.064 166.785H340.102C342.562 166.785 344.118 166.706 345.92 166.346L345.779 164.939C344.145 165.291 342.756 165.379 340.699 165.396V157.996H345.041V156.625H339.064V166.785ZM343.969 162.057H347.203V169.703H348.785V155.078H347.203V160.668H343.969V162.057ZM367.102 154.744H365.432V170.529H367.102V154.744ZM354.604 161.441C354.604 164.843 356.3 166.987 358.682 166.979C361.02 166.987 362.742 164.843 362.742 161.441C362.742 158.075 361.02 155.931 358.682 155.922C356.3 155.931 354.604 158.075 354.604 161.441ZM356.221 161.441C356.212 158.972 357.214 157.425 358.682 157.416C360.123 157.425 361.125 158.972 361.125 161.441C361.125 163.946 360.123 165.484 358.682 165.484C357.214 165.484 356.212 163.946 356.221 161.441ZM382.746 154.744H381.094V160.562H377.965V161.934H381.094V170.529H382.746V154.744ZM370.336 166.803H371.566C374.484 166.794 376.462 166.697 378.756 166.328L378.58 164.975C376.488 165.335 374.66 165.414 372.023 165.414V161.898H377.033V160.562H372.023V157.504H377.701V156.15H370.336V166.803ZM35.6484 181.133V180.271H33.9082V181.133C33.8994 183.251 31.3506 185.185 28.2656 185.598L28.9336 186.969C31.4912 186.556 33.75 185.22 34.7783 183.365C35.8066 185.22 38.0654 186.556 40.6406 186.969L41.291 185.598C38.1973 185.185 35.6396 183.225 35.6484 181.133ZM27.5801 189.887H33.9082V195.494H35.543V189.887H41.9414V188.516H27.5801V189.887ZM48.9727 182.258V182.082H52.4355V180.729H43.752V182.082H47.2852V182.258C47.2764 184.323 45.7471 186.257 43.2949 187.004L44.1387 188.322C46.0283 187.698 47.4346 186.397 48.1377 184.736C48.8584 186.283 50.2471 187.479 52.084 188.041L52.9277 186.74C50.502 186.028 48.9727 184.218 48.9727 182.258ZM45.8965 195.301H56.1973V189.008H54.5449V190.766H47.5312V189.008H45.8965V195.301ZM47.5312 193.947V192.084H54.5449V193.947H47.5312ZM54.5273 188.27H56.1973V179.744H54.5273V188.27ZM65.8652 180.008C62.3145 179.999 60.2314 180.957 60.2402 182.715C60.2314 184.481 62.3145 185.439 65.8652 185.439C69.416 185.439 71.4814 184.481 71.4902 182.715C71.4814 180.957 69.416 179.999 65.8652 180.008ZM58.6934 187.742H73.0547V186.406H58.6934V187.742ZM60.416 190.203H69.5918V191.434H60.4336V195.336H71.6836V194.053H62.0684V192.646H71.2441V188.955H60.416V190.203ZM61.9805 182.715C61.9717 181.783 63.3604 181.238 65.8652 181.238C68.3877 181.238 69.7764 181.783 69.7676 182.715C69.7764 183.69 68.3877 184.191 65.8652 184.191C63.3604 184.191 61.9717 183.69 61.9805 182.715ZM83.8125 180.465C81.4482 180.456 79.7432 181.783 79.752 183.734C79.7432 185.668 81.4482 187.004 83.8125 186.986C86.1855 187.004 87.8994 185.668 87.9082 183.734C87.8994 181.783 86.1855 180.456 83.8125 180.465ZM78.627 188.217L78.8555 189.605C80.1035 189.597 81.5449 189.588 83.0742 189.518V195.002H84.7441V189.421C86.1943 189.324 87.6797 189.157 89.1211 188.885L88.998 187.637C85.5527 188.155 81.5361 188.217 78.627 188.217ZM81.3691 183.734C81.3516 182.583 82.3799 181.81 83.8125 181.818C85.2803 181.81 86.3086 182.583 86.3086 183.734C86.3086 184.877 85.2803 185.633 83.8125 185.615C82.3799 185.633 81.3516 184.877 81.3691 183.734ZM90.0879 195.494H91.7402V179.762H90.0879V195.494ZM101.988 182.346H98.9121V180.201H97.2598V182.346H94.166V183.699H101.988V182.346ZM94.6758 188.27C94.667 190.423 96.1084 191.935 98.0859 191.926C100.081 191.935 101.505 190.423 101.514 188.27C101.505 186.151 100.081 184.648 98.0859 184.648C96.1084 184.648 94.667 186.151 94.6758 188.27ZM96.1523 188.27C96.1436 186.96 96.9521 186.046 98.0859 186.037C99.2197 186.046 100.037 186.96 100.037 188.27C100.037 189.605 99.2197 190.502 98.0859 190.502C96.9521 190.502 96.1436 189.605 96.1523 188.27ZM102.709 194.756H104.291V187.672H106.102V195.494H107.684V179.744H106.102V186.301H104.291V180.096H102.709V194.756ZM122.977 180.887H114.609V182.24H116.086V187.206C115.409 187.215 114.759 187.215 114.17 187.215L114.381 188.604C116.903 188.604 120.437 188.551 123.469 188.076L123.398 186.811C122.774 186.89 122.133 186.951 121.465 187.004V182.24H122.977V180.887ZM116.684 192.611C116.675 194.413 118.679 195.468 122.01 195.459C125.332 195.468 127.327 194.413 127.336 192.611C127.327 190.774 125.332 189.729 122.01 189.729C118.679 189.729 116.675 190.774 116.684 192.611ZM117.703 187.18V182.24H119.865V187.101C119.136 187.136 118.415 187.162 117.703 187.18ZM118.336 192.611C118.327 191.592 119.681 191.021 122.01 191.029C124.321 191.021 125.675 191.592 125.684 192.611C125.675 193.604 124.321 194.167 122.01 194.176C119.681 194.167 118.327 193.604 118.336 192.611ZM123.205 186.688H125.613V189.43H127.283V179.744H125.613V182.486H123.205V183.822H125.613V185.352H123.205V186.688ZM144.123 192.119H137.672V188.375H136.02V192.119H129.709V193.49H144.123V192.119ZM130.201 187.285L130.939 188.656C133.479 188.155 135.8 186.564 136.837 184.42C137.874 186.573 140.212 188.155 142.77 188.656L143.49 187.285C140.449 186.775 137.707 184.438 137.707 181.941V180.746H135.949V181.941C135.94 184.438 133.233 186.775 130.201 187.285ZM149.994 180.746C147.524 180.746 145.749 182.275 145.758 184.49C145.749 186.45 147.138 187.874 149.168 188.173V190.73C147.7 190.766 146.294 190.774 145.072 190.783L145.336 192.154C148.061 192.181 151.726 192.154 155.057 191.574L154.934 190.326C153.633 190.493 152.235 190.599 150.838 190.669V188.173C152.824 187.856 154.222 186.441 154.23 184.49C154.222 182.275 152.42 180.746 149.994 180.746ZM147.375 184.49C147.366 183.084 148.482 182.17 149.994 182.152C151.488 182.17 152.587 183.084 152.596 184.49C152.587 185.888 151.488 186.819 149.994 186.811C148.482 186.819 147.366 185.888 147.375 184.49ZM155.883 195.494H157.553V187.549H159.979V186.143H157.553V179.744H155.883V195.494ZM177.592 179.744H175.922V188.111H177.592V184.648H179.877V183.295H177.592V179.744ZM165.234 187.057L165.938 188.41C170.622 187.408 173.338 184.851 173.338 180.834H165.938V182.17H171.492C171.264 184.402 169.198 186.257 165.234 187.057ZM167.484 195.301H178.014V194.035H169.154V192.611H177.486V191.398H169.154V190.045H177.662V188.779H167.484V195.301ZM193.816 179.744H192.146V195.529H193.816V179.744ZM181.318 186.441C181.318 189.843 183.015 191.987 185.396 191.979C187.734 191.987 189.457 189.843 189.457 186.441C189.457 183.075 187.734 180.931 185.396 180.922C183.015 180.931 181.318 183.075 181.318 186.441ZM182.936 186.441C182.927 183.972 183.929 182.425 185.396 182.416C186.838 182.425 187.84 183.972 187.84 186.441C187.84 188.946 186.838 190.484 185.396 190.484C183.929 190.484 182.927 188.946 182.936 186.441ZM206.209 184.385V182.715H209.637V181.326H201.006V182.715H204.557V184.385C204.548 187.048 202.816 190.019 200.426 191.17L201.41 192.488C203.203 191.592 204.68 189.649 205.4 187.408C206.112 189.465 207.519 191.24 209.285 192.084L210.234 190.783C207.844 189.649 206.2 186.872 206.209 184.385ZM211.324 195.494H212.994V187.391H215.525V185.984H212.994V179.744H211.324V195.494ZM229.412 179.762H227.742V182.135H223.813C223.075 181.256 221.941 180.72 220.641 180.711C218.268 180.729 216.501 182.39 216.51 184.719C216.501 187.03 218.268 188.691 220.641 188.691C221.95 188.691 223.093 188.155 223.831 187.268H227.742V191.363H229.412V179.762ZM218.109 184.719C218.101 183.233 219.164 182.214 220.641 182.205C222.056 182.214 223.137 183.233 223.137 184.719C223.137 186.204 222.056 187.224 220.641 187.215C219.164 187.224 218.101 186.204 218.109 184.719ZM219.182 195.16H229.834V193.807H220.852V190.15H219.182V195.16ZM224.552 183.488H227.742V185.914H224.561C224.675 185.545 224.736 185.141 224.736 184.719C224.736 184.279 224.675 183.875 224.552 183.488ZM239.836 181.977V180.781H238.078V181.977C238.069 184.543 235.354 186.951 232.365 187.514L233.104 188.902C235.626 188.34 237.938 186.696 238.975 184.49C239.994 186.705 242.306 188.357 244.828 188.902L245.602 187.514C242.569 186.969 239.836 184.543 239.836 181.977ZM231.838 193.42H246.252V192.031H231.838V193.42ZM260.525 179.762H258.855V182.943H256.008V184.314H258.855V188.428H260.525V179.762ZM248.027 181.73H253.459V183.523H248.045V188.059H249.275C252.053 188.05 254.065 187.988 256.465 187.602L256.324 186.248C254.101 186.6 252.22 186.679 249.697 186.688V184.789H255.076V180.377H248.027V181.73ZM250.119 195.301H260.525V189.131H258.873V190.889H251.789V189.131H250.119V195.301ZM251.789 193.947V192.207H258.873V193.947H251.789ZM276.486 179.744H274.904V195.494H276.486V179.744ZM262.898 190.941L263.848 192.137C266.071 190.836 267.574 189.236 268.506 187.408H271.582V194.721H273.164V180.148H271.582V186.072H269.086C269.569 184.701 269.78 183.233 269.789 181.695H263.637V183.066H268.128C267.838 186.31 266.238 188.955 262.898 190.941ZM288.703 184.385V182.715H292.289V181.326H283.412V182.715H287.016V184.385C286.998 187.101 285.24 190.054 282.867 191.17L283.834 192.488C285.671 191.592 287.147 189.676 287.877 187.426C288.606 189.526 290.083 191.267 291.938 192.084L292.852 190.783C290.426 189.746 288.694 187.021 288.703 184.385ZM294.275 195.494H295.945V179.744H294.275V195.494ZM311.941 179.744H310.342V186.055H308.32V180.061H306.756V194.686H308.32V187.426H310.342V195.494H311.941V179.744ZM299.197 191.486H300.217C301.913 191.495 303.715 191.381 305.877 190.994L305.701 189.535C303.908 189.887 302.317 190.001 300.867 190.019V181.607H299.197V191.486ZM318.814 184.051V181.186H317.197V184.121C317.206 186.802 316.028 189.588 313.805 190.924L314.842 192.172C316.371 191.24 317.461 189.535 318.032 187.54C318.577 189.359 319.57 190.933 321.047 191.82L321.979 190.537C319.869 189.245 318.814 186.564 318.814 184.051ZM320.273 186.67H322.717V194.721H324.299V180.043H322.717V185.281H320.273V186.67ZM325.969 195.494H327.568V179.744H325.969V195.494ZM343.986 192.137H340.541V187.988C341.807 187.276 342.562 186.16 342.562 184.771C342.562 182.293 340.128 180.667 336.744 180.658C333.369 180.667 330.935 182.293 330.943 184.771C330.935 186.187 331.726 187.312 333.018 188.023V192.137H329.572V193.525H343.986V192.137ZM332.561 184.771C332.561 183.075 334.274 181.994 336.744 181.994C339.196 181.994 340.937 183.075 340.945 184.771C340.937 186.459 339.196 187.558 336.744 187.566C334.274 187.558 332.561 186.459 332.561 184.771ZM334.67 192.137V188.639C335.303 188.788 336.006 188.867 336.744 188.867C337.5 188.867 338.212 188.788 338.854 188.639V192.137H334.67ZM348.029 181.273H345.973L346.131 190.326H347.871L348.029 181.273ZM345.762 192.875C345.753 193.561 346.324 194.114 347.01 194.123C347.687 194.114 348.249 193.561 348.258 192.875C348.249 192.189 347.687 191.627 347.01 191.627C346.324 191.627 345.753 192.189 345.762 192.875Z" fill="#6662A8"/>
<path d="M256.863 438.357L324.984 556.961L332.196 570.032C332.585 570.739 333.238 571.262 334.013 571.488C334.787 571.713 335.619 571.621 336.326 571.233C337.033 570.844 337.557 570.19 337.782 569.415C338.007 568.64 337.916 567.807 337.527 567.1L333.555 555.523L340.497 568.107C340.886 568.814 341.54 569.337 342.314 569.561C343.089 569.786 343.92 569.694 344.627 569.305C345.334 568.917 345.858 568.264 346.083 567.489C346.308 566.715 346.216 565.882 345.828 565.175L341.03 552.01L349.443 565.882C349.832 566.589 350.486 567.112 351.261 567.337C352.036 567.563 352.868 567.471 353.576 567.082C354.282 566.693 354.805 566.039 355.03 565.264C355.255 564.489 355.163 563.657 354.774 562.95L348.293 548.602L356.298 559.883C356.491 560.233 356.75 560.542 357.062 560.791C357.374 561.041 357.731 561.227 358.115 561.338C358.499 561.449 358.9 561.484 359.297 561.44C359.694 561.396 360.079 561.274 360.428 561.081C361.135 560.692 361.659 560.038 361.884 559.263C362.11 558.488 362.018 557.656 361.629 556.948L355.001 545.28L347.228 530.73L352.762 529.67C354.442 529.67 356.061 527.814 356.077 526.131C356.079 525.731 356.002 525.335 355.852 524.965C355.701 524.595 355.479 524.258 355.197 523.974C354.916 523.69 354.582 523.464 354.214 523.309C353.845 523.154 353.45 523.074 353.05 523.072L343.108 523.018L288.101 420.065" fill="#F6C4DE"/>
<path d="M285.298 545.713C286.339 550.943 286.825 556.269 286.746 561.601H124.027C123.954 556.278 124.445 550.963 125.49 545.744L163.81 354.158C166.597 344.444 172.2 336.268 179.499 330.527C186.798 324.786 195.816 321.459 205.379 321.459C224.499 321.459 241.389 334.716 246.934 354.158L285.298 545.713Z" fill="#8C81F7"/>
<path d="M124.027 561.601H286.747C286.669 568.065 285.759 574.491 284.037 580.722L284.067 580.706L250.706 709.737H215.269L206.616 639.042H204.092L195.454 709.737H160.03L126.666 580.706L126.742 580.768C126.743 580.746 126.738 580.725 126.727 580.706C125.01 574.48 124.103 568.059 124.027 561.601Z" fill="#E2E2E2"/>
<path d="M161.811 706.867C161.811 706.867 132.549 723.884 132.391 726.428C132.233 728.973 196.162 728.019 196.636 726.428C197.111 724.838 195.362 707.504 195.362 707.504" fill="#F6C4DE"/>
<path d="M248.969 705.832C248.969 705.832 278.231 722.849 278.389 725.393C278.548 727.938 214.618 726.982 214.144 725.393C213.67 723.805 215.419 706.467 215.419 706.467" fill="#F6C4DE"/>
<path d="M299.174 427.645L249.351 452.884L213.684 352.873C212.485 349.511 212.553 345.827 213.876 342.512C215.199 339.197 217.685 336.477 220.868 334.864C224.053 333.251 227.717 332.855 231.172 333.75C234.628 334.645 237.639 336.77 239.64 339.725L299.174 427.645Z" fill="#8C81F7"/>
<path d="M111.172 427.662L160.995 452.902L196.662 352.891C197.861 349.529 197.793 345.845 196.47 342.53C195.148 339.215 192.661 336.497 189.477 334.884C186.293 333.27 182.63 332.874 179.174 333.768C175.718 334.663 172.707 336.787 170.706 339.743L111.172 427.662Z" fill="#8C81F7"/>
<path d="M181.133 292.758C181.133 292.758 181.533 267.131 208.98 266.029C231.897 265.109 238.87 286.035 239.675 288.768C244.937 306.578 266.477 324.857 291.824 328.029C317.17 331.2 302.452 363.466 288.764 361.245C275.076 359.024 242.179 347.94 223.57 316.324C204.962 284.709 181.133 297.431 181.133 295.095V292.758Z" fill="#806CF6"/>
<path d="M207.307 319.565C220.653 319.565 231.473 309.158 231.473 296.322C231.473 283.485 220.653 273.079 207.307 273.079C193.96 273.079 183.141 283.485 183.141 296.322C183.141 309.158 193.96 319.565 207.307 319.565Z" fill="#F6C4DE"/>
<path d="M225.484 292.61H233.747C234.732 292.61 235.676 293.001 236.372 293.697C237.068 294.393 237.459 295.337 237.459 296.322C237.459 297.306 237.068 298.25 236.372 298.946C235.676 299.642 234.732 300.034 233.747 300.034H225.484V292.61Z" fill="#F6C4DE"/>
<path d="M189.129 300.034H180.866C180.379 300.034 179.896 299.938 179.446 299.751C178.995 299.564 178.586 299.291 178.241 298.946C177.897 298.602 177.623 298.192 177.437 297.742C177.25 297.292 177.154 296.809 177.154 296.322C177.154 295.834 177.25 295.351 177.437 294.901C177.623 294.451 177.897 294.042 178.241 293.697C178.586 293.352 178.995 293.079 179.446 292.892C179.896 292.706 180.379 292.61 180.866 292.61H189.129V300.036V300.034Z" fill="#F6C4DE"/>
<path d="M196.499 292.87C197.355 292.87 198.049 292.176 198.049 291.32C198.049 290.464 197.355 289.77 196.499 289.77C195.643 289.77 194.949 290.464 194.949 291.32C194.949 292.176 195.643 292.87 196.499 292.87Z" fill="#624EC5"/>
<path d="M215.339 292.87C216.195 292.87 216.889 292.176 216.889 291.32C216.889 290.464 216.195 289.77 215.339 289.77C214.483 289.77 213.789 290.464 213.789 291.32C213.789 292.176 214.483 292.87 215.339 292.87Z" fill="#624EC5"/>
<path d="M206.629 298.483C206.48 298.484 206.334 298.442 206.209 298.361C206.084 298.281 205.986 298.166 205.925 298.03C205.332 296.694 204.65 295.4 203.885 294.155C203.727 295.338 203.652 296.53 203.659 297.724C203.659 297.927 203.578 298.121 203.434 298.265C203.291 298.408 203.097 298.489 202.894 298.489C202.691 298.489 202.496 298.408 202.353 298.265C202.209 298.121 202.129 297.927 202.129 297.724C202.129 292.903 202.868 292.426 203.149 292.248C203.285 292.157 203.442 292.103 203.605 292.091C203.768 292.079 203.931 292.109 204.079 292.179C205.01 292.597 206.374 295.253 207.337 297.405C207.38 297.497 207.404 297.597 207.407 297.698C207.411 297.8 207.394 297.901 207.358 297.996C207.323 298.09 207.268 298.177 207.198 298.251C207.129 298.325 207.045 298.384 206.952 298.425C206.85 298.468 206.74 298.488 206.629 298.483Z" fill="#B7577E"/>
<path d="M205.096 308.482C203.346 308.486 201.612 308.14 199.998 307.463C199.906 307.421 199.823 307.361 199.755 307.287C199.686 307.213 199.633 307.126 199.598 307.031C199.563 306.936 199.547 306.835 199.551 306.734C199.556 306.633 199.58 306.534 199.623 306.443C199.665 306.351 199.725 306.268 199.799 306.2C199.873 306.131 199.96 306.078 200.055 306.043C200.149 306.008 200.25 305.992 200.351 305.997C200.452 306.001 200.551 306.025 200.643 306.068C200.869 306.175 206.313 308.617 211.006 304.951C211.085 304.888 211.177 304.842 211.274 304.814C211.372 304.787 211.474 304.779 211.574 304.792C211.675 304.804 211.772 304.836 211.86 304.886C211.948 304.936 212.025 305.004 212.087 305.084C212.15 305.163 212.196 305.255 212.223 305.352C212.251 305.45 212.258 305.552 212.246 305.653C212.233 305.753 212.201 305.85 212.15 305.938C212.1 306.026 212.032 306.103 211.952 306.165C209.995 307.691 207.578 308.508 205.096 308.482Z" fill="#624EC5"/>
<path d="M264.284 449.18C264.137 449.18 263.995 449.129 263.881 449.036C263.767 448.943 263.689 448.814 263.659 448.67L252.574 393.228C252.558 393.145 252.559 393.06 252.575 392.977C252.592 392.894 252.625 392.816 252.673 392.746C252.72 392.677 252.781 392.617 252.852 392.571C252.922 392.525 253.001 392.493 253.084 392.478C253.167 392.462 253.252 392.462 253.335 392.479C253.417 392.496 253.496 392.529 253.566 392.576C253.635 392.624 253.695 392.685 253.741 392.755C253.787 392.826 253.819 392.905 253.834 392.988L264.921 448.43C264.938 448.513 264.937 448.598 264.92 448.681C264.903 448.763 264.87 448.842 264.823 448.911C264.775 448.981 264.715 449.041 264.644 449.087C264.573 449.133 264.494 449.164 264.411 449.18C264.369 449.183 264.326 449.183 264.284 449.18Z" fill="#1D1D1B"/>
<path d="M145.912 447.288C145.873 447.292 145.833 447.292 145.794 447.288C145.712 447.273 145.633 447.241 145.563 447.195C145.493 447.15 145.432 447.091 145.385 447.021C145.338 446.952 145.304 446.874 145.287 446.792C145.27 446.71 145.269 446.626 145.284 446.543L155.26 393.663C155.276 393.581 155.307 393.502 155.353 393.432C155.398 393.362 155.458 393.301 155.527 393.254C155.596 393.207 155.674 393.173 155.756 393.156C155.838 393.139 155.922 393.138 156.005 393.154C156.087 393.169 156.166 393.2 156.236 393.246C156.306 393.292 156.367 393.351 156.414 393.42C156.461 393.489 156.495 393.567 156.512 393.649C156.529 393.731 156.53 393.816 156.515 393.898L146.541 446.778C146.511 446.923 146.432 447.052 146.317 447.145C146.203 447.238 146.059 447.289 145.912 447.288Z" fill="#1D1D1B"/>
<path d="M205.391 639.685C205.222 639.685 205.06 639.617 204.941 639.498C204.821 639.378 204.754 639.216 204.754 639.047V606.942C204.754 606.773 204.821 606.611 204.941 606.492C205.06 606.372 205.222 606.305 205.391 606.305C205.56 606.305 205.722 606.372 205.842 606.492C205.962 606.611 206.029 606.773 206.029 606.942V639.047C206.029 639.216 205.962 639.378 205.842 639.498C205.722 639.617 205.56 639.685 205.391 639.685Z" fill="#1D1D1B"/>
<path d="M141.225 442.888L122.155 433.228L101.028 356.875L107.095 349.005C107.588 348.366 107.806 347.558 107.702 346.758C107.598 345.958 107.181 345.232 106.542 344.74C105.211 343.72 102.744 343.843 101.719 345.174L97.479 348.885L90.7842 333.811L85.6573 321.408C85.3388 320.666 84.7386 320.081 83.989 319.782C83.2394 319.483 82.4015 319.494 81.6598 319.812C80.9188 320.13 80.3346 320.73 80.0358 321.479C79.737 322.229 79.748 323.066 80.0664 323.807L84.041 337.064L76.7115 323.131C76.3924 322.39 75.7921 321.806 75.0425 321.507C74.2929 321.208 73.4553 321.219 72.7139 321.538C72.3468 321.695 72.0143 321.924 71.7355 322.21C71.4566 322.496 71.2369 322.834 71.0889 323.205C70.9409 323.576 70.8675 323.973 70.8729 324.372C70.8784 324.771 70.9625 325.166 71.1205 325.533L76.8925 340.689L69.4609 328.814C69.1424 328.072 68.5422 327.487 67.7926 327.188C67.0429 326.889 66.2051 326.9 65.4634 327.218C64.7222 327.537 64.138 328.137 63.8392 328.887C63.5405 329.636 63.5515 330.474 63.87 331.215L69.5271 344.427L62.8375 334.178C62.6801 333.811 62.4517 333.478 62.1657 333.199C61.8797 332.92 61.5415 332.701 61.1706 332.552C60.7996 332.404 60.4031 332.331 60.0037 332.336C59.6042 332.341 59.2096 332.424 58.8425 332.582C58.4753 332.739 58.1428 332.968 57.8639 333.254C57.585 333.54 57.3652 333.878 57.217 334.249C57.0688 334.62 56.9952 335.016 57.0002 335.416C57.0053 335.815 57.089 336.21 57.2466 336.577L75.2022 367.048L95.0265 456.891C100.65 467.393 114.825 469.465 123.22 461.014L141.225 442.888Z" fill="#F6C4DE"/>
</svg>
