<svg width="414" height="896" viewBox="0 0 414 896" fill="none" xmlns="http://www.w3.org/2000/svg">
<rect width="414" height="896" fill="white"/>
<path d="M135.581 703.527V702.105H140.228V699.465H127.431V702.105H132.331V703.527C132.306 707.349 130.363 711.64 126.517 713.43L128.396 715.994C131.062 714.737 132.966 712.147 133.994 709.101C135.035 711.868 136.863 714.229 139.44 715.41L141.243 712.871C137.447 711.106 135.568 707.044 135.581 703.527ZM142.03 720.336H145.28V708.758H148.683V706.041H145.28V697.23H142.03V720.336ZM156.935 703.045V699.211H153.786V703.197C153.786 707.107 152.517 711.183 149.089 713.303L151.069 715.689C153.164 714.42 154.548 712.224 155.373 709.608C156.109 711.97 157.366 713.976 159.372 715.182L161.124 712.668C157.963 710.649 156.922 706.79 156.935 703.045ZM158.687 707.666H161.683V719.27H164.704V697.561H161.683V705.025H158.687V707.666ZM166.456 720.336H169.554V697.23H166.456V720.336ZM199.108 709.088H177.958V711.627H187.2V715.359H190.399V711.627H199.108V709.088ZM180.446 719.93H196.772V717.34H183.646V713.531H180.446V719.93ZM180.675 707.463H196.366V697.967H193.142V700.379H183.874V697.967H180.675V707.463ZM183.874 704.898V702.791H193.142V704.898H183.874ZM209.112 700.836V698.424H205.837V700.633C205.824 703.794 204.174 706.815 200.302 708.047L202.054 710.637C204.656 709.71 206.472 707.92 207.487 705.635C208.465 707.729 210.166 709.393 212.642 710.23L214.368 707.666C210.712 706.511 209.1 703.718 209.112 700.836ZM204.06 714.598H216.704V720.336H219.929V712.033H204.06V714.598ZM212.362 704.188H216.704V710.992H219.929V697.23H216.704V701.521H212.362V704.188ZM248.392 697.23H245.167V700.125H240.8C240.901 699.49 240.952 698.817 240.952 698.119H230.491V700.734H237.359C236.928 703.515 234.49 705.711 229.196 706.752L230.288 709.393C235.404 708.275 238.705 706.054 240.14 702.588H245.167V704.619H239.886V707.082H245.167V708.859H248.392V697.23ZM233.03 712.236H245.142V713.633H233.056V720.107H248.899V717.543H236.306V716.02H248.392V709.697H233.03V712.236ZM264.388 699.541H252.403V702.131H261.163C261.138 704.175 261.087 706.65 260.554 710.002L263.753 710.256C264.362 706.409 264.362 703.565 264.388 701.395V699.541ZM251.185 713.023L251.489 715.613C255.539 715.639 260.77 715.55 265.53 714.75L265.327 712.338C263.194 712.617 260.896 712.782 258.624 712.871V706.168H255.425V712.973C253.927 713.011 252.479 713.023 251.185 713.023ZM266.419 720.336H269.694V709.215H272.843V706.523H269.694V697.23H266.419V720.336Z" fill="#8666FF"/>
<path d="M294.983 707.59H273.833V710.002H294.983V707.59ZM276.245 713.379H289.245V714.547H276.271V720.133H293.13V717.924H279.495V716.604H292.444V711.145H276.245V713.379ZM276.423 699.846H289.169V701.014H276.474V706.498H292.825V704.314H279.698V703.07H292.419V697.637H276.423V699.846ZM133.296 730.256H130.046V745.947H133.296V739.523H136.241V736.857H133.296V730.256ZM114.558 742.977L114.888 745.49C118.963 745.49 124.32 745.439 129.208 744.576L128.979 742.342C127.202 742.57 125.298 742.71 123.394 742.812V741.618C125.869 741.263 127.418 740.044 127.431 738.279C127.418 736.134 125.171 734.813 121.769 734.826C118.341 734.813 116.094 736.134 116.106 738.279C116.094 740.044 117.655 741.275 120.169 741.631V742.926C118.163 742.977 116.246 742.977 114.558 742.977ZM115.167 734.293H128.396V731.932H123.394V730.053H120.169V731.932H115.167V734.293ZM117.503 749.375H130.046V753.336H133.296V746.887H117.503V749.375ZM119.204 738.279C119.191 737.378 120.118 736.984 121.769 736.984C123.394 736.984 124.32 737.378 124.333 738.279C124.32 739.117 123.394 739.612 121.769 739.6C120.118 739.612 119.191 739.117 119.204 738.279ZM156.63 730.256H153.38V746.861H156.63V730.256ZM137.638 737.543C137.638 740.983 140.405 743.408 143.96 743.408C147.502 743.408 150.27 740.983 150.282 737.543C150.27 734.153 147.502 731.716 143.96 731.729C140.405 731.716 137.638 734.153 137.638 737.543ZM140.812 737.543C140.786 735.664 142.145 734.534 143.96 734.547C145.712 734.534 147.07 735.664 147.083 737.543C147.07 739.473 145.712 740.59 143.96 740.59C142.145 740.59 140.786 739.473 140.812 737.543ZM141.142 752.93H157.239V750.34H144.417V745.186H141.142V752.93ZM177.983 730.23H174.784V753.336H177.983V741.936H181.386V739.27H177.983V730.23ZM159.626 736.273H173.21V733.684H168.106V730.586H164.856V733.684H159.626V736.273ZM160.565 743.078C160.553 746.303 163.066 748.575 166.481 748.588C169.846 748.575 172.372 746.303 172.372 743.078C172.372 739.854 169.846 737.556 166.481 737.568C163.066 737.556 160.553 739.854 160.565 743.078ZM163.663 743.078C163.663 741.301 164.844 740.209 166.481 740.184C168.094 740.209 169.274 741.301 169.274 743.078C169.274 744.868 168.094 745.935 166.481 745.922C164.844 745.935 163.663 744.868 163.663 743.078ZM201.698 730.23H198.474V738.559H194.741V741.199H198.474V753.387H201.698V730.23ZM182.985 734.775H190.298V738.254H183.036V748.004H184.94C188.812 748.017 191.948 747.89 195.376 747.318L195.122 744.678C192.139 745.198 189.447 745.312 186.261 745.338V740.818H193.446V732.16H182.985V734.775ZM228.917 730.23H225.667V753.285H228.917V741.758H232.192V739.092H228.917V730.23ZM210.433 746.811L212.261 749.299C220.03 745.478 222.722 739.498 222.747 732.592H211.753V735.232H219.459C218.85 740.387 215.904 744.068 210.433 746.811ZM239.048 730.586H235.849V738.33H242.044V739.828H233.157V742.367H254.231V739.828H245.243V738.33H251.54V730.586H248.315V732.186H239.048V730.586ZM235.595 745.947H248.468V747.191H235.62V753.184H252.276V750.746H238.794V749.426H251.667V743.586H235.595V745.947ZM239.048 735.918V734.521H248.315V735.918H239.048ZM274.138 730.23H270.888V753.336H274.138V741.961H277.21V739.295H274.138V730.23ZM255.171 746.633L257.71 748.436C261.849 743.891 262.509 738.939 262.534 732.592H256.187V735.232H259.437C259.233 739.841 258.319 743.218 255.171 746.633ZM261.696 748.131L264.261 749.934C268.349 744.906 268.92 739.181 268.933 732.592H263.296V735.232H265.873C265.695 740.311 264.832 744.271 261.696 748.131ZM299.249 747.979H294.552V742.253C296.291 741.174 297.332 739.562 297.345 737.568C297.332 733.823 293.638 731.36 288.636 731.348C283.608 731.36 279.952 733.823 279.952 737.568C279.952 739.6 281.031 741.237 282.821 742.316V747.979H278.099V750.645H299.249V747.979ZM283.151 737.568C283.151 735.245 285.322 733.899 288.636 733.912C291.898 733.899 294.133 735.245 294.146 737.568C294.133 739.828 291.898 741.225 288.636 741.225C285.322 741.225 283.151 739.828 283.151 737.568ZM286.021 747.979V743.497C286.833 743.649 287.709 743.738 288.636 743.738C289.562 743.738 290.451 743.649 291.276 743.484V747.979H286.021ZM304.606 745.211V745.49H307.958V745.211C307.971 743.434 308.605 742.608 310.04 741.758C311.703 740.755 312.782 739.435 312.782 737.34C312.782 734.204 310.281 732.363 306.739 732.363C303.489 732.363 300.836 734.077 300.772 737.645H304.378C304.429 736.159 305.533 735.372 306.714 735.359C307.945 735.372 308.936 736.197 308.923 737.467C308.936 738.635 308.085 739.422 306.993 740.133C305.47 741.085 304.619 742.05 304.606 745.211ZM304.226 749.096C304.2 750.276 305.165 751.229 306.358 751.229C307.488 751.229 308.466 750.276 308.466 749.096C308.466 747.928 307.488 746.976 306.358 746.988C305.165 746.976 304.2 747.928 304.226 749.096Z" fill="#6662A8"/>
<path d="M258.863 361.358L326.984 479.962L334.196 493.033C334.585 493.74 335.238 494.264 336.013 494.489C336.787 494.714 337.619 494.622 338.326 494.234C339.033 493.845 339.557 493.191 339.782 492.416C340.007 491.641 339.916 490.809 339.527 490.101L335.555 478.524L342.497 491.108C342.886 491.815 343.54 492.338 344.314 492.563C345.089 492.787 345.92 492.695 346.627 492.307C347.334 491.918 347.858 491.265 348.083 490.49C348.308 489.716 348.216 488.883 347.828 488.176L343.03 475.011L351.443 488.883C351.832 489.59 352.486 490.113 353.261 490.339C354.036 490.564 354.868 490.472 355.576 490.083C356.282 489.694 356.805 489.04 357.03 488.265C357.255 487.49 357.163 486.658 356.774 485.951L350.293 471.603L358.298 482.884C358.491 483.234 358.75 483.543 359.062 483.792C359.374 484.042 359.731 484.228 360.115 484.339C360.499 484.45 360.9 484.485 361.297 484.441C361.694 484.397 362.079 484.275 362.428 484.082C363.135 483.693 363.659 483.039 363.884 482.264C364.11 481.489 364.018 480.657 363.629 479.95L357.001 468.281L349.228 453.731L354.762 452.671C356.442 452.671 358.061 450.815 358.077 449.132C358.079 448.733 358.002 448.336 357.852 447.966C357.701 447.596 357.479 447.259 357.197 446.975C356.916 446.691 356.582 446.465 356.214 446.31C355.845 446.156 355.45 446.075 355.05 446.073L345.108 446.019L290.101 343.066" fill="#F6C4DE"/>
<path d="M287.298 468.714C288.339 473.944 288.825 479.27 288.746 484.602H126.027C125.954 479.28 126.445 473.964 127.49 468.745L165.81 277.159C168.597 267.445 174.2 259.27 181.499 253.528C188.798 247.787 197.816 244.46 207.379 244.46C226.499 244.46 243.389 257.717 248.934 277.159L287.298 468.714Z" fill="#8C81F7"/>
<path d="M126.027 484.602H288.747C288.669 491.066 287.759 497.492 286.037 503.723L286.067 503.707L252.706 632.738H217.269L208.616 562.043H206.092L197.454 632.738H162.03L128.666 503.707L128.742 503.769C128.743 503.747 128.738 503.726 128.727 503.707C127.01 497.481 126.103 491.06 126.027 484.602Z" fill="#E2E2E2"/>
<path d="M163.811 629.868C163.811 629.868 134.549 646.885 134.391 649.43C134.233 651.974 198.162 651.02 198.636 649.43C199.111 647.839 197.362 630.505 197.362 630.505" fill="#F6C4DE"/>
<path d="M250.969 628.833C250.969 628.833 280.231 645.85 280.389 648.394C280.548 650.939 216.618 649.983 216.144 648.394C215.67 646.806 217.419 629.468 217.419 629.468" fill="#F6C4DE"/>
<path d="M301.174 350.646L251.351 375.885L215.684 275.874C214.485 272.512 214.553 268.828 215.876 265.513C217.199 262.198 219.685 259.478 222.868 257.865C226.053 256.252 229.717 255.856 233.172 256.751C236.628 257.646 239.639 259.771 241.64 262.726L301.174 350.646Z" fill="#8C81F7"/>
<path d="M113.172 350.663L162.995 375.903L198.662 275.892C199.861 272.53 199.793 268.847 198.47 265.532C197.148 262.217 194.661 259.498 191.477 257.885C188.293 256.272 184.63 255.875 181.174 256.769C177.718 257.664 174.707 259.788 172.706 262.744L113.172 350.663Z" fill="#8C81F7"/>
<path d="M183.133 215.759C183.133 215.759 183.533 190.132 210.98 189.031C233.897 188.11 240.87 209.036 241.675 211.769C246.937 229.579 268.477 247.858 293.824 251.03C319.17 254.201 304.452 286.467 290.764 284.246C277.076 282.026 244.179 270.941 225.57 239.325C206.962 207.71 183.133 220.432 183.133 218.096V215.759Z" fill="#806CF6"/>
<path d="M209.307 242.566C222.653 242.566 233.473 232.16 233.473 219.323C233.473 206.486 222.653 196.08 209.307 196.08C195.96 196.08 185.141 206.486 185.141 219.323C185.141 232.16 195.96 242.566 209.307 242.566Z" fill="#F6C4DE"/>
<path d="M227.484 215.611H235.747C236.732 215.611 237.676 216.002 238.372 216.698C239.068 217.394 239.459 218.338 239.459 219.323C239.459 220.307 239.068 221.251 238.372 221.948C237.676 222.644 236.732 223.035 235.747 223.035H227.484V215.611Z" fill="#F6C4DE"/>
<path d="M191.129 223.035H182.866C182.379 223.035 181.896 222.939 181.446 222.752C180.995 222.566 180.586 222.292 180.241 221.947C179.897 221.603 179.623 221.194 179.437 220.743C179.25 220.293 179.154 219.81 179.154 219.323C179.154 218.835 179.25 218.353 179.437 217.902C179.623 217.452 179.897 217.043 180.241 216.698C180.586 216.353 180.995 216.08 181.446 215.893C181.896 215.707 182.379 215.611 182.866 215.611H191.129V223.037V223.035Z" fill="#F6C4DE"/>
<path d="M198.499 215.871C199.355 215.871 200.049 215.177 200.049 214.321C200.049 213.465 199.355 212.771 198.499 212.771C197.643 212.771 196.949 213.465 196.949 214.321C196.949 215.177 197.643 215.871 198.499 215.871Z" fill="#624EC5"/>
<path d="M217.339 215.871C218.195 215.871 218.889 215.177 218.889 214.321C218.889 213.465 218.195 212.771 217.339 212.771C216.483 212.771 215.789 213.465 215.789 214.321C215.789 215.177 216.483 215.871 217.339 215.871Z" fill="#624EC5"/>
<path d="M208.629 221.485C208.48 221.486 208.334 221.443 208.209 221.363C208.084 221.282 207.986 221.167 207.925 221.031C207.332 219.695 206.65 218.401 205.885 217.156C205.727 218.339 205.652 219.531 205.659 220.725C205.659 220.928 205.578 221.122 205.434 221.266C205.291 221.409 205.097 221.49 204.894 221.49C204.691 221.49 204.496 221.409 204.353 221.266C204.209 221.122 204.129 220.928 204.129 220.725C204.129 215.904 204.868 215.427 205.149 215.249C205.285 215.158 205.442 215.104 205.605 215.092C205.768 215.08 205.931 215.11 206.079 215.18C207.01 215.598 208.374 218.254 209.337 220.406C209.38 220.498 209.404 220.598 209.407 220.699C209.411 220.801 209.394 220.902 209.358 220.997C209.323 221.092 209.268 221.178 209.198 221.252C209.129 221.326 209.045 221.385 208.952 221.426C208.85 221.469 208.74 221.489 208.629 221.485Z" fill="#B7577E"/>
<path d="M207.096 231.483C205.346 231.488 203.612 231.141 201.998 230.464C201.906 230.422 201.823 230.362 201.755 230.288C201.686 230.214 201.633 230.127 201.598 230.032C201.563 229.937 201.547 229.836 201.551 229.735C201.556 229.634 201.58 229.535 201.623 229.444C201.665 229.352 201.725 229.269 201.799 229.201C201.873 229.132 201.96 229.079 202.055 229.044C202.149 229.009 202.25 228.993 202.351 228.998C202.452 229.002 202.551 229.026 202.643 229.069C202.869 229.176 208.313 231.619 213.006 227.952C213.085 227.89 213.177 227.843 213.274 227.816C213.372 227.788 213.474 227.78 213.574 227.793C213.675 227.805 213.772 227.837 213.86 227.887C213.948 227.938 214.025 228.005 214.087 228.085C214.15 228.165 214.196 228.256 214.223 228.353C214.251 228.451 214.258 228.553 214.246 228.654C214.233 228.754 214.201 228.851 214.15 228.939C214.1 229.027 214.032 229.104 213.952 229.166C211.995 230.692 209.578 231.509 207.096 231.483Z" fill="#624EC5"/>
<path d="M266.284 372.181C266.137 372.181 265.995 372.13 265.881 372.037C265.767 371.944 265.689 371.815 265.659 371.671L254.574 316.229C254.558 316.146 254.559 316.061 254.575 315.978C254.592 315.895 254.625 315.817 254.673 315.747C254.72 315.678 254.781 315.618 254.852 315.572C254.922 315.526 255.001 315.494 255.084 315.479C255.167 315.463 255.252 315.463 255.335 315.48C255.417 315.497 255.496 315.53 255.566 315.577C255.635 315.625 255.695 315.686 255.741 315.756C255.787 315.827 255.819 315.906 255.834 315.989L266.921 371.431C266.938 371.514 266.937 371.599 266.92 371.681C266.903 371.764 266.87 371.843 266.823 371.912C266.775 371.982 266.715 372.042 266.644 372.088C266.573 372.134 266.494 372.165 266.411 372.181C266.369 372.184 266.326 372.184 266.284 372.181Z" fill="#1D1D1B"/>
<path d="M147.912 370.289C147.873 370.293 147.833 370.293 147.794 370.289C147.712 370.274 147.633 370.242 147.563 370.196C147.493 370.151 147.432 370.092 147.385 370.022C147.338 369.953 147.304 369.876 147.287 369.794C147.27 369.712 147.269 369.627 147.284 369.545L157.26 316.665C157.276 316.582 157.307 316.504 157.353 316.433C157.398 316.363 157.458 316.303 157.527 316.255C157.596 316.208 157.674 316.175 157.756 316.157C157.838 316.14 157.922 316.139 158.005 316.155C158.087 316.17 158.166 316.201 158.236 316.247C158.306 316.293 158.367 316.352 158.414 316.421C158.461 316.49 158.495 316.568 158.512 316.65C158.529 316.732 158.53 316.817 158.515 316.899L148.541 369.779C148.511 369.924 148.432 370.053 148.317 370.146C148.203 370.239 148.059 370.29 147.912 370.289Z" fill="#1D1D1B"/>
<path d="M207.391 562.686C207.222 562.686 207.06 562.618 206.941 562.499C206.821 562.379 206.754 562.217 206.754 562.048V529.944C206.754 529.774 206.821 529.612 206.941 529.493C207.06 529.373 207.222 529.306 207.391 529.306C207.56 529.306 207.722 529.373 207.842 529.493C207.962 529.612 208.029 529.774 208.029 529.944V562.048C208.029 562.217 207.962 562.379 207.842 562.499C207.722 562.618 207.56 562.686 207.391 562.686Z" fill="#1D1D1B"/>
<path d="M143.225 365.889L124.155 356.229L103.028 279.876L109.095 272.006C109.588 271.367 109.806 270.559 109.702 269.759C109.598 268.959 109.181 268.233 108.542 267.741C107.211 266.721 104.744 266.844 103.719 268.175L99.479 271.887L92.7842 256.812L87.6573 244.409C87.3388 243.667 86.7386 243.083 85.989 242.783C85.2394 242.484 84.4015 242.495 83.6598 242.813C82.9188 243.132 82.3346 243.731 82.0358 244.481C81.737 245.23 81.748 246.067 82.0664 246.808L86.041 260.065L78.7115 246.132C78.3924 245.391 77.7921 244.807 77.0425 244.508C76.2929 244.209 75.4553 244.22 74.7139 244.539C74.3468 244.696 74.0143 244.925 73.7355 245.211C73.4566 245.497 73.2369 245.835 73.0889 246.206C72.9409 246.577 72.8675 246.974 72.8729 247.373C72.8784 247.773 72.9625 248.167 73.1205 248.534L78.8925 263.69L71.4609 251.815C71.1424 251.073 70.5422 250.489 69.7926 250.189C69.0429 249.89 68.2051 249.901 67.4634 250.219C66.7222 250.538 66.138 251.138 65.8392 251.888C65.5405 252.638 65.5515 253.475 65.87 254.217L71.5271 267.428L64.8375 257.179C64.6801 256.812 64.4517 256.479 64.1657 256.2C63.8797 255.921 63.5415 255.702 63.1706 255.553C62.7996 255.405 62.4031 255.332 62.0037 255.337C61.6042 255.342 61.2096 255.425 60.8425 255.583C60.4753 255.741 60.1428 255.969 59.8639 256.255C59.585 256.541 59.3652 256.879 59.217 257.25C59.0688 257.621 58.9952 258.017 59.0002 258.417C59.0053 258.816 59.089 259.211 59.2466 259.578L77.2022 290.049L97.0265 379.893C102.65 390.394 116.825 392.466 125.22 384.015L143.225 365.889Z" fill="#F6C4DE"/>
<path d="M86.6357 125.527V124.105H91.2822V121.465H78.4854V124.105H83.3857V125.527C83.3604 129.349 81.418 133.64 77.5713 135.43L79.4502 137.994C82.1162 136.737 84.0205 134.147 85.0488 131.101C86.0898 133.868 87.918 136.229 90.4951 137.41L92.2979 134.871C88.502 133.106 86.623 129.044 86.6357 125.527ZM93.085 142.336H96.335V130.758H99.7373V128.041H96.335V119.23H93.085V142.336ZM107.989 125.045V121.211H104.841V125.197C104.841 129.107 103.571 133.183 100.144 135.303L102.124 137.689C104.219 136.42 105.603 134.224 106.428 131.608C107.164 133.97 108.421 135.976 110.427 137.182L112.179 134.668C109.018 132.649 107.977 128.79 107.989 125.045ZM109.741 129.666H112.737V141.27H115.759V119.561H112.737V127.025H109.741V129.666ZM117.511 142.336H120.608V119.23H117.511V142.336ZM150.112 130.682H129.038V133.271H150.112V130.682ZM129.927 127.381L130.917 129.844C135.145 129.526 138.09 128.295 139.537 126.429C140.997 128.295 143.93 129.526 148.183 129.844L149.173 127.381C144.12 127.063 141.784 125.565 141.403 123.902H148.081V121.389H141.149V119.307H137.95V121.389H131.069V123.902H137.684C137.29 125.565 134.941 127.063 129.927 127.381ZM131.374 137.562H144.323V142.336H147.548V135.023H131.374V137.562ZM170.983 119.23H167.759V124.867H164.153V127.482H167.759V132.941H170.983V119.23ZM151.356 130.402L153.032 132.967C155.774 132.027 157.628 130.136 158.644 127.787C159.646 129.856 161.411 131.532 163.95 132.357L165.55 129.818C161.957 128.625 160.307 125.908 160.243 123.217H164.839V120.627H152.296V123.217H156.942C156.866 126.111 155.14 129.133 151.356 130.402ZM155.14 137.918C155.14 140.724 158.161 142.361 163.087 142.361C168.025 142.361 171.047 140.724 171.06 137.918C171.047 135.112 168.025 133.462 163.087 133.449C158.161 133.462 155.14 135.112 155.14 137.918ZM158.364 137.918C158.364 136.585 160.027 135.925 163.087 135.938C166.159 135.925 167.822 136.585 167.835 137.918C167.822 139.238 166.159 139.898 163.087 139.898C160.027 139.898 158.364 139.238 158.364 137.918ZM193.327 119.23H190.052V142.387H193.327V119.23ZM174.665 129.082C174.652 134.16 177.229 137.334 180.784 137.334C184.263 137.334 186.853 134.16 186.853 129.082C186.853 124.042 184.263 120.855 180.784 120.855C177.229 120.855 174.652 124.042 174.665 129.082ZM177.788 129.082C177.775 125.654 178.981 123.775 180.784 123.775C182.536 123.775 183.717 125.654 183.729 129.082C183.717 132.522 182.536 134.401 180.784 134.389C178.981 134.401 177.775 132.522 177.788 129.082ZM214.554 127.508H211.354V130.275H202.442V132.891H223.517V130.275H214.554V127.508ZM203.356 126.289L204.499 128.828C208.841 128.396 211.735 126.771 212.954 124.55C214.186 126.784 217.105 128.396 221.46 128.828L222.603 126.289C218.261 125.883 215.899 124.347 215.328 122.76H221.612V120.221H204.372V122.76H210.605C210.021 124.359 207.66 125.883 203.356 126.289ZM204.854 138.248C204.854 140.876 207.889 142.349 212.954 142.336C217.981 142.349 220.978 140.876 221.003 138.248C220.978 135.62 217.981 134.16 212.954 134.16C207.889 134.16 204.854 135.62 204.854 138.248ZM208.155 138.248C208.143 137.144 209.717 136.623 212.954 136.623C216.115 136.623 217.74 137.144 217.753 138.248C217.74 139.378 216.115 139.924 212.954 139.924C209.717 139.924 208.143 139.378 208.155 138.248ZM246.063 137.105H240.884V133.576H244.159V130.961H230.601V128.396H243.626V120.729H227.325V123.318H240.427V125.807H227.351V133.576H230.321V137.105H224.913V139.771H246.063V137.105ZM233.47 137.105V133.576H237.71V137.105H233.47Z" fill="#8666FF"/>
<path d="M261.146 128.625H252.233V123.852H261.019V121.287H249.009V131.215H253.401V135.112C251.332 135.163 249.326 135.163 247.485 135.15L247.866 137.791C252.208 137.791 257.464 137.753 262.517 136.979L262.263 134.617C260.46 134.808 258.556 134.935 256.651 135.011V131.215H261.146V128.625ZM263.583 142.387H266.808V119.23H263.583V142.387ZM278.563 133.982V133.043H275.415V133.982C275.402 136.28 274.12 138.629 271.073 139.645L272.647 142.031C274.742 141.257 276.164 139.86 276.989 138.134C277.751 139.937 279.109 141.447 281.229 142.234C283.324 141.396 284.683 139.822 285.444 138.045C286.244 139.835 287.666 141.27 289.862 142.031L291.513 139.645C288.364 138.68 287.107 136.395 287.095 133.982V133.043H283.921V133.982C283.896 135.696 283.121 137.728 281.217 139.124C279.325 137.816 278.551 135.874 278.563 133.982ZM270.134 125.934C270.134 129.184 272.774 131.507 276.304 131.494C279.249 131.507 281.636 129.78 282.245 127.229H286.104V132.18H289.329V119.23H286.104V124.588H282.232C281.598 122.1 279.224 120.398 276.304 120.424C272.774 120.398 270.134 122.747 270.134 125.934ZM273.257 125.934C273.231 124.169 274.526 123.103 276.304 123.115C278.03 123.103 279.312 124.169 279.325 125.934C279.312 127.698 278.03 128.815 276.304 128.803C274.526 128.815 273.231 127.698 273.257 125.934ZM298.698 120.855C295.194 120.855 292.681 124.042 292.706 129.082C292.681 134.16 295.194 137.334 298.698 137.334C301.923 137.334 304.31 134.617 304.652 130.174H308.626V142.387H311.825V119.23H308.626V127.584H304.614C304.157 123.42 301.821 120.855 298.698 120.855ZM295.804 129.082C295.791 125.654 296.972 123.775 298.698 123.775C300.438 123.775 301.593 125.654 301.593 129.082C301.593 132.522 300.438 134.401 298.698 134.389C296.972 134.401 295.791 132.522 295.804 129.082ZM335.946 136.979H331.249V131.253C332.988 130.174 334.029 128.562 334.042 126.568C334.029 122.823 330.335 120.36 325.333 120.348C320.306 120.36 316.649 122.823 316.649 126.568C316.649 128.6 317.729 130.237 319.519 131.316V136.979H314.796V139.645H335.946V136.979ZM319.849 126.568C319.849 124.245 322.02 122.899 325.333 122.912C328.596 122.899 330.83 124.245 330.843 126.568C330.83 128.828 328.596 130.225 325.333 130.225C322.02 130.225 319.849 128.828 319.849 126.568ZM322.718 136.979V132.497C323.53 132.649 324.406 132.738 325.333 132.738C326.26 132.738 327.148 132.649 327.974 132.484V136.979H322.718Z" fill="#6662A8"/>
</svg>
