<svg width="414" height="896" viewBox="0 0 414 896" fill="none" xmlns="http://www.w3.org/2000/svg">
<rect width="414" height="896" fill="white"/>
<path d="M140.154 87.3477C136.625 87.335 133.921 89.5947 133.934 92.7559C133.921 95.9424 136.625 98.1768 140.154 98.1895C143.709 98.1768 146.35 95.9424 146.35 92.7559C146.35 89.5947 143.709 87.335 140.154 87.3477ZM135.863 108.65H137.133C139.139 108.65 141.17 108.485 142.973 107.749L143.887 109.26C145.918 108.612 147.289 107.444 148.102 105.972C148.901 107.47 150.285 108.65 152.367 109.26L153.84 106.822C150.856 106.01 149.638 104.067 149.65 101.973V101.947H153.027V99.4082H143.176V101.947H146.578V101.973C146.565 103.839 145.461 105.692 142.973 106.632L142.516 105.121C141.487 105.591 140.256 105.845 139.012 105.959V100.043H135.863V108.65ZM137.107 92.7559C137.082 91.042 138.402 90.001 140.154 90.0137C141.906 90.001 143.201 91.042 143.201 92.7559C143.201 94.4824 141.906 95.5361 140.154 95.5488C138.402 95.5361 137.082 94.4824 137.107 92.7559ZM148.838 98.4688H152.088V93.7715H155.186V91.1055H152.088V86.2305H148.838V98.4688ZM175.016 92.5273H162.092V87.043H158.867V95.0664H175.016V92.5273ZM156.227 100.094H177.377V97.5547H156.227V100.094ZM158.664 108.828H175.168V106.238H161.914V101.973H158.664V108.828ZM193.246 92.5273V91.1055H197.893V88.4648H185.096V91.1055H189.996V92.5273C189.971 96.3486 188.028 100.64 184.182 102.43L186.061 104.994C188.727 103.737 190.631 101.147 191.659 98.1006C192.7 100.868 194.528 103.229 197.105 104.41L198.908 101.871C195.112 100.106 193.233 96.0439 193.246 92.5273ZM199.695 109.336H202.945V97.7578H206.348V95.041H202.945V86.2305H199.695V109.336ZM214.6 92.0449V88.2109H211.451V92.1973C211.451 96.1074 210.182 100.183 206.754 102.303L208.734 104.689C210.829 103.42 212.213 101.224 213.038 98.6084C213.774 100.97 215.031 102.976 217.037 104.182L218.789 101.668C215.628 99.6494 214.587 95.79 214.6 92.0449ZM216.352 96.666H219.348V108.27H222.369V86.5605H219.348V94.0254H216.352V96.666ZM224.121 109.336H227.219V86.2305H224.121V109.336ZM254.818 88.2363H237.73V90.8008H251.568C251.556 93.4795 251.53 96.6152 250.781 100.855L253.955 101.135C254.806 96.4756 254.806 93.3145 254.818 90.4961V88.2363ZM235.648 106.518H256.723V103.877H249.105V96.6152H245.906V103.877H243.367V96.6152H240.143V103.877H235.648V106.518ZM277.594 86.2305H274.369V91.8672H270.764V94.4824H274.369V99.9414H277.594V86.2305ZM257.967 97.4023L259.643 99.9668C262.385 99.0273 264.238 97.1357 265.254 94.7871C266.257 96.8564 268.021 98.5322 270.561 99.3574L272.16 96.8184C268.567 95.625 266.917 92.9082 266.854 90.2168H271.449V87.627H258.906V90.2168H263.553C263.477 93.1113 261.75 96.1328 257.967 97.4023ZM261.75 104.918C261.75 107.724 264.771 109.361 269.697 109.361C274.636 109.361 277.657 107.724 277.67 104.918C277.657 102.112 274.636 100.462 269.697 100.449C264.771 100.462 261.75 102.112 261.75 104.918ZM264.975 104.918C264.975 103.585 266.638 102.925 269.697 102.938C272.77 102.925 274.433 103.585 274.445 104.918C274.433 106.238 272.77 106.898 269.697 106.898C266.638 106.898 264.975 106.238 264.975 104.918Z" fill="#8666FF"/>
<path d="M56.1016 416.14V281.77H68.5516V416.14" fill="#F7F2E7"/>
<path d="M78.7383 358.11V231.35H91.1983V358.11" fill="#F7F2E7"/>
<path d="M68.5508 309.78V281.73H81.0008V309.78" fill="#F7F2E7"/>
<path d="M205.99 416.14H26V428.44H205.99V416.14Z" fill="#F7F2E7"/>
<path d="M196.588 406.67H126.648V416.82H196.588V406.67Z" fill="#F7F2E7"/>
<path d="M91.2005 406.67H32.2305V416.82H91.2005V406.67Z" fill="#F7F2E7"/>
<path d="M205.991 428.44V644.94H193.531V428.44H205.991Z" fill="#F7F2E7"/>
<path d="M38.45 428.44V644.94H26V428.44H38.45Z" fill="#F7F2E7"/>
<path d="M203.659 623.76L231.959 624.41C231.959 624.41 234.559 641.89 234.119 643.5C233.679 645.11 175.119 646.06 175.289 643.5C175.459 640.94 203.659 623.76 203.659 623.76Z" fill="#F6C4DE"/>
<path d="M370.282 487.73C383.812 540.35 375.662 550.1 291.552 546.92L234.192 546.81L232.402 624.7L202.402 624.06L197.622 512.06C197.535 510.175 198.119 508.32 199.268 506.823C200.417 505.326 202.058 504.284 203.902 503.88L276.5 488.5L370.282 487.73Z" fill="#E2E2E2"/>
<path d="M351.891 293.88L331.891 290.45L333.001 267.02L350.301 267.84C348.573 271.459 347.69 275.424 347.719 279.435C347.749 283.445 348.69 287.396 350.471 290.99L351.891 293.88Z" fill="#F6C4DE"/>
<path d="M330.888 283.68C348.798 279.05 355.338 289.3 358.958 302.68C361.017 310.523 361.89 318.629 361.548 326.73L358.678 407.63C358.1 421.112 358.789 434.618 360.738 447.97C362.842 461.771 366.727 475.24 372.298 488.04L373.088 489.87L272.328 489.37L289.728 351.81C292.348 342.58 296.178 327.25 302.598 313.39C309.018 299.53 317.998 287.09 330.888 283.68Z" fill="#8C81F7"/>
<path d="M195.638 405.91L300.638 416.81L304.208 380.58L160.748 392.99L145.748 395.46C144.78 395.455 143.849 395.827 143.151 396.496C142.452 397.164 142.04 398.078 142.003 399.045C141.965 400.011 142.304 400.955 142.949 401.676C143.594 402.397 144.493 402.839 145.458 402.91C145.273 403.344 145.175 403.809 145.168 404.28C145.16 405.27 145.545 406.223 146.238 406.93C146.932 407.637 147.877 408.039 148.868 408.05L159.958 406.26L170.478 407.74C175.992 408.521 181.595 408.419 187.078 407.44L195.638 405.91Z" fill="#F6C4DE"/>
<path d="M261.02 383.27L304.56 414.74L353.479 325.08C355.123 322.066 355.612 318.556 354.853 315.207C354.095 311.859 352.142 308.902 349.359 306.89C343.599 302.73 331.67 309.64 326.81 314.83L261.02 383.27Z" fill="#8C81F7"/>
<path d="M261.538 384.04C261.393 383.918 261.3 383.745 261.278 383.556C261.257 383.368 261.308 383.179 261.423 383.027C261.537 382.876 261.705 382.774 261.892 382.743C262.079 382.712 262.271 382.754 262.428 382.86L305.288 413.86L326.598 374.86C326.691 374.688 326.848 374.56 327.036 374.503C327.223 374.447 327.425 374.467 327.598 374.56C327.768 374.655 327.894 374.812 327.95 374.999C328.006 375.186 327.988 375.387 327.898 375.56L306.188 415.27C306.137 415.363 306.067 415.444 305.983 415.508C305.898 415.572 305.801 415.617 305.698 415.64C305.597 415.664 305.491 415.665 305.39 415.644C305.288 415.624 305.192 415.581 305.108 415.52L261.558 384.05L261.538 384.04Z" fill="#1D1D1B"/>
<path d="M335.029 235.89C322.189 236.09 311.949 246.27 312.139 258.61C312.139 259.09 312.139 259.56 312.219 260.03H309.109L312.529 262.7C314.249 273.06 317.969 280.95 329.229 279.41C346.229 277.09 355.429 263.53 355.229 251.19C355.029 238.85 347.889 235.69 335.029 235.89Z" fill="#F6C4DE"/>
<path d="M317.478 257.13C318.301 257.13 318.968 256.463 318.968 255.64C318.968 254.817 318.301 254.15 317.478 254.15C316.655 254.15 315.988 254.817 315.988 255.64C315.988 256.463 316.655 257.13 317.478 257.13Z" fill="#624EC5"/>
<path d="M314.891 259.99C314.816 260.111 314.709 260.21 314.582 260.273C314.455 260.337 314.312 260.364 314.171 260.35C312.774 260.184 311.367 260.111 309.961 260.13C310.888 260.848 311.867 261.496 312.891 262.07C312.974 262.12 313.047 262.186 313.105 262.264C313.163 262.342 313.205 262.431 313.228 262.525C313.252 262.619 313.257 262.717 313.243 262.813C313.229 262.909 313.195 263.002 313.146 263.085C313.096 263.168 313.03 263.241 312.952 263.299C312.874 263.357 312.785 263.399 312.691 263.423C312.597 263.446 312.499 263.451 312.402 263.437C312.306 263.423 312.214 263.39 312.131 263.34C308.131 260.98 308.131 260.13 308.131 259.82C308.121 259.662 308.153 259.504 308.223 259.362C308.293 259.22 308.399 259.099 308.531 259.01C309.331 258.45 312.191 258.62 314.451 258.87C314.548 258.88 314.642 258.909 314.727 258.956C314.813 259.003 314.888 259.066 314.949 259.143C315.009 259.219 315.054 259.307 315.08 259.401C315.106 259.495 315.113 259.593 315.101 259.69C315.056 259.806 314.984 259.909 314.891 259.99Z" fill="#B7577E"/>
<path d="M312.09 255.19C312.09 255.19 312.09 230.53 338.47 229.05C360.47 227.82 367.58 246.7 368.24 249.26C375.69 278.26 364.53 297.85 381.92 315.2C387.23 320.5 379.64 335.45 366.44 333.51C353.24 331.57 350.69 285.04 348.89 267.37C346.41 243.69 324.99 240.24 320.44 242.74C312.09 247.32 312.19 258.74 312.17 257.43L312.09 255.19Z" fill="#806CF6"/>
<path d="M341.902 255.938L349.851 255.811C350.32 255.804 350.786 255.889 351.222 256.061C351.658 256.234 352.055 256.49 352.392 256.817C352.729 257.143 352.998 257.532 353.184 257.962C353.37 258.393 353.47 258.855 353.478 259.324C353.485 259.793 353.4 260.258 353.228 260.694C353.055 261.13 352.798 261.528 352.472 261.865C352.146 262.201 351.757 262.471 351.326 262.657C350.896 262.843 350.434 262.943 349.965 262.95L342.016 263.077L341.902 255.938Z" fill="#F6C4DE"/>
<path d="M347.06 264.27C346.882 264.274 346.709 264.214 346.573 264.1C346.436 263.985 346.346 263.825 346.32 263.65C346.288 263.456 346.334 263.258 346.449 263.099C346.563 262.939 346.736 262.832 346.93 262.8L350.47 262.24C351.177 262.084 351.799 261.664 352.207 261.066C352.615 260.467 352.779 259.736 352.665 259.02C352.552 258.305 352.169 257.66 351.595 257.217C351.022 256.775 350.301 256.568 349.58 256.64L346.03 257.21C345.931 257.231 345.83 257.231 345.731 257.211C345.633 257.192 345.54 257.152 345.457 257.095C345.374 257.038 345.304 256.965 345.25 256.88C345.197 256.795 345.161 256.7 345.146 256.601C345.13 256.502 345.135 256.4 345.16 256.303C345.184 256.206 345.229 256.115 345.29 256.035C345.351 255.955 345.428 255.889 345.515 255.84C345.603 255.791 345.7 255.76 345.8 255.75L349.34 255.18C350.469 254.998 351.625 255.273 352.553 255.943C353.48 256.614 354.103 257.625 354.285 258.755C354.466 259.885 354.192 261.04 353.521 261.968C352.851 262.895 351.839 263.518 350.71 263.7L347.16 264.27H347.06Z" fill="#624EC5"/>
<path d="M314.538 270.6C314.348 270 313.898 269.02 313.898 269.02C314.768 269.17 318.998 269.77 320.898 267.52C321.027 267.381 321.203 267.297 321.392 267.284C321.58 267.272 321.766 267.332 321.912 267.452C322.058 267.572 322.152 267.743 322.176 267.931C322.199 268.118 322.15 268.308 322.038 268.46C319.368 271.66 314.778 270.65 314.538 270.6Z" fill="#624EC5"/>
<path d="M388.151 546.65V374.25H375.691V546.65" fill="#F7F2E7"/>
<path d="M388.151 546.65H234.941V558.95H388.151V546.65Z" fill="#F7F2E7"/>
<path d="M234.941 558.95V645.08H247.391V558.95H234.941Z" fill="#F7F2E7"/>
<path d="M375.691 558.95V645.08H388.151V558.95H375.691Z" fill="#F7F2E7"/>
<path d="M348.27 248.4V251.4" stroke="#D768A9" stroke-width="2" stroke-miterlimit="10"/>
<path d="M348.27 257.52V511.76" stroke="#FFF6A3" stroke-width="2" stroke-miterlimit="10" stroke-linecap="round" stroke-dasharray="6.13 6.13"/>
<path d="M348.27 514.82V517.82" stroke="#D768A9" stroke-width="2" stroke-miterlimit="10"/>
<path d="M348.268 522.76C350.996 522.76 353.208 520.548 353.208 517.82C353.208 515.092 350.996 512.88 348.268 512.88C345.54 512.88 343.328 515.092 343.328 517.82C343.328 520.548 345.54 522.76 348.268 522.76Z" fill="#FFF6A3"/>
<path d="M348.268 306.64C350.996 306.64 353.208 304.428 353.208 301.7C353.208 298.971 350.996 296.76 348.268 296.76C345.54 296.76 343.328 298.971 343.328 301.7C343.328 304.428 345.54 306.64 348.268 306.64Z" fill="#FFF6A3"/>
<path d="M348.268 253.34C350.996 253.34 353.208 251.128 353.208 248.4C353.208 245.672 350.996 243.46 348.268 243.46C345.54 243.46 343.328 245.672 343.328 248.4C343.328 251.128 345.54 253.34 348.268 253.34Z" fill="#FFF6A3"/>
<path d="M336.667 302C336.667 300.527 335.473 299.333 334 299.333C332.527 299.333 331.333 300.527 331.333 302C331.333 303.473 332.527 304.667 334 304.667C335.473 304.667 336.667 303.473 336.667 302ZM31 302.5L334 302.5V301.5L31 301.5V302.5Z" fill="#6662A8"/>
<path d="M342.167 235C342.167 233.527 340.973 232.333 339.5 232.333C338.027 232.333 336.833 233.527 336.833 235C336.833 236.473 338.027 237.667 339.5 237.667C340.973 237.667 342.167 236.473 342.167 235ZM31 235.5L339.5 235.5V234.5L31 234.5V235.5Z" fill="#6662A8"/>
<path d="M294.667 460C294.667 458.527 293.473 457.333 292 457.333C290.527 457.333 289.333 458.527 289.333 460C289.333 461.473 290.527 462.667 292 462.667C293.473 462.667 294.667 461.473 294.667 460ZM31 460.5L292 460.5V459.5L31 459.5V460.5Z" fill="#6662A8"/>
<path d="M215.667 513C215.667 511.527 214.473 510.333 213 510.333C211.527 510.333 210.333 511.527 210.333 513C210.333 514.473 211.527 515.667 213 515.667C214.473 515.667 215.667 514.473 215.667 513ZM31 513.5H213V512.5H31V513.5Z" fill="#6662A8"/>
<path d="M215.667 636C215.667 634.527 214.473 633.333 213 633.333C211.527 633.333 210.333 634.527 210.333 636C210.333 637.473 211.527 638.667 213 638.667C214.473 638.667 215.667 637.473 215.667 636ZM31 636.5H213V635.5H31V636.5Z" fill="#6662A8"/>
<path d="M40.7773 284.414H39.2773V289.688H40.7773V287.637H42.2188V286.406H40.7773V284.414ZM32.75 289.383H33.6641C35.1699 289.389 36.8047 289.301 38.5625 288.949L38.3867 287.73C36.916 288.012 35.5273 288.129 34.25 288.146V284.883H32.75V289.383ZM33.6992 291.293H39.2656V291.938H33.7227V294.961H41.082V293.766H35.2109V293.062H40.7773V290.121H33.6992V291.293ZM51.8867 284.414H50.4453V288.457H49.4727V284.695H48.0781V294.609H49.4727V289.652H50.4453V295.078H51.8867V284.414ZM42.5586 291.855L43.4258 292.887C46.4316 291.141 47.3223 288.703 47.3281 285.727H43.0977V286.922H45.8691C45.6699 289.014 44.7324 290.578 42.5586 291.855ZM54.4297 285.375H53.2227V292.594H56.3984V285.375H55.1797V287.848H54.4297V285.375ZM54.4297 291.387V289.008H55.1797V291.387H54.4297ZM56.8906 292.594H60.0664V290.895H60.9102V295.078H62.3398V284.414H60.9102V286.945H60.0664V285.375H58.8711V287.848H58.0977V285.375H56.8906V292.594ZM58.0977 291.387V289.008H58.8711V291.387H58.0977ZM60.0664 289.688V288.164H60.9102V289.688H60.0664ZM73.1797 289.195H63.418V290.309H73.1797V289.195ZM64.5312 291.867H70.5312V292.406H64.543V294.984H72.3242V293.965H66.0312V293.355H72.0078V290.836H64.5312V291.867ZM64.6133 285.621H70.4961V286.16H64.6367V288.691H72.1836V287.684H66.125V287.109H71.9961V284.602H64.6133V285.621ZM84.9805 284.414H83.4805V295.055H84.9805V289.734H86.4922V288.504H84.9805V284.414ZM76.4492 292.066L77.293 293.215C80.8789 291.451 82.1211 288.691 82.1328 285.504H77.0586V286.723H80.6152C80.334 289.102 78.9746 290.801 76.4492 292.066ZM96.6875 289.605H86.9258V290.801H91.1328V292.652H92.6445V290.801H96.6875V289.605ZM87.9336 286.828C87.9336 288.188 89.4805 289.031 91.8008 289.031C94.1094 289.031 95.6504 288.188 95.6562 286.828C95.6504 285.475 94.1094 284.625 91.8008 284.613C89.4805 284.625 87.9336 285.475 87.9336 286.828ZM88.0859 294.891H95.6094V293.684H89.5977V291.703H88.0859V294.891ZM89.5508 286.828C89.5449 286.148 90.4238 285.797 91.8008 285.797C93.1777 285.797 94.0508 286.148 94.0508 286.828C94.0508 287.479 93.1777 287.83 91.8008 287.836C90.4238 287.83 89.5449 287.479 89.5508 286.828ZM106.555 284.414H105.113V295.078H106.555V284.414ZM97.6367 292.699H98.375C99.9395 292.699 101.012 292.646 102.219 292.406L102.102 291.188C101.105 291.387 100.238 291.451 99.1016 291.463V286.816H101.715V285.621H97.6367V292.699ZM100.988 289.523H102.898V294.598H104.293V284.602H102.898V288.305H100.988V289.523ZM117.441 292.664H113.281V291.059H116.562V289.84H110.305V288.645H116.316V285.105H108.793V286.301H114.84V287.473H108.805V291.059H111.793V292.664H107.68V293.895H117.441V292.664ZM130.578 292.605H126.418V290.426H129.488V285.199H121.848V290.426H124.93V292.605H120.816V293.836H130.578V292.605ZM123.324 289.254V286.395H128.012V289.254H123.324ZM134.059 285.164C132.424 285.164 131.24 286.635 131.246 288.961C131.24 291.305 132.424 292.77 134.059 292.77C135.688 292.77 136.865 291.305 136.871 288.961C136.865 286.635 135.688 285.164 134.059 285.164ZM132.688 288.961C132.688 287.379 133.244 286.512 134.059 286.512C134.891 286.512 135.436 287.379 135.441 288.961C135.436 290.549 134.891 291.416 134.059 291.41C133.244 291.416 132.688 290.549 132.688 288.961ZM138.102 295.078H139.602V289.676H141.172V288.434H139.602V284.414H138.102V295.078ZM151.285 290.297H141.559V291.492H145.66V295.078H147.137V291.492H151.285V290.297ZM142.039 288.504L142.59 289.676C144.447 289.424 145.777 288.627 146.428 287.531C147.072 288.627 148.414 289.424 150.289 289.676L150.828 288.504C148.637 288.24 147.459 287.197 147.307 286.148H150.418V284.977H142.438V286.148H145.549C145.391 287.197 144.195 288.24 142.039 288.504ZM160.59 287.32H154.625V284.789H153.137V288.492H160.59V287.32ZM151.918 290.812H161.68V289.641H151.918V290.812ZM153.043 294.844H160.66V293.648H154.543V291.68H153.043V294.844ZM173.762 289.125H167.656V285.34H166.156V290.344H173.762V289.125ZM165.066 293.812H174.828V292.57H165.066V293.812ZM178.73 285.035H175.859V286.23H177.301C177.143 287.555 176.609 288.363 175.426 289.184L176.398 290.121C178.191 288.797 178.725 287.297 178.73 285.035ZM177.148 294.961H184.355V290.93H177.148V294.961ZM178.543 289.617L179.598 290.438C181.32 288.996 181.789 287.355 181.801 285.035H179.105V286.23H180.377C180.236 287.678 179.727 288.645 178.543 289.617ZM178.613 293.766V292.113H182.891V293.766H178.613ZM182.844 290.484H184.355V284.426H182.844V290.484ZM190.672 284.953C188.416 284.959 186.664 286.178 186.664 288.023C186.664 289.887 188.416 291.1 190.672 291.094C192.922 291.1 194.686 289.887 194.691 288.023C194.686 286.178 192.922 284.959 190.672 284.953ZM185.809 293.777H195.57V292.57H185.809V293.777ZM188.117 288.023C188.111 286.881 189.189 286.16 190.672 286.172C192.143 286.16 193.209 286.881 193.215 288.023C193.209 289.184 192.143 289.875 190.672 289.875C189.189 289.875 188.111 289.184 188.117 288.023ZM205.941 292.664H201.781V291.059H205.062V289.84H198.805V288.645H204.816V285.105H197.293V286.301H203.34V287.473H197.305V291.059H200.293V292.664H196.18V293.895H205.941V292.664ZM212.258 285.164C210.641 285.164 209.48 286.635 209.492 288.961C209.48 291.305 210.641 292.77 212.258 292.77C213.746 292.77 214.848 291.516 215.006 289.465H216.84V295.102H218.316V284.414H216.84V288.27H214.988C214.777 286.348 213.699 285.164 212.258 285.164ZM210.922 288.961C210.916 287.379 211.461 286.512 212.258 286.512C213.061 286.512 213.594 287.379 213.594 288.961C213.594 290.549 213.061 291.416 212.258 291.41C211.461 291.416 210.916 290.549 210.922 288.961ZM229.156 284.402H227.715V288.469H226.883V284.59H225.488V294.609H226.883V289.676H227.715V295.066H229.156V284.402ZM219.512 291.914L220.684 292.582C222.043 290.549 222.33 288.264 222.336 285.656H219.898V286.852H221.059C220.971 288.832 220.596 290.355 219.512 291.914ZM222.02 292.57L223.203 293.203C224.633 290.994 224.861 288.363 224.867 285.656H222.652V286.852H223.561C223.502 288.996 223.203 290.812 222.02 292.57ZM239.809 289.195H230.047V290.309H239.809V289.195ZM231.16 291.867H237.16V292.406H231.172V294.984H238.953V293.965H232.66V293.355H238.637V290.836H231.16V291.867ZM231.242 285.621H237.125V286.16H231.266V288.691H238.812V287.684H232.754V287.109H238.625V284.602H231.242V285.621ZM249.312 285.328H243.418V286.523H244.332V291.51C243.916 291.51 243.518 291.516 243.148 291.516L243.289 292.734C245.129 292.729 247.543 292.682 249.688 292.336L249.594 291.246C249.189 291.293 248.773 291.328 248.352 291.357V286.523H249.312V285.328ZM245.797 291.48V286.523H246.898V291.445L245.797 291.48ZM249.172 290.637H250.719V295.078H252.195V284.414H250.719V287.062H249.172V288.27H250.719V289.441H249.172V290.637ZM262.414 284.871H254.457V286.043H257.375C257.199 286.916 256.109 287.812 254 288.047L254.539 289.219C256.531 288.996 257.855 288.164 258.418 287.062C258.98 288.17 260.311 288.996 262.309 289.219L262.859 288.047C260.75 287.812 259.643 286.922 259.473 286.043H262.414V284.871ZM253.555 290.918H257.82V292.758H259.297V290.918H263.316V289.723H253.555V290.918ZM254.703 294.891H262.238V293.695H256.191V291.809H254.703V294.891ZM272.352 284.414H270.852V295.102H272.352V289.594H273.922V288.375H272.352V284.414ZM264.359 292.512H265.262C267.143 292.518 268.596 292.477 270.254 292.195L270.09 290.941C268.672 291.188 267.395 291.27 265.848 291.281V286.605H269.363V285.398H264.359V292.512Z" fill="#6662A8"/>
<path d="M41.3047 217.414H39.8164V220.016H38.1523V221.223H39.8164V223.742H41.3047V217.414ZM32.2461 222.57L33.0195 223.754C34.2852 223.32 35.1406 222.447 35.6094 221.363C36.0723 222.318 36.8867 223.092 38.0586 223.473L38.7969 222.301C37.1387 221.75 36.377 220.496 36.3477 219.254H38.4688V218.059H32.6797V219.254H34.8242C34.7891 220.59 33.9922 221.984 32.2461 222.57ZM33.9922 226.039C33.9922 227.334 35.3867 228.09 37.6602 228.09C39.9395 228.09 41.334 227.334 41.3398 226.039C41.334 224.744 39.9395 223.982 37.6602 223.977C35.3867 223.982 33.9922 224.744 33.9922 226.039ZM35.4805 226.039C35.4805 225.424 36.248 225.119 37.6602 225.125C39.0781 225.119 39.8457 225.424 39.8516 226.039C39.8457 226.648 39.0781 226.953 37.6602 226.953C36.248 226.953 35.4805 226.648 35.4805 226.039ZM48.3477 218.246V217.73H46.7773V218.246C46.7715 219.506 45.4883 220.895 43.0625 221.199L43.6602 222.406C45.5 222.137 46.8594 221.27 47.5625 220.121C48.2598 221.275 49.625 222.137 51.4883 222.406L52.0742 221.199C49.6309 220.895 48.3418 219.506 48.3477 218.246ZM42.6875 224.434H46.7891V228.078H48.2656V224.434H52.4141V223.215H42.6875V224.434ZM62 217.414H60.5117V228.102H62V217.414ZM53.6211 219.512H57.1719V221.234H53.6328V225.605H54.5938C56.5391 225.605 58.127 225.541 59.8789 225.23L59.75 224.023C58.1855 224.281 56.8086 224.363 55.1797 224.375V222.418H58.6953V218.305H53.6211V219.512ZM73.1797 222.195H63.418V223.309H73.1797V222.195ZM64.5312 224.867H70.5312V225.406H64.543V227.984H72.3242V226.965H66.0312V226.355H72.0078V223.836H64.5312V224.867ZM64.6133 218.621H70.4961V219.16H64.6367V221.691H72.1836V220.684H66.125V220.109H71.9961V217.602H64.6133V218.621ZM85.5547 217.426H84.0781V228.078H85.5547V217.426ZM76.543 223.098L76.707 224.316C77.5273 224.316 78.418 224.316 79.3438 224.287V227.762H80.832V224.217C81.7227 224.164 82.6309 224.07 83.5273 223.93L83.4688 222.84C81.1777 223.098 78.5879 223.086 76.543 223.098ZM77.4805 222.008H82.8008V220.801H78.9805V219.16H82.6719V217.988H77.4805V222.008ZM96.6992 225.664H92.5391V224.059H95.8203V222.84H89.5625V221.645H95.5742V218.105H88.0508V219.301H94.0977V220.473H88.0625V224.059H91.0508V225.664H86.9375V226.895H96.6992V225.664ZM106.109 218H100.297V219.195H102.477C102.43 220.443 101.621 221.697 99.875 222.207L100.637 223.391C101.908 223.01 102.77 222.207 103.244 221.193C103.725 222.102 104.562 222.822 105.781 223.168L106.484 222.02C104.791 221.527 104.023 220.361 103.988 219.195H106.109V218ZM101.527 227.961H108.535V223.719H107.035V224.691H103.027V223.719H101.527V227.961ZM103.027 226.766V225.84H107.035V226.766H103.027ZM107.035 223.285H108.535V220.906H109.977V219.688H108.535V217.414H107.035V223.285ZM113.316 218.164C111.682 218.164 110.498 219.635 110.504 221.961C110.498 224.305 111.682 225.77 113.316 225.77C114.945 225.77 116.123 224.305 116.129 221.961C116.123 219.635 114.945 218.164 113.316 218.164ZM111.945 221.961C111.945 220.379 112.502 219.512 113.316 219.512C114.148 219.512 114.693 220.379 114.699 221.961C114.693 223.549 114.148 224.416 113.316 224.41C112.502 224.416 111.945 223.549 111.945 221.961ZM117.359 228.078H118.859V222.676H120.43V221.434H118.859V217.414H117.359V228.078ZM129.301 217.414H127.777V223.59H129.301V221.164H130.719V219.945H129.301V217.414ZM121.191 223.016H122.082C124.49 223.01 125.744 222.963 127.062 222.676L126.934 221.48C125.744 221.732 124.66 221.797 122.68 221.809V219.324H125.984V218.129H121.191V223.016ZM122.129 225.91C122.123 227.281 123.553 228.084 125.785 228.078C127.977 228.084 129.377 227.281 129.383 225.91C129.377 224.568 127.977 223.777 125.785 223.777C123.553 223.777 122.123 224.568 122.129 225.91ZM123.605 225.91C123.6 225.283 124.385 224.955 125.785 224.961C127.139 224.955 127.924 225.283 127.93 225.91C127.924 226.555 127.139 226.895 125.785 226.895C124.385 226.895 123.6 226.555 123.605 225.91ZM140.094 217.426H138.594V225.172H140.094V217.426ZM131.34 222.875L131.926 224.059C135.148 223.127 136.977 221.094 136.977 218.199H131.949V219.43H135.348C135.09 220.953 133.719 222.189 131.34 222.875ZM132.969 227.891H140.316V226.695H134.457V224.492H132.969V227.891ZM149.973 217.414H148.473V228.102H149.973V222.594H151.543V221.375H149.973V217.414ZM141.98 225.512H142.883C144.764 225.518 146.217 225.477 147.875 225.195L147.711 223.941C146.293 224.188 145.016 224.27 143.469 224.281V219.605H146.984V218.398H141.98V225.512ZM160.59 220.32H154.625V217.789H153.137V221.492H160.59V220.32ZM151.918 223.812H161.68V222.641H151.918V223.812ZM153.043 227.844H160.66V226.648H154.543V224.68H153.043V227.844ZM173.762 222.125H167.656V218.34H166.156V223.344H173.762V222.125ZM165.066 226.812H174.828V225.57H165.066V226.812ZM178.73 218.035H175.859V219.23H177.301C177.143 220.555 176.609 221.363 175.426 222.184L176.398 223.121C178.191 221.797 178.725 220.297 178.73 218.035ZM177.148 227.961H184.355V223.93H177.148V227.961ZM178.543 222.617L179.598 223.438C181.32 221.996 181.789 220.355 181.801 218.035H179.105V219.23H180.377C180.236 220.678 179.727 221.645 178.543 222.617ZM178.613 226.766V225.113H182.891V226.766H178.613ZM182.844 223.484H184.355V217.426H182.844V223.484ZM190.672 217.953C188.416 217.959 186.664 219.178 186.664 221.023C186.664 222.887 188.416 224.1 190.672 224.094C192.922 224.1 194.686 222.887 194.691 221.023C194.686 219.178 192.922 217.959 190.672 217.953ZM185.809 226.777H195.57V225.57H185.809V226.777ZM188.117 221.023C188.111 219.881 189.189 219.16 190.672 219.172C192.143 219.16 193.209 219.881 193.215 221.023C193.209 222.184 192.143 222.875 190.672 222.875C189.189 222.875 188.111 222.184 188.117 221.023ZM205.941 225.664H201.781V224.059H205.062V222.84H198.805V221.645H204.816V218.105H197.293V219.301H203.34V220.473H197.305V224.059H200.293V225.664H196.18V226.895H205.941V225.664ZM218.105 218.34H210.324V219.523H216.605C216.6 220.777 216.582 222.277 216.172 224.293L217.672 224.445C218.1 222.184 218.1 220.684 218.105 219.348V218.34ZM209.316 226.777H219.043V225.559H214.285V221.891H212.797V225.559H209.316V226.777ZM228.887 217.414H227.445V221.457H226.473V217.695H225.078V227.609H226.473V222.652H227.445V228.078H228.887V217.414ZM219.559 224.855L220.426 225.887C223.432 224.141 224.322 221.703 224.328 218.727H220.098V219.922H222.869C222.67 222.014 221.732 223.578 219.559 224.855ZM239.809 222.195H230.047V223.309H239.809V222.195ZM231.16 224.867H237.16V225.406H231.172V227.984H238.953V226.965H232.66V226.355H238.637V223.836H231.16V224.867ZM231.242 218.621H237.125V219.16H231.266V221.691H238.812V220.684H232.754V220.109H238.625V217.602H231.242V218.621ZM247.109 218.457V217.789H245.609V218.469C245.598 219.869 244.818 221.164 243.055 221.703L243.793 222.887C245.047 222.488 245.902 221.68 246.377 220.643C246.834 221.557 247.631 222.26 248.797 222.617L249.559 221.457C247.859 220.971 247.098 219.764 247.109 218.457ZM244.578 224.457H250.168V225.09H244.602V228.008H251.961V226.824H246.066V226.156H251.656V223.309H244.578V224.457ZM250.156 222.898H251.656V220.719H253.098V219.5H251.656V217.414H250.156V222.898ZM256.332 219.324V219.312H256.883V218.117H253.766V219.312H254.938V219.324C254.938 220.525 254.539 221.809 253.344 222.465L254.141 223.52C254.885 223.127 255.354 222.488 255.635 221.721C255.887 222.5 256.32 223.197 257.047 223.637C257.785 223.191 258.225 222.482 258.477 221.691C258.758 222.465 259.232 223.115 259.988 223.52L260.785 222.465C259.555 221.82 259.18 220.525 259.191 219.324V219.312H260.281V218.117H257.234V219.312H257.773V219.324C257.768 220.18 257.627 221.164 257.059 221.914C256.473 221.146 256.326 220.156 256.332 219.324ZM254.855 225.406H260.844V228.078H262.332V224.211H254.855V225.406ZM260.844 223.777H262.332V221.211H263.434V219.969H262.332V217.414H260.844V223.777ZM275.188 217.414H273.664V223.59H275.188V221.164H276.605V219.945H275.188V217.414ZM267.078 223.016H267.969C270.377 223.01 271.631 222.963 272.949 222.676L272.82 221.48C271.631 221.732 270.547 221.797 268.566 221.809V219.324H271.871V218.129H267.078V223.016ZM268.016 225.91C268.01 227.281 269.439 228.084 271.672 228.078C273.863 228.084 275.264 227.281 275.27 225.91C275.264 224.568 273.863 223.777 271.672 223.777C269.439 223.777 268.01 224.568 268.016 225.91ZM269.492 225.91C269.486 225.283 270.271 224.955 271.672 224.961C273.025 224.955 273.811 225.283 273.816 225.91C273.811 226.555 273.025 226.895 271.672 226.895C270.271 226.895 269.486 226.555 269.492 225.91ZM285.98 217.426H284.48V225.172H285.98V217.426ZM277.227 222.875L277.812 224.059C281.035 223.127 282.863 221.094 282.863 218.199H277.836V219.43H281.234C280.977 220.953 279.605 222.189 277.227 222.875ZM278.855 227.891H286.203V226.695H280.344V224.492H278.855V227.891ZM295.859 217.414H294.359V228.102H295.859V222.594H297.43V221.375H295.859V217.414ZM287.867 225.512H288.77C290.65 225.518 292.104 225.477 293.762 225.195L293.598 223.941C292.18 224.188 290.902 224.27 289.355 224.281V219.605H292.871V218.398H287.867V225.512Z" fill="#6662A8"/>
<path d="M34.0273 427.363H32.6211V434.547H36.8633V427.363H35.4805V429.766H34.0273V427.363ZM34.0273 433.352V430.938H35.4805V433.352H34.0273ZM37.7539 436.586H39.1719V431.699H40.1328V437.078H41.5625V426.414H40.1328V430.48H39.1719V426.566H37.7539V436.586ZM51.9336 426.414H50.5039V437.078H51.9336V426.414ZM42.7812 431.031C42.7812 433.428 43.6895 434.91 45.1016 434.91C46.4141 434.91 47.3105 433.639 47.4395 431.547H48.3008V436.586H49.707V426.566H48.3008V430.363H47.4277C47.2637 428.371 46.3848 427.17 45.1016 427.176C43.6895 427.17 42.7812 428.646 42.7812 431.031ZM44.1641 431.031C44.1523 429.396 44.5039 428.582 45.1016 428.582C45.7168 428.582 46.0801 429.396 46.0742 431.031C46.0801 432.672 45.7168 433.48 45.1016 433.469C44.5039 433.48 44.1523 432.672 44.1641 431.031ZM61.7188 429.32H55.7539V426.789H54.2656V430.492H61.7188V429.32ZM53.0469 432.812H62.8086V431.641H53.0469V432.812ZM54.1719 436.844H61.7891V435.648H55.6719V433.68H54.1719V436.844ZM75.125 426.414H73.625V432.859H75.125V426.414ZM66.3125 428.559H72.793V427.363H70.3203V426.332H68.8086V427.363H66.3125V428.559ZM66.8867 430.797C66.8809 431.975 67.9648 432.725 69.5703 432.73C71.1758 432.725 72.248 431.975 72.2539 430.797C72.248 429.643 71.1816 428.887 69.5703 428.887C67.959 428.887 66.8809 429.643 66.8867 430.797ZM67.9766 436.961H75.125V433.316H67.9766V436.961ZM68.3164 430.797C68.3105 430.264 68.7969 429.988 69.5703 429.988C70.332 429.988 70.8125 430.264 70.8242 430.797C70.8125 431.342 70.332 431.623 69.5703 431.629C68.7969 431.623 68.3105 431.342 68.3164 430.797ZM69.4531 435.766V434.488H73.6602V435.766H69.4531ZM81.4297 426.566C78.9688 426.566 77.5391 427.211 77.5391 428.383C77.5391 429.572 78.9688 430.211 81.4297 430.211C83.8848 430.211 85.3027 429.572 85.3086 428.383C85.3027 427.211 83.8848 426.566 81.4297 426.566ZM76.5664 431.898H86.293V430.715H76.5664V431.898ZM77.6914 433.609H83.6328V434.195H77.7031V437.008H85.3906V435.883H79.168V435.238H85.1094V432.52H77.6914V433.609ZM79.1094 428.383C79.1035 427.908 79.8652 427.656 81.4297 427.656C83.0059 427.656 83.7617 427.908 83.7617 428.383C83.7617 428.904 83.0059 429.109 81.4297 429.109C79.8652 429.109 79.1035 428.904 79.1094 428.383ZM99.4297 432.297H89.7031V433.492H93.8047V437.078H95.2812V433.492H99.4297V432.297ZM90.1836 430.504L90.7344 431.676C92.5918 431.424 93.9219 430.627 94.5723 429.531C95.2168 430.627 96.5586 431.424 98.4336 431.676L98.9727 430.504C96.7812 430.24 95.6035 429.197 95.4512 428.148H98.5625V426.977H90.582V428.148H93.6934C93.5352 429.197 92.3398 430.24 90.1836 430.504ZM103.016 427.164C101.398 427.164 100.238 428.635 100.25 430.961C100.238 433.305 101.398 434.77 103.016 434.77C104.504 434.77 105.605 433.516 105.764 431.465H107.598V437.102H109.074V426.414H107.598V430.27H105.746C105.535 428.348 104.457 427.164 103.016 427.164ZM101.68 430.961C101.674 429.379 102.219 428.512 103.016 428.512C103.818 428.512 104.352 429.379 104.352 430.961C104.352 432.549 103.818 433.416 103.016 433.41C102.219 433.416 101.674 432.549 101.68 430.961ZM119.504 428.008H117.102V426.578H115.613V428.008H113.234V429.203H119.504V428.008ZM113.785 432.344C113.785 433.797 114.887 434.881 116.363 434.887C117.834 434.881 118.918 433.797 118.93 432.344C118.918 430.873 117.834 429.795 116.363 429.801C114.887 429.795 113.785 430.873 113.785 432.344ZM115.18 432.344C115.174 431.553 115.684 431.061 116.363 431.055C117.043 431.061 117.553 431.553 117.547 432.344C117.553 433.146 117.043 433.621 116.363 433.609C115.684 433.621 115.174 433.146 115.18 432.344ZM119.281 431.84H120.734V437.078H122.211V426.414H120.734V430.633H119.281V431.84ZM132.523 426.414H131.035V437.102H132.523V426.414ZM124.145 428.512H127.695V430.234H124.156V434.605H125.117C127.062 434.605 128.65 434.541 130.402 434.23L130.273 433.023C128.709 433.281 127.332 433.363 125.703 433.375V431.418H129.219V427.305H124.145V428.512ZM142.367 426.414H140.867V437.055H142.367V431.734H143.879V430.504H142.367V426.414ZM133.836 434.066L134.68 435.215C138.266 433.451 139.508 430.691 139.52 427.504H134.445V428.723H138.002C137.721 431.102 136.361 432.801 133.836 434.066ZM40.9062 443.801H33.4883V444.996H39.4062C39.4004 445.688 39.377 446.438 39.1836 447.387H32.3164V448.582H36.3945V450.082H37.8945V448.582H42.0781V447.387H40.6953C40.9004 446.303 40.9004 445.424 40.9062 444.645V443.801ZM33.4648 453.949H40.8594V449.555H39.3711V450.656H34.9297V449.555H33.4648V453.949ZM34.9297 452.777V451.805H39.3711V452.777H34.9297ZM45.6289 444.164C44.0117 444.164 42.8516 445.635 42.8633 447.961C42.8516 450.305 44.0117 451.77 45.6289 451.77C47.1172 451.77 48.2188 450.516 48.377 448.465H50.2109V454.102H51.6875V443.414H50.2109V447.27H48.3594C48.1484 445.348 47.0703 444.164 45.6289 444.164ZM44.293 447.961C44.2871 446.379 44.832 445.512 45.6289 445.512C46.4316 445.512 46.9648 446.379 46.9648 447.961C46.9648 449.549 46.4316 450.416 45.6289 450.41C44.832 450.416 44.2871 449.549 44.293 447.961ZM57.1953 446.32V445.664H59.4219V444.445H53.3984V445.664H55.6602V446.32C55.6602 448.125 54.7461 450.1 52.9766 450.891L53.832 452.074C55.0918 451.494 55.9766 450.322 56.457 448.922C56.9375 450.211 57.8047 451.271 59.0586 451.805L59.8672 450.633C58.0801 449.889 57.1895 448.043 57.1953 446.32ZM60.4766 454.078H61.9883V443.414H60.4766V454.078ZM67.5664 446.32V445.664H69.793V444.445H63.7695V445.664H66.0312V446.32C66.0312 448.125 65.1172 450.1 63.3477 450.891L64.2031 452.074C65.4629 451.494 66.3477 450.322 66.8281 448.922C67.3086 450.211 68.1758 451.271 69.4297 451.805L70.2383 450.633C68.4512 449.889 67.5605 448.043 67.5664 446.32ZM70.8477 454.078H72.3594V443.414H70.8477V454.078ZM79.5078 443.93C77.8789 443.924 76.6309 444.967 76.6367 446.414C76.6309 447.873 77.8789 448.91 79.5078 448.91C81.1484 448.91 82.3672 447.873 82.3672 446.414C82.3672 444.967 81.1484 443.924 79.5078 443.93ZM77.5273 453.797H78.1133C79.1328 453.797 79.9941 453.756 80.8906 453.434L80.6797 452.273C80.1289 452.449 79.5723 452.537 78.9805 452.578V449.707H77.5273V453.797ZM78.1016 446.414C78.0898 445.635 78.6992 445.154 79.5078 445.16C80.3164 445.154 80.9141 445.635 80.9141 446.414C80.9141 447.199 80.3164 447.686 79.5078 447.691C78.6992 447.686 78.0898 447.199 78.1016 446.414ZM80.5273 450.82H85.8945V449.719H83.9492V448.969H82.4961V449.719H80.5273V450.82ZM81.1484 452.578C81.1367 453.504 81.9688 454.084 83.1992 454.078C84.418 454.084 85.2676 453.504 85.2734 452.578C85.2676 451.658 84.418 451.066 83.1992 451.066C81.9746 451.066 81.1367 451.658 81.1484 452.578ZM82.4727 452.578C82.4668 452.273 82.7773 452.104 83.1992 452.098C83.627 452.104 83.9316 452.273 83.9375 452.578C83.9316 452.9 83.627 453.059 83.1992 453.059C82.7773 453.059 82.4668 452.9 82.4727 452.578ZM83.5273 448.676H85.0273V446.859H86.4688V445.629H85.0273V443.414H83.5273V448.676ZM95.6328 448.184H89.5859V445.359H95.5508V444.164H88.0859V449.367H91.0508V451.641H86.9375V452.859H96.6992V451.641H92.5391V449.367H95.6328V448.184ZM107.059 449.133H102.922V448.359H106.074V447.211H100.004V446.508H105.875V443.613H98.4922V444.773H104.375V445.43H98.5156V448.359H101.434V449.133H97.2969V450.328H107.059V449.133ZM98.3867 452.109H104.422V454.031H105.934V450.938H98.3867V452.109ZM120.172 449.297H110.445V450.492H114.547V454.078H116.023V450.492H120.172V449.297ZM110.926 447.504L111.477 448.676C113.334 448.424 114.664 447.627 115.314 446.531C115.959 447.627 117.301 448.424 119.176 448.676L119.715 447.504C117.523 447.24 116.346 446.197 116.193 445.148H119.305V443.977H111.324V445.148H114.436C114.277 446.197 113.082 447.24 110.926 447.504ZM124.273 444.129C122.592 444.123 121.303 445.213 121.309 446.742C121.303 448.277 122.592 449.361 124.273 449.367C125.967 449.361 127.221 448.277 127.227 446.742C127.221 445.213 125.967 444.123 124.273 444.129ZM120.863 450.703L121.039 451.922C122.902 451.922 125.434 451.904 127.801 451.441L127.684 450.363C125.404 450.686 122.768 450.709 120.863 450.703ZM122.797 446.742C122.791 445.91 123.43 445.418 124.273 445.418C125.123 445.418 125.768 445.91 125.773 446.742C125.768 447.586 125.123 448.072 124.273 448.066C123.43 448.072 122.791 447.586 122.797 446.742ZM128.293 454.102H129.781V443.414H128.293V454.102ZM139.648 443.426H138.148V451.383H139.648V447.914H141.09V446.695H139.648V443.426ZM131.188 445.723H137.516V444.539H135.102V443.402H133.613V444.539H131.188V445.723ZM131.703 448.16C131.703 449.391 132.799 450.199 134.352 450.199C135.898 450.199 136.977 449.391 136.977 448.16C136.977 446.924 135.898 446.098 134.352 446.098C132.799 446.098 131.703 446.924 131.703 448.16ZM132.734 453.891H140.035V452.695H134.223V450.773H132.734V453.891ZM133.168 448.16C133.162 447.568 133.637 447.24 134.352 447.234C135.072 447.24 135.559 447.568 135.559 448.16C135.559 448.746 135.072 449.062 134.352 449.062C133.637 449.062 133.162 448.746 133.168 448.16ZM149.973 443.414H148.473V454.102H149.973V448.594H151.543V447.375H149.973V443.414ZM141.98 451.512H142.883C144.764 451.518 146.217 451.477 147.875 451.195L147.711 449.941C146.293 450.188 145.016 450.27 143.469 450.281V445.605H146.984V444.398H141.98V451.512Z" fill="#6662A8"/>
<path d="M42.0664 500.379H32.3047V501.574H36.418V505.066H37.8945V501.574H42.0664V500.379ZM33.4531 499.23H40.8945V494.93H33.4531V499.23ZM34.9297 498.059V496.113H39.4062V498.059H34.9297ZM52.4375 499.711H42.6758V500.836H52.4375V499.711ZM43.6367 504.902H51.4883V503.754H49.9414V502.559H51.3711V501.41H43.7305V502.559H45.1836V503.754H43.6367V504.902ZM43.8711 495.785H49.7539V496.348H43.8945V499.137H51.4531V498.012H45.3828V497.426H51.2539V494.637H43.8711V495.785ZM46.6602 503.754V502.559H48.4766V503.754H46.6602ZM64.5078 496.84H58.543V494.613H57.0547V498.035H59.9375V498.961H55.8242V500.145H65.5508V498.961H61.4375V498.035H64.5078V496.84ZM56.7734 504.961H64.625V503.766H63.0547V502.055H64.5078V500.895H56.8672V502.055H58.3203V503.766H56.7734V504.961ZM59.7969 503.766V502.055H61.5781V503.766H59.7969ZM75.125 494.414H73.6133V505.102H75.125V494.414ZM66.5117 498.961C66.5059 501.305 67.6953 502.77 69.3359 502.77C70.9414 502.77 72.1367 501.305 72.1367 498.961C72.1367 496.635 70.9414 495.164 69.3359 495.164C67.6953 495.164 66.5059 496.635 66.5117 498.961ZM67.9531 498.961C67.9473 497.379 68.5039 496.512 69.3359 496.512C70.1445 496.512 70.6895 497.379 70.6953 498.961C70.6895 500.549 70.1445 501.416 69.3359 501.41C68.5039 501.416 67.9473 500.549 67.9531 498.961ZM85.2266 497.32H79.2617V494.789H77.7734V498.492H85.2266V497.32ZM76.5547 500.812H86.3164V499.641H76.5547V500.812ZM77.6797 504.844H85.2969V503.648H79.1797V501.68H77.6797V504.844ZM98.2578 494.812H90.8164V495.984H96.7637C96.752 496.506 96.7168 497.109 96.5938 497.871L98.0703 497.988C98.252 496.934 98.252 496.084 98.2578 495.445V494.812ZM89.7266 499.582H99.4062V498.422H94.8359V496.852H93.3594V498.422H89.7266V499.582ZM90.8047 501.434H96.7812V502.09H90.8164V504.996H98.5508V503.848H92.3047V503.098H98.2578V500.25H90.8047V501.434ZM108.535 494.426H107.035V502.277H108.535V498.656H109.977V497.426H108.535V494.426ZM100.391 500.578H105.559V495.176H104.059V496.723H101.879V495.176H100.391V500.578ZM101.621 504.891H108.922V503.695H103.109V501.469H101.621V504.891ZM101.879 499.406V497.871H104.059V499.406H101.879ZM120.207 502.617H116.047V500.648H119.117V495.094H117.629V496.746H112.977V495.094H111.477V500.648H114.559V502.617H110.445V503.836H120.207V502.617ZM112.977 499.453V497.941H117.629V499.453H112.977ZM129.23 494.414H127.73V505.102H129.23V499.594H130.801V498.375H129.23V494.414ZM121.238 502.512H122.141C124.021 502.518 125.475 502.477 127.133 502.195L126.969 500.941C125.551 501.188 124.273 501.27 122.727 501.281V496.605H126.242V495.398H121.238V502.512ZM142.414 494.402H140.914V500.25H142.414V497.988H143.855V496.746H142.414V494.402ZM134.387 499.746H135.301C136.807 499.746 138.465 499.641 140.223 499.277L140.047 498.059C138.57 498.363 137.182 498.48 135.887 498.51V494.918H134.387V499.746ZM134.902 503.848L135.477 504.984C137.17 504.756 138.359 504.088 138.963 503.168C139.566 504.082 140.756 504.785 142.449 505.008L143.012 503.871C141.008 503.625 139.936 502.723 139.766 501.891H142.543V500.707H135.359V501.891H138.137C137.967 502.746 136.918 503.625 134.902 503.848ZM147.195 495.164C145.561 495.164 144.377 496.635 144.383 498.961C144.377 501.305 145.561 502.77 147.195 502.77C148.824 502.77 150.002 501.305 150.008 498.961C150.002 496.635 148.824 495.164 147.195 495.164ZM145.824 498.961C145.824 497.379 146.381 496.512 147.195 496.512C148.027 496.512 148.572 497.379 148.578 498.961C148.572 500.549 148.027 501.416 147.195 501.41C146.381 501.416 145.824 500.549 145.824 498.961ZM151.238 505.078H152.738V499.676H154.309V498.434H152.738V494.414H151.238V505.078ZM157.566 495.164C155.932 495.164 154.748 496.635 154.754 498.961C154.748 501.305 155.932 502.77 157.566 502.77C159.195 502.77 160.373 501.305 160.379 498.961C160.373 496.635 159.195 495.164 157.566 495.164ZM156.195 498.961C156.195 497.379 156.752 496.512 157.566 496.512C158.398 496.512 158.943 497.379 158.949 498.961C158.943 500.549 158.398 501.416 157.566 501.41C156.752 501.416 156.195 500.549 156.195 498.961ZM161.609 505.078H163.109V501.258H164.621V500.039H163.109V498.141H164.621V496.887H163.109V494.414H161.609V505.078ZM176.293 494.426H174.793V502.383H176.293V498.914H177.734V497.695H176.293V494.426ZM167.832 496.723H174.16V495.539H171.746V494.402H170.258V495.539H167.832V496.723ZM168.348 499.16C168.348 500.391 169.443 501.199 170.996 501.199C172.543 501.199 173.621 500.391 173.621 499.16C173.621 497.924 172.543 497.098 170.996 497.098C169.443 497.098 168.348 497.924 168.348 499.16ZM169.379 504.891H176.68V503.695H170.867V501.773H169.379V504.891ZM169.812 499.16C169.807 498.568 170.281 498.24 170.996 498.234C171.717 498.24 172.203 498.568 172.203 499.16C172.203 499.746 171.717 500.062 170.996 500.062C170.281 500.062 169.807 499.746 169.812 499.16ZM186.617 494.414H185.117V505.102H186.617V499.594H188.188V498.375H186.617V494.414ZM178.625 502.512H179.527C181.408 502.518 182.861 502.477 184.52 502.195L184.355 500.941C182.938 501.188 181.66 501.27 180.113 501.281V496.605H183.629V495.398H178.625V502.512Z" fill="#6662A8"/>
<path d="M34.1211 600.895H32.6328V605.547H37.8008V600.895H36.3008V602.16H34.1211V600.895ZM33.6992 607.398H39.2891V608.066H33.7227V611.008H41.082V609.824H35.1875V609.133H40.7773V606.238H33.6992V607.398ZM34.1211 604.375V603.285H36.3008V604.375H34.1211ZM39.2773 605.84H40.7773V603.695H42.2188V602.488H40.7773V600.414H39.2773V605.84ZM51.1016 600.414H49.6016V611.078H51.1016V605.652H52.6719V604.398H51.1016V600.414ZM43.0273 608.605H48.2188V601.258H46.7305V603.859H44.5156V601.258H43.0273V608.605ZM44.5156 607.398V605.02H46.7305V607.398H44.5156ZM61.5195 600.414H60.0195V606.648H61.5195V604.152H62.9609V602.91H61.5195V600.414ZM53.4688 606.074H54.3711C56.7324 606.074 57.9629 606.027 59.3047 605.734L59.1523 604.551C57.9629 604.809 56.9023 604.861 54.9688 604.879V602.348H58.2852V601.152H53.4688V606.074ZM54.3359 608.371H60.0195V611.09H61.5195V607.188H54.3359V608.371ZM75.1836 600.426H73.6953V603.18H71.9492V604.387H73.6953V608.207H75.1836V600.426ZM66.1367 605.805L66.8984 607.023C68.1582 606.607 69.0078 605.746 69.4824 604.686C69.9453 605.641 70.7598 606.414 71.9375 606.801L72.6758 605.617C70.9824 605.066 70.2207 603.748 70.2266 602.512V602.336H72.3477V601.141H66.5586V602.336H68.7031V602.5C68.6973 603.865 67.9004 605.254 66.1367 605.805ZM68.1055 610.891H75.4414V609.695H69.6055V607.527H68.1055V610.891ZM79.8945 603.66V603.414H81.5703V602.219H79.8828V600.777H78.4883V602.219H76.7656V603.414H78.4883V603.66C78.4766 605.307 77.9082 607.047 76.3672 607.938L77.2227 609.062C78.1895 608.5 78.8281 607.545 79.1973 606.414C79.5723 607.451 80.2109 608.312 81.1719 608.805L81.9922 607.715C80.4746 606.9 79.8945 605.277 79.8945 603.66ZM80.9492 605.676H82.2031V610.586H83.6094V600.59H82.2031V604.457H80.9492V605.676ZM84.3711 611.078H85.7891V600.414H84.3711V611.078ZM96.6875 605.195H86.9258V606.309H96.6875V605.195ZM88.0391 607.867H94.0391V608.406H88.0508V610.984H95.832V609.965H89.5391V609.355H95.5156V606.836H88.0391V607.867ZM88.1211 601.621H94.0039V602.16H88.1445V604.691H95.6914V603.684H89.6328V603.109H95.5039V600.602H88.1211V601.621ZM108.77 600.426H107.27V606.789H108.77V604.223H109.977V603.004H108.77V600.426ZM100.332 606.145H100.871C101.756 606.139 102.453 606.127 103.332 605.957L103.203 604.727C102.693 604.832 102.23 604.885 101.75 604.902V602.371H103.098V601.188H100.332V606.145ZM101.422 608.992C101.416 610.311 102.834 611.066 105.137 611.066C107.434 611.066 108.852 610.311 108.852 608.992C108.852 607.691 107.434 606.918 105.137 606.918C102.834 606.918 101.416 607.691 101.422 608.992ZM102.922 608.992C102.916 608.377 103.695 608.084 105.137 608.09C106.578 608.084 107.346 608.377 107.352 608.992C107.346 609.613 106.578 609.906 105.137 609.906C103.695 609.906 102.916 609.613 102.922 608.992ZM103.637 606.133H104.223C105.523 606.133 106.104 606.109 106.859 605.934L106.719 604.715C106.197 604.832 105.758 604.873 105.066 604.885V602.371H106.496V601.188H103.637V606.133ZM119.691 600.414H118.262V611.078H119.691V600.414ZM110.539 605.031C110.539 607.428 111.447 608.91 112.859 608.91C114.172 608.91 115.068 607.639 115.197 605.547H116.059V610.586H117.465V600.566H116.059V604.363H115.186C115.021 602.371 114.143 601.17 112.859 601.176C111.447 601.17 110.539 602.646 110.539 605.031ZM111.922 605.031C111.91 603.396 112.262 602.582 112.859 602.582C113.475 602.582 113.838 603.396 113.832 605.031C113.838 606.672 113.475 607.48 112.859 607.469C112.262 607.48 111.91 606.672 111.922 605.031ZM132.195 606.754H129.184V605.992H133.309V604.82H123.582V605.992H127.684V606.754H124.766V611.008H132.383V609.918H126.242V609.367H131.996V608.359H126.242V607.797H132.195V606.754ZM124.824 604.234H132.066V600.59H130.578V601.352H126.301V600.59H124.824V604.234ZM126.301 603.098V602.453H130.578V603.098H126.301ZM142.883 600.426H141.383V608.09H142.883V600.426ZM134.117 603.789C134.117 605.377 135.395 606.496 137.035 606.496C138.67 606.496 139.947 605.377 139.953 603.789C139.947 602.225 138.67 601.1 137.035 601.105C135.395 601.1 134.117 602.225 134.117 603.789ZM135.582 603.789C135.57 602.922 136.197 602.4 137.035 602.406C137.844 602.4 138.471 602.922 138.477 603.789C138.471 604.68 137.844 605.195 137.035 605.195C136.197 605.195 135.57 604.68 135.582 603.789ZM135.734 610.891H143.164V609.695H137.246V607.316H135.734V610.891ZM152.738 600.414H151.238V611.102H152.738V605.594H154.309V604.375H152.738V600.414ZM144.746 608.512H145.648C147.529 608.518 148.982 608.477 150.641 608.195L150.477 606.941C149.059 607.188 147.781 607.27 146.234 607.281V602.605H149.75V601.398H144.746V608.512ZM35.7734 618.129C34.0918 618.123 32.8027 619.213 32.8086 620.742C32.8027 622.277 34.0918 623.361 35.7734 623.367C37.4668 623.361 38.7207 622.277 38.7266 620.742C38.7207 619.213 37.4668 618.123 35.7734 618.129ZM32.3633 624.703L32.5391 625.922C34.4023 625.922 36.9336 625.904 39.3008 625.441L39.1836 624.363C36.9043 624.686 34.2676 624.709 32.3633 624.703ZM34.2969 620.742C34.291 619.91 34.9297 619.418 35.7734 619.418C36.623 619.418 37.2676 619.91 37.2734 620.742C37.2676 621.586 36.623 622.072 35.7734 622.066C34.9297 622.072 34.291 621.586 34.2969 620.742ZM39.793 628.102H41.2812V617.414H39.793V628.102ZM46.625 620.32V619.664H48.7695V618.445H42.8633V619.664H45.125V620.32C45.1133 622.084 44.2168 624.064 42.4414 624.891L43.3086 626.074C44.5391 625.494 45.418 624.299 45.8926 622.893C46.373 624.17 47.2168 625.26 48.4062 625.805L49.2383 624.633C47.4863 623.818 46.6191 621.943 46.625 620.32ZM49.6016 628.078H51.1016V622.734H52.6719V621.48H51.1016V617.414H49.6016V628.078ZM61.4727 617.414H59.9727V628.055H61.4727V622.734H62.9844V621.504H61.4727V617.414ZM52.9414 625.066L53.7852 626.215C57.3711 624.451 58.6133 621.691 58.625 618.504H53.5508V619.723H57.1074C56.8262 622.102 55.4668 623.801 52.9414 625.066ZM74.8789 619.84H68.9141V617.613H67.4258V621.035H70.3086V621.961H66.1953V623.145H75.9219V621.961H71.8086V621.035H74.8789V619.84ZM67.1445 627.961H74.9961V626.766H73.4258V625.055H74.8789V623.895H67.2383V625.055H68.6914V626.766H67.1445V627.961ZM70.168 626.766V625.055H71.9492V626.766H70.168ZM81.4297 617.566C78.9688 617.566 77.5391 618.211 77.5391 619.383C77.5391 620.572 78.9688 621.211 81.4297 621.211C83.8848 621.211 85.3027 620.572 85.3086 619.383C85.3027 618.211 83.8848 617.566 81.4297 617.566ZM76.5664 622.898H86.293V621.715H76.5664V622.898ZM77.6914 624.609H83.6328V625.195H77.7031V628.008H85.3906V626.883H79.168V626.238H85.1094V623.52H77.6914V624.609ZM79.1094 619.383C79.1035 618.908 79.8652 618.656 81.4297 618.656C83.0059 618.656 83.7617 618.908 83.7617 619.383C83.7617 619.904 83.0059 620.109 81.4297 620.109C79.8652 620.109 79.1035 619.904 79.1094 619.383ZM98.6914 617.426H97.2031V619.137H95.2168C95.2695 618.82 95.293 618.486 95.293 618.141H90.3711V619.336H93.6641C93.4531 620.801 92.2461 621.979 89.7969 622.617L90.3828 623.801C92.7266 623.162 94.2441 621.996 94.9121 620.309H97.2031V621.328H94.8008V622.523H97.2031V623.566H98.6914V617.426ZM91.4961 625.852C91.4902 627.188 92.9492 628.031 95.1406 628.031C97.3027 628.031 98.7676 627.188 98.7734 625.852C98.7676 624.533 97.3027 623.701 95.1406 623.695C92.9492 623.701 91.4902 624.533 91.4961 625.852ZM92.9844 625.852C92.9844 625.195 93.7871 624.855 95.1406 624.867C96.4648 624.855 97.2676 625.195 97.2734 625.852C97.2676 626.514 96.4648 626.848 95.1406 626.848C93.7871 626.848 92.9844 626.514 92.9844 625.852ZM109.824 623.379H100.062V624.598H104.176V628.09H105.652V624.598H109.824V623.379ZM101.047 620.191C101.041 621.639 102.623 622.57 104.914 622.57C107.205 622.57 108.805 621.639 108.805 620.191C108.805 618.709 107.205 617.771 104.914 617.766C102.623 617.771 101.041 618.709 101.047 620.191ZM102.582 620.191C102.576 619.4 103.484 618.967 104.914 618.961C106.355 618.967 107.258 619.4 107.258 620.191C107.258 620.953 106.355 621.381 104.914 621.387C103.484 621.381 102.576 620.953 102.582 620.191ZM121.672 617.414H120.172V623.637H121.672V621.07H123.113V619.84H121.672V617.414ZM113.527 623.109H118.695V618.035H117.195V619.395H115.016V618.035H113.527V623.109ZM114.699 627.938H121.93V626.766H116.188V625.301H121.73V624.117H114.699V627.938ZM115.016 621.938V620.555H117.195V621.938H115.016ZM129.91 618.48H127.742V617.379H126.219V618.48H124.039V619.652H126.219C126.184 620.83 125.375 621.99 123.688 622.488L124.379 623.637C125.65 623.279 126.523 622.512 127.004 621.533C127.502 622.424 128.369 623.115 129.605 623.438L130.297 622.266C128.586 621.838 127.766 620.742 127.73 619.652H129.91V618.48ZM125.363 627.961H132.512V624.117H125.363V627.961ZM126.84 626.766V625.312H131.047V626.766H126.84ZM131.012 623.672H132.512V617.426H131.012V623.672ZM138.816 617.566C136.355 617.566 134.926 618.211 134.926 619.383C134.926 620.572 136.355 621.211 138.816 621.211C141.271 621.211 142.689 620.572 142.695 619.383C142.689 618.211 141.271 617.566 138.816 617.566ZM133.953 622.898H143.68V621.715H133.953V622.898ZM135.078 624.609H141.02V625.195H135.09V628.008H142.777V626.883H136.555V626.238H142.496V623.52H135.078V624.609ZM136.496 619.383C136.49 618.908 137.252 618.656 138.816 618.656C140.393 618.656 141.148 618.908 141.148 619.383C141.148 619.904 140.393 620.109 138.816 620.109C137.252 620.109 136.49 619.904 136.496 619.383ZM155.773 620.695H149.762V619.078H155.668V617.883H148.273V621.867H155.773V620.695ZM147.09 623.895H151.367V625.664H152.867V623.895H156.84V622.699H147.09V623.895ZM148.238 627.891H155.832V626.695H149.738V624.809H148.238V627.891ZM165.875 617.414H164.375V628.102H165.875V622.594H167.445V621.375H165.875V617.414ZM157.883 625.512H158.785C160.666 625.518 162.119 625.477 163.777 625.195L163.613 623.941C162.195 624.188 160.918 624.27 159.371 624.281V619.605H162.887V618.398H157.883V625.512Z" fill="#6662A8"/>
<rect x="41" y="694" width="332" height="15" fill="#FFF6A3"/>
<path d="M57.6406 695.414H56.1289V706.078H57.6406V695.414ZM48.4297 700.301L48.6172 701.52C49.4141 701.52 50.2637 701.508 51.1484 701.484V705.492H52.6484V701.414C53.6387 701.355 54.6406 701.268 55.625 701.133L55.5195 700.02C55.0977 700.066 54.6699 700.102 54.2363 700.137C54.5 698.607 54.5 697.494 54.5 696.75V696.152H49.3086V697.348H53.0176C53 698.062 52.9414 699.006 52.7012 700.225C51.2129 700.295 49.7305 700.307 48.4297 700.301ZM61.1211 704.133H59.457L58.8711 707.473H60.1133L61.1211 704.133ZM67.6367 696.164C66.0195 696.164 64.8594 697.635 64.8711 699.961C64.8594 702.305 66.0195 703.77 67.6367 703.77C69.125 703.77 70.2266 702.516 70.3848 700.465H72.2188V706.102H73.6953V695.414H72.2188V699.27H70.3672C70.1562 697.348 69.0781 696.164 67.6367 696.164ZM66.3008 699.961C66.2949 698.379 66.8398 697.512 67.6367 697.512C68.4395 697.512 68.9727 698.379 68.9727 699.961C68.9727 701.549 68.4395 702.416 67.6367 702.41C66.8398 702.416 66.2949 701.549 66.3008 699.961ZM84.5352 695.402H83.0938V699.469H82.2617V695.59H80.8672V705.609H82.2617V700.676H83.0938V706.066H84.5352V695.402ZM74.8906 702.914L76.0625 703.582C77.4219 701.549 77.709 699.264 77.7148 696.656H75.2773V697.852H76.4375C76.3496 699.832 75.9746 701.355 74.8906 702.914ZM77.3984 703.57L78.582 704.203C80.0117 701.994 80.2402 699.363 80.2461 696.656H78.0312V697.852H78.9395C78.8809 699.996 78.582 701.812 77.3984 703.57ZM87.6875 704.133H86.0234L85.4375 707.473H86.6797L87.6875 704.133ZM94.2383 695.988C92.6211 695.982 91.3906 697.055 91.4023 698.566C91.3906 700.096 92.6211 701.174 94.2383 701.168C95.6211 701.174 96.7227 700.359 96.9863 699.141H98.7617V701.695H100.25V695.414H98.7617V697.922H96.9688C96.6758 696.762 95.5918 695.982 94.2383 695.988ZM92.8203 698.566C92.8145 697.752 93.4121 697.236 94.2383 697.242C95.0352 697.236 95.627 697.752 95.6328 698.566C95.627 699.422 95.0352 699.914 94.2383 699.914C93.4121 699.914 92.8145 699.422 92.8203 698.566ZM92.9375 703.98C92.9375 705.305 94.3496 706.084 96.6055 706.078C98.8613 706.084 100.279 705.305 100.285 703.98C100.279 702.656 98.8613 701.877 96.6055 701.883C94.3496 701.877 92.9375 702.656 92.9375 703.98ZM94.4023 703.98C94.4023 703.342 95.1934 703.025 96.6055 703.02C98.0469 703.025 98.8145 703.342 98.8203 703.98C98.8145 704.602 98.0469 704.918 96.6055 704.918C95.1934 704.918 94.4023 704.602 94.4023 703.98ZM110.621 695.414H109.133V698.051H106.543V699.223H109.133V701.812H110.621V695.414ZM102.207 701.414H103.051C104.99 701.408 106.256 701.361 107.656 701.098L107.527 699.902C106.32 700.119 105.23 700.184 103.695 700.195V697.324H107.059V696.152H102.207V701.414ZM103.309 704.016C103.309 705.334 104.703 706.078 106.977 706.078C109.256 706.078 110.65 705.334 110.656 704.016C110.65 702.703 109.256 701.93 106.977 701.941C104.703 701.93 103.309 702.703 103.309 704.016ZM104.797 704.016C104.797 703.406 105.564 703.102 106.977 703.102C108.395 703.102 109.162 703.406 109.168 704.016C109.162 704.625 108.395 704.941 106.977 704.93C105.564 704.941 104.797 704.625 104.797 704.016ZM120.934 695.414H119.422V706.102H120.934V695.414ZM112.32 699.961C112.314 702.305 113.504 703.77 115.145 703.77C116.75 703.77 117.945 702.305 117.945 699.961C117.945 697.635 116.75 696.164 115.145 696.164C113.504 696.164 112.314 697.635 112.32 699.961ZM113.762 699.961C113.756 698.379 114.312 697.512 115.145 697.512C115.953 697.512 116.498 698.379 116.504 699.961C116.498 701.549 115.953 702.416 115.145 702.41C114.312 702.416 113.756 701.549 113.762 699.961ZM125.551 696.047C123.869 696.053 122.621 697.131 122.621 698.66C122.621 699.967 123.523 700.939 124.824 701.203V702.703C123.898 702.727 123.02 702.727 122.246 702.727L122.445 703.934C124.256 703.957 126.658 703.963 128.891 703.535L128.785 702.434C127.994 702.539 127.15 702.609 126.312 702.65V701.191C127.572 700.916 128.469 699.949 128.48 698.66C128.469 697.131 127.197 696.053 125.551 696.047ZM124.086 698.66C124.08 697.811 124.707 697.318 125.551 697.312C126.377 697.318 127.004 697.811 127.004 698.66C127.004 699.498 126.377 700.008 125.551 700.008C124.707 700.008 124.08 699.498 124.086 698.66ZM129.348 706.078H130.848V700.852H132.301V699.598H130.848V695.414H129.348V706.078ZM144.301 696.34H136.52V697.523H142.801C142.795 698.777 142.777 700.277 142.367 702.293L143.867 702.445C144.295 700.184 144.295 698.684 144.301 697.348V696.34ZM135.512 704.777H145.238V703.559H140.48V699.891H138.992V703.559H135.512V704.777ZM151.859 696.188H146.375V697.406H150.4C150.389 698.045 150.342 698.824 150.148 699.844L151.613 699.984C151.859 698.66 151.859 697.594 151.859 696.855V696.188ZM145.742 700.758L145.871 701.953C147.729 701.947 150.225 701.906 152.445 701.496L152.363 700.418C151.361 700.564 150.277 700.646 149.211 700.693V698.648H147.723V700.74C147.014 700.758 146.34 700.758 145.742 700.758ZM147.312 705.891H154.801V704.695H148.812V702.68H147.312V705.891ZM152.938 703.395H154.473V699.914H155.762V698.66H154.473V695.414H152.938V703.395ZM162.348 695.824H156.57V697.02H158.727C158.668 698.15 157.83 699.375 156.16 699.914L156.887 701.074C158.123 700.705 158.99 699.896 159.477 698.912C159.951 699.797 160.777 700.506 161.973 700.852L162.664 699.668C161.035 699.205 160.262 698.086 160.227 697.02H162.348V695.824ZM158.141 702.434H163.754V703.043H158.152V705.973H165.559V704.812H159.652V704.133H165.242V701.25H158.141V702.434ZM162.078 698.789H163.754V700.84H165.242V695.414H163.754V697.605H162.078V698.789ZM175.555 695.414H174.043V706.102H175.555V695.414ZM166.941 699.961C166.936 702.305 168.125 703.77 169.766 703.77C171.371 703.77 172.566 702.305 172.566 699.961C172.566 697.635 171.371 696.164 169.766 696.164C168.125 696.164 166.936 697.635 166.941 699.961ZM168.383 699.961C168.377 698.379 168.934 697.512 169.766 697.512C170.574 697.512 171.119 698.379 171.125 699.961C171.119 701.549 170.574 702.416 169.766 702.41C168.934 702.416 168.377 701.549 168.383 699.961ZM182.797 695.73C181.15 695.725 179.926 696.744 179.926 698.168C179.926 699.58 181.15 700.588 182.797 700.594C184.42 700.588 185.639 699.58 185.645 698.168C185.639 696.744 184.42 695.725 182.797 695.73ZM181.379 698.168C181.367 697.4 181.977 696.949 182.797 696.949C183.605 696.949 184.197 697.4 184.203 698.168C184.197 698.93 183.605 699.381 182.797 699.387C181.971 699.381 181.367 698.93 181.379 698.168ZM181.531 702.352H187.203V703.008H181.555V705.961H188.984V704.789H183.02V704.098H188.691V701.203H181.531V702.352ZM187.191 700.758H188.691V695.414H187.191V700.758ZM199.062 695.414H197.562V701.836H199.062V695.414ZM190.18 700.512L190.953 701.672C192.207 701.256 193.074 700.418 193.561 699.363C194.041 700.33 194.879 701.098 196.074 701.473L196.836 700.312C195.096 699.785 194.299 698.484 194.293 697.23H196.438V696.035H190.578V697.23H192.77C192.758 698.561 191.943 699.943 190.18 700.512ZM191.727 703.5H197.562V706.078H199.062V702.305H191.727V703.5ZM204.5 697.242V696.07H202.988V697.23C202.982 698.76 202.215 700.219 200.434 700.805L201.242 701.977C202.479 701.531 203.311 700.658 203.768 699.539C204.219 700.529 204.998 701.314 206.129 701.73L206.938 700.559C205.238 699.99 204.5 698.619 204.5 697.242ZM202.391 705.891H209.715V704.695H203.902V702.469H202.391V705.891ZM206 698.895H208.004V703.301H209.492V695.426H208.004V697.688H206V698.895ZM219.805 695.414H218.293V706.102H219.805V695.414ZM211.191 699.961C211.186 702.305 212.375 703.77 214.016 703.77C215.621 703.77 216.816 702.305 216.816 699.961C216.816 697.635 215.621 696.164 214.016 696.164C212.375 696.164 211.186 697.635 211.191 699.961ZM212.633 699.961C212.627 698.379 213.184 697.512 214.016 697.512C214.824 697.512 215.369 698.379 215.375 699.961C215.369 701.549 214.824 702.416 214.016 702.41C213.184 702.416 212.627 701.549 212.633 699.961ZM230.363 699.75H226.25V697.547H230.305V696.363H224.762V700.945H226.789V702.744C225.834 702.768 224.908 702.768 224.059 702.762L224.234 703.98C226.238 703.98 228.664 703.963 230.996 703.605L230.879 702.516C230.047 702.604 229.168 702.662 228.289 702.697V700.945H230.363V699.75ZM231.488 706.102H232.977V695.414H231.488V706.102ZM243.078 700.184H237.031V697.359H242.996V696.164H235.531V701.367H238.496V703.641H234.383V704.859H244.145V703.641H239.984V701.367H243.078V700.184ZM254.504 701.133H250.367V700.359H253.52V699.211H247.449V698.508H253.32V695.613H245.938V696.773H251.82V697.43H245.961V700.359H248.879V701.133H244.742V702.328H254.504V701.133ZM245.832 704.109H251.867V706.031H253.379V702.938H245.832V704.109ZM267.617 700.254H257.891V701.461H262.004V702.246C260.111 702.381 259.004 703.049 259.004 704.156C259.004 705.393 260.404 706.084 262.742 706.078C265.045 706.084 266.445 705.393 266.457 704.156C266.445 703.055 265.344 702.387 263.492 702.252V701.461H267.617V700.254ZM258.324 698.684L258.816 699.855C260.838 699.668 262.18 698.9 262.742 697.869C263.311 698.906 264.664 699.662 266.68 699.855L267.207 698.684C265.18 698.508 264.096 697.787 263.838 697.043H266.738V695.871H258.781V697.043H261.658C261.389 697.781 260.299 698.508 258.324 698.684ZM260.527 704.156C260.521 703.617 261.266 703.359 262.742 703.348C264.189 703.359 264.951 703.617 264.957 704.156C264.951 704.672 264.189 704.953 262.742 704.953C261.266 704.953 260.521 704.672 260.527 704.156ZM277.191 695.426H275.691V701.438H277.191V695.426ZM268.227 700.078L268.953 701.25C270.225 700.852 271.092 700.031 271.578 698.994C272.059 699.949 272.902 700.688 274.121 701.051L274.848 699.914C273.125 699.381 272.34 698.139 272.352 696.844V695.812H270.793V696.844C270.793 698.174 270.014 699.539 268.227 700.078ZM270.043 705.961H277.191V701.93H270.043V705.961ZM271.52 704.766V703.113H275.727V704.766H271.52ZM282.629 697.242V696.07H281.117V697.23C281.111 698.76 280.344 700.219 278.562 700.805L279.371 701.977C280.607 701.531 281.439 700.658 281.896 699.539C282.348 700.529 283.127 701.314 284.258 701.73L285.066 700.559C283.367 699.99 282.629 698.619 282.629 697.242ZM280.52 705.891H287.844V704.695H282.031V702.469H280.52V705.891ZM284.129 698.895H286.133V703.301H287.621V695.426H286.133V697.688H284.129V698.895ZM293.867 695.566C291.406 695.566 289.977 696.211 289.977 697.383C289.977 698.572 291.406 699.211 293.867 699.211C296.322 699.211 297.74 698.572 297.746 697.383C297.74 696.211 296.322 695.566 293.867 695.566ZM289.004 700.898H298.73V699.715H289.004V700.898ZM290.129 702.609H296.07V703.195H290.141V706.008H297.828V704.883H291.605V704.238H297.547V701.52H290.129V702.609ZM291.547 697.383C291.541 696.908 292.303 696.656 293.867 696.656C295.443 696.656 296.199 696.908 296.199 697.383C296.199 697.904 295.443 698.109 293.867 698.109C292.303 698.109 291.541 697.904 291.547 697.383ZM311.891 701.344H302.129V702.551H304.367V706.078H305.902V702.551H308.082V706.078H309.605V702.551H311.891V701.344ZM303.113 698.18C303.107 699.615 304.689 700.529 306.98 700.523C309.271 700.529 310.871 699.615 310.871 698.18C310.871 696.709 309.271 695.771 306.98 695.766C304.689 695.771 303.107 696.709 303.113 698.18ZM304.648 698.18C304.643 697.395 305.551 696.967 306.98 696.961C308.422 696.967 309.324 697.395 309.324 698.18C309.324 698.93 308.422 699.346 306.98 699.352C305.551 699.346 304.643 698.93 304.648 698.18ZM316.648 698.32V697.664H318.875V696.445H312.852V697.664H315.113V698.32C315.113 700.125 314.199 702.1 312.43 702.891L313.285 704.074C314.545 703.494 315.43 702.322 315.91 700.922C316.391 702.211 317.258 703.271 318.512 703.805L319.32 702.633C317.533 701.889 316.643 700.043 316.648 698.32ZM319.93 706.078H321.441V695.414H319.93V706.078ZM328.027 697.043H326.199V695.707H324.723V697.043H322.871V698.227H328.027V697.043ZM323.117 701.238C323.117 702.727 324.113 703.781 325.473 703.781C326.838 703.781 327.811 702.727 327.816 701.238C327.811 699.756 326.838 698.713 325.473 698.707C324.113 698.713 323.117 699.756 323.117 701.238ZM324.43 701.238C324.43 700.436 324.852 699.949 325.473 699.949C326.07 699.949 326.498 700.436 326.504 701.238C326.498 702.053 326.07 702.516 325.473 702.516C324.852 702.516 324.43 702.053 324.43 701.238ZM328.426 705.621H329.82V700.945H330.688V706.078H332.105V695.414H330.688V699.75H329.82V695.625H328.426V705.621ZM336.125 696.164C334.49 696.164 333.307 697.635 333.312 699.961C333.307 702.305 334.49 703.77 336.125 703.77C337.754 703.77 338.932 702.305 338.938 699.961C338.932 697.635 337.754 696.164 336.125 696.164ZM334.754 699.961C334.754 698.379 335.311 697.512 336.125 697.512C336.957 697.512 337.502 698.379 337.508 699.961C337.502 701.549 336.957 702.416 336.125 702.41C335.311 702.416 334.754 701.549 334.754 699.961ZM340.168 706.078H341.668V702.258H343.18V701.039H341.668V699.141H343.18V697.887H341.668V695.414H340.168V706.078ZM354.852 695.426H353.352V703.383H354.852V699.914H356.293V698.695H354.852V695.426ZM346.391 697.723H352.719V696.539H350.305V695.402H348.816V696.539H346.391V697.723ZM346.906 700.16C346.906 701.391 348.002 702.199 349.555 702.199C351.102 702.199 352.18 701.391 352.18 700.16C352.18 698.924 351.102 698.098 349.555 698.098C348.002 698.098 346.906 698.924 346.906 700.16ZM347.938 705.891H355.238V704.695H349.426V702.773H347.938V705.891ZM348.371 700.16C348.365 699.568 348.84 699.24 349.555 699.234C350.275 699.24 350.762 699.568 350.762 700.16C350.762 700.746 350.275 701.062 349.555 701.062C348.84 701.062 348.365 700.746 348.371 700.16ZM365.176 695.414H363.676V706.102H365.176V700.594H366.746V699.375H365.176V695.414ZM357.184 703.512H358.086C359.967 703.518 361.42 703.477 363.078 703.195L362.914 701.941C361.496 702.188 360.219 702.27 358.672 702.281V697.605H362.188V696.398H357.184V703.512Z" fill="#6662A8"/>
<path d="M343.667 382C343.667 380.527 342.473 379.333 341 379.333C339.527 379.333 338.333 380.527 338.333 382C338.333 383.473 339.527 384.667 341 384.667C342.473 384.667 343.667 383.473 343.667 382ZM26 382.5L341 382.5V381.5L26 381.5V382.5Z" fill="#6662A8"/>
<path d="M31.6094 365.008H29.207V363.578H27.7188V365.008H25.3398V366.203H31.6094V365.008ZM25.8906 369.344C25.8906 370.797 26.9922 371.881 28.4688 371.887C29.9395 371.881 31.0234 370.797 31.0352 369.344C31.0234 367.873 29.9395 366.795 28.4688 366.801C26.9922 366.795 25.8906 367.873 25.8906 369.344ZM27.2852 369.344C27.2793 368.553 27.7891 368.061 28.4688 368.055C29.1484 368.061 29.6582 368.553 29.6523 369.344C29.6582 370.146 29.1484 370.621 28.4688 370.609C27.7891 370.621 27.2793 370.146 27.2852 369.344ZM31.3867 368.84H32.8398V374.078H34.3164V363.414H32.8398V367.633H31.3867V368.84ZM44.6289 363.414H43.1406V374.102H44.6289V363.414ZM36.25 365.512H39.8008V367.234H36.2617V371.605H37.2227C39.168 371.605 40.7559 371.541 42.5078 371.23L42.3789 370.023C40.8145 370.281 39.4375 370.363 37.8086 370.375V368.418H41.3242V364.305H36.25V365.512ZM55.8086 368.195H46.0469V369.309H55.8086V368.195ZM47.1602 370.867H53.1602V371.406H47.1719V373.984H54.9531V372.965H48.6602V372.355H54.6367V369.836H47.1602V370.867ZM47.2422 364.621H53.125V365.16H47.2656V367.691H54.8125V366.684H48.7539V366.109H54.625V363.602H47.2422V364.621ZM65.3125 364.328H59.418V365.523H60.332V370.51C59.916 370.51 59.5176 370.516 59.1484 370.516L59.2891 371.734C61.1289 371.729 63.543 371.682 65.6875 371.336L65.5938 370.246C65.1895 370.293 64.7734 370.328 64.3516 370.357V365.523H65.3125V364.328ZM61.7969 370.48V365.523H62.8984V370.445L61.7969 370.48ZM65.1719 369.637H66.7188V374.078H68.1953V363.414H66.7188V366.062H65.1719V367.27H66.7188V368.441H65.1719V369.637ZM75.918 367.75H71.8047V365.547H75.8594V364.363H70.3164V368.945H72.3438V370.744C71.3887 370.768 70.4629 370.768 69.6133 370.762L69.7891 371.98C71.793 371.98 74.2188 371.963 76.5508 371.605L76.4336 370.516C75.6016 370.604 74.7227 370.662 73.8438 370.697V368.945H75.918V367.75ZM77.043 374.102H78.5312V363.414H77.043V374.102ZM82.1875 372.133H80.5234L79.9375 375.473H81.1797L82.1875 372.133ZM91.7617 364.48H86.2305V365.676H90.2734C90.2617 366.619 90.2383 367.762 89.9922 369.309L91.4688 369.426C91.75 367.65 91.75 366.338 91.7617 365.336V364.48ZM85.668 370.703L85.8086 371.898C87.6777 371.91 90.0918 371.869 92.2891 371.5L92.1953 370.387C91.2109 370.516 90.1504 370.592 89.1016 370.633V367.539H87.625V370.68C86.9336 370.697 86.2656 370.703 85.668 370.703ZM92.6992 374.078H94.2109V368.945H95.6641V367.703H94.2109V363.414H92.6992V374.078ZM104.828 368.184H98.7812V365.359H104.746V364.164H97.2812V369.367H100.246V371.641H96.1328V372.859H105.895V371.641H101.734V369.367H104.828V368.184ZM114.918 363.414H113.441V374.078H114.918V368.816H116.488V367.586H114.918V363.414ZM106.445 366.203H112.715V365.008H110.359V363.578H108.859V365.008H106.445V366.203ZM106.879 369.344C106.873 370.832 108.033 371.881 109.609 371.887C111.162 371.881 112.328 370.832 112.328 369.344C112.328 367.855 111.162 366.795 109.609 366.801C108.033 366.795 106.873 367.855 106.879 369.344ZM108.309 369.344C108.309 368.523 108.854 368.02 109.609 368.008C110.354 368.02 110.898 368.523 110.898 369.344C110.898 370.17 110.354 370.662 109.609 370.656C108.854 370.662 108.309 370.17 108.309 369.344ZM126.121 363.414H124.715V374.078H126.121V363.414ZM116.746 370.809L117.59 371.863C119.107 370.984 120.098 369.93 120.707 368.711H122.453V373.609H123.848V363.648H122.453V367.527H121.17C121.428 366.648 121.539 365.699 121.539 364.68H117.332V365.887H120.057C119.852 367.979 118.902 369.531 116.746 370.809ZM136.082 367.469H137.863C137.629 365.518 136.152 364.398 134.195 364.398C131.957 364.398 130.246 365.986 130.246 368.758C130.246 371.518 131.928 373.117 134.195 373.117C136.352 373.117 137.67 371.688 137.863 370.117L136.082 370.105C135.912 371.025 135.186 371.553 134.219 371.559C132.924 371.553 132.039 370.586 132.039 368.758C132.039 366.971 132.912 365.963 134.23 365.957C135.221 365.963 135.941 366.531 136.082 367.469ZM142.633 366.32V365.664H144.777V364.445H138.871V365.664H141.133V366.32C141.121 368.084 140.225 370.064 138.449 370.891L139.316 372.074C140.547 371.494 141.426 370.299 141.9 368.893C142.381 370.17 143.225 371.26 144.414 371.805L145.246 370.633C143.494 369.818 142.627 367.943 142.633 366.32ZM145.609 374.078H147.109V368.734H148.68V367.48H147.109V363.414H145.609V374.078ZM157.48 363.414H155.98V374.055H157.48V368.734H158.992V367.504H157.48V363.414ZM148.949 371.066L149.793 372.215C153.379 370.451 154.621 367.691 154.633 364.504H149.559V365.723H153.115C152.834 368.102 151.475 369.801 148.949 371.066ZM168.555 367.75H164.441V365.547H168.496V364.363H162.953V368.945H164.98V370.744C164.025 370.768 163.1 370.768 162.25 370.762L162.426 371.98C164.43 371.98 166.855 371.963 169.188 371.605L169.07 370.516C168.238 370.604 167.359 370.662 166.48 370.697V368.945H168.555V367.75ZM169.68 374.102H171.168V363.414H169.68V374.102ZM176.711 366.32V365.664H178.938V364.445H172.914V365.664H175.176V366.32C175.176 368.125 174.262 370.1 172.492 370.891L173.348 372.074C174.607 371.494 175.492 370.322 175.973 368.922C176.453 370.211 177.32 371.271 178.574 371.805L179.383 370.633C177.596 369.889 176.705 368.043 176.711 366.32ZM179.992 374.078H181.504V363.414H179.992V374.078ZM188.652 363.93C187.023 363.924 185.775 364.967 185.781 366.414C185.775 367.873 187.023 368.91 188.652 368.91C190.293 368.91 191.512 367.873 191.512 366.414C191.512 364.967 190.293 363.924 188.652 363.93ZM186.672 373.797H187.258C188.277 373.797 189.139 373.756 190.035 373.434L189.824 372.273C189.273 372.449 188.717 372.537 188.125 372.578V369.707H186.672V373.797ZM187.246 366.414C187.234 365.635 187.844 365.154 188.652 365.16C189.461 365.154 190.059 365.635 190.059 366.414C190.059 367.199 189.461 367.686 188.652 367.691C187.844 367.686 187.234 367.199 187.246 366.414ZM189.672 370.82H195.039V369.719H193.094V368.969H191.641V369.719H189.672V370.82ZM190.293 372.578C190.281 373.504 191.113 374.084 192.344 374.078C193.562 374.084 194.412 373.504 194.418 372.578C194.412 371.658 193.562 371.066 192.344 371.066C191.119 371.066 190.281 371.658 190.293 372.578ZM191.617 372.578C191.611 372.273 191.922 372.104 192.344 372.098C192.771 372.104 193.076 372.273 193.082 372.578C193.076 372.9 192.771 373.059 192.344 373.059C191.922 373.059 191.611 372.9 191.617 372.578ZM192.672 368.676H194.172V366.859H195.613V365.629H194.172V363.414H192.672V368.676ZM204.777 368.184H198.73V365.359H204.695V364.164H197.23V369.367H200.195V371.641H196.082V372.859H205.844V371.641H201.684V369.367H204.777V368.184ZM216.203 369.133H212.066V368.359H215.219V367.211H209.148V366.508H215.02V363.613H207.637V364.773H213.52V365.43H207.66V368.359H210.578V369.133H206.441V370.328H216.203V369.133ZM207.531 372.109H213.566V374.031H215.078V370.938H207.531V372.109ZM229.316 369.297H219.59V370.492H223.691V374.078H225.168V370.492H229.316V369.297ZM220.07 367.504L220.621 368.676C222.479 368.424 223.809 367.627 224.459 366.531C225.104 367.627 226.445 368.424 228.32 368.676L228.859 367.504C226.668 367.24 225.49 366.197 225.338 365.148H228.449V363.977H220.469V365.148H223.58C223.422 366.197 222.227 367.24 220.07 367.504ZM233.418 364.129C231.736 364.123 230.447 365.213 230.453 366.742C230.447 368.277 231.736 369.361 233.418 369.367C235.111 369.361 236.365 368.277 236.371 366.742C236.365 365.213 235.111 364.123 233.418 364.129ZM230.008 370.703L230.184 371.922C232.047 371.922 234.578 371.904 236.945 371.441L236.828 370.363C234.549 370.686 231.912 370.709 230.008 370.703ZM231.941 366.742C231.936 365.91 232.574 365.418 233.418 365.418C234.268 365.418 234.912 365.91 234.918 366.742C234.912 367.586 234.268 368.072 233.418 368.066C232.574 368.072 231.936 367.586 231.941 366.742ZM237.438 374.102H238.926V363.414H237.438V374.102ZM248.793 363.426H247.293V371.383H248.793V367.914H250.234V366.695H248.793V363.426ZM240.332 365.723H246.66V364.539H244.246V363.402H242.758V364.539H240.332V365.723ZM240.848 368.16C240.848 369.391 241.943 370.199 243.496 370.199C245.043 370.199 246.121 369.391 246.121 368.16C246.121 366.924 245.043 366.098 243.496 366.098C241.943 366.098 240.848 366.924 240.848 368.16ZM241.879 373.891H249.18V372.695H243.367V370.773H241.879V373.891ZM242.312 368.16C242.307 367.568 242.781 367.24 243.496 367.234C244.217 367.24 244.703 367.568 244.703 368.16C244.703 368.746 244.217 369.062 243.496 369.062C242.781 369.062 242.307 368.746 242.312 368.16ZM259.117 363.414H257.617V374.102H259.117V368.594H260.688V367.375H259.117V363.414ZM251.125 371.512H252.027C253.908 371.518 255.361 371.477 257.02 371.195L256.855 369.941C255.438 370.188 254.16 370.27 252.613 370.281V365.605H256.129V364.398H251.125V371.512Z" fill="#6662A8"/>
</svg>
