<svg width="414" height="896" viewBox="0 0 414 896" fill="none" xmlns="http://www.w3.org/2000/svg">
<g clip-path="url(#clip0_639_13870)">
<rect width="414" height="896" fill="white"/>
<path d="M152.697 93.4668H139.646V87.2715H136.396V96.0566H152.697V93.4668ZM133.781 101.338H142.617V109.336H145.867V101.338H154.932V98.6973H133.781V101.338ZM177.377 97.4785H156.227V100.068H165.342V104.08H168.617V100.068H177.377V97.4785ZM158.41 91.4609C158.41 94.4062 161.762 96.2344 166.789 96.2344C171.791 96.2344 175.13 94.4062 175.143 91.4609C175.13 88.5283 171.791 86.6875 166.789 86.6621C161.762 86.6875 158.41 88.5283 158.41 91.4609ZM158.74 108.93H175.041V106.314H162.016V102.023H158.74V108.93ZM161.914 91.4609C161.901 89.9883 163.806 89.2266 166.789 89.2266C169.772 89.2266 171.664 89.9883 171.664 91.4609C171.664 92.8701 169.772 93.6318 166.789 93.6445C163.806 93.6318 161.901 92.8701 161.914 91.4609ZM193.246 92.5273V91.1055H197.893V88.4648H185.096V91.1055H189.996V92.5273C189.971 96.3486 188.028 100.64 184.182 102.43L186.061 104.994C188.727 103.737 190.631 101.147 191.659 98.1006C192.7 100.868 194.528 103.229 197.105 104.41L198.908 101.871C195.112 100.106 193.233 96.0439 193.246 92.5273ZM199.695 109.336H202.945V97.7578H206.348V95.041H202.945V86.2305H199.695V109.336ZM214.6 92.0449V88.2109H211.451V92.1973C211.451 96.1074 210.182 100.183 206.754 102.303L208.734 104.689C210.829 103.42 212.213 101.224 213.038 98.6084C213.774 100.97 215.031 102.976 217.037 104.182L218.789 101.668C215.628 99.6494 214.587 95.79 214.6 92.0449ZM216.352 96.666H219.348V108.27H222.369V86.5605H219.348V94.0254H216.352V96.666ZM224.121 109.336H227.219V86.2305H224.121V109.336ZM254.818 88.2363H237.73V90.8008H251.568C251.556 93.4795 251.53 96.6152 250.781 100.855L253.955 101.135C254.806 96.4756 254.806 93.3145 254.818 90.4961V88.2363ZM235.648 106.518H256.723V103.877H249.105V96.6152H245.906V103.877H243.367V96.6152H240.143V103.877H235.648V106.518ZM277.594 86.2305H274.369V91.8672H270.764V94.4824H274.369V99.9414H277.594V86.2305ZM257.967 97.4023L259.643 99.9668C262.385 99.0273 264.238 97.1357 265.254 94.7871C266.257 96.8564 268.021 98.5322 270.561 99.3574L272.16 96.8184C268.567 95.625 266.917 92.9082 266.854 90.2168H271.449V87.627H258.906V90.2168H263.553C263.477 93.1113 261.75 96.1328 257.967 97.4023ZM261.75 104.918C261.75 107.724 264.771 109.361 269.697 109.361C274.636 109.361 277.657 107.724 277.67 104.918C277.657 102.112 274.636 100.462 269.697 100.449C264.771 100.462 261.75 102.112 261.75 104.918ZM264.975 104.918C264.975 103.585 266.638 102.925 269.697 102.938C272.77 102.925 274.433 103.585 274.445 104.918C274.433 106.238 272.77 106.898 269.697 106.898C266.638 106.898 264.975 106.238 264.975 104.918Z" fill="#8666FF"/>
<path d="M35.2578 273.164C33.6406 273.164 32.4805 274.635 32.4922 276.961C32.4805 279.305 33.6406 280.77 35.2578 280.77C36.7461 280.77 37.8477 279.516 38.0059 277.465H39.8398V283.102H41.3164V272.414H39.8398V276.27H37.9883C37.7773 274.348 36.6992 273.164 35.2578 273.164ZM33.9219 276.961C33.916 275.379 34.4609 274.512 35.2578 274.512C36.0605 274.512 36.5938 275.379 36.5938 276.961C36.5938 278.549 36.0605 279.416 35.2578 279.41C34.4609 279.416 33.916 278.549 33.9219 276.961ZM52.1562 272.402H50.7148V276.469H49.8828V272.59H48.4883V282.609H49.8828V277.676H50.7148V283.066H52.1562V272.402ZM42.5117 279.914L43.6836 280.582C45.043 278.549 45.3301 276.264 45.3359 273.656H42.8984V274.852H44.0586C43.9707 276.832 43.5957 278.355 42.5117 279.914ZM45.0195 280.57L46.2031 281.203C47.6328 278.994 47.8613 276.363 47.8672 273.656H45.6523V274.852H46.5605C46.502 276.996 46.2031 278.812 45.0195 280.57ZM61.7188 275.32H55.7539V272.789H54.2656V276.492H61.7188V275.32ZM53.0469 278.812H62.8086V277.641H53.0469V278.812ZM54.1719 282.844H61.7891V281.648H55.6719V279.68H54.1719V282.844ZM67.9062 273.375H66.5V280.547H70.7422V277.523H71.8086V282.609H73.2148V272.59H71.8086V276.305H70.7422V273.375H69.3828V275.848H67.9062V273.375ZM67.9062 279.328V277.031H69.3828V279.328H67.9062ZM74.0117 283.078H75.4414V272.414H74.0117V283.078ZM85.7656 272.414H84.3242V276.457H83.3516V272.695H81.957V282.609H83.3516V277.652H84.3242V283.078H85.7656V272.414ZM76.4375 279.855L77.3047 280.887C80.3105 279.141 81.2012 276.703 81.207 273.727H76.9766V274.922H79.748C79.5488 277.014 78.6113 278.578 76.4375 279.855ZM98.1172 272.414H96.6172V283.078H98.1172V277.652H99.6875V276.398H98.1172V272.414ZM90.043 280.605H95.2344V273.258H93.7461V275.859H91.5312V273.258H90.043V280.605ZM91.5312 279.398V277.02H93.7461V279.398H91.5312ZM109.836 280.664H105.676V279.059H108.957V277.84H102.699V276.645H108.711V273.105H101.188V274.301H107.234V275.473H101.199V279.059H104.188V280.664H100.074V281.895H109.836V280.664ZM116.082 273.164C114.447 273.164 113.264 274.635 113.27 276.961C113.264 279.305 114.447 280.77 116.082 280.77C117.711 280.77 118.889 279.305 118.895 276.961C118.889 274.635 117.711 273.164 116.082 273.164ZM114.711 276.961C114.711 275.379 115.268 274.512 116.082 274.512C116.914 274.512 117.459 275.379 117.465 276.961C117.459 278.549 116.914 279.416 116.082 279.41C115.268 279.416 114.711 278.549 114.711 276.961ZM120.125 283.078H121.625V277.676H123.195V276.434H121.625V272.414H120.125V283.078ZM127.93 273.445H123.875V274.652H126.488V276.363H123.887V280.711H124.625C125.943 280.711 127.098 280.676 128.492 280.441L128.387 279.246C127.291 279.416 126.33 279.457 125.316 279.469V277.559H127.93V273.445ZM128.984 282.562H130.355V277.652H131.387V283.078H132.805V272.414H131.387V276.445H130.355V272.59H128.984V282.562ZM143.199 272.414H141.77V283.078H143.199V272.414ZM134.047 277.031C134.047 279.428 134.955 280.91 136.367 280.91C137.68 280.91 138.576 279.639 138.705 277.547H139.566V282.586H140.973V272.566H139.566V276.363H138.693C138.529 274.371 137.65 273.17 136.367 273.176C134.955 273.17 134.047 274.646 134.047 277.031ZM135.43 277.031C135.418 275.396 135.77 274.582 136.367 274.582C136.982 274.582 137.346 275.396 137.34 277.031C137.346 278.672 136.982 279.48 136.367 279.469C135.77 279.48 135.418 278.672 135.43 277.031ZM150.57 272.859C148.947 272.848 147.764 273.779 147.77 275.121C147.764 276.451 148.947 277.395 150.57 277.383C152.199 277.395 153.383 276.451 153.383 275.121C153.383 273.779 152.199 272.848 150.57 272.859ZM147.113 278.039L147.301 279.258C148.068 279.246 148.953 279.24 149.891 279.199V282.762H151.379V279.111C152.27 279.041 153.172 278.93 154.051 278.754L153.957 277.652C151.684 277.998 149.006 278.033 147.113 278.039ZM149.211 275.121C149.205 274.441 149.773 274.049 150.57 274.055C151.391 274.049 151.965 274.441 151.965 275.121C151.965 275.789 151.391 276.176 150.57 276.164C149.773 276.176 149.205 275.789 149.211 275.121ZM154.602 283.078H156.078V272.426H154.602V283.078ZM166.379 272.414H164.879V283.078H166.379V272.414ZM157.52 279.938L158.316 281.086C159.559 280.564 160.432 279.475 160.906 278.18C161.393 279.404 162.26 280.424 163.473 280.922L164.281 279.773C162.506 279.041 161.633 277.301 161.633 275.754V275.344H163.848V274.148H161.621V272.648H160.133V274.148H157.871V275.344H160.145V275.754C160.139 277.377 159.271 279.17 157.52 279.938ZM171.98 274.828V273.234H170.469V274.828C170.463 276.896 169.555 278.941 167.691 279.727L168.594 280.969C169.895 280.377 170.768 279.217 171.248 277.775C171.734 279.094 172.578 280.16 173.797 280.711L174.676 279.516C172.865 278.748 171.975 276.785 171.98 274.828ZM175.25 283.102H176.762V272.414H175.25V283.102ZM184.027 273.434H178.93V274.629H182.533C182.486 275.133 182.41 275.613 182.281 276.059L178.379 276.293L178.566 277.559L181.801 277.271C181.156 278.467 180.055 279.463 178.297 280.336L179.082 281.484C183.113 279.51 184.016 276.715 184.027 273.434ZM185.656 283.078H187.168V272.414H185.656V283.078ZM197.363 273.34H189.582V274.523H195.863C195.857 275.777 195.84 277.277 195.43 279.293L196.93 279.445C197.357 277.184 197.357 275.684 197.363 274.348V273.34ZM188.574 281.777H198.301V280.559H193.543V276.891H192.055V280.559H188.574V281.777ZM210.641 272.414H209.141V278.859H210.641V272.414ZM201.828 274.559H208.309V273.363H205.836V272.332H204.324V273.363H201.828V274.559ZM202.402 276.797C202.396 277.975 203.48 278.725 205.086 278.73C206.691 278.725 207.764 277.975 207.77 276.797C207.764 275.643 206.697 274.887 205.086 274.887C203.475 274.887 202.396 275.643 202.402 276.797ZM203.492 282.961H210.641V279.316H203.492V282.961ZM203.832 276.797C203.826 276.264 204.312 275.988 205.086 275.988C205.848 275.988 206.328 276.264 206.34 276.797C206.328 277.342 205.848 277.623 205.086 277.629C204.312 277.623 203.826 277.342 203.832 276.797ZM204.969 281.766V280.488H209.176V281.766H204.969ZM216.945 272.566C214.484 272.566 213.055 273.211 213.055 274.383C213.055 275.572 214.484 276.211 216.945 276.211C219.4 276.211 220.818 275.572 220.824 274.383C220.818 273.211 219.4 272.566 216.945 272.566ZM212.082 277.898H221.809V276.715H212.082V277.898ZM213.207 279.609H219.148V280.195H213.219V283.008H220.906V281.883H214.684V281.238H220.625V278.52H213.207V279.609ZM214.625 274.383C214.619 273.908 215.381 273.656 216.945 273.656C218.521 273.656 219.277 273.908 219.277 274.383C219.277 274.904 218.521 275.109 216.945 275.109C215.381 275.109 214.619 274.904 214.625 274.383ZM226.367 273.316H225.277V278.625H228.02V273.316H226.941V274.91H226.367V273.316ZM226.367 277.441V276.059H226.941V277.441H226.367ZM227.035 282.891H235.074V281.695H228.523V279.387H227.035V282.891ZM228.418 278.625H231.148V273.316H230.059V274.91H229.496V273.316H228.418V278.625ZM229.496 277.441V276.059H230.059V277.441H229.496ZM231.652 280.008H232.906V276.633H233.562V280.336H234.816V272.426H233.562V275.414H232.906V272.613H231.652V280.008ZM244.004 272.414H242.504V283.102H244.004V277.594H245.574V276.375H244.004V272.414ZM236.012 280.512H236.914C238.795 280.518 240.248 280.477 241.906 280.195L241.742 278.941C240.324 279.188 239.047 279.27 237.5 279.281V274.605H241.016V273.398H236.012V280.512Z" fill="#6662A8"/>
<path d="M38.6094 334.008H36.207V332.578H34.7188V334.008H32.3398V335.203H38.6094V334.008ZM32.8906 338.344C32.8906 339.797 33.9922 340.881 35.4688 340.887C36.9395 340.881 38.0234 339.797 38.0352 338.344C38.0234 336.873 36.9395 335.795 35.4688 335.801C33.9922 335.795 32.8906 336.873 32.8906 338.344ZM34.2852 338.344C34.2793 337.553 34.7891 337.061 35.4688 337.055C36.1484 337.061 36.6582 337.553 36.6523 338.344C36.6582 339.146 36.1484 339.621 35.4688 339.609C34.7891 339.621 34.2793 339.146 34.2852 338.344ZM38.3867 337.84H39.8398V343.078H41.3164V332.414H39.8398V336.633H38.3867V337.84ZM51.6289 332.414H50.1406V343.102H51.6289V332.414ZM43.25 334.512H46.8008V336.234H43.2617V340.605H44.2227C46.168 340.605 47.7559 340.541 49.5078 340.23L49.3789 339.023C47.8145 339.281 46.4375 339.363 44.8086 339.375V337.418H48.3242V333.305H43.25V334.512ZM61.4727 332.414H59.9727V343.055H61.4727V337.734H62.9844V336.504H61.4727V332.414ZM52.9414 340.066L53.7852 341.215C57.3711 339.451 58.6133 336.691 58.625 333.504H53.5508V334.723H57.1074C56.8262 337.102 55.4668 338.801 52.9414 340.066ZM71.3633 332.918H66.5703V337.324H67.4609C69.7578 337.324 71.0586 337.242 72.4414 336.949L72.2891 335.789C71.041 336.029 69.916 336.105 68.0586 336.117V334.09H71.3633V332.918ZM67.3672 339.668H74.9492V338.531H71.8906V337.664H70.4141V338.531H67.3672V339.668ZM68.0938 341.52C68.0938 342.516 69.248 343.084 71.1523 343.078C73.0508 343.084 74.1934 342.516 74.1992 341.52C74.1934 340.512 73.0508 339.943 71.1523 339.938C69.248 339.943 68.0938 340.512 68.0938 341.52ZM69.6758 341.52C69.6641 341.168 70.1973 341.004 71.1523 341.004C72.1074 341.004 72.623 341.168 72.6289 341.52C72.623 341.895 72.1074 342.041 71.1523 342.035C70.1973 342.041 69.6641 341.895 69.6758 341.52ZM73.1562 338.004H74.6562V335.789H76.0977V334.559H74.6562V332.414H73.1562V338.004ZM85.2617 337.184H79.2148V334.359H85.1797V333.164H77.7148V338.367H80.6797V340.641H76.5664V341.859H86.3281V340.641H82.168V338.367H85.2617V337.184ZM96.6875 338.133H92.5508V337.359H95.7031V336.211H89.6328V335.508H95.5039V332.613H88.1211V333.773H94.0039V334.43H88.1445V337.359H91.0625V338.133H86.9258V339.328H96.6875V338.133ZM88.0156 341.109H94.0508V343.031H95.5625V339.938H88.0156V341.109ZM102.793 338.766H101.328V342.961H108.594V338.766H107.117V339.762H102.793V338.766ZM100.074 338.051H104.188V339.316H105.676V338.051H109.824V336.855H100.074V338.051ZM101.305 336.094H108.723V334.898H102.793V332.531H101.305V336.094ZM102.793 341.754V340.91H107.117V341.754H102.793ZM119.234 333.34H111.453V334.523H117.734C117.729 335.777 117.711 337.277 117.301 339.293L118.801 339.445C119.229 337.184 119.229 335.684 119.234 334.348V333.34ZM110.445 341.777H120.172V340.559H115.414V336.891H113.926V340.559H110.445V341.777ZM123.066 341.133H121.402L120.816 344.473H122.059L123.066 341.133ZM132.934 334.008H130.531V332.578H129.043V334.008H126.664V335.203H132.934V334.008ZM127.215 338.344C127.215 339.797 128.316 340.881 129.793 340.887C131.264 340.881 132.348 339.797 132.359 338.344C132.348 336.873 131.264 335.795 129.793 335.801C128.316 335.795 127.215 336.873 127.215 338.344ZM128.609 338.344C128.604 337.553 129.113 337.061 129.793 337.055C130.473 337.061 130.982 337.553 130.977 338.344C130.982 339.146 130.473 339.621 129.793 339.609C129.113 339.621 128.604 339.146 128.609 338.344ZM132.711 337.84H134.164V343.078H135.641V332.414H134.164V336.633H132.711V337.84ZM145.953 332.414H144.465V343.102H145.953V332.414ZM137.574 334.512H141.125V336.234H137.586V340.605H138.547C140.492 340.605 142.08 340.541 143.832 340.23L143.703 339.023C142.139 339.281 140.762 339.363 139.133 339.375V337.418H142.648V333.305H137.574V334.512ZM155.797 332.414H154.297V343.055H155.797V337.734H157.309V336.504H155.797V332.414ZM147.266 340.066L148.109 341.215C151.695 339.451 152.938 336.691 152.949 333.504H147.875V334.723H151.432C151.15 337.102 149.791 338.801 147.266 340.066ZM169.402 334.922H167.188V333.926H169.344V332.754H165.699V336.07H169.402V334.922ZM160.52 337.852H170.246V336.656H160.52V337.852ZM161.422 336.07H162.09C163.326 336.076 164.275 336.029 165.359 335.801L165.219 334.664C164.428 334.828 163.73 334.893 162.922 334.91V333.926H165.102V332.754H161.422V336.07ZM161.645 339.609H167.586V340.184H161.656V342.996H169.344V341.859H163.121V341.227H169.062V338.508H161.645V339.609ZM182.645 332.426H181.156V334.137H179.17C179.223 333.82 179.246 333.486 179.246 333.141H174.324V334.336H177.617C177.406 335.801 176.199 336.979 173.75 337.617L174.336 338.801C176.68 338.162 178.197 336.996 178.865 335.309H181.156V336.328H178.754V337.523H181.156V338.566H182.645V332.426ZM175.449 340.852C175.443 342.188 176.902 343.031 179.094 343.031C181.256 343.031 182.721 342.188 182.727 340.852C182.721 339.533 181.256 338.701 179.094 338.695C176.902 338.701 175.443 339.533 175.449 340.852ZM176.938 340.852C176.938 340.195 177.74 339.855 179.094 339.867C180.418 339.855 181.221 340.195 181.227 340.852C181.221 341.514 180.418 341.848 179.094 341.848C177.74 341.848 176.938 341.514 176.938 340.852ZM193.777 338.379H184.016V339.598H188.129V343.09H189.605V339.598H193.777V338.379ZM185 335.191C184.994 336.639 186.576 337.57 188.867 337.57C191.158 337.57 192.758 336.639 192.758 335.191C192.758 333.709 191.158 332.771 188.867 332.766C186.576 332.771 184.994 333.709 185 335.191ZM186.535 335.191C186.529 334.4 187.438 333.967 188.867 333.961C190.309 333.967 191.211 334.4 191.211 335.191C191.211 335.953 190.309 336.381 188.867 336.387C187.438 336.381 186.529 335.953 186.535 335.191ZM202.824 333.246V332.73H201.254V333.246C201.248 334.506 199.965 335.895 197.539 336.199L198.137 337.406C199.977 337.137 201.336 336.27 202.039 335.121C202.736 336.275 204.102 337.137 205.965 337.406L206.551 336.199C204.107 335.895 202.818 334.506 202.824 333.246ZM197.164 339.434H201.266V343.078H202.742V339.434H206.891V338.215H197.164V339.434ZM216.523 332.426H215.035V335.508H213.125V336.738H215.035V340.219H216.523V332.426ZM207.676 337.969L208.285 339.152C211.402 338.186 213.219 336.07 213.219 333.211H208.227V334.43H211.59C211.314 336 209.885 337.277 207.676 337.969ZM209.492 342.891H216.793V341.695H211.016V339.434H209.492V342.891ZM230.422 337.289H220.672V338.508H230.422V337.289ZM221.785 341.109C221.785 342.369 223.191 343.084 225.523 343.078C227.838 343.084 229.227 342.369 229.238 341.109C229.227 339.855 227.838 339.146 225.523 339.152C223.191 339.146 221.785 339.855 221.785 341.109ZM221.855 336.539H229.309V335.355H223.344V333.902H229.25V332.695H221.855V336.539ZM223.309 341.109C223.303 340.57 224.047 340.289 225.523 340.289C226.971 340.289 227.732 340.57 227.738 341.109C227.732 341.672 226.971 341.941 225.523 341.941C224.047 341.941 223.303 341.672 223.309 341.109ZM235.906 332.566C233.445 332.566 232.016 333.211 232.016 334.383C232.016 335.572 233.445 336.211 235.906 336.211C238.361 336.211 239.779 335.572 239.785 334.383C239.779 333.211 238.361 332.566 235.906 332.566ZM231.043 337.898H240.77V336.715H231.043V337.898ZM232.168 339.609H238.109V340.195H232.18V343.008H239.867V341.883H233.645V341.238H239.586V338.52H232.168V339.609ZM233.586 334.383C233.58 333.908 234.342 333.656 235.906 333.656C237.482 333.656 238.238 333.908 238.238 334.383C238.238 334.904 237.482 335.109 235.906 335.109C234.342 335.109 233.58 334.904 233.586 334.383ZM246.266 332.93H244.766V337.254H245.668C247.227 337.26 248.82 337.178 250.555 336.855L250.391 335.637C248.943 335.906 247.578 336.006 246.266 336.029V332.93ZM245.621 339.609H253.355V338.461H250.238V337.57H248.738V338.461H245.621V339.609ZM246.406 341.484C246.406 342.504 247.602 343.084 249.477 343.078C251.387 343.084 252.559 342.504 252.559 341.484C252.559 340.471 251.387 339.902 249.477 339.891C247.602 339.902 246.406 340.471 246.406 341.484ZM247.895 341.484C247.889 341.121 248.451 340.957 249.477 340.957C250.502 340.957 251.053 341.121 251.059 341.484C251.053 341.854 250.502 342.035 249.477 342.035C248.451 342.035 247.889 341.854 247.895 341.484ZM248.984 334.945H251.68V337.957H253.168V332.414H251.68V333.75H248.984V334.945ZM263.211 335.32H257.246V332.789H255.758V336.492H263.211V335.32ZM254.539 338.812H264.301V337.641H254.539V338.812ZM255.664 342.844H263.281V341.648H257.164V339.68H255.664V342.844ZM273.336 332.414H271.836V343.102H273.336V337.594H274.906V336.375H273.336V332.414ZM265.344 340.512H266.246C268.127 340.518 269.58 340.477 271.238 340.195L271.074 338.941C269.656 339.188 268.379 339.27 266.832 339.281V334.605H270.348V333.398H265.344V340.512Z" fill="#6662A8"/>
<path d="M40.8125 192.836H33.5234V196.586H36.418V197.605H32.3164V198.812H42.043V197.605H37.918V196.586H40.8125V192.836ZM33.3945 200.77H39.3711V203.078H40.8594V199.598H33.3945V200.77ZM34.9883 195.414V193.996H39.3477V195.414H34.9883ZM51.6172 192.414H50.1055V203.102H51.6172V192.414ZM43.0039 196.961C42.998 199.305 44.1875 200.77 45.8281 200.77C47.4336 200.77 48.6289 199.305 48.6289 196.961C48.6289 194.635 47.4336 193.164 45.8281 193.164C44.1875 193.164 42.998 194.635 43.0039 196.961ZM44.4453 196.961C44.4395 195.379 44.9961 194.512 45.8281 194.512C46.6367 194.512 47.1816 195.379 47.1875 196.961C47.1816 198.549 46.6367 199.416 45.8281 199.41C44.9961 199.416 44.4395 198.549 44.4453 196.961ZM59.7617 195.32V194.664H61.9062V193.445H56V194.664H58.2617V195.32C58.25 197.084 57.3535 199.064 55.5781 199.891L56.4453 201.074C57.6758 200.494 58.5547 199.299 59.0293 197.893C59.5098 199.17 60.3535 200.26 61.543 200.805L62.375 199.633C60.623 198.818 59.7559 196.943 59.7617 195.32ZM62.7383 203.078H64.2383V197.734H65.8086V196.48H64.2383V192.414H62.7383V203.078ZM75.1836 192.426H73.6953V193.914H71.252C70.7363 193.369 69.998 193.041 69.1719 193.035C67.5547 193.041 66.3242 194.207 66.3359 195.812C66.3242 197.395 67.5547 198.566 69.1719 198.566C70.0039 198.566 70.7422 198.232 71.2578 197.688H73.6953V200.219H75.1836V192.426ZM67.7539 195.812C67.748 194.91 68.3398 194.371 69.1719 194.371C69.957 194.371 70.5605 194.91 70.5664 195.812C70.5605 196.703 69.957 197.242 69.1719 197.242C68.3398 197.242 67.748 196.703 67.7539 195.812ZM68.1055 202.891H75.4414V201.695H69.6055V199.434H68.1055V202.891ZM71.8965 195.109H73.6953V196.492H71.9023C71.9551 196.275 71.9844 196.047 71.9844 195.812C71.9844 195.566 71.9551 195.332 71.8965 195.109ZM82.1797 193.82V193.047H80.5859V193.82C80.5742 195.367 79.1855 197.043 76.8125 197.465L77.457 198.707C79.3027 198.332 80.6855 197.277 81.3887 195.924C82.0801 197.289 83.457 198.338 85.3203 198.707L85.9766 197.465C83.5625 197.055 82.1738 195.385 82.1797 193.82ZM76.5664 201.766H86.3281V200.535H76.5664V201.766ZM95.9258 192.414H94.4375V196.258H92.7148V197.477H94.4375V203.102H95.9258V192.414ZM87.2891 194.512H90.6641V196.117H87.3125V200.617H88.1914C89.9785 200.623 91.4258 200.564 93.0078 200.301L92.8906 199.082C91.5137 199.322 90.2715 199.375 88.8008 199.387V197.301H92.1172V193.305H87.2891V194.512ZM107.059 197.605H97.2969V198.801H101.504V200.652H103.016V198.801H107.059V197.605ZM98.3047 194.828C98.3047 196.188 99.8516 197.031 102.172 197.031C104.48 197.031 106.021 196.188 106.027 194.828C106.021 193.475 104.48 192.625 102.172 192.613C99.8516 192.625 98.3047 193.475 98.3047 194.828ZM98.457 202.891H105.98V201.684H99.9688V199.703H98.457V202.891ZM99.9219 194.828C99.916 194.148 100.795 193.797 102.172 193.797C103.549 193.797 104.422 194.148 104.422 194.828C104.422 195.479 103.549 195.83 102.172 195.836C100.795 195.83 99.916 195.479 99.9219 194.828ZM116.516 196.469H118.297C118.062 194.518 116.586 193.398 114.629 193.398C112.391 193.398 110.68 194.986 110.68 197.758C110.68 200.518 112.361 202.117 114.629 202.117C116.785 202.117 118.104 200.688 118.297 199.117L116.516 199.105C116.346 200.025 115.619 200.553 114.652 200.559C113.357 200.553 112.473 199.586 112.473 197.758C112.473 195.971 113.346 194.963 114.664 194.957C115.654 194.963 116.375 195.531 116.516 196.469ZM123.066 195.32V194.664H125.211V193.445H119.305V194.664H121.566V195.32C121.555 197.084 120.658 199.064 118.883 199.891L119.75 201.074C120.98 200.494 121.859 199.299 122.334 197.893C122.814 199.17 123.658 200.26 124.848 200.805L125.68 199.633C123.928 198.818 123.061 196.943 123.066 195.32ZM126.043 203.078H127.543V197.734H129.113V196.48H127.543V192.414H126.043V203.078ZM142.027 200.605H137.867V198.426H140.938V193.199H133.297V198.426H136.379V200.605H132.266V201.836H142.027V200.605ZM134.773 197.254V194.395H139.461V197.254H134.773ZM152.48 193.738H151.098V192.414H149.598V198.648H151.098V197.289H152.48V196.059H151.098V194.957H152.48V193.738ZM142.707 195.578C142.701 197.084 143.967 198.162 145.637 198.156C147.289 198.162 148.543 197.084 148.543 195.578C148.543 194.061 147.289 192.994 145.637 193C143.967 192.994 142.701 194.061 142.707 195.578ZM143.949 200.98C143.943 202.293 145.373 203.084 147.605 203.078C149.797 203.084 151.197 202.293 151.203 200.98C151.197 199.65 149.797 198.865 147.605 198.859C145.373 198.865 143.943 199.65 143.949 200.98ZM144.184 195.578C144.172 194.758 144.799 194.248 145.637 194.254C146.457 194.248 147.084 194.758 147.09 195.578C147.084 196.41 146.457 196.896 145.637 196.902C144.799 196.896 144.172 196.41 144.184 195.578ZM145.449 200.98C145.438 200.359 146.205 200.049 147.605 200.043C148.988 200.049 149.727 200.359 149.727 200.98C149.727 201.607 148.988 201.895 147.605 201.895C146.205 201.895 145.438 201.607 145.449 200.98ZM157.871 192.566C155.41 192.566 153.98 193.211 153.98 194.383C153.98 195.572 155.41 196.211 157.871 196.211C160.326 196.211 161.744 195.572 161.75 194.383C161.744 193.211 160.326 192.566 157.871 192.566ZM153.008 197.898H162.734V196.715H153.008V197.898ZM154.133 199.609H160.074V200.195H154.145V203.008H161.832V201.883H155.609V201.238H161.551V198.52H154.133V199.609ZM155.551 194.383C155.545 193.908 156.307 193.656 157.871 193.656C159.447 193.656 160.203 193.908 160.203 194.383C160.203 194.904 159.447 195.109 157.871 195.109C156.307 195.109 155.545 194.904 155.551 194.383ZM38.2695 210.398H36.125V209.32H34.6367V210.398H32.3398V211.582H38.2695V210.398ZM32.8672 213.938C32.8555 215.133 33.8926 215.924 35.3633 215.918C36.8281 215.924 37.8828 215.133 37.8945 213.938C37.8828 212.754 36.8281 211.939 35.3633 211.934C33.8926 211.939 32.8555 212.754 32.8672 213.938ZM34.0039 218.215C33.998 219.375 35.4043 220.084 37.6836 220.078C39.9512 220.084 41.3574 219.375 41.3633 218.215C41.3574 217.031 39.9512 216.334 37.6836 216.34C35.4043 216.334 33.998 217.031 34.0039 218.215ZM34.2617 213.938C34.2559 213.369 34.6895 213.053 35.3633 213.047C36.0312 213.053 36.5 213.369 36.5 213.938C36.5 214.512 36.0312 214.816 35.3633 214.816C34.6895 214.816 34.2559 214.512 34.2617 213.938ZM35.5742 218.215C35.5742 217.705 36.3184 217.477 37.6836 217.465C39.0195 217.477 39.7578 217.705 39.7578 218.215C39.7578 218.701 39.0195 218.953 37.6836 218.953C36.3184 218.953 35.5742 218.701 35.5742 218.215ZM38.3633 215.086H39.8164V216.211H41.3047V209.414H39.8164V211.758H38.3867V212.953H39.8164V213.891H38.3633V215.086ZM46.7188 210.867V209.965H45.207V210.938C45.2012 212.426 44.416 213.855 42.5938 214.441L43.3789 215.637C44.6621 215.203 45.5234 214.33 45.9922 213.217C46.4434 214.178 47.2227 214.91 48.3711 215.309L49.1562 214.137C47.4453 213.609 46.7129 212.291 46.7188 210.867ZM44.3633 218.016C44.3633 219.334 45.7578 220.084 48.0312 220.078C50.3105 220.084 51.7051 219.334 51.7109 218.016C51.7051 216.703 50.3105 215.936 48.0312 215.941C45.7578 215.936 44.3633 216.703 44.3633 218.016ZM45.8516 218.016C45.8516 217.406 46.6191 217.102 48.0312 217.102C49.4492 217.102 50.2168 217.406 50.2227 218.016C50.2168 218.607 49.4492 218.918 48.0312 218.918C46.6191 218.918 45.8516 218.607 45.8516 218.016ZM48.1836 212.59H50.1875V215.66H51.6758V209.414H50.1875V211.371H48.1836V212.59ZM61.5195 209.391H60.0195V215.168H61.5195V212.906H62.9609V211.711H61.5195V209.391ZM53.0586 211.348H59.3867V210.211H56.9727V209.344H55.4844V210.211H53.0586V211.348ZM53.5742 213.352C53.5742 214.441 54.6348 215.092 56.2227 215.098C57.8223 215.092 58.8477 214.441 58.8477 213.352C58.8477 212.285 57.8223 211.611 56.2227 211.605C54.6348 211.611 53.5742 212.285 53.5742 213.352ZM54.4414 216.68H60.0312V217.277H54.4648V220.008H61.8242V218.906H55.9297V218.297H61.5195V215.602H54.4414V216.68ZM55.0391 213.352C55.0332 212.9 55.4844 212.654 56.2227 212.66C56.9668 212.654 57.4297 212.9 57.4297 213.352C57.4297 213.809 56.9668 214.025 56.2227 214.031C55.4844 214.025 55.0332 213.809 55.0391 213.352ZM71.8555 210.246V209.73H70.2852V210.246C70.2793 211.506 68.9961 212.895 66.5703 213.199L67.168 214.406C69.0078 214.137 70.3672 213.27 71.0703 212.121C71.7676 213.275 73.1328 214.137 74.9961 214.406L75.582 213.199C73.1387 212.895 71.8496 211.506 71.8555 210.246ZM66.1953 216.434H70.2969V220.078H71.7734V216.434H75.9219V215.215H66.1953V216.434ZM83.2109 216.258V215.895H81.7578V216.258C81.752 217.295 81.1543 218.355 79.7539 218.836L80.4922 219.926C81.4648 219.58 82.1211 218.936 82.502 218.145C82.8477 218.965 83.4746 219.656 84.4766 220.02C85.4316 219.645 86.0527 218.93 86.4043 218.104C86.7734 218.93 87.4414 219.58 88.4609 219.926L89.1875 218.836C87.7637 218.396 87.1719 217.371 87.1836 216.258V215.895H85.707V216.258C85.707 217.049 85.3203 217.963 84.4355 218.59C83.5742 218.004 83.2109 217.113 83.2109 216.258ZM79.4961 212.531C79.4961 214.014 80.75 215.08 82.4141 215.074C84.0723 215.08 85.3262 214.014 85.332 212.531C85.3262 211.02 84.0723 209.965 82.4141 209.965C80.75 209.965 79.4961 211.02 79.4961 212.531ZM80.9609 212.531C80.9492 211.705 81.5586 211.219 82.4141 211.219C83.2461 211.219 83.8496 211.705 83.8555 212.531C83.8496 213.334 83.2461 213.838 82.4141 213.832C81.5586 213.838 80.9492 213.334 80.9609 212.531ZM86.7617 215.449H88.2617V209.426H86.7617V215.449ZM98.3633 212.32H92.3984V209.789H90.9102V213.492H98.3633V212.32ZM89.6914 215.812H99.4531V214.641H89.6914V215.812ZM90.8164 219.844H98.4336V218.648H92.3164V216.68H90.8164V219.844ZM106.473 219.117C108.389 219.123 109.689 217.887 109.684 216.164C109.689 214.564 108.553 213.422 107.023 213.422C106.086 213.422 105.248 213.861 104.855 214.617H104.773C104.785 212.947 105.389 211.91 106.543 211.91C107.229 211.91 107.715 212.279 107.855 212.871H109.59C109.42 211.477 108.248 210.398 106.543 210.398C104.422 210.398 103.057 212.092 103.051 214.957C103.045 218.062 104.721 219.111 106.473 219.117ZM104.949 216.211C104.961 215.385 105.617 214.705 106.484 214.699C107.346 214.705 107.973 215.361 107.973 216.211C107.973 217.066 107.334 217.729 106.461 217.723C105.594 217.729 104.961 217.043 104.949 216.211ZM111.348 215.238V216.668C111.734 216.246 112.221 216.029 112.766 216.023C113.727 216.029 114.547 216.691 115.508 216.691C116.059 216.691 116.562 216.469 116.961 216.047V214.617C116.574 215.045 116.088 215.262 115.543 215.262C114.576 215.262 113.762 214.6 112.801 214.594C112.25 214.6 111.746 214.816 111.348 215.238ZM121.93 219.117C123.863 219.117 125.258 218.098 125.258 216.715C125.258 215.648 124.426 214.781 123.395 214.617V214.559C124.285 214.383 124.936 213.615 124.941 212.684C124.936 211.365 123.664 210.398 121.93 210.398C120.195 210.398 118.924 211.365 118.93 212.684C118.924 213.615 119.557 214.383 120.477 214.559V214.617C119.422 214.781 118.602 215.648 118.602 216.715C118.602 218.098 119.99 219.117 121.93 219.117ZM120.441 216.539C120.436 215.801 121.068 215.268 121.93 215.262C122.791 215.268 123.424 215.807 123.418 216.539C123.424 217.266 122.826 217.775 121.93 217.77C121.033 217.775 120.436 217.266 120.441 216.539ZM120.652 212.859C120.646 212.197 121.168 211.734 121.93 211.734C122.686 211.734 123.213 212.197 123.219 212.859C123.213 213.539 122.674 214.014 121.93 214.02C121.18 214.014 120.646 213.539 120.652 212.859ZM129.336 219.129C131.023 219.123 132.084 218.133 132.16 216.691H130.531C130.42 217.365 129.969 217.746 129.359 217.746C128.516 217.746 127.977 217.043 127.977 215.812C127.977 214.605 128.527 213.908 129.359 213.902C130.016 213.908 130.426 214.342 130.531 214.969H132.16C132.09 213.51 130.977 212.555 129.336 212.555C127.408 212.555 126.213 213.891 126.219 215.836C126.213 217.775 127.385 219.123 129.336 219.129ZM133.238 219H134.973V215.18C134.967 214.459 135.424 213.984 136.016 213.984C136.607 213.984 137.006 214.389 137 215.016V219H138.688V215.109C138.682 214.436 139.068 213.984 139.719 213.984C140.287 213.984 140.721 214.336 140.715 215.062V219H142.449V214.723C142.449 213.334 141.623 212.555 140.445 212.555C139.514 212.555 138.787 213.029 138.523 213.75H138.465C138.254 213.018 137.604 212.555 136.73 212.555C135.875 212.555 135.23 213.006 134.961 213.75H134.891V212.637H133.238V219ZM154.871 211.84H148.906V209.613H147.418V213.035H150.301V213.961H146.188V215.145H155.914V213.961H151.801V213.035H154.871V211.84ZM147.137 219.961H154.988V218.766H153.418V217.055H154.871V215.895H147.23V217.055H148.684V218.766H147.137V219.961ZM150.16 218.766V217.055H151.941V218.766H150.16ZM165.488 209.414H163.977V220.102H165.488V209.414ZM156.875 213.961C156.869 216.305 158.059 217.77 159.699 217.77C161.305 217.77 162.5 216.305 162.5 213.961C162.5 211.635 161.305 210.164 159.699 210.164C158.059 210.164 156.869 211.635 156.875 213.961ZM158.316 213.961C158.311 212.379 158.867 211.512 159.699 211.512C160.508 211.512 161.053 212.379 161.059 213.961C161.053 215.549 160.508 216.416 159.699 216.41C158.867 216.416 158.311 215.549 158.316 213.961ZM170.387 210.129C168.705 210.123 167.416 211.213 167.422 212.742C167.416 214.277 168.705 215.361 170.387 215.367C172.08 215.361 173.334 214.277 173.34 212.742C173.334 211.213 172.08 210.123 170.387 210.129ZM166.977 216.703L167.152 217.922C169.016 217.922 171.547 217.904 173.914 217.441L173.797 216.363C171.518 216.686 168.881 216.709 166.977 216.703ZM168.91 212.742C168.904 211.91 169.543 211.418 170.387 211.418C171.236 211.418 171.881 211.91 171.887 212.742C171.881 213.586 171.236 214.072 170.387 214.066C169.543 214.072 168.904 213.586 168.91 212.742ZM174.406 220.102H175.895V209.414H174.406V220.102ZM181.777 210.375H180.371V217.547H184.613V214.523H185.68V219.609H187.086V209.59H185.68V213.305H184.613V210.375H183.254V212.848H181.777V210.375ZM181.777 216.328V214.031H183.254V216.328H181.777ZM187.883 220.078H189.312V209.414H187.883V220.078ZM199.637 209.414H198.195V213.457H197.223V209.695H195.828V219.609H197.223V214.652H198.195V220.078H199.637V209.414ZM190.309 216.855L191.176 217.887C194.182 216.141 195.072 213.703 195.078 210.727H190.848V211.922H193.619C193.42 214.014 192.482 215.578 190.309 216.855ZM210.559 214.195H200.797V215.309H210.559V214.195ZM201.91 216.867H207.91V217.406H201.922V219.984H209.703V218.965H203.41V218.355H209.387V215.836H201.91V216.867ZM201.992 210.621H207.875V211.16H202.016V213.691H209.562V212.684H203.504V212.109H209.375V209.602H201.992V210.621ZM217.871 211.828V210.234H216.371V211.828C216.371 213.809 215.521 215.848 213.711 216.68L214.637 217.887C215.844 217.289 216.664 216.158 217.133 214.781C217.572 216.064 218.346 217.119 219.488 217.688L220.391 216.492C218.68 215.666 217.865 213.738 217.871 211.828ZM220.859 220.078H222.359V214.793H223.93V213.527H222.359V209.414H220.859V220.078ZM234.043 214.465H231.805V213.199C232.602 212.859 233.053 212.326 233.059 211.629C233.053 210.34 231.535 209.572 229.18 209.566C226.807 209.572 225.289 210.34 225.289 211.629C225.289 212.314 225.729 212.842 226.508 213.188V214.465H224.316V215.66H234.043V214.465ZM225.43 218.133C225.43 219.393 226.83 220.066 229.168 220.066C231.471 220.066 232.871 219.393 232.883 218.133C232.871 216.902 231.471 216.217 229.168 216.223C226.83 216.217 225.43 216.902 225.43 218.133ZM226.848 211.629C226.836 211.031 227.674 210.715 229.18 210.715C230.668 210.715 231.512 211.031 231.512 211.629C231.512 212.215 230.668 212.514 229.18 212.508C227.674 212.514 226.836 212.215 226.848 211.629ZM226.953 218.133C226.947 217.605 227.691 217.354 229.168 217.348C230.615 217.354 231.377 217.605 231.383 218.133C231.377 218.678 230.615 218.953 229.168 218.953C227.691 218.953 226.947 218.678 226.953 218.133ZM228.02 214.465V213.568C228.377 213.609 228.764 213.633 229.18 213.633C229.584 213.633 229.965 213.615 230.316 213.568V214.465H228.02ZM243.148 209.426H241.648V217.383H243.148V213.914H244.59V212.695H243.148V209.426ZM234.688 211.723H241.016V210.539H238.602V209.402H237.113V210.539H234.688V211.723ZM235.203 214.16C235.203 215.391 236.299 216.199 237.852 216.199C239.398 216.199 240.477 215.391 240.477 214.16C240.477 212.924 239.398 212.098 237.852 212.098C236.299 212.098 235.203 212.924 235.203 214.16ZM236.234 219.891H243.535V218.695H237.723V216.773H236.234V219.891ZM236.668 214.16C236.662 213.568 237.137 213.24 237.852 213.234C238.572 213.24 239.059 213.568 239.059 214.16C239.059 214.746 238.572 215.062 237.852 215.062C237.137 215.062 236.662 214.746 236.668 214.16ZM253.473 209.414H251.973V220.102H253.473V214.594H255.043V213.375H253.473V209.414ZM245.48 217.512H246.383C248.264 217.518 249.717 217.477 251.375 217.195L251.211 215.941C249.793 216.188 248.516 216.27 246.969 216.281V211.605H250.484V210.398H245.48V217.512Z" fill="#6662A8"/>
<path d="M40.8125 509.836H33.5234V513.586H36.418V514.605H32.3164V515.812H42.043V514.605H37.918V513.586H40.8125V509.836ZM33.3945 517.77H39.3711V520.078H40.8594V516.598H33.3945V517.77ZM34.9883 512.414V510.996H39.3477V512.414H34.9883ZM52.4375 515.566H42.6758V516.738H46.7891V520.078H48.2656V516.738H52.4375V515.566ZM43.8242 514.535H51.2773V509.824H49.7773V511.055H45.3008V509.824H43.8242V514.535ZM45.3008 513.34V512.227H49.7773V513.34H45.3008ZM62.0586 509.414H60.582V513.176H58.707V514.383H60.582V520.102H62.0586V509.414ZM53.5508 517.688H54.3945C56.2227 517.682 57.6172 517.629 59.1758 517.395L59.0234 516.199C57.7051 516.404 56.5215 516.457 55.0391 516.469V514.453H58.1445V513.281H55.0391V511.512H58.5312V510.305H53.5508V517.688ZM74.75 509.812H67.3086V510.984H73.2559C73.2441 511.506 73.209 512.109 73.0859 512.871L74.5625 512.988C74.7441 511.934 74.7441 511.084 74.75 510.445V509.812ZM66.2188 514.582H75.8984V513.422H71.3281V511.852H69.8516V513.422H66.2188V514.582ZM67.2969 516.434H73.2734V517.09H67.3086V519.996H75.043V518.848H68.7969V518.098H74.75V515.25H67.2969V516.434ZM85.0273 509.426H83.5273V517.277H85.0273V513.656H86.4688V512.426H85.0273V509.426ZM76.8828 515.578H82.0508V510.176H80.5508V511.723H78.3711V510.176H76.8828V515.578ZM78.1133 519.891H85.4141V518.695H79.6016V516.469H78.1133V519.891ZM78.3711 514.406V512.871H80.5508V514.406H78.3711ZM95.4805 509.414H93.9805V520.078H95.4805V514.828H96.8984V513.598H95.4805V509.414ZM86.7266 516.984L87.8984 517.816C89.8086 515.719 90.1133 513.434 90.125 510.504H87.1953V511.723H88.6953C88.6016 513.85 88.1797 515.408 86.7266 516.984ZM89.7383 517.676L90.9219 518.508C92.8086 516.188 93.0723 513.545 93.0781 510.504H90.4766V511.723H91.666C91.584 514.066 91.1855 515.895 89.7383 517.676ZM101.445 512.32V511.664H103.672V510.445H97.6484V511.664H99.9102V512.32C99.9102 514.125 98.9961 516.1 97.2266 516.891L98.082 518.074C99.3418 517.494 100.227 516.322 100.707 514.922C101.188 516.211 102.055 517.271 103.309 517.805L104.117 516.633C102.33 515.889 101.439 514.043 101.445 512.32ZM104.727 520.078H106.238V509.414H104.727V520.078ZM113.48 509.73C111.834 509.725 110.609 510.744 110.609 512.168C110.609 513.58 111.834 514.588 113.48 514.594C115.104 514.588 116.322 513.58 116.328 512.168C116.322 510.744 115.104 509.725 113.48 509.73ZM112.062 512.168C112.051 511.4 112.66 510.949 113.48 510.949C114.289 510.949 114.881 511.4 114.887 512.168C114.881 512.93 114.289 513.381 113.48 513.387C112.654 513.381 112.051 512.93 112.062 512.168ZM112.215 516.352H117.887V517.008H112.238V519.961H119.668V518.789H113.703V518.098H119.375V515.203H112.215V516.352ZM117.875 514.758H119.375V509.414H117.875V514.758ZM129.746 509.414H128.246V515.836H129.746V509.414ZM120.863 514.512L121.637 515.672C122.891 515.256 123.758 514.418 124.244 513.363C124.725 514.33 125.562 515.098 126.758 515.473L127.52 514.312C125.779 513.785 124.982 512.484 124.977 511.23H127.121V510.035H121.262V511.23H123.453C123.441 512.561 122.627 513.943 120.863 514.512ZM122.41 517.5H128.246V520.078H129.746V516.305H122.41V517.5ZM135.184 511.242V510.07H133.672V511.23C133.666 512.76 132.898 514.219 131.117 514.805L131.926 515.977C133.162 515.531 133.994 514.658 134.451 513.539C134.902 514.529 135.682 515.314 136.812 515.73L137.621 514.559C135.922 513.99 135.184 512.619 135.184 511.242ZM133.074 519.891H140.398V518.695H134.586V516.469H133.074V519.891ZM136.684 512.895H138.688V517.301H140.176V509.426H138.688V511.688H136.684V512.895ZM150.488 509.414H148.977V520.102H150.488V509.414ZM141.875 513.961C141.869 516.305 143.059 517.77 144.699 517.77C146.305 517.77 147.5 516.305 147.5 513.961C147.5 511.635 146.305 510.164 144.699 510.164C143.059 510.164 141.869 511.635 141.875 513.961ZM143.316 513.961C143.311 512.379 143.867 511.512 144.699 511.512C145.508 511.512 146.053 512.379 146.059 513.961C146.053 515.549 145.508 516.416 144.699 516.41C143.867 516.416 143.311 515.549 143.316 513.961ZM161.047 513.75H156.934V511.547H160.988V510.363H155.445V514.945H157.473V516.744C156.518 516.768 155.592 516.768 154.742 516.762L154.918 517.98C156.922 517.98 159.348 517.963 161.68 517.605L161.562 516.516C160.73 516.604 159.852 516.662 158.973 516.697V514.945H161.047V513.75ZM162.172 520.102H163.66V509.414H162.172V520.102ZM173.762 514.184H167.715V511.359H173.68V510.164H166.215V515.367H169.18V517.641H165.066V518.859H174.828V517.641H170.668V515.367H173.762V514.184ZM185.188 515.133H181.051V514.359H184.203V513.211H178.133V512.508H184.004V509.613H176.621V510.773H182.504V511.43H176.645V514.359H179.562V515.133H175.426V516.328H185.188V515.133ZM176.516 518.109H182.551V520.031H184.062V516.938H176.516V518.109ZM35.2578 527.164C33.6406 527.164 32.4805 528.635 32.4922 530.961C32.4805 533.305 33.6406 534.77 35.2578 534.77C36.7461 534.77 37.8477 533.516 38.0059 531.465H39.8398V537.102H41.3164V526.414H39.8398V530.27H37.9883C37.7773 528.348 36.6992 527.164 35.2578 527.164ZM33.9219 530.961C33.916 529.379 34.4609 528.512 35.2578 528.512C36.0605 528.512 36.5938 529.379 36.5938 530.961C36.5938 532.549 36.0605 533.416 35.2578 533.41C34.4609 533.416 33.916 532.549 33.9219 530.961ZM52.1562 526.402H50.7148V530.469H49.8828V526.59H48.4883V536.609H49.8828V531.676H50.7148V537.066H52.1562V526.402ZM42.5117 533.914L43.6836 534.582C45.043 532.549 45.3301 530.264 45.3359 527.656H42.8984V528.852H44.0586C43.9707 530.832 43.5957 532.355 42.5117 533.914ZM45.0195 534.57L46.2031 535.203C47.6328 532.994 47.8613 530.363 47.8672 527.656H45.6523V528.852H46.5605C46.502 530.996 46.2031 532.812 45.0195 534.57ZM64.8359 526.414H63.3477V529.707H60.4297V530.926H63.3477V537.102H64.8359V526.414ZM56.375 534.594H57.2773C58.8711 534.594 60.5117 534.506 62.2344 534.148L62.0703 532.93C60.623 533.205 59.2285 533.322 57.875 533.346V527.551H56.375V534.594ZM75.125 526.414H73.6133V537.102H75.125V526.414ZM66.7227 534.605H71.9961V527.258H70.5195V529.859H68.2227V527.258H66.7227V534.605ZM68.2227 533.398V531.02H70.5195V533.398H68.2227ZM80.0234 527.129C78.3418 527.123 77.0527 528.213 77.0586 529.742C77.0527 531.277 78.3418 532.361 80.0234 532.367C81.7168 532.361 82.9707 531.277 82.9766 529.742C82.9707 528.213 81.7168 527.123 80.0234 527.129ZM76.6133 533.703L76.7891 534.922C78.6523 534.922 81.1836 534.904 83.5508 534.441L83.4336 533.363C81.1543 533.686 78.5176 533.709 76.6133 533.703ZM78.5469 529.742C78.541 528.91 79.1797 528.418 80.0234 528.418C80.873 528.418 81.5176 528.91 81.5234 529.742C81.5176 530.586 80.873 531.072 80.0234 531.066C79.1797 531.072 78.541 530.586 78.5469 529.742ZM84.043 537.102H85.5312V526.414H84.043V537.102ZM91.4141 527.375H90.0078V534.547H94.25V531.523H95.3164V536.609H96.7227V526.59H95.3164V530.305H94.25V527.375H92.8906V529.848H91.4141V527.375ZM91.4141 533.328V531.031H92.8906V533.328H91.4141ZM97.5195 537.078H98.9492V526.414H97.5195V537.078ZM109.273 526.414H107.832V530.457H106.859V526.695H105.465V536.609H106.859V531.652H107.832V537.078H109.273V526.414ZM99.9453 533.855L100.812 534.887C103.818 533.141 104.709 530.703 104.715 527.727H100.484V528.922H103.256C103.057 531.014 102.119 532.578 99.9453 533.855ZM113.621 527.047C111.939 527.053 110.691 528.131 110.691 529.66C110.691 530.967 111.594 531.939 112.895 532.203V533.703C111.969 533.727 111.09 533.727 110.316 533.727L110.516 534.934C112.326 534.957 114.729 534.963 116.961 534.535L116.855 533.434C116.064 533.539 115.221 533.609 114.383 533.65V532.191C115.643 531.916 116.539 530.949 116.551 529.66C116.539 528.131 115.268 527.053 113.621 527.047ZM112.156 529.66C112.15 528.811 112.777 528.318 113.621 528.312C114.447 528.318 115.074 528.811 115.074 529.66C115.074 530.498 114.447 531.008 113.621 531.008C112.777 531.008 112.15 530.498 112.156 529.66ZM117.418 537.078H118.918V531.852H120.371V530.598H118.918V526.414H117.418V537.078ZM123.066 535.133H121.402L120.816 538.473H122.059L123.066 535.133ZM135.055 526.414H133.555V537.102H135.055V531.594H136.625V530.375H135.055V526.414ZM127.062 534.512H127.965C129.846 534.518 131.299 534.477 132.957 534.195L132.793 532.941C131.375 533.188 130.098 533.27 128.551 533.281V528.605H132.066V527.398H127.062V534.512ZM145.953 526.414H144.465V537.102H145.953V526.414ZM137.574 528.512H141.125V530.234H137.586V534.605H138.547C140.492 534.605 142.08 534.541 143.832 534.23L143.703 533.023C142.139 533.281 140.762 533.363 139.133 533.375V531.418H142.648V527.305H137.574V528.512ZM149.094 527.375H147.688V534.547H151.93V531.523H152.996V536.609H154.402V526.59H152.996V530.305H151.93V527.375H150.57V529.848H149.094V527.375ZM149.094 533.328V531.031H150.57V533.328H149.094ZM155.199 537.078H156.629V526.414H155.199V537.078ZM167 526.414H165.594V537.078H167V526.414ZM157.625 533.809L158.469 534.863C159.986 533.984 160.977 532.93 161.586 531.711H163.332V536.609H164.727V526.648H163.332V530.527H162.049C162.307 529.648 162.418 528.699 162.418 527.68H158.211V528.887H160.936C160.73 530.979 159.781 532.531 157.625 533.809ZM177.875 531.195H168.113V532.309H177.875V531.195ZM169.227 533.867H175.227V534.406H169.238V536.984H177.02V535.965H170.727V535.355H176.703V532.836H169.227V533.867ZM169.309 527.621H175.191V528.16H169.332V530.691H176.879V529.684H170.82V529.109H176.691V526.602H169.309V527.621ZM185.188 528.828V527.234H183.688V528.828C183.688 530.809 182.838 532.848 181.027 533.68L181.953 534.887C183.16 534.289 183.98 533.158 184.449 531.781C184.889 533.064 185.662 534.119 186.805 534.688L187.707 533.492C185.996 532.666 185.182 530.738 185.188 528.828ZM188.176 537.078H189.676V531.793H191.246V530.527H189.676V526.414H188.176V537.078ZM201.359 531.465H199.121V530.199C199.918 529.859 200.369 529.326 200.375 528.629C200.369 527.34 198.852 526.572 196.496 526.566C194.123 526.572 192.605 527.34 192.605 528.629C192.605 529.314 193.045 529.842 193.824 530.188V531.465H191.633V532.66H201.359V531.465ZM192.746 535.133C192.746 536.393 194.146 537.066 196.484 537.066C198.787 537.066 200.188 536.393 200.199 535.133C200.188 533.902 198.787 533.217 196.484 533.223C194.146 533.217 192.746 533.902 192.746 535.133ZM194.164 528.629C194.152 528.031 194.99 527.715 196.496 527.715C197.984 527.715 198.828 528.031 198.828 528.629C198.828 529.215 197.984 529.514 196.496 529.508C194.99 529.514 194.152 529.215 194.164 528.629ZM194.27 535.133C194.264 534.605 195.008 534.354 196.484 534.348C197.932 534.354 198.693 534.605 198.699 535.133C198.693 535.678 197.932 535.953 196.484 535.953C195.008 535.953 194.264 535.678 194.27 535.133ZM195.336 531.465V530.568C195.693 530.609 196.08 530.633 196.496 530.633C196.9 530.633 197.281 530.615 197.633 530.568V531.465H195.336ZM210.465 526.426H208.965V534.383H210.465V530.914H211.906V529.695H210.465V526.426ZM202.004 528.723H208.332V527.539H205.918V526.402H204.43V527.539H202.004V528.723ZM202.52 531.16C202.52 532.391 203.615 533.199 205.168 533.199C206.715 533.199 207.793 532.391 207.793 531.16C207.793 529.924 206.715 529.098 205.168 529.098C203.615 529.098 202.52 529.924 202.52 531.16ZM203.551 536.891H210.852V535.695H205.039V533.773H203.551V536.891ZM203.984 531.16C203.979 530.568 204.453 530.24 205.168 530.234C205.889 530.24 206.375 530.568 206.375 531.16C206.375 531.746 205.889 532.062 205.168 532.062C204.453 532.062 203.979 531.746 203.984 531.16ZM220.789 526.414H219.289V537.102H220.789V531.594H222.359V530.375H220.789V526.414ZM212.797 534.512H213.699C215.58 534.518 217.033 534.477 218.691 534.195L218.527 532.941C217.109 533.188 215.832 533.27 214.285 533.281V528.605H217.801V527.398H212.797V534.512Z" fill="#6662A8"/>
<path d="M55.918 413.696C55.918 413.696 42.9249 393.204 40.9821 393.088C39.0392 392.972 39.7686 437.746 40.9821 438.08C42.1955 438.414 55.434 437.194 55.434 437.194" fill="#F6C4DE"/>
<path d="M54.7755 437.098L55.2595 413.607L162.422 379.297L160.063 439.259L54.7755 437.098Z" fill="#E2E2E2"/>
<path d="M351.428 414.65C351.284 405.904 344.352 398.917 335.933 399.046C335.612 399.046 335.292 399.08 334.971 399.101V396.988L333.151 399.312C326.089 400.485 320.704 403.021 321.753 410.696C323.335 422.285 332.579 428.557 340.998 428.42C349.417 428.284 351.564 423.403 351.428 414.65Z" fill="#F6C4DE"/>
<path d="M337.973 403.702C337.412 403.702 336.957 403.247 336.957 402.686C336.957 402.125 337.412 401.671 337.973 401.671C338.534 401.671 338.988 402.125 338.988 402.686C338.988 403.247 338.534 403.702 337.973 403.702Z" fill="#624EC5"/>
<path d="M334.999 400.948C334.916 400.897 334.85 400.825 334.806 400.738C334.763 400.651 334.745 400.554 334.754 400.457C334.865 399.505 334.913 398.546 334.897 397.587C334.416 398.203 333.977 398.85 333.581 399.523C333.547 399.58 333.502 399.63 333.449 399.669C333.396 399.709 333.336 399.737 333.271 399.754C333.207 399.77 333.14 399.773 333.075 399.763C333.009 399.754 332.946 399.731 332.889 399.697C332.833 399.663 332.783 399.618 332.743 399.565C332.704 399.512 332.675 399.451 332.659 399.387C332.643 399.323 332.64 399.256 332.649 399.191C332.659 399.125 332.682 399.062 332.716 399.005C334.324 396.278 334.897 396.278 335.115 396.278C335.222 396.272 335.329 396.293 335.425 396.341C335.52 396.389 335.602 396.462 335.661 396.551C336.049 397.096 335.926 399.046 335.756 400.587C335.749 400.653 335.729 400.718 335.697 400.776C335.666 400.835 335.622 400.887 335.57 400.928C335.518 400.97 335.459 401.001 335.395 401.02C335.33 401.039 335.263 401.044 335.197 401.037C335.127 401.018 335.06 400.988 334.999 400.948Z" fill="#B7577E"/>
<path d="M338.271 399.012C338.271 399.012 353.112 396.967 357.297 416.518C359.206 425.434 374.224 426.784 384.21 425.925C391.259 425.318 393.195 427.118 391.334 434.106C389.2 442.129 354.816 435.414 344.065 434.303C332.231 433.09 326.41 424.691 329.961 424.078C345.974 421.249 348.456 407.785 346.758 404.69C343.636 398.991 335.81 399.066 336.737 399.046L338.271 399.012Z" fill="#806CF6"/>
<path d="M327.759 400.682C328.168 400.553 328.843 400.246 328.843 400.246C328.734 400.839 328.332 403.729 329.866 405.018C329.917 405.06 329.96 405.111 329.992 405.17C330.023 405.228 330.043 405.292 330.05 405.359C330.058 405.491 330.017 405.623 329.934 405.727C329.85 405.822 329.733 405.882 329.606 405.894C329.48 405.907 329.353 405.871 329.252 405.795C327.043 403.954 327.725 400.846 327.759 400.682Z" fill="#624EC5"/>
<path d="M354.708 435.994C354.708 435.994 359.813 436.573 358.743 429.927C357.673 423.28 357.155 419.96 349.343 422.701C341.53 425.441 340.337 425.591 325.374 424.003C325.374 424.003 320.152 421.692 317.419 427.616C314.685 433.54 314.331 436.478 321.216 436.008C328.101 435.537 354.708 435.994 354.708 435.994Z" fill="#F7F2E7"/>
<path d="M314.951 429.422L311.543 415.523L327.419 413.621L329.301 424.405C329.301 424.405 320.03 423.458 316.914 427.814L314.951 429.422Z" fill="#F6C4DE"/>
<path d="M293.554 436.887L158.429 440.295L162.573 377L260.792 386.544C271.638 387.56 282.301 390.008 292.504 393.824C304.291 398.276 316.302 405.031 319.145 415.768C319.704 417.793 319.954 419.892 319.888 421.992C319.431 431.754 309.792 434.419 299.798 436.307C297.743 436.718 295.65 436.912 293.554 436.887Z" fill="#8C81F7"/>
<path d="M332.891 419.303L332.977 424.722C332.987 425.368 333.253 425.982 333.717 426.431C334.18 426.881 334.803 427.127 335.449 427.117C336.094 427.107 336.709 426.84 337.158 426.377C337.607 425.913 337.854 425.29 337.843 424.645L337.757 419.226L332.891 419.303Z" fill="#F6C4DE"/>
<path d="M332.08 422.851C332.08 422.729 332.123 422.612 332.202 422.52C332.28 422.427 332.389 422.366 332.509 422.346C332.574 422.336 332.64 422.338 332.704 422.353C332.769 422.368 332.829 422.396 332.882 422.435C332.935 422.473 332.98 422.522 333.015 422.578C333.049 422.635 333.072 422.697 333.082 422.762L333.47 425.175C333.51 425.426 333.599 425.665 333.731 425.881C333.864 426.097 334.038 426.285 334.243 426.434C334.448 426.583 334.68 426.689 334.927 426.748C335.173 426.807 335.429 426.817 335.679 426.777C335.929 426.737 336.169 426.649 336.385 426.516C336.601 426.384 336.789 426.21 336.937 426.005C337.086 425.8 337.193 425.567 337.252 425.321C337.311 425.074 337.321 424.819 337.281 424.569L336.892 422.149C336.872 422.016 336.904 421.88 336.984 421.771C337.063 421.663 337.182 421.59 337.315 421.569C337.448 421.548 337.584 421.581 337.692 421.66C337.801 421.74 337.874 421.859 337.894 421.992L338.276 424.405C338.342 424.788 338.331 425.18 338.244 425.558C338.157 425.937 337.996 426.294 337.77 426.61C337.544 426.926 337.258 427.194 336.928 427.398C336.598 427.603 336.231 427.74 335.847 427.802C335.464 427.863 335.072 427.849 334.694 427.758C334.317 427.667 333.961 427.503 333.647 427.274C333.334 427.045 333.069 426.756 332.868 426.424C332.666 426.092 332.533 425.723 332.475 425.339L332.086 422.919C332.086 422.919 332.08 422.871 332.08 422.851Z" fill="#624EC5"/>
<path d="M154.339 440.582L149.301 440.036C149.03 440.488 148.59 440.813 148.079 440.941C147.568 441.068 147.027 440.988 146.575 440.718C146.089 440.399 145.733 439.919 145.569 439.362C145.406 438.805 145.446 438.208 145.682 437.678L148.626 440.329L137.828 439.866L129.041 439.716C128.515 439.7 128.016 439.475 127.654 439.092C127.292 438.709 127.097 438.198 127.112 437.671C127.12 437.419 127.175 437.172 127.276 436.941C126.749 436.91 126.256 436.67 125.906 436.275C125.555 435.88 125.376 435.362 125.408 434.835C125.44 434.308 125.679 433.815 126.074 433.465C126.469 433.114 126.987 432.935 127.514 432.967L139.103 431.638L230.805 417.322L230.123 439.307L154.339 440.582Z" fill="#F6C4DE"/>
<path d="M223.522 439.852L226.665 405.509L291.337 419.667C293.502 420.131 295.422 421.369 296.738 423.149C298.053 424.929 298.673 427.129 298.481 429.334C298.066 433.874 299.347 436.723 294.746 436.88L223.522 439.852Z" fill="#8C81F7"/>
<path d="M223.037 439.832C223.041 439.952 223.09 440.066 223.174 440.152C223.257 440.238 223.37 440.289 223.49 440.297C223.609 440.305 223.728 440.268 223.822 440.193C223.916 440.118 223.979 440.011 223.998 439.893L227.093 406.095L255.261 412.23C255.322 412.244 255.385 412.246 255.446 412.235C255.508 412.224 255.567 412.202 255.619 412.168C255.672 412.134 255.717 412.091 255.753 412.039C255.789 411.988 255.814 411.93 255.826 411.869C255.841 411.808 255.844 411.744 255.834 411.682C255.823 411.621 255.801 411.561 255.767 411.508C255.733 411.455 255.689 411.41 255.637 411.375C255.585 411.339 255.527 411.315 255.465 411.303L226.766 405.018C226.699 405.004 226.63 405.004 226.563 405.018C226.496 405.032 226.433 405.06 226.377 405.099C226.323 405.14 226.279 405.191 226.246 405.25C226.213 405.308 226.193 405.373 226.186 405.44L223.044 439.784L223.037 439.832Z" fill="#1D1D1B"/>
<path d="M105.775 605.699L56.4633 608.968C56.4633 608.968 49.2383 606.29 43.0366 608.213C39.376 609.346 38.2772 623.322 44.0119 626.509C44.6437 626.859 56.1817 623.603 56.1817 623.603L108.906 621.577L105.775 605.699Z" fill="#F6C4DE"/>
<path d="M56.2931 625.43L56.5541 600.809L162.367 570V627.614L56.2931 625.43Z" fill="#E2E2E2"/>
<path d="M291.579 626.083C283.992 627.445 276.3 628.135 268.592 628.143L162.36 627.642V570L196.013 579.773C206.448 582.345 217.198 583.404 227.935 582.918L292.602 583.159C299.539 582.733 302.684 585.054 304.182 588.928C305.61 592.623 305.555 597.732 305.823 603.213C306.421 611.722 307.732 624.565 292.012 626.001L291.579 626.083Z" fill="#8C81F7"/>
<path d="M346.741 628.096C346.741 628.096 352.75 628.954 351.493 619.119C350.236 609.284 348.162 606.997 340.422 608.433C330.526 610.253 330.12 611.441 312.497 609.12C312.497 609.12 303.906 605.919 300.685 614.683C297.464 623.446 299.201 628.81 307.312 628.151C315.423 627.491 346.741 628.096 346.741 628.096Z" fill="#F7F2E7"/>
<path d="M310.843 603.317C310.575 594.654 317.113 587.422 325.446 587.165C333.779 586.907 340.751 593.721 341.019 602.384C341.287 611.047 334.749 618.279 326.416 618.536C318.083 618.794 311.11 611.98 310.843 603.317Z" fill="#F6C4DE"/>
<path d="M327.973 590.979L327.807 585.618C327.787 584.979 327.514 584.374 327.049 583.936C326.583 583.498 325.962 583.263 325.323 583.283C324.684 583.302 324.079 583.575 323.641 584.041C323.203 584.507 322.968 585.128 322.988 585.767L323.154 591.128L327.959 590.979L327.973 590.979Z" fill="#F6C4DE"/>
<path d="M329.385 610.788C328.827 610.788 328.375 610.336 328.375 609.779C328.375 609.221 328.827 608.769 329.385 608.769C329.943 608.769 330.395 609.221 330.395 609.779C330.395 610.336 329.943 610.788 329.385 610.788Z" fill="#624EC5"/>
<path d="M329.006 598.557C328.448 598.557 327.996 598.105 327.996 597.547C327.996 596.99 328.448 596.538 329.006 596.538C329.564 596.538 330.016 596.99 330.016 597.547C330.016 598.105 329.564 598.557 329.006 598.557Z" fill="#624EC5"/>
<path d="M324.526 603.343C324.526 603.439 324.555 603.533 324.609 603.613C324.663 603.692 324.739 603.754 324.828 603.79C325.709 604.147 326.564 604.562 327.39 605.033C326.627 605.162 325.856 605.235 325.082 605.253C324.949 605.253 324.822 605.305 324.728 605.399C324.634 605.493 324.581 605.621 324.581 605.754C324.581 605.887 324.634 606.014 324.728 606.108C324.822 606.203 324.949 606.255 325.082 606.255C328.214 606.159 328.516 605.672 328.619 605.486C328.672 605.394 328.699 605.29 328.699 605.184C328.699 605.078 328.672 604.974 328.619 604.882C328.331 604.284 326.559 603.453 325.185 602.869C325.123 602.838 325.055 602.82 324.986 602.817C324.916 602.813 324.847 602.825 324.782 602.85C324.717 602.875 324.659 602.914 324.61 602.963C324.561 603.013 324.523 603.072 324.499 603.137C324.491 603.207 324.5 603.278 324.526 603.343Z" fill="#B7577E"/>
<path d="M318.067 604.539C318.098 605.675 318.362 606.792 318.843 607.821C318.91 607.927 319.013 608.005 319.133 608.038C319.253 608.072 319.381 608.06 319.493 608.004C319.604 607.948 319.691 607.853 319.736 607.737C319.781 607.62 319.781 607.491 319.736 607.375C319.661 607.231 317.971 603.742 320.251 600.624C320.327 600.518 320.358 600.387 320.338 600.258C320.317 600.129 320.247 600.014 320.141 599.937C320.034 599.865 319.904 599.836 319.776 599.856C319.649 599.877 319.534 599.945 319.455 600.047C318.5 601.345 318.011 602.928 318.067 604.539Z" fill="#624EC5"/>
<path d="M329.144 587.073C329.144 587.073 345.977 587.176 352.268 598.556C353.841 601.393 362.398 622.271 381.01 618.102C387.967 616.55 393.372 620.163 389.938 626.564C388.757 628.796 360.091 628.171 354.514 627.422C349.294 626.735 353.628 615.06 349.143 613.906C343.8 612.567 342.777 614.002 340.606 616.118C336.548 620.073 322.64 618.178 322.64 618.178C336.589 615.795 339.123 608.096 337.798 599.827C336.424 591.208 326.672 587.115 327.606 587.101L329.144 587.073Z" fill="#806CF6"/>
<path d="M305.773 609.058L305.54 597.334L305.78 597.41C310.835 599.051 311.426 599.532 316.707 598.921L316.123 609.957C316.123 609.957 309.152 607.691 305.773 609.058Z" fill="#F6C4DE"/>
<path d="M323.375 613.831L323.462 619.29C323.467 619.612 323.535 619.93 323.663 620.225C323.791 620.521 323.976 620.788 324.207 621.012C324.439 621.236 324.712 621.412 325.011 621.531C325.31 621.649 325.63 621.708 325.952 621.703C326.602 621.692 327.222 621.424 327.674 620.957C328.127 620.49 328.375 619.862 328.365 619.212L328.278 613.753L323.375 613.831Z" fill="#F6C4DE"/>
<path d="M322.565 617.409C322.571 617.285 322.622 617.167 322.708 617.077C322.795 616.988 322.91 616.933 323.034 616.922C323.158 616.911 323.282 616.945 323.382 617.018C323.483 617.091 323.553 617.198 323.581 617.32L323.966 619.758C324.006 620.01 324.096 620.251 324.23 620.469C324.364 620.686 324.54 620.875 324.747 621.024C324.954 621.174 325.188 621.281 325.436 621.34C325.685 621.399 325.942 621.409 326.194 621.368C326.447 621.328 326.688 621.238 326.905 621.104C327.123 620.97 327.312 620.794 327.461 620.587C327.611 620.38 327.718 620.146 327.777 619.898C327.836 619.649 327.846 619.392 327.805 619.14L327.42 616.708C327.408 616.642 327.409 616.573 327.423 616.507C327.437 616.441 327.465 616.378 327.503 616.323C327.542 616.267 327.592 616.22 327.649 616.184C327.707 616.148 327.77 616.124 327.837 616.113C327.904 616.102 327.973 616.104 328.038 616.12C328.104 616.136 328.166 616.165 328.221 616.205C328.275 616.245 328.321 616.296 328.356 616.354C328.391 616.412 328.414 616.476 328.423 616.543L328.815 618.982C328.876 619.366 328.861 619.758 328.771 620.137C328.68 620.515 328.516 620.872 328.288 621.187C328.06 621.502 327.771 621.769 327.44 621.973C327.108 622.177 326.74 622.313 326.356 622.374C325.972 622.436 325.579 622.421 325.201 622.33C324.822 622.24 324.465 622.076 324.15 621.848C323.835 621.619 323.568 621.331 323.365 621C323.161 620.668 323.024 620.3 322.963 619.916L322.572 617.484C322.573 617.459 322.57 617.434 322.565 617.409Z" fill="#624EC5"/>
<path d="M197.351 608.178L263.001 649.159L270.089 653.753C270.472 653.986 270.93 654.059 271.367 653.959C271.804 653.859 272.185 653.593 272.428 653.217C272.672 652.841 272.76 652.385 272.673 651.945C272.586 651.506 272.332 651.117 271.963 650.862L266.888 646.151L273.715 650.574C274.097 650.822 274.563 650.909 275.009 650.814C275.455 650.719 275.846 650.451 276.094 650.069C276.343 649.686 276.43 649.221 276.335 648.774C276.24 648.328 275.972 647.938 275.59 647.689L269.683 642.401L277.574 647.078C277.957 647.303 278.411 647.372 278.843 647.271C279.275 647.169 279.651 646.906 279.893 646.534C280.135 646.163 280.225 645.712 280.144 645.276C280.063 644.84 279.816 644.452 279.456 644.193L272.389 638.761L279.394 642.257C279.778 642.489 280.236 642.563 280.673 642.463C281.11 642.362 281.49 642.096 281.734 641.72C281.978 641.344 282.066 640.888 281.979 640.448C281.892 640.009 281.638 639.62 281.269 639.365L274.848 635.313L267.087 630.135L269.56 628.129C269.97 627.841 270.264 627.416 270.39 626.93C270.516 626.444 270.465 625.93 270.247 625.478C270.029 625.08 269.662 624.785 269.227 624.656C268.793 624.528 268.324 624.576 267.925 624.792L262.953 627.415L208.01 590.748" fill="#F6C4DE"/>
<path d="M208.74 589.388L245.827 612.484L297.775 595.864C302.26 592.629 305.769 594.429 304.341 588.996C302.967 584.876 301.161 571.408 290.008 572.321L208.74 589.388Z" fill="#8C81F7"/>
<path d="M236.694 583.88L208.941 590.212C208.902 590.222 208.866 590.243 208.838 590.272C208.81 590.301 208.791 590.338 208.783 590.377C208.775 590.417 208.779 590.458 208.793 590.496C208.808 590.533 208.833 590.566 208.865 590.59L233.102 606.929C233.346 607.092 233.625 607.199 233.916 607.239C234.208 607.279 234.505 607.253 234.785 607.162L270.848 595.569" stroke="#1D1D1B" stroke-miterlimit="10" stroke-linecap="round"/>
<path d="M93.7968 632.518H147.366C150.994 632.518 154.474 631.077 157.04 628.511C159.606 625.945 161.047 622.466 161.047 618.837V618.666C161.048 615.521 159.965 612.473 157.981 610.033C155.997 607.594 153.233 605.913 150.154 605.273L124.853 599.985C123.074 599.625 121.241 599.625 119.462 599.985L91.1939 605.424C88.071 606.025 85.2548 607.694 83.2293 610.146C81.2039 612.597 80.0957 615.678 80.0954 618.858C80.0981 620.655 80.4547 622.433 81.1447 624.092C81.8347 625.751 82.8447 627.257 84.117 628.526C85.3893 629.794 86.899 630.8 88.5598 631.485C90.2207 632.17 92.0002 632.521 93.7968 632.518Z" fill="#F7F2E7"/>
<path d="M115.85 606.345L66.7377 607.519C66.7377 607.519 60.0003 611.262 53.5788 610.266C49.7947 609.703 46.5874 596.036 51.7726 592.032C52.3426 591.593 64.2447 593.062 64.2447 593.062L116.66 587.06L115.85 606.345Z" fill="#F6C4DE"/>
<path d="M67.9952 609.092L116.668 610.459L147.395 602.993L133.199 583.028L67.5488 590.542L67.9952 609.092Z" fill="#E2E2E2"/>
<path d="M143.285 603.721L116.665 610.458L68.4186 609.284" stroke="#1D1D1B" stroke-linecap="round" stroke-linejoin="round"/>
<path d="M339.833 430C339.833 428.527 341.027 427.333 342.5 427.333C343.973 427.333 345.167 428.527 345.167 430C345.167 431.473 343.973 432.667 342.5 432.667C341.027 432.667 339.833 431.473 339.833 430ZM342.5 230.5V230H343V230.5H342.5ZM32 230L342.5 230V231L32 231V230ZM343 230.5V430H342V230.5H343Z" fill="#6662A8"/>
<path d="M293.833 426.5C293.833 425.027 295.027 423.833 296.5 423.833C297.973 423.833 299.167 425.027 299.167 426.5C299.167 427.973 297.973 429.167 296.5 429.167C295.027 429.167 293.833 427.973 293.833 426.5ZM296.5 293.5V293H297V293.5H296.5ZM31 293H296.5V294H31V293ZM297 293.5V426.5H296V293.5H297Z" fill="#6662A8"/>
<path d="M305.833 619.5C305.833 618.027 307.027 616.833 308.5 616.833C309.973 616.833 311.167 618.027 311.167 619.5C311.167 620.973 309.973 622.167 308.5 622.167C307.027 622.167 305.833 620.973 305.833 619.5ZM308.5 546V545.5H309V546H308.5ZM31 545.5H308.5V546.5H31V545.5ZM309 546V619.5H308V546H309Z" fill="#6662A8"/>
<path d="M120.333 620C120.333 618.527 121.527 617.333 123 617.333C124.473 617.333 125.667 618.527 125.667 620C125.667 621.473 124.473 622.667 123 622.667C121.527 622.667 120.333 621.473 120.333 620ZM123 546V545.5H123.5V546H123ZM31 545.5H123V546.5H31V545.5ZM123.5 546L123.5 620H122.5L122.5 546H123.5Z" fill="#6662A8"/>
<path d="M188.333 412.5C188.333 411.027 189.527 409.833 191 409.833C192.473 409.833 193.667 411.027 193.667 412.5C193.667 413.973 192.473 415.167 191 415.167C189.527 415.167 188.333 413.973 188.333 412.5ZM191 351V350.5H191.5V351H191ZM31 350.5H191V351.5H31V350.5ZM191.5 351V412.5H190.5V351H191.5Z" fill="#6662A8"/>
<rect x="73" y="694" width="268" height="14" fill="#FFF6A3"/>
<rect x="117" y="714" width="180" height="14" fill="#FFF6A3"/>
<path d="M86.707 702.199H79.3828V703.371H85.2188V706.078H86.707V702.199ZM77.8594 698.59C77.8477 700.143 79.0781 701.244 80.6953 701.25C81.5566 701.244 82.3125 700.922 82.8223 700.371H85.2188V701.719H86.707V695.414H85.2188V696.844H82.8223C82.3125 696.305 81.5566 695.982 80.6953 695.988C79.0781 695.977 77.8477 697.078 77.8594 698.59ZM79.2773 698.59C79.2715 697.758 79.8633 697.242 80.6953 697.242C81.4805 697.242 82.084 697.758 82.0898 698.59C82.084 699.463 81.4805 699.973 80.6953 699.973C79.8633 699.973 79.2715 699.463 79.2773 698.59ZM83.4434 699.176C83.4844 698.988 83.5078 698.795 83.5078 698.59C83.5078 698.402 83.4902 698.221 83.4492 698.051H85.2188V699.176H83.4434ZM97.8398 701.672H88.0781V702.844H90.3633V706.078H91.8516V702.844H94.0781V706.078H95.5898V702.844H97.8398V701.672ZM89.2031 696.949H95.1797V697.746H89.2383V700.898H96.9609V699.703H90.75V698.836H96.7148V695.73H89.2031V696.949ZM102.492 696.867V695.965H100.98V696.938C100.975 698.426 100.189 699.855 98.3672 700.441L99.1523 701.637C100.436 701.203 101.297 700.33 101.766 699.217C102.217 700.178 102.996 700.91 104.145 701.309L104.93 700.137C103.219 699.609 102.486 698.291 102.492 696.867ZM100.137 704.016C100.137 705.334 101.531 706.084 103.805 706.078C106.084 706.084 107.479 705.334 107.484 704.016C107.479 702.703 106.084 701.936 103.805 701.941C101.531 701.936 100.137 702.703 100.137 704.016ZM101.625 704.016C101.625 703.406 102.393 703.102 103.805 703.102C105.223 703.102 105.99 703.406 105.996 704.016C105.99 704.607 105.223 704.918 103.805 704.918C102.393 704.918 101.625 704.607 101.625 704.016ZM103.957 698.59H105.961V701.66H107.449V695.414H105.961V697.371H103.957V698.59ZM115.688 696.926V695.906H114.129V696.926C114.129 698.285 113.344 699.674 111.562 700.242L112.312 701.414C113.566 701.01 114.434 700.178 114.914 699.129C115.389 700.102 116.232 700.863 117.445 701.25L118.195 700.078C116.438 699.551 115.676 698.256 115.688 696.926ZM113.191 703.43H119.027V706.078H120.527V702.234H113.191V703.43ZM119.027 701.777H120.527V695.414H119.027V701.777ZM130.664 700.184H124.617V697.359H130.582V696.164H123.117V701.367H126.082V703.641H121.969V704.859H131.73V703.641H127.57V701.367H130.664V700.184ZM135.316 695.977C133.699 695.977 132.469 697.049 132.48 698.578C132.469 700.066 133.699 701.162 135.316 701.156C136.143 701.162 136.869 700.863 137.373 700.371H139.84V701.461H141.328V695.414H139.84V696.785H137.402C136.893 696.275 136.154 695.977 135.316 695.977ZM133.898 698.578C133.893 697.74 134.484 697.219 135.316 697.23C136.119 697.219 136.705 697.74 136.711 698.578C136.705 699.41 136.119 699.896 135.316 699.902C134.484 699.896 133.893 699.41 133.898 698.578ZM134.156 705.961H141.328V701.93H134.156V705.961ZM135.656 704.766V703.113H139.863V704.766H135.656ZM138.059 697.98H139.84V699.141H138.064C138.105 698.959 138.129 698.771 138.129 698.578C138.129 698.367 138.105 698.168 138.059 697.98ZM154.008 695.414H152.508V703.734H154.008V700.148H155.367V698.918H154.008V695.414ZM145.359 701.543L145.512 702.691C147.352 702.674 149.877 702.645 152.121 702.211L152.016 701.18C151.189 701.303 150.311 701.385 149.438 701.438V700.893C150.58 700.723 151.295 700.148 151.301 699.316C151.295 698.262 150.258 697.646 148.688 697.652C147.105 697.646 146.068 698.262 146.074 699.316C146.068 700.154 146.789 700.729 147.949 700.893V701.508C147.018 701.537 146.127 701.543 145.359 701.543ZM145.641 697.348H151.746V696.281H149.438V695.379H147.949V696.281H145.641V697.348ZM146.859 705.891H154.371V704.695H148.359V703.184H146.859V705.891ZM147.504 699.316C147.498 698.865 147.926 698.648 148.688 698.648C149.438 698.648 149.865 698.865 149.871 699.316C149.865 699.715 149.438 699.943 148.688 699.938C147.926 699.943 147.498 699.715 147.504 699.316ZM159.785 698.32V697.664H161.93V696.445H156.023V697.664H158.285V698.32C158.273 700.084 157.377 702.064 155.602 702.891L156.469 704.074C157.699 703.494 158.578 702.299 159.053 700.893C159.533 702.17 160.377 703.26 161.566 703.805L162.398 702.633C160.646 701.818 159.779 699.943 159.785 698.32ZM162.762 706.078H164.262V700.734H165.832V699.48H164.262V695.414H162.762V706.078ZM173.016 696.117H171.516L168.785 706.277H170.273L173.016 696.117ZM181.863 696.246V695.73H180.293V696.246C180.287 697.506 179.004 698.895 176.578 699.199L177.176 700.406C179.016 700.137 180.375 699.27 181.078 698.121C181.775 699.275 183.141 700.137 185.004 700.406L185.59 699.199C183.146 698.895 181.857 697.506 181.863 696.246ZM176.203 702.434H180.305V706.078H181.781V702.434H185.93V701.215H176.203V702.434ZM192.082 696.281H187.02V701.473H192.082V700.57H194.074V703.184H195.562V695.426H194.074V697.09H192.082V696.281ZM188.461 705.891H195.785V704.695H189.973V702.445H188.461V705.891ZM188.508 700.312V697.465H190.617V700.312H188.508ZM192.082 699.387V698.297H194.074V699.387H192.082ZM209.461 701.379H199.699V702.574H203.812V706.066H205.289V702.574H209.461V701.379ZM200.848 700.23H208.289V695.93H200.848V700.23ZM202.324 699.059V697.113H206.801V699.059H202.324ZM219.375 696.762H215.672V695.52H214.195V696.762H210.504V697.957H219.375V696.762ZM210.082 704.988H219.844V703.793H215.672V702.562C217.459 702.404 218.572 701.66 218.566 700.488C218.572 699.193 217.148 698.42 214.934 698.426C212.678 698.42 211.277 699.193 211.289 700.488C211.277 701.66 212.379 702.404 214.195 702.568V703.793H210.082V704.988ZM212.824 700.488C212.818 699.879 213.551 699.592 214.934 699.586C216.287 699.592 217.031 699.879 217.031 700.488C217.031 701.121 216.287 701.408 214.934 701.402C213.551 701.408 212.818 701.121 212.824 700.488ZM223.066 702.492H221.59V705.961H229.008V702.492H227.508V703.148H223.066V702.492ZM220.453 702.07H230.18V700.898H220.453V702.07ZM220.922 697.266H229.676V696.152H226.066V695.32H224.566V696.152H220.922V697.266ZM221.73 699C221.719 699.973 222.99 700.477 225.316 700.477C227.625 700.477 228.896 699.973 228.902 699C228.896 698.016 227.625 697.518 225.316 697.512C222.99 697.518 221.719 698.016 221.73 699ZM223.066 704.859V704.227H227.508V704.859H223.066ZM223.348 699C223.336 698.66 223.939 698.514 225.316 698.508C226.676 698.514 227.297 698.66 227.297 699C227.297 699.346 226.676 699.492 225.316 699.492C223.939 699.492 223.336 699.346 223.348 699ZM240.551 700.324H230.824V701.531H240.551V700.324ZM231.258 698.766L231.75 699.938C233.771 699.744 235.113 698.982 235.676 697.951C236.244 698.982 237.598 699.744 239.613 699.938L240.141 698.766C238.09 698.584 237 697.846 236.76 697.102H239.672V695.906H231.715V697.102H234.604C234.357 697.852 233.262 698.584 231.258 698.766ZM231.938 704.109C231.938 705.369 233.344 706.084 235.676 706.078C237.99 706.084 239.379 705.369 239.391 704.109C239.379 702.855 237.99 702.129 235.676 702.129C233.344 702.129 231.938 702.855 231.938 704.109ZM233.461 704.109C233.455 703.553 234.199 703.289 235.676 703.289C237.123 703.289 237.885 703.553 237.891 704.109C237.885 704.66 237.123 704.918 235.676 704.918C234.199 704.918 233.455 704.66 233.461 704.109ZM252.492 695.414H250.992V703.734H252.492V700.148H253.852V698.918H252.492V695.414ZM243.844 701.543L243.996 702.691C245.836 702.674 248.361 702.645 250.605 702.211L250.5 701.18C249.674 701.303 248.795 701.385 247.922 701.438V700.893C249.064 700.723 249.779 700.148 249.785 699.316C249.779 698.262 248.742 697.646 247.172 697.652C245.59 697.646 244.553 698.262 244.559 699.316C244.553 700.154 245.273 700.729 246.434 700.893V701.508C245.502 701.537 244.611 701.543 243.844 701.543ZM244.125 697.348H250.23V696.281H247.922V695.379H246.434V696.281H244.125V697.348ZM245.344 705.891H252.855V704.695H246.844V703.184H245.344V705.891ZM245.988 699.316C245.982 698.865 246.41 698.648 247.172 698.648C247.922 698.648 248.35 698.865 248.355 699.316C248.35 699.715 247.922 699.943 247.172 699.938C246.41 699.943 245.982 699.715 245.988 699.316ZM258.27 698.32V697.664H260.414V696.445H254.508V697.664H256.77V698.32C256.758 700.084 255.861 702.064 254.086 702.891L254.953 704.074C256.184 703.494 257.062 702.299 257.537 700.893C258.018 702.17 258.861 703.26 260.051 703.805L260.883 702.633C259.131 701.818 258.264 699.943 258.27 698.32ZM261.246 706.078H262.746V700.734H264.316V699.48H262.746V695.414H261.246V706.078ZM271.5 696.117H270L267.27 706.277H268.758L271.5 696.117ZM283.617 695.426H282.117V701.449H283.617V695.426ZM274.852 698.484C274.852 699.949 276.105 701.027 277.77 701.027C279.428 701.027 280.682 699.949 280.688 698.484C280.682 696.961 279.428 695.906 277.77 695.906C276.105 695.906 274.852 696.961 274.852 698.484ZM276.316 698.484C276.305 697.646 276.914 697.16 277.77 697.16C278.602 697.16 279.205 697.646 279.211 698.484C279.205 699.275 278.602 699.773 277.77 699.773C276.914 699.773 276.305 699.275 276.316 698.484ZM276.469 705.961H283.617V701.93H276.469V705.961ZM277.945 704.766V703.113H282.152V704.766H277.945ZM288.996 697.242V696.07H287.496V697.23C287.484 698.684 286.705 700.113 284.883 700.676L285.715 701.859C286.945 701.438 287.795 700.6 288.27 699.533C288.732 700.506 289.541 701.268 290.707 701.66L291.492 700.488C289.764 699.932 288.99 698.607 288.996 697.242ZM286.594 705.891H293.918V704.695H288.117V702.457H286.594V705.891ZM292.02 703.23H293.52V699.762H294.961V698.496H293.52V695.414H292.02V703.23ZM305.18 701.566H295.418V702.738H299.531V706.078H301.008V702.738H305.18V701.566ZM296.566 700.535H304.02V695.824H302.52V697.055H298.043V695.824H296.566V700.535ZM298.043 699.34V698.227H302.52V699.34H298.043ZM315.047 695.414H313.617V706.078H315.047V695.414ZM305.895 700.031C305.895 702.428 306.803 703.91 308.215 703.91C309.527 703.91 310.424 702.639 310.553 700.547H311.414V705.586H312.82V695.566H311.414V699.363H310.541C310.377 697.371 309.498 696.17 308.215 696.176C306.803 696.17 305.895 697.646 305.895 700.031ZM307.277 700.031C307.266 698.396 307.617 697.582 308.215 697.582C308.83 697.582 309.193 698.396 309.188 700.031C309.193 701.672 308.83 702.48 308.215 702.469C307.617 702.48 307.266 701.672 307.277 700.031ZM325.418 695.414H324.012V706.078H325.418V695.414ZM316.043 702.809L316.887 703.863C318.404 702.984 319.395 701.93 320.004 700.711H321.75V705.609H323.145V695.648H321.75V699.527H320.467C320.725 698.648 320.836 697.699 320.836 696.68H316.629V697.887H319.354C319.148 699.979 318.199 701.531 316.043 702.809ZM335.203 698.32H329.238V695.789H327.75V699.492H335.203V698.32ZM326.531 701.812H336.293V700.641H326.531V701.812ZM327.656 705.844H335.273V704.648H329.156V702.68H327.656V705.844ZM124.682 712.766C123.094 712.771 121.934 713.662 121.939 714.98C121.934 716.088 122.742 716.92 123.932 717.166V717.951C123 717.969 122.098 717.975 121.283 717.969L121.482 719.164C123.434 719.17 125.865 719.111 128.127 718.766L128.021 717.688C127.189 717.787 126.311 717.857 125.42 717.898V717.166C126.615 716.92 127.418 716.088 127.424 714.98C127.418 713.662 126.27 712.771 124.682 712.766ZM122.912 722.891H130.471V721.695H124.412V719.809H122.912V722.891ZM123.346 714.98C123.34 714.33 123.885 713.926 124.682 713.926C125.455 713.926 125.994 714.33 126.006 714.98C125.994 715.666 125.455 716.07 124.682 716.07C123.885 716.07 123.34 715.666 123.346 714.98ZM128.678 720.441H130.201V712.402H128.678V720.441ZM139.283 713.984H140.666V712.777H136.682V713.984H137.76C137.748 714.518 137.309 715.092 136.465 715.426C135.609 715.092 135.158 714.506 135.146 713.984H136.248V712.777H132.252V713.984H133.67C133.664 714.652 133.049 715.414 131.795 715.707L132.416 716.785C133.447 716.539 134.109 715.977 134.461 715.291C134.83 715.9 135.48 716.41 136.471 716.645C137.467 716.422 138.105 715.906 138.463 715.291C138.82 715.982 139.494 716.539 140.525 716.785L141.158 715.707C139.875 715.42 139.271 714.682 139.283 713.984ZM131.607 718.707H141.334V717.523H137.209V716.656H135.721V717.523H131.607V718.707ZM132.662 720.758H138.674V723.078H140.174V719.562H132.662V720.758ZM146.842 712.953C144.586 712.959 142.834 714.178 142.834 716.023C142.834 717.887 144.586 719.1 146.842 719.094C149.092 719.1 150.855 717.887 150.861 716.023C150.855 714.178 149.092 712.959 146.842 712.953ZM141.979 721.777H151.74V720.57H141.979V721.777ZM144.287 716.023C144.281 714.881 145.359 714.16 146.842 714.172C148.312 714.16 149.379 714.881 149.385 716.023C149.379 717.184 148.312 717.875 146.842 717.875C145.359 717.875 144.281 717.184 144.287 716.023ZM162.111 720.664H157.951V719.059H161.232V717.84H154.975V716.645H160.986V713.105H153.463V714.301H159.51V715.473H153.475V719.059H156.463V720.664H152.35V721.895H162.111V720.664ZM168.205 718.766H166.74V722.961H174.006V718.766H172.529V719.762H168.205V718.766ZM165.486 718.051H169.6V719.316H171.088V718.051H175.236V716.855H165.486V718.051ZM166.717 716.094H174.135V714.898H168.205V712.531H166.717V716.094ZM168.205 721.754V720.91H172.529V721.754H168.205ZM185.104 712.414H183.697V723.078H185.104V712.414ZM175.729 719.809L176.572 720.863C178.09 719.984 179.08 718.93 179.689 717.711H181.436V722.609H182.83V712.648H181.436V716.527H180.152C180.41 715.648 180.521 714.699 180.521 713.68H176.314V714.887H179.039C178.834 716.979 177.885 718.531 175.729 719.809ZM195.346 716.75H191.232V714.547H195.287V713.363H189.744V717.945H191.771V719.744C190.816 719.768 189.891 719.768 189.041 719.762L189.217 720.98C191.221 720.98 193.646 720.963 195.979 720.605L195.861 719.516C195.029 719.604 194.15 719.662 193.271 719.697V717.945H195.346V716.75ZM196.471 723.102H197.959V712.414H196.471V723.102ZM204.873 713.281H199.811V718.473H204.873V717.57H206.865V720.184H208.354V712.426H206.865V714.09H204.873V713.281ZM201.252 722.891H208.576V721.695H202.764V719.445H201.252V722.891ZM201.299 717.312V714.465H203.408V717.312H201.299ZM204.873 716.387V715.297H206.865V716.387H204.873ZM221.795 713.773H218.092V712.531H216.615V713.773H212.924V714.969H221.795V713.773ZM212.502 722.012H222.264V720.816H219.861V719.059C220.582 718.707 220.992 718.168 220.986 717.465C220.992 716.164 219.592 715.402 217.354 715.402C215.098 715.402 213.697 716.164 213.709 717.465C213.703 718.168 214.107 718.707 214.834 719.059V720.816H212.502V722.012ZM215.244 717.465C215.238 716.855 215.971 716.551 217.354 716.551C218.707 716.551 219.451 716.855 219.451 717.465C219.451 718.062 218.707 718.361 217.354 718.355C215.971 718.361 215.238 718.062 215.244 717.465ZM216.334 720.816V719.457C216.65 719.498 216.99 719.516 217.354 719.516C217.723 719.516 218.062 719.498 218.385 719.457V720.816H216.334ZM228.873 713.48H223.342V714.676H227.385C227.373 715.619 227.35 716.762 227.104 718.309L228.58 718.426C228.861 716.65 228.861 715.338 228.873 714.336V713.48ZM222.779 719.703L222.92 720.898C224.789 720.91 227.203 720.869 229.4 720.5L229.307 719.387C228.322 719.516 227.262 719.592 226.213 719.633V716.539H224.736V719.68C224.045 719.697 223.377 719.703 222.779 719.703ZM229.811 723.078H231.322V717.945H232.775V716.703H231.322V712.414H229.811V723.078ZM242.994 717.195H233.232V718.309H242.994V717.195ZM234.346 719.867H240.346V720.406H234.357V722.984H242.139V721.965H235.846V721.355H241.822V718.836H234.346V719.867ZM234.428 713.621H240.311V714.16H234.451V716.691H241.998V715.684H235.939V715.109H241.811V712.602H234.428V713.621ZM249.1 712.578H247.623V716.152H250.482V716.844H246.381V718.016H256.107V716.844H251.959V716.152H254.865V712.578H253.377V713.316H249.1V712.578ZM247.506 719.668H253.447V720.242H247.518V723.008H255.205V721.883H248.982V721.273H254.924V718.578H247.506V719.668ZM249.1 715.039V714.395H253.377V715.039H249.1ZM265.178 713.246V712.73H263.607V713.246C263.602 714.506 262.318 715.895 259.893 716.199L260.49 717.406C262.33 717.137 263.689 716.27 264.393 715.121C265.09 716.275 266.455 717.137 268.318 717.406L268.904 716.199C266.461 715.895 265.172 714.506 265.178 713.246ZM259.518 719.434H263.619V723.078H265.096V719.434H269.244V718.215H259.518V719.434ZM276.533 719.258V718.895H275.08V719.258C275.074 720.295 274.477 721.355 273.076 721.836L273.814 722.926C274.787 722.58 275.443 721.936 275.824 721.145C276.17 721.965 276.797 722.656 277.799 723.02C278.754 722.645 279.375 721.93 279.727 721.104C280.096 721.93 280.764 722.58 281.783 722.926L282.51 721.836C281.086 721.396 280.494 720.371 280.506 719.258V718.895H279.029V719.258C279.029 720.049 278.643 720.963 277.758 721.59C276.896 721.004 276.533 720.113 276.533 719.258ZM272.818 715.531C272.818 717.014 274.072 718.08 275.736 718.074C277.395 718.08 278.648 717.014 278.654 715.531C278.648 714.02 277.395 712.965 275.736 712.965C274.072 712.965 272.818 714.02 272.818 715.531ZM274.283 715.531C274.271 714.705 274.881 714.219 275.736 714.219C276.568 714.219 277.172 714.705 277.178 715.531C277.172 716.334 276.568 716.838 275.736 716.832C274.881 716.838 274.271 716.334 274.283 715.531ZM280.084 718.449H281.584V712.426H280.084V718.449ZM291.439 712.414H289.939V723.102H291.439V717.594H293.01V716.375H291.439V712.414ZM283.447 720.512H284.35C286.23 720.518 287.684 720.477 289.342 720.195L289.178 718.941C287.76 719.188 286.482 719.27 284.936 719.281V714.605H288.451V713.398H283.447V720.512Z" fill="#6662A8"/>
</g>
<defs>
<clipPath id="clip0_639_13870">
<rect width="414" height="896" fill="white"/>
</clipPath>
</defs>
</svg>
