<svg width="414" height="896" viewBox="0 0 414 896" fill="none" xmlns="http://www.w3.org/2000/svg">
<rect width="414" height="896" fill="white"/>
<path d="M131.78 91.4609V88.0078H128.505V91.4609C128.479 95.8027 126.677 100.259 122.716 102.049L124.747 104.689C127.388 103.395 129.165 100.906 130.155 97.8721C131.12 100.729 132.847 103.039 135.411 104.283L137.392 101.693C133.545 100.03 131.793 95.8027 131.78 91.4609ZM134.802 96.1074H139.347V109.387H142.546V86.2305H139.347V93.4922H134.802V96.1074ZM153.921 101.059V100.271H150.772V101.059C150.76 103.306 149.465 105.604 146.431 106.645L148.03 109.006C150.138 108.257 151.56 106.86 152.385 105.146C153.134 106.924 154.492 108.422 156.663 109.209C158.732 108.396 160.078 106.848 160.84 105.058C161.64 106.848 163.087 108.257 165.296 109.006L166.87 106.645C163.785 105.692 162.503 103.471 162.528 101.059V100.271H159.329V101.059C159.329 102.772 158.491 104.753 156.574 106.111C154.708 104.842 153.921 102.912 153.921 101.059ZM145.872 92.9844C145.872 96.1963 148.589 98.5068 152.194 98.4941C155.787 98.5068 158.504 96.1963 158.517 92.9844C158.504 89.709 155.787 87.4238 152.194 87.4238C148.589 87.4238 145.872 89.709 145.872 92.9844ZM149.046 92.9844C149.021 91.1943 150.341 90.1406 152.194 90.1406C153.997 90.1406 155.305 91.1943 155.317 92.9844C155.305 94.7236 153.997 95.8154 152.194 95.8027C150.341 95.8154 149.021 94.7236 149.046 92.9844ZM161.614 99.3066H164.864V86.2559H161.614V99.3066ZM186.751 92.5273H173.827V87.043H170.603V95.0664H186.751V92.5273ZM167.962 100.094H189.112V97.5547H167.962V100.094ZM170.399 108.828H186.903V106.238H173.649V101.973H170.399V108.828ZM204.981 92.5273V91.1055H209.628V88.4648H196.831V91.1055H201.731V92.5273C201.706 96.3486 199.764 100.64 195.917 102.43L197.796 104.994C200.462 103.737 202.366 101.147 203.395 98.1006C204.436 100.868 206.264 103.229 208.841 104.41L210.644 101.871C206.848 100.106 204.969 96.0439 204.981 92.5273ZM211.431 109.336H214.681V97.7578H218.083V95.041H214.681V86.2305H211.431V109.336ZM226.335 92.0449V88.2109H223.187V92.1973C223.187 96.1074 221.917 100.183 218.489 102.303L220.47 104.689C222.564 103.42 223.948 101.224 224.773 98.6084C225.51 100.97 226.767 102.976 228.772 104.182L230.524 101.668C227.363 99.6494 226.322 95.79 226.335 92.0449ZM228.087 96.666H231.083V108.27H234.104V86.5605H231.083V94.0254H228.087V96.666ZM235.856 109.336H238.954V86.2305H235.856V109.336ZM266.554 88.2363H249.466V90.8008H263.304C263.291 93.4795 263.266 96.6152 262.517 100.855L265.69 101.135C266.541 96.4756 266.541 93.3145 266.554 90.4961V88.2363ZM247.384 106.518H268.458V103.877H260.841V96.6152H257.642V103.877H255.103V96.6152H251.878V103.877H247.384V106.518ZM289.329 86.2305H286.104V91.8672H282.499V94.4824H286.104V99.9414H289.329V86.2305ZM269.702 97.4023L271.378 99.9668C274.12 99.0273 275.974 97.1357 276.989 94.7871C277.992 96.8564 279.757 98.5322 282.296 99.3574L283.896 96.8184C280.303 95.625 278.652 92.9082 278.589 90.2168H283.185V87.627H270.642V90.2168H275.288C275.212 93.1113 273.485 96.1328 269.702 97.4023ZM273.485 104.918C273.485 107.724 276.507 109.361 281.433 109.361C286.371 109.361 289.393 107.724 289.405 104.918C289.393 102.112 286.371 100.462 281.433 100.449C276.507 100.462 273.485 102.112 273.485 104.918ZM276.71 104.918C276.71 103.585 278.373 102.925 281.433 102.938C284.505 102.925 286.168 103.585 286.181 104.918C286.168 106.238 284.505 106.898 281.433 106.898C278.373 106.898 276.71 106.238 276.71 104.918Z" fill="#8666FF"/>
<path d="M308.961 800.043H306.461V812.113H308.961V807.172H311.227V805.121H308.961V800.043ZM294.547 809.828L294.801 811.762C297.936 811.762 302.057 811.723 305.816 811.059L305.641 809.34C304.273 809.516 302.809 809.623 301.344 809.701V808.783C303.248 808.51 304.439 807.572 304.449 806.215C304.439 804.564 302.711 803.549 300.094 803.559C297.457 803.549 295.729 804.564 295.738 806.215C295.729 807.572 296.93 808.52 298.863 808.793V809.789C297.32 809.828 295.846 809.828 294.547 809.828ZM295.016 803.148H305.191V801.332H301.344V799.887H298.863V801.332H295.016V803.148ZM296.812 814.75H306.461V817.797H308.961V812.836H296.812V814.75ZM298.121 806.215C298.111 805.521 298.824 805.219 300.094 805.219C301.344 805.219 302.057 805.521 302.066 806.215C302.057 806.859 301.344 807.24 300.094 807.23C298.824 807.24 298.111 806.859 298.121 806.215ZM326.91 800.043H324.41V812.816H326.91V800.043ZM312.301 805.648C312.301 808.295 314.43 810.16 317.164 810.16C319.889 810.16 322.018 808.295 322.027 805.648C322.018 803.041 319.889 801.166 317.164 801.176C314.43 801.166 312.301 803.041 312.301 805.648ZM314.742 805.648C314.723 804.203 315.768 803.334 317.164 803.344C318.512 803.334 319.557 804.203 319.566 805.648C319.557 807.133 318.512 807.992 317.164 807.992C315.768 807.992 314.723 807.133 314.742 805.648ZM314.996 817.484H327.379V815.492H317.516V811.527H314.996V817.484Z" fill="white"/>
<path d="M317.15 647.64C317.15 647.64 287.09 666.7 286.93 669.55C286.77 672.4 352.44 671.34 352.93 669.55C353.42 667.76 351.62 648.35 351.62 648.35" fill="#F6C4DE"/>
<path d="M339.52 259.88L319.52 256.45L320.63 233.02L337.93 233.84C336.202 237.459 335.319 241.424 335.348 245.435C335.378 249.445 336.319 253.396 338.1 256.99L339.52 259.88Z" fill="#F6C4DE"/>
<path d="M362.72 487.1L364.72 497.1L264 496.64L279.68 335.26C281.164 319.346 284.752 303.7 290.35 288.73C296.88 271.46 306.79 253.84 322.54 249.64C325.512 248.821 328.589 248.451 331.67 248.54C347.49 249.29 350.6 266.46 353.56 282.59L351.92 367.44C351.131 407.602 354.753 447.728 362.72 487.1Z" fill="#8C81F7"/>
<path d="M323.701 201.89C310.861 202.1 300.611 212.27 300.811 224.61C300.811 225.09 300.861 225.56 300.891 226.03L297.781 226.08L301.191 228.75C302.921 239.11 306.641 247.01 317.901 245.46C334.901 243.14 344.091 229.58 343.901 217.24C343.711 204.9 336.531 201.69 323.701 201.89Z" fill="#F6C4DE"/>
<path d="M306.15 223.13C306.973 223.13 307.64 222.463 307.64 221.64C307.64 220.817 306.973 220.15 306.15 220.15C305.327 220.15 304.66 220.817 304.66 221.64C304.66 222.463 305.327 223.13 306.15 223.13Z" fill="#624EC5"/>
<path d="M303.59 225.99C303.517 226.112 303.41 226.211 303.282 226.275C303.155 226.339 303.012 226.365 302.87 226.35C301.477 226.182 300.073 226.112 298.67 226.14C299.568 226.848 300.514 227.493 301.5 228.07C301.592 228.115 301.674 228.178 301.74 228.256C301.807 228.334 301.857 228.424 301.886 228.522C301.916 228.62 301.925 228.723 301.912 228.825C301.9 228.927 301.867 229.024 301.815 229.113C301.763 229.201 301.693 229.277 301.61 229.337C301.527 229.397 301.432 229.439 301.332 229.46C301.232 229.481 301.129 229.482 301.029 229.461C300.928 229.44 300.834 229.399 300.75 229.34C296.75 226.98 296.75 226.14 296.75 225.82C296.748 225.663 296.784 225.508 296.853 225.367C296.923 225.227 297.024 225.104 297.15 225.01C297.96 224.45 300.82 224.63 303.08 224.88C303.176 224.89 303.269 224.919 303.354 224.965C303.439 225.011 303.514 225.074 303.574 225.149C303.635 225.225 303.68 225.311 303.706 225.404C303.733 225.497 303.741 225.594 303.73 225.69C303.711 225.801 303.663 225.904 303.59 225.99Z" fill="#B7577E"/>
<path d="M300.789 221.19C300.789 221.19 300.789 196.53 327.169 195.06C349.169 193.82 356.289 212.7 356.949 215.26C364.399 244.31 353.229 263.85 370.629 281.2C375.929 286.5 368.349 301.45 355.139 299.51C341.929 297.57 339.389 251.04 337.539 233.38C335.059 209.69 313.649 206.25 309.099 208.74C300.739 213.32 300.849 224.74 300.829 223.43L300.789 221.19Z" fill="#806CF6"/>
<path d="M330.516 221.948L338.465 221.822C339.411 221.807 340.325 222.169 341.005 222.827C341.685 223.486 342.076 224.388 342.091 225.335C342.106 226.282 341.744 227.195 341.085 227.875C340.427 228.556 339.525 228.946 338.578 228.961L330.629 229.087L330.516 221.948Z" fill="#F6C4DE"/>
<path d="M335.722 230.27C335.526 230.286 335.331 230.223 335.181 230.096C335.031 229.968 334.938 229.786 334.922 229.59C334.906 229.394 334.969 229.199 335.096 229.049C335.224 228.899 335.406 228.806 335.602 228.79L339.142 228.23C339.883 228.111 340.547 227.702 340.986 227.093C341.426 226.485 341.606 225.726 341.487 224.985C341.368 224.244 340.959 223.58 340.35 223.141C339.741 222.701 338.983 222.521 338.242 222.64L334.702 223.2C334.509 223.227 334.313 223.178 334.155 223.065C333.997 222.951 333.888 222.781 333.852 222.59C333.823 222.395 333.872 222.197 333.988 222.038C334.104 221.879 334.278 221.772 334.472 221.74L338.012 221.17C339.142 220.99 340.297 221.266 341.223 221.937C342.15 222.608 342.771 223.62 342.952 224.75C343.132 225.88 342.856 227.035 342.185 227.962C341.514 228.888 340.502 229.51 339.372 229.69L335.832 230.26L335.722 230.27Z" fill="#624EC5"/>
<path d="M303.199 236.64C303.013 236.103 302.799 235.575 302.559 235.06C303.439 235.21 307.669 235.81 309.559 233.56C309.686 233.407 309.87 233.31 310.069 233.29C310.164 233.281 310.26 233.292 310.351 233.321C310.442 233.35 310.526 233.398 310.599 233.46C310.742 233.581 310.833 233.752 310.853 233.938C310.874 234.124 310.822 234.311 310.709 234.46C308.039 237.64 303.449 236.64 303.199 236.64Z" fill="#624EC5"/>
<path d="M351.619 648.35L317.149 647.64L303.589 590.12L275.219 496.3L364.749 497.14C364.029 511.93 361.309 525.14 351.749 533.8L351.589 587.01L351.619 648.35Z" fill="#E1E1E1"/>
<path d="M337.051 354.64L313.921 494.84L311.661 510.18C311.54 511.01 311.095 511.758 310.422 512.26C309.75 512.761 308.906 512.976 308.076 512.855C307.246 512.734 306.498 512.289 305.996 511.616C305.494 510.944 305.28 510.1 305.401 509.27L305.051 496.64L302.881 511.41C302.821 511.821 302.68 512.216 302.467 512.573C302.254 512.929 301.972 513.24 301.639 513.488C301.306 513.736 300.927 513.916 300.524 514.018C300.121 514.119 299.702 514.14 299.291 514.08C298.88 514.019 298.485 513.879 298.128 513.666C297.772 513.452 297.46 513.171 297.212 512.838C296.965 512.504 296.785 512.126 296.683 511.723C296.582 511.32 296.561 510.901 296.621 510.49L296.501 495.94L293.371 512.49C293.325 512.912 293.194 513.32 292.987 513.691C292.78 514.061 292.5 514.386 292.164 514.646C291.828 514.906 291.444 515.096 291.033 515.204C290.623 515.312 290.194 515.336 289.774 515.274C289.354 515.213 288.951 515.068 288.588 514.848C288.225 514.627 287.91 514.336 287.663 513.991C287.415 513.646 287.24 513.255 287.146 512.84C287.053 512.426 287.045 511.997 287.121 511.58L288.201 495.26L284.521 509.15C284.399 509.98 283.952 510.728 283.279 511.228C282.606 511.729 281.761 511.942 280.931 511.82C280.101 511.698 279.353 511.251 278.852 510.578C278.352 509.905 278.139 509.06 278.261 508.23L280.471 494.47L282.741 477.47L276.971 478.47C276.076 478.694 275.13 478.591 274.303 478.181C273.477 477.77 272.823 477.079 272.461 476.23C272.313 475.843 272.243 475.43 272.255 475.015C272.267 474.601 272.361 474.193 272.531 473.815C272.701 473.437 272.944 473.096 273.246 472.812C273.548 472.528 273.903 472.306 274.291 472.16L283.941 468.49L300.011 348.3" fill="#F6C4DE"/>
<path d="M347.788 379.33L294.078 380.52L304.688 278.94C305.045 275.524 306.635 272.356 309.161 270.029C311.687 267.702 314.975 266.376 318.408 266.3C325.508 266.15 331.408 278.61 332.468 285.64L347.788 379.33Z" fill="#8C81F7"/>
<path d="M346.921 379.64C347.111 379.63 347.29 379.545 347.419 379.405C347.548 379.265 347.617 379.08 347.611 378.89C347.606 378.693 347.523 378.506 347.381 378.369C347.239 378.232 347.048 378.157 346.851 378.16L293.981 379.34L298.611 335.1C298.622 335.003 298.614 334.905 298.587 334.812C298.559 334.718 298.513 334.631 298.452 334.556C298.39 334.48 298.314 334.418 298.228 334.372C298.142 334.327 298.048 334.299 297.951 334.29C297.854 334.279 297.755 334.287 297.661 334.314C297.567 334.342 297.48 334.387 297.403 334.449C297.327 334.51 297.264 334.586 297.217 334.672C297.17 334.758 297.141 334.852 297.131 334.95L292.421 380.02C292.411 380.125 292.424 380.231 292.458 380.331C292.492 380.431 292.546 380.522 292.618 380.6C292.69 380.677 292.777 380.739 292.874 380.78C292.971 380.821 293.076 380.842 293.181 380.84L346.891 379.64H346.921Z" fill="#1D1D1B"/>
<path d="M335.941 391.994V395.033" stroke="#FFF6A0" stroke-width="2" stroke-miterlimit="10"/>
<path d="M335.941 215.989V658.843" stroke="#FFF6A0" stroke-width="2" stroke-miterlimit="10" stroke-dasharray="6.13 6.13"/>
<path d="M335.941 661.943V664.983" stroke="#FFF6A0" stroke-width="2" stroke-miterlimit="10"/>
<path d="M335.939 669.988C338.703 669.988 340.944 667.747 340.944 664.983C340.944 662.218 338.703 659.977 335.939 659.977C333.175 659.977 330.934 662.218 330.934 664.983C330.934 667.747 333.175 669.988 335.939 669.988Z" fill="#FFF6A0"/>
<path d="M335.939 275.999C338.703 275.999 340.944 273.758 340.944 270.994C340.944 268.229 338.703 265.988 335.939 265.988C333.175 265.988 330.934 268.229 330.934 270.994C330.934 273.758 333.175 275.999 335.939 275.999Z" fill="#FFF6A0"/>
<path d="M335.939 510.999C338.703 510.999 340.944 508.758 340.944 505.994C340.944 503.229 338.703 500.988 335.939 500.988C333.175 500.988 330.934 503.229 330.934 505.994C330.934 508.758 333.175 510.999 335.939 510.999Z" fill="#FFF6A0"/>
<path d="M335.939 420.999C338.703 420.999 340.944 418.758 340.944 415.994C340.944 413.229 338.703 410.988 335.939 410.988C333.175 410.988 330.934 413.229 330.934 415.994C330.934 418.758 333.175 420.999 335.939 420.999Z" fill="#FFF6A0"/>
<path d="M335.939 220.999C338.703 220.999 340.944 218.758 340.944 215.994C340.944 213.229 338.703 210.988 335.939 210.988C333.175 210.988 330.934 213.229 330.934 215.994C330.934 218.758 333.175 220.999 335.939 220.999Z" fill="#FFF6A0"/>
<path d="M326.167 276C326.167 274.527 324.973 273.333 323.5 273.333C322.027 273.333 320.833 274.527 320.833 276C320.833 277.473 322.027 278.667 323.5 278.667C324.973 278.667 326.167 277.473 326.167 276ZM35 276.5L323.5 276.5V275.5L35 275.5V276.5Z" fill="#6662A8"/>
<path d="M333.667 202C333.667 200.527 332.473 199.333 331 199.333C329.527 199.333 328.333 200.527 328.333 202C328.333 203.473 329.527 204.667 331 204.667C332.473 204.667 333.667 203.473 333.667 202ZM35 202.5L331 202.5V201.5L35 201.5V202.5Z" fill="#6662A8"/>
<path d="M280.667 426C280.667 424.527 279.473 423.333 278 423.333C276.527 423.333 275.333 424.527 275.333 426C275.333 427.473 276.527 428.667 278 428.667C279.473 428.667 280.667 427.473 280.667 426ZM35 426.5L278 426.5V425.5L35 425.5V426.5Z" fill="#6662A8"/>
<path d="M325.667 665C325.667 663.527 324.473 662.333 323 662.333C321.527 662.333 320.333 663.527 320.333 665C320.333 666.473 321.527 667.667 323 667.667C324.473 667.667 325.667 666.473 325.667 665ZM35 665.5H323V664.5H35V665.5Z" fill="#6662A8"/>
<path d="M44.7773 258.414H43.2773V263.688H44.7773V261.637H46.2188V260.406H44.7773V258.414ZM36.75 263.383H37.6641C39.1699 263.389 40.8047 263.301 42.5625 262.949L42.3867 261.73C40.916 262.012 39.5273 262.129 38.25 262.146V258.883H36.75V263.383ZM37.6992 265.293H43.2656V265.938H37.7227V268.961H45.082V267.766H39.2109V267.062H44.7773V264.121H37.6992V265.293ZM55.8867 258.414H54.4453V262.457H53.4727V258.695H52.0781V268.609H53.4727V263.652H54.4453V269.078H55.8867V258.414ZM46.5586 265.855L47.4258 266.887C50.4316 265.141 51.3223 262.703 51.3281 259.727H47.0977V260.922H49.8691C49.6699 263.014 48.7324 264.578 46.5586 265.855ZM58.4297 259.375H57.2227V266.594H60.3984V259.375H59.1797V261.848H58.4297V259.375ZM58.4297 265.387V263.008H59.1797V265.387H58.4297ZM60.8906 266.594H64.0664V264.895H64.9102V269.078H66.3398V258.414H64.9102V260.945H64.0664V259.375H62.8711V261.848H62.0977V259.375H60.8906V266.594ZM62.0977 265.387V263.008H62.8711V265.387H62.0977ZM64.0664 263.688V262.164H64.9102V263.688H64.0664ZM77.1797 263.195H67.418V264.309H77.1797V263.195ZM68.5312 265.867H74.5312V266.406H68.543V268.984H76.3242V267.965H70.0312V267.355H76.0078V264.836H68.5312V265.867ZM68.6133 259.621H74.4961V260.16H68.6367V262.691H76.1836V261.684H70.125V261.109H75.9961V258.602H68.6133V259.621ZM88.9805 258.414H87.4805V269.055H88.9805V263.734H90.4922V262.504H88.9805V258.414ZM80.4492 266.066L81.293 267.215C84.8789 265.451 86.1211 262.691 86.1328 259.504H81.0586V260.723H84.6152C84.334 263.102 82.9746 264.801 80.4492 266.066ZM100.688 263.605H90.9258V264.801H95.1328V266.652H96.6445V264.801H100.688V263.605ZM91.9336 260.828C91.9336 262.188 93.4805 263.031 95.8008 263.031C98.1094 263.031 99.6504 262.188 99.6562 260.828C99.6504 259.475 98.1094 258.625 95.8008 258.613C93.4805 258.625 91.9336 259.475 91.9336 260.828ZM92.0859 268.891H99.6094V267.684H93.5977V265.703H92.0859V268.891ZM93.5508 260.828C93.5449 260.148 94.4238 259.797 95.8008 259.797C97.1777 259.797 98.0508 260.148 98.0508 260.828C98.0508 261.479 97.1777 261.83 95.8008 261.836C94.4238 261.83 93.5449 261.479 93.5508 260.828ZM110.555 258.414H109.113V269.078H110.555V258.414ZM101.637 266.699H102.375C103.939 266.699 105.012 266.646 106.219 266.406L106.102 265.188C105.105 265.387 104.238 265.451 103.102 265.463V260.816H105.715V259.621H101.637V266.699ZM104.988 263.523H106.898V268.598H108.293V258.602H106.898V262.305H104.988V263.523ZM121.441 266.664H117.281V265.059H120.562V263.84H114.305V262.645H120.316V259.105H112.793V260.301H118.84V261.473H112.805V265.059H115.793V266.664H111.68V267.895H121.441V266.664ZM134.578 266.605H130.418V264.426H133.488V259.199H125.848V264.426H128.93V266.605H124.816V267.836H134.578V266.605ZM127.324 263.254V260.395H132.012V263.254H127.324ZM138.059 259.164C136.424 259.164 135.24 260.635 135.246 262.961C135.24 265.305 136.424 266.77 138.059 266.77C139.688 266.77 140.865 265.305 140.871 262.961C140.865 260.635 139.688 259.164 138.059 259.164ZM136.688 262.961C136.688 261.379 137.244 260.512 138.059 260.512C138.891 260.512 139.436 261.379 139.441 262.961C139.436 264.549 138.891 265.416 138.059 265.41C137.244 265.416 136.688 264.549 136.688 262.961ZM142.102 269.078H143.602V263.676H145.172V262.434H143.602V258.414H142.102V269.078ZM155.285 264.297H145.559V265.492H149.66V269.078H151.137V265.492H155.285V264.297ZM146.039 262.504L146.59 263.676C148.447 263.424 149.777 262.627 150.428 261.531C151.072 262.627 152.414 263.424 154.289 263.676L154.828 262.504C152.637 262.24 151.459 261.197 151.307 260.148H154.418V258.977H146.438V260.148H149.549C149.391 261.197 148.195 262.24 146.039 262.504ZM164.59 261.32H158.625V258.789H157.137V262.492H164.59V261.32ZM155.918 264.812H165.68V263.641H155.918V264.812ZM157.043 268.844H164.66V267.648H158.543V265.68H157.043V268.844ZM177.762 263.125H171.656V259.34H170.156V264.344H177.762V263.125ZM169.066 267.812H178.828V266.57H169.066V267.812ZM182.73 259.035H179.859V260.23H181.301C181.143 261.555 180.609 262.363 179.426 263.184L180.398 264.121C182.191 262.797 182.725 261.297 182.73 259.035ZM181.148 268.961H188.355V264.93H181.148V268.961ZM182.543 263.617L183.598 264.438C185.32 262.996 185.789 261.355 185.801 259.035H183.105V260.23H184.377C184.236 261.678 183.727 262.645 182.543 263.617ZM182.613 267.766V266.113H186.891V267.766H182.613ZM186.844 264.484H188.355V258.426H186.844V264.484ZM194.672 258.953C192.416 258.959 190.664 260.178 190.664 262.023C190.664 263.887 192.416 265.1 194.672 265.094C196.922 265.1 198.686 263.887 198.691 262.023C198.686 260.178 196.922 258.959 194.672 258.953ZM189.809 267.777H199.57V266.57H189.809V267.777ZM192.117 262.023C192.111 260.881 193.189 260.16 194.672 260.172C196.143 260.16 197.209 260.881 197.215 262.023C197.209 263.184 196.143 263.875 194.672 263.875C193.189 263.875 192.111 263.184 192.117 262.023ZM209.941 266.664H205.781V265.059H209.062V263.84H202.805V262.645H208.816V259.105H201.293V260.301H207.34V261.473H201.305V265.059H204.293V266.664H200.18V267.895H209.941V266.664ZM216.258 259.164C214.641 259.164 213.48 260.635 213.492 262.961C213.48 265.305 214.641 266.77 216.258 266.77C217.746 266.77 218.848 265.516 219.006 263.465H220.84V269.102H222.316V258.414H220.84V262.27H218.988C218.777 260.348 217.699 259.164 216.258 259.164ZM214.922 262.961C214.916 261.379 215.461 260.512 216.258 260.512C217.061 260.512 217.594 261.379 217.594 262.961C217.594 264.549 217.061 265.416 216.258 265.41C215.461 265.416 214.916 264.549 214.922 262.961ZM233.156 258.402H231.715V262.469H230.883V258.59H229.488V268.609H230.883V263.676H231.715V269.066H233.156V258.402ZM223.512 265.914L224.684 266.582C226.043 264.549 226.33 262.264 226.336 259.656H223.898V260.852H225.059C224.971 262.832 224.596 264.355 223.512 265.914ZM226.02 266.57L227.203 267.203C228.633 264.994 228.861 262.363 228.867 259.656H226.652V260.852H227.561C227.502 262.996 227.203 264.812 226.02 266.57ZM243.809 263.195H234.047V264.309H243.809V263.195ZM235.16 265.867H241.16V266.406H235.172V268.984H242.953V267.965H236.66V267.355H242.637V264.836H235.16V265.867ZM235.242 259.621H241.125V260.16H235.266V262.691H242.812V261.684H236.754V261.109H242.625V258.602H235.242V259.621ZM253.312 259.328H247.418V260.523H248.332V265.51C247.916 265.51 247.518 265.516 247.148 265.516L247.289 266.734C249.129 266.729 251.543 266.682 253.688 266.336L253.594 265.246C253.189 265.293 252.773 265.328 252.352 265.357V260.523H253.312V259.328ZM249.797 265.48V260.523H250.898V265.445L249.797 265.48ZM253.172 264.637H254.719V269.078H256.195V258.414H254.719V261.062H253.172V262.27H254.719V263.441H253.172V264.637ZM266.414 258.871H258.457V260.043H261.375C261.199 260.916 260.109 261.812 258 262.047L258.539 263.219C260.531 262.996 261.855 262.164 262.418 261.062C262.98 262.17 264.311 262.996 266.309 263.219L266.859 262.047C264.75 261.812 263.643 260.922 263.473 260.043H266.414V258.871ZM257.555 264.918H261.82V266.758H263.297V264.918H267.316V263.723H257.555V264.918ZM258.703 268.891H266.238V267.695H260.191V265.809H258.703V268.891ZM276.352 258.414H274.852V269.102H276.352V263.594H277.922V262.375H276.352V258.414ZM268.359 266.512H269.262C271.143 266.518 272.596 266.477 274.254 266.195L274.09 264.941C272.672 265.188 271.395 265.27 269.848 265.281V260.605H273.363V259.398H268.359V266.512Z" fill="#6662A8"/>
<path d="M45.3047 184.414H43.8164V187.016H42.1523V188.223H43.8164V190.742H45.3047V184.414ZM36.2461 189.57L37.0195 190.754C38.2852 190.32 39.1406 189.447 39.6094 188.363C40.0723 189.318 40.8867 190.092 42.0586 190.473L42.7969 189.301C41.1387 188.75 40.377 187.496 40.3477 186.254H42.4688V185.059H36.6797V186.254H38.8242C38.7891 187.59 37.9922 188.984 36.2461 189.57ZM37.9922 193.039C37.9922 194.334 39.3867 195.09 41.6602 195.09C43.9395 195.09 45.334 194.334 45.3398 193.039C45.334 191.744 43.9395 190.982 41.6602 190.977C39.3867 190.982 37.9922 191.744 37.9922 193.039ZM39.4805 193.039C39.4805 192.424 40.248 192.119 41.6602 192.125C43.0781 192.119 43.8457 192.424 43.8516 193.039C43.8457 193.648 43.0781 193.953 41.6602 193.953C40.248 193.953 39.4805 193.648 39.4805 193.039ZM52.3477 185.246V184.73H50.7773V185.246C50.7715 186.506 49.4883 187.895 47.0625 188.199L47.6602 189.406C49.5 189.137 50.8594 188.27 51.5625 187.121C52.2598 188.275 53.625 189.137 55.4883 189.406L56.0742 188.199C53.6309 187.895 52.3418 186.506 52.3477 185.246ZM46.6875 191.434H50.7891V195.078H52.2656V191.434H56.4141V190.215H46.6875V191.434ZM66 184.414H64.5117V195.102H66V184.414ZM57.6211 186.512H61.1719V188.234H57.6328V192.605H58.5938C60.5391 192.605 62.127 192.541 63.8789 192.23L63.75 191.023C62.1855 191.281 60.8086 191.363 59.1797 191.375V189.418H62.6953V185.305H57.6211V186.512ZM77.1797 189.195H67.418V190.309H77.1797V189.195ZM68.5312 191.867H74.5312V192.406H68.543V194.984H76.3242V193.965H70.0312V193.355H76.0078V190.836H68.5312V191.867ZM68.6133 185.621H74.4961V186.16H68.6367V188.691H76.1836V187.684H70.125V187.109H75.9961V184.602H68.6133V185.621ZM89.5547 184.426H88.0781V195.078H89.5547V184.426ZM80.543 190.098L80.707 191.316C81.5273 191.316 82.418 191.316 83.3438 191.287V194.762H84.832V191.217C85.7227 191.164 86.6309 191.07 87.5273 190.93L87.4688 189.84C85.1777 190.098 82.5879 190.086 80.543 190.098ZM81.4805 189.008H86.8008V187.801H82.9805V186.16H86.6719V184.988H81.4805V189.008ZM100.699 192.664H96.5391V191.059H99.8203V189.84H93.5625V188.645H99.5742V185.105H92.0508V186.301H98.0977V187.473H92.0625V191.059H95.0508V192.664H90.9375V193.895H100.699V192.664ZM110.109 185H104.297V186.195H106.477C106.43 187.443 105.621 188.697 103.875 189.207L104.637 190.391C105.908 190.01 106.77 189.207 107.244 188.193C107.725 189.102 108.562 189.822 109.781 190.168L110.484 189.02C108.791 188.527 108.023 187.361 107.988 186.195H110.109V185ZM105.527 194.961H112.535V190.719H111.035V191.691H107.027V190.719H105.527V194.961ZM107.027 193.766V192.84H111.035V193.766H107.027ZM111.035 190.285H112.535V187.906H113.977V186.688H112.535V184.414H111.035V190.285ZM117.316 185.164C115.682 185.164 114.498 186.635 114.504 188.961C114.498 191.305 115.682 192.77 117.316 192.77C118.945 192.77 120.123 191.305 120.129 188.961C120.123 186.635 118.945 185.164 117.316 185.164ZM115.945 188.961C115.945 187.379 116.502 186.512 117.316 186.512C118.148 186.512 118.693 187.379 118.699 188.961C118.693 190.549 118.148 191.416 117.316 191.41C116.502 191.416 115.945 190.549 115.945 188.961ZM121.359 195.078H122.859V189.676H124.43V188.434H122.859V184.414H121.359V195.078ZM133.301 184.414H131.777V190.59H133.301V188.164H134.719V186.945H133.301V184.414ZM125.191 190.016H126.082C128.49 190.01 129.744 189.963 131.062 189.676L130.934 188.48C129.744 188.732 128.66 188.797 126.68 188.809V186.324H129.984V185.129H125.191V190.016ZM126.129 192.91C126.123 194.281 127.553 195.084 129.785 195.078C131.977 195.084 133.377 194.281 133.383 192.91C133.377 191.568 131.977 190.777 129.785 190.777C127.553 190.777 126.123 191.568 126.129 192.91ZM127.605 192.91C127.6 192.283 128.385 191.955 129.785 191.961C131.139 191.955 131.924 192.283 131.93 192.91C131.924 193.555 131.139 193.895 129.785 193.895C128.385 193.895 127.6 193.555 127.605 192.91ZM144.094 184.426H142.594V192.172H144.094V184.426ZM135.34 189.875L135.926 191.059C139.148 190.127 140.977 188.094 140.977 185.199H135.949V186.43H139.348C139.09 187.953 137.719 189.189 135.34 189.875ZM136.969 194.891H144.316V193.695H138.457V191.492H136.969V194.891ZM153.973 184.414H152.473V195.102H153.973V189.594H155.543V188.375H153.973V184.414ZM145.98 192.512H146.883C148.764 192.518 150.217 192.477 151.875 192.195L151.711 190.941C150.293 191.188 149.016 191.27 147.469 191.281V186.605H150.984V185.398H145.98V192.512ZM164.59 187.32H158.625V184.789H157.137V188.492H164.59V187.32ZM155.918 190.812H165.68V189.641H155.918V190.812ZM157.043 194.844H164.66V193.648H158.543V191.68H157.043V194.844ZM177.762 189.125H171.656V185.34H170.156V190.344H177.762V189.125ZM169.066 193.812H178.828V192.57H169.066V193.812ZM182.73 185.035H179.859V186.23H181.301C181.143 187.555 180.609 188.363 179.426 189.184L180.398 190.121C182.191 188.797 182.725 187.297 182.73 185.035ZM181.148 194.961H188.355V190.93H181.148V194.961ZM182.543 189.617L183.598 190.438C185.32 188.996 185.789 187.355 185.801 185.035H183.105V186.23H184.377C184.236 187.678 183.727 188.645 182.543 189.617ZM182.613 193.766V192.113H186.891V193.766H182.613ZM186.844 190.484H188.355V184.426H186.844V190.484ZM194.672 184.953C192.416 184.959 190.664 186.178 190.664 188.023C190.664 189.887 192.416 191.1 194.672 191.094C196.922 191.1 198.686 189.887 198.691 188.023C198.686 186.178 196.922 184.959 194.672 184.953ZM189.809 193.777H199.57V192.57H189.809V193.777ZM192.117 188.023C192.111 186.881 193.189 186.16 194.672 186.172C196.143 186.16 197.209 186.881 197.215 188.023C197.209 189.184 196.143 189.875 194.672 189.875C193.189 189.875 192.111 189.184 192.117 188.023ZM209.941 192.664H205.781V191.059H209.062V189.84H202.805V188.645H208.816V185.105H201.293V186.301H207.34V187.473H201.305V191.059H204.293V192.664H200.18V193.895H209.941V192.664ZM222.105 185.34H214.324V186.523H220.605C220.6 187.777 220.582 189.277 220.172 191.293L221.672 191.445C222.1 189.184 222.1 187.684 222.105 186.348V185.34ZM213.316 193.777H223.043V192.559H218.285V188.891H216.797V192.559H213.316V193.777ZM232.887 184.414H231.445V188.457H230.473V184.695H229.078V194.609H230.473V189.652H231.445V195.078H232.887V184.414ZM223.559 191.855L224.426 192.887C227.432 191.141 228.322 188.703 228.328 185.727H224.098V186.922H226.869C226.67 189.014 225.732 190.578 223.559 191.855ZM243.809 189.195H234.047V190.309H243.809V189.195ZM235.16 191.867H241.16V192.406H235.172V194.984H242.953V193.965H236.66V193.355H242.637V190.836H235.16V191.867ZM235.242 185.621H241.125V186.16H235.266V188.691H242.812V187.684H236.754V187.109H242.625V184.602H235.242V185.621ZM251.109 185.457V184.789H249.609V185.469C249.598 186.869 248.818 188.164 247.055 188.703L247.793 189.887C249.047 189.488 249.902 188.68 250.377 187.643C250.834 188.557 251.631 189.26 252.797 189.617L253.559 188.457C251.859 187.971 251.098 186.764 251.109 185.457ZM248.578 191.457H254.168V192.09H248.602V195.008H255.961V193.824H250.066V193.156H255.656V190.309H248.578V191.457ZM254.156 189.898H255.656V187.719H257.098V186.5H255.656V184.414H254.156V189.898ZM260.332 186.324V186.312H260.883V185.117H257.766V186.312H258.938V186.324C258.938 187.525 258.539 188.809 257.344 189.465L258.141 190.52C258.885 190.127 259.354 189.488 259.635 188.721C259.887 189.5 260.32 190.197 261.047 190.637C261.785 190.191 262.225 189.482 262.477 188.691C262.758 189.465 263.232 190.115 263.988 190.52L264.785 189.465C263.555 188.82 263.18 187.525 263.191 186.324V186.312H264.281V185.117H261.234V186.312H261.773V186.324C261.768 187.18 261.627 188.164 261.059 188.914C260.473 188.146 260.326 187.156 260.332 186.324ZM258.855 192.406H264.844V195.078H266.332V191.211H258.855V192.406ZM264.844 190.777H266.332V188.211H267.434V186.969H266.332V184.414H264.844V190.777ZM279.188 184.414H277.664V190.59H279.188V188.164H280.605V186.945H279.188V184.414ZM271.078 190.016H271.969C274.377 190.01 275.631 189.963 276.949 189.676L276.82 188.48C275.631 188.732 274.547 188.797 272.566 188.809V186.324H275.871V185.129H271.078V190.016ZM272.016 192.91C272.01 194.281 273.439 195.084 275.672 195.078C277.863 195.084 279.264 194.281 279.27 192.91C279.264 191.568 277.863 190.777 275.672 190.777C273.439 190.777 272.01 191.568 272.016 192.91ZM273.492 192.91C273.486 192.283 274.271 191.955 275.672 191.961C277.025 191.955 277.811 192.283 277.816 192.91C277.811 193.555 277.025 193.895 275.672 193.895C274.271 193.895 273.486 193.555 273.492 192.91ZM289.98 184.426H288.48V192.172H289.98V184.426ZM281.227 189.875L281.812 191.059C285.035 190.127 286.863 188.094 286.863 185.199H281.836V186.43H285.234C284.977 187.953 283.605 189.189 281.227 189.875ZM282.855 194.891H290.203V193.695H284.344V191.492H282.855V194.891ZM299.859 184.414H298.359V195.102H299.859V189.594H301.43V188.375H299.859V184.414ZM291.867 192.512H292.77C294.65 192.518 296.104 192.477 297.762 192.195L297.598 190.941C296.18 191.188 294.902 191.27 293.355 191.281V186.605H296.871V185.398H291.867V192.512Z" fill="#6662A8"/>
<path d="M38.0273 406.363H36.6211V413.547H40.8633V406.363H39.4805V408.766H38.0273V406.363ZM38.0273 412.352V409.938H39.4805V412.352H38.0273ZM41.7539 415.586H43.1719V410.699H44.1328V416.078H45.5625V405.414H44.1328V409.48H43.1719V405.566H41.7539V415.586ZM55.9336 405.414H54.5039V416.078H55.9336V405.414ZM46.7812 410.031C46.7812 412.428 47.6895 413.91 49.1016 413.91C50.4141 413.91 51.3105 412.639 51.4395 410.547H52.3008V415.586H53.707V405.566H52.3008V409.363H51.4277C51.2637 407.371 50.3848 406.17 49.1016 406.176C47.6895 406.17 46.7812 407.646 46.7812 410.031ZM48.1641 410.031C48.1523 408.396 48.5039 407.582 49.1016 407.582C49.7168 407.582 50.0801 408.396 50.0742 410.031C50.0801 411.672 49.7168 412.48 49.1016 412.469C48.5039 412.48 48.1523 411.672 48.1641 410.031ZM68.7539 405.414H67.2539V411.859H68.7539V405.414ZM59.9414 407.559H66.4219V406.363H63.9492V405.332H62.4375V406.363H59.9414V407.559ZM60.5156 409.797C60.5098 410.975 61.5938 411.725 63.1992 411.73C64.8047 411.725 65.877 410.975 65.8828 409.797C65.877 408.643 64.8105 407.887 63.1992 407.887C61.5879 407.887 60.5098 408.643 60.5156 409.797ZM61.6055 415.961H68.7539V412.316H61.6055V415.961ZM61.9453 409.797C61.9395 409.264 62.4258 408.988 63.1992 408.988C63.9609 408.988 64.4414 409.264 64.4531 409.797C64.4414 410.342 63.9609 410.623 63.1992 410.629C62.4258 410.623 61.9395 410.342 61.9453 409.797ZM63.082 414.766V413.488H67.2891V414.766H63.082ZM75.0586 405.566C72.5977 405.566 71.168 406.211 71.168 407.383C71.168 408.572 72.5977 409.211 75.0586 409.211C77.5137 409.211 78.9316 408.572 78.9375 407.383C78.9316 406.211 77.5137 405.566 75.0586 405.566ZM70.1953 410.898H79.9219V409.715H70.1953V410.898ZM71.3203 412.609H77.2617V413.195H71.332V416.008H79.0195V414.883H72.7969V414.238H78.7383V411.52H71.3203V412.609ZM72.7383 407.383C72.7324 406.908 73.4941 406.656 75.0586 406.656C76.6348 406.656 77.3906 406.908 77.3906 407.383C77.3906 407.904 76.6348 408.109 75.0586 408.109C73.4941 408.109 72.7324 407.904 72.7383 407.383ZM93.0586 411.297H83.332V412.492H87.4336V416.078H88.9102V412.492H93.0586V411.297ZM83.8125 409.504L84.3633 410.676C86.2207 410.424 87.5508 409.627 88.2012 408.531C88.8457 409.627 90.1875 410.424 92.0625 410.676L92.6016 409.504C90.4102 409.24 89.2324 408.197 89.0801 407.148H92.1914V405.977H84.2109V407.148H87.3223C87.1641 408.197 85.9688 409.24 83.8125 409.504ZM96.6445 406.164C95.0273 406.164 93.8672 407.635 93.8789 409.961C93.8672 412.305 95.0273 413.77 96.6445 413.77C98.1328 413.77 99.2344 412.516 99.3926 410.465H101.227V416.102H102.703V405.414H101.227V409.27H99.375C99.1641 407.348 98.0859 406.164 96.6445 406.164ZM95.3086 409.961C95.3027 408.379 95.8477 407.512 96.6445 407.512C97.4473 407.512 97.9805 408.379 97.9805 409.961C97.9805 411.549 97.4473 412.416 96.6445 412.41C95.8477 412.416 95.3027 411.549 95.3086 409.961ZM113.133 407.008H110.73V405.578H109.242V407.008H106.863V408.203H113.133V407.008ZM107.414 411.344C107.414 412.797 108.516 413.881 109.992 413.887C111.463 413.881 112.547 412.797 112.559 411.344C112.547 409.873 111.463 408.795 109.992 408.801C108.516 408.795 107.414 409.873 107.414 411.344ZM108.809 411.344C108.803 410.553 109.312 410.061 109.992 410.055C110.672 410.061 111.182 410.553 111.176 411.344C111.182 412.146 110.672 412.621 109.992 412.609C109.312 412.621 108.803 412.146 108.809 411.344ZM112.91 410.84H114.363V416.078H115.84V405.414H114.363V409.633H112.91V410.84ZM126.152 405.414H124.664V416.102H126.152V405.414ZM117.773 407.512H121.324V409.234H117.785V413.605H118.746C120.691 413.605 122.279 413.541 124.031 413.23L123.902 412.023C122.338 412.281 120.961 412.363 119.332 412.375V410.418H122.848V406.305H117.773V407.512ZM135.996 405.414H134.496V416.055H135.996V410.734H137.508V409.504H135.996V405.414ZM127.465 413.066L128.309 414.215C131.895 412.451 133.137 409.691 133.148 406.504H128.074V407.723H131.631C131.35 410.102 129.99 411.801 127.465 413.066ZM146.719 406.48H141.188V407.676H145.23C145.219 408.619 145.195 409.762 144.949 411.309L146.426 411.426C146.707 409.65 146.707 408.338 146.719 407.336V406.48ZM140.625 412.703L140.766 413.898C142.635 413.91 145.049 413.869 147.246 413.5L147.152 412.387C146.168 412.516 145.107 412.592 144.059 412.633V409.539H142.582V412.68C141.891 412.697 141.223 412.703 140.625 412.703ZM147.656 416.078H149.168V410.945H150.621V409.703H149.168V405.414H147.656V416.078ZM159.504 405.414H158.027V416.078H159.504V410.816H161.074V409.586H159.504V405.414ZM151.031 408.203H157.301V407.008H154.945V405.578H153.445V407.008H151.031V408.203ZM151.465 411.344C151.459 412.832 152.619 413.881 154.195 413.887C155.748 413.881 156.914 412.832 156.914 411.344C156.914 409.855 155.748 408.795 154.195 408.801C152.619 408.795 151.459 409.855 151.465 411.344ZM152.895 411.344C152.895 410.523 153.439 410.02 154.195 410.008C154.939 410.02 155.484 410.523 155.484 411.344C155.484 412.17 154.939 412.662 154.195 412.656C153.439 412.662 152.895 412.17 152.895 411.344ZM170.707 405.414H169.301V416.078H170.707V405.414ZM161.332 412.809L162.176 413.863C163.693 412.984 164.684 411.93 165.293 410.711H167.039V415.609H168.434V405.648H167.039V409.527H165.756C166.014 408.648 166.125 407.699 166.125 406.68H161.918V407.887H164.643C164.438 409.979 163.488 411.531 161.332 412.809ZM183.527 405.414H182.004V408.004H180.627C180.738 407.406 180.785 406.768 180.785 406.059H178.137V407.242H179.361C179.221 408.719 178.699 409.68 177.516 410.676L178.57 411.508C179.402 410.805 179.947 410.055 180.287 409.199H182.004V411.578H183.527V405.414ZM174.492 410.219L175.465 411.133C177.27 409.814 177.785 408.297 177.797 406.059H174.938V407.242H176.361C176.203 408.561 175.676 409.381 174.492 410.219ZM175.816 413.207H177.973V416.066H179.461V412H175.816V413.207ZM179.883 413.207H182.027V416.066H183.527V412H179.883V413.207ZM193.898 405.414H192.387V416.102H193.898V405.414ZM185.285 409.961C185.279 412.305 186.469 413.77 188.109 413.77C189.715 413.77 190.91 412.305 190.91 409.961C190.91 407.635 189.715 406.164 188.109 406.164C186.469 406.164 185.279 407.635 185.285 409.961ZM186.727 409.961C186.721 408.379 187.277 407.512 188.109 407.512C188.918 407.512 189.463 408.379 189.469 409.961C189.463 411.549 188.918 412.416 188.109 412.41C187.277 412.416 186.721 411.549 186.727 409.961ZM199.477 408.32V407.664H201.703V406.445H195.68V407.664H197.941V408.32C197.941 410.125 197.027 412.1 195.258 412.891L196.113 414.074C197.373 413.494 198.258 412.322 198.738 410.922C199.219 412.211 200.086 413.271 201.34 413.805L202.148 412.633C200.361 411.889 199.471 410.043 199.477 408.32ZM202.758 416.078H204.27V405.414H202.758V416.078ZM211.418 405.93C209.789 405.924 208.541 406.967 208.547 408.414C208.541 409.873 209.789 410.91 211.418 410.91C213.059 410.91 214.277 409.873 214.277 408.414C214.277 406.967 213.059 405.924 211.418 405.93ZM209.438 415.797H210.023C211.043 415.797 211.904 415.756 212.801 415.434L212.59 414.273C212.039 414.449 211.482 414.537 210.891 414.578V411.707H209.438V415.797ZM210.012 408.414C210 407.635 210.609 407.154 211.418 407.16C212.227 407.154 212.824 407.635 212.824 408.414C212.824 409.199 212.227 409.686 211.418 409.691C210.609 409.686 210 409.199 210.012 408.414ZM212.438 412.82H217.805V411.719H215.859V410.969H214.406V411.719H212.438V412.82ZM213.059 414.578C213.047 415.504 213.879 416.084 215.109 416.078C216.328 416.084 217.178 415.504 217.184 414.578C217.178 413.658 216.328 413.066 215.109 413.066C213.885 413.066 213.047 413.658 213.059 414.578ZM214.383 414.578C214.377 414.273 214.688 414.104 215.109 414.098C215.537 414.104 215.842 414.273 215.848 414.578C215.842 414.9 215.537 415.059 215.109 415.059C214.688 415.059 214.377 414.9 214.383 414.578ZM215.438 410.676H216.938V408.859H218.379V407.629H216.938V405.414H215.438V410.676ZM227.543 410.184H221.496V407.359H227.461V406.164H219.996V411.367H222.961V413.641H218.848V414.859H228.609V413.641H224.449V411.367H227.543V410.184ZM238.969 411.133H234.832V410.359H237.984V409.211H231.914V408.508H237.785V405.613H230.402V406.773H236.285V407.43H230.426V410.359H233.344V411.133H229.207V412.328H238.969V411.133ZM230.297 414.109H236.332V416.031H237.844V412.938H230.297V414.109ZM250.816 405.426H249.316V413.383H250.816V409.914H252.258V408.695H250.816V405.426ZM242.355 407.723H248.684V406.539H246.27V405.402H244.781V406.539H242.355V407.723ZM242.871 410.16C242.871 411.391 243.967 412.199 245.52 412.199C247.066 412.199 248.145 411.391 248.145 410.16C248.145 408.924 247.066 408.098 245.52 408.098C243.967 408.098 242.871 408.924 242.871 410.16ZM243.902 415.891H251.203V414.695H245.391V412.773H243.902V415.891ZM244.336 410.16C244.33 409.568 244.805 409.24 245.52 409.234C246.24 409.24 246.727 409.568 246.727 410.16C246.727 410.746 246.24 411.062 245.52 411.062C244.805 411.062 244.33 410.746 244.336 410.16ZM261.141 405.414H259.641V416.102H261.141V410.594H262.711V409.375H261.141V405.414ZM253.148 413.512H254.051C255.932 413.518 257.385 413.477 259.043 413.195L258.879 411.941C257.461 412.188 256.184 412.27 254.637 412.281V407.605H258.152V406.398H253.148V413.512Z" fill="#6662A8"/>
<path d="M44.8711 646.812H37.4297V647.984H43.377C43.3652 648.506 43.3301 649.109 43.207 649.871L44.6836 649.988C44.8652 648.934 44.8652 648.084 44.8711 647.445V646.812ZM36.3398 651.582H46.0195V650.422H41.4492V648.852H39.9727V650.422H36.3398V651.582ZM37.418 653.434H43.3945V654.09H37.4297V656.996H45.1641V655.848H38.918V655.098H44.8711V652.25H37.418V653.434ZM55.1484 646.426H53.6484V654.277H55.1484V650.656H56.5898V649.426H55.1484V646.426ZM47.0039 652.578H52.1719V647.176H50.6719V648.723H48.4922V647.176H47.0039V652.578ZM48.2344 656.891H55.5352V655.695H49.7227V653.469H48.2344V656.891ZM48.4922 651.406V649.871H50.6719V651.406H48.4922ZM63.0586 647.48H57.5273V648.676H61.5703C61.5586 649.619 61.5352 650.762 61.2891 652.309L62.7656 652.426C63.0469 650.65 63.0469 649.338 63.0586 648.336V647.48ZM56.9648 653.703L57.1055 654.898C58.9746 654.91 61.3887 654.869 63.5859 654.5L63.4922 653.387C62.5078 653.516 61.4473 653.592 60.3984 653.633V650.539H58.9219V653.68C58.2305 653.697 57.5625 653.703 56.9648 653.703ZM63.9961 657.078H65.5078V651.945H66.9609V650.703H65.5078V646.414H63.9961V657.078ZM72 646.895H70.5117V651.547H75.6797V646.895H74.1797V648.16H72V646.895ZM71.5781 653.398H77.168V654.066H71.6016V657.008H78.9609V655.824H73.0664V655.133H78.6562V652.238H71.5781V653.398ZM72 650.375V649.285H74.1797V650.375H72ZM77.1562 651.84H78.6562V649.695H80.0977V648.488H78.6562V646.414H77.1562V651.84ZM84.9727 646.883H81.4336V648.066H83.5078C83.4844 648.676 83.4082 649.449 83.1094 650.469H80.5664V651.676H84.668V653.059H81.75V656.949H89.0859V653.059H86.1445V651.676H90.293V650.469H88.8809C89.1621 649.221 89.1621 648.266 89.168 647.527V646.883H85.6289V648.066H87.7207C87.7031 648.699 87.6445 649.467 87.3809 650.469H84.6152C84.9727 649.145 84.9727 648.148 84.9727 647.469V646.883ZM83.2148 655.777V654.219H87.5977V655.777H83.2148ZM99.8555 646.414H98.3555V657.078H99.8555V646.414ZM90.9961 653.938L91.793 655.086C93.0352 654.564 93.9082 653.475 94.3828 652.18C94.8691 653.404 95.7363 654.424 96.9492 654.922L97.7578 653.773C95.9824 653.041 95.1094 651.301 95.1094 649.754V649.344H97.3242V648.148H95.0977V646.648H93.6094V648.148H91.3477V649.344H93.6211V649.754C93.6152 651.377 92.748 653.17 90.9961 653.938ZM109.723 646.414H108.223V657.055H109.723V651.734H111.234V650.504H109.723V646.414ZM101.191 654.066L102.035 655.215C105.621 653.451 106.863 650.691 106.875 647.504H101.801V648.723H105.357C105.076 651.102 103.717 652.801 101.191 654.066ZM117.48 646.73C115.834 646.725 114.609 647.744 114.609 649.168C114.609 650.58 115.834 651.588 117.48 651.594C119.104 651.588 120.322 650.58 120.328 649.168C120.322 647.744 119.104 646.725 117.48 646.73ZM116.062 649.168C116.051 648.4 116.66 647.949 117.48 647.949C118.289 647.949 118.881 648.4 118.887 649.168C118.881 649.93 118.289 650.381 117.48 650.387C116.654 650.381 116.051 649.93 116.062 649.168ZM116.215 653.352H121.887V654.008H116.238V656.961H123.668V655.789H117.703V655.098H123.375V652.203H116.215V653.352ZM121.875 651.758H123.375V646.414H121.875V651.758ZM133.746 646.414H132.246V652.836H133.746V646.414ZM124.863 651.512L125.637 652.672C126.891 652.256 127.758 651.418 128.244 650.363C128.725 651.33 129.562 652.098 130.758 652.473L131.52 651.312C129.779 650.785 128.982 649.484 128.977 648.23H131.121V647.035H125.262V648.23H127.453C127.441 649.561 126.627 650.943 124.863 651.512ZM126.41 654.5H132.246V657.078H133.746V653.305H126.41V654.5ZM139.184 648.242V647.07H137.672V648.23C137.666 649.76 136.898 651.219 135.117 651.805L135.926 652.977C137.162 652.531 137.994 651.658 138.451 650.539C138.902 651.529 139.682 652.314 140.812 652.73L141.621 651.559C139.922 650.99 139.184 649.619 139.184 648.242ZM137.074 656.891H144.398V655.695H138.586V653.469H137.074V656.891ZM140.684 649.895H142.688V654.301H144.176V646.426H142.688V648.688H140.684V649.895ZM154.488 646.414H152.977V657.102H154.488V646.414ZM145.875 650.961C145.869 653.305 147.059 654.77 148.699 654.77C150.305 654.77 151.5 653.305 151.5 650.961C151.5 648.635 150.305 647.164 148.699 647.164C147.059 647.164 145.869 648.635 145.875 650.961ZM147.316 650.961C147.311 649.379 147.867 648.512 148.699 648.512C149.508 648.512 150.053 649.379 150.059 650.961C150.053 652.549 149.508 653.416 148.699 653.41C147.867 653.416 147.311 652.549 147.316 650.961ZM165.047 650.75H160.934V648.547H164.988V647.363H159.445V651.945H161.473V653.744C160.518 653.768 159.592 653.768 158.742 653.762L158.918 654.98C160.922 654.98 163.348 654.963 165.68 654.605L165.562 653.516C164.73 653.604 163.852 653.662 162.973 653.697V651.945H165.047V650.75ZM166.172 657.102H167.66V646.414H166.172V657.102ZM177.762 651.184H171.715V648.359H177.68V647.164H170.215V652.367H173.18V654.641H169.066V655.859H178.828V654.641H174.668V652.367H177.762V651.184ZM189.188 652.133H185.051V651.359H188.203V650.211H182.133V649.508H188.004V646.613H180.621V647.773H186.504V648.43H180.645V651.359H183.562V652.133H179.426V653.328H189.188V652.133ZM180.516 655.109H186.551V657.031H188.062V653.938H180.516V655.109ZM201.035 646.426H199.535V654.383H201.035V650.914H202.477V649.695H201.035V646.426ZM192.574 648.723H198.902V647.539H196.488V646.402H195V647.539H192.574V648.723ZM193.09 651.16C193.09 652.391 194.186 653.199 195.738 653.199C197.285 653.199 198.363 652.391 198.363 651.16C198.363 649.924 197.285 649.098 195.738 649.098C194.186 649.098 193.09 649.924 193.09 651.16ZM194.121 656.891H201.422V655.695H195.609V653.773H194.121V656.891ZM194.555 651.16C194.549 650.568 195.023 650.24 195.738 650.234C196.459 650.24 196.945 650.568 196.945 651.16C196.945 651.746 196.459 652.062 195.738 652.062C195.023 652.062 194.549 651.746 194.555 651.16ZM211.359 646.414H209.859V657.102H211.359V651.594H212.93V650.375H211.359V646.414ZM203.367 654.512H204.27C206.15 654.518 207.604 654.477 209.262 654.195L209.098 652.941C207.68 653.188 206.402 653.27 204.855 653.281V648.605H208.371V647.398H203.367V654.512Z" fill="#6662A8"/>
<rect x="22" y="720" width="369" height="15" fill="#FFF6A3"/>
<path d="M34.5156 720.414H33.0039V731.078H34.5156V720.414ZM25.3047 725.301L25.4922 726.52C26.2891 726.52 27.1387 726.508 28.0234 726.484V730.492H29.5234V726.414C30.5137 726.355 31.5156 726.268 32.5 726.133L32.3945 725.02C31.9727 725.066 31.5449 725.102 31.1113 725.137C31.375 723.607 31.375 722.494 31.375 721.75V721.152H26.1836V722.348H29.8926C29.875 723.062 29.8164 724.006 29.5762 725.225C28.0879 725.295 26.6055 725.307 25.3047 725.301ZM45.4961 726.566H35.7344V727.738H39.8477V731.078H41.3242V727.738H45.4961V726.566ZM36.8828 725.535H44.3359V720.824H42.8359V722.055H38.3594V720.824H36.8828V725.535ZM38.3594 724.34V723.227H42.8359V724.34H38.3594ZM55.1172 720.414H53.6406V724.176H51.7656V725.383H53.6406V731.102H55.1172V720.414ZM46.6094 728.688H47.4531C49.2812 728.682 50.6758 728.629 52.2344 728.395L52.082 727.199C50.7637 727.404 49.5801 727.457 48.0977 727.469V725.453H51.2031V724.281H48.0977V722.512H51.5898V721.305H46.6094V728.688ZM62.1953 721.164C60.5781 721.164 59.418 722.635 59.4297 724.961C59.418 727.305 60.5781 728.77 62.1953 728.77C63.6836 728.77 64.7852 727.516 64.9434 725.465H66.7773V731.102H68.2539V720.414H66.7773V724.27H64.9258C64.7148 722.348 63.6367 721.164 62.1953 721.164ZM60.8594 724.961C60.8535 723.379 61.3984 722.512 62.1953 722.512C62.998 722.512 63.5312 723.379 63.5312 724.961C63.5312 726.549 62.998 727.416 62.1953 727.41C61.3984 727.416 60.8535 726.549 60.8594 724.961ZM79.0938 720.402H77.6523V724.469H76.8203V720.59H75.4258V730.609H76.8203V725.676H77.6523V731.066H79.0938V720.402ZM69.4492 727.914L70.6211 728.582C71.9805 726.549 72.2676 724.264 72.2734 721.656H69.8359V722.852H70.9961C70.9082 724.832 70.5332 726.355 69.4492 727.914ZM71.957 728.57L73.1406 729.203C74.5703 726.994 74.7988 724.363 74.8047 721.656H72.5898V722.852H73.498C73.4395 724.996 73.1406 726.812 71.957 728.57ZM82.2461 729.133H80.582L79.9961 732.473H81.2383L82.2461 729.133ZM92.1133 722.008H89.7109V720.578H88.2227V722.008H85.8438V723.203H92.1133V722.008ZM86.3945 726.344C86.3945 727.797 87.4961 728.881 88.9727 728.887C90.4434 728.881 91.5273 727.797 91.5391 726.344C91.5273 724.873 90.4434 723.795 88.9727 723.801C87.4961 723.795 86.3945 724.873 86.3945 726.344ZM87.7891 726.344C87.7832 725.553 88.293 725.061 88.9727 725.055C89.6523 725.061 90.1621 725.553 90.1562 726.344C90.1621 727.146 89.6523 727.621 88.9727 727.609C88.293 727.621 87.7832 727.146 87.7891 726.344ZM91.8906 725.84H93.3438V731.078H94.8203V720.414H93.3438V724.633H91.8906V725.84ZM105.133 720.414H103.645V731.102H105.133V720.414ZM96.7539 722.512H100.305V724.234H96.7656V728.605H97.7266C99.6719 728.605 101.26 728.541 103.012 728.23L102.883 727.023C101.318 727.281 99.9414 727.363 98.3125 727.375V725.418H101.828V721.305H96.7539V722.512ZM108.812 729.133H107.148L106.562 732.473H107.805L108.812 729.133ZM120.918 721.398H113.395V722.594H119.43V722.676C119.424 724.094 119.424 725.617 119.02 727.668L120.531 727.797C120.912 725.588 120.912 724.141 120.918 722.676V721.398ZM112.387 729.684H122.113V728.453H112.387V729.684ZM131.699 720.414H130.211V731.102H131.699V720.414ZM123.32 722.512H126.871V724.234H123.332V728.605H124.293C126.238 728.605 127.826 728.541 129.578 728.23L129.449 727.023C127.885 727.281 126.508 727.363 124.879 727.375V725.418H128.395V721.305H123.32V722.512ZM141.918 721.34H134.137V722.523H140.418C140.412 723.777 140.395 725.277 139.984 727.293L141.484 727.445C141.912 725.184 141.912 723.684 141.918 722.348V721.34ZM133.129 729.777H142.855V728.559H138.098V724.891H136.609V728.559H133.129V729.777ZM148.07 720.895H146.582V725.547H151.75V720.895H150.25V722.16H148.07V720.895ZM147.648 727.398H153.238V728.066H147.672V731.008H155.031V729.824H149.137V729.133H154.727V726.238H147.648V727.398ZM148.07 724.375V723.285H150.25V724.375H148.07ZM153.227 725.84H154.727V723.695H156.168V722.488H154.727V720.414H153.227V725.84ZM161.043 720.883H157.504V722.066H159.578C159.555 722.676 159.479 723.449 159.18 724.469H156.637V725.676H160.738V727.059H157.82V730.949H165.156V727.059H162.215V725.676H166.363V724.469H164.951C165.232 723.221 165.232 722.266 165.238 721.527V720.883H161.699V722.066H163.791C163.773 722.699 163.715 723.467 163.451 724.469H160.686C161.043 723.145 161.043 722.148 161.043 721.469V720.883ZM159.285 729.777V728.219H163.668V729.777H159.285ZM175.926 720.414H174.426V731.078H175.926V720.414ZM167.066 727.938L167.863 729.086C169.105 728.564 169.979 727.475 170.453 726.18C170.939 727.404 171.807 728.424 173.02 728.922L173.828 727.773C172.053 727.041 171.18 725.301 171.18 723.754V723.344H173.395V722.148H171.168V720.648H169.68V722.148H167.418V723.344H169.691V723.754C169.686 725.377 168.818 727.17 167.066 727.938ZM185.922 720.414H184.422V731.078H185.922V725.828H187.34V724.598H185.922V720.414ZM177.168 727.984L178.34 728.816C180.25 726.719 180.555 724.434 180.566 721.504H177.637V722.723H179.137C179.043 724.85 178.621 726.408 177.168 727.984ZM180.18 728.676L181.363 729.508C183.25 727.188 183.514 724.545 183.52 721.504H180.918V722.723H182.107C182.025 725.066 181.627 726.895 180.18 728.676ZM191.887 723.32V722.664H194.113V721.445H188.09V722.664H190.352V723.32C190.352 725.125 189.438 727.1 187.668 727.891L188.523 729.074C189.783 728.494 190.668 727.322 191.148 725.922C191.629 727.211 192.496 728.271 193.75 728.805L194.559 727.633C192.771 726.889 191.881 725.043 191.887 723.32ZM195.168 731.078H196.68V720.414H195.168V731.078ZM203.922 720.73C202.275 720.725 201.051 721.744 201.051 723.168C201.051 724.58 202.275 725.588 203.922 725.594C205.545 725.588 206.764 724.58 206.77 723.168C206.764 721.744 205.545 720.725 203.922 720.73ZM202.504 723.168C202.492 722.4 203.102 721.949 203.922 721.949C204.73 721.949 205.322 722.4 205.328 723.168C205.322 723.93 204.73 724.381 203.922 724.387C203.096 724.381 202.492 723.93 202.504 723.168ZM202.656 727.352H208.328V728.008H202.68V730.961H210.109V729.789H204.145V729.098H209.816V726.203H202.656V727.352ZM208.316 725.758H209.816V720.414H208.316V725.758ZM220.188 720.414H218.688V726.836H220.188V720.414ZM211.305 725.512L212.078 726.672C213.332 726.256 214.199 725.418 214.686 724.363C215.166 725.33 216.004 726.098 217.199 726.473L217.961 725.312C216.221 724.785 215.424 723.484 215.418 722.23H217.562V721.035H211.703V722.23H213.895C213.883 723.561 213.068 724.943 211.305 725.512ZM212.852 728.5H218.688V731.078H220.188V727.305H212.852V728.5ZM225.625 722.242V721.07H224.113V722.23C224.107 723.76 223.34 725.219 221.559 725.805L222.367 726.977C223.604 726.531 224.436 725.658 224.893 724.539C225.344 725.529 226.123 726.314 227.254 726.73L228.062 725.559C226.363 724.99 225.625 723.619 225.625 722.242ZM223.516 730.891H230.84V729.695H225.027V727.469H223.516V730.891ZM227.125 723.895H229.129V728.301H230.617V720.426H229.129V722.688H227.125V723.895ZM240.93 720.414H239.418V731.102H240.93V720.414ZM232.316 724.961C232.311 727.305 233.5 728.77 235.141 728.77C236.746 728.77 237.941 727.305 237.941 724.961C237.941 722.635 236.746 721.164 235.141 721.164C233.5 721.164 232.311 722.635 232.316 724.961ZM233.758 724.961C233.752 723.379 234.309 722.512 235.141 722.512C235.949 722.512 236.494 723.379 236.5 724.961C236.494 726.549 235.949 727.416 235.141 727.41C234.309 727.416 233.752 726.549 233.758 724.961ZM251.488 724.75H247.375V722.547H251.43V721.363H245.887V725.945H247.914V727.744C246.959 727.768 246.033 727.768 245.184 727.762L245.359 728.98C247.363 728.98 249.789 728.963 252.121 728.605L252.004 727.516C251.172 727.604 250.293 727.662 249.414 727.697V725.945H251.488V724.75ZM252.613 731.102H254.102V720.414H252.613V731.102ZM264.203 725.184H258.156V722.359H264.121V721.164H256.656V726.367H259.621V728.641H255.508V729.859H265.27V728.641H261.109V726.367H264.203V725.184ZM275.629 726.133H271.492V725.359H274.645V724.211H268.574V723.508H274.445V720.613H267.062V721.773H272.945V722.43H267.086V725.359H270.004V726.133H265.867V727.328H275.629V726.133ZM266.957 729.109H272.992V731.031H274.504V727.938H266.957V729.109ZM288.742 725.254H279.016V726.461H283.129V727.246C281.236 727.381 280.129 728.049 280.129 729.156C280.129 730.393 281.529 731.084 283.867 731.078C286.17 731.084 287.57 730.393 287.582 729.156C287.57 728.055 286.469 727.387 284.617 727.252V726.461H288.742V725.254ZM279.449 723.684L279.941 724.855C281.963 724.668 283.305 723.9 283.867 722.869C284.436 723.906 285.789 724.662 287.805 724.855L288.332 723.684C286.305 723.508 285.221 722.787 284.963 722.043H287.863V720.871H279.906V722.043H282.783C282.514 722.781 281.424 723.508 279.449 723.684ZM281.652 729.156C281.646 728.617 282.391 728.359 283.867 728.348C285.314 728.359 286.076 728.617 286.082 729.156C286.076 729.672 285.314 729.953 283.867 729.953C282.391 729.953 281.646 729.672 281.652 729.156ZM298.316 720.426H296.816V726.438H298.316V720.426ZM289.352 725.078L290.078 726.25C291.35 725.852 292.217 725.031 292.703 723.994C293.184 724.949 294.027 725.688 295.246 726.051L295.973 724.914C294.25 724.381 293.465 723.139 293.477 721.844V720.812H291.918V721.844C291.918 723.174 291.139 724.539 289.352 725.078ZM291.168 730.961H298.316V726.93H291.168V730.961ZM292.645 729.766V728.113H296.852V729.766H292.645ZM303.754 722.242V721.07H302.242V722.23C302.236 723.76 301.469 725.219 299.688 725.805L300.496 726.977C301.732 726.531 302.564 725.658 303.021 724.539C303.473 725.529 304.252 726.314 305.383 726.73L306.191 725.559C304.492 724.99 303.754 723.619 303.754 722.242ZM301.645 730.891H308.969V729.695H303.156V727.469H301.645V730.891ZM305.254 723.895H307.258V728.301H308.746V720.426H307.258V722.688H305.254V723.895ZM314.992 720.566C312.531 720.566 311.102 721.211 311.102 722.383C311.102 723.572 312.531 724.211 314.992 724.211C317.447 724.211 318.865 723.572 318.871 722.383C318.865 721.211 317.447 720.566 314.992 720.566ZM310.129 725.898H319.855V724.715H310.129V725.898ZM311.254 727.609H317.195V728.195H311.266V731.008H318.953V729.883H312.73V729.238H318.672V726.52H311.254V727.609ZM312.672 722.383C312.666 721.908 313.428 721.656 314.992 721.656C316.568 721.656 317.324 721.908 317.324 722.383C317.324 722.904 316.568 723.109 314.992 723.109C313.428 723.109 312.666 722.904 312.672 722.383ZM333.016 726.344H323.254V727.551H325.492V731.078H327.027V727.551H329.207V731.078H330.73V727.551H333.016V726.344ZM324.238 723.18C324.232 724.615 325.814 725.529 328.105 725.523C330.396 725.529 331.996 724.615 331.996 723.18C331.996 721.709 330.396 720.771 328.105 720.766C325.814 720.771 324.232 721.709 324.238 723.18ZM325.773 723.18C325.768 722.395 326.676 721.967 328.105 721.961C329.547 721.967 330.449 722.395 330.449 723.18C330.449 723.93 329.547 724.346 328.105 724.352C326.676 724.346 325.768 723.93 325.773 723.18ZM337.773 723.32V722.664H340V721.445H333.977V722.664H336.238V723.32C336.238 725.125 335.324 727.1 333.555 727.891L334.41 729.074C335.67 728.494 336.555 727.322 337.035 725.922C337.516 727.211 338.383 728.271 339.637 728.805L340.445 727.633C338.658 726.889 337.768 725.043 337.773 723.32ZM341.055 731.078H342.566V720.414H341.055V731.078ZM349.152 722.043H347.324V720.707H345.848V722.043H343.996V723.227H349.152V722.043ZM344.242 726.238C344.242 727.727 345.238 728.781 346.598 728.781C347.963 728.781 348.936 727.727 348.941 726.238C348.936 724.756 347.963 723.713 346.598 723.707C345.238 723.713 344.242 724.756 344.242 726.238ZM345.555 726.238C345.555 725.436 345.977 724.949 346.598 724.949C347.195 724.949 347.623 725.436 347.629 726.238C347.623 727.053 347.195 727.516 346.598 727.516C345.977 727.516 345.555 727.053 345.555 726.238ZM349.551 730.621H350.945V725.945H351.812V731.078H353.23V720.414H351.812V724.75H350.945V720.625H349.551V730.621ZM357.25 721.164C355.615 721.164 354.432 722.635 354.438 724.961C354.432 727.305 355.615 728.77 357.25 728.77C358.879 728.77 360.057 727.305 360.062 724.961C360.057 722.635 358.879 721.164 357.25 721.164ZM355.879 724.961C355.879 723.379 356.436 722.512 357.25 722.512C358.082 722.512 358.627 723.379 358.633 724.961C358.627 726.549 358.082 727.416 357.25 727.41C356.436 727.416 355.879 726.549 355.879 724.961ZM361.293 731.078H362.793V727.258H364.305V726.039H362.793V724.141H364.305V722.887H362.793V720.414H361.293V731.078ZM375.977 720.426H374.477V728.383H375.977V724.914H377.418V723.695H375.977V720.426ZM367.516 722.723H373.844V721.539H371.43V720.402H369.941V721.539H367.516V722.723ZM368.031 725.16C368.031 726.391 369.127 727.199 370.68 727.199C372.227 727.199 373.305 726.391 373.305 725.16C373.305 723.924 372.227 723.098 370.68 723.098C369.127 723.098 368.031 723.924 368.031 725.16ZM369.062 730.891H376.363V729.695H370.551V727.773H369.062V730.891ZM369.496 725.16C369.49 724.568 369.965 724.24 370.68 724.234C371.4 724.24 371.887 724.568 371.887 725.16C371.887 725.746 371.4 726.062 370.68 726.062C369.965 726.062 369.49 725.746 369.496 725.16ZM386.301 720.414H384.801V731.102H386.301V725.594H387.871V724.375H386.301V720.414ZM378.309 728.512H379.211C381.092 728.518 382.545 728.477 384.203 728.195L384.039 726.941C382.621 727.188 381.344 727.27 379.797 727.281V722.605H383.312V721.398H378.309V728.512Z" fill="#6662A8"/>
</svg>
