<svg width="414" height="896" viewBox="0 0 414 896" fill="none" xmlns="http://www.w3.org/2000/svg">
<rect width="414" height="896" fill="white"/>
<path d="M118.239 103.979H109.226V99.2559H115.878V87.9316H99.3232V99.2559H106.001V103.979H97.0889V106.645H118.239V103.979ZM102.522 96.7168V90.5215H112.679V96.7168H102.522ZM140.685 97.6309H119.56V100.221H140.685V97.6309ZM122.099 108.904H138.501V106.314H125.298V102.023H122.099V108.904ZM122.124 95.752H138.374V93.1621H125.349V89.6582H138.146V87.0684H122.124V95.752ZM167.192 87.2207H149.952V89.7598H156.274C155.894 91.6514 153.532 93.5938 148.962 94.1016L150.13 96.6406C154.446 96.1582 157.315 94.3555 158.534 91.9688C159.753 94.3682 162.635 96.1582 166.964 96.6406L168.157 94.1016C163.587 93.5938 161.188 91.6641 160.819 89.7598H167.192V87.2207ZM147.997 100.322H157.239V104.309H160.438V100.322H169.147V97.7324H147.997V100.322ZM150.485 108.93H166.812V106.34H153.71V102.252H150.485V108.93ZM189.841 86.2305H186.565V109.387H189.841V86.2305ZM171.636 103.979H183.062V88.0586H179.862V93.6953H174.886V88.0586H171.636V103.979ZM174.886 101.363V96.209H179.862V101.363H174.886ZM211.194 86.2305H207.944V109.285H211.194V97.7578H214.47V95.0918H211.194V86.2305ZM192.71 102.811L194.538 105.299C202.308 101.478 204.999 95.498 205.024 88.5918H194.03V91.2324H201.736C201.127 96.3867 198.182 100.068 192.71 102.811ZM242.501 94.7617H239.454C240.102 92.1973 240.102 90.1787 240.114 88.5664V87.0176H232.421V89.582H236.953C236.915 90.9912 236.788 92.6035 236.191 94.7617H230.275C231.101 91.8672 231.101 89.6836 231.101 88.2109V87.0176H223.407V89.582H227.901C227.851 90.8896 227.673 92.5654 227.013 94.7617H221.427V97.3262H242.501V94.7617ZM223.991 109.082H240.19V106.619H227.241V105.096H239.454V102.785H227.241V101.338H240.038V98.9258H223.991V109.082ZM262.229 86.2559H258.979V98.9766H262.229V93.8477H265.353V91.1816H262.229V86.2559ZM244.558 106.721L246.208 109.107C248.265 108.346 249.661 106.924 250.461 105.185C251.21 106.987 252.556 108.511 254.714 109.311C256.821 108.473 258.167 106.898 258.916 105.108C259.69 106.924 261.1 108.346 263.321 109.107L264.896 106.721C261.823 105.73 260.541 103.483 260.554 101.008V99.916H257.38V101.008C257.354 102.76 256.567 104.816 254.65 106.188C252.759 104.893 252.01 102.887 252.022 101.008V99.916H248.899V101.008C248.887 103.306 247.592 105.68 244.558 106.721ZM244.837 97.8848H246.817C250.08 97.8975 253.673 97.6689 257.481 96.8945L257.101 94.3047C253.901 94.9014 250.893 95.1553 248.087 95.2061V87.5762H244.837V97.8848ZM272.741 87.8555C269.237 87.8555 266.724 91.042 266.749 96.082C266.724 101.16 269.237 104.334 272.741 104.334C275.966 104.334 278.353 101.617 278.695 97.1738H282.669V109.387H285.868V86.2305H282.669V94.584H278.657C278.2 90.4199 275.864 87.8555 272.741 87.8555ZM269.847 96.082C269.834 92.6543 271.015 90.7754 272.741 90.7754C274.48 90.7754 275.636 92.6543 275.636 96.082C275.636 99.5225 274.48 101.401 272.741 101.389C271.015 101.401 269.834 99.5225 269.847 96.082ZM309.989 103.979H305.292V98.2529C307.031 97.1738 308.072 95.5615 308.085 93.5684C308.072 89.8232 304.378 87.3604 299.376 87.3477C294.349 87.3604 290.692 89.8232 290.692 93.5684C290.692 95.5996 291.771 97.2373 293.562 98.3164V103.979H288.839V106.645H309.989V103.979ZM293.892 93.5684C293.892 91.2451 296.062 89.8994 299.376 89.9121C302.639 89.8994 304.873 91.2451 304.886 93.5684C304.873 95.8281 302.639 97.2246 299.376 97.2246C296.062 97.2246 293.892 95.8281 293.892 93.5684ZM296.761 103.979V99.4971C297.573 99.6494 298.449 99.7383 299.376 99.7383C300.303 99.7383 301.191 99.6494 302.017 99.4844V103.979H296.761ZM316.565 88.6172H312.655L312.985 101.49H316.235L316.565 88.6172ZM312.503 105.096C312.478 106.276 313.442 107.229 314.636 107.229C315.766 107.229 316.743 106.276 316.743 105.096C316.743 103.928 315.766 102.976 314.636 102.988C313.442 102.976 312.478 103.928 312.503 105.096Z" fill="#8666FF"/>
<path d="M63.623 134.744H61.9531V150.529H63.623V134.744ZM51.125 141.441C51.125 144.843 52.8213 146.987 55.2031 146.979C57.541 146.987 59.2637 144.843 59.2637 141.441C59.2637 138.075 57.541 135.931 55.2031 135.922C52.8213 135.931 51.125 138.075 51.125 141.441ZM52.7422 141.441C52.7334 138.972 53.7354 137.425 55.2031 137.416C56.6445 137.425 57.6465 138.972 57.6465 141.441C57.6465 143.946 56.6445 145.484 55.2031 145.484C53.7354 145.484 52.7334 143.946 52.7422 141.441ZM79.6543 134.744H78.0547V150.494H79.6543V134.744ZM65.9082 146.152L66.9277 147.4C68.4658 146.442 69.5381 144.685 70.1006 142.628C70.6543 144.526 71.6826 146.135 73.1855 147.031L74.1875 145.801C71.9727 144.526 70.8828 141.828 70.8828 139.139V137.873H73.5898V136.52H66.3828V137.873H69.2832V139.139C69.2744 141.942 68.1406 144.808 65.9082 146.152ZM72.4297 141.688H74.873V149.703H76.4551V135.078H74.873V140.316H72.4297V141.688ZM105.195 140.932H102.752V134.744H101.082V150.477H102.752V142.303H105.195V140.932ZM91.0801 146.521H92.3809C94.7451 146.53 97.2236 146.372 99.9219 145.836L99.7285 144.43C97.2236 144.939 94.9297 145.124 92.7324 145.133V136.273H91.0801V146.521ZM120.436 143.006H106.021V144.359H120.436V143.006ZM107.305 141.705H112.648V135.324H111.084V137.17H108.887V135.324H107.305V141.705ZM107.814 150.16H118.871V148.807H109.484V145.607H107.814V150.16ZM108.887 140.352V138.471H111.084V140.352H108.887ZM113.773 141.705H119.135V135.324H117.535V137.17H115.373V135.324H113.773V141.705ZM115.373 140.352V138.471H117.535V140.352H115.373ZM131.475 139.385V137.715H134.902V136.326H126.271V137.715H129.822V139.385C129.813 142.048 128.082 145.019 125.691 146.17L126.676 147.488C128.469 146.592 129.945 144.649 130.666 142.408C131.378 144.465 132.784 146.24 134.551 147.084L135.5 145.783C133.109 144.649 131.466 141.872 131.475 139.385ZM136.59 150.494H138.26V142.391H140.791V140.984H138.26V134.744H136.59V150.494ZM146.346 139.051V136.186H144.729V139.121C144.737 141.802 143.56 144.588 141.336 145.924L142.373 147.172C143.902 146.24 144.992 144.535 145.563 142.54C146.108 144.359 147.102 145.933 148.578 146.82L149.51 145.537C147.4 144.245 146.346 141.564 146.346 139.051ZM147.805 141.67H150.248V149.721H151.83V135.043H150.248V140.281H147.805V141.67ZM153.5 150.494H155.1V134.744H153.5V150.494ZM171.5 141.969H157.086V143.252H171.5V141.969ZM158.791 145.555H168.072V146.715H158.809V150.301H170.217V149.123H160.479V147.822H169.725V144.359H158.791V145.555ZM158.896 136.326H168.02V137.451H158.932V140.932H169.953V139.754H160.584V138.559H169.689V135.148H158.896V136.326ZM191.416 141.213H177.055V142.549H183.4V143.955H178.777V145.203H187.953V146.486H178.795V150.336H190.045V149.053H180.43V147.682H189.605V143.955H185.053V142.549H191.416V141.213ZM177.793 139.297L178.32 140.562C181.027 140.308 183.277 139.332 184.227 137.838C185.176 139.332 187.443 140.308 190.15 140.562L190.695 139.297C187.83 139.06 185.571 137.952 185.237 136.572H190.133V135.254H178.373V136.572H183.216C182.873 137.961 180.641 139.06 177.793 139.297ZM205.654 134.744H203.984V150.529H205.654V134.744ZM193.156 141.441C193.156 144.843 194.853 146.987 197.234 146.979C199.572 146.987 201.295 144.843 201.295 141.441C201.295 138.075 199.572 135.931 197.234 135.922C194.853 135.931 193.156 138.075 193.156 141.441ZM194.773 141.441C194.765 138.972 195.767 137.425 197.234 137.416C198.676 137.425 199.678 138.972 199.678 141.441C199.678 143.946 198.676 145.484 197.234 145.484C195.767 145.484 194.765 143.946 194.773 141.441ZM220.912 139.35H211.719V135.307H210.066V140.686H220.912V139.35ZM208.15 144.008H222.564V142.672H208.15V144.008ZM209.943 150.125H221.018V148.754H211.613V145.502H209.943V150.125ZM232.391 135.922C230.044 135.931 228.383 138.075 228.4 141.441C228.383 144.843 230.044 146.987 232.391 146.979C233.911 146.987 235.142 146.064 235.818 144.482H239.598V150.529H241.25V134.744H239.598V138.172H235.704C235.01 136.748 233.832 135.931 232.391 135.922ZM229.982 141.441C229.991 138.972 230.967 137.425 232.391 137.416C233.814 137.425 234.79 138.972 234.799 141.441C234.79 143.946 233.814 145.484 232.391 145.484C230.967 145.484 229.991 143.946 229.982 141.441ZM236.179 139.543H239.598V143.111H236.223C236.328 142.593 236.381 142.039 236.381 141.441C236.381 140.756 236.302 140.123 236.179 139.543ZM256.807 134.744H255.137V138.752H252.201V140.123H255.137V144.113H256.807V134.744ZM243.676 142.689L244.555 144.025C246.436 143.331 247.815 141.916 248.501 140.158C249.187 141.714 250.487 142.979 252.254 143.586L253.115 142.268C250.733 141.459 249.31 139.517 249.318 137.521V137.188H252.693V135.834H244.203V137.188H247.613V137.539C247.622 139.71 246.119 141.837 243.676 142.689ZM246.207 147.523C246.198 149.396 248.22 150.485 251.533 150.494C254.829 150.485 256.851 149.396 256.859 147.523C256.851 145.651 254.829 144.562 251.533 144.553C248.22 144.562 246.198 145.651 246.207 147.523ZM247.859 147.523C247.851 146.451 249.222 145.845 251.533 145.854C253.827 145.845 255.198 146.451 255.207 147.523C255.198 148.587 253.827 149.193 251.533 149.176C249.222 149.193 247.851 148.587 247.859 147.523ZM266.404 135.008C262.854 134.999 260.771 135.957 260.779 137.715C260.771 139.481 262.854 140.439 266.404 140.439C269.955 140.439 272.021 139.481 272.029 137.715C272.021 135.957 269.955 134.999 266.404 135.008ZM259.232 142.742H273.594V141.406H259.232V142.742ZM260.955 145.203H270.131V146.434H260.973V150.336H272.223V149.053H262.607V147.646H271.783V143.955H260.955V145.203ZM262.52 137.715C262.511 136.783 263.899 136.238 266.404 136.238C268.927 136.238 270.315 136.783 270.307 137.715C270.315 138.69 268.927 139.191 266.404 139.191C263.899 139.191 262.511 138.69 262.52 137.715ZM284.967 138.752V136.062H283.279V138.752C283.279 141.758 281.539 144.772 279.061 145.871L280.08 147.277C281.97 146.354 283.42 144.456 284.149 142.145C284.888 144.298 286.32 146.064 288.131 146.926L289.133 145.607C286.689 144.526 284.949 141.626 284.967 138.752ZM290.557 150.529H292.227V134.744H290.557V150.529ZM300.242 137.574V137.135H303.635V135.781H295.109V137.135H298.572V137.557C298.563 139.728 297.078 141.767 294.617 142.602L295.514 143.902C297.359 143.252 298.73 141.907 299.416 140.211C300.102 141.758 301.411 142.988 303.195 143.604L304.039 142.303C301.631 141.494 300.233 139.587 300.242 137.574ZM296.709 146.363H305.445V150.494H307.115V145.01H296.709V146.363ZM305.445 144.236H307.115V140.193H309.4V138.787H307.115V134.744H305.445V144.236ZM318.084 137.346H315.008V135.201H313.355V137.346H310.262V138.699H318.084V137.346ZM310.771 143.27C310.763 145.423 312.204 146.935 314.182 146.926C316.177 146.935 317.601 145.423 317.609 143.27C317.601 141.151 316.177 139.648 314.182 139.648C312.204 139.648 310.763 141.151 310.771 143.27ZM312.248 143.27C312.239 141.96 313.048 141.046 314.182 141.037C315.315 141.046 316.133 141.96 316.133 143.27C316.133 144.605 315.315 145.502 314.182 145.502C313.048 145.502 312.239 144.605 312.248 143.27ZM318.805 149.756H320.387V142.672H322.197V150.494H323.779V134.744H322.197V141.301H320.387V135.096H318.805V149.756ZM328.35 136.027H326.68V143.164H329.826V145.906C328.341 145.95 326.899 145.95 325.66 145.959L325.924 147.348C328.648 147.339 332.313 147.304 335.645 146.75L335.521 145.52C334.238 145.687 332.858 145.792 331.479 145.854V143.164H334.607V136.027H332.955V138.295H328.35V136.027ZM328.35 141.828V139.561H332.955V141.828H328.35ZM336.471 150.494H338.141V142.654H340.566V141.248H338.141V134.744H336.471V150.494ZM355.824 147.137H352.379V142.988C353.645 142.276 354.4 141.16 354.4 139.771C354.4 137.293 351.966 135.667 348.582 135.658C345.207 135.667 342.772 137.293 342.781 139.771C342.772 141.187 343.563 142.312 344.855 143.023V147.137H341.41V148.525H355.824V147.137ZM344.398 139.771C344.398 138.075 346.112 136.994 348.582 136.994C351.034 136.994 352.774 138.075 352.783 139.771C352.774 141.459 351.034 142.558 348.582 142.566C346.112 142.558 344.398 141.459 344.398 139.771ZM346.508 147.137V143.639C347.141 143.788 347.844 143.867 348.582 143.867C349.338 143.867 350.05 143.788 350.691 143.639V147.137H346.508ZM358.76 149.123C359.437 149.114 359.999 148.561 360.008 147.875C359.999 147.189 359.437 146.627 358.76 146.627C358.074 146.627 357.503 147.189 357.512 147.875C357.503 148.561 358.074 149.114 358.76 149.123ZM63.8867 166.881H59.8613V162.521H63.7285V161.168H58.1914V168.217H63.8867V166.881ZM50.5801 173.525H64.9941V172.172H58.543V168.973H56.9082V172.172H50.5801V173.525ZM51.7754 168.217H52.707C54.377 168.226 55.8008 168.182 57.4883 167.812L57.3477 166.424C55.9854 166.731 54.7549 166.828 53.4453 166.846V162.539H57.207V161.186H51.7754V168.217ZM74.4512 160.887H66.9629V167.812H74.4512V160.887ZM68.5625 172.436C68.5625 174.352 70.6104 175.468 73.9414 175.459C77.2109 175.468 79.2764 174.352 79.2676 172.436C79.2764 170.511 77.2109 169.386 73.9414 169.395C70.6104 169.386 68.5625 170.511 68.5625 172.436ZM68.5977 166.459V162.223H72.7988V166.459H68.5977ZM70.2324 172.436C70.2412 171.311 71.5947 170.704 73.9414 170.713C76.2266 170.704 77.6152 171.311 77.6152 172.436C77.6152 173.517 76.2266 174.149 73.9414 174.141C71.5947 174.149 70.2412 173.517 70.2324 172.436ZM77.5273 169.131H79.1973V159.762H77.5273V169.131ZM94.7363 159.744H93.084V168.639H94.7363V159.744ZM82.6602 167.584H83.9609C86.7207 167.575 89.0938 167.391 91.6953 166.863L91.4668 165.475C89.0938 165.984 86.8701 166.16 84.3301 166.178V160.658H82.6602V167.584ZM84.418 175.283H94.7363V169.359H84.418V175.283ZM86.0527 173.947V170.678H93.1016V173.947H86.0527ZM110.293 159.744H108.623V175.529H110.293V159.744ZM97.7949 166.441C97.7949 169.843 99.4912 171.987 101.873 171.979C104.211 171.987 105.934 169.843 105.934 166.441C105.934 163.075 104.211 160.931 101.873 160.922C99.4912 160.931 97.7949 163.075 97.7949 166.441ZM99.4121 166.441C99.4033 163.972 100.405 162.425 101.873 162.416C103.314 162.425 104.316 163.972 104.316 166.441C104.316 168.946 103.314 170.484 101.873 170.484C100.405 170.484 99.4033 168.946 99.4121 166.441ZM131.615 172.189H125.182V168.832H130.244V167.514H127.889V162.557H130.297V161.203H118.432V162.557H120.822V167.514H118.467V168.832H123.529V172.189H117.201V173.613H131.615V172.189ZM122.475 167.514V162.557H126.254V167.514H122.475ZM145.854 159.744H144.166V175.494H145.854V159.744ZM132.916 171.275L133.795 172.629C139.2 170.036 141.16 166.046 141.16 161.432H133.672V162.768H139.473C139.147 166.441 137.1 169.28 132.916 171.275ZM160.584 159.744H158.932V175.494H160.584V167.514H163.115V166.125H160.584V159.744ZM148.227 163.576H157.561V162.205H153.781V159.955H152.111V162.205H148.227V163.576ZM149.035 168.393C149.035 170.555 150.688 172.058 152.955 172.066C155.214 172.058 156.866 170.555 156.875 168.393C156.866 166.248 155.214 164.736 152.955 164.736C150.688 164.736 149.035 166.248 149.035 168.393ZM150.635 168.393C150.626 167.048 151.61 166.116 152.955 166.107C154.291 166.116 155.267 167.048 155.275 168.393C155.267 169.764 154.291 170.678 152.955 170.66C151.61 170.678 150.626 169.764 150.635 168.393ZM169.672 164.385V162.715H173.258V161.326H164.381V162.715H167.984V164.385C167.967 167.101 166.209 170.054 163.836 171.17L164.803 172.488C166.64 171.592 168.116 169.676 168.846 167.426C169.575 169.526 171.052 171.267 172.906 172.084L173.82 170.783C171.395 169.746 169.663 167.021 169.672 164.385ZM175.244 175.494H176.914V159.744H175.244V175.494ZM188.199 160.588C185.826 160.597 184.051 162.108 184.068 164.244C184.051 166.389 185.826 167.892 188.199 167.9C190.581 167.892 192.33 166.389 192.33 164.244C192.33 162.108 190.581 160.597 188.199 160.588ZM185.404 175.072H186.213C187.391 175.072 188.806 175.011 190.273 174.51L190.027 173.191C189.025 173.525 187.962 173.657 187.039 173.701V169.219H185.404V175.072ZM185.686 164.244C185.677 162.908 186.775 161.977 188.199 161.977C189.632 161.977 190.713 162.908 190.713 164.244C190.713 165.589 189.632 166.529 188.199 166.529C186.775 166.529 185.677 165.589 185.686 164.244ZM189.729 170.555H197.674V169.271H194.545V167.988H192.91V169.271H189.729V170.555ZM190.73 173.262C190.713 174.615 191.926 175.468 193.701 175.459C195.441 175.468 196.672 174.615 196.672 173.262C196.672 171.891 195.441 171.021 193.701 171.012C191.926 171.021 190.713 171.891 190.73 173.262ZM192.207 173.262C192.207 172.62 192.831 172.207 193.701 172.207C194.554 172.207 195.169 172.62 195.178 173.262C195.169 173.903 194.554 174.299 193.701 174.299C192.831 174.299 192.207 173.903 192.207 173.262ZM194.527 167.584H196.197V164.578H198.482V163.189H196.197V159.744H194.527V167.584ZM212.123 161.256H200.891V162.609H210.453V162.803C210.444 164.692 210.444 166.925 209.838 169.975L211.525 170.15C212.114 166.925 212.114 164.745 212.123 162.803V161.256ZM199.379 173.367H213.74V171.979H206.498V166.424H204.846V171.979H199.379V173.367ZM232.092 167.004H222.793V162.311H231.951V160.957H221.123V168.34H225.676V172.189H219.33V173.561H233.744V172.189H227.328V168.34H232.092V167.004ZM248.018 159.762H246.348V164.016H243.342V165.369H246.348V171.293H248.018V159.762ZM234.904 168.006L235.766 169.359C237.638 168.691 239.018 167.303 239.703 165.562C240.389 167.127 241.698 168.393 243.465 169.008L244.326 167.672C241.944 166.881 240.521 164.903 240.529 162.943V162.328H243.904V160.957H235.414V162.328H238.824V162.943C238.833 165.114 237.321 167.188 234.904 168.006ZM237.787 175.16H248.439V173.807H239.457V170.256H237.787V175.16ZM262.818 159.691H261.148V168.357H262.818V164.754H265.121V163.383H262.818V159.691ZM250.461 162.398H259.848V161.08H255.998V159.604H254.328V161.08H250.461V162.398ZM251.322 165.58C251.313 167.18 252.843 168.155 255.154 168.146C257.466 168.155 258.969 167.18 258.969 165.58C258.969 163.989 257.466 162.996 255.154 162.996C252.843 162.996 251.313 163.989 251.322 165.58ZM252.641 170.344H261.166V171.574H252.676V175.336H263.363V174.07H254.311V172.752H262.818V169.096H252.641V170.344ZM252.939 165.58C252.922 164.728 253.792 164.2 255.154 164.191C256.508 164.2 257.387 164.728 257.404 165.58C257.387 166.433 256.508 166.934 255.154 166.934C253.792 166.934 252.922 166.433 252.939 165.58ZM278.463 161.133V160.271H276.723V161.133C276.714 163.251 274.165 165.185 271.08 165.598L271.748 166.969C274.306 166.556 276.564 165.22 277.593 163.365C278.621 165.22 280.88 166.556 283.455 166.969L284.105 165.598C281.012 165.185 278.454 163.225 278.463 161.133ZM270.395 169.887H276.723V175.494H278.357V169.887H284.756V168.516H270.395V169.887ZM295.812 170.15V169.395H294.195V170.15C294.187 171.671 293.088 173.314 291.066 174.035L291.91 175.266C293.396 174.721 294.433 173.675 295.004 172.436C295.487 173.719 296.445 174.835 297.957 175.406C299.398 174.809 300.339 173.657 300.84 172.392C301.385 173.675 302.448 174.729 304.004 175.266L304.83 174.035C302.773 173.367 301.692 171.785 301.701 170.15V169.395H300.066V170.15C300.066 171.363 299.354 172.866 297.913 173.789C296.48 172.937 295.812 171.504 295.812 170.15ZM290.662 164.35C290.671 166.529 292.446 168.041 294.863 168.041C297.271 168.041 299.047 166.529 299.047 164.35C299.047 162.144 297.271 160.632 294.863 160.623C292.446 160.632 290.671 162.144 290.662 164.35ZM292.297 164.35C292.288 162.97 293.369 162.038 294.863 162.047C296.34 162.038 297.412 162.97 297.412 164.35C297.412 165.721 296.34 166.652 294.863 166.652C293.369 166.652 292.288 165.721 292.297 164.35ZM301.736 168.727H303.406V159.762H301.736V168.727ZM318.664 167.004H309.365V162.311H318.523V160.957H307.695V168.34H312.248V172.189H305.902V173.561H320.316V172.189H313.9V168.34H318.664V167.004ZM335.855 168.34H329.475V166.846H334.361V165.545H324.939V164.068H334.045V160.113H323.252V161.432H332.375V162.838H323.287V166.846H327.822V168.34H321.441V169.693H335.855V168.34ZM323.059 172.137H332.445V175.371H334.133V170.801H323.059V172.137ZM59.7207 186.309H50.9492V187.68H52.4785V195.282L50.4746 195.309L50.6504 196.697C53.3838 196.697 57.0752 196.627 60.2832 196.117L60.1777 194.887C59.4746 194.966 58.7451 195.036 57.998 195.089V187.68H59.7207V186.309ZM54.1133 195.256V187.68H56.3984V195.177C55.6338 195.212 54.8604 195.238 54.1133 195.256ZM59.2109 191.986H62.0586V200.494H63.7109V184.744H62.0586V190.615H59.2109V191.986ZM80.5508 197.084H66.1367V198.455H80.5508V197.084ZM66.8047 193.146L67.4902 194.482C69.9863 193.999 72.3154 192.479 73.3262 190.387C74.3545 192.461 76.7012 193.938 79.25 194.412L79.918 193.094C76.9209 192.619 74.1875 190.492 74.1875 188.084V187.592H79.3027V186.238H67.332V187.592H72.4473V188.084C72.4473 190.492 69.7314 192.672 66.8047 193.146ZM96.1074 197.189H89.6738V193.832H94.7363V192.514H92.3809V187.557H94.7891V186.203H82.9238V187.557H85.3145V192.514H82.959V193.832H88.0215V197.189H81.6934V198.613H96.1074V197.189ZM86.9668 192.514V187.557H90.7461V192.514H86.9668ZM111.664 197.084H97.25V198.455H111.664V197.084ZM97.918 193.146L98.6035 194.482C101.1 193.999 103.429 192.479 104.439 190.387C105.468 192.461 107.814 193.938 110.363 194.412L111.031 193.094C108.034 192.619 105.301 190.492 105.301 188.084V187.592H110.416V186.238H98.4453V187.592H103.561V188.084C103.561 190.492 100.845 192.672 97.918 193.146ZM125.076 184.744H123.406V200.477H125.076V192.408H127.52V191.02H125.076V184.744ZM112.824 196.275L113.756 197.576C118.941 195.019 120.945 190.949 120.963 186.396H113.615V187.785H119.258C118.915 191.459 116.771 194.307 112.824 196.275ZM145.889 184.744H144.219V186.854H140.246C139.508 186.08 138.4 185.623 137.117 185.623C134.709 185.623 132.978 187.144 132.986 189.314C132.978 191.494 134.709 192.979 137.117 192.971C138.392 192.979 139.499 192.531 140.237 191.775H144.219V193.568H145.889V184.744ZM134.586 189.314C134.577 187.935 135.641 187.003 137.117 187.012C138.55 187.003 139.613 187.935 139.613 189.314C139.613 190.694 138.55 191.6 137.117 191.6C135.641 191.6 134.577 190.694 134.586 189.314ZM135.113 200.248H146.205V198.895H143.832V195.625H146.012V194.271H135.271V195.625H137.469V198.895H135.113V200.248ZM139.104 198.895V195.625H142.18V198.895H139.104ZM141.037 188.189H144.219V190.404H141.055C141.151 190.062 141.213 189.701 141.213 189.314C141.213 188.919 141.151 188.541 141.037 188.189ZM161.867 184.744H160.268V200.494H161.867V184.744ZM148.49 191.547C148.49 194.966 149.826 197.11 151.883 197.102C153.834 197.11 155.144 195.203 155.293 192.127H157.068V199.721H158.668V185.043H157.068V190.773H155.284C155.091 187.82 153.799 186.001 151.883 186.01C149.826 186.001 148.49 188.137 148.49 191.547ZM150.037 191.547C150.037 189.033 150.749 187.565 151.883 187.574C153.043 187.565 153.764 189.033 153.764 191.547C153.764 194.052 153.043 195.528 151.883 195.52C150.749 195.528 150.037 194.052 150.037 191.547ZM169.549 188.752V186.062H167.861V188.752C167.853 191.67 166.227 194.702 163.783 195.871L164.838 197.225C166.657 196.284 168.028 194.368 168.723 192.101C169.417 194.254 170.771 196.029 172.555 196.926L173.574 195.59C171.166 194.509 169.549 191.635 169.549 188.752ZM171.834 191.336H175.35V200.529H177.002V184.744H175.35V189.982H171.834V191.336ZM198.184 192.303H183.822V193.639H198.184V192.303ZM185.369 188.154C185.36 190.044 187.549 191.16 190.994 191.16C194.431 191.16 196.61 190.044 196.619 188.154C196.61 186.273 194.431 185.122 190.994 185.113C187.549 185.122 185.36 186.273 185.369 188.154ZM185.527 197.664C185.527 199.483 187.566 200.503 190.994 200.494C194.378 200.503 196.417 199.483 196.426 197.664C196.417 195.836 194.378 194.816 190.994 194.834C187.566 194.816 185.527 195.836 185.527 197.664ZM187.092 188.154C187.083 187.056 188.568 186.44 190.994 186.449C193.402 186.44 194.905 187.056 194.896 188.154C194.905 189.235 193.402 189.851 190.994 189.859C188.568 189.851 187.083 189.235 187.092 188.154ZM187.215 197.664C187.206 196.645 188.586 196.1 190.994 196.1C193.367 196.1 194.756 196.645 194.756 197.664C194.756 198.648 193.367 199.202 190.994 199.193C188.586 199.202 187.206 198.648 187.215 197.664ZM212.475 184.762H210.805V194.008H207.641V195.186H210.805V196.697H212.475V184.762ZM199.309 191.951L199.52 193.287C200.794 193.287 202.262 193.287 203.791 193.226V196.205H205.461V193.138C206.85 193.041 208.265 192.9 209.609 192.672L209.504 191.477C206.146 191.898 202.218 191.925 199.309 191.951ZM200.539 188.137C200.53 189.815 202.13 190.879 204.459 190.879C206.762 190.879 208.361 189.815 208.361 188.137C208.361 186.467 206.762 185.359 204.459 185.359C202.121 185.359 200.53 186.467 200.539 188.137ZM201.488 200.16H212.861V198.807H203.141V195.537H201.488V200.16ZM202.121 188.137C202.112 187.196 203.062 186.59 204.459 186.607C205.804 186.59 206.771 187.196 206.779 188.137C206.771 189.068 205.804 189.648 204.459 189.648C203.062 189.648 202.112 189.068 202.121 188.137ZM227.205 184.744H225.553V200.494H227.205V192.514H229.736V191.125H227.205V184.744ZM214.848 188.576H224.182V187.205H220.402V184.955H218.732V187.205H214.848V188.576ZM215.656 193.393C215.656 195.555 217.309 197.058 219.576 197.066C221.835 197.058 223.487 195.555 223.496 193.393C223.487 191.248 221.835 189.736 219.576 189.736C217.309 189.736 215.656 191.248 215.656 193.393ZM217.256 193.393C217.247 192.048 218.231 191.116 219.576 191.107C220.912 191.116 221.888 192.048 221.896 193.393C221.888 194.764 220.912 195.678 219.576 195.66C218.231 195.678 217.247 194.764 217.256 193.393ZM243.236 186.256H232.004V187.609H241.566V187.803C241.558 189.692 241.558 191.925 240.951 194.975L242.639 195.15C243.228 191.925 243.228 189.745 243.236 187.803V186.256ZM230.492 198.367H244.854V196.979H237.611V191.424H235.959V196.979H230.492V198.367ZM263.205 192.004H253.906V187.311H263.064V185.957H252.236V193.34H256.789V197.189H250.443V198.561H264.857V197.189H258.441V193.34H263.205V192.004ZM270.729 185.746C268.259 185.746 266.483 187.275 266.492 189.49C266.483 191.45 267.872 192.874 269.902 193.173V195.73C268.435 195.766 267.028 195.774 265.807 195.783L266.07 197.154C268.795 197.181 272.46 197.154 275.791 196.574L275.668 195.326C274.367 195.493 272.97 195.599 271.572 195.669V193.173C273.559 192.856 274.956 191.441 274.965 189.49C274.956 187.275 273.154 185.746 270.729 185.746ZM268.109 189.49C268.101 188.084 269.217 187.17 270.729 187.152C272.223 187.17 273.321 188.084 273.33 189.49C273.321 190.888 272.223 191.819 270.729 191.811C269.217 191.819 268.101 190.888 268.109 189.49ZM276.617 200.494H278.287V192.549H280.713V191.143H278.287V184.744H276.617V200.494ZM294.318 192.215H285.002V187.521H294.178V186.15H283.35V193.586H294.318V192.215ZM281.557 198.42H295.971V197.031H281.557V198.42ZM305.182 185.5H297.869V186.783H303.547V188.277H297.922V192.496H299.205C302.448 192.487 304.479 192.408 306.904 192.004L306.746 190.738C304.443 191.09 302.545 191.169 299.557 191.178V189.49H305.182V185.5ZM299.82 194.957H308.469V196.293H299.873V200.336H310.701V199.035H301.525V197.523H310.174V193.656H299.82V194.957ZM308.504 193.006H310.174V184.744H308.504V193.006ZM326.205 184.744H324.623V200.494H326.205V184.744ZM312.617 195.941L313.566 197.137C315.79 195.836 317.293 194.236 318.225 192.408H321.301V199.721H322.883V185.148H321.301V191.072H318.805C319.288 189.701 319.499 188.233 319.508 186.695H313.355V188.066H317.847C317.557 191.31 315.957 193.955 312.617 195.941ZM342.641 197.137H339.195V192.988C340.461 192.276 341.217 191.16 341.217 189.771C341.217 187.293 338.782 185.667 335.398 185.658C332.023 185.667 329.589 187.293 329.598 189.771C329.589 191.187 330.38 192.312 331.672 193.023V197.137H328.227V198.525H342.641V197.137ZM331.215 189.771C331.215 188.075 332.929 186.994 335.398 186.994C337.851 186.994 339.591 188.075 339.6 189.771C339.591 191.459 337.851 192.558 335.398 192.566C332.929 192.558 331.215 191.459 331.215 189.771ZM333.324 197.137V193.639C333.957 193.788 334.66 193.867 335.398 193.867C336.154 193.867 336.866 193.788 337.508 193.639V197.137H333.324ZM346.684 186.273H344.627L344.785 195.326H346.525L346.684 186.273ZM344.416 197.875C344.407 198.561 344.979 199.114 345.664 199.123C346.341 199.114 346.903 198.561 346.912 197.875C346.903 197.189 346.341 196.627 345.664 196.627C344.979 196.627 344.407 197.189 344.416 197.875Z" fill="#6662A8"/>
<path d="M258.863 450.357L326.984 568.961L334.196 582.032C334.585 582.739 335.238 583.262 336.013 583.488C336.787 583.713 337.619 583.621 338.326 583.233C339.033 582.844 339.557 582.19 339.782 581.415C340.007 580.64 339.916 579.807 339.527 579.1L335.555 567.523L342.497 580.107C342.886 580.814 343.54 581.337 344.314 581.561C345.089 581.786 345.92 581.694 346.627 581.305C347.334 580.917 347.858 580.264 348.083 579.489C348.308 578.715 348.216 577.882 347.828 577.175L343.03 564.01L351.443 577.882C351.832 578.589 352.486 579.112 353.261 579.337C354.036 579.563 354.868 579.471 355.576 579.082C356.282 578.693 356.805 578.039 357.03 577.264C357.255 576.489 357.163 575.657 356.774 574.95L350.293 560.602L358.298 571.883C358.491 572.233 358.75 572.542 359.062 572.791C359.374 573.041 359.731 573.227 360.115 573.338C360.499 573.449 360.9 573.484 361.297 573.44C361.694 573.396 362.079 573.274 362.428 573.081C363.135 572.692 363.659 572.038 363.884 571.263C364.11 570.488 364.018 569.656 363.629 568.948L357.001 557.28L349.228 542.73L354.762 541.67C356.442 541.67 358.061 539.814 358.077 538.131C358.079 537.731 358.002 537.335 357.852 536.965C357.701 536.595 357.479 536.258 357.197 535.974C356.916 535.69 356.582 535.464 356.214 535.309C355.845 535.154 355.45 535.074 355.05 535.072L345.108 535.018L290.101 432.065" fill="#F6C4DE"/>
<path d="M287.298 557.713C288.339 562.943 288.825 568.269 288.746 573.601H126.027C125.954 568.278 126.445 562.963 127.49 557.744L165.81 366.158C168.597 356.444 174.2 348.268 181.499 342.527C188.798 336.786 197.816 333.459 207.379 333.459C226.499 333.459 243.389 346.716 248.934 366.158L287.298 557.713Z" fill="#8C81F7"/>
<path d="M126.027 573.601H288.747C288.669 580.065 287.759 586.491 286.037 592.722L286.067 592.706L252.706 721.737H217.269L208.616 651.042H206.092L197.454 721.737H162.03L128.666 592.706L128.742 592.768C128.743 592.746 128.738 592.725 128.727 592.706C127.01 586.48 126.103 580.059 126.027 573.601Z" fill="#E2E2E2"/>
<path d="M163.811 718.867C163.811 718.867 134.549 735.884 134.391 738.428C134.233 740.973 198.162 740.019 198.636 738.428C199.111 736.838 197.362 719.504 197.362 719.504" fill="#F6C4DE"/>
<path d="M250.969 717.832C250.969 717.832 280.231 734.849 280.389 737.393C280.548 739.938 216.618 738.982 216.144 737.393C215.67 735.805 217.419 718.467 217.419 718.467" fill="#F6C4DE"/>
<path d="M301.174 439.645L251.351 464.884L215.684 364.873C214.485 361.511 214.553 357.827 215.876 354.512C217.199 351.197 219.685 348.477 222.868 346.864C226.053 345.251 229.717 344.855 233.172 345.75C236.628 346.645 239.639 348.77 241.64 351.725L301.174 439.645Z" fill="#8C81F7"/>
<path d="M113.172 439.662L162.995 464.902L198.662 364.891C199.861 361.529 199.793 357.845 198.47 354.53C197.148 351.215 194.661 348.497 191.477 346.884C188.293 345.27 184.63 344.874 181.174 345.768C177.718 346.663 174.707 348.787 172.706 351.743L113.172 439.662Z" fill="#8C81F7"/>
<path d="M183.133 304.758C183.133 304.758 183.533 279.131 210.98 278.029C233.897 277.109 240.87 298.035 241.675 300.768C246.937 318.578 268.477 336.857 293.824 340.029C319.17 343.2 304.452 375.466 290.764 373.245C277.076 371.024 244.179 359.94 225.57 328.324C206.962 296.709 183.133 309.431 183.133 307.095V304.758Z" fill="#806CF6"/>
<path d="M209.307 331.565C222.653 331.565 233.473 321.158 233.473 308.322C233.473 295.485 222.653 285.079 209.307 285.079C195.96 285.079 185.141 295.485 185.141 308.322C185.141 321.158 195.96 331.565 209.307 331.565Z" fill="#F6C4DE"/>
<path d="M227.484 304.61H235.747C236.732 304.61 237.676 305.001 238.372 305.697C239.068 306.393 239.459 307.337 239.459 308.322C239.459 309.306 239.068 310.25 238.372 310.946C237.676 311.642 236.732 312.034 235.747 312.034H227.484V304.61Z" fill="#F6C4DE"/>
<path d="M191.129 312.034H182.866C182.379 312.034 181.896 311.938 181.446 311.751C180.995 311.564 180.586 311.291 180.241 310.946C179.897 310.602 179.623 310.192 179.437 309.742C179.25 309.292 179.154 308.809 179.154 308.322C179.154 307.834 179.25 307.351 179.437 306.901C179.623 306.451 179.897 306.042 180.241 305.697C180.586 305.352 180.995 305.079 181.446 304.892C181.896 304.706 182.379 304.61 182.866 304.61H191.129V312.036V312.034Z" fill="#F6C4DE"/>
<path d="M198.499 304.87C199.355 304.87 200.049 304.176 200.049 303.32C200.049 302.464 199.355 301.77 198.499 301.77C197.643 301.77 196.949 302.464 196.949 303.32C196.949 304.176 197.643 304.87 198.499 304.87Z" fill="#624EC5"/>
<path d="M217.339 304.87C218.195 304.87 218.889 304.176 218.889 303.32C218.889 302.464 218.195 301.77 217.339 301.77C216.483 301.77 215.789 302.464 215.789 303.32C215.789 304.176 216.483 304.87 217.339 304.87Z" fill="#624EC5"/>
<path d="M208.629 310.483C208.48 310.484 208.334 310.442 208.209 310.361C208.084 310.281 207.986 310.166 207.925 310.03C207.332 308.694 206.65 307.4 205.885 306.155C205.727 307.338 205.652 308.53 205.659 309.724C205.659 309.927 205.578 310.121 205.434 310.265C205.291 310.408 205.097 310.489 204.894 310.489C204.691 310.489 204.496 310.408 204.353 310.265C204.209 310.121 204.129 309.927 204.129 309.724C204.129 304.903 204.868 304.426 205.149 304.248C205.285 304.157 205.442 304.103 205.605 304.091C205.768 304.079 205.931 304.109 206.079 304.179C207.01 304.597 208.374 307.253 209.337 309.405C209.38 309.497 209.404 309.597 209.407 309.698C209.411 309.8 209.394 309.901 209.358 309.996C209.323 310.09 209.268 310.177 209.198 310.251C209.129 310.325 209.045 310.384 208.952 310.425C208.85 310.468 208.74 310.488 208.629 310.483Z" fill="#B7577E"/>
<path d="M207.096 320.482C205.346 320.486 203.612 320.14 201.998 319.463C201.906 319.421 201.823 319.361 201.755 319.287C201.686 319.213 201.633 319.126 201.598 319.031C201.563 318.936 201.547 318.835 201.551 318.734C201.556 318.633 201.58 318.534 201.623 318.443C201.665 318.351 201.725 318.268 201.799 318.2C201.873 318.131 201.96 318.078 202.055 318.043C202.149 318.008 202.25 317.992 202.351 317.997C202.452 318.001 202.551 318.025 202.643 318.068C202.869 318.175 208.313 320.617 213.006 316.951C213.085 316.888 213.177 316.842 213.274 316.814C213.372 316.787 213.474 316.779 213.574 316.792C213.675 316.804 213.772 316.836 213.86 316.886C213.948 316.936 214.025 317.004 214.087 317.084C214.15 317.163 214.196 317.255 214.223 317.352C214.251 317.45 214.258 317.552 214.246 317.653C214.233 317.753 214.201 317.85 214.15 317.938C214.1 318.026 214.032 318.103 213.952 318.165C211.995 319.691 209.578 320.508 207.096 320.482Z" fill="#624EC5"/>
<path d="M266.284 461.18C266.137 461.18 265.995 461.129 265.881 461.036C265.767 460.943 265.689 460.814 265.659 460.67L254.574 405.228C254.558 405.145 254.559 405.06 254.575 404.977C254.592 404.894 254.625 404.816 254.673 404.746C254.72 404.677 254.781 404.617 254.852 404.571C254.922 404.525 255.001 404.493 255.084 404.478C255.167 404.462 255.252 404.462 255.335 404.479C255.417 404.496 255.496 404.529 255.566 404.576C255.635 404.624 255.695 404.685 255.741 404.755C255.787 404.826 255.819 404.905 255.834 404.988L266.921 460.43C266.938 460.513 266.937 460.598 266.92 460.681C266.903 460.763 266.87 460.842 266.823 460.911C266.775 460.981 266.715 461.041 266.644 461.087C266.573 461.133 266.494 461.164 266.411 461.18C266.369 461.183 266.326 461.183 266.284 461.18Z" fill="#1D1D1B"/>
<path d="M147.912 459.288C147.873 459.292 147.833 459.292 147.794 459.288C147.712 459.273 147.633 459.241 147.563 459.195C147.493 459.15 147.432 459.091 147.385 459.021C147.338 458.952 147.304 458.874 147.287 458.792C147.27 458.71 147.269 458.626 147.284 458.543L157.26 405.663C157.276 405.581 157.307 405.502 157.353 405.432C157.398 405.362 157.458 405.301 157.527 405.254C157.596 405.207 157.674 405.173 157.756 405.156C157.838 405.139 157.922 405.138 158.005 405.154C158.087 405.169 158.166 405.2 158.236 405.246C158.306 405.292 158.367 405.351 158.414 405.42C158.461 405.489 158.495 405.567 158.512 405.649C158.529 405.731 158.53 405.816 158.515 405.898L148.541 458.778C148.511 458.923 148.432 459.052 148.317 459.145C148.203 459.238 148.059 459.289 147.912 459.288Z" fill="#1D1D1B"/>
<path d="M207.391 651.685C207.222 651.685 207.06 651.617 206.941 651.498C206.821 651.378 206.754 651.216 206.754 651.047V618.942C206.754 618.773 206.821 618.611 206.941 618.492C207.06 618.372 207.222 618.305 207.391 618.305C207.56 618.305 207.722 618.372 207.842 618.492C207.962 618.611 208.029 618.773 208.029 618.942V651.047C208.029 651.216 207.962 651.378 207.842 651.498C207.722 651.617 207.56 651.685 207.391 651.685Z" fill="#1D1D1B"/>
<path d="M143.225 454.888L124.155 445.228L103.028 368.875L109.095 361.005C109.588 360.366 109.806 359.558 109.702 358.758C109.598 357.958 109.181 357.232 108.542 356.74C107.211 355.72 104.744 355.843 103.719 357.174L99.479 360.885L92.7842 345.811L87.6573 333.408C87.3388 332.666 86.7386 332.081 85.989 331.782C85.2394 331.483 84.4015 331.494 83.6598 331.812C82.9188 332.13 82.3346 332.73 82.0358 333.479C81.737 334.229 81.748 335.066 82.0664 335.807L86.041 349.064L78.7115 335.131C78.3924 334.39 77.7921 333.806 77.0425 333.507C76.2929 333.208 75.4553 333.219 74.7139 333.538C74.3468 333.695 74.0143 333.924 73.7355 334.21C73.4566 334.496 73.2369 334.834 73.0889 335.205C72.9409 335.576 72.8675 335.973 72.8729 336.372C72.8784 336.771 72.9625 337.166 73.1205 337.533L78.8925 352.689L71.4609 340.814C71.1424 340.072 70.5422 339.487 69.7926 339.188C69.0429 338.889 68.2051 338.9 67.4634 339.218C66.7222 339.537 66.138 340.137 65.8392 340.887C65.5405 341.636 65.5515 342.474 65.87 343.215L71.5271 356.427L64.8375 346.178C64.6801 345.811 64.4517 345.478 64.1657 345.199C63.8797 344.92 63.5415 344.701 63.1706 344.552C62.7996 344.404 62.4031 344.331 62.0037 344.336C61.6042 344.341 61.2096 344.424 60.8425 344.582C60.4753 344.739 60.1428 344.968 59.8639 345.254C59.585 345.54 59.3652 345.878 59.217 346.249C59.0688 346.62 58.9952 347.016 59.0002 347.416C59.0053 347.815 59.089 348.21 59.2466 348.577L77.2022 379.048L97.0265 468.891C102.65 479.393 116.825 481.465 125.22 473.014L143.225 454.888Z" fill="#F6C4DE"/>
</svg>
