<svg width="414" height="94" viewBox="0 0 414 94" fill="none" xmlns="http://www.w3.org/2000/svg">
<rect x="0.05" y="0.05" width="413.9" height="93.9" fill="white" stroke="black" stroke-width="0.1"/>
<path fill-rule="evenodd" clip-rule="evenodd" d="M156.977 26.142C156.935 26.142 156.892 26.1472 156.849 26.1575C152.889 27.1017 149.668 31.2583 149.668 35.4226C149.668 40.6616 154.068 44.9241 159.477 44.9241C164.353 44.9241 168.428 41.5594 169.167 36.9223C169.172 36.8835 169.191 36.7711 169.081 36.6459C168.977 36.5283 168.812 36.4586 168.639 36.4586C166.757 36.4586 165.321 36.4999 164.2 36.5309C161.485 36.6097 160.363 36.6394 159.253 35.8424C157.581 34.6425 157.44 32.581 157.44 26.5179C157.44 26.4094 157.392 26.319 157.296 26.2466C157.207 26.1782 157.093 26.142 156.977 26.142M159.477 46.8616C152.965 46.8616 147.668 41.7299 147.668 35.4226C147.668 30.4213 151.572 25.42 156.371 24.2756C157.12 24.0986 157.925 24.2639 158.531 24.7212C159.108 25.1604 159.44 25.8152 159.44 26.5179C159.44 32.1819 159.637 33.706 160.444 34.286C160.973 34.6644 161.699 34.6606 164.143 34.5947C165.279 34.5624 166.733 34.5211 168.639 34.5211C169.399 34.5211 170.115 34.8362 170.6 35.3852C171.051 35.8954 171.248 36.5619 171.144 37.2181C170.253 42.8045 165.347 46.8616 159.477 46.8616" fill="#CCCCCC"/>
<mask id="mask0_764_15066" style="mask-type:alpha" maskUnits="userSpaceOnUse" x="161" y="19" width="15" height="14">
<path fill-rule="evenodd" clip-rule="evenodd" d="M161.633 19.2922H175.525V32.5826H161.633V19.2922Z" fill="white"/>
</mask>
<g mask="url(#mask0_764_15066)">
<path fill-rule="evenodd" clip-rule="evenodd" d="M163.682 21.2315C163.535 24.4852 163.752 28.6883 163.854 30.3532C163.859 30.4527 163.934 30.525 164.035 30.5302C165.406 30.6064 170.128 30.8182 173.524 30.3339C173.532 28.5204 172.251 26.061 170.322 24.1933C168.343 22.279 166.002 21.2315 163.711 21.2315H163.682ZM168.087 32.5827C166.34 32.5827 164.803 32.5142 163.919 32.4651C162.807 32.4018 161.922 31.5429 161.858 30.4656C161.754 28.758 161.528 24.4193 161.688 21.0636C161.732 20.0884 162.546 19.3121 163.54 19.2953C166.39 19.2152 169.33 20.4965 171.735 22.8228C174.079 25.0923 175.567 28.0747 175.524 30.4217C175.508 31.3375 174.822 32.1022 173.894 32.2378C172.083 32.5026 169.963 32.5827 168.087 32.5827V32.5827Z" fill="#CCCCCC"/>
</g>
<path d="M154.023 52.5312H153.109V62.9727H154.023V52.5312ZM146.008 54.2656H149.934V56.457H146.031V60.4414H146.898C148.697 60.4414 150.279 60.3652 152.195 60.0664L152.102 59.293C150.238 59.5918 148.697 59.6738 146.969 59.668V57.207H150.859V53.5039H146.008V54.2656ZM165.332 60.875H160.973V58.4727H164.395V57.7344H162.766V54.3125H164.418V53.5508H156.637V54.3125H158.289V57.7344H156.66V58.4727H160.07V60.875H155.793V61.6602H165.332V60.875ZM159.203 57.7344V54.3125H161.863V57.7344H159.203ZM174.602 58.168H168.332V56.4922H174.262V55.7539H168.332V54.207H174.484V53.4336H167.395V58.918H174.602V58.168ZM166.164 61.5898H175.703V60.8281H166.164V61.5898Z" fill="#CCCCCC"/>
<path d="M240.613 54.0664V53.2695H239.652V54.0664C239.646 55.8594 237.625 57.4355 235.82 57.7812L236.242 58.5547C237.818 58.1855 239.465 57.0723 240.145 55.543C240.818 57.0723 242.471 58.1914 244.047 58.5547L244.469 57.7812C242.658 57.4414 240.619 55.8535 240.613 54.0664ZM235.422 61.5312H244.961V60.7695H235.422V61.5312ZM254.23 58.168H247.961V56.4922H253.891V55.7539H247.961V54.207H254.113V53.4336H247.023V58.918H254.23V58.168ZM245.793 61.5898H255.332V60.8281H245.793V61.5898ZM260.23 53.6914H256.492V54.4531H259.352V56.5273H256.516V60.3828H257.207C258.525 60.377 259.721 60.3418 261.203 60.0781L261.133 59.3164C259.744 59.5625 258.607 59.5977 257.406 59.6094V57.2891H260.23V53.6914ZM260.734 57.043H262.07V62.3984H262.938V52.7891H262.07V56.293H260.734V57.043ZM264.191 62.9492H265.07V52.5312H264.191V62.9492ZM270.32 54.7109V54.5703H272.711V53.832H270.332V52.5312H269.406V53.832H267.004V54.5703H269.406V54.7109C269.406 56.1406 268.293 57.418 266.746 57.9102L267.203 58.6367C268.457 58.2207 269.43 57.3242 269.887 56.1758C270.361 57.2129 271.352 58.0098 272.582 58.3672L273.016 57.6523C271.457 57.2012 270.314 56.0352 270.32 54.7109ZM268.141 61.0273C268.135 62.2402 269.459 62.9258 271.656 62.9258C273.836 62.9258 275.16 62.2402 275.172 61.0273C275.16 59.8379 273.836 59.1406 271.656 59.1523C269.459 59.1406 268.135 59.8379 268.141 61.0273ZM269.066 61.0273C269.066 60.3184 270.033 59.8789 271.656 59.8789C273.273 59.8789 274.258 60.3184 274.258 61.0273C274.258 61.7656 273.273 62.1992 271.656 62.1992C270.033 62.1992 269.066 61.7656 269.066 61.0273ZM274.223 58.9297H275.137V52.543H274.223V58.9297Z" fill="#CCCCCC"/>
<mask id="mask1_764_15066" style="mask-type:alpha" maskUnits="userSpaceOnUse" x="245" y="36" width="23" height="11">
<path fill-rule="evenodd" clip-rule="evenodd" d="M245 36.2617H267.766V46.8602H245V36.2617Z" fill="white"/>
</mask>
<g mask="url(#mask1_764_15066)">
<path fill-rule="evenodd" clip-rule="evenodd" d="M256.385 38.4176C250.26 38.4176 247.156 39.4697 247.156 41.5466C247.156 43.6421 250.26 44.7043 256.385 44.7043C262.508 44.7043 265.611 43.6522 265.611 41.5753C265.611 39.4798 262.508 38.4176 256.385 38.4176M256.385 46.8602C253.569 46.8602 245 46.8602 245 41.5466C245 36.8093 251.498 36.2617 256.385 36.2617C259.2 36.2617 267.767 36.2617 267.767 41.5754C267.767 46.3126 261.27 46.8602 256.385 46.8602" fill="#CCCCCC"/>
</g>
<mask id="mask2_764_15066" style="mask-type:alpha" maskUnits="userSpaceOnUse" x="248" y="18" width="17" height="16">
<path fill-rule="evenodd" clip-rule="evenodd" d="M248.75 18H264.014V33.2619H248.75V18Z" fill="white"/>
</mask>
<g mask="url(#mask2_764_15066)">
<path fill-rule="evenodd" clip-rule="evenodd" d="M256.383 20.052C253.306 20.052 250.802 22.5543 250.802 25.6316C250.792 28.6987 253.277 31.1996 256.342 31.2111L256.383 32.2373V31.2111C259.459 31.2111 261.961 28.7073 261.961 25.6316C261.961 22.5543 259.459 20.052 256.383 20.052M256.383 33.262H256.337C252.138 33.2491 248.736 29.824 248.75 25.6272C248.75 21.4231 252.174 17.9995 256.383 17.9995C260.592 17.9995 264.014 21.4231 264.014 25.6315C264.014 29.8398 260.592 33.262 256.383 33.262" fill="#CCCCCC"/>
</g>
<path d="M72.7539 59.832H65.582V62.8086H72.7539V59.832ZM64.4219 59.0352H73.9141V58.2969H69.625V57.4941C71.4941 57.4238 72.543 56.9316 72.543 56.0234C72.543 55.0566 71.3242 54.5586 69.168 54.5469C67.0059 54.5586 65.7812 55.0566 65.7812 56.0234C65.7812 56.9316 66.8359 57.4238 68.7109 57.4941V58.2969H64.4219V59.0352ZM64.9141 54.125H73.3633V53.4102H69.625V52.3789H68.7109V53.4102H64.9141V54.125ZM66.4961 62.0938V60.5469H71.8516V62.0938H66.4961ZM66.7656 56.0234C66.7598 55.4844 67.6387 55.2031 69.168 55.1914C70.6973 55.2031 71.5645 55.4844 71.5703 56.0234C71.5645 56.5566 70.6973 56.8555 69.168 56.8555C67.6387 56.8555 66.7598 56.5566 66.7656 56.0234Z" fill="#8666FF"/>
<path fill-rule="evenodd" clip-rule="evenodd" d="M65 38.0654C65.0148 38.0435 65.03 38.0217 65.0454 38.0002H65V38.0654ZM74.3372 46.3334H76.7952C79.7707 46.3334 82.1905 43.8578 82.1905 40.8156V29.3072C82.1739 28.0134 81.5887 26.8171 80.6012 26.0411L72.1921 19.1242C70.3575 17.6248 67.7959 17.6248 65.9575 19.1268L57.6085 26.0371C56.5979 26.8263 56.0128 28.0253 56 29.3349V40.8156C56 43.8578 58.4197 46.3334 61.3952 46.3334H63.8533C65.1628 46.3334 66.2437 45.3136 66.3816 44.0093C66.4085 43.9197 66.4213 43.8248 66.4213 43.726V39.6865C66.4213 39.2043 66.8109 38.8077 67.2823 38.8051H70.9695C71.4511 38.8051 71.8433 39.2004 71.8433 39.6865V43.7392C71.8433 45.1595 72.9293 46.2991 74.3372 46.3334Z" fill="#8666FF"/>
<path d="M344.059 52.5312H343.133V54.4531H340.812V55.2148H343.133V57.9219H344.059V52.5312ZM335.41 57.207L335.914 57.9453C337.145 57.5 338.088 56.5918 338.533 55.4023C338.996 56.457 339.916 57.2773 341.07 57.6875L341.562 56.9727C340.039 56.4746 338.961 55.2207 338.973 53.8555V52.8711H338.07V53.8555C338.059 55.3789 336.98 56.6855 335.41 57.207ZM337.309 59.1875H343.145V60.2305H337.332V62.8086H344.445V62.0703H338.234V60.9336H344.059V58.4492H337.309V59.1875ZM354.43 52.5312H353.504V55.25H351.406V56.0117H353.504V58.7422H354.43V52.5312ZM345.84 57.9102L346.32 58.6484C347.562 58.1738 348.529 57.2012 348.975 55.9824C349.426 57.0547 350.334 57.9336 351.5 58.3555L351.98 57.6172C350.457 57.0957 349.414 55.8008 349.414 54.4414V54.0664H351.746V53.293H346.133V54.0664H348.488V54.4531C348.488 55.9414 347.387 57.3535 345.84 57.9102ZM347.48 61.0039C347.475 62.2344 348.805 62.9375 350.973 62.9492C353.135 62.9375 354.465 62.2344 354.465 61.0039C354.465 59.7793 353.135 59.0645 350.973 59.0703C348.805 59.0645 347.475 59.7793 347.48 61.0039ZM348.395 61.0039C348.389 60.2422 349.373 59.7852 350.973 59.7852C352.566 59.7852 353.551 60.2422 353.551 61.0039C353.551 61.7598 352.566 62.2168 350.973 62.2109C349.373 62.2168 348.389 61.7598 348.395 61.0039Z" fill="#CCCCCC"/>
<mask id="mask3_764_15066" style="mask-type:alpha" maskUnits="userSpaceOnUse" x="331" y="17" width="29" height="30">
<path fill-rule="evenodd" clip-rule="evenodd" d="M331.834 17.7507H359.154V46.2421H331.834V17.7507Z" fill="white"/>
</mask>
<g mask="url(#mask3_764_15066)">
<path fill-rule="evenodd" clip-rule="evenodd" d="M339.204 38.9807C339.528 38.9807 339.853 39.0206 340.17 39.1031C341.128 39.3534 341.959 39.9749 342.452 40.8095C342.773 41.3334 342.95 41.9452 342.955 42.5695C342.955 43.4632 343.695 44.1796 344.604 44.1796H346.379C347.285 44.1796 348.024 43.4674 348.028 42.5887C348.023 41.618 348.414 40.6954 349.129 40.001C349.835 39.3162 350.821 38.9051 351.807 38.9326C352.453 38.9477 353.075 39.1169 353.623 39.4194C354.412 39.858 355.419 39.5967 355.875 38.8405L356.816 37.3184C357.026 36.9677 357.087 36.5277 356.975 36.1221C356.864 35.7165 356.586 35.3645 356.212 35.1569C355.337 34.6674 354.712 33.8781 354.453 32.9321C354.197 32.004 354.337 30.9906 354.837 30.156C355.163 29.606 355.64 29.1426 356.212 28.8236C356.98 28.3877 357.249 27.4129 356.803 26.6539C356.785 26.6236 356.768 26.592 356.754 26.559L355.923 25.162C355.472 24.3989 354.466 24.1362 353.677 24.5721C352.824 25.0616 351.809 25.2019 350.835 24.953C349.862 24.7082 349.046 24.1101 348.537 23.2659C348.211 22.7379 348.034 22.1232 348.028 21.4976C348.041 21.0274 347.871 20.6052 347.562 20.2959C347.255 19.9879 346.823 19.8132 346.379 19.8132H344.604C344.165 19.8132 343.754 19.9796 343.444 20.2794C343.135 20.5805 342.967 20.9806 342.969 21.4069C342.94 23.4171 341.247 25.0355 339.197 25.0355C338.54 25.0286 337.906 24.8567 337.357 24.5377C336.585 24.1115 335.576 24.3741 335.124 25.1372L334.165 26.6676C333.726 27.4074 333.995 28.385 334.777 28.8264C335.937 29.4781 336.661 30.6936 336.661 31.9971C336.661 33.3006 335.937 34.5147 334.774 35.1679C333.996 35.6051 333.727 36.5772 334.178 37.3335L335.072 38.8295C335.293 39.2159 335.654 39.495 336.072 39.6091C336.488 39.7219 336.947 39.6737 337.33 39.4675C337.892 39.1471 338.547 38.9807 339.204 38.9807M346.379 46.2421H344.604C342.523 46.2421 340.83 44.6004 340.83 42.5805C340.827 42.3316 340.754 42.0731 340.616 41.849C340.394 41.4722 340.034 41.2027 339.619 41.0955C339.207 40.9882 338.755 41.0474 338.384 41.2564C337.494 41.7376 336.447 41.8545 335.489 41.5932C334.533 41.3306 333.707 40.6926 333.223 39.847L332.337 38.3661C331.302 36.6226 331.918 34.3882 333.712 33.3817C334.22 33.0971 334.536 32.5664 334.536 31.9971C334.536 31.4279 334.22 30.8957 333.712 30.6111C331.917 29.5991 331.302 27.3592 332.336 25.6157L333.296 24.0854C334.318 22.3611 336.627 21.7534 338.428 22.7571C338.673 22.8987 338.939 22.9702 339.21 22.973C340.092 22.973 340.83 22.2662 340.844 21.3972C340.839 20.4389 341.228 19.519 341.938 18.8246C342.651 18.1316 343.597 17.7507 344.604 17.7507H346.379C347.394 17.7507 348.38 18.155 349.087 18.8576C349.792 19.5644 350.182 20.5337 350.152 21.5169C350.155 21.7382 350.23 21.994 350.366 22.2181C350.591 22.5894 350.947 22.8506 351.369 22.9579C351.791 23.0596 352.233 23.0046 352.608 22.7887C354.422 21.7836 356.73 22.3859 357.765 24.1321L358.648 25.6157C358.67 25.6556 358.69 25.6941 358.707 25.734C359.645 27.4541 359.019 29.6197 357.276 30.6084C357.023 30.75 356.817 30.948 356.676 31.1872C356.456 31.5571 356.395 31.9971 356.506 32.4014C356.619 32.8139 356.89 33.1562 357.271 33.368C358.131 33.8479 358.772 34.6564 359.029 35.59C359.285 36.5222 359.145 37.5342 358.645 38.3689L357.704 39.8896C356.669 41.6166 354.361 42.2147 352.566 41.2082C352.327 41.0749 352.05 41.002 351.775 40.9951H351.767C351.358 40.9951 350.937 41.1642 350.631 41.4599C350.321 41.761 350.151 42.1625 350.153 42.5887C350.143 44.6086 348.451 46.2421 346.379 46.2421" fill="#CCCCCC"/>
</g>
<path fill-rule="evenodd" clip-rule="evenodd" d="M345.498 29.4026C344.025 29.4026 342.826 30.5672 342.826 31.9972C342.826 33.4272 344.025 34.5891 345.498 34.5891C346.971 34.5891 348.17 33.4272 348.17 31.9972C348.17 30.5672 346.971 29.4026 345.498 29.4026M345.498 36.6516C342.853 36.6516 340.701 34.5643 340.701 31.9972C340.701 29.4301 342.853 27.3401 345.498 27.3401C348.143 27.3401 350.295 29.4301 350.295 31.9972C350.295 34.5643 348.143 36.6516 345.498 36.6516" fill="#CCCCCC"/>
</svg>
