<svg width="414" height="896" viewBox="0 0 414 896" fill="none" xmlns="http://www.w3.org/2000/svg">
<g clip-path="url(#clip0_764_15479)">
<rect width="414" height="896" fill="white"/>
<path d="M357.247 848.966H362.754V848.028H358.711V847.958L360.657 845.954C362.157 844.407 362.596 843.669 362.602 842.72C362.596 841.401 361.506 840.364 359.965 840.364C358.43 840.364 357.27 841.372 357.282 842.872H358.278C358.284 841.923 358.917 841.284 359.93 841.278C360.885 841.284 361.612 841.847 361.618 842.72C361.612 843.505 361.131 844.079 360.129 845.146L357.235 848.192L357.247 848.966Z" fill="#6662A8"/>
<path d="M364.125 761.25L372.875 752.5L364.125 743.75" stroke="#6662A8" stroke-width="2" stroke-linecap="round" stroke-linejoin="round"/>
<path d="M104 467.338H126.828C126.828 467.338 125.871 458.052 115.841 458C105.392 457.941 104 467.338 104 467.338Z" fill="#FA827A"/>
<path d="M118.181 484.66V480.011C118.801 479.512 119.409 478.839 120 478H111C111.716 478.939 112.452 479.672 113.2 480.194V485C114.847 484.012 116.525 483.898 118.181 484.66Z" fill="#FA827A"/>
<path d="M108.297 504.945C108.297 500.475 111.921 496.851 116.391 496.851V496.851C120.861 496.851 124.485 500.475 124.485 504.945V567.54C124.485 572.01 120.861 575.634 116.391 575.634V575.634C111.921 575.634 108.297 572.01 108.297 567.54V504.945Z" fill="#FA827A"/>
<path d="M327.518 444.229H322.705V443.463H326.301V442.123H319.314V441.412H325.904V440.154H319.314V439.457H326.191V438.117H317.564V443.463H320.955V444.229H316.143V445.596H327.518V444.229ZM317.469 448.207C317.469 449.547 319.041 450.265 321.83 450.258C324.571 450.265 326.15 449.547 326.164 448.207C326.15 446.895 324.571 446.156 321.83 446.17C319.041 446.156 317.469 446.895 317.469 448.207ZM319.219 448.207C319.205 447.688 320.039 447.448 321.83 447.455C323.58 447.448 324.407 447.688 324.414 448.207C324.407 448.74 323.58 448.973 321.83 448.973C320.039 448.973 319.205 448.74 319.219 448.207ZM339.617 443.545H328.27V444.953H339.617V443.545ZM328.775 441.727L329.35 443.094C331.708 442.868 333.273 441.979 333.93 440.776C334.593 441.979 336.172 442.868 338.523 443.094L339.139 441.727C336.746 441.515 335.475 440.653 335.194 439.785H338.592V438.391H329.309V439.785H332.679C332.392 440.66 331.113 441.515 328.775 441.727ZM329.568 447.961C329.568 449.431 331.209 450.265 333.93 450.258C336.63 450.265 338.25 449.431 338.264 447.961C338.25 446.498 336.63 445.65 333.93 445.65C331.209 445.65 329.568 446.498 329.568 447.961ZM331.346 447.961C331.339 447.312 332.207 447.004 333.93 447.004C335.618 447.004 336.507 447.312 336.514 447.961C336.507 448.604 335.618 448.904 333.93 448.904C332.207 448.904 331.339 448.604 331.346 447.961ZM350.24 437.816H348.49V445.035H350.24V442.164H351.922V440.742H350.24V437.816ZM340.287 443.9L340.984 445.309C344.689 444.276 346.774 441.952 346.768 438.637H340.875V440.031H344.867C344.594 441.754 343.028 443.176 340.287 443.9ZM341.969 447.729C341.955 449.301 343.65 450.271 346.18 450.271C348.716 450.271 350.37 449.301 350.377 447.729C350.37 446.17 348.716 445.186 346.18 445.186C343.65 445.186 341.955 446.17 341.969 447.729ZM343.691 447.729C343.685 446.963 344.614 446.539 346.18 446.539C347.725 446.539 348.654 446.963 348.654 447.729C348.654 448.48 347.725 448.911 346.18 448.904C344.614 448.911 343.685 448.48 343.691 447.729ZM362.613 443.381H355.559V440.086H362.518V438.691H353.809V444.762H357.268V447.414H352.469V448.836H363.857V447.414H359.004V444.762H362.613V443.381Z" fill="#6662A8"/>
<rect y="150" width="414" height="896" fill="#F3EFFF"/>
<path d="M30.3181 122.858C31.8629 113.147 40.2371 106 50.0697 106H164.344C174.431 106 182.939 113.511 184.19 123.519L187.5 150H26L30.3181 122.858Z" fill="#F3EFFF"/>
<path d="M205.641 123.298C206.993 113.388 215.456 106 225.458 106H364.339C374.283 106 382.718 113.307 384.135 123.15L388 150H202L205.641 123.298Z" fill="#FAF8FF"/>
<path d="M77.7383 129.184H70.8633V128.09H76V126.176H66.0195V125.16H75.4336V123.363H66.0195V122.367H75.8438V120.453H63.5195V128.09H68.3633V129.184H61.4883V131.137H77.7383V129.184ZM63.3828 134.867C63.3828 136.781 65.6289 137.807 69.6133 137.797C73.5293 137.807 75.7852 136.781 75.8047 134.867C75.7852 132.992 73.5293 131.938 69.6133 131.957C65.6289 131.938 63.3828 132.992 63.3828 134.867ZM65.8828 134.867C65.8633 134.125 67.0547 133.783 69.6133 133.793C72.1133 133.783 73.2949 134.125 73.3047 134.867C73.2949 135.629 72.1133 135.961 69.6133 135.961C67.0547 135.961 65.8633 135.629 65.8828 134.867ZM95.0234 128.207H78.8125V130.219H95.0234V128.207ZM79.5352 125.609L80.3555 127.562C83.7246 127.24 85.9609 125.971 86.8984 124.252C87.8457 125.971 90.1016 127.24 93.4609 127.562L94.3398 125.609C90.9219 125.307 89.1055 124.076 88.7051 122.836H93.5586V120.844H80.2969V122.836H85.1113C84.7012 124.086 82.875 125.307 79.5352 125.609ZM80.668 134.516C80.668 136.615 83.0117 137.807 86.8984 137.797C90.7559 137.807 93.0703 136.615 93.0898 134.516C93.0703 132.426 90.7559 131.215 86.8984 131.215C83.0117 131.215 80.668 132.426 80.668 134.516ZM83.207 134.516C83.1973 133.588 84.4375 133.148 86.8984 133.148C89.3105 133.148 90.5801 133.588 90.5898 134.516C90.5801 135.434 89.3105 135.863 86.8984 135.863C84.4375 135.863 83.1973 135.434 83.207 134.516ZM115.609 120.023H113.129V137.836H115.609V120.023ZM101.645 123.52H107.562V126.391H101.664V133.676H103.266C106.508 133.676 109.154 133.568 112.074 133.051L111.859 131.039C109.252 131.469 106.957 131.605 104.242 131.625V128.363H110.102V121.508H101.645V123.52ZM134.262 133.734H127.309V130.531H132.816V128.578H130.395V123.5H132.895V121.508H119.262V123.5H121.723V128.578H119.34V130.531H124.828V133.734H117.992V135.824H134.262V133.734ZM124.223 128.578V123.5H127.934V128.578H124.223ZM149.77 129.203H139.73V127.172H149.223V125.219H139.73V123.344H149.633V121.332H137.191V131.176H149.77V129.203ZM135.277 135.727H151.547V133.695H135.277V135.727Z" fill="#8666FF"/>
<path d="M237.09 124.867V123.773H240.664V121.742H230.82V123.773H234.59V124.867C234.57 127.807 233.076 131.107 230.117 132.484L231.562 134.457C233.613 133.49 235.078 131.498 235.869 129.154C236.67 131.283 238.076 133.1 240.059 134.008L241.445 132.055C238.525 130.697 237.08 127.572 237.09 124.867ZM242.051 137.797H244.551V128.891H247.168V126.801H244.551V120.023H242.051V137.797ZM253.516 124.496V121.547H251.094V124.613C251.094 127.621 250.117 130.756 247.48 132.387L249.004 134.223C250.615 133.246 251.68 131.557 252.314 129.545C252.881 131.361 253.848 132.904 255.391 133.832L256.738 131.898C254.307 130.346 253.506 127.377 253.516 124.496ZM254.863 128.051H257.168V136.977H259.492V120.277H257.168V126.02H254.863V128.051ZM260.84 137.797H263.223V120.023H260.84V137.797ZM285.918 128.832H269.707V130.824H285.918V128.832ZM270.391 126.293L271.152 128.188C274.404 127.943 276.67 126.996 277.783 125.561C278.906 126.996 281.162 127.943 284.434 128.188L285.195 126.293C281.309 126.049 279.512 124.896 279.219 123.617H284.355V121.684H279.023V120.082H276.562V121.684H271.27V123.617H276.357C276.055 124.896 274.248 126.049 270.391 126.293ZM271.504 134.125H281.465V137.797H283.945V132.172H271.504V134.125ZM301.973 120.023H299.492V124.359H296.719V126.371H299.492V130.57H301.973V120.023ZM286.875 128.617L288.164 130.59C290.273 129.867 291.699 128.412 292.48 126.605C293.252 128.197 294.609 129.486 296.562 130.121L297.793 128.168C295.029 127.25 293.76 125.16 293.711 123.09H297.246V121.098H287.598V123.09H291.172C291.113 125.316 289.785 127.641 286.875 128.617ZM289.785 134.398C289.785 136.557 292.109 137.816 295.898 137.816C299.697 137.816 302.021 136.557 302.031 134.398C302.021 132.24 299.697 130.971 295.898 130.961C292.109 130.971 289.785 132.24 289.785 134.398ZM292.266 134.398C292.266 133.373 293.545 132.865 295.898 132.875C298.262 132.865 299.541 133.373 299.551 134.398C299.541 135.414 298.262 135.922 295.898 135.922C293.545 135.922 292.266 135.414 292.266 134.398ZM323.789 120.023H321.309V137.836H323.789V120.023ZM309.824 123.52H315.742V126.391H309.844V133.676H311.445C314.688 133.676 317.334 133.568 320.254 133.051L320.039 131.039C317.432 131.469 315.137 131.605 312.422 131.625V128.363H318.281V121.508H309.824V123.52ZM342.441 133.734H335.488V130.531H340.996V128.578H338.574V123.5H341.074V121.508H327.441V123.5H329.902V128.578H327.52V130.531H333.008V133.734H326.172V135.824H342.441V133.734ZM332.402 128.578V123.5H336.113V128.578H332.402ZM357.949 129.203H347.91V127.172H357.402V125.219H347.91V123.344H357.812V121.332H345.371V131.176H357.949V129.203ZM343.457 135.727H359.727V133.695H343.457V135.727Z" fill="#8666FF"/>
<path d="M44.2012 174.694C40.5737 174.694 37.8555 176.531 37.8555 179.314C37.8555 181.856 39.9985 183.563 43.0137 183.907V186.792H36.501V188.74H51.957V186.792H45.3701V183.907C48.4038 183.573 50.5562 181.866 50.5654 179.314C50.5562 176.531 47.8286 174.694 44.2012 174.694ZM40.1934 179.314C40.1934 177.626 41.8354 176.578 44.2012 176.587C46.5762 176.578 48.2183 177.626 48.2275 179.314C48.2183 181.096 46.5762 182.088 44.2012 182.098C41.8354 182.088 40.1934 181.096 40.1934 179.314ZM66.5781 177.236H57.1895V174.026H54.833V179.11H66.5781V177.236ZM52.9033 182.116H68.3594V180.242H52.9033V182.116ZM54.666 184.955H64.1475V185.92H54.7031V190.521H67.0234V188.703H57.0781V187.627H66.5039V183.137H54.666V184.955ZM74.8164 174.954C72.1538 174.945 70.1128 176.67 70.1221 179.092C70.1128 181.522 72.1538 183.239 74.8164 183.248C77.4976 183.239 79.4829 181.522 79.4922 179.092C79.4829 176.67 77.4976 174.945 74.8164 174.954ZM69.417 185.363L69.6953 187.293C72.6455 187.293 76.6533 187.265 80.4014 186.532L80.2158 184.825C76.6069 185.335 72.4321 185.373 69.417 185.363ZM72.4785 179.092C72.4692 177.774 73.4805 176.995 74.8164 176.995C76.1616 176.995 77.1821 177.774 77.1914 179.092C77.1821 180.428 76.1616 181.198 74.8164 181.188C73.4805 181.198 72.4692 180.428 72.4785 179.092ZM81.1807 190.744H83.5371V173.822H81.1807V190.744ZM105.543 182.524H99.0117V181.485H103.892V179.667H94.4102V178.702H103.354V176.995H94.4102V176.049H103.743V174.23H92.0352V181.485H96.6367V182.524H90.1055V184.38H105.543V182.524ZM91.9053 187.924C91.9053 189.742 94.0391 190.716 97.8242 190.707C101.544 190.716 103.688 189.742 103.706 187.924C103.688 186.143 101.544 185.141 97.8242 185.159C94.0391 185.141 91.9053 186.143 91.9053 187.924ZM94.2803 187.924C94.2617 187.219 95.3936 186.894 97.8242 186.903C100.199 186.894 101.322 187.219 101.331 187.924C101.322 188.647 100.199 188.963 97.8242 188.963C95.3936 188.963 94.2617 188.647 94.2803 187.924ZM121.964 181.597H106.563V183.508H121.964V181.597ZM107.25 179.129L108.029 180.984C111.23 180.678 113.354 179.472 114.245 177.839C115.145 179.472 117.288 180.678 120.479 180.984L121.314 179.129C118.067 178.841 116.342 177.672 115.961 176.494H120.572V174.602H107.974V176.494H112.547C112.158 177.682 110.423 178.841 107.25 179.129ZM108.326 187.59C108.326 189.584 110.553 190.716 114.245 190.707C117.91 190.716 120.108 189.584 120.127 187.59C120.108 185.604 117.91 184.454 114.245 184.454C110.553 184.454 108.326 185.604 108.326 187.59ZM110.738 187.59C110.729 186.708 111.907 186.291 114.245 186.291C116.537 186.291 117.743 186.708 117.752 187.59C117.743 188.462 116.537 188.87 114.245 188.87C111.907 188.87 110.729 188.462 110.738 187.59Z" fill="#6662A8"/>
<path d="M155.678 216.814C152.964 216.806 151.129 218.566 151.129 220.981C151.146 223.223 152.74 224.85 154.898 224.85C156.234 224.85 157.421 224.219 157.986 223.156H158.085C158.077 225.555 157.214 227.024 155.579 227.024C154.616 227.024 153.927 226.501 153.719 225.613H151.262C151.503 227.647 153.163 229.166 155.579 229.166C158.6 229.166 160.534 226.759 160.526 222.675C160.526 218.309 158.168 216.823 155.678 216.814ZM153.57 220.915C153.553 219.72 154.466 218.782 155.695 218.773C156.923 218.782 157.82 219.753 157.836 220.898C157.836 222.052 156.898 223.023 155.678 223.023C154.441 223.023 153.57 222.102 153.57 220.915ZM174.521 215.437H172.396V222.426H169.657V223.704H172.396V224.186H174.521V215.437ZM161.721 220.749L161.937 222.21C163.033 222.218 164.22 222.218 165.457 222.185V224.219H167.548V222.11C168.893 222.036 170.263 221.919 171.599 221.745L171.5 220.434C168.262 220.741 164.643 220.757 161.721 220.749ZM162.75 217.91C162.75 219.313 164.278 220.176 166.585 220.168C168.835 220.176 170.379 219.313 170.387 217.91C170.379 216.549 168.835 215.644 166.585 215.636C164.278 215.644 162.75 216.549 162.75 217.91ZM163.879 226.062H172.413V226.809H163.946V230.428H174.87V228.95H166.021V228.17H174.521V224.634H163.879V226.062ZM164.759 217.91C164.743 217.354 165.44 217.022 166.585 217.03C167.698 217.022 168.403 217.354 168.412 217.91C168.403 218.466 167.698 218.782 166.585 218.79C165.44 218.782 164.743 218.466 164.759 217.91ZM185.279 229.166C187.993 229.166 189.944 227.688 189.927 225.63C189.944 224.127 188.973 223.057 187.205 222.841V222.741C188.549 222.5 189.487 221.546 189.479 220.201C189.487 218.3 187.819 216.814 185.312 216.814C182.847 216.814 180.987 218.25 180.946 220.317H183.336C183.378 219.396 184.25 218.798 185.312 218.807C186.375 218.798 187.08 219.429 187.072 220.351C187.08 221.297 186.25 221.944 185.063 221.944H183.951V223.787H185.063C186.474 223.795 187.346 224.484 187.337 225.464C187.346 226.435 186.491 227.099 185.295 227.107C184.133 227.099 183.262 226.51 183.22 225.613H180.697C180.747 227.713 182.639 229.166 185.279 229.166ZM196.352 229.166C199.357 229.166 201.183 226.941 201.183 222.99C201.183 219.064 199.349 216.814 196.352 216.814C193.355 216.814 191.521 219.064 191.521 222.99C191.521 226.925 193.339 229.166 196.352 229.166ZM194.078 222.99C194.078 220.243 194.966 218.865 196.352 218.856C197.738 218.865 198.635 220.243 198.626 222.99C198.635 225.763 197.747 227.107 196.352 227.107C194.958 227.107 194.061 225.763 194.078 222.99ZM206.711 215.868C204.379 215.86 202.644 217.304 202.644 219.321C202.644 221.322 204.379 222.75 206.711 222.758C209.011 222.75 210.737 221.322 210.746 219.321C210.737 217.304 209.011 215.86 206.711 215.868ZM204.703 219.321C204.686 218.234 205.549 217.595 206.711 217.595C207.857 217.595 208.695 218.234 208.704 219.321C208.695 220.4 207.857 221.04 206.711 221.048C205.541 221.04 204.686 220.4 204.703 219.321ZM204.918 225.248H212.954V226.178H204.952V230.361H215.477V228.701H207.027V227.722H215.062V223.621H204.918V225.248ZM212.937 222.99H215.062V215.42H212.937V222.99ZM233.34 222.907H224.807V221.33H232.875V219.67H224.807V218.159H233.224V216.466H222.649V224.584H226.849V227.141H221.022V228.834H234.851V227.141H228.991V224.584H233.34V222.907ZM249.543 227.024H246.472V223.281C247.609 222.575 248.29 221.521 248.298 220.218C248.29 217.769 245.875 216.159 242.604 216.15C239.317 216.159 236.926 217.769 236.926 220.218C236.926 221.546 237.632 222.617 238.802 223.322V227.024H235.714V228.768H249.543V227.024ZM239.018 220.218C239.018 218.699 240.438 217.819 242.604 217.827C244.737 217.819 246.198 218.699 246.207 220.218C246.198 221.695 244.737 222.608 242.604 222.608C240.438 222.608 239.018 221.695 239.018 220.218ZM240.894 227.024V224.094C241.425 224.194 241.998 224.252 242.604 224.252C243.21 224.252 243.791 224.194 244.331 224.086V227.024H240.894ZM254.707 215.868C252.374 215.86 250.639 217.304 250.639 219.321C250.639 221.322 252.374 222.75 254.707 222.758C257.006 222.75 258.732 221.322 258.741 219.321C258.732 217.304 257.006 215.86 254.707 215.868ZM252.698 219.321C252.681 218.234 253.544 217.595 254.707 217.595C255.852 217.595 256.69 218.234 256.699 219.321C256.69 220.4 255.852 221.04 254.707 221.048C253.536 221.04 252.681 220.4 252.698 219.321ZM252.914 225.248H260.949V226.178H252.947V230.361H263.472V228.701H255.022V227.722H263.057V223.621H252.914V225.248ZM260.932 222.99H263.057V215.42H260.932V222.99Z" fill="#8666FF"/>
<path d="M321.666 263.426H320.166V268.359H318.232V269.262H320.166V269.602H321.666V263.426ZM312.631 267.176L312.783 268.207C313.557 268.213 314.395 268.213 315.268 268.189V269.625H316.744V268.137C317.693 268.084 318.66 268.002 319.604 267.879L319.533 266.953C317.248 267.17 314.693 267.182 312.631 267.176ZM313.357 265.172C313.357 266.162 314.436 266.771 316.064 266.766C317.652 266.771 318.742 266.162 318.748 265.172C318.742 264.211 317.652 263.572 316.064 263.566C314.436 263.572 313.357 264.211 313.357 265.172ZM314.154 270.926H320.178V271.453H314.201V274.008H321.912V272.965H315.666V272.414H321.666V269.918H314.154V270.926ZM314.775 265.172C314.764 264.779 315.256 264.545 316.064 264.551C316.85 264.545 317.348 264.779 317.354 265.172C317.348 265.564 316.85 265.787 316.064 265.793C315.256 265.787 314.764 265.564 314.775 265.172Z" fill="#6662A8"/>
<path d="M156.232 263.895H148.826V265.09H154.744C154.732 265.84 154.703 266.666 154.475 267.727H147.631V268.934H157.393V267.727H155.98C156.238 266.502 156.238 265.582 156.232 264.75V263.895ZM148.791 273.961H156.197V270.059H148.791V273.961ZM150.256 272.766V271.23H154.709V272.766H150.256Z" fill="#6662A8"/>
<path d="M376.162 263.414H374.65V274.078H376.162V268.992H377.557V267.75H376.162V263.414ZM367.502 271.066L367.701 272.285C369.5 272.291 371.949 272.273 374.217 271.852L374.123 270.762C373.332 270.873 372.482 270.943 371.639 270.99V270.129C372.764 269.912 373.514 269.186 373.525 268.195C373.514 267.006 372.424 266.191 370.9 266.191C369.348 266.191 368.27 267.006 368.275 268.195C368.27 269.186 369.008 269.906 370.139 270.129V271.043C369.189 271.066 368.281 271.066 367.502 271.066ZM367.713 265.77H374.041V264.598H371.639V263.473H370.139V264.598H367.713V265.77ZM369.693 268.195C369.688 267.645 370.168 267.334 370.9 267.328C371.609 267.334 372.084 267.645 372.084 268.195C372.084 268.758 371.609 269.062 370.9 269.062C370.168 269.062 369.688 268.758 369.693 268.195Z" fill="#6662A8"/>
<path d="M211.326 268.699H205.303V267.586H210.998V266.414H205.303V265.348H211.244V264.152H203.779V269.883H206.744V271.688H202.631V272.883H212.393V271.688H208.256V269.883H211.326V268.699Z" fill="#6662A8"/>
<path d="M260.666 263.73C259.02 263.725 257.795 264.744 257.795 266.168C257.795 267.58 259.02 268.588 260.666 268.594C262.289 268.588 263.508 267.58 263.514 266.168C263.508 264.744 262.289 263.725 260.666 263.73ZM259.248 266.168C259.236 265.4 259.846 264.949 260.666 264.949C261.475 264.949 262.066 265.4 262.072 266.168C262.066 266.93 261.475 267.381 260.666 267.387C259.84 267.381 259.236 266.93 259.248 266.168ZM259.4 270.352H265.072V271.008H259.424V273.961H266.854V272.789H260.889V272.098H266.561V269.203H259.4V270.352ZM265.061 268.758H266.561V263.414H265.061V268.758Z" fill="#6662A8"/>
<path d="M43.291 264.246V263.73H41.7207V264.246C41.7148 265.506 40.4316 266.895 38.0059 267.199L38.6035 268.406C40.4434 268.137 41.8027 267.27 42.5059 266.121C43.2031 267.275 44.5684 268.137 46.4316 268.406L47.0176 267.199C44.5742 266.895 43.2852 265.506 43.291 264.246ZM37.6309 270.434H41.7324V274.078H43.209V270.434H47.3574V269.215H37.6309V270.434Z" fill="#6662A8"/>
<path d="M101.127 263.836H93.8379V267.586H96.7324V268.605H92.6309V269.812H102.357V268.605H98.2324V267.586H101.127V263.836ZM93.709 271.77H99.6855V274.078H101.174V270.598H93.709V271.77ZM95.3027 266.414V264.996H99.6621V266.414H95.3027Z" fill="#6662A8"/>
<g filter="url(#filter0_d_764_15479)">
<rect x="19" y="727" width="376" height="317" rx="25" fill="white"/>
</g>
<ellipse cx="106" cy="886.5" rx="13" ry="13.5" fill="#FF0F00" fill-opacity="0.3"/>
<ellipse cx="156" cy="886.5" rx="13" ry="13.5" fill="#FF0F00" fill-opacity="0.3"/>
<ellipse cx="207" cy="886.5" rx="13" ry="13.5" fill="#FF0F00" fill-opacity="0.3"/>
<ellipse cx="258" cy="886.5" rx="13" ry="13.5" fill="#FF0F00" fill-opacity="0.3"/>
<ellipse cx="309" cy="886.5" rx="13" ry="13.5" fill="#FF0F00" fill-opacity="0.3"/>
<ellipse cx="360" cy="886.5" rx="13" ry="13.5" fill="#FF0F00" fill-opacity="0.3"/>
<circle cx="360" cy="844" r="13" fill="#FF0F00" fill-opacity="0.3"/>
<ellipse cx="55" cy="886.5" rx="13" ry="13.5" fill="#FF0F00" fill-opacity="0.3"/>
<path d="M312.852 800.814H305.446V802.009H311.364C311.352 802.759 311.323 803.585 311.094 804.646H304.25V805.853H314.012V804.646H312.6C312.858 803.421 312.858 802.501 312.852 801.669V800.814ZM305.411 810.88H312.817V806.978H305.411V810.88ZM306.875 809.685V808.15H311.329V809.685H306.875Z" fill="#CCCCCC"/>
<path d="M363.797 805.619H357.774V804.505H363.469V803.333H357.774V802.267H363.715V801.072H356.25V806.802H359.215V808.607H355.102V809.802H364.864V808.607H360.727V806.802H363.797V805.619Z" fill="#CCCCCC"/>
<path d="M208.209 801.166V800.65H206.639V801.166C206.633 802.425 205.35 803.814 202.924 804.119L203.522 805.326C205.362 805.056 206.721 804.189 207.424 803.041C208.122 804.195 209.487 805.056 211.35 805.326L211.936 804.119C209.493 803.814 208.204 802.425 208.209 801.166ZM202.549 807.353H206.651V810.998H208.127V807.353H212.276V806.134H202.549V807.353Z" fill="#CCCCCC"/>
<path d="M53.0337 800.65C51.3872 800.644 50.1626 801.664 50.1626 803.087C50.1626 804.5 51.3872 805.507 53.0337 805.513C54.6567 805.507 55.8755 804.5 55.8814 803.087C55.8755 801.664 54.6567 800.644 53.0337 800.65ZM51.6157 803.087C51.604 802.32 52.2134 801.869 53.0337 801.869C53.8423 801.869 54.4341 802.32 54.4399 803.087C54.4341 803.849 53.8423 804.3 53.0337 804.306C52.2075 804.3 51.604 803.849 51.6157 803.087ZM51.7681 807.271H57.4399V807.927H51.7915V810.88H59.2212V809.708H53.2564V809.017H58.9282V806.123H51.7681V807.271ZM57.4282 805.677H58.9282V800.333H57.4282V805.677Z" fill="#CCCCCC"/>
<path d="M261.897 800.755H254.608V804.505H257.502V805.525H253.401V806.732H263.127V805.525H259.002V804.505H261.897V800.755ZM254.479 808.689H260.456V810.998H261.944V807.517H254.479V808.689ZM256.073 803.333V801.916H260.432V803.333H256.073Z" fill="#CCCCCC"/>
<path d="M109.883 800.345H108.383V805.279H106.45V806.181H108.383V806.521H109.883V800.345ZM100.848 804.095L101 805.126C101.774 805.132 102.612 805.132 103.485 805.109V806.544H104.961V805.056C105.911 805.003 106.877 804.921 107.821 804.798L107.75 803.873C105.465 804.089 102.911 804.101 100.848 804.095ZM101.575 802.091C101.575 803.082 102.653 803.691 104.282 803.685C105.87 803.691 106.959 803.082 106.965 802.091C106.959 801.13 105.87 800.492 104.282 800.486C102.653 800.492 101.575 801.13 101.575 802.091ZM102.372 807.845H108.395V808.373H102.418V810.927H110.129V809.884H103.883V809.333H109.883V806.837H102.372V807.845ZM102.993 802.091C102.981 801.699 103.473 801.464 104.282 801.47C105.067 801.464 105.565 801.699 105.571 802.091C105.565 802.484 105.067 802.707 104.282 802.712C103.473 802.707 102.981 802.484 102.993 802.091Z" fill="#CCCCCC"/>
<path d="M160.231 800.333H158.719V810.998H160.231V805.912H161.625V804.669H160.231V800.333ZM151.571 807.986L151.77 809.205C153.569 809.21 156.018 809.193 158.286 808.771L158.192 807.681C157.401 807.792 156.551 807.863 155.708 807.91V807.048C156.833 806.832 157.583 806.105 157.594 805.115C157.583 803.925 156.493 803.111 154.969 803.111C153.417 803.111 152.338 803.925 152.344 805.115C152.338 806.105 153.077 806.826 154.208 807.048V807.962C153.258 807.986 152.35 807.986 151.571 807.986ZM151.782 802.689H158.11V801.517H155.708V800.392H154.208V801.517H151.782V802.689ZM153.762 805.115C153.756 804.564 154.237 804.253 154.969 804.248C155.678 804.253 156.153 804.564 156.153 805.115C156.153 805.677 155.678 805.982 154.969 805.982C154.237 805.982 153.756 805.677 153.762 805.115Z" fill="#CCCCCC"/>
<path d="M309.116 890.853C310.885 890.853 312.127 889.862 312.139 888.485C312.127 887.39 311.366 886.481 310.405 886.329V886.282C311.237 886.089 311.799 885.31 311.811 884.384C311.799 883.089 310.663 882.134 309.116 882.134C307.563 882.134 306.426 883.089 306.432 884.384C306.426 885.31 306.983 886.089 307.827 886.282V886.329C306.86 886.481 306.098 887.39 306.104 888.485C306.098 889.862 307.329 890.853 309.116 890.853ZM307.159 888.427C307.141 887.489 307.979 886.798 309.116 886.798C310.258 886.798 311.084 887.489 311.084 888.427C311.084 889.317 310.329 889.921 309.116 889.927C307.897 889.921 307.141 889.317 307.159 888.427ZM307.452 884.466C307.458 883.616 308.108 883.042 309.116 883.048C310.106 883.042 310.78 883.616 310.78 884.466C310.78 885.321 310.083 885.901 309.116 885.907C308.143 885.901 307.458 885.321 307.452 884.466Z" fill="#6662A8"/>
<path d="M310.288 840.516H309.221L307.112 841.922V842.988L309.174 841.617H309.221V849H310.288V840.516Z" fill="#6662A8"/>
<path d="M359.913 882.134C358.108 882.116 356.948 883.399 356.948 884.981C356.948 886.616 358.208 887.782 359.725 887.782C360.627 887.782 361.407 887.36 361.893 886.657H362.01C361.999 888.72 361.155 889.915 359.772 889.915C358.829 889.915 358.249 889.353 358.061 888.591H357.018C357.229 889.938 358.278 890.853 359.772 890.853C361.758 890.853 362.995 889.171 362.995 886.153C362.995 883.03 361.372 882.151 359.913 882.134ZM357.979 884.97C357.967 883.921 358.805 883.06 359.913 883.06C361.032 883.06 361.846 883.974 361.846 884.946C361.846 885.942 360.985 886.856 359.877 886.856C358.77 886.856 357.973 886.019 357.979 884.97Z" fill="#6662A8"/>
<path d="M207.489 890.853C209.276 890.87 210.442 889.593 210.442 887.993C210.442 886.353 209.182 885.181 207.676 885.181C206.762 885.181 205.983 885.597 205.497 886.306H205.391C205.385 884.261 206.223 883.071 207.618 883.071C208.561 883.071 209.135 883.634 209.329 884.384H210.372C210.155 883.054 209.112 882.134 207.618 882.134C205.625 882.134 204.395 883.815 204.395 886.821C204.395 889.962 206.018 890.835 207.489 890.853ZM205.532 888.017C205.543 887.015 206.399 886.112 207.512 886.106C208.62 886.112 209.417 886.962 209.422 888.005C209.417 889.06 208.584 889.921 207.489 889.927C206.352 889.921 205.538 889.013 205.532 888.017Z" fill="#6662A8"/>
<path d="M54.8911 890.853C56.5845 890.853 57.8501 889.821 57.8442 888.427C57.8501 887.349 57.1821 886.558 56.0747 886.388V886.329C56.9653 886.077 57.5278 885.374 57.5161 884.407C57.5278 883.194 56.5435 882.134 54.9263 882.134C53.4204 882.134 52.1665 883.036 52.1138 884.384H53.1333C53.1802 883.552 54.0064 883.054 54.9146 883.048C55.8814 883.054 56.5024 883.616 56.4966 884.466C56.5024 885.339 55.7817 885.919 54.7505 885.919H54.0591V886.845H54.7505C56.0689 886.851 56.8071 887.501 56.813 888.427C56.8071 889.312 55.9985 889.915 54.8794 889.915C53.8657 889.915 53.063 889.411 53.0044 888.603H51.938C51.9907 889.95 53.2036 890.853 54.8911 890.853Z" fill="#6662A8"/>
<path d="M256.026 890.735H257.127L261.006 883.235V882.251H255.428V883.188H259.917V883.247L256.026 890.735Z" fill="#6662A8"/>
<path d="M102.561 889.001H106.674V890.735H107.682V889.001H108.866V888.075H107.682V882.251H106.381L102.561 888.134V889.001ZM103.698 888.075V888.005L106.569 883.587H106.674V888.075H103.698Z" fill="#6662A8"/>
<path d="M156.551 890.853C158.245 890.853 159.475 889.669 159.481 888.028C159.475 886.376 158.286 885.181 156.668 885.181C156.071 885.181 155.502 885.38 155.122 885.673H155.04L155.356 883.188H159.071V882.251H154.477L153.879 886.892H154.899C155.209 886.341 155.766 886.118 156.481 886.13C157.624 886.136 158.45 886.95 158.45 888.052C158.45 889.118 157.653 889.921 156.551 889.927C155.631 889.921 154.893 889.358 154.817 888.603H153.797C153.862 889.909 155.022 890.853 156.551 890.853Z" fill="#6662A8"/>
<path d="M49.875 761.25L41.125 752.5L49.875 743.75" stroke="#6662A8" stroke-width="2" stroke-linecap="round" stroke-linejoin="round"/>
<path d="M206.134 246.5C206.519 247.167 207.481 247.167 207.866 246.5L211.33 240.5C211.715 239.833 211.234 239 210.464 239H203.536C202.766 239 202.285 239.833 202.67 240.5L206.134 246.5Z" fill="#8666FF"/>
<g filter="url(#filter1_d_764_15479)">
<path d="M220.095 404.86L207.647 389L196.158 404.86H45C31.1929 404.86 20 416.053 20 429.86V680C20 693.807 31.1929 705 45 705H369C382.807 705 394 693.807 394 680V429.86C394 416.053 382.807 404.86 369 404.86H220.095Z" fill="white"/>
</g>
<path d="M195.15 741.363C190.999 741.351 188.193 744.042 188.193 747.736C188.219 751.164 190.656 753.652 193.957 753.652C196.001 753.652 197.816 752.688 198.68 751.062H198.832C198.819 754.731 197.499 756.979 194.998 756.979C193.525 756.979 192.472 756.179 192.154 754.82H188.396C188.765 757.931 191.304 760.254 194.998 760.254C199.619 760.254 202.577 756.572 202.564 750.326C202.564 743.648 198.959 741.376 195.15 741.363ZM191.926 747.635C191.9 745.807 193.297 744.372 195.176 744.359C197.055 744.372 198.426 745.857 198.451 747.609C198.451 749.374 197.017 750.859 195.15 750.859C193.259 750.859 191.926 749.45 191.926 747.635ZM223.969 739.256H220.719V749.945H216.529V751.9H220.719V752.637H223.969V739.256ZM204.393 747.381L204.723 749.615C206.398 749.628 208.214 749.628 210.105 749.577V752.688H213.305V749.463C215.361 749.349 217.456 749.171 219.5 748.904L219.348 746.898C214.396 747.368 208.861 747.394 204.393 747.381ZM205.967 743.039C205.967 745.185 208.303 746.505 211.832 746.492C215.272 746.505 217.634 745.185 217.646 743.039C217.634 740.957 215.272 739.573 211.832 739.561C208.303 739.573 205.967 740.957 205.967 743.039ZM207.693 755.506H220.744V756.648H207.795V762.184H224.502V759.924H210.969V758.73H223.969V753.322H207.693V755.506ZM209.039 743.039C209.014 742.188 210.08 741.681 211.832 741.693C213.533 741.681 214.612 742.188 214.625 743.039C214.612 743.89 213.533 744.372 211.832 744.385C210.08 744.372 209.014 743.89 209.039 743.039Z" fill="#7976B3"/>
<g opacity="0.6" clip-path="url(#clip1_764_15479)">
<path d="M195.772 589.967L191.924 583.974L159.934 532.194L132.431 489.798C132.279 489.576 132.115 489.363 131.939 489.159C130.874 487.76 129.641 486.497 128.267 485.399C124.755 482.611 120.406 481.088 115.922 481.074C112.154 481.116 108.47 482.192 105.273 484.185C102.075 486.178 99.4864 489.012 97.7897 492.376L71.3077 531.782L39.0827 583.923L35.2346 589.915C35.0927 590.074 34.9869 590.261 34.9244 590.464C34.8619 590.667 34.8442 590.881 34.8725 591.092C34.9008 591.302 34.9744 591.504 35.0883 591.684C35.2023 591.863 35.3538 592.015 35.5324 592.13C35.711 592.246 35.9124 592.321 36.1228 592.35C36.3332 592.38 36.5476 592.364 36.751 592.303C36.9545 592.241 37.1422 592.137 37.3014 591.996C37.4605 591.855 37.5872 591.682 37.6727 591.487L41.6311 587.198L37.9591 592.963C37.8173 593.121 37.7114 593.308 37.6489 593.511C37.5864 593.715 37.5687 593.929 37.597 594.139C37.6253 594.35 37.6991 594.552 37.813 594.731C37.9269 594.911 38.0783 595.063 38.2569 595.178C38.4355 595.293 38.6369 595.368 38.8473 595.398C39.0577 595.428 39.2721 595.411 39.4756 595.35C39.6791 595.289 39.8669 595.184 40.026 595.044C40.1851 594.903 40.3118 594.729 40.3973 594.535L44.8037 589.534L40.8893 596.209C40.7487 596.529 40.7268 596.888 40.8274 597.223C40.928 597.558 41.1445 597.845 41.4381 598.035C41.7318 598.224 42.0834 598.302 42.4296 598.256C42.7759 598.209 43.0943 598.041 43.3275 597.781L47.8807 591.803L44.9432 597.722C44.8025 598.042 44.7806 598.401 44.8812 598.736C44.9818 599.07 45.1983 599.358 45.492 599.547C45.7856 599.737 46.1372 599.815 46.4835 599.769C46.8297 599.722 47.1481 599.554 47.3814 599.293L50.7742 593.859L55.1071 587.301L56.8109 589.379C57.052 589.719 57.4046 589.963 57.8072 590.069C58.2099 590.175 58.637 590.136 59.0141 589.96C59.3504 589.776 59.6016 589.468 59.7141 589.102C59.8266 588.735 59.7915 588.34 59.6162 587.999L57.4131 583.82L87.3835 539.905L77.7557 587.999C76.6587 593.537 76.8649 599.254 78.3578 604.698V604.698L93.9783 665.093C90.6515 667.054 81.1411 672.753 81.0824 673.752C81.0016 674.963 111.501 674.486 111.728 673.752C111.905 673.171 111.457 668.229 111.236 665.916L115.276 632.568H116.48L120.57 666.026C120.365 668.119 119.836 673.634 120.042 674.244C120.269 674.978 150.761 675.463 150.688 674.244C150.622 673.238 140.942 667.443 137.696 665.534L153.464 604.735C154.96 599.296 155.164 593.582 154.059 588.05L144.46 540.052L173.63 583.864L171.427 588.043C171.251 588.383 171.215 588.778 171.326 589.144C171.437 589.51 171.687 589.819 172.022 590.004C172.399 590.18 172.826 590.219 173.229 590.113C173.631 590.007 173.984 589.763 174.225 589.423L175.929 587.345L180.269 593.903L183.662 599.338C183.747 599.532 183.874 599.706 184.033 599.846C184.192 599.987 184.38 600.092 184.584 600.153C184.787 600.214 185.001 600.23 185.212 600.201C185.422 600.171 185.624 600.096 185.802 599.981C185.981 599.866 186.132 599.713 186.246 599.534C186.36 599.355 186.434 599.153 186.462 598.942C186.49 598.732 186.473 598.517 186.41 598.314C186.348 598.111 186.242 597.924 186.1 597.766L183.162 591.847L187.708 597.825C187.94 598.091 188.26 598.265 188.609 598.315C188.958 598.365 189.314 598.287 189.611 598.097C189.908 597.906 190.126 597.615 190.226 597.276C190.325 596.937 190.3 596.574 190.154 596.253L186.24 589.578L190.646 594.579C190.879 594.839 191.197 595.007 191.544 595.054C191.89 595.1 192.242 595.022 192.535 594.833C192.829 594.643 193.045 594.356 193.146 594.021C193.247 593.687 193.225 593.327 193.084 593.007L189.412 587.242L193.363 591.531C193.45 591.723 193.578 591.894 193.737 592.032C193.896 592.17 194.083 592.273 194.285 592.332C194.487 592.392 194.7 592.407 194.909 592.377C195.117 592.347 195.317 592.273 195.494 592.159C195.672 592.045 195.822 591.894 195.936 591.717C196.05 591.539 196.124 591.34 196.154 591.131C196.184 590.922 196.169 590.71 196.109 590.508C196.049 590.306 195.947 590.119 195.809 589.96L195.772 589.967Z" fill="#E2E2E2"/>
<path d="M102.85 470.859H104.098C104.604 473.507 106.017 475.897 108.095 477.615C110.173 479.334 112.785 480.274 115.481 480.274C118.178 480.274 120.79 479.334 122.868 477.615C124.945 475.897 126.359 473.507 126.864 470.859H128.113C128.582 470.859 129.032 470.672 129.364 470.341C129.696 470.009 129.883 469.558 129.883 469.089C129.883 468.62 129.696 468.17 129.364 467.838C129.032 467.506 128.582 467.319 128.113 467.319H126.864C126.359 464.671 124.945 462.281 122.868 460.563C120.79 458.844 118.178 457.904 115.481 457.904C112.785 457.904 110.173 458.844 108.095 460.563C106.017 462.281 104.604 464.671 104.098 467.319H102.85C102.617 467.319 102.387 467.365 102.173 467.454C101.958 467.543 101.763 467.673 101.598 467.838C101.434 468.002 101.304 468.197 101.215 468.412C101.126 468.627 101.08 468.857 101.08 469.089C101.08 469.322 101.126 469.552 101.215 469.766C101.304 469.981 101.434 470.176 101.598 470.341C101.763 470.505 101.958 470.635 102.173 470.724C102.387 470.813 102.617 470.859 102.85 470.859V470.859Z" fill="#E2E2E2"/>
</g>
<path d="M235.518 444.229H230.705V443.463H234.301V442.123H227.314V441.412H233.904V440.154H227.314V439.457H234.191V438.117H225.564V443.463H228.955V444.229H224.143V445.596H235.518V444.229ZM225.469 448.207C225.469 449.547 227.041 450.265 229.83 450.258C232.571 450.265 234.15 449.547 234.164 448.207C234.15 446.895 232.571 446.156 229.83 446.17C227.041 446.156 225.469 446.895 225.469 448.207ZM227.219 448.207C227.205 447.688 228.039 447.448 229.83 447.455C231.58 447.448 232.407 447.688 232.414 448.207C232.407 448.74 231.58 448.973 229.83 448.973C228.039 448.973 227.205 448.74 227.219 448.207ZM247.617 443.545H236.27V444.953H247.617V443.545ZM236.775 441.727L237.35 443.094C239.708 442.868 241.273 441.979 241.93 440.776C242.593 441.979 244.172 442.868 246.523 443.094L247.139 441.727C244.746 441.515 243.475 440.653 243.194 439.785H246.592V438.391H237.309V439.785H240.679C240.392 440.66 239.113 441.515 236.775 441.727ZM237.568 447.961C237.568 449.431 239.209 450.265 241.93 450.258C244.63 450.265 246.25 449.431 246.264 447.961C246.25 446.498 244.63 445.65 241.93 445.65C239.209 445.65 237.568 446.498 237.568 447.961ZM239.346 447.961C239.339 447.312 240.207 447.004 241.93 447.004C243.618 447.004 244.507 447.312 244.514 447.961C244.507 448.604 243.618 448.904 241.93 448.904C240.207 448.904 239.339 448.604 239.346 447.961ZM259.744 444.994H248.355V446.361H253.154V450.258H254.877V446.361H259.744V444.994ZM249.695 443.791H258.391V438.295H256.641V439.73H251.418V438.295H249.695V443.791ZM251.418 442.396V441.098H256.641V442.396H251.418ZM264.529 438.336C262.636 438.322 261.255 439.409 261.262 440.975C261.255 442.526 262.636 443.627 264.529 443.613C266.43 443.627 267.811 442.526 267.811 440.975C267.811 439.409 266.43 438.322 264.529 438.336ZM260.496 444.379L260.715 445.801C261.61 445.787 262.643 445.78 263.736 445.732V449.889H265.473V445.63C266.512 445.548 267.564 445.418 268.59 445.213L268.48 443.928C265.828 444.331 262.704 444.372 260.496 444.379ZM262.943 440.975C262.937 440.182 263.6 439.724 264.529 439.73C265.486 439.724 266.156 440.182 266.156 440.975C266.156 441.754 265.486 442.205 264.529 442.191C263.6 442.205 262.937 441.754 262.943 440.975ZM269.232 450.258H270.955V437.83H269.232V450.258Z" fill="#6662A8"/>
<path d="M243.219 473.574H238.473V480.312H243.219V477.113H245.773V482.973H246.688V472.531H245.773V476.352H243.219V473.574ZM239.387 479.574V474.301H242.328V479.574H239.387ZM257.023 472.531H256.109V482.973H257.023V472.531ZM249.008 474.266H252.934V476.457H249.031V480.441H249.898C251.697 480.441 253.279 480.365 255.195 480.066L255.102 479.293C253.238 479.592 251.697 479.674 249.969 479.668V477.207H253.859V473.504H249.008V474.266Z" fill="#6662A8"/>
<path d="M251.521 508.977H244.467V512.492H247.525V513.828H243.236V514.578H252.729V513.828H248.439V512.492H251.521V508.977ZM244.291 516.406H250.631V518.949H251.557V515.668H244.291V516.406ZM245.369 511.754V509.715H250.607V511.754H245.369Z" fill="#6662A8"/>
<path d="M240.852 545.34C239.311 545.346 238.232 546.758 238.238 548.973C238.232 551.193 239.311 552.6 240.852 552.594C242.305 552.6 243.348 551.322 243.447 549.277H245.773V554.973H246.688V544.531H245.773V548.516H243.436C243.295 546.564 242.27 545.346 240.852 545.34ZM239.117 548.973C239.123 547.279 239.826 546.166 240.852 546.16C241.871 546.166 242.586 547.279 242.586 548.973C242.586 550.666 241.871 551.779 240.852 551.773C239.826 551.779 239.123 550.666 239.117 548.973ZM257.469 544.52H256.566V548.75H255.254V544.766H254.398V554.434H255.254V549.512H256.566V554.949H257.469V544.52ZM248.445 551.914L249.184 552.371C250.707 550.385 251.018 547.977 251.012 545.809H248.668V546.57H250.232C250.15 548.463 249.74 550.332 248.445 551.914ZM250.906 552.664L251.668 553.109C253.32 550.877 253.479 547.941 253.473 545.809H251.363V546.57H252.67C252.629 548.516 252.354 550.859 250.906 552.664Z" fill="#6662A8"/>
<path d="M246.336 616.965H239.188V617.715H245.422C245.422 618.359 245.416 619.062 245.223 620.023L246.137 620.117C246.33 619.104 246.33 618.307 246.336 617.633V616.965ZM238.062 621.441H247.543V620.691H242.891V618.887H241.988V620.691H238.062V621.441ZM239.188 623.164H245.457V624.23H239.199V626.832H246.641V626.082H240.125V624.887H246.371V622.414H239.188V623.164ZM256.566 616.543H255.652V624.195H256.566V620.469H258.137V619.695H256.566V616.543ZM248.867 622.438H253.719V617.293H252.805V619.051H249.77V617.293H248.867V622.438ZM249.77 621.688V619.777H252.805V621.688H249.77ZM250.051 626.727H257.047V625.953H250.953V623.445H250.051V626.727Z" fill="#6662A8"/>
<path d="M244.25 582.207H241.602V580.66H240.688V582.207H238.051V582.969H244.25V582.207ZM238.695 586.227C238.695 587.615 239.732 588.617 241.156 588.617C242.568 588.617 243.594 587.615 243.605 586.227C243.594 584.826 242.568 583.836 241.156 583.836C239.732 583.836 238.695 584.826 238.695 586.227ZM239.562 586.227C239.551 585.301 240.242 584.627 241.156 584.621C242.07 584.627 242.756 585.301 242.762 586.227C242.756 587.164 242.07 587.826 241.156 587.82C240.242 587.826 239.551 587.164 239.562 586.227ZM244.027 585.688H245.773V590.949H246.688V580.531H245.773V584.914H244.027V585.688ZM257.023 580.531H256.109V590.973H257.023V580.531ZM249.008 582.266H252.934V584.457H249.031V588.441H249.898C251.697 588.441 253.279 588.365 255.195 588.066L255.102 587.293C253.238 587.592 251.697 587.674 249.969 587.668V585.207H253.859V581.504H249.008V582.266Z" fill="#6662A8"/>
<path d="M247.578 658.59H238.039V659.352H242.328V662.949H243.23V659.352H247.578V658.59ZM239.27 657.172H246.336V653.117H239.27V657.172ZM240.172 656.445V653.867H245.422V656.445H240.172ZM257.949 657.828H248.41V658.555H257.949V657.828ZM249.395 662.773H256.953V662.047H255.266V660.172H256.871V659.434H249.488V660.172H251.094V662.047H249.395V662.773ZM249.617 653.551H255.793V654.512H249.652V656.949H256.941V656.223H250.566V655.215H256.719V652.824H249.617V653.551ZM252.008 662.047V660.172H254.363V662.047H252.008Z" fill="#6662A8"/>
<path d="M339.59 480.852H335.242V478.602H338.418V473.27H337.516V475.156H332.102V473.27H331.176V478.602H334.34V480.852H330.051V481.613H339.59V480.852ZM332.102 477.852V475.906H337.516V477.852H332.102ZM349.914 478.062H345.613V477.031H348.789V476.293H342.602V475.262H348.449V474.559H342.602V473.586H348.73V472.836H341.676V477.031H344.699V478.062H340.41V478.812H349.914V478.062ZM341.57 481.262C341.564 482.357 342.859 482.926 345.168 482.926C347.453 482.926 348.742 482.357 348.754 481.262C348.742 480.178 347.453 479.586 345.168 479.598C342.859 479.586 341.564 480.178 341.57 481.262ZM342.496 481.262C342.484 480.641 343.445 480.295 345.168 480.289C346.873 480.295 347.822 480.641 347.828 481.262C347.822 481.895 346.873 482.223 345.168 482.211C343.445 482.223 342.484 481.895 342.496 481.262Z" fill="#6662A8"/>
<path d="M338.195 508.531H337.281V514.789H338.195V512.012H339.766V511.25H338.195V508.531ZM330.062 514.051L330.449 514.801C333.484 513.904 335.354 511.959 335.359 509.305H330.52V510.066H334.369C334.182 511.877 332.576 513.324 330.062 514.051ZM331.492 516.91C331.486 518.176 332.828 518.926 334.902 518.926C336.994 518.926 338.312 518.176 338.312 516.91C338.312 515.662 336.994 514.9 334.902 514.906C332.828 514.9 331.486 515.662 331.492 516.91ZM332.406 516.91C332.395 516.125 333.373 515.639 334.902 515.645C336.432 515.639 337.422 516.125 337.422 516.91C337.422 517.695 336.432 518.193 334.902 518.188C333.373 518.193 332.395 517.695 332.406 516.91ZM348.566 508.531H347.652V514.812H348.566V512.094H350.137V511.309H348.566V508.531ZM340.445 510.406H346.656V509.645H344.008V508.449H343.094V509.645H340.445V510.406ZM341.043 512.773C341.037 513.904 342.039 514.637 343.551 514.637C345.045 514.637 346.047 513.904 346.059 512.773C346.047 511.66 345.045 510.922 343.551 510.922C342.039 510.922 341.037 511.66 341.043 512.773ZM341.922 512.773C341.916 512.094 342.566 511.637 343.551 511.637C344.523 511.637 345.18 512.094 345.191 512.773C345.18 513.482 344.523 513.922 343.551 513.934C342.566 513.922 341.916 513.482 341.922 512.773ZM341.992 518.809H348.566V515.41H341.992V518.809ZM342.895 518.059V516.148H347.652V518.059H342.895Z" fill="#6662A8"/>
<path d="M341.857 549.91H338.143V550.836H341.857V549.91Z" fill="#6662A8"/>
<path d="M341.857 621.91H338.143V622.836H341.857V621.91Z" fill="#6662A8"/>
<path d="M338.195 580.531H337.281V586.789H338.195V584.012H339.766V583.25H338.195V580.531ZM330.062 586.051L330.449 586.801C333.484 585.904 335.354 583.959 335.359 581.305H330.52V582.066H334.369C334.182 583.877 332.576 585.324 330.062 586.051ZM331.492 588.91C331.486 590.176 332.828 590.926 334.902 590.926C336.994 590.926 338.312 590.176 338.312 588.91C338.312 587.662 336.994 586.9 334.902 586.906C332.828 586.9 331.486 587.662 331.492 588.91ZM332.406 588.91C332.395 588.125 333.373 587.639 334.902 587.645C336.432 587.639 337.422 588.125 337.422 588.91C337.422 589.695 336.432 590.193 334.902 590.188C333.373 590.193 332.395 589.695 332.406 588.91ZM348.566 580.531H347.652V586.812H348.566V584.094H350.137V583.309H348.566V580.531ZM340.445 582.406H346.656V581.645H344.008V580.449H343.094V581.645H340.445V582.406ZM341.043 584.773C341.037 585.904 342.039 586.637 343.551 586.637C345.045 586.637 346.047 585.904 346.059 584.773C346.047 583.66 345.045 582.922 343.551 582.922C342.039 582.922 341.037 583.66 341.043 584.773ZM341.922 584.773C341.916 584.094 342.566 583.637 343.551 583.637C344.523 583.637 345.18 584.094 345.191 584.773C345.18 585.482 344.523 585.922 343.551 585.934C342.566 585.922 341.916 585.482 341.922 584.773ZM341.992 590.809H348.566V587.41H341.992V590.809ZM342.895 590.059V588.148H347.652V590.059H342.895Z" fill="#6662A8"/>
<path d="M341.857 657.91H338.143V658.836H341.857V657.91Z" fill="#6662A8"/>
<path d="M205 495H382" stroke="#F3EFFF"/>
<path d="M205 531H382" stroke="#F3EFFF"/>
<path d="M205 567H382" stroke="#F3EFFF"/>
<path d="M205 603H382" stroke="#F3EFFF"/>
<path d="M205 639H382" stroke="#F3EFFF"/>
<path d="M205 675H382" stroke="#F3EFFF"/>
<g clip-path="url(#clip2_764_15479)">
<g filter="url(#filter2_d_764_15479)">
<path d="M236.636 314.148C236.636 298.05 223.619 285 207.561 285C191.504 285 178.486 298.05 178.486 314.148V343.852C178.486 359.95 191.504 373 207.561 373C223.619 373 236.636 359.95 236.636 343.852V314.148Z" fill="white"/>
</g>
<g filter="url(#filter3_d_764_15479)">
<path d="M172.744 319.947C172.744 306.662 162.003 295.894 148.753 295.894C135.503 295.894 124.762 306.662 124.762 319.947V344.454C124.762 357.738 135.503 368.507 148.753 368.507C162.003 368.507 172.744 357.738 172.744 344.454V319.947Z" fill="white"/>
</g>
<g filter="url(#filter4_d_764_15479)">
<path d="M119.591 319.947C119.591 306.662 108.85 295.894 95.6004 295.894C82.3505 295.894 71.6094 306.662 71.6094 319.947V344.454C71.6094 357.738 82.3505 368.507 95.6004 368.507C108.85 368.507 119.591 357.738 119.591 344.454V319.947Z" fill="white"/>
</g>
<g filter="url(#filter5_d_764_15479)">
<path d="M66.4391 319.947C66.4391 306.662 55.698 295.894 42.4481 295.894C29.1982 295.894 18.457 306.662 18.457 319.947V344.454C18.457 357.738 29.1982 368.507 42.4481 368.507C55.698 368.507 66.4391 357.738 66.4391 344.454V319.947Z" fill="white"/>
</g>
<g filter="url(#filter6_d_764_15479)">
<path d="M12.9821 319.947C12.9821 306.662 2.24095 295.894 -11.0089 295.894C-24.2588 295.894 -35 306.662 -35 319.947V344.454C-35 357.738 -24.2588 368.507 -11.0089 368.507C2.24095 368.507 12.9821 357.738 12.9821 344.454V319.947Z" fill="white"/>
</g>
<g filter="url(#filter7_d_764_15479)">
<path d="M396.394 319.947C396.394 306.662 385.653 295.894 372.403 295.894C359.153 295.894 348.412 306.662 348.412 319.947V344.454C348.412 357.738 359.153 368.507 372.403 368.507C385.653 368.507 396.394 357.738 396.394 344.454V319.947Z" fill="white"/>
</g>
<g filter="url(#filter8_d_764_15479)">
<path d="M449.646 319.947C449.646 306.662 438.905 295.894 425.655 295.894C412.405 295.894 401.664 306.662 401.664 319.947V344.454C401.664 357.738 412.405 368.507 425.655 368.507C438.905 368.507 449.646 357.738 449.646 344.454V319.947Z" fill="white"/>
</g>
<g filter="url(#filter9_d_764_15479)">
<path d="M343.244 319.947C343.244 306.662 332.503 295.894 319.253 295.894C306.003 295.894 295.262 306.662 295.262 319.947V344.454C295.262 357.738 306.003 368.507 319.253 368.507C332.503 368.507 343.244 357.738 343.244 344.454V319.947Z" fill="white"/>
</g>
<g filter="url(#filter10_d_764_15479)">
<path d="M290.092 319.947C290.092 306.662 279.35 295.894 266.1 295.894C252.851 295.894 242.109 306.662 242.109 319.947V344.454C242.109 357.738 252.851 368.507 266.1 368.507C279.35 368.507 290.092 357.738 290.092 344.454V319.947Z" fill="white"/>
</g>
</g>
<circle cx="208" cy="317" r="24" fill="#FA827A"/>
<circle cx="96" cy="322" r="20" fill="#FA827A"/>
<circle cx="149" cy="322" r="20" fill="#FA827A"/>
<rect x="0.05" y="802.05" width="413.9" height="93.9" fill="white" stroke="black" stroke-width="0.1"/>
<path d="M154.023 854.531H153.109V864.973H154.023V854.531ZM146.008 856.266H149.934V858.457H146.031V862.441H146.898C148.697 862.441 150.279 862.365 152.195 862.066L152.102 861.293C150.238 861.592 148.697 861.674 146.969 861.668V859.207H150.859V855.504H146.008V856.266ZM165.332 862.875H160.973V860.473H164.395V859.734H162.766V856.312H164.418V855.551H156.637V856.312H158.289V859.734H156.66V860.473H160.07V862.875H155.793V863.66H165.332V862.875ZM159.203 859.734V856.312H161.863V859.734H159.203ZM174.602 860.168H168.332V858.492H174.262V857.754H168.332V856.207H174.484V855.434H167.395V860.918H174.602V860.168ZM166.164 863.59H175.703V862.828H166.164V863.59Z" fill="#8666FF"/>
<path d="M240.613 856.066V855.27H239.652V856.066C239.646 857.859 237.625 859.436 235.82 859.781L236.242 860.555C237.818 860.186 239.465 859.072 240.145 857.543C240.818 859.072 242.471 860.191 244.047 860.555L244.469 859.781C242.658 859.441 240.619 857.854 240.613 856.066ZM235.422 863.531H244.961V862.77H235.422V863.531ZM254.23 860.168H247.961V858.492H253.891V857.754H247.961V856.207H254.113V855.434H247.023V860.918H254.23V860.168ZM245.793 863.59H255.332V862.828H245.793V863.59ZM260.23 855.691H256.492V856.453H259.352V858.527H256.516V862.383H257.207C258.525 862.377 259.721 862.342 261.203 862.078L261.133 861.316C259.744 861.562 258.607 861.598 257.406 861.609V859.289H260.23V855.691ZM260.734 859.043H262.07V864.398H262.938V854.789H262.07V858.293H260.734V859.043ZM264.191 864.949H265.07V854.531H264.191V864.949ZM270.32 856.711V856.57H272.711V855.832H270.332V854.531H269.406V855.832H267.004V856.57H269.406V856.711C269.406 858.141 268.293 859.418 266.746 859.91L267.203 860.637C268.457 860.221 269.43 859.324 269.887 858.176C270.361 859.213 271.352 860.01 272.582 860.367L273.016 859.652C271.457 859.201 270.314 858.035 270.32 856.711ZM268.141 863.027C268.135 864.24 269.459 864.926 271.656 864.926C273.836 864.926 275.16 864.24 275.172 863.027C275.16 861.838 273.836 861.141 271.656 861.152C269.459 861.141 268.135 861.838 268.141 863.027ZM269.066 863.027C269.066 862.318 270.033 861.879 271.656 861.879C273.273 861.879 274.258 862.318 274.258 863.027C274.258 863.766 273.273 864.199 271.656 864.199C270.033 864.199 269.066 863.766 269.066 863.027ZM274.223 860.93H275.137V854.543H274.223V860.93Z" fill="#CCCCCC"/>
<mask id="mask0_764_15479" style="mask-type:alpha" maskUnits="userSpaceOnUse" x="245" y="838" width="23" height="11">
<path fill-rule="evenodd" clip-rule="evenodd" d="M245 838.262H267.766V848.86H245V838.262Z" fill="white"/>
</mask>
<g mask="url(#mask0_764_15479)">
<path fill-rule="evenodd" clip-rule="evenodd" d="M256.385 840.418C250.26 840.418 247.156 841.47 247.156 843.547C247.156 845.642 250.26 846.704 256.385 846.704C262.508 846.704 265.611 845.652 265.611 843.575C265.611 841.48 262.508 840.418 256.385 840.418M256.385 848.86C253.569 848.86 245 848.86 245 843.547C245 838.809 251.498 838.262 256.385 838.262C259.2 838.262 267.767 838.262 267.767 843.575C267.767 848.313 261.27 848.86 256.385 848.86" fill="#CCCCCC"/>
</g>
<mask id="mask1_764_15479" style="mask-type:alpha" maskUnits="userSpaceOnUse" x="248" y="820" width="17" height="16">
<path fill-rule="evenodd" clip-rule="evenodd" d="M248.75 820H264.014V835.262H248.75V820Z" fill="white"/>
</mask>
<g mask="url(#mask1_764_15479)">
<path fill-rule="evenodd" clip-rule="evenodd" d="M256.383 822.052C253.306 822.052 250.802 824.554 250.802 827.632C250.792 830.699 253.277 833.2 256.342 833.211L256.383 834.237V833.211C259.459 833.211 261.961 830.707 261.961 827.632C261.961 824.554 259.459 822.052 256.383 822.052M256.383 835.262H256.337C252.138 835.249 248.736 831.824 248.75 827.627C248.75 823.423 252.174 820 256.383 820C260.592 820 264.014 823.423 264.014 827.631C264.014 831.84 260.592 835.262 256.383 835.262" fill="#CCCCCC"/>
</g>
<path d="M72.7539 861.832H65.582V864.809H72.7539V861.832ZM64.4219 861.035H73.9141V860.297H69.625V859.494C71.4941 859.424 72.543 858.932 72.543 858.023C72.543 857.057 71.3242 856.559 69.168 856.547C67.0059 856.559 65.7812 857.057 65.7812 858.023C65.7812 858.932 66.8359 859.424 68.7109 859.494V860.297H64.4219V861.035ZM64.9141 856.125H73.3633V855.41H69.625V854.379H68.7109V855.41H64.9141V856.125ZM66.4961 864.094V862.547H71.8516V864.094H66.4961ZM66.7656 858.023C66.7598 857.484 67.6387 857.203 69.168 857.191C70.6973 857.203 71.5645 857.484 71.5703 858.023C71.5645 858.557 70.6973 858.855 69.168 858.855C67.6387 858.855 66.7598 858.557 66.7656 858.023Z" fill="#CCCCCC"/>
<path fill-rule="evenodd" clip-rule="evenodd" d="M70.9695 838.829C72.5077 838.829 73.7597 840.111 73.7597 841.687V845.739C73.7597 846.078 74.0229 846.349 74.3602 846.357H76.7952C78.7142 846.357 80.2741 844.768 80.2741 842.816V831.322C80.2652 830.65 79.9547 830.017 79.422 829.597L70.9988 822.67C69.8682 821.746 68.2865 821.746 67.152 822.672L58.7864 829.594C58.2332 830.028 57.9228 830.66 57.9164 831.344V842.816C57.9164 844.768 59.4763 846.357 61.3952 846.357H63.8533C64.1995 846.357 64.4806 846.074 64.4806 845.726C64.4806 845.65 64.4896 845.573 64.5049 845.501V841.687C64.5049 840.12 65.7493 838.839 67.276 838.829H70.9695ZM76.7952 848.333H74.3372C72.9293 848.299 71.8433 847.159 71.8433 845.739V841.687C71.8433 841.2 71.4511 840.805 70.9695 840.805H67.2823C66.8109 840.808 66.4213 841.204 66.4213 841.687V845.726C66.4213 845.825 66.4085 845.92 66.3816 846.009C66.2437 847.314 65.1628 848.333 63.8533 848.333H61.3952C58.4197 848.333 56 845.858 56 842.816V831.335C56.0128 830.025 56.5979 828.826 57.6085 828.037L65.9575 821.127C67.7959 819.625 70.3575 819.625 72.1921 821.124L80.6012 828.041C81.5887 828.817 82.1739 830.013 82.1905 831.307V842.816C82.1905 845.858 79.7707 848.333 76.7952 848.333Z" fill="#CCCCCC"/>
<path d="M344.059 854.531H343.133V856.453H340.812V857.215H343.133V859.922H344.059V854.531ZM335.41 859.207L335.914 859.945C337.145 859.5 338.088 858.592 338.533 857.402C338.996 858.457 339.916 859.277 341.07 859.688L341.562 858.973C340.039 858.475 338.961 857.221 338.973 855.855V854.871H338.07V855.855C338.059 857.379 336.98 858.686 335.41 859.207ZM337.309 861.188H343.145V862.23H337.332V864.809H344.445V864.07H338.234V862.934H344.059V860.449H337.309V861.188ZM354.43 854.531H353.504V857.25H351.406V858.012H353.504V860.742H354.43V854.531ZM345.84 859.91L346.32 860.648C347.562 860.174 348.529 859.201 348.975 857.982C349.426 859.055 350.334 859.934 351.5 860.355L351.98 859.617C350.457 859.096 349.414 857.801 349.414 856.441V856.066H351.746V855.293H346.133V856.066H348.488V856.453C348.488 857.941 347.387 859.354 345.84 859.91ZM347.48 863.004C347.475 864.234 348.805 864.938 350.973 864.949C353.135 864.938 354.465 864.234 354.465 863.004C354.465 861.779 353.135 861.064 350.973 861.07C348.805 861.064 347.475 861.779 347.48 863.004ZM348.395 863.004C348.389 862.242 349.373 861.785 350.973 861.785C352.566 861.785 353.551 862.242 353.551 863.004C353.551 863.76 352.566 864.217 350.973 864.211C349.373 864.217 348.389 863.76 348.395 863.004Z" fill="#CCCCCC"/>
<mask id="mask2_764_15479" style="mask-type:alpha" maskUnits="userSpaceOnUse" x="331" y="819" width="29" height="30">
<path fill-rule="evenodd" clip-rule="evenodd" d="M331.834 819.751H359.154V848.242H331.834V819.751Z" fill="white"/>
</mask>
<g mask="url(#mask2_764_15479)">
<path fill-rule="evenodd" clip-rule="evenodd" d="M339.204 840.981C339.528 840.981 339.853 841.021 340.17 841.103C341.128 841.353 341.959 841.975 342.452 842.809C342.773 843.333 342.95 843.945 342.955 844.569C342.955 845.463 343.695 846.18 344.604 846.18H346.379C347.285 846.18 348.024 845.467 348.028 844.589C348.023 843.618 348.414 842.695 349.129 842.001C349.835 841.316 350.821 840.905 351.807 840.933C352.453 840.948 353.075 841.117 353.623 841.419C354.412 841.858 355.419 841.597 355.875 840.84L356.816 839.318C357.026 838.968 357.087 838.528 356.975 838.122C356.864 837.716 356.586 837.364 356.212 837.157C355.337 836.667 354.712 835.878 354.453 834.932C354.197 834.004 354.337 832.991 354.837 832.156C355.163 831.606 355.64 831.143 356.212 830.824C356.98 830.388 357.249 829.413 356.803 828.654C356.785 828.624 356.768 828.592 356.754 828.559L355.923 827.162C355.472 826.399 354.466 826.136 353.677 826.572C352.824 827.062 351.809 827.202 350.835 826.953C349.862 826.708 349.046 826.11 348.537 825.266C348.211 824.738 348.034 824.123 348.028 823.498C348.041 823.027 347.871 822.605 347.562 822.296C347.255 821.988 346.823 821.813 346.379 821.813H344.604C344.165 821.813 343.754 821.98 343.444 822.279C343.135 822.58 342.967 822.981 342.969 823.407C342.94 825.417 341.247 827.035 339.197 827.035C338.54 827.029 337.906 826.857 337.357 826.538C336.585 826.111 335.576 826.374 335.124 827.137L334.165 828.668C333.726 829.407 333.995 830.385 334.777 830.826C335.937 831.478 336.661 832.694 336.661 833.997C336.661 835.301 335.937 836.515 334.774 837.168C333.996 837.605 333.727 838.577 334.178 839.333L335.072 840.829C335.293 841.216 335.654 841.495 336.072 841.609C336.488 841.722 336.947 841.674 337.33 841.467C337.892 841.147 338.547 840.981 339.204 840.981M346.379 848.242H344.604C342.523 848.242 340.83 846.6 340.83 844.58C340.827 844.332 340.754 844.073 340.616 843.849C340.394 843.472 340.034 843.203 339.619 843.095C339.207 842.988 338.755 843.047 338.384 843.256C337.494 843.738 336.447 843.854 335.489 843.593C334.533 843.331 333.707 842.693 333.223 841.847L332.337 840.366C331.302 838.623 331.918 836.388 333.712 835.382C334.22 835.097 334.536 834.566 334.536 833.997C334.536 833.428 334.22 832.896 333.712 832.611C331.917 831.599 331.302 829.359 332.336 827.616L333.296 826.085C334.318 824.361 336.627 823.753 338.428 824.757C338.673 824.899 338.939 824.97 339.21 824.973C340.092 824.973 340.83 824.266 340.844 823.397C340.839 822.439 341.228 821.519 341.938 820.825C342.651 820.132 343.597 819.751 344.604 819.751H346.379C347.394 819.751 348.38 820.155 349.087 820.858C349.792 821.564 350.182 822.534 350.152 823.517C350.155 823.738 350.23 823.994 350.366 824.218C350.591 824.589 350.947 824.851 351.369 824.958C351.791 825.06 352.233 825.005 352.608 824.789C354.422 823.784 356.73 824.386 357.765 826.132L358.648 827.616C358.67 827.656 358.69 827.694 358.707 827.734C359.645 829.454 359.019 831.62 357.276 832.608C357.023 832.75 356.817 832.948 356.676 833.187C356.456 833.557 356.395 833.997 356.506 834.401C356.619 834.814 356.89 835.156 357.271 835.368C358.131 835.848 358.772 836.656 359.029 837.59C359.285 838.522 359.145 839.534 358.645 840.369L357.704 841.89C356.669 843.617 354.361 844.215 352.566 843.208C352.327 843.075 352.05 843.002 351.775 842.995H351.767C351.358 842.995 350.937 843.164 350.631 843.46C350.321 843.761 350.151 844.162 350.153 844.589C350.143 846.609 348.451 848.242 346.379 848.242" fill="#CCCCCC"/>
</g>
<path fill-rule="evenodd" clip-rule="evenodd" d="M345.498 831.403C344.025 831.403 342.826 832.567 342.826 833.997C342.826 835.427 344.025 836.589 345.498 836.589C346.971 836.589 348.17 835.427 348.17 833.997C348.17 832.567 346.971 831.403 345.498 831.403M345.498 838.652C342.853 838.652 340.701 836.564 340.701 833.997C340.701 831.43 342.853 829.34 345.498 829.34C348.143 829.34 350.295 831.43 350.295 833.997C350.295 836.564 348.143 838.652 345.498 838.652" fill="#CCCCCC"/>
<path fill-rule="evenodd" clip-rule="evenodd" d="M156.977 828.142C156.935 828.142 156.892 828.147 156.849 828.158C152.889 829.102 149.668 833.258 149.668 837.423C149.668 842.662 154.068 846.924 159.477 846.924C164.353 846.924 168.428 843.559 169.167 838.922C169.172 838.884 169.191 838.771 169.081 838.646C168.977 838.528 168.812 838.459 168.639 838.459C166.757 838.459 165.321 838.5 164.2 838.531C161.485 838.61 160.363 838.639 159.253 837.842C157.581 836.642 157.44 834.581 157.44 828.518C157.44 828.409 157.392 828.319 157.296 828.247C157.207 828.178 157.093 828.142 156.977 828.142M159.477 848.862C152.965 848.862 147.668 843.73 147.668 837.423C147.668 832.421 151.572 827.42 156.371 826.276C157.12 826.099 157.925 826.264 158.531 826.721C159.108 827.16 159.44 827.815 159.44 828.518C159.44 834.182 159.637 835.706 160.444 836.286C160.973 836.664 161.699 836.661 164.143 836.595C165.279 836.562 166.733 836.521 168.639 836.521C169.399 836.521 170.115 836.836 170.6 837.385C171.051 837.895 171.248 838.562 171.144 839.218C170.253 844.805 165.347 848.862 159.477 848.862" fill="#8666FF"/>
<mask id="mask3_764_15479" style="mask-type:alpha" maskUnits="userSpaceOnUse" x="161" y="821" width="15" height="14">
<path fill-rule="evenodd" clip-rule="evenodd" d="M161.633 821.292H175.525V834.583H161.633V821.292Z" fill="white"/>
</mask>
<g mask="url(#mask3_764_15479)">
<path fill-rule="evenodd" clip-rule="evenodd" d="M163.682 823.231C163.535 826.485 163.752 830.688 163.854 832.353C163.859 832.453 163.934 832.525 164.035 832.53C165.406 832.606 170.128 832.818 173.524 832.334C173.532 830.52 172.251 828.061 170.322 826.193C168.343 824.279 166.002 823.231 163.711 823.231H163.682ZM168.087 834.583C166.34 834.583 164.803 834.514 163.919 834.465C162.807 834.402 161.922 833.543 161.858 832.466C161.754 830.758 161.528 826.419 161.688 823.064C161.732 822.088 162.546 821.312 163.54 821.295C166.39 821.215 169.33 822.497 171.735 824.823C174.079 827.092 175.567 830.075 175.524 832.422C175.508 833.337 174.822 834.102 173.894 834.238C172.083 834.503 169.963 834.583 168.087 834.583V834.583Z" fill="#8666FF"/>
</g>
<path fill-rule="evenodd" clip-rule="evenodd" d="M159 829.667C159 828.746 158.254 828 157.333 828C152.731 828 149 831.731 149 836.333V837V838C149 843.523 153.477 848 159 848H160C165.523 848 170 843.523 170 838V837H159V829.667Z" fill="#8666FF"/>
<path d="M163 823H164C169.523 823 174 827.477 174 833V833H163V823Z" fill="#8666FF"/>
<rect y="34" width="414" height="59" fill="white"/>
<path d="M193.059 62.2305H189.834V85.3867H193.059V62.2305ZM174.904 66.7754H182.598V70.5078H174.93V79.9785H177.012C181.227 79.9785 184.667 79.8389 188.463 79.166L188.184 76.5508C184.794 77.1094 181.811 77.2871 178.281 77.3125V73.0723H185.898V64.1602H174.904V66.7754ZM217.307 80.0547H208.268V75.8906H215.428V73.3516H212.279V66.75H215.529V64.1602H197.807V66.75H201.006V73.3516H197.908V75.8906H205.043V80.0547H196.156V82.7715H217.307V80.0547ZM204.256 73.3516V66.75H209.08V73.3516H204.256ZM237.467 74.1641H224.416V71.5234H236.756V68.9844H224.416V66.5469H237.289V63.9316H221.115V76.7285H237.467V74.1641ZM218.627 82.6445H239.777V80.0039H218.627V82.6445Z" fill="#8666FF"/>
<rect y="-1" width="414" height="150" fill="black" fill-opacity="0.7"/>
<path d="M30.3181 121.858C31.8629 112.147 40.2371 105 50.0697 105H164.344C174.431 105 182.939 112.511 184.19 122.519L187.5 149H26L30.3181 121.858Z" fill="#F3EFFF"/>
<path d="M76.5752 127.843H69.3564V126.694H74.75V124.685H64.2705V123.618H74.1553V121.731H64.2705V120.686H74.5859V118.676H61.6455V126.694H66.7314V127.843H59.5127V129.894H76.5752V127.843ZM61.502 133.811C61.502 135.82 63.8604 136.897 68.0439 136.887C72.1558 136.897 74.5244 135.82 74.5449 133.811C74.5244 131.842 72.1558 130.734 68.0439 130.755C63.8604 130.734 61.502 131.842 61.502 133.811ZM64.127 133.811C64.1064 133.031 65.3574 132.672 68.0439 132.683C70.6689 132.672 71.9097 133.031 71.9199 133.811C71.9097 134.61 70.6689 134.959 68.0439 134.959C65.3574 134.959 64.1064 134.61 64.127 133.811ZM94.7246 126.817H77.7031V128.93H94.7246V126.817ZM78.4619 124.09L79.3232 126.141C82.8608 125.802 85.209 124.469 86.1934 122.665C87.188 124.469 89.5566 125.802 93.084 126.141L94.0068 124.09C90.418 123.772 88.5107 122.48 88.0903 121.178H93.1865V119.086H79.2617V121.178H84.3169C83.8862 122.49 81.9688 123.772 78.4619 124.09ZM79.6514 133.441C79.6514 135.646 82.1123 136.897 86.1934 136.887C90.2437 136.897 92.6738 135.646 92.6943 133.441C92.6738 131.247 90.2437 129.976 86.1934 129.976C82.1123 129.976 79.6514 131.247 79.6514 133.441ZM82.3174 133.441C82.3071 132.467 83.6094 132.006 86.1934 132.006C88.7261 132.006 90.0591 132.467 90.0693 133.441C90.0591 134.405 88.7261 134.856 86.1934 134.856C83.6094 134.856 82.3071 134.405 82.3174 133.441ZM116.34 118.225H113.735V136.928H116.34V118.225ZM101.677 121.896H107.891V124.91H101.697V132.56H103.379C106.783 132.56 109.562 132.447 112.628 131.903L112.402 129.791C109.665 130.242 107.255 130.386 104.404 130.406V126.981H110.557V119.783H101.677V121.896ZM135.925 132.621H128.624V129.258H134.407V127.207H131.864V121.875H134.489V119.783H120.175V121.875H122.759V127.207H120.257V129.258H126.02V132.621H118.842V134.815H135.925V132.621ZM125.384 127.207V121.875H129.28V127.207H125.384ZM152.208 127.863H141.667V125.73H151.634V123.68H141.667V121.711H152.064V119.599H139.001V129.935H152.208V127.863ZM136.991 134.713H154.074V132.58H136.991V134.713Z" fill="#8666FF"/>
<path d="M63.5547 54.4141H62.125V58.4805H61.1641V54.5664H59.7461V64.5859H61.1641V59.6992H62.125V65.0781H63.5547V54.4141ZM54.6133 62.3945H58.8555V55.5156H54.6133V62.3945ZM56.0078 61.2227V56.6992H57.4609V61.2227H56.0078ZM67.7148 54.7305C66.0684 54.7246 64.8438 55.7441 64.8438 57.168C64.8438 58.5801 66.0684 59.5879 67.7148 59.5938C69.3379 59.5879 70.5566 58.5801 70.5625 57.168C70.5566 55.7441 69.3379 54.7246 67.7148 54.7305ZM66.2969 57.168C66.2852 56.4004 66.8945 55.9492 67.7148 55.9492C68.5234 55.9492 69.1152 56.4004 69.1211 57.168C69.1152 57.9297 68.5234 58.3809 67.7148 58.3867C66.8887 58.3809 66.2852 57.9297 66.2969 57.168ZM66.4492 61.3516H72.1211V62.0078H66.4727V64.9609H73.9023V63.7891H67.9375V63.0977H73.6094V60.2031H66.4492V61.3516ZM72.1094 59.7578H73.6094V54.4141H72.1094V59.7578ZM87.543 59.9102H83.418V59.2539H86.5V58.1055H80.5117V57.4961H86.1602V56.418H80.5117V55.8203H86.4062V54.6719H79.0117V59.2539H81.918V59.9102H77.793V61.082H87.543V59.9102ZM78.9297 63.3203C78.9297 64.4688 80.2773 65.084 82.668 65.0781C85.0176 65.084 86.3711 64.4688 86.3828 63.3203C86.3711 62.1953 85.0176 61.5625 82.668 61.5742C80.2773 61.5625 78.9297 62.1953 78.9297 63.3203ZM80.4297 63.3203C80.418 62.875 81.1328 62.6699 82.668 62.6758C84.168 62.6699 84.877 62.875 84.8828 63.3203C84.877 63.7773 84.168 63.9766 82.668 63.9766C81.1328 63.9766 80.418 63.7773 80.4297 63.3203ZM97.9141 59.3242H88.1875V60.5312H97.9141V59.3242ZM88.6211 57.7656L89.1133 58.9375C91.1348 58.7441 92.4766 57.9824 93.0391 56.9512C93.6074 57.9824 94.9609 58.7441 96.9766 58.9375L97.5039 57.7656C95.4531 57.584 94.3633 56.8457 94.123 56.1016H97.0352V54.9062H89.0781V56.1016H91.9668C91.7207 56.8516 90.625 57.584 88.6211 57.7656ZM89.3008 63.1094C89.3008 64.3691 90.707 65.084 93.0391 65.0781C95.3535 65.084 96.7422 64.3691 96.7539 63.1094C96.7422 61.8555 95.3535 61.1289 93.0391 61.1289C90.707 61.1289 89.3008 61.8555 89.3008 63.1094ZM90.8242 63.1094C90.8184 62.5527 91.5625 62.2891 93.0391 62.2891C94.4863 62.2891 95.248 62.5527 95.2539 63.1094C95.248 63.6602 94.4863 63.918 93.0391 63.918C91.5625 63.918 90.8184 63.6602 90.8242 63.1094ZM103.422 54.5664C100.961 54.5664 99.5312 55.2109 99.5312 56.3828C99.5312 57.5723 100.961 58.2109 103.422 58.2109C105.877 58.2109 107.295 57.5723 107.301 56.3828C107.295 55.2109 105.877 54.5664 103.422 54.5664ZM98.5586 59.8984H108.285V58.7148H98.5586V59.8984ZM99.6836 61.6094H105.625V62.1953H99.6953V65.0078H107.383V63.8828H101.16V63.2383H107.102V60.5195H99.6836V61.6094ZM101.102 56.3828C101.096 55.9082 101.857 55.6562 103.422 55.6562C104.998 55.6562 105.754 55.9082 105.754 56.3828C105.754 56.9043 104.998 57.1094 103.422 57.1094C101.857 57.1094 101.096 56.9043 101.102 56.3828ZM120.66 54.4141H119.148V65.0781H120.66V54.4141ZM111.73 62.0547L112.516 63.25C116.324 61.4512 117.455 58.7617 117.461 55.5273H112.305V56.6992H115.938C115.697 59.0664 114.484 60.7539 111.73 62.0547ZM131.816 60.1328H127.68V59.3594H130.832V58.2109H124.762V57.5078H130.633V54.6133H123.25V55.7734H129.133V56.4297H123.273V59.3594H126.191V60.1328H122.055V61.3281H131.816V60.1328ZM123.145 63.1094H129.18V65.0312H130.691V61.9375H123.145V63.1094ZM140.852 54.4141H139.375V65.0781H140.852V59.8164H142.422V58.5859H140.852V54.4141ZM132.379 57.2031H138.648V56.0078H136.293V54.5781H134.793V56.0078H132.379V57.2031ZM132.812 60.3438C132.807 61.832 133.967 62.8809 135.543 62.8867C137.096 62.8809 138.262 61.832 138.262 60.3438C138.262 58.8555 137.096 57.7949 135.543 57.8008C133.967 57.7949 132.807 58.8555 132.812 60.3438ZM134.242 60.3438C134.242 59.5234 134.787 59.0195 135.543 59.0078C136.287 59.0195 136.832 59.5234 136.832 60.3438C136.832 61.1699 136.287 61.6621 135.543 61.6562C134.787 61.6621 134.242 61.1699 134.242 60.3438ZM145.75 55.1641C144.133 55.1641 142.973 56.6348 142.984 58.9609C142.973 61.3047 144.133 62.7695 145.75 62.7695C146.781 62.7695 147.631 62.1602 148.105 61.1055H150.332V65.1016H151.809V54.4141H150.332V56.6055H147.994C147.508 55.6855 146.711 55.1641 145.75 55.1641ZM144.414 58.9609C144.408 57.3789 144.953 56.5117 145.75 56.5117C146.553 56.5117 147.086 57.3789 147.086 58.9609C147.086 60.5488 146.553 61.416 145.75 61.4102C144.953 61.416 144.408 60.5488 144.414 58.9609ZM148.41 57.8125H150.332V59.9102H148.445C148.492 59.6113 148.516 59.2949 148.516 58.9609C148.516 58.5508 148.48 58.1641 148.41 57.8125ZM165.672 59.9102H161.547V59.2539H164.629V58.1055H158.641V57.4961H164.289V56.418H158.641V55.8203H164.535V54.6719H157.141V59.2539H160.047V59.9102H155.922V61.082H165.672V59.9102ZM157.059 63.3203C157.059 64.4688 158.406 65.084 160.797 65.0781C163.146 65.084 164.5 64.4688 164.512 63.3203C164.5 62.1953 163.146 61.5625 160.797 61.5742C158.406 61.5625 157.059 62.1953 157.059 63.3203ZM158.559 63.3203C158.547 62.875 159.262 62.6699 160.797 62.6758C162.297 62.6699 163.006 62.875 163.012 63.3203C163.006 63.7773 162.297 63.9766 160.797 63.9766C159.262 63.9766 158.547 63.7773 158.559 63.3203ZM176.043 59.3242H166.316V60.5312H176.043V59.3242ZM166.75 57.7656L167.242 58.9375C169.264 58.7441 170.605 57.9824 171.168 56.9512C171.736 57.9824 173.09 58.7441 175.105 58.9375L175.633 57.7656C173.582 57.584 172.492 56.8457 172.252 56.1016H175.164V54.9062H167.207V56.1016H170.096C169.85 56.8516 168.754 57.584 166.75 57.7656ZM167.43 63.1094C167.43 64.3691 168.836 65.084 171.168 65.0781C173.482 65.084 174.871 64.3691 174.883 63.1094C174.871 61.8555 173.482 61.1289 171.168 61.1289C168.836 61.1289 167.43 61.8555 167.43 63.1094ZM168.953 63.1094C168.947 62.5527 169.691 62.2891 171.168 62.2891C172.615 62.2891 173.377 62.5527 173.383 63.1094C173.377 63.6602 172.615 63.918 171.168 63.918C169.691 63.918 168.947 63.6602 168.953 63.1094ZM179.723 54.7305C178.076 54.7246 176.852 55.7441 176.852 57.168C176.852 58.5801 178.076 59.5879 179.723 59.5938C181.346 59.5879 182.564 58.5801 182.57 57.168C182.564 55.7441 181.346 54.7246 179.723 54.7305ZM178.305 57.168C178.293 56.4004 178.902 55.9492 179.723 55.9492C180.531 55.9492 181.123 56.4004 181.129 57.168C181.123 57.9297 180.531 58.3809 179.723 58.3867C178.896 58.3809 178.293 57.9297 178.305 57.168ZM178.457 61.3516H184.129V62.0078H178.48V64.9609H185.91V63.7891H179.945V63.0977H185.617V60.2031H178.457V61.3516ZM184.117 59.7578H185.617V54.4141H184.117V59.7578ZM192.719 55.2461V54.7305H191.148V55.2461C191.143 56.5059 189.859 57.8945 187.434 58.1992L188.031 59.4062C189.871 59.1367 191.23 58.2695 191.934 57.1211C192.631 58.2754 193.996 59.1367 195.859 59.4062L196.445 58.1992C194.002 57.8945 192.713 56.5059 192.719 55.2461ZM187.059 61.4336H191.16V65.0781H192.637V61.4336H196.785V60.2148H187.059V61.4336ZM200.605 55.0469C198.924 55.0527 197.676 56.1309 197.676 57.6602C197.676 58.9668 198.578 59.9395 199.879 60.2031V61.7031C198.953 61.7266 198.074 61.7266 197.301 61.7266L197.5 62.9336C199.311 62.957 201.713 62.9629 203.945 62.5352L203.84 61.4336C203.049 61.5391 202.205 61.6094 201.367 61.6504V60.1914C202.627 59.916 203.523 58.9492 203.535 57.6602C203.523 56.1309 202.252 55.0527 200.605 55.0469ZM199.141 57.6602C199.135 56.8105 199.762 56.3184 200.605 56.3125C201.432 56.3184 202.059 56.8105 202.059 57.6602C202.059 58.498 201.432 59.0078 200.605 59.0078C199.762 59.0078 199.135 58.498 199.141 57.6602ZM204.402 65.0781H205.902V59.8516H207.355V58.5977H205.902V54.4141H204.402V65.0781ZM214.703 57.3203V56.6641H216.93V55.4453H210.906V56.6641H213.168V57.3203C213.168 59.125 212.254 61.0996 210.484 61.8906L211.34 63.0742C212.6 62.4941 213.484 61.3223 213.965 59.9219C214.445 61.2109 215.312 62.2715 216.566 62.8047L217.375 61.6328C215.588 60.8887 214.697 59.043 214.703 57.3203ZM217.984 65.0781H219.496V54.4141H217.984V65.0781ZM230.664 59.6055H226.527V58.1875H225.051V59.6055H220.938V60.8008H230.664V59.6055ZM221.441 57.6602L221.969 58.8203C223.768 58.5566 225.092 57.7891 225.771 56.7285C226.445 57.7949 227.77 58.5508 229.574 58.8203L230.148 57.6602C227.74 57.3613 226.545 56.1895 226.551 54.9414V54.5898H225.027V54.9414C225.021 56.1426 223.797 57.3613 221.441 57.6602ZM222.016 62.7109H227.992V65.0781H229.48V61.5508H222.016V62.7109ZM240.297 54.4141H238.809V57.0156H237.145V58.2227H238.809V60.7422H240.297V54.4141ZM231.238 59.5703L232.012 60.7539C233.277 60.3203 234.133 59.4473 234.602 58.3633C235.064 59.3184 235.879 60.0918 237.051 60.4727L237.789 59.3008C236.131 58.75 235.369 57.4961 235.34 56.2539H237.461V55.0586H231.672V56.2539H233.816C233.781 57.5898 232.984 58.9844 231.238 59.5703ZM232.984 63.0391C232.984 64.334 234.379 65.0898 236.652 65.0898C238.932 65.0898 240.326 64.334 240.332 63.0391C240.326 61.7441 238.932 60.9824 236.652 60.9766C234.379 60.9824 232.984 61.7441 232.984 63.0391ZM234.473 63.0391C234.473 62.4238 235.24 62.1191 236.652 62.125C238.07 62.1191 238.838 62.4238 238.844 63.0391C238.838 63.6484 238.07 63.9531 236.652 63.9531C235.24 63.9531 234.473 63.6484 234.473 63.0391ZM250.375 59.1836H244.328V56.3594H250.293V55.1641H242.828V60.3672H245.793V62.6406H241.68V63.8594H251.441V62.6406H247.281V60.3672H250.375V59.1836ZM261.801 59.1953H252.039V60.3086H261.801V59.1953ZM253.152 61.8672H259.152V62.4062H253.164V64.9844H260.945V63.9648H254.652V63.3555H260.629V60.8359H253.152V61.8672ZM253.234 55.6211H259.117V56.1602H253.258V58.6914H260.805V57.6836H254.746V57.1094H260.617V54.6016H253.234V55.6211ZM271.27 55.3984H265.316V56.5938H266.266V61.4043C265.838 61.4102 265.428 61.4102 265.047 61.4102L265.211 62.6289C267.045 62.6172 269.482 62.5762 271.668 62.1953L271.586 61.1172C271.176 61.1699 270.754 61.2109 270.32 61.2461V56.5938H271.27V55.3984ZM267.707 61.3809V56.5938H268.879V61.334C268.486 61.3516 268.094 61.3691 267.707 61.3809ZM272.102 65.0781H273.602V59.6875H275.172V58.4688H273.602V54.4141H272.102V65.0781ZM278.559 55C276.889 54.9941 275.623 56.084 275.629 57.5898C275.623 59.1309 276.889 60.209 278.559 60.2031C280.211 60.209 281.465 59.1309 281.465 57.5898C281.465 56.084 280.211 54.9941 278.559 55ZM276.836 62.3008H282.52V65.0898H284.02V61.0938H276.836V62.3008ZM277.105 57.5898C277.094 56.7578 277.721 56.2715 278.559 56.2773C279.379 56.2715 280.006 56.7578 280.012 57.5898C280.006 58.4512 279.379 58.9434 278.559 58.9375C277.721 58.9434 277.094 58.4512 277.105 57.5898ZM282.52 60.6484H284.02V58.1406H285.461V56.9219H284.02V54.4141H282.52V60.6484ZM294.391 54.3906H292.891V60.168H294.391V57.9062H295.832V56.7109H294.391V54.3906ZM285.93 56.3477H292.258V55.2109H289.844V54.3438H288.355V55.2109H285.93V56.3477ZM286.445 58.3516C286.445 59.4414 287.506 60.0918 289.094 60.0977C290.693 60.0918 291.719 59.4414 291.719 58.3516C291.719 57.2852 290.693 56.6113 289.094 56.6055C287.506 56.6113 286.445 57.2852 286.445 58.3516ZM287.312 61.6797H292.902V62.2773H287.336V65.0078H294.695V63.9062H288.801V63.2969H294.391V60.6016H287.312V61.6797ZM287.91 58.3516C287.904 57.9004 288.355 57.6543 289.094 57.6602C289.838 57.6543 290.301 57.9004 290.301 58.3516C290.301 58.8086 289.838 59.0254 289.094 59.0312C288.355 59.0254 287.904 58.8086 287.91 58.3516ZM304.727 55.2461V54.7305H303.156V55.2461C303.15 56.5059 301.867 57.8945 299.441 58.1992L300.039 59.4062C301.879 59.1367 303.238 58.2695 303.941 57.1211C304.639 58.2754 306.004 59.1367 307.867 59.4062L308.453 58.1992C306.01 57.8945 304.721 56.5059 304.727 55.2461ZM299.066 61.4336H303.168V65.0781H304.645V61.4336H308.793V60.2148H299.066V61.4336ZM316.082 61.2578V60.8945H314.629V61.2578C314.623 62.2949 314.025 63.3555 312.625 63.8359L313.363 64.9258C314.336 64.5801 314.992 63.9355 315.373 63.1445C315.719 63.9648 316.346 64.6562 317.348 65.0195C318.303 64.6445 318.924 63.9297 319.275 63.1035C319.645 63.9297 320.312 64.5801 321.332 64.9258L322.059 63.8359C320.635 63.3965 320.043 62.3711 320.055 61.2578V60.8945H318.578V61.2578C318.578 62.0488 318.191 62.9629 317.307 63.5898C316.445 63.0039 316.082 62.1133 316.082 61.2578ZM312.367 57.5312C312.367 59.0137 313.621 60.0801 315.285 60.0742C316.943 60.0801 318.197 59.0137 318.203 57.5312C318.197 56.0195 316.943 54.9648 315.285 54.9648C313.621 54.9648 312.367 56.0195 312.367 57.5312ZM313.832 57.5312C313.82 56.7051 314.43 56.2188 315.285 56.2188C316.117 56.2188 316.721 56.7051 316.727 57.5312C316.721 58.334 316.117 58.8379 315.285 58.832C314.43 58.8379 313.82 58.334 313.832 57.5312ZM319.633 60.4492H321.133V54.4258H319.633V60.4492ZM327.438 54.9531C325.182 54.959 323.43 56.1777 323.43 58.0234C323.43 59.8867 325.182 61.0996 327.438 61.0938C329.688 61.0996 331.451 59.8867 331.457 58.0234C331.451 56.1777 329.688 54.959 327.438 54.9531ZM322.574 63.7773H332.336V62.5703H322.574V63.7773ZM324.883 58.0234C324.877 56.8809 325.955 56.1602 327.438 56.1719C328.908 56.1602 329.975 56.8809 329.98 58.0234C329.975 59.1836 328.908 59.875 327.438 59.875C325.955 59.875 324.877 59.1836 324.883 58.0234ZM338.453 55.3633H333.344V62.4766H338.453V60.9062H340.469V65.1016H341.945V54.4141H340.469V56.8281H338.453V55.3633ZM334.832 61.3164V56.5234H336.988V61.3164H334.832ZM338.453 59.7227V58.0352H340.469V59.7227H338.453ZM37.2812 71.4141H35.8516V75.4805H34.8906V71.5664H33.4727V81.5859H34.8906V76.6992H35.8516V82.0781H37.2812V71.4141ZM28.3398 79.3945H32.582V72.5156H28.3398V79.3945ZM29.7344 78.2227V73.6992H31.1875V78.2227H29.7344ZM43.5742 71.9648H38.7812V76.4648H39.6719C41.9688 76.4707 43.2695 76.4355 44.6523 76.1133L44.5 74.9531C43.252 75.2109 42.127 75.293 40.2695 75.3047V73.1484H43.5742V71.9648ZM39.7891 78.3398H45.3789V78.9727H39.8125V81.9609H47.1719V80.7656H41.2773V80.0977H46.8672V77.1562H39.7891V78.3398ZM45.3672 76.7227H46.8672V74.6484H48.3086V73.4297H46.8672V71.4141H45.3672V76.7227ZM60.0039 71.4141H58.5039V76.7461H60.0039V74.707H61.4453V73.4766H60.0039V71.4141ZM51.8594 76.3477H56.9805V71.918H51.8594V76.3477ZM52.9258 78.3164H58.5156V78.9961H52.9492V81.9609H60.3086V80.7891H54.4141V80.0742H60.0039V77.168H52.9258V78.3164ZM53.3359 75.1641V73.0898H55.5039V75.1641H53.3359ZM73.375 76.1836H67.3281V73.3594H73.293V72.1641H65.8281V77.3672H68.793V79.6406H64.6797V80.8594H74.4414V79.6406H70.2812V77.3672H73.375V76.1836ZM84.7539 75.9609H75.0742V77.0508H79.1641V77.7188H76.1758V78.7852H82.1172V79.3125H76.1875V82.0078H83.875V80.9062H77.6523V80.3203H83.5938V77.7188H80.6523V77.0508H84.7539V75.9609ZM75.4492 74.5664L75.8594 75.668C77.8574 75.5684 79.2285 75.0703 79.9023 74.2676C80.5762 75.0703 81.9531 75.5684 83.9336 75.668L84.3672 74.5664C82.2168 74.4727 81.127 73.9629 80.8223 73.3477H83.8398V72.2461H80.6406V71.4023H79.1641V72.2461H75.9883V73.3477H78.9766C78.666 73.9629 77.582 74.4727 75.4492 74.5664ZM91.7734 75.75H87.6602V73.5469H91.7148V72.3633H86.1719V76.9453H88.1992V78.7441C87.2441 78.7676 86.3184 78.7676 85.4688 78.7617L85.6445 79.9805C87.6484 79.9805 90.0742 79.9629 92.4062 79.6055L92.2891 78.5156C91.457 78.6035 90.5781 78.6621 89.6992 78.6973V76.9453H91.7734V75.75ZM92.8984 82.1016H94.3867V71.4141H92.8984V82.1016ZM104.453 74.3203H98.4883V71.7891H97V75.4922H104.453V74.3203ZM95.7812 77.8125H105.543V76.6406H95.7812V77.8125ZM96.9062 81.8438H104.523V80.6484H98.4062V78.6797H96.9062V81.8438ZM118.656 76.9102H114.531V76.2539H117.613V75.1055H111.625V74.4961H117.273V73.418H111.625V72.8203H117.52V71.6719H110.125V76.2539H113.031V76.9102H108.906V78.082H118.656V76.9102ZM110.043 80.3203C110.043 81.4688 111.391 82.084 113.781 82.0781C116.131 82.084 117.484 81.4688 117.496 80.3203C117.484 79.1953 116.131 78.5625 113.781 78.5742C111.391 78.5625 110.043 79.1953 110.043 80.3203ZM111.543 80.3203C111.531 79.875 112.246 79.6699 113.781 79.6758C115.281 79.6699 115.99 79.875 115.996 80.3203C115.99 80.7773 115.281 80.9766 113.781 80.9766C112.246 80.9766 111.531 80.7773 111.543 80.3203ZM129.027 76.3242H119.301V77.5312H129.027V76.3242ZM119.734 74.7656L120.227 75.9375C122.248 75.7441 123.59 74.9824 124.152 73.9512C124.721 74.9824 126.074 75.7441 128.09 75.9375L128.617 74.7656C126.566 74.584 125.477 73.8457 125.236 73.1016H128.148V71.9062H120.191V73.1016H123.08C122.834 73.8516 121.738 74.584 119.734 74.7656ZM120.414 80.1094C120.414 81.3691 121.82 82.084 124.152 82.0781C126.467 82.084 127.855 81.3691 127.867 80.1094C127.855 78.8555 126.467 78.1289 124.152 78.1289C121.82 78.1289 120.414 78.8555 120.414 80.1094ZM121.938 80.1094C121.932 79.5527 122.676 79.2891 124.152 79.2891C125.6 79.2891 126.361 79.5527 126.367 80.1094C126.361 80.6602 125.6 80.918 124.152 80.918C122.676 80.918 121.932 80.6602 121.938 80.1094ZM139.422 76.8867H129.66V78.0586H133.926V79.7812H135.402V78.0586H139.422V76.8867ZM130.809 81.8906H138.344V80.6953H132.285V78.9375H130.809V81.8906ZM130.914 76.1367H138.156V71.7539H136.668V72.8672H132.391V71.7539H130.914V76.1367ZM132.391 74.9531V73.9805H136.668V74.9531H132.391ZM144.039 73.0781V71.9648H142.527V72.9844C142.521 74.4434 141.76 75.8379 139.973 76.4062L140.781 77.6016C141.982 77.1738 142.82 76.3477 143.289 75.293C143.74 76.2598 144.525 77.0273 145.668 77.4141L146.465 76.2305C144.777 75.6973 144.033 74.4082 144.039 73.0781ZM141.707 79.4297H147.543V82.0781H149.031V78.2461H141.707V79.4297ZM145.539 74.625H147.543V77.7656H149.031V71.4141H147.543V73.3945H145.539V74.625ZM155.277 71.5664C152.816 71.5664 151.387 72.2109 151.387 73.3828C151.387 74.5723 152.816 75.2109 155.277 75.2109C157.732 75.2109 159.15 74.5723 159.156 73.3828C159.15 72.2109 157.732 71.5664 155.277 71.5664ZM150.414 76.8984H160.141V75.7148H150.414V76.8984ZM151.539 78.6094H157.48V79.1953H151.551V82.0078H159.238V80.8828H153.016V80.2383H158.957V77.5195H151.539V78.6094ZM152.957 73.3828C152.951 72.9082 153.713 72.6562 155.277 72.6562C156.854 72.6562 157.609 72.9082 157.609 73.3828C157.609 73.9043 156.854 74.1094 155.277 74.1094C153.713 74.1094 152.951 73.9043 152.957 73.3828ZM173.277 76.9102H169.152V76.2539H172.234V75.1055H166.246V74.4961H171.895V73.418H166.246V72.8203H172.141V71.6719H164.746V76.2539H167.652V76.9102H163.527V78.082H173.277V76.9102ZM164.664 80.3203C164.664 81.4688 166.012 82.084 168.402 82.0781C170.752 82.084 172.105 81.4688 172.117 80.3203C172.105 79.1953 170.752 78.5625 168.402 78.5742C166.012 78.5625 164.664 79.1953 164.664 80.3203ZM166.164 80.3203C166.152 79.875 166.867 79.6699 168.402 79.6758C169.902 79.6699 170.611 79.875 170.617 80.3203C170.611 80.7773 169.902 80.9766 168.402 80.9766C166.867 80.9766 166.152 80.7773 166.164 80.3203ZM179.066 73.043H177.238V71.707H175.762V73.043H173.91V74.2266H179.066V73.043ZM174.156 77.2383C174.156 78.7266 175.152 79.7812 176.512 79.7812C177.877 79.7812 178.85 78.7266 178.855 77.2383C178.85 75.7559 177.877 74.7129 176.512 74.707C175.152 74.7129 174.156 75.7559 174.156 77.2383ZM175.469 77.2383C175.469 76.4355 175.891 75.9492 176.512 75.9492C177.109 75.9492 177.537 76.4355 177.543 77.2383C177.537 78.0527 177.109 78.5156 176.512 78.5156C175.891 78.5156 175.469 78.0527 175.469 77.2383ZM179.465 81.6211H180.859V76.9453H181.727V82.0781H183.145V71.4141H181.727V75.75H180.859V71.625H179.465V81.6211ZM192.672 72.8203V72.0469H191.078V72.8203C191.066 74.3672 189.678 76.043 187.305 76.4648L187.949 77.707C189.795 77.332 191.178 76.2773 191.881 74.9238C192.572 76.2891 193.949 77.3379 195.812 77.707L196.469 76.4648C194.055 76.0547 192.666 74.3848 192.672 72.8203ZM187.059 80.7656H196.82V79.5352H187.059V80.7656ZM203.043 72.8203V72.0469H201.449V72.8203C201.438 74.3672 200.049 76.043 197.676 76.4648L198.32 77.707C200.166 77.332 201.549 76.2773 202.252 74.9238C202.943 76.2891 204.32 77.3379 206.184 77.707L206.84 76.4648C204.426 76.0547 203.037 74.3848 203.043 72.8203ZM197.43 80.7656H207.191V79.5352H197.43V80.7656ZM217.562 79.6641H213.402V78.0586H216.684V76.8398H210.426V75.6445H216.438V72.1055H208.914V73.3008H214.961V74.4727H208.926V78.0586H211.914V79.6641H207.801V80.8945H217.562V79.6641ZM230.664 76.9102H226.539V76.2539H229.621V75.1055H223.633V74.4961H229.281V73.418H223.633V72.8203H229.527V71.6719H222.133V76.2539H225.039V76.9102H220.914V78.082H230.664V76.9102ZM222.051 80.3203C222.051 81.4688 223.398 82.084 225.789 82.0781C228.139 82.084 229.492 81.4688 229.504 80.3203C229.492 79.1953 228.139 78.5625 225.789 78.5742C223.398 78.5625 222.051 79.1953 222.051 80.3203ZM223.551 80.3203C223.539 79.875 224.254 79.6699 225.789 79.6758C227.289 79.6699 227.998 79.875 228.004 80.3203C227.998 80.7773 227.289 80.9766 225.789 80.9766C224.254 80.9766 223.539 80.7773 223.551 80.3203ZM241.035 76.3242H231.309V77.5312H241.035V76.3242ZM231.742 74.7656L232.234 75.9375C234.256 75.7441 235.598 74.9824 236.16 73.9512C236.729 74.9824 238.082 75.7441 240.098 75.9375L240.625 74.7656C238.574 74.584 237.484 73.8457 237.244 73.1016H240.156V71.9062H232.199V73.1016H235.088C234.842 73.8516 233.746 74.584 231.742 74.7656ZM232.422 80.1094C232.422 81.3691 233.828 82.084 236.16 82.0781C238.475 82.084 239.863 81.3691 239.875 80.1094C239.863 78.8555 238.475 78.1289 236.16 78.1289C233.828 78.1289 232.422 78.8555 232.422 80.1094ZM233.945 80.1094C233.939 79.5527 234.684 79.2891 236.16 79.2891C237.607 79.2891 238.369 79.5527 238.375 80.1094C238.369 80.6602 237.607 80.918 236.16 80.918C234.684 80.918 233.939 80.6602 233.945 80.1094ZM246.543 71.5664C244.082 71.5664 242.652 72.2109 242.652 73.3828C242.652 74.5723 244.082 75.2109 246.543 75.2109C248.998 75.2109 250.416 74.5723 250.422 73.3828C250.416 72.2109 248.998 71.5664 246.543 71.5664ZM241.68 76.8984H251.406V75.7148H241.68V76.8984ZM242.805 78.6094H248.746V79.1953H242.816V82.0078H250.504V80.8828H244.281V80.2383H250.223V77.5195H242.805V78.6094ZM244.223 73.3828C244.217 72.9082 244.979 72.6562 246.543 72.6562C248.119 72.6562 248.875 72.9082 248.875 73.3828C248.875 73.9043 248.119 74.1094 246.543 74.1094C244.979 74.1094 244.217 73.9043 244.223 73.3828ZM260.793 72.1875H255.309V73.4062H259.334C259.322 74.0449 259.275 74.8242 259.082 75.8438L260.547 75.9844C260.793 74.6602 260.793 73.5938 260.793 72.8555V72.1875ZM254.676 76.7578L254.805 77.9531C256.662 77.9473 259.158 77.9062 261.379 77.4961L261.297 76.418C260.295 76.5645 259.211 76.6465 258.145 76.6934V74.6484H256.656V76.7402C255.947 76.7578 255.273 76.7578 254.676 76.7578ZM256.246 81.8906H263.734V80.6953H257.746V78.6797H256.246V81.8906ZM261.871 79.3945H263.406V75.9141H264.695V74.6602H263.406V71.4141H261.871V79.3945ZM274.129 71.4141H272.641V82.1016H274.129V71.4141ZM265.75 73.5117H269.301V75.2344H265.762V79.6055H266.723C268.668 79.6055 270.256 79.541 272.008 79.2305L271.879 78.0234C270.314 78.2812 268.938 78.3633 267.309 78.375V76.418H270.824V72.3047H265.75V73.5117ZM284.02 71.3906H282.52V77.168H284.02V74.9062H285.461V73.7109H284.02V71.3906ZM275.559 73.3477H281.887V72.2109H279.473V71.3438H277.984V72.2109H275.559V73.3477ZM276.074 75.3516C276.074 76.4414 277.135 77.0918 278.723 77.0977C280.322 77.0918 281.348 76.4414 281.348 75.3516C281.348 74.2852 280.322 73.6113 278.723 73.6055C277.135 73.6113 276.074 74.2852 276.074 75.3516ZM276.941 78.6797H282.531V79.2773H276.965V82.0078H284.324V80.9062H278.43V80.2969H284.02V77.6016H276.941V78.6797ZM277.539 75.3516C277.533 74.9004 277.984 74.6543 278.723 74.6602C279.467 74.6543 279.93 74.9004 279.93 75.3516C279.93 75.8086 279.467 76.0254 278.723 76.0312C277.984 76.0254 277.533 75.8086 277.539 75.3516ZM294.355 72.2461V71.7305H292.785V72.2461C292.779 73.5059 291.496 74.8945 289.07 75.1992L289.668 76.4062C291.508 76.1367 292.867 75.2695 293.57 74.1211C294.268 75.2754 295.633 76.1367 297.496 76.4062L298.082 75.1992C295.639 74.8945 294.35 73.5059 294.355 72.2461ZM288.695 78.4336H292.797V82.0781H294.273V78.4336H298.422V77.2148H288.695V78.4336ZM305.711 78.2578V77.8945H304.258V78.2578C304.252 79.2949 303.654 80.3555 302.254 80.8359L302.992 81.9258C303.965 81.5801 304.621 80.9355 305.002 80.1445C305.348 80.9648 305.975 81.6562 306.977 82.0195C307.932 81.6445 308.553 80.9297 308.904 80.1035C309.273 80.9297 309.941 81.5801 310.961 81.9258L311.688 80.8359C310.264 80.3965 309.672 79.3711 309.684 78.2578V77.8945H308.207V78.2578C308.207 79.0488 307.82 79.9629 306.936 80.5898C306.074 80.0039 305.711 79.1133 305.711 78.2578ZM301.996 74.5312C301.996 76.0137 303.25 77.0801 304.914 77.0742C306.572 77.0801 307.826 76.0137 307.832 74.5312C307.826 73.0195 306.572 71.9648 304.914 71.9648C303.25 71.9648 301.996 73.0195 301.996 74.5312ZM303.461 74.5312C303.449 73.7051 304.059 73.2188 304.914 73.2188C305.746 73.2188 306.35 73.7051 306.355 74.5312C306.35 75.334 305.746 75.8379 304.914 75.832C304.059 75.8379 303.449 75.334 303.461 74.5312ZM309.262 77.4492H310.762V71.4258H309.262V77.4492ZM314.816 77.8125H313.34V81.9609H320.699V77.8125H319.211V78.7148H314.816V77.8125ZM312.203 77.2734H321.93V76.0664H312.203V77.2734ZM312.684 74.4258L313.223 75.5977C315.039 75.3633 316.375 74.6016 317.066 73.5703C317.752 74.6016 319.088 75.3633 320.922 75.5977L321.449 74.4258C319.064 74.1562 317.84 72.9492 317.84 71.8828V71.5195H316.305V71.8828C316.293 72.9785 315.062 74.1387 312.684 74.4258ZM314.816 80.7891V79.8516H319.211V80.7891H314.816ZM331.539 71.4141H330.051V82.0781H331.539V71.4141ZM323.148 79.4414H324.086C325.732 79.4473 327.502 79.3301 329.371 78.9375L329.184 77.707C327.613 78.0117 326.066 78.1465 324.625 78.1699V72.4336H323.148V79.4414ZM341.359 71.4141H339.859V82.1016H341.359V76.5938H342.93V75.375H341.359V71.4141ZM333.367 79.5117H334.27C336.15 79.5176 337.604 79.4766 339.262 79.1953L339.098 77.9414C337.68 78.1875 336.402 78.2695 334.855 78.2812V73.6055H338.371V72.3984H333.367V79.5117Z" fill="white"/>
<path d="M222 124L227 126.887V121.113L222 124ZM376 124V124.5H376.5V124H376ZM376 68H376.5V67.5H376V68ZM226.5 124.5H376V123.5H226.5V124.5ZM376.5 124V68H375.5V124H376.5ZM376 67.5H350.583V68.5H376V67.5Z" fill="white"/>
</g>
<defs>
<filter id="filter0_d_764_15479" x="4" y="717" width="406" height="347" filterUnits="userSpaceOnUse" color-interpolation-filters="sRGB">
<feFlood flood-opacity="0" result="BackgroundImageFix"/>
<feColorMatrix in="SourceAlpha" type="matrix" values="0 0 0 0 0 0 0 0 0 0 0 0 0 0 0 0 0 0 127 0" result="hardAlpha"/>
<feOffset dy="5"/>
<feGaussianBlur stdDeviation="7.5"/>
<feComposite in2="hardAlpha" operator="out"/>
<feColorMatrix type="matrix" values="0 0 0 0 0 0 0 0 0 0 0 0 0 0 0 0 0 0 0.15 0"/>
<feBlend mode="normal" in2="BackgroundImageFix" result="effect1_dropShadow_764_15479"/>
<feBlend mode="normal" in="SourceGraphic" in2="effect1_dropShadow_764_15479" result="shape"/>
</filter>
<filter id="filter1_d_764_15479" x="5" y="379" width="404" height="346" filterUnits="userSpaceOnUse" color-interpolation-filters="sRGB">
<feFlood flood-opacity="0" result="BackgroundImageFix"/>
<feColorMatrix in="SourceAlpha" type="matrix" values="0 0 0 0 0 0 0 0 0 0 0 0 0 0 0 0 0 0 127 0" result="hardAlpha"/>
<feOffset dy="5"/>
<feGaussianBlur stdDeviation="7.5"/>
<feComposite in2="hardAlpha" operator="out"/>
<feColorMatrix type="matrix" values="0 0 0 0 0 0 0 0 0 0 0 0 0 0 0 0 0 0 0.15 0"/>
<feBlend mode="normal" in2="BackgroundImageFix" result="effect1_dropShadow_764_15479"/>
<feBlend mode="normal" in="SourceGraphic" in2="effect1_dropShadow_764_15479" result="shape"/>
</filter>
<filter id="filter2_d_764_15479" x="176.486" y="284" width="66.1504" height="96" filterUnits="userSpaceOnUse" color-interpolation-filters="sRGB">
<feFlood flood-opacity="0" result="BackgroundImageFix"/>
<feColorMatrix in="SourceAlpha" type="matrix" values="0 0 0 0 0 0 0 0 0 0 0 0 0 0 0 0 0 0 127 0" result="hardAlpha"/>
<feOffset dx="2" dy="3"/>
<feGaussianBlur stdDeviation="2"/>
<feComposite in2="hardAlpha" operator="out"/>
<feColorMatrix type="matrix" values="0 0 0 0 0 0 0 0 0 0 0 0 0 0 0 0 0 0 0.05 0"/>
<feBlend mode="normal" in2="BackgroundImageFix" result="effect1_dropShadow_764_15479"/>
<feBlend mode="normal" in="SourceGraphic" in2="effect1_dropShadow_764_15479" result="shape"/>
</filter>
<filter id="filter3_d_764_15479" x="122.762" y="294.894" width="55.9824" height="80.6132" filterUnits="userSpaceOnUse" color-interpolation-filters="sRGB">
<feFlood flood-opacity="0" result="BackgroundImageFix"/>
<feColorMatrix in="SourceAlpha" type="matrix" values="0 0 0 0 0 0 0 0 0 0 0 0 0 0 0 0 0 0 127 0" result="hardAlpha"/>
<feOffset dx="2" dy="3"/>
<feGaussianBlur stdDeviation="2"/>
<feComposite in2="hardAlpha" operator="out"/>
<feColorMatrix type="matrix" values="0 0 0 0 0 0 0 0 0 0 0 0 0 0 0 0 0 0 0.05 0"/>
<feBlend mode="normal" in2="BackgroundImageFix" result="effect1_dropShadow_764_15479"/>
<feBlend mode="normal" in="SourceGraphic" in2="effect1_dropShadow_764_15479" result="shape"/>
</filter>
<filter id="filter4_d_764_15479" x="69.6094" y="294.894" width="55.9824" height="80.6132" filterUnits="userSpaceOnUse" color-interpolation-filters="sRGB">
<feFlood flood-opacity="0" result="BackgroundImageFix"/>
<feColorMatrix in="SourceAlpha" type="matrix" values="0 0 0 0 0 0 0 0 0 0 0 0 0 0 0 0 0 0 127 0" result="hardAlpha"/>
<feOffset dx="2" dy="3"/>
<feGaussianBlur stdDeviation="2"/>
<feComposite in2="hardAlpha" operator="out"/>
<feColorMatrix type="matrix" values="0 0 0 0 0 0 0 0 0 0 0 0 0 0 0 0 0 0 0.05 0"/>
<feBlend mode="normal" in2="BackgroundImageFix" result="effect1_dropShadow_764_15479"/>
<feBlend mode="normal" in="SourceGraphic" in2="effect1_dropShadow_764_15479" result="shape"/>
</filter>
<filter id="filter5_d_764_15479" x="16.457" y="294.894" width="55.9824" height="80.6132" filterUnits="userSpaceOnUse" color-interpolation-filters="sRGB">
<feFlood flood-opacity="0" result="BackgroundImageFix"/>
<feColorMatrix in="SourceAlpha" type="matrix" values="0 0 0 0 0 0 0 0 0 0 0 0 0 0 0 0 0 0 127 0" result="hardAlpha"/>
<feOffset dx="2" dy="3"/>
<feGaussianBlur stdDeviation="2"/>
<feComposite in2="hardAlpha" operator="out"/>
<feColorMatrix type="matrix" values="0 0 0 0 0 0 0 0 0 0 0 0 0 0 0 0 0 0 0.05 0"/>
<feBlend mode="normal" in2="BackgroundImageFix" result="effect1_dropShadow_764_15479"/>
<feBlend mode="normal" in="SourceGraphic" in2="effect1_dropShadow_764_15479" result="shape"/>
</filter>
<filter id="filter6_d_764_15479" x="-37" y="294.894" width="55.9824" height="80.6132" filterUnits="userSpaceOnUse" color-interpolation-filters="sRGB">
<feFlood flood-opacity="0" result="BackgroundImageFix"/>
<feColorMatrix in="SourceAlpha" type="matrix" values="0 0 0 0 0 0 0 0 0 0 0 0 0 0 0 0 0 0 127 0" result="hardAlpha"/>
<feOffset dx="2" dy="3"/>
<feGaussianBlur stdDeviation="2"/>
<feComposite in2="hardAlpha" operator="out"/>
<feColorMatrix type="matrix" values="0 0 0 0 0 0 0 0 0 0 0 0 0 0 0 0 0 0 0.05 0"/>
<feBlend mode="normal" in2="BackgroundImageFix" result="effect1_dropShadow_764_15479"/>
<feBlend mode="normal" in="SourceGraphic" in2="effect1_dropShadow_764_15479" result="shape"/>
</filter>
<filter id="filter7_d_764_15479" x="346.412" y="294.894" width="55.9824" height="80.6132" filterUnits="userSpaceOnUse" color-interpolation-filters="sRGB">
<feFlood flood-opacity="0" result="BackgroundImageFix"/>
<feColorMatrix in="SourceAlpha" type="matrix" values="0 0 0 0 0 0 0 0 0 0 0 0 0 0 0 0 0 0 127 0" result="hardAlpha"/>
<feOffset dx="2" dy="3"/>
<feGaussianBlur stdDeviation="2"/>
<feComposite in2="hardAlpha" operator="out"/>
<feColorMatrix type="matrix" values="0 0 0 0 0 0 0 0 0 0 0 0 0 0 0 0 0 0 0.05 0"/>
<feBlend mode="normal" in2="BackgroundImageFix" result="effect1_dropShadow_764_15479"/>
<feBlend mode="normal" in="SourceGraphic" in2="effect1_dropShadow_764_15479" result="shape"/>
</filter>
<filter id="filter8_d_764_15479" x="399.664" y="294.894" width="55.9824" height="80.6132" filterUnits="userSpaceOnUse" color-interpolation-filters="sRGB">
<feFlood flood-opacity="0" result="BackgroundImageFix"/>
<feColorMatrix in="SourceAlpha" type="matrix" values="0 0 0 0 0 0 0 0 0 0 0 0 0 0 0 0 0 0 127 0" result="hardAlpha"/>
<feOffset dx="2" dy="3"/>
<feGaussianBlur stdDeviation="2"/>
<feComposite in2="hardAlpha" operator="out"/>
<feColorMatrix type="matrix" values="0 0 0 0 0 0 0 0 0 0 0 0 0 0 0 0 0 0 0.05 0"/>
<feBlend mode="normal" in2="BackgroundImageFix" result="effect1_dropShadow_764_15479"/>
<feBlend mode="normal" in="SourceGraphic" in2="effect1_dropShadow_764_15479" result="shape"/>
</filter>
<filter id="filter9_d_764_15479" x="293.262" y="294.894" width="55.9824" height="80.6132" filterUnits="userSpaceOnUse" color-interpolation-filters="sRGB">
<feFlood flood-opacity="0" result="BackgroundImageFix"/>
<feColorMatrix in="SourceAlpha" type="matrix" values="0 0 0 0 0 0 0 0 0 0 0 0 0 0 0 0 0 0 127 0" result="hardAlpha"/>
<feOffset dx="2" dy="3"/>
<feGaussianBlur stdDeviation="2"/>
<feComposite in2="hardAlpha" operator="out"/>
<feColorMatrix type="matrix" values="0 0 0 0 0 0 0 0 0 0 0 0 0 0 0 0 0 0 0.05 0"/>
<feBlend mode="normal" in2="BackgroundImageFix" result="effect1_dropShadow_764_15479"/>
<feBlend mode="normal" in="SourceGraphic" in2="effect1_dropShadow_764_15479" result="shape"/>
</filter>
<filter id="filter10_d_764_15479" x="240.109" y="294.894" width="55.9824" height="80.6132" filterUnits="userSpaceOnUse" color-interpolation-filters="sRGB">
<feFlood flood-opacity="0" result="BackgroundImageFix"/>
<feColorMatrix in="SourceAlpha" type="matrix" values="0 0 0 0 0 0 0 0 0 0 0 0 0 0 0 0 0 0 127 0" result="hardAlpha"/>
<feOffset dx="2" dy="3"/>
<feGaussianBlur stdDeviation="2"/>
<feComposite in2="hardAlpha" operator="out"/>
<feColorMatrix type="matrix" values="0 0 0 0 0 0 0 0 0 0 0 0 0 0 0 0 0 0 0.05 0"/>
<feBlend mode="normal" in2="BackgroundImageFix" result="effect1_dropShadow_764_15479"/>
<feBlend mode="normal" in="SourceGraphic" in2="effect1_dropShadow_764_15479" result="shape"/>
</filter>
<clipPath id="clip0_764_15479">
<rect width="414" height="896" fill="white"/>
</clipPath>
<clipPath id="clip1_764_15479">
<rect width="161" height="217" fill="white" transform="translate(35 458)"/>
</clipPath>
<clipPath id="clip2_764_15479">
<rect width="484.647" height="88" fill="white" transform="translate(-35 285)"/>
</clipPath>
</defs>
</svg>
