<svg width="414" height="896" viewBox="0 0 414 896" fill="none" xmlns="http://www.w3.org/2000/svg">
<rect width="414" height="896" fill="white"/>
<path d="M204.16 62.2305H200.936V65.6836H196.594V68.248H200.936V73.9863H204.16V62.2305ZM184.508 71.5996L186.184 74.1641C188.888 73.3135 190.703 71.5869 191.719 69.3652C192.722 71.3457 194.448 72.8945 196.924 73.6816L198.625 71.1934C194.943 70.1016 193.331 67.4229 193.344 64.668V62.9922H190.068V64.668C190.056 67.6514 188.342 70.4697 184.508 71.5996ZM188.799 77.4395H200.961V78.7598H188.824V85.082H204.82V82.543H192.023V81.1211H204.16V74.9512H188.799V77.4395ZM226.631 62.2305H223.406V67.8672H219.801V70.4824H223.406V75.9414H226.631V62.2305ZM207.004 73.4023L208.68 75.9668C211.422 75.0273 213.275 73.1357 214.291 70.7871C215.294 72.8564 217.059 74.5322 219.598 75.3574L221.197 72.8184C217.604 71.625 215.954 68.9082 215.891 66.2168H220.486V63.627H207.943V66.2168H212.59C212.514 69.1113 210.787 72.1328 207.004 73.4023ZM210.787 80.918C210.787 83.7236 213.809 85.3613 218.734 85.3613C223.673 85.3613 226.694 83.7236 226.707 80.918C226.694 78.1123 223.673 76.4619 218.734 76.4492C213.809 76.4619 210.787 78.1123 210.787 80.918ZM214.012 80.918C214.012 79.585 215.675 78.9248 218.734 78.9375C221.807 78.9248 223.47 79.585 223.482 80.918C223.47 82.2383 221.807 82.8984 218.734 82.8984C215.675 82.8984 214.012 82.2383 214.012 80.918Z" fill="#8666FF"/>
<rect y="109" width="414" height="693" fill="#F3EFFF"/>
<g filter="url(#filter0_d_764_15631)">
<rect x="29" y="141" width="356" height="191" rx="15" fill="white"/>
</g>
<g filter="url(#filter1_d_764_15631)">
<rect x="29" y="352" width="356" height="307" rx="15" fill="white"/>
</g>
<path d="M68 421H61C60.4696 421 59.9609 421.211 59.5858 421.586C59.2107 421.961 59 422.47 59 423V437C59 437.53 59.2107 438.039 59.5858 438.414C59.9609 438.789 60.4696 439 61 439H75C75.5304 439 76.0391 438.789 76.4142 438.414C76.7893 438.039 77 437.53 77 437V430" stroke="#6662A8" stroke-width="1.5" stroke-linecap="round" stroke-linejoin="round"/>
<path d="M75.5 419.5C75.8978 419.102 76.4374 418.879 77 418.879C77.5626 418.879 78.1022 419.102 78.5 419.5C78.8978 419.898 79.1213 420.437 79.1213 421C79.1213 421.563 78.8978 422.102 78.5 422.5L69 432L65 433L66 429L75.5 419.5Z" stroke="#6662A8" stroke-width="1.5" stroke-linecap="round" stroke-linejoin="round"/>
<path d="M71 541V539C71 537.939 70.5786 536.922 69.8284 536.172C69.0783 535.421 68.0609 535 67 535H59C57.9391 535 56.9217 535.421 56.1716 536.172C55.4214 536.922 55 537.939 55 539V541" stroke="#6662A8" stroke-width="1.5" stroke-linecap="round" stroke-linejoin="round"/>
<path d="M63 531C65.2091 531 67 529.209 67 527C67 524.791 65.2091 523 63 523C60.7909 523 59 524.791 59 527C59 529.209 60.7909 531 63 531Z" stroke="#6662A8" stroke-width="1.5" stroke-linecap="round" stroke-linejoin="round"/>
<path d="M77 541V539C76.9993 538.114 76.7044 537.253 76.1614 536.552C75.6184 535.852 74.8581 535.352 74 535.13" stroke="#6662A8" stroke-width="1.5" stroke-linecap="round" stroke-linejoin="round"/>
<path d="M70 523.13C70.8604 523.35 71.623 523.851 72.1676 524.552C72.7122 525.254 73.0078 526.117 73.0078 527.005C73.0078 527.893 72.7122 528.756 72.1676 529.458C71.623 530.159 70.8604 530.66 70 530.88" stroke="#6662A8" stroke-width="1.5" stroke-linecap="round" stroke-linejoin="round"/>
<path d="M242.991 202.409H238.454V197.625H242.834V195.334H235.579V204.678H242.991V202.409ZM225.606 211.686H244.316V209.372H236.298V205.576H233.468V209.372H225.606V211.686ZM227.044 204.678H228.347C230.784 204.689 232.558 204.655 234.636 204.229L234.434 201.893C232.906 202.185 231.525 202.308 229.919 202.353V197.625H234.299V195.334H227.044V204.678ZM256.513 195.042H246.518V204.251H256.513V195.042ZM248.584 210.046C248.584 212.584 251.291 214.078 255.659 214.066C259.938 214.078 262.667 212.584 262.667 210.046C262.667 207.508 259.938 206.014 255.659 206.025C251.291 206.014 248.584 207.508 248.584 210.046ZM249.348 201.96V197.333H253.66V201.96H249.348ZM251.481 210.046C251.481 208.822 252.896 208.26 255.659 208.271C258.343 208.26 259.814 208.822 259.814 210.046C259.814 211.236 258.343 211.843 255.659 211.843C252.896 211.843 251.481 211.236 251.481 210.046ZM259.725 205.666H262.6V193.649H259.725V205.666Z" fill="#8666FF"/>
<path d="M225.809 235H226.816V230.992C226.816 230.137 227.496 229.504 228.41 229.504C228.674 229.504 228.943 229.557 229.02 229.574V228.555C228.902 228.543 228.645 228.537 228.492 228.531C227.742 228.537 227.08 228.965 226.852 229.609H226.781V228.637H225.809V235ZM231.012 226.516H230.004V235H231.012V226.516ZM232.312 233.195C232.312 234.438 233.273 235.146 234.48 235.152C235.588 235.146 236.168 234.561 236.379 234.133H236.426V235H237.422V230.805C237.428 228.801 235.863 228.555 235.031 228.555C233.625 228.555 232.629 229.264 232.5 230.289H233.555C233.695 229.803 234.182 229.434 234.984 229.434C235.945 229.434 236.426 229.902 236.426 230.711V231.227C236.139 231.232 235.113 231.291 234.703 231.32C233.602 231.402 232.312 231.736 232.312 233.195ZM233.32 233.242C233.326 232.545 233.906 232.223 234.82 232.164C235.125 232.146 236.127 232.07 236.426 232.053V232.691C236.426 233.494 235.793 234.256 234.656 234.25C233.883 234.256 233.326 233.916 233.32 233.242ZM241.816 228.637H240.48V227.113H239.461V228.637H238.5V229.48H239.461V233.43C239.467 234.555 240.357 235.082 241.207 235.082C241.506 235.082 241.752 235.059 241.91 235.035V234.098C241.764 234.104 241.494 234.121 241.312 234.121C240.885 234.121 240.475 233.986 240.48 233.172V229.48H241.816V228.637ZM243.117 228.637V235.457C243.111 236.096 242.848 236.459 242.262 236.453C242.191 236.459 242.133 236.459 242.062 236.453V237.391C242.145 237.385 242.209 237.385 242.273 237.391C243.51 237.385 244.125 236.646 244.125 235.457V228.637H243.117ZM242.906 226.914C242.9 227.283 243.223 227.582 243.609 227.582C243.996 227.582 244.318 227.283 244.324 226.914C244.318 226.539 243.996 226.24 243.609 226.246C243.223 226.24 242.9 226.539 242.906 226.914ZM249.27 230.289H250.254C250.125 229.258 249.299 228.555 247.98 228.555C246.58 228.555 245.625 229.34 245.625 230.43C245.625 231.279 246.217 231.883 247.324 232.141L248.285 232.363C249.006 232.533 249.328 232.826 249.328 233.277C249.328 233.875 248.76 234.256 247.852 234.25C247.049 234.256 246.598 233.957 246.48 233.336H245.426C245.596 234.496 246.445 235.135 247.875 235.129C249.469 235.135 250.365 234.32 250.371 233.219C250.365 232.334 249.809 231.766 248.672 231.496L247.723 231.262C246.979 231.08 246.639 230.793 246.633 230.371C246.639 229.838 247.195 229.416 247.98 229.41C248.725 229.416 249.129 229.762 249.27 230.289ZM254.508 235.117C256.277 235.117 257.52 234.127 257.531 232.75C257.52 231.654 256.758 230.746 255.797 230.594V230.547C256.629 230.354 257.191 229.574 257.203 228.648C257.191 227.354 256.055 226.398 254.508 226.398C252.955 226.398 251.818 227.354 251.824 228.648C251.818 229.574 252.375 230.354 253.219 230.547V230.594C252.252 230.746 251.49 231.654 251.496 232.75C251.49 234.127 252.721 235.117 254.508 235.117ZM252.551 232.691C252.533 231.754 253.371 231.062 254.508 231.062C255.65 231.062 256.477 231.754 256.477 232.691C256.477 233.582 255.721 234.186 254.508 234.191C253.289 234.186 252.533 233.582 252.551 232.691ZM252.844 228.73C252.85 227.881 253.5 227.307 254.508 227.312C255.498 227.307 256.172 227.881 256.172 228.73C256.172 229.586 255.475 230.166 254.508 230.172C253.535 230.166 252.85 229.586 252.844 228.73ZM261.727 235.117C263.607 235.117 264.691 233.535 264.691 230.758C264.691 228.004 263.59 226.398 261.727 226.398C259.857 226.398 258.756 228.004 258.762 230.758C258.756 233.535 259.846 235.117 261.727 235.117ZM259.781 230.758C259.787 228.561 260.508 227.318 261.727 227.312C262.945 227.318 263.666 228.561 263.66 230.758C263.666 232.955 262.951 234.18 261.727 234.18C260.496 234.18 259.787 232.955 259.781 230.758ZM266.133 235H267.234L271.113 227.5V226.516H265.535V227.453H270.023V227.512L266.133 235ZM276.691 233.887C277.605 233.881 277.963 233.236 278.098 232.973H278.174C278.221 233.518 278.777 233.934 279.516 233.934C280.705 233.934 281.643 232.873 281.637 231.051C281.648 228.525 279.762 226.621 276.961 226.621C274.23 226.621 272.285 228.643 272.297 231.414C272.291 234.385 274.049 236.219 276.914 236.219C277.688 236.219 278.373 236.113 278.988 235.949V235.152C278.273 235.346 277.734 235.398 276.914 235.41C274.441 235.434 273.141 233.799 273.141 231.414C273.146 229.234 274.641 227.441 276.961 227.43C279.205 227.436 280.805 228.877 280.793 231.086C280.787 232.305 280.301 233.154 279.574 233.148C279.193 233.154 279.006 232.926 278.988 232.469V229.047H278.098V229.762H278.039C277.893 229.498 277.547 228.959 276.703 228.953C275.531 228.959 274.664 229.902 274.664 231.414C274.664 232.938 275.514 233.881 276.691 233.887ZM275.578 231.402C275.572 230.506 276.023 229.814 276.844 229.809C277.688 229.814 278.104 230.453 278.109 231.402C278.104 232.375 277.682 233.025 276.844 233.031C276.029 233.025 275.572 232.316 275.578 231.402ZM284.062 231.18C284.062 230.078 284.742 229.457 285.668 229.457C286.57 229.457 287.109 230.043 287.109 231.027V235H288.117V230.957C288.123 229.34 287.262 228.555 285.973 228.555C285.006 228.555 284.408 228.982 284.109 229.633H284.027V228.637H283.055V235H284.062V231.18ZM289.43 233.195C289.43 234.438 290.391 235.146 291.598 235.152C292.705 235.146 293.285 234.561 293.496 234.133H293.543V235H294.539V230.805C294.545 228.801 292.98 228.555 292.148 228.555C290.742 228.555 289.746 229.264 289.617 230.289H290.672C290.812 229.803 291.299 229.434 292.102 229.434C293.062 229.434 293.543 229.902 293.543 230.711V231.227C293.256 231.232 292.23 231.291 291.82 231.32C290.719 231.402 289.43 231.736 289.43 233.195ZM290.438 233.242C290.443 232.545 291.023 232.223 291.938 232.164C292.242 232.146 293.244 232.07 293.543 232.053V232.691C293.543 233.494 292.91 234.256 291.773 234.25C291 234.256 290.443 233.916 290.438 233.242ZM301.16 228.637H300.059L298.324 233.688H298.254L296.52 228.637H295.418L297.762 235H298.805L301.16 228.637ZM304.711 235.129C306.023 235.135 306.967 234.479 307.266 233.512H306.188C305.953 233.904 305.473 234.238 304.711 234.238C303.58 234.238 302.795 233.5 302.742 232.152H307.359V231.73C307.365 229.375 305.953 228.555 304.617 228.555C302.889 228.555 301.734 229.914 301.734 231.871C301.734 233.822 302.871 235.135 304.711 235.129ZM302.748 231.297C302.818 230.312 303.516 229.445 304.617 229.445C305.666 229.445 306.334 230.236 306.34 231.297H302.748ZM308.672 235H309.68V230.992C309.68 230.137 310.359 229.504 311.273 229.504C311.537 229.504 311.807 229.557 311.883 229.574V228.555C311.766 228.543 311.508 228.537 311.355 228.531C310.605 228.537 309.943 228.965 309.715 229.609H309.645V228.637H308.672V235ZM312.855 235.07C313.271 235.064 313.611 234.725 313.605 234.309C313.611 233.898 313.271 233.559 312.855 233.559C312.445 233.559 312.094 233.898 312.105 234.309C312.094 234.725 312.445 235.064 312.855 235.07ZM317.789 235.129C319.201 235.135 320.139 234.262 320.297 233.125H319.289C319.113 233.822 318.539 234.227 317.789 234.227C316.635 234.227 315.896 233.283 315.891 231.812C315.896 230.383 316.652 229.445 317.789 229.445C318.639 229.445 319.143 229.979 319.289 230.559H320.297C320.139 229.357 319.119 228.555 317.766 228.555C316.037 228.555 314.883 229.914 314.883 231.848C314.883 233.758 315.984 235.135 317.789 235.129ZM324.141 235.129C325.869 235.135 327.029 233.822 327.023 231.848C327.029 229.861 325.869 228.555 324.141 228.555C322.406 228.555 321.234 229.861 321.234 231.848C321.234 233.822 322.406 235.135 324.141 235.129ZM322.242 231.848C322.248 230.582 322.846 229.445 324.141 229.445C325.424 229.445 326.016 230.582 326.016 231.848C326.016 233.119 325.424 234.238 324.141 234.238C322.846 234.238 322.248 233.119 322.242 231.848ZM328.348 235H329.355V231.027C329.355 230.102 330.023 229.457 330.785 229.457C331.518 229.457 332.033 229.938 332.027 230.652V235H333.047V230.863C333.053 230.055 333.557 229.457 334.441 229.457C335.139 229.457 335.725 229.82 335.73 230.758V235H336.738V230.746C336.738 229.246 335.924 228.555 334.793 228.555C333.879 228.555 333.205 228.977 332.883 229.633H332.812C332.514 228.953 331.945 228.555 331.113 228.555C330.281 228.555 329.666 228.953 329.402 229.633H329.32V228.637H328.348V235Z" fill="#8666FF"/>
<line x1="51" y1="403.5" x2="362" y2="403.5" stroke="#F3EFFF"/>
<line x1="51" y1="454.5" x2="362" y2="454.5" stroke="#F3EFFF"/>
<line x1="51" y1="505.5" x2="362" y2="505.5" stroke="#F3EFFF"/>
<line x1="51" y1="505.5" x2="362" y2="505.5" stroke="#F3EFFF"/>
<line x1="51" y1="556.5" x2="362" y2="556.5" stroke="#F3EFFF"/>
<line x1="51" y1="607.5" x2="362" y2="607.5" stroke="#F3EFFF"/>
<path d="M65.4993 387.958C70.1708 387.958 73.9577 384.171 73.9577 379.5C73.9577 374.829 70.1708 371.042 65.4993 371.042C60.8279 371.042 57.041 374.829 57.041 379.5C57.041 384.171 60.8279 387.958 65.4993 387.958Z" stroke="#6662A8" stroke-width="1.5" stroke-linecap="round" stroke-linejoin="round"/>
<path d="M65.5 375.875V379.5L67.3125 381.313" stroke="#6662A8" stroke-width="1.5" stroke-linecap="round" stroke-linejoin="round"/>
<path d="M70.9503 385.965L70.5274 390.593C70.473 391.195 70.1945 391.755 69.7471 392.162C69.2996 392.57 68.7157 392.794 68.1107 392.792H62.8786C62.2737 392.794 61.6898 392.57 61.2423 392.162C60.7949 391.755 60.5164 391.195 60.462 390.593L60.0391 385.965M60.0511 373.035L60.4741 368.408C60.5283 367.807 60.8051 367.249 61.25 366.842C61.6948 366.435 62.2758 366.209 62.8786 366.208H68.1349C68.7399 366.206 69.3238 366.43 69.7712 366.838C70.2187 367.245 70.4971 367.805 70.5516 368.408L70.9745 373.035" stroke="#6662A8" stroke-width="1.5" stroke-linecap="round" stroke-linejoin="round"/>
<path d="M55.4612 373.923C54.5689 374.698 53.2305 376.897 53.2305 379.5C53.2305 382.103 54.5689 384.302 55.4612 385.077" stroke="#6662A8" stroke-width="1.5" stroke-linecap="round"/>
<path d="M75.5388 385.077C76.4311 384.302 77.7695 382.103 77.7695 379.5C77.7695 376.897 76.4311 374.698 75.5388 373.923" stroke="#6662A8" stroke-width="1.5" stroke-linecap="round"/>
<path d="M107.451 379.199H95.4834V380.327H100.771V381.587C98.3325 381.711 96.9043 382.524 96.9043 383.901C96.9043 385.388 98.6035 386.223 101.46 386.216C104.28 386.223 105.979 385.388 105.986 383.901C105.979 382.524 104.551 381.719 102.148 381.587V380.327H107.451V379.199ZM96.1133 377.412L96.5967 378.511C98.8745 378.247 100.742 377.288 101.467 375.896C102.178 377.288 104.06 378.247 106.338 378.511L106.836 377.412C104.434 377.17 102.588 376.108 102.397 374.834H106.382V373.721H96.582V374.834H100.522C100.332 376.101 98.4717 377.17 96.1133 377.412ZM98.3105 383.901C98.3032 383.088 99.4531 382.649 101.46 382.642C103.438 382.649 104.595 383.088 104.595 383.901C104.595 384.7 103.438 385.161 101.46 385.146C99.4531 385.161 98.3032 384.7 98.3105 383.901ZM118.76 373.12H117.354V382.656H118.76V378.159H120.664V377.002H118.76V373.12ZM108.433 380.107L109.019 381.221C112.856 380.056 115.2 377.559 115.2 374.116H108.989V375.273H113.684C113.413 377.434 111.509 379.185 108.433 380.107ZM110.425 385.967H119.302V384.839H111.831V381.675H110.425V385.967ZM125.981 376.987V375.596H128.838V374.438H121.646V375.596H124.604V376.987C124.597 379.207 123.154 381.682 121.162 382.642L121.982 383.74C123.477 382.993 124.707 381.375 125.308 379.507C125.901 381.221 127.073 382.7 128.545 383.403L129.336 382.319C127.344 381.375 125.974 379.06 125.981 376.987ZM130.244 386.245H131.636V379.492H133.745V378.32H131.636V373.12H130.244V386.245ZM138.374 376.709V374.321H137.026V376.768C137.034 379.001 136.052 381.323 134.199 382.437L135.063 383.477C136.338 382.7 137.246 381.279 137.722 379.617C138.176 381.133 139.004 382.444 140.234 383.184L141.011 382.114C139.253 381.038 138.374 378.804 138.374 376.709ZM139.59 378.892H141.626V385.601H142.944V373.369H141.626V377.734H139.59V378.892ZM144.336 386.245H145.669V373.12H144.336V386.245ZM161.313 373.12H159.922V379.756H161.313V377.017H163.218V375.859H161.313V373.12ZM151.206 376.504C151.191 378.225 152.664 379.434 154.648 379.434C156.641 379.434 158.091 378.225 158.091 376.504C158.091 374.768 156.641 373.582 154.648 373.574C152.664 373.582 151.191 374.768 151.206 376.504ZM152.554 376.504C152.546 375.435 153.44 374.709 154.648 374.717C155.857 374.709 156.743 375.435 156.743 376.504C156.743 377.573 155.857 378.32 154.648 378.32C153.44 378.32 152.546 377.573 152.554 376.504ZM152.832 381.44H159.937V382.642H152.861V386.084H161.768V384.971H154.224V383.682H161.313V380.356H152.832V381.44ZM174.849 373.135H173.457V380.913H174.849V373.135ZM164.624 375.024H169.282V376.519H164.653V380.327H165.752C168.235 380.334 170.022 380.261 172.168 379.932L171.992 378.789C169.993 379.119 168.315 379.185 166.016 379.185V377.603H170.659V373.911H164.624V375.024ZM166.221 386.084H174.849V381.572H166.221V386.084ZM167.598 384.956V382.686H173.486V384.956H167.598ZM191.533 373.12H190.142V375.376H187.373V376.504H190.142V379.873H191.533V373.12ZM180.547 378.818L181.294 379.932C182.847 379.397 183.967 378.298 184.539 376.885C185.117 378.137 186.208 379.126 187.651 379.624L188.384 378.54C186.406 377.91 185.205 376.357 185.205 374.688V373.545H183.828V374.688C183.821 376.533 182.598 378.167 180.547 378.818ZM182.949 381.587H190.156V382.7H182.979V386.084H191.987V384.971H184.341V383.755H191.533V380.488H182.949V381.587ZM204.497 373.12H203.105V376.46H200.659V377.603H203.105V380.928H204.497V373.12ZM193.555 379.741L194.287 380.854C195.854 380.276 197.004 379.097 197.576 377.632C198.147 378.928 199.231 379.983 200.703 380.488L201.421 379.39C199.436 378.716 198.25 377.097 198.257 375.435V375.156H201.069V374.028H193.994V375.156H196.836V375.449C196.843 377.258 195.591 379.031 193.555 379.741ZM195.664 383.77C195.657 385.33 197.341 386.238 200.103 386.245C202.849 386.238 204.534 385.33 204.541 383.77C204.534 382.209 202.849 381.301 200.103 381.294C197.341 381.301 195.657 382.209 195.664 383.77ZM197.041 383.77C197.034 382.876 198.176 382.371 200.103 382.378C202.014 382.371 203.157 382.876 203.164 383.77C203.157 384.656 202.014 385.161 200.103 385.146C198.176 385.161 197.034 384.656 197.041 383.77Z" fill="#6662A8"/>
<path d="M107.451 480.712H95.4834V481.825H107.451V480.712ZM96.1279 478.983L96.5674 480.053C98.8159 479.84 100.647 479.079 101.46 477.848C102.266 479.079 104.089 479.84 106.353 480.053L106.792 478.983C104.155 478.778 102.361 477.812 102.229 476.508H106.25V475.409H102.148V474.105H100.771V475.409H96.6846V476.508H100.691C100.544 477.812 98.7427 478.778 96.1279 478.983ZM96.8164 484.213H104.58V487.245H105.986V483.1H96.8164V484.213ZM119.39 474.12H117.998V477.46H115.552V478.603H117.998V481.928H119.39V474.12ZM108.447 480.741L109.18 481.854C110.747 481.276 111.897 480.097 112.468 478.632C113.04 479.928 114.124 480.983 115.596 481.488L116.313 480.39C114.329 479.716 113.142 478.097 113.149 476.435V476.156H115.962V475.028H108.887V476.156H111.729V476.449C111.736 478.258 110.483 480.031 108.447 480.741ZM110.557 484.77C110.549 486.33 112.234 487.238 114.995 487.245C117.742 487.238 119.426 486.33 119.434 484.77C119.426 483.209 117.742 482.301 114.995 482.294C112.234 482.301 110.549 483.209 110.557 484.77ZM111.934 484.77C111.926 483.876 113.069 483.371 114.995 483.378C116.907 483.371 118.049 483.876 118.057 484.77C118.049 485.656 116.907 486.161 114.995 486.146C113.069 486.161 111.926 485.656 111.934 484.77ZM136.265 474.12H134.946V483.964H136.265V474.12ZM125.044 481.063L125.82 482.133C127.051 481.547 127.915 480.448 128.391 479.188C128.831 480.324 129.636 481.261 130.801 481.796L131.577 480.727C129.9 479.994 129.043 478.441 129.043 476.903V475.028H127.695V476.903C127.703 478.456 126.772 480.243 125.044 481.063ZM127.563 486.967H136.646V485.839H128.94V482.763H127.563V486.967ZM130.405 478.485H132.324V483.583H133.657V474.354H132.324V477.343H130.405V478.485ZM142.769 477.46V475.219H141.362V477.46C141.355 479.892 140 482.418 137.964 483.393L138.843 484.521C140.359 483.737 141.501 482.14 142.08 480.25C142.659 482.045 143.787 483.524 145.273 484.271L146.123 483.158C144.116 482.257 142.769 479.862 142.769 477.46ZM144.673 479.613H147.603V487.274H148.979V474.12H147.603V478.485H144.673V479.613ZM165.605 474.12H164.214V476.376H161.445V477.504H164.214V480.873H165.605V474.12ZM154.619 479.818L155.366 480.932C156.919 480.397 158.04 479.298 158.611 477.885C159.189 479.137 160.281 480.126 161.724 480.624L162.456 479.54C160.479 478.91 159.277 477.357 159.277 475.688V474.545H157.9V475.688C157.893 477.533 156.67 479.167 154.619 479.818ZM157.021 482.587H164.229V483.7H157.051V487.084H166.06V485.971H158.413V484.755H165.605V481.488H157.021V482.587ZM178.569 474.12H177.178V477.46H174.731V478.603H177.178V481.928H178.569V474.12ZM167.627 480.741L168.359 481.854C169.927 481.276 171.077 480.097 171.648 478.632C172.219 479.928 173.303 480.983 174.775 481.488L175.493 480.39C173.508 479.716 172.322 478.097 172.329 476.435V476.156H175.142V475.028H168.066V476.156H170.908V476.449C170.916 478.258 169.663 480.031 167.627 480.741ZM169.736 484.77C169.729 486.33 171.414 487.238 174.175 487.245C176.921 487.238 178.606 486.33 178.613 484.77C178.606 483.209 176.921 482.301 174.175 482.294C171.414 482.301 169.729 483.209 169.736 484.77ZM171.113 484.77C171.106 483.876 172.249 483.371 174.175 483.378C176.086 483.371 177.229 483.876 177.236 484.77C177.229 485.656 176.086 486.161 174.175 486.146C172.249 486.161 171.106 485.656 171.113 484.77Z" fill="#6662A8"/>
<path d="M107.451 430.02H102.148V428.877H106.074V427.793H98.4277V426.68H105.649V425.64H98.4277V424.57H105.986V423.472H97.0215V428.877H100.757V430.02H95.4541V431.118H107.451V430.02ZM96.9043 434.106C96.9043 435.491 98.5376 436.223 101.46 436.216C104.338 436.223 105.979 435.491 105.986 434.106C105.979 432.729 104.338 431.975 101.46 431.982C98.5376 431.975 96.9043 432.729 96.9043 434.106ZM98.2959 434.106C98.2886 433.396 99.3872 433.022 101.46 433.022C103.503 433.022 104.595 433.396 104.595 434.106C104.595 434.817 103.503 435.176 101.46 435.161C99.3872 435.176 98.2886 434.817 98.2959 434.106ZM120.415 429.302H108.447V430.43H120.415V429.302ZM109.077 427.515L109.561 428.613C111.838 428.35 113.706 427.39 114.431 426.006C115.142 427.39 117.024 428.35 119.302 428.613L119.8 427.515C117.368 427.258 115.515 426.182 115.354 424.907H119.346V423.765H109.546V424.907H113.494C113.34 426.189 111.458 427.258 109.077 427.515ZM109.868 433.843C109.868 435.366 111.575 436.223 114.424 436.216C117.251 436.223 118.943 435.366 118.95 433.843C118.943 432.319 117.251 431.44 114.424 431.44C111.575 431.44 109.868 432.319 109.868 433.843ZM111.274 433.843C111.267 432.993 112.417 432.539 114.424 432.524C116.401 432.539 117.559 432.993 117.559 433.843C117.559 434.67 116.401 435.125 114.424 435.117C112.417 435.125 111.267 434.67 111.274 433.843ZM132.324 423.12H130.918V436.245H132.324V423.12ZM121.543 432.729L122.275 433.857C126.78 431.697 128.413 428.372 128.413 424.526H122.173V425.64H127.007C126.736 428.701 125.029 431.067 121.543 432.729ZM146.372 430.283H141.055V429.038H145.127V427.954H137.275V426.724H144.863V423.428H135.869V424.526H143.472V425.698H135.898V429.038H139.678V430.283H134.36V431.411H146.372V430.283ZM135.708 433.447H143.53V436.143H144.937V432.334H135.708V433.447ZM161.313 423.12H159.922V429.756H161.313V427.017H163.218V425.859H161.313V423.12ZM151.206 426.504C151.191 428.225 152.664 429.434 154.648 429.434C156.641 429.434 158.091 428.225 158.091 426.504C158.091 424.768 156.641 423.582 154.648 423.574C152.664 423.582 151.191 424.768 151.206 426.504ZM152.554 426.504C152.546 425.435 153.44 424.709 154.648 424.717C155.857 424.709 156.743 425.435 156.743 426.504C156.743 427.573 155.857 428.32 154.648 428.32C153.44 428.32 152.546 427.573 152.554 426.504ZM152.832 431.44H159.937V432.642H152.861V436.084H161.768V434.971H154.224V433.682H161.313V430.356H152.832V431.44ZM174.849 423.135H173.457V430.913H174.849V423.135ZM164.624 425.024H169.282V426.519H164.653V430.327H165.752C168.235 430.334 170.022 430.261 172.168 429.932L171.992 428.789C169.993 429.119 168.315 429.185 166.016 429.185V427.603H170.659V423.911H164.624V425.024ZM166.221 436.084H174.849V431.572H166.221V436.084ZM167.598 434.956V432.686H173.486V434.956H167.598ZM191.533 423.12H190.142V425.376H187.373V426.504H190.142V429.873H191.533V423.12ZM180.547 428.818L181.294 429.932C182.847 429.397 183.967 428.298 184.539 426.885C185.117 428.137 186.208 429.126 187.651 429.624L188.384 428.54C186.406 427.91 185.205 426.357 185.205 424.688V423.545H183.828V424.688C183.821 426.533 182.598 428.167 180.547 428.818ZM182.949 431.587H190.156V432.7H182.979V436.084H191.987V434.971H184.341V433.755H191.533V430.488H182.949V431.587ZM204.497 423.12H203.105V426.46H200.659V427.603H203.105V430.928H204.497V423.12ZM193.555 429.741L194.287 430.854C195.854 430.276 197.004 429.097 197.576 427.632C198.147 428.928 199.231 429.983 200.703 430.488L201.421 429.39C199.436 428.716 198.25 427.097 198.257 425.435V425.156H201.069V424.028H193.994V425.156H196.836V425.449C196.843 427.258 195.591 429.031 193.555 429.741ZM195.664 433.77C195.657 435.33 197.341 436.238 200.103 436.245C202.849 436.238 204.534 435.33 204.541 433.77C204.534 432.209 202.849 431.301 200.103 431.294C197.341 431.301 195.657 432.209 195.664 433.77ZM197.041 433.77C197.034 432.876 198.176 432.371 200.103 432.378C202.014 432.371 203.157 432.876 203.164 433.77C203.157 434.656 202.014 435.161 200.103 435.146C198.176 435.161 197.034 434.656 197.041 433.77Z" fill="#6662A8"/>
<path d="M106.675 525.135H105.356V532.723H106.675V525.135ZM96.04 531.8H101.167V529.441H102.793V532.562H104.111V525.384H102.793V528.284H101.167V526.072H96.04V531.8ZM97.3438 530.745V527.156H99.8779V530.745H97.3438ZM97.915 538.084H106.675V533.323H97.915V538.084ZM99.2773 536.956V534.422H105.312V536.956H99.2773ZM119.39 525.12H118.013V529.91H115.112V526.131H113.75V529.485H110.366V526.131H108.96V535.022H115.112V531.053H118.013V538.274H119.39V525.12ZM110.366 533.88V530.584H113.75V533.88H110.366ZM132.383 526.116H125.762V527.259H131.013C130.999 528.086 130.955 529.148 130.669 530.599L132.046 530.73C132.368 529.031 132.368 527.728 132.383 526.849V526.116ZM124.971 531.858L125.103 532.986C127.417 532.979 130.552 532.928 133.291 532.444L133.203 531.434C131.885 531.624 130.435 531.727 129.028 531.785V529.061H127.651V531.829C126.692 531.851 125.776 531.858 124.971 531.858ZM126.963 537.967H135.884V536.839H128.354V534.085H126.963V537.967ZM134.038 534.979H135.459V530.467H137.261V529.295H135.459V525.12H134.038V534.979ZM148.936 525.12H147.544V538.274H148.936V525.12ZM138.77 527.435H143.501V529.983H138.784V535.125H139.897C142.219 535.118 144.197 535.03 146.519 534.642L146.387 533.499C144.189 533.858 142.336 533.96 140.205 533.968V531.097H144.922V526.307H138.77V527.435Z" fill="#6662A8"/>
<path d="M100.01 577.215V575.809H98.6328V577.098C98.6182 579.061 97.4316 580.811 95.3809 581.536L96.1279 582.649C97.6587 582.085 98.772 580.928 99.3433 579.456C99.9146 580.752 100.991 581.778 102.427 582.283L103.174 581.185C101.218 580.54 100.002 578.936 100.01 577.215ZM97.1533 585.784C97.1533 587.337 98.8306 588.223 101.562 588.216C104.258 588.223 105.913 587.337 105.913 585.784C105.913 584.246 104.258 583.345 101.562 583.353C98.8306 583.345 97.1533 584.246 97.1533 585.784ZM98.5449 585.784C98.5376 584.949 99.6655 584.451 101.562 584.451C103.445 584.451 104.558 584.949 104.551 585.784C104.558 586.648 103.445 587.117 101.562 587.132C99.6655 587.117 98.5376 586.648 98.5449 585.784ZM104.404 583.045H105.796V579.588H107.7V578.416H105.796V575.12H104.404V583.045ZM118.76 575.12H117.368V582.532H118.76V579.397H120.664V578.24H118.76V575.12ZM109.033 581.858H110.073C112.886 581.858 114.438 581.792 116.211 581.419L116.05 580.306C114.402 580.628 112.966 580.73 110.41 580.73V577.112H114.863V575.984H109.033V581.858ZM110.381 588.069H118.76V583.177H110.381V588.069ZM111.743 586.956V584.29H117.383V586.956H111.743ZM125.923 575.896H124.531L121.118 588.597H122.51L125.923 575.896ZM138.608 581.756H126.597V582.884H132.017V585.433H133.394V582.884H138.608V581.756ZM128.091 587.967H137.275V586.839H129.482V584.188H128.091V587.967ZM128.135 580.394H137.056V575.735H128.135V580.394ZM129.497 579.295V576.834H135.679V579.295H129.497ZM143.853 576.058C141.787 576.05 140.271 577.332 140.278 579.178C140.271 581.023 141.787 582.305 143.853 582.312C145.925 582.305 147.419 581.023 147.427 579.178C147.419 577.332 145.925 576.05 143.853 576.058ZM139.648 584.29L139.824 585.447C142.168 585.447 145.354 585.433 148.32 584.861L148.218 583.851C145.347 584.268 142.036 584.29 139.648 584.29ZM141.655 579.178C141.641 578.028 142.578 577.259 143.853 577.259C145.127 577.259 146.064 578.028 146.064 579.178C146.064 580.342 145.127 581.097 143.853 581.097C142.578 581.097 141.641 580.342 141.655 579.178ZM149.038 588.274H150.43V575.12H149.038V588.274Z" fill="#6662A8"/>
<path d="M107.451 633.518H95.4834V634.646H100.757V639.23H102.119V634.646H107.451V633.518ZM96.1572 631.423L96.6846 632.521C98.8086 632.185 100.662 631.123 101.467 629.628C102.266 631.123 104.126 632.185 106.279 632.521L106.792 631.423C104.309 631.086 102.288 629.628 102.266 628.01H106.323V626.896H96.5967V628.01H100.684C100.64 629.628 98.6035 631.086 96.1572 631.423ZM112.725 627.058C110.659 627.05 109.143 628.332 109.15 630.178C109.143 632.023 110.659 633.305 112.725 633.312C114.797 633.305 116.292 632.023 116.299 630.178C116.292 628.332 114.797 627.05 112.725 627.058ZM108.521 635.29L108.696 636.447C111.04 636.447 114.226 636.433 117.192 635.861L117.09 634.851C114.219 635.268 110.908 635.29 108.521 635.29ZM110.527 630.178C110.513 629.028 111.45 628.259 112.725 628.259C113.999 628.259 114.937 629.028 114.937 630.178C114.937 631.342 113.999 632.097 112.725 632.097C111.45 632.097 110.513 631.342 110.527 630.178ZM117.91 639.274H119.302V626.12H117.91V639.274ZM125.967 629.46V627.219H124.575V629.46C124.568 631.862 123.206 634.382 121.191 635.349L122.056 636.477C123.55 635.7 124.7 634.125 125.286 632.265C125.864 634.016 126.97 635.48 128.398 636.228L129.263 635.114C127.307 634.162 125.952 631.782 125.967 629.46ZM130.244 639.245H131.636V632.536H133.745V631.35H131.636V626.12H130.244V639.245ZM144.688 626.12H143.296V634.543H144.688V630.852H146.592V629.68H144.688V626.12ZM134.39 628.625H142.212V627.526H139.004V626.018H137.612V627.526H134.39V628.625ZM135.107 631.569C135.1 632.976 136.389 633.891 138.301 633.884C140.19 633.891 141.479 632.976 141.479 631.569C141.479 630.156 140.19 629.233 138.301 629.226C136.389 629.233 135.1 630.156 135.107 631.569ZM136.147 636.945C136.133 638.374 137.788 639.223 140.498 639.216C143.171 639.223 144.834 638.374 144.834 636.945C144.834 635.495 143.171 634.646 140.498 634.646C137.788 634.646 136.133 635.495 136.147 636.945ZM136.455 631.569C136.44 630.771 137.188 630.266 138.301 630.266C139.414 630.266 140.161 630.771 140.176 631.569C140.161 632.346 139.414 632.829 138.301 632.829C137.188 632.829 136.44 632.346 136.455 631.569ZM137.524 636.945C137.517 636.147 138.608 635.722 140.498 635.715C142.358 635.722 143.45 636.147 143.457 636.945C143.45 637.714 142.358 638.161 140.498 638.161C138.608 638.161 137.517 637.714 137.524 636.945Z" fill="#6662A8"/>
<path d="M76.8327 480H72.4993L69.2493 489.75L62.7493 470.25L59.4993 480H55.166" stroke="#6662A8" stroke-width="1.5" stroke-linecap="round" stroke-linejoin="round"/>
<path d="M67 591C72.5228 591 77 586.523 77 581C77 575.477 72.5228 571 67 571C61.4772 571 57 575.477 57 581C57 586.523 61.4772 591 67 591Z" stroke="#6662A8" stroke-width="1.5" stroke-linecap="round" stroke-linejoin="round"/>
<path d="M64.0898 578C64.3249 577.332 64.789 576.768 65.3998 576.409C66.0106 576.05 66.7287 575.919 67.427 576.039C68.1253 576.158 68.7587 576.521 69.2149 577.063C69.6712 577.605 69.9209 578.291 69.9198 579C69.9198 581 66.9198 582 66.9198 582" stroke="#6662A8" stroke-width="1.5" stroke-linecap="round" stroke-linejoin="round"/>
<path d="M67 586H67.01" stroke="#6662A8" stroke-width="1.5" stroke-linecap="round" stroke-linejoin="round"/>
<path d="M66.2908 623.86L57.8208 638C57.6461 638.302 57.5537 638.645 57.5527 638.994C57.5518 639.344 57.6422 639.687 57.8152 639.99C57.9881 640.294 58.2375 640.547 58.5385 640.724C58.8394 640.901 59.1816 640.996 59.5308 641H76.4708C76.82 640.996 77.1621 640.901 77.463 640.724C77.764 640.547 78.0134 640.294 78.1863 639.99C78.3593 639.687 78.4497 639.344 78.4488 638.994C78.4478 638.645 78.3554 638.302 78.1808 638L69.7108 623.86C69.5325 623.566 69.2815 623.323 68.9819 623.154C68.6824 622.986 68.3445 622.897 68.0008 622.897C67.657 622.897 67.3191 622.986 67.0196 623.154C66.72 623.323 66.469 623.566 66.2908 623.86V623.86Z" stroke="#6662A8" stroke-width="1.5" stroke-linecap="round" stroke-linejoin="round"/>
<path d="M68 629V633" stroke="#6662A8" stroke-width="1.5" stroke-linecap="round" stroke-linejoin="round"/>
<path d="M68 637H68.01" stroke="#6662A8" stroke-width="1.5" stroke-linecap="round" stroke-linejoin="round"/>
<circle cx="129" cy="237" r="64" fill="#F3EFFF"/>
<mask id="mask0_764_15631" style="mask-type:alpha" maskUnits="userSpaceOnUse" x="65" y="173" width="128" height="128">
<circle cx="129" cy="237" r="64" fill="#F3EFFF"/>
</mask>
<g mask="url(#mask0_764_15631)">
<mask id="mask1_764_15631" style="mask-type:alpha" maskUnits="userSpaceOnUse" x="66" y="175" width="126" height="126">
<ellipse cx="129" cy="237.957" rx="63" ry="62.9549" fill="#F1EFEF"/>
</mask>
<g mask="url(#mask1_764_15631)">
<path d="M178.246 377.939C178.901 381.222 179.206 384.565 179.156 387.912H76.8028C76.7718 384.566 77.0963 381.226 77.7708 377.949L101.776 257.581C103.424 251.721 106.875 246.527 111.64 242.734C116.267 239.055 121.999 237.041 127.912 237.017C139.934 237.017 150.543 245.355 154.047 257.562L178.246 377.939Z" fill="#8C81F7"/>
<path d="M72.9285 299.464L27.734 372.571L22.6619 380.464C22.4694 380.887 22.4357 381.365 22.5672 381.811C22.6986 382.257 22.9863 382.641 23.3776 382.892C23.7689 383.143 24.2377 383.245 24.6982 383.18C25.1587 383.114 25.5801 382.885 25.8852 382.534L31.0929 376.875L26.2531 384.478C26.0677 384.899 26.0388 385.373 26.1713 385.813C26.3039 386.254 26.5894 386.633 26.9765 386.883C27.3635 387.132 27.8269 387.235 28.2833 387.174C28.7397 387.112 29.1593 386.891 29.4667 386.548L35.2745 379.961L30.1443 388.753C29.9763 389.17 29.9588 389.633 30.095 390.061C30.2311 390.49 30.5123 390.857 30.8903 391.101C31.2683 391.345 31.7194 391.45 32.1662 391.397C32.613 391.345 33.0275 391.138 33.3386 390.814L39.3303 382.94L35.4584 390.736C35.2659 391.159 35.2323 391.638 35.3637 392.084C35.4951 392.529 35.7828 392.913 36.1741 393.164C36.5654 393.416 37.0342 393.518 37.4947 393.452C37.9552 393.386 38.3766 393.157 38.6818 392.806L43.1441 385.648L48.8648 377.001L51.1105 379.748C51.4283 380.195 51.8931 380.517 52.4238 380.656C52.9545 380.796 53.5174 380.745 54.0144 380.512C54.456 380.269 54.7851 379.862 54.9315 379.38C55.078 378.898 55.0302 378.377 54.7984 377.93L51.8945 372.426L92.3556 311.236" fill="#F6C4DE"/>
<path d="M183.991 299.464L229.195 372.571L234.258 380.464C234.445 380.672 234.584 380.919 234.667 381.186C234.749 381.454 234.772 381.736 234.735 382.013C234.698 382.29 234.601 382.556 234.451 382.793C234.3 383.029 234.101 383.23 233.865 383.381C233.63 383.533 233.364 383.632 233.087 383.671C232.81 383.71 232.527 383.688 232.259 383.608C231.991 383.527 231.743 383.39 231.534 383.204C231.324 383.019 231.157 382.79 231.044 382.534L225.827 376.875L230.667 384.478C230.859 384.901 230.893 385.379 230.761 385.825C230.63 386.271 230.342 386.655 229.951 386.906C229.56 387.157 229.091 387.26 228.63 387.194C228.17 387.128 227.749 386.899 227.443 386.548L221.636 379.961L226.785 388.753C226.972 388.962 227.112 389.208 227.194 389.476C227.276 389.743 227.3 390.025 227.262 390.303C227.225 390.58 227.128 390.846 226.978 391.082C226.828 391.318 226.628 391.519 226.393 391.671C226.157 391.822 225.892 391.921 225.614 391.96C225.337 391.999 225.055 391.978 224.786 391.897C224.518 391.817 224.271 391.679 224.061 391.494C223.851 391.308 223.684 391.079 223.572 390.823L217.57 382.95L221.442 390.746C221.629 390.954 221.768 391.201 221.851 391.468C221.933 391.736 221.957 392.018 221.919 392.295C221.882 392.573 221.785 392.838 221.635 393.075C221.485 393.311 221.285 393.512 221.049 393.663C220.814 393.815 220.549 393.914 220.271 393.953C219.994 393.992 219.711 393.971 219.443 393.89C219.175 393.809 218.928 393.672 218.718 393.486C218.508 393.301 218.341 393.072 218.228 392.816L213.756 385.658L208.045 377.011L205.8 379.758C205.482 380.205 205.017 380.526 204.486 380.666C203.956 380.806 203.393 380.755 202.896 380.522C202.452 380.28 202.121 379.874 201.973 379.392C201.825 378.909 201.871 378.388 202.102 377.939L205.006 372.435L164.535 311.246" fill="#F6C4DE"/>
<path d="M186.958 303.759L155.624 319.622L133.206 256.749C132.454 254.637 132.497 252.324 133.327 250.241C134.157 248.159 135.718 246.449 137.717 245.432V245.432C139.721 244.42 142.025 244.172 144.199 244.734C146.372 245.297 148.266 246.632 149.526 248.489L186.958 303.759Z" fill="#8C81F7"/>
<path d="M68.7207 303.759L100.044 319.613L122.472 256.74C123.225 254.627 123.182 252.312 122.35 250.229C121.518 248.145 119.954 246.437 117.952 245.423V245.423C115.95 244.409 113.646 244.16 111.474 244.723C109.301 245.286 107.409 246.622 106.152 248.48L68.7207 303.759Z" fill="#8C81F7"/>
<path d="M112.709 219.007C112.709 219.007 112.961 202.911 130.21 202.196C144.623 201.615 149.008 214.77 149.511 216.482C152.822 227.674 166.363 239.155 182.296 241.148C198.229 243.14 188.985 263.395 180.36 262.021C171.736 260.648 151.07 253.655 139.377 233.796C127.683 213.938 112.709 221.947 112.709 220.477V219.007Z" fill="#806CF6"/>
<path d="M129.158 235.856C137.551 235.856 144.355 229.317 144.355 221.251C144.355 213.184 137.551 206.645 129.158 206.645C120.765 206.645 113.961 213.184 113.961 221.251C113.961 229.317 120.765 235.856 129.158 235.856Z" fill="#F6C4DE"/>
<path d="M140.586 218.91H145.784C146.403 218.91 146.996 219.155 147.433 219.593C147.871 220.03 148.117 220.623 148.117 221.241V221.241C148.117 221.859 147.871 222.452 147.433 222.889C146.996 223.326 146.403 223.572 145.784 223.572H140.586V218.91Z" fill="#F6C4DE"/>
<path d="M117.725 223.582H112.527C111.908 223.582 111.315 223.336 110.877 222.899C110.44 222.462 110.194 221.869 110.194 221.251V221.251C110.194 220.632 110.44 220.039 110.877 219.602C111.315 219.165 111.908 218.92 112.527 218.92H117.725V223.582Z" fill="#F6C4DE"/>
<path d="M122.365 219.084C122.905 219.084 123.343 218.647 123.343 218.107C123.343 217.567 122.905 217.13 122.365 217.13C121.825 217.13 121.387 217.567 121.387 218.107C121.387 218.647 121.825 219.084 122.365 219.084Z" fill="#624EC5"/>
<path d="M134.212 219.084C134.753 219.084 135.19 218.647 135.19 218.107C135.19 217.567 134.753 217.13 134.212 217.13C133.672 217.13 133.234 217.567 133.234 218.107C133.234 218.647 133.672 219.084 134.212 219.084Z" fill="#624EC5"/>
<path d="M128.742 222.605C128.648 222.606 128.555 222.58 128.475 222.528C128.396 222.476 128.334 222.402 128.297 222.315C127.919 221.481 127.492 220.67 127.019 219.887C126.915 220.627 126.866 221.374 126.874 222.121C126.874 222.249 126.823 222.372 126.732 222.463C126.642 222.554 126.519 222.605 126.39 222.605C126.262 222.605 126.139 222.554 126.048 222.463C125.957 222.372 125.906 222.249 125.906 222.121C125.906 219.094 126.371 218.794 126.545 218.678C126.634 218.628 126.734 218.601 126.836 218.601C126.937 218.601 127.037 218.628 127.126 218.678C127.716 218.939 128.568 220.612 129.178 221.957C129.23 222.073 129.234 222.206 129.189 222.326C129.144 222.445 129.053 222.542 128.936 222.595C128.873 222.611 128.807 222.614 128.742 222.605V222.605Z" fill="#B7577E"/>
<path d="M127.777 228.883C126.68 228.887 125.592 228.666 124.583 228.234C124.467 228.182 124.376 228.085 124.33 227.965C124.285 227.846 124.289 227.713 124.341 227.596C124.368 227.536 124.407 227.481 124.456 227.436C124.504 227.39 124.561 227.355 124.623 227.332C124.685 227.308 124.751 227.297 124.817 227.3C124.884 227.302 124.949 227.317 125.009 227.345C126.062 227.804 127.216 227.982 128.359 227.859C129.501 227.737 130.592 227.32 131.523 226.648C131.573 226.605 131.631 226.572 131.694 226.552C131.757 226.531 131.823 226.524 131.889 226.531C131.955 226.537 132.019 226.557 132.077 226.589C132.134 226.621 132.185 226.664 132.225 226.716C132.266 226.769 132.295 226.829 132.311 226.893C132.328 226.957 132.331 227.023 132.32 227.088C132.31 227.154 132.286 227.216 132.251 227.272C132.215 227.327 132.169 227.375 132.114 227.412C130.879 228.383 129.349 228.901 127.777 228.883V228.883Z" fill="#624EC5"/>
<path d="M164.981 316.885L158.012 282.054" stroke="#1D1D1B" stroke-linecap="round" stroke-linejoin="round"/>
<path d="M90.5547 315.696L96.8271 282.47" stroke="#1D1D1B" stroke-linecap="round" stroke-linejoin="round"/>
</g>
</g>
<rect x="0.05" y="802.05" width="413.9" height="93.9" fill="white" stroke="black" stroke-width="0.1"/>
<path d="M72.7539 861.832H65.582V864.809H72.7539V861.832ZM64.4219 861.035H73.9141V860.297H69.625V859.494C71.4941 859.424 72.543 858.932 72.543 858.023C72.543 857.057 71.3242 856.559 69.168 856.547C67.0059 856.559 65.7812 857.057 65.7812 858.023C65.7812 858.932 66.8359 859.424 68.7109 859.494V860.297H64.4219V861.035ZM64.9141 856.125H73.3633V855.41H69.625V854.379H68.7109V855.41H64.9141V856.125ZM66.4961 864.094V862.547H71.8516V864.094H66.4961ZM66.7656 858.023C66.7598 857.484 67.6387 857.203 69.168 857.191C70.6973 857.203 71.5645 857.484 71.5703 858.023C71.5645 858.557 70.6973 858.855 69.168 858.855C67.6387 858.855 66.7598 858.557 66.7656 858.023Z" fill="#CCCCCC"/>
<path fill-rule="evenodd" clip-rule="evenodd" d="M70.9695 838.829C72.5077 838.829 73.7597 840.111 73.7597 841.687V845.739C73.7597 846.078 74.0229 846.349 74.3602 846.357H76.7952C78.7142 846.357 80.2741 844.768 80.2741 842.816V831.322C80.2652 830.65 79.9547 830.017 79.422 829.597L70.9988 822.67C69.8682 821.746 68.2865 821.746 67.152 822.672L58.7864 829.594C58.2332 830.028 57.9228 830.66 57.9164 831.344V842.816C57.9164 844.768 59.4763 846.357 61.3952 846.357H63.8533C64.1995 846.357 64.4806 846.074 64.4806 845.726C64.4806 845.65 64.4896 845.573 64.5049 845.501V841.687C64.5049 840.12 65.7493 838.839 67.276 838.829H70.9695ZM76.7952 848.333H74.3372C72.9293 848.299 71.8433 847.159 71.8433 845.739V841.687C71.8433 841.2 71.4511 840.805 70.9695 840.805H67.2823C66.8109 840.808 66.4213 841.204 66.4213 841.687V845.726C66.4213 845.825 66.4085 845.92 66.3816 846.009C66.2437 847.314 65.1628 848.333 63.8533 848.333H61.3952C58.4197 848.333 56 845.858 56 842.816V831.335C56.0128 830.025 56.5979 828.826 57.6085 828.037L65.9575 821.127C67.7959 819.625 70.3575 819.625 72.1921 821.124L80.6012 828.041C81.5887 828.817 82.1739 830.013 82.1905 831.307V842.816C82.1905 845.858 79.7707 848.333 76.7952 848.333Z" fill="#CCCCCC"/>
<path d="M153.637 855.645H146.453V856.406H152.734V856.688C152.734 857.965 152.734 859.523 152.312 861.656L153.25 861.75C153.637 859.482 153.637 858 153.637 856.688V855.645ZM145.422 863.414H154.914V862.652H145.422V863.414ZM160.047 855.668H156.121V856.441H159.156V858.551H156.145V862.453H156.824C158.137 862.453 159.314 862.406 160.797 862.148L160.715 861.398C159.367 861.627 158.236 861.674 157.035 861.68V859.312H160.047V855.668ZM161.441 864.41H162.285V859.418H163.82V864.949H164.699V854.531H163.82V858.656H162.285V854.766H161.441V864.41ZM175.703 862.828H166.164V863.613H175.703V862.828ZM167.008 856.348H168.66V859.992H167.031V860.742H174.766V859.992H173.137V856.348H174.789V855.586H167.008V856.348ZM169.574 859.992V856.348H172.234V859.992H169.574Z" fill="#CCCCCC"/>
<path fill-rule="evenodd" clip-rule="evenodd" d="M156.977 828.142C156.935 828.142 156.892 828.147 156.849 828.158C152.889 829.102 149.668 833.258 149.668 837.423C149.668 842.662 154.068 846.924 159.477 846.924C164.353 846.924 168.428 843.559 169.167 838.922C169.172 838.884 169.191 838.771 169.081 838.646C168.977 838.528 168.812 838.459 168.639 838.459C166.757 838.459 165.321 838.5 164.2 838.531C161.485 838.61 160.363 838.639 159.253 837.842C157.581 836.642 157.44 834.581 157.44 828.518C157.44 828.409 157.392 828.319 157.296 828.247C157.207 828.178 157.093 828.142 156.977 828.142M159.477 848.862C152.965 848.862 147.668 843.73 147.668 837.423C147.668 832.421 151.572 827.42 156.371 826.276C157.12 826.099 157.925 826.264 158.531 826.721C159.108 827.16 159.44 827.815 159.44 828.518C159.44 834.182 159.637 835.706 160.444 836.286C160.973 836.664 161.699 836.661 164.143 836.595C165.279 836.562 166.733 836.521 168.639 836.521C169.399 836.521 170.115 836.836 170.6 837.385C171.051 837.895 171.248 838.562 171.144 839.218C170.253 844.805 165.347 848.862 159.477 848.862" fill="#CCCCCC"/>
<mask id="mask2_764_15631" style="mask-type:alpha" maskUnits="userSpaceOnUse" x="161" y="821" width="15" height="14">
<path fill-rule="evenodd" clip-rule="evenodd" d="M161.633 821.292H175.525V834.583H161.633V821.292Z" fill="white"/>
</mask>
<g mask="url(#mask2_764_15631)">
<path fill-rule="evenodd" clip-rule="evenodd" d="M163.682 823.231C163.535 826.485 163.752 830.688 163.854 832.353C163.859 832.453 163.934 832.525 164.035 832.53C165.406 832.606 170.128 832.818 173.524 832.334C173.532 830.52 172.251 828.061 170.322 826.193C168.343 824.279 166.002 823.231 163.711 823.231H163.682ZM168.087 834.583C166.34 834.583 164.803 834.514 163.919 834.465C162.807 834.402 161.922 833.543 161.858 832.466C161.754 830.758 161.528 826.419 161.688 823.064C161.732 822.088 162.546 821.312 163.54 821.295C166.39 821.215 169.33 822.497 171.735 824.823C174.079 827.092 175.567 830.075 175.524 832.422C175.508 833.337 174.822 834.102 173.894 834.238C172.083 834.503 169.963 834.583 168.087 834.583V834.583Z" fill="#CCCCCC"/>
</g>
<path d="M240.613 856.066V855.27H239.652V856.066C239.646 857.859 237.625 859.436 235.82 859.781L236.242 860.555C237.818 860.186 239.465 859.072 240.145 857.543C240.818 859.072 242.471 860.191 244.047 860.555L244.469 859.781C242.658 859.441 240.619 857.854 240.613 856.066ZM235.422 863.531H244.961V862.77H235.422V863.531ZM254.23 860.168H247.961V858.492H253.891V857.754H247.961V856.207H254.113V855.434H247.023V860.918H254.23V860.168ZM245.793 863.59H255.332V862.828H245.793V863.59ZM260.23 855.691H256.492V856.453H259.352V858.527H256.516V862.383H257.207C258.525 862.377 259.721 862.342 261.203 862.078L261.133 861.316C259.744 861.562 258.607 861.598 257.406 861.609V859.289H260.23V855.691ZM260.734 859.043H262.07V864.398H262.938V854.789H262.07V858.293H260.734V859.043ZM264.191 864.949H265.07V854.531H264.191V864.949ZM270.32 856.711V856.57H272.711V855.832H270.332V854.531H269.406V855.832H267.004V856.57H269.406V856.711C269.406 858.141 268.293 859.418 266.746 859.91L267.203 860.637C268.457 860.221 269.43 859.324 269.887 858.176C270.361 859.213 271.352 860.01 272.582 860.367L273.016 859.652C271.457 859.201 270.314 858.035 270.32 856.711ZM268.141 863.027C268.135 864.24 269.459 864.926 271.656 864.926C273.836 864.926 275.16 864.24 275.172 863.027C275.16 861.838 273.836 861.141 271.656 861.152C269.459 861.141 268.135 861.838 268.141 863.027ZM269.066 863.027C269.066 862.318 270.033 861.879 271.656 861.879C273.273 861.879 274.258 862.318 274.258 863.027C274.258 863.766 273.273 864.199 271.656 864.199C270.033 864.199 269.066 863.766 269.066 863.027ZM274.223 860.93H275.137V854.543H274.223V860.93Z" fill="#CCCCCC"/>
<path fill-rule="evenodd" clip-rule="evenodd" d="M256.385 840.418C250.26 840.418 247.156 841.47 247.156 843.547C247.156 845.642 250.26 846.704 256.385 846.704C262.508 846.704 265.611 845.652 265.611 843.575C265.611 841.48 262.508 840.418 256.385 840.418M256.385 848.86C253.569 848.86 245 848.86 245 843.547C245 838.809 251.498 838.262 256.385 838.262C259.2 838.262 267.767 838.262 267.767 843.575C267.767 848.313 261.27 848.86 256.385 848.86" fill="#CCCCCC"/>
<mask id="mask3_764_15631" style="mask-type:alpha" maskUnits="userSpaceOnUse" x="248" y="820" width="17" height="16">
<path fill-rule="evenodd" clip-rule="evenodd" d="M248.75 820H264.014V835.262H248.75V820Z" fill="white"/>
</mask>
<g mask="url(#mask3_764_15631)">
<path fill-rule="evenodd" clip-rule="evenodd" d="M256.383 822.052C253.306 822.052 250.802 824.554 250.802 827.632C250.792 830.699 253.277 833.2 256.342 833.211L256.383 834.237V833.211C259.459 833.211 261.961 830.707 261.961 827.632C261.961 824.554 259.459 822.052 256.383 822.052M256.383 835.262H256.337C252.138 835.249 248.736 831.824 248.75 827.627C248.75 823.423 252.174 820 256.383 820C260.592 820 264.014 823.423 264.014 827.631C264.014 831.84 260.592 835.262 256.383 835.262" fill="#CCCCCC"/>
</g>
<path d="M344.059 854.531H343.133V856.453H340.812V857.215H343.133V859.922H344.059V854.531ZM335.41 859.207L335.914 859.945C337.145 859.5 338.088 858.592 338.533 857.402C338.996 858.457 339.916 859.277 341.07 859.688L341.562 858.973C340.039 858.475 338.961 857.221 338.973 855.855V854.871H338.07V855.855C338.059 857.379 336.98 858.686 335.41 859.207ZM337.309 861.188H343.145V862.23H337.332V864.809H344.445V864.07H338.234V862.934H344.059V860.449H337.309V861.188ZM354.43 854.531H353.504V857.25H351.406V858.012H353.504V860.742H354.43V854.531ZM345.84 859.91L346.32 860.648C347.562 860.174 348.529 859.201 348.975 857.982C349.426 859.055 350.334 859.934 351.5 860.355L351.98 859.617C350.457 859.096 349.414 857.801 349.414 856.441V856.066H351.746V855.293H346.133V856.066H348.488V856.453C348.488 857.941 347.387 859.354 345.84 859.91ZM347.48 863.004C347.475 864.234 348.805 864.938 350.973 864.949C353.135 864.938 354.465 864.234 354.465 863.004C354.465 861.779 353.135 861.064 350.973 861.07C348.805 861.064 347.475 861.779 347.48 863.004ZM348.395 863.004C348.389 862.242 349.373 861.785 350.973 861.785C352.566 861.785 353.551 862.242 353.551 863.004C353.551 863.76 352.566 864.217 350.973 864.211C349.373 864.217 348.389 863.76 348.395 863.004Z" fill="#CCCCCC"/>
<path fill-rule="evenodd" clip-rule="evenodd" d="M359.195 837.84C358.935 836.91 358.295 836.1 357.435 835.62C357.055 835.41 356.785 835.06 356.675 834.65C356.565 834.25 356.625 833.81 356.845 833.44C356.985 833.2 357.185 833 357.445 832.86C359.185 831.87 359.815 829.7 358.875 827.98C358.855 827.94 358.835 827.91 358.815 827.87L357.935 826.38C356.895 824.64 354.585 824.03 352.775 825.04C352.395 825.25 351.955 825.31 351.535 825.21C351.115 825.1 350.755 824.84 350.535 824.47C350.395 824.24 350.325 823.99 350.315 823.77C350.345 822.78 349.955 821.81 349.255 821.11C348.545 820.4 347.555 820 346.545 820H344.775C343.765 820 342.815 820.38 342.105 821.07C341.395 821.77 341.005 822.69 341.015 823.65C340.995 824.52 340.255 825.22 339.375 825.22C339.105 825.22 338.835 825.15 338.595 825.01C336.795 824 334.485 824.61 333.465 826.34L332.505 827.87C331.465 829.61 332.085 831.85 333.875 832.86C334.385 833.15 334.705 833.68 334.705 834.25C334.705 834.82 334.385 835.35 333.875 835.63C332.085 836.64 331.465 838.87 332.505 840.62L333.385 842.1C333.875 842.94 334.695 843.58 335.655 843.84C336.615 844.1 337.655 843.99 338.545 843.51C338.925 843.3 339.375 843.24 339.785 843.35C340.195 843.45 340.555 843.72 340.785 844.1C340.915 844.32 340.995 844.58 340.995 844.83C340.995 846.85 342.685 848.49 344.775 848.49H346.545C348.615 848.49 350.305 846.86 350.315 844.84C350.315 844.41 350.485 844.01 350.795 843.71C351.105 843.41 351.525 843.24 351.935 843.24H351.945C352.215 843.25 352.495 843.32 352.735 843.46C354.525 844.46 356.835 843.87 357.875 842.14L358.815 840.62C359.315 839.78 359.455 838.77 359.195 837.84ZM345.665 838.9C343.025 838.9 340.865 836.81 340.865 834.25C340.865 831.68 343.015 829.59 345.665 829.59C348.315 829.59 350.465 831.68 350.465 834.25C350.465 836.81 348.315 838.9 345.665 838.9Z" fill="#8666FF"/>
<path fill-rule="evenodd" clip-rule="evenodd" d="M345.664 831.65C344.194 831.65 342.994 832.81 342.994 834.24C342.994 835.67 344.194 836.83 345.664 836.83C347.134 836.83 348.334 835.67 348.334 834.24C348.334 832.81 347.144 831.65 345.664 831.65Z" fill="#8666FF"/>
<rect y="455" width="414" height="347" fill="black" fill-opacity="0.7"/>
<rect width="414" height="352" fill="black" fill-opacity="0.7"/>
<path d="M180.043 310.297H170.316V311.492H174.418V315.078H175.895V311.492H180.043V310.297ZM170.797 308.504L171.348 309.676C173.205 309.424 174.535 308.627 175.186 307.531C175.83 308.627 177.172 309.424 179.047 309.676L179.586 308.504C177.395 308.24 176.217 307.197 176.064 306.148H179.176V304.977H171.195V306.148H174.307C174.148 307.197 172.953 308.24 170.797 308.504ZM184.145 305.129C182.463 305.123 181.174 306.213 181.18 307.742C181.174 309.277 182.463 310.361 184.145 310.367C185.838 310.361 187.092 309.277 187.098 307.742C187.092 306.213 185.838 305.123 184.145 305.129ZM180.734 311.703L180.91 312.922C182.773 312.922 185.305 312.904 187.672 312.441L187.555 311.363C185.275 311.686 182.639 311.709 180.734 311.703ZM182.668 307.742C182.662 306.91 183.301 306.418 184.145 306.418C184.994 306.418 185.639 306.91 185.645 307.742C185.639 308.586 184.994 309.072 184.145 309.066C183.301 309.072 182.662 308.586 182.668 307.742ZM188.164 315.102H189.652V304.414H188.164V315.102ZM199.473 304.414H197.973V315.055H199.473V309.734H200.984V308.504H199.473V304.414ZM190.941 312.066L191.785 313.215C195.371 311.451 196.613 308.691 196.625 305.504H191.551V306.723H195.107C194.826 309.102 193.467 310.801 190.941 312.066ZM213.148 304.414H211.648V309.887H213.148V304.414ZM204.371 308.504L204.535 309.676C206.387 309.676 208.812 309.617 210.934 309.277L210.863 308.211C210.447 308.258 210.014 308.299 209.574 308.334V306.207H210.453V305.07H204.652V306.207H205.52V308.492C205.121 308.498 204.734 308.504 204.371 308.504ZM205.895 311.469H211.672V312.09H205.918V315.008H213.441V313.824H207.395V313.156H213.148V310.309H205.895V311.469ZM206.949 308.463V306.207H208.133V308.422C207.734 308.439 207.342 308.451 206.949 308.463ZM224.328 312.605H222.16V309.963C222.963 309.465 223.443 308.721 223.449 307.801C223.443 306.072 221.738 304.936 219.43 304.93C217.109 304.936 215.422 306.072 215.422 307.801C215.422 308.738 215.92 309.494 216.746 309.992V312.605H214.566V313.836H224.328V312.605ZM216.898 307.801C216.898 306.729 217.9 306.107 219.43 306.113C220.936 306.107 221.967 306.729 221.973 307.801C221.967 308.844 220.936 309.488 219.43 309.488C217.9 309.488 216.898 308.844 216.898 307.801ZM218.223 312.605V310.537C218.598 310.607 219.002 310.648 219.43 310.648C219.857 310.648 220.268 310.607 220.648 310.531V312.605H218.223ZM233.398 304.426H231.898V312.383H233.398V308.914H234.84V307.695H233.398V304.426ZM224.938 306.723H231.266V305.539H228.852V304.402H227.363V305.539H224.938V306.723ZM225.453 309.16C225.453 310.391 226.549 311.199 228.102 311.199C229.648 311.199 230.727 310.391 230.727 309.16C230.727 307.924 229.648 307.098 228.102 307.098C226.549 307.098 225.453 307.924 225.453 309.16ZM226.484 314.891H233.785V313.695H227.973V311.773H226.484V314.891ZM226.918 309.16C226.912 308.568 227.387 308.24 228.102 308.234C228.822 308.24 229.309 308.568 229.309 309.16C229.309 309.746 228.822 310.062 228.102 310.062C227.387 310.062 226.912 309.746 226.918 309.16ZM238.145 306.969H240.746V314H242.492V306.969H245.094V305.516H238.145V306.969ZM253.578 309.758C253.578 306.986 251.861 305.398 249.617 305.398C247.355 305.398 245.645 306.986 245.645 309.758C245.645 312.518 247.355 314.117 249.617 314.117C251.861 314.117 253.578 312.529 253.578 309.758ZM247.438 309.758C247.438 307.941 248.299 306.963 249.617 306.957C250.924 306.963 251.791 307.941 251.785 309.758C251.791 311.568 250.924 312.553 249.617 312.559C248.299 312.553 247.438 311.568 247.438 309.758ZM254.844 314H256.602V311.234H258.125C260.082 311.234 261.207 310.068 261.207 308.375C261.207 306.705 260.1 305.516 258.172 305.516H254.844V314ZM256.602 309.816V306.957H257.844C258.887 306.963 259.396 307.531 259.391 308.375C259.396 309.23 258.887 309.816 257.844 309.816H256.602ZM265.414 314.117C267.33 314.117 268.707 313.074 268.695 311.621C268.707 310.561 268.021 309.805 266.773 309.652V309.582C267.723 309.412 268.385 308.738 268.379 307.789C268.385 306.447 267.207 305.398 265.438 305.398C263.697 305.398 262.385 306.412 262.355 307.871H264.043C264.072 307.221 264.688 306.799 265.438 306.805C266.188 306.799 266.686 307.244 266.68 307.895C266.686 308.562 266.1 309.02 265.262 309.02H264.477V310.32H265.262C266.258 310.326 266.873 310.812 266.867 311.504C266.873 312.189 266.27 312.658 265.426 312.664C264.605 312.658 263.99 312.242 263.961 311.609H262.18C262.215 313.092 263.551 314.117 265.414 314.117ZM273.043 305.129C271.361 305.123 270.072 306.213 270.078 307.742C270.072 309.277 271.361 310.361 273.043 310.367C274.736 310.361 275.99 309.277 275.996 307.742C275.99 306.213 274.736 305.123 273.043 305.129ZM269.633 311.703L269.809 312.922C271.672 312.922 274.203 312.904 276.57 312.441L276.453 311.363C274.174 311.686 271.537 311.709 269.633 311.703ZM271.566 307.742C271.561 306.91 272.199 306.418 273.043 306.418C273.893 306.418 274.537 306.91 274.543 307.742C274.537 308.586 273.893 309.072 273.043 309.066C272.199 309.072 271.561 308.586 271.566 307.742ZM277.062 315.102H278.551V304.414H277.062V315.102ZM286.66 307.32V306.664H288.805V305.445H282.898V306.664H285.16V307.32C285.148 309.084 284.252 311.064 282.477 311.891L283.344 313.074C284.574 312.494 285.453 311.299 285.928 309.893C286.408 311.17 287.252 312.26 288.441 312.805L289.273 311.633C287.521 310.818 286.654 308.943 286.66 307.32ZM289.637 315.078H291.137V309.734H292.707V308.48H291.137V304.414H289.637V315.078ZM296.516 307.098V305.328H295.062V307.168C295.062 308.973 294.477 310.854 292.895 311.832L293.809 312.934C294.775 312.348 295.414 311.334 295.795 310.127C296.135 311.217 296.715 312.143 297.641 312.699L298.449 311.539C296.99 310.607 296.51 308.826 296.516 307.098ZM297.324 309.23H298.707V314.586H300.102V304.566H298.707V308.012H297.324V309.23ZM300.91 315.078H302.34V304.414H300.91V315.078ZM312.453 304.414H310.965V305.773H308.996V304.871H307.52V306.113H305.422V304.871H303.922V309.594H308.996V308.832H310.965V309.898H312.453V304.414ZM305.352 311.445H310.965V312.055H305.363V314.961H312.77V313.789H306.863V313.145H312.453V310.297H305.352V311.445ZM305.422 308.422V307.25H307.52V308.422H305.422ZM308.996 307.707V306.887H310.965V307.707H308.996ZM323.598 312.664H319.438V311.059H322.719V309.84H316.461V308.645H322.473V305.105H314.949V306.301H320.996V307.473H314.961V311.059H317.949V312.664H313.836V313.895H323.598V312.664ZM180.242 325.457H178.73V321.414H177.23V332.055H178.73V326.676H180.242V325.457ZM170.656 329.453H171.582C173.152 329.453 174.881 329.359 176.668 328.996L176.516 327.754C174.975 328.064 173.51 328.193 172.145 328.217V322.434H170.656V329.453ZM189.934 321.414H188.504V332.078H189.934V321.414ZM180.781 326.031C180.781 328.428 181.689 329.91 183.102 329.91C184.414 329.91 185.311 328.639 185.439 326.547H186.301V331.586H187.707V321.566H186.301V325.363H185.428C185.264 323.371 184.385 322.17 183.102 322.176C181.689 322.17 180.781 323.646 180.781 326.031ZM182.164 326.031C182.152 324.396 182.504 323.582 183.102 323.582C183.717 323.582 184.08 324.396 184.074 326.031C184.08 327.672 183.717 328.48 183.102 328.469C182.504 328.48 182.152 327.672 182.164 326.031ZM200.305 321.414H198.898V332.078H200.305V321.414ZM190.93 328.809L191.773 329.863C193.291 328.984 194.281 327.93 194.891 326.711H196.637V331.609H198.031V321.648H196.637V325.527H195.354C195.611 324.648 195.723 323.699 195.723 322.68H191.516V323.887H194.24C194.035 325.979 193.086 327.531 190.93 328.809ZM212.656 321.414H211.156V326.746H212.656V324.707H214.098V323.477H212.656V321.414ZM204.266 324.145C204.26 325.551 205.496 326.559 207.137 326.559C208.771 326.559 209.996 325.551 209.996 324.145C209.996 322.721 208.771 321.736 207.137 321.73C205.496 321.736 204.26 322.721 204.266 324.145ZM205.578 328.316H211.168V328.996H205.602V331.961H212.961V330.789H207.066V330.074H212.656V327.168H205.578V328.316ZM205.73 324.145C205.719 323.4 206.316 322.949 207.137 322.949C207.951 322.949 208.543 323.4 208.543 324.145C208.543 324.9 207.951 325.375 207.137 325.375C206.316 325.375 205.719 324.9 205.73 324.145ZM223.496 321.426H221.996V327.742H223.496V321.426ZM215.117 323.207H218.574V324.098H215.129V327.379H216.066C218.182 327.379 219.623 327.326 221.258 327.062L221.07 325.867C219.635 326.107 218.375 326.154 216.594 326.16V325.234H220.062V322.035H215.117V323.207ZM216.348 331.961H223.496V328.211H216.348V331.961ZM217.824 330.766V329.395H222.031V330.766H217.824ZM229.801 321.566C227.34 321.566 225.91 322.211 225.91 323.383C225.91 324.572 227.34 325.211 229.801 325.211C232.256 325.211 233.674 324.572 233.68 323.383C233.674 322.211 232.256 321.566 229.801 321.566ZM224.938 326.898H234.664V325.715H224.938V326.898ZM226.062 328.609H232.004V329.195H226.074V332.008H233.762V330.883H227.539V330.238H233.48V327.52H226.062V328.609ZM227.48 323.383C227.475 322.908 228.236 322.656 229.801 322.656C231.377 322.656 232.133 322.908 232.133 323.383C232.133 323.904 231.377 324.109 229.801 324.109C228.236 324.109 227.475 323.904 227.48 323.383ZM247.801 327.297H238.074V328.492H242.176V332.078H243.652V328.492H247.801V327.297ZM238.555 325.504L239.105 326.676C240.963 326.424 242.293 325.627 242.943 324.531C243.588 325.627 244.93 326.424 246.805 326.676L247.344 325.504C245.152 325.24 243.975 324.197 243.822 323.148H246.934V321.977H238.953V323.148H242.064C241.906 324.197 240.711 325.24 238.555 325.504ZM257.105 324.32H251.141V321.789H249.652V325.492H257.105V324.32ZM248.434 327.812H258.195V326.641H248.434V327.812ZM249.559 331.844H257.176V330.648H251.059V328.68H249.559V331.844ZM271.309 327.297H261.582V328.492H265.684V332.078H267.16V328.492H271.309V327.297ZM262.062 325.504L262.613 326.676C264.471 326.424 265.801 325.627 266.451 324.531C267.096 325.627 268.438 326.424 270.312 326.676L270.852 325.504C268.66 325.24 267.482 324.197 267.33 323.148H270.441V321.977H262.461V323.148H265.572C265.414 324.197 264.219 325.24 262.062 325.504ZM280.918 321.414H279.406V332.078H280.918V321.414ZM271.988 329.055L272.773 330.25C276.582 328.451 277.713 325.762 277.719 322.527H272.562V323.699H276.195C275.955 326.066 274.742 327.754 271.988 329.055ZM292.074 326.195H282.312V327.309H292.074V326.195ZM283.426 328.867H289.426V329.406H283.438V331.984H291.219V330.965H284.926V330.355H290.902V327.836H283.426V328.867ZM283.508 322.621H289.391V323.16H283.531V325.691H291.078V324.684H285.02V324.109H290.891V321.602H283.508V322.621ZM304.449 321.414H302.961V323.008H300.957V324.191H302.961V326.84H304.449V321.414ZM295.379 325.738L296.152 326.922C297.4 326.529 298.238 325.732 298.707 324.707C299.17 325.621 299.967 326.336 301.109 326.699L301.895 325.551C300.195 325.047 299.451 323.811 299.457 322.539V321.766H297.945V322.539C297.939 323.916 297.148 325.217 295.379 325.738ZM297.359 328.434H302.973V329.043H297.371V331.961H304.754V330.789H298.848V330.133H304.449V327.285H297.359V328.434ZM314.82 321.414H313.332V324.016H311.668V325.223H313.332V327.742H314.82V321.414ZM305.762 326.57L306.535 327.754C307.801 327.32 308.656 326.447 309.125 325.363C309.588 326.318 310.402 327.092 311.574 327.473L312.312 326.301C310.654 325.75 309.893 324.496 309.863 323.254H311.984V322.059H306.195V323.254H308.34C308.305 324.59 307.508 325.984 305.762 326.57ZM307.508 330.039C307.508 331.334 308.902 332.09 311.176 332.09C313.455 332.09 314.85 331.334 314.855 330.039C314.85 328.744 313.455 327.982 311.176 327.977C308.902 327.982 307.508 328.744 307.508 330.039ZM308.996 330.039C308.996 329.424 309.764 329.119 311.176 329.125C312.594 329.119 313.361 329.424 313.367 330.039C313.361 330.648 312.594 330.953 311.176 330.953C309.764 330.953 308.996 330.648 308.996 330.039ZM324.664 321.391H323.164V327.168H324.664V324.906H326.105V323.711H324.664V321.391ZM316.203 323.348H322.531V322.211H320.117V321.344H318.629V322.211H316.203V323.348ZM316.719 325.352C316.719 326.441 317.779 327.092 319.367 327.098C320.967 327.092 321.992 326.441 321.992 325.352C321.992 324.285 320.967 323.611 319.367 323.605C317.779 323.611 316.719 324.285 316.719 325.352ZM317.586 328.68H323.176V329.277H317.609V332.008H324.969V330.906H319.074V330.297H324.664V327.602H317.586V328.68ZM318.184 325.352C318.178 324.9 318.629 324.654 319.367 324.66C320.111 324.654 320.574 324.9 320.574 325.352C320.574 325.809 320.111 326.025 319.367 326.031C318.629 326.025 318.178 325.809 318.184 325.352ZM335 322.246V321.73H333.43V322.246C333.424 323.506 332.141 324.895 329.715 325.199L330.312 326.406C332.152 326.137 333.512 325.27 334.215 324.121C334.912 325.275 336.277 326.137 338.141 326.406L338.727 325.199C336.283 324.895 334.994 323.506 335 322.246ZM329.34 328.434H333.441V332.078H334.918V328.434H339.066V327.215H329.34V328.434ZM346.355 328.258V327.895H344.902V328.258C344.896 329.295 344.299 330.355 342.898 330.836L343.637 331.926C344.609 331.58 345.266 330.936 345.646 330.145C345.992 330.965 346.619 331.656 347.621 332.02C348.576 331.645 349.197 330.93 349.549 330.104C349.918 330.93 350.586 331.58 351.605 331.926L352.332 330.836C350.908 330.396 350.316 329.371 350.328 328.258V327.895H348.852V328.258C348.852 329.049 348.465 329.963 347.58 330.59C346.719 330.004 346.355 329.113 346.355 328.258ZM342.641 324.531C342.641 326.014 343.895 327.08 345.559 327.074C347.217 327.08 348.471 326.014 348.477 324.531C348.471 323.02 347.217 321.965 345.559 321.965C343.895 321.965 342.641 323.02 342.641 324.531ZM344.105 324.531C344.094 323.705 344.703 323.219 345.559 323.219C346.391 323.219 346.994 323.705 347 324.531C346.994 325.334 346.391 325.838 345.559 325.832C344.703 325.838 344.094 325.334 344.105 324.531ZM349.906 327.449H351.406V321.426H349.906V327.449ZM355.461 327.812H353.984V331.961H361.344V327.812H359.855V328.715H355.461V327.812ZM352.848 327.273H362.574V326.066H352.848V327.273ZM353.328 324.426L353.867 325.598C355.684 325.363 357.02 324.602 357.711 323.57C358.396 324.602 359.732 325.363 361.566 325.598L362.094 324.426C359.709 324.156 358.484 322.949 358.484 321.883V321.52H356.949V321.883C356.938 322.979 355.707 324.139 353.328 324.426ZM355.461 330.789V329.852H359.855V330.789H355.461ZM372.184 321.414H370.695V332.078H372.184V321.414ZM363.793 329.441H364.73C366.377 329.447 368.146 329.33 370.016 328.938L369.828 327.707C368.258 328.012 366.711 328.146 365.27 328.17V322.434H363.793V329.441ZM382.004 321.414H380.504V332.102H382.004V326.594H383.574V325.375H382.004V321.414ZM374.012 329.512H374.914C376.795 329.518 378.248 329.477 379.906 329.195L379.742 327.941C378.324 328.188 377.047 328.27 375.5 328.281V323.605H379.016V322.398H374.012V329.512Z" fill="white"/>
<path d="M145.562 478.414H144.133V482.48H143.172V478.566H141.754V488.586H143.172V483.699H144.133V489.078H145.562V478.414ZM136.621 486.395H140.863V479.516H136.621V486.395ZM138.016 485.223V480.699H139.469V485.223H138.016ZM149.723 478.73C148.076 478.725 146.852 479.744 146.852 481.168C146.852 482.58 148.076 483.588 149.723 483.594C151.346 483.588 152.564 482.58 152.57 481.168C152.564 479.744 151.346 478.725 149.723 478.73ZM148.305 481.168C148.293 480.4 148.902 479.949 149.723 479.949C150.531 479.949 151.123 480.4 151.129 481.168C151.123 481.93 150.531 482.381 149.723 482.387C148.896 482.381 148.293 481.93 148.305 481.168ZM148.457 485.352H154.129V486.008H148.48V488.961H155.91V487.789H149.945V487.098H155.617V484.203H148.457V485.352ZM154.117 483.758H155.617V478.414H154.117V483.758ZM169.551 483.91H165.426V483.254H168.508V482.105H162.52V481.496H168.168V480.418H162.52V479.82H168.414V478.672H161.02V483.254H163.926V483.91H159.801V485.082H169.551V483.91ZM160.938 487.32C160.938 488.469 162.285 489.084 164.676 489.078C167.025 489.084 168.379 488.469 168.391 487.32C168.379 486.195 167.025 485.562 164.676 485.574C162.285 485.562 160.938 486.195 160.938 487.32ZM162.438 487.32C162.426 486.875 163.141 486.67 164.676 486.676C166.176 486.67 166.885 486.875 166.891 487.32C166.885 487.777 166.176 487.977 164.676 487.977C163.141 487.977 162.426 487.777 162.438 487.32ZM179.922 483.324H170.195V484.531H179.922V483.324ZM170.629 481.766L171.121 482.938C173.143 482.744 174.484 481.982 175.047 480.951C175.615 481.982 176.969 482.744 178.984 482.938L179.512 481.766C177.461 481.584 176.371 480.846 176.131 480.102H179.043V478.906H171.086V480.102H173.975C173.729 480.852 172.633 481.584 170.629 481.766ZM171.309 487.109C171.309 488.369 172.715 489.084 175.047 489.078C177.361 489.084 178.75 488.369 178.762 487.109C178.75 485.855 177.361 485.129 175.047 485.129C172.715 485.129 171.309 485.855 171.309 487.109ZM172.832 487.109C172.826 486.553 173.57 486.289 175.047 486.289C176.494 486.289 177.256 486.553 177.262 487.109C177.256 487.66 176.494 487.918 175.047 487.918C173.57 487.918 172.826 487.66 172.832 487.109ZM185.43 478.566C182.969 478.566 181.539 479.211 181.539 480.383C181.539 481.572 182.969 482.211 185.43 482.211C187.885 482.211 189.303 481.572 189.309 480.383C189.303 479.211 187.885 478.566 185.43 478.566ZM180.566 483.898H190.293V482.715H180.566V483.898ZM181.691 485.609H187.633V486.195H181.703V489.008H189.391V487.883H183.168V487.238H189.109V484.52H181.691V485.609ZM183.109 480.383C183.104 479.908 183.865 479.656 185.43 479.656C187.006 479.656 187.762 479.908 187.762 480.383C187.762 480.904 187.006 481.109 185.43 481.109C183.865 481.109 183.104 480.904 183.109 480.383ZM202.668 478.414H201.156V489.078H202.668V478.414ZM193.738 486.055L194.523 487.25C198.332 485.451 199.463 482.762 199.469 479.527H194.312V480.699H197.945C197.705 483.066 196.492 484.754 193.738 486.055ZM213.824 484.133H209.688V483.359H212.84V482.211H206.77V481.508H212.641V478.613H205.258V479.773H211.141V480.43H205.281V483.359H208.199V484.133H204.062V485.328H213.824V484.133ZM205.152 487.109H211.188V489.031H212.699V485.938H205.152V487.109ZM219.59 480.043H217.762V478.707H216.285V480.043H214.434V481.227H219.59V480.043ZM214.68 484.238C214.68 485.727 215.676 486.781 217.035 486.781C218.4 486.781 219.373 485.727 219.379 484.238C219.373 482.756 218.4 481.713 217.035 481.707C215.676 481.713 214.68 482.756 214.68 484.238ZM215.992 484.238C215.992 483.436 216.414 482.949 217.035 482.949C217.633 482.949 218.061 483.436 218.066 484.238C218.061 485.053 217.633 485.516 217.035 485.516C216.414 485.516 215.992 485.053 215.992 484.238ZM219.988 488.621H221.383V483.945H222.25V489.078H223.668V478.414H222.25V482.75H221.383V478.625H219.988V488.621ZM227.688 479.164C226.053 479.164 224.869 480.635 224.875 482.961C224.869 485.305 226.053 486.77 227.688 486.77C229.316 486.77 230.494 485.305 230.5 482.961C230.494 480.635 229.316 479.164 227.688 479.164ZM226.316 482.961C226.316 481.379 226.873 480.512 227.688 480.512C228.52 480.512 229.064 481.379 229.07 482.961C229.064 484.549 228.52 485.416 227.688 485.41C226.873 485.416 226.316 484.549 226.316 482.961ZM231.73 489.078H233.23V485.258H234.742V484.039H233.23V482.141H234.742V480.887H233.23V478.414H231.73V489.078ZM246.367 478.414H244.891V489.078H246.367V483.816H247.938V482.586H246.367V478.414ZM237.895 481.203H244.164V480.008H241.809V478.578H240.309V480.008H237.895V481.203ZM238.328 484.344C238.322 485.832 239.482 486.881 241.059 486.887C242.611 486.881 243.777 485.832 243.777 484.344C243.777 482.855 242.611 481.795 241.059 481.801C239.482 481.795 238.322 482.855 238.328 484.344ZM239.758 484.344C239.758 483.523 240.303 483.02 241.059 483.008C241.803 483.02 242.348 483.523 242.348 484.344C242.348 485.17 241.803 485.662 241.059 485.656C240.303 485.662 239.758 485.17 239.758 484.344ZM256.984 481.32H251.02V478.789H249.531V482.492H256.984V481.32ZM248.312 484.812H258.074V483.641H248.312V484.812ZM249.438 488.844H257.055V487.648H250.938V485.68H249.438V488.844ZM265.609 480.828V479.234H264.098V480.828C264.092 482.896 263.184 484.941 261.32 485.727L262.223 486.969C263.523 486.377 264.396 485.217 264.877 483.775C265.363 485.094 266.207 486.16 267.426 486.711L268.305 485.516C266.494 484.748 265.604 482.785 265.609 480.828ZM268.879 489.102H270.391V478.414H268.879V489.102ZM280.293 478.414H278.781V486.055H280.293V482.633H281.734V481.402H280.293V478.414ZM271.762 483.828L272.383 485.012C275.582 484.109 277.381 482.094 277.387 479.211H272.23V480.43H275.74C275.506 481.93 274.152 483.166 271.762 483.828ZM273.355 488.891H280.656V487.695H274.867V485.27H273.355V488.891ZM287.066 478.566C284.605 478.566 283.176 479.211 283.176 480.383C283.176 481.572 284.605 482.211 287.066 482.211C289.521 482.211 290.939 481.572 290.945 480.383C290.939 479.211 289.521 478.566 287.066 478.566ZM282.203 483.898H291.93V482.715H282.203V483.898ZM283.328 485.609H289.27V486.195H283.34V489.008H291.027V487.883H284.805V487.238H290.746V484.52H283.328V485.609ZM284.746 480.383C284.74 479.908 285.502 479.656 287.066 479.656C288.643 479.656 289.398 479.908 289.398 480.383C289.398 480.904 288.643 481.109 287.066 481.109C285.502 481.109 284.74 480.904 284.746 480.383ZM304.328 478.414H302.84V480.008H300.836V481.191H302.84V483.84H304.328V478.414ZM295.258 482.738L296.031 483.922C297.279 483.529 298.117 482.732 298.586 481.707C299.049 482.621 299.846 483.336 300.988 483.699L301.773 482.551C300.074 482.047 299.33 480.811 299.336 479.539V478.766H297.824V479.539C297.818 480.916 297.027 482.217 295.258 482.738ZM297.238 485.434H302.852V486.043H297.25V488.961H304.633V487.789H298.727V487.133H304.328V484.285H297.238V485.434ZM314.699 478.414H313.211V481.016H311.547V482.223H313.211V484.742H314.699V478.414ZM305.641 483.57L306.414 484.754C307.68 484.32 308.535 483.447 309.004 482.363C309.467 483.318 310.281 484.092 311.453 484.473L312.191 483.301C310.533 482.75 309.771 481.496 309.742 480.254H311.863V479.059H306.074V480.254H308.219C308.184 481.59 307.387 482.984 305.641 483.57ZM307.387 487.039C307.387 488.334 308.781 489.09 311.055 489.09C313.334 489.09 314.729 488.334 314.734 487.039C314.729 485.744 313.334 484.982 311.055 484.977C308.781 484.982 307.387 485.744 307.387 487.039ZM308.875 487.039C308.875 486.424 309.643 486.119 311.055 486.125C312.473 486.119 313.24 486.424 313.246 487.039C313.24 487.648 312.473 487.953 311.055 487.953C309.643 487.953 308.875 487.648 308.875 487.039ZM324.543 478.391H323.043V484.168H324.543V481.906H325.984V480.711H324.543V478.391ZM316.082 480.348H322.41V479.211H319.996V478.344H318.508V479.211H316.082V480.348ZM316.598 482.352C316.598 483.441 317.658 484.092 319.246 484.098C320.846 484.092 321.871 483.441 321.871 482.352C321.871 481.285 320.846 480.611 319.246 480.605C317.658 480.611 316.598 481.285 316.598 482.352ZM317.465 485.68H323.055V486.277H317.488V489.008H324.848V487.906H318.953V487.297H324.543V484.602H317.465V485.68ZM318.062 482.352C318.057 481.9 318.508 481.654 319.246 481.66C319.99 481.654 320.453 481.9 320.453 482.352C320.453 482.809 319.99 483.025 319.246 483.031C318.508 483.025 318.057 482.809 318.062 482.352ZM334.879 479.246V478.73H333.309V479.246C333.303 480.506 332.02 481.895 329.594 482.199L330.191 483.406C332.031 483.137 333.391 482.27 334.094 481.121C334.791 482.275 336.156 483.137 338.02 483.406L338.605 482.199C336.162 481.895 334.873 480.506 334.879 479.246ZM329.219 485.434H333.32V489.078H334.797V485.434H338.945V484.215H329.219V485.434ZM346.234 485.258V484.895H344.781V485.258C344.775 486.295 344.178 487.355 342.777 487.836L343.516 488.926C344.488 488.58 345.145 487.936 345.525 487.145C345.871 487.965 346.498 488.656 347.5 489.02C348.455 488.645 349.076 487.93 349.428 487.104C349.797 487.93 350.465 488.58 351.484 488.926L352.211 487.836C350.787 487.396 350.195 486.371 350.207 485.258V484.895H348.73V485.258C348.73 486.049 348.344 486.963 347.459 487.59C346.598 487.004 346.234 486.113 346.234 485.258ZM342.52 481.531C342.52 483.014 343.773 484.08 345.438 484.074C347.096 484.08 348.35 483.014 348.355 481.531C348.35 480.02 347.096 478.965 345.438 478.965C343.773 478.965 342.52 480.02 342.52 481.531ZM343.984 481.531C343.973 480.705 344.582 480.219 345.438 480.219C346.27 480.219 346.873 480.705 346.879 481.531C346.873 482.334 346.27 482.838 345.438 482.832C344.582 482.838 343.973 482.334 343.984 481.531ZM349.785 484.449H351.285V478.426H349.785V484.449ZM355.34 484.812H353.863V488.961H361.223V484.812H359.734V485.715H355.34V484.812ZM352.727 484.273H362.453V483.066H352.727V484.273ZM353.207 481.426L353.746 482.598C355.562 482.363 356.898 481.602 357.59 480.57C358.275 481.602 359.611 482.363 361.445 482.598L361.973 481.426C359.588 481.156 358.363 479.949 358.363 478.883V478.52H356.828V478.883C356.816 479.979 355.586 481.139 353.207 481.426ZM355.34 487.789V486.852H359.734V487.789H355.34ZM372.062 478.414H370.574V489.078H372.062V478.414ZM363.672 486.441H364.609C366.256 486.447 368.025 486.33 369.895 485.938L369.707 484.707C368.137 485.012 366.59 485.146 365.148 485.17V479.434H363.672V486.441ZM381.883 478.414H380.383V489.102H381.883V483.594H383.453V482.375H381.883V478.414ZM373.891 486.512H374.793C376.674 486.518 378.127 486.477 379.785 486.195L379.621 484.941C378.203 485.188 376.926 485.27 375.379 485.281V480.605H378.895V479.398H373.891V486.512Z" fill="white"/>
<path d="M69 314V313.5H68.5V314H69ZM69 335.5L71.8868 330.5H66.1132L69 335.5ZM156 313.5L69 313.5V314.5L156 314.5V313.5ZM68.5 314V331H69.5V314H68.5Z" fill="white"/>
<path d="M73 483.5H72.5V484H73V483.5ZM73 472.5L70.1132 477.5H75.8868L73 472.5ZM122 483H73V484H122V483ZM73.5 483.5V477H72.5V483.5H73.5Z" fill="white"/>
<defs>
<filter id="filter0_d_764_15631" x="14" y="131" width="386" height="221" filterUnits="userSpaceOnUse" color-interpolation-filters="sRGB">
<feFlood flood-opacity="0" result="BackgroundImageFix"/>
<feColorMatrix in="SourceAlpha" type="matrix" values="0 0 0 0 0 0 0 0 0 0 0 0 0 0 0 0 0 0 127 0" result="hardAlpha"/>
<feOffset dy="5"/>
<feGaussianBlur stdDeviation="7.5"/>
<feComposite in2="hardAlpha" operator="out"/>
<feColorMatrix type="matrix" values="0 0 0 0 0 0 0 0 0 0 0 0 0 0 0 0 0 0 0.15 0"/>
<feBlend mode="normal" in2="BackgroundImageFix" result="effect1_dropShadow_764_15631"/>
<feBlend mode="normal" in="SourceGraphic" in2="effect1_dropShadow_764_15631" result="shape"/>
</filter>
<filter id="filter1_d_764_15631" x="14" y="342" width="386" height="337" filterUnits="userSpaceOnUse" color-interpolation-filters="sRGB">
<feFlood flood-opacity="0" result="BackgroundImageFix"/>
<feColorMatrix in="SourceAlpha" type="matrix" values="0 0 0 0 0 0 0 0 0 0 0 0 0 0 0 0 0 0 127 0" result="hardAlpha"/>
<feOffset dy="5"/>
<feGaussianBlur stdDeviation="7.5"/>
<feComposite in2="hardAlpha" operator="out"/>
<feColorMatrix type="matrix" values="0 0 0 0 0 0 0 0 0 0 0 0 0 0 0 0 0 0 0.15 0"/>
<feBlend mode="normal" in2="BackgroundImageFix" result="effect1_dropShadow_764_15631"/>
<feBlend mode="normal" in="SourceGraphic" in2="effect1_dropShadow_764_15631" result="shape"/>
</filter>
</defs>
</svg>
