<svg width="414" height="896" viewBox="0 0 414 896" fill="none" xmlns="http://www.w3.org/2000/svg">
<rect width="414" height="896" fill="white"/>
<path d="M134.84 86.2305H131.742V95.1426H129.838V86.6113H126.791V108.219H129.838V97.7578H131.742V109.336H134.84V86.2305ZM114.553 101.389L114.908 104.055C117.765 104.055 122.487 103.966 126.029 103.217L125.852 100.855C125.318 100.932 124.747 100.995 124.15 101.059V91.4609H125.648V88.8457H114.984V91.4609H116.508V101.389H114.553ZM119.428 101.338V91.4609H121.256V101.262C120.646 101.3 120.024 101.312 119.428 101.338ZM156.6 86.2305H153.35V109.336H156.6V86.2305ZM137.404 102.531L139.131 105.02C141.822 103.89 143.714 101.528 144.742 98.7227C145.796 101.376 147.675 103.585 150.303 104.664L152.055 102.176C148.208 100.589 146.316 96.8184 146.316 93.4668V92.5781H151.115V89.9883H146.291V86.7383H143.066V89.9883H138.166V92.5781H143.092V93.4668C143.079 96.9834 141.2 100.868 137.404 102.531ZM179.604 86.2305H176.531V103.521H179.604V86.2305ZM159.469 98.0625L161.246 100.525C163.29 99.5732 164.674 97.8975 165.486 95.8789C166.248 97.6436 167.492 99.1035 169.346 99.9668L171.148 97.4785C168.178 96.1201 167.022 93.4668 167.035 90.8008V87.7793H163.887V90.8008C163.887 93.5303 162.617 96.5518 159.469 98.0625ZM163.938 108.93H180.188V106.34H167.188V101.49H163.938V108.93ZM169.041 94.1523H171.859V102.836H174.932V86.5859H171.859V91.5117H169.041V94.1523ZM190.953 91.4609V88.0078H187.678V91.4609C187.652 95.8027 185.85 100.259 181.889 102.049L183.92 104.689C186.561 103.395 188.338 100.906 189.328 97.8721C190.293 100.729 192.02 103.039 194.584 104.283L196.564 101.693C192.718 100.03 190.966 95.8027 190.953 91.4609ZM193.975 96.1074H198.52V109.387H201.719V86.2305H198.52V93.4922H193.975V96.1074ZM231.807 99.5605H210.656V102.1H219.568V109.336H222.768V102.1H231.807V99.5605ZM213.145 97.3262H229.293V87.1191H226.043V89.7852H216.344V87.1191H213.145V97.3262ZM216.344 94.7363V92.3242H226.043V94.7363H216.344ZM241.658 91.207H246.33V88.6426H241.709V86.1543H238.434V88.6426H233.787V91.207H238.434C238.434 93.7969 236.72 96.4629 232.975 97.4785L234.523 100.018C237.228 99.2432 239.068 97.5928 240.084 95.498C241.138 97.4023 242.966 98.9258 245.594 99.6367L247.092 97.0723C243.321 96.082 241.671 93.5938 241.658 91.207ZM235.92 103.928H248.234V109.361H251.484V101.338H235.92V103.928ZM248.234 100.398H251.484V94.6348H254.607V91.918H251.484V86.2305H248.234V100.398ZM273.854 86.2305H270.654V109.336H273.854V97.9355H277.256V95.2695H273.854V86.2305ZM255.496 92.2734H269.08V89.6836H263.977V86.5859H260.727V89.6836H255.496V92.2734ZM256.436 99.0781C256.423 102.303 258.937 104.575 262.352 104.588C265.716 104.575 268.242 102.303 268.242 99.0781C268.242 95.8535 265.716 93.5557 262.352 93.5684C258.937 93.5557 256.423 95.8535 256.436 99.0781ZM259.533 99.0781C259.533 97.3008 260.714 96.209 262.352 96.1836C263.964 96.209 265.145 97.3008 265.145 99.0781C265.145 100.868 263.964 101.935 262.352 101.922C260.714 101.935 259.533 100.868 259.533 99.0781ZM297.518 86.2305H294.242V109.336H297.518V86.2305ZM278.17 102.785L279.871 105.375C288.123 101.478 290.573 95.6504 290.586 88.6426H279.414V91.1816H287.285C286.765 96.3105 284.137 99.9668 278.17 102.785Z" fill="#8666FF"/>
<path d="M93.0098 131.744H91.4277V143.557H93.0098V131.744ZM79.5449 140.076L80.4766 141.359C81.9531 140.656 82.9902 139.338 83.5615 137.826C84.0889 139.188 85.0557 140.313 86.4531 140.955L87.3848 139.672C85.3721 138.793 84.3438 136.93 84.3438 135.084V132.834H82.7266V135.084C82.7354 136.947 81.6191 139.092 79.5449 140.076ZM82.5684 147.16H93.4668V145.807H84.2207V142.115H82.5684V147.16ZM85.9785 136.982H88.2812V143.1H89.8809V132.025H88.2812V135.611H85.9785V136.982ZM100.814 135.752V133.062H99.127V135.752C99.1182 138.67 97.4922 141.702 95.0488 142.871L96.1035 144.225C97.9229 143.284 99.2939 141.368 99.9883 139.101C100.683 141.254 102.036 143.029 103.82 143.926L104.84 142.59C102.432 141.509 100.814 138.635 100.814 135.752ZM103.1 138.336H106.615V147.529H108.268V131.744H106.615V136.982H103.1V138.336ZM128.641 131.744H127.041V138.002H125.178V132.061H123.596V146.686H125.178V139.373H127.041V147.494H128.641V131.744ZM114.912 142.291L115.105 143.697C117.136 143.697 120.432 143.627 122.91 143.152L122.822 141.922C122.348 141.983 121.838 142.036 121.311 142.089V135.031H122.559V133.66H115.246V135.031H116.494V142.282C115.914 142.291 115.378 142.291 114.912 142.291ZM118.023 142.256V135.031H119.781V142.186C119.192 142.221 118.604 142.238 118.023 142.256ZM143.688 131.744H142.018V147.494H143.688V131.744ZM130.873 143.188L131.805 144.471C133.633 143.645 135.065 141.896 135.777 139.786C136.507 141.772 137.948 143.416 139.768 144.207L140.682 142.924C138.229 141.887 136.577 139.32 136.568 136.807V135.77H140.102V134.434H136.568V132.061H134.916V134.434H131.348V135.77H134.934V136.807C134.925 139.443 133.308 142.098 130.873 143.188ZM151.334 132.869C148.855 132.86 147.036 134.398 147.045 136.613C147.036 138.828 148.855 140.366 151.334 140.375C153.821 140.366 155.614 138.828 155.623 136.613C155.614 134.398 153.821 132.86 151.334 132.869ZM146.289 142.748L146.5 144.137C149.312 144.137 153.136 144.119 156.695 143.434L156.572 142.221C153.127 142.722 149.154 142.748 146.289 142.748ZM148.697 136.613C148.68 135.233 149.805 134.311 151.334 134.311C152.863 134.311 153.988 135.233 153.988 136.613C153.988 138.011 152.863 138.916 151.334 138.916C149.805 138.916 148.68 138.011 148.697 136.613ZM157.557 147.529H159.227V131.744H157.557V147.529ZM171.32 132.465C168.956 132.456 167.251 133.783 167.26 135.734C167.251 137.668 168.956 139.004 171.32 138.986C173.693 139.004 175.407 137.668 175.416 135.734C175.407 133.783 173.693 132.456 171.32 132.465ZM166.135 140.217L166.363 141.605C167.611 141.597 169.053 141.588 170.582 141.518V147.002H172.252V141.421C173.702 141.324 175.188 141.157 176.629 140.885L176.506 139.637C173.061 140.155 169.044 140.217 166.135 140.217ZM168.877 135.734C168.859 134.583 169.888 133.81 171.32 133.818C172.788 133.81 173.816 134.583 173.816 135.734C173.816 136.877 172.788 137.633 171.32 137.615C169.888 137.633 168.859 136.877 168.877 135.734ZM177.596 147.494H179.248V131.762H177.596V147.494ZM194.752 131.744H193.082V147.494H194.752V131.744ZM181.938 143.188L182.869 144.471C184.697 143.645 186.13 141.896 186.842 139.786C187.571 141.772 189.013 143.416 190.832 144.207L191.746 142.924C189.294 141.887 187.642 139.32 187.633 136.807V135.77H191.166V134.434H187.633V132.061H185.98V134.434H182.412V135.77H185.998V136.807C185.989 139.443 184.372 142.098 181.938 143.188ZM211.662 138.969H197.248V140.252H211.662V138.969ZM198.953 142.555H208.234V143.715H198.971V147.301H210.379V146.123H200.641V144.822H209.887V141.359H198.953V142.555ZM199.059 133.326H208.182V134.451H199.094V137.932H210.115V136.754H200.746V135.559H209.852V132.148H199.059V133.326ZM230.277 131.762H228.607V143.205H230.277V131.762ZM217.533 136.719C217.542 139.03 219.353 140.639 221.734 140.639C224.107 140.639 225.918 139.03 225.918 136.719C225.918 134.442 224.107 132.825 221.734 132.816C219.353 132.825 217.542 134.442 217.533 136.719ZM219.168 136.719C219.159 135.269 220.267 134.275 221.734 134.275C223.176 134.275 224.283 135.269 224.283 136.719C224.283 138.204 223.176 139.18 221.734 139.18C220.267 139.18 219.159 138.204 219.168 136.719ZM219.977 147.16H230.752V145.807H221.664V142.045H219.977V147.16ZM238.504 134.012V132.5H236.799V134.012C236.79 136.262 235.313 138.397 232.861 139.268L233.705 140.568C235.568 139.9 236.957 138.503 237.66 136.745C238.372 138.389 239.734 139.672 241.562 140.305L242.406 138.986C239.972 138.187 238.495 136.191 238.504 134.012ZM235.164 143.311H244.164V147.494H245.834V141.957H235.164V143.311ZM244.164 141.201H245.834V131.744H244.164V141.201ZM262.691 139.039H248.33V140.393H254.676V141.904C251.749 142.054 250.035 143.029 250.035 144.682C250.035 146.466 252.074 147.468 255.502 147.459C258.886 147.468 260.925 146.466 260.934 144.682C260.925 143.029 259.211 142.062 256.328 141.904V140.393H262.691V139.039ZM249.086 136.895L249.666 138.213C252.399 137.896 254.641 136.745 255.511 135.075C256.363 136.745 258.622 137.896 261.355 138.213L261.953 136.895C259.07 136.604 256.855 135.33 256.627 133.801H261.408V132.465H249.648V133.801H254.377C254.148 135.321 251.916 136.604 249.086 136.895ZM251.723 144.682C251.714 143.706 253.094 143.179 255.502 143.17C257.875 143.179 259.264 143.706 259.264 144.682C259.264 145.64 257.875 146.193 255.502 146.176C253.094 146.193 251.714 145.64 251.723 144.682ZM276.93 131.744H275.26V147.529H276.93V131.744ZM264.432 138.441C264.432 141.843 266.128 143.987 268.51 143.979C270.848 143.987 272.57 141.843 272.57 138.441C272.57 135.075 270.848 132.931 268.51 132.922C266.128 132.931 264.432 135.075 264.432 138.441ZM266.049 138.441C266.04 135.972 267.042 134.425 268.51 134.416C269.951 134.425 270.953 135.972 270.953 138.441C270.953 140.946 269.951 142.484 268.51 142.484C267.042 142.484 266.04 140.946 266.049 138.441ZM292.996 131.744H291.396V147.494H292.996V131.744ZM279.619 138.547C279.619 141.966 280.955 144.11 283.012 144.102C284.963 144.11 286.272 142.203 286.422 139.127H288.197V146.721H289.797V132.043H288.197V137.773H286.413C286.22 134.82 284.928 133.001 283.012 133.01C280.955 133.001 279.619 135.137 279.619 138.547ZM281.166 138.547C281.166 136.033 281.878 134.565 283.012 134.574C284.172 134.565 284.893 136.033 284.893 138.547C284.893 141.052 284.172 142.528 283.012 142.52C281.878 142.528 281.166 141.052 281.166 138.547ZM309.414 144.137H305.969V139.988C307.234 139.276 307.99 138.16 307.99 136.771C307.99 134.293 305.556 132.667 302.172 132.658C298.797 132.667 296.362 134.293 296.371 136.771C296.362 138.187 297.153 139.312 298.445 140.023V144.137H295V145.525H309.414V144.137ZM297.988 136.771C297.988 135.075 299.702 133.994 302.172 133.994C304.624 133.994 306.364 135.075 306.373 136.771C306.364 138.459 304.624 139.558 302.172 139.566C299.702 139.558 297.988 138.459 297.988 136.771ZM300.098 144.137V140.639C300.73 140.788 301.434 140.867 302.172 140.867C302.928 140.867 303.64 140.788 304.281 140.639V144.137H300.098ZM312.35 146.123C313.026 146.114 313.589 145.561 313.598 144.875C313.589 144.189 313.026 143.627 312.35 143.627C311.664 143.627 311.093 144.189 311.102 144.875C311.093 145.561 311.664 146.114 312.35 146.123ZM93.0098 156.744H91.4277V168.557H93.0098V156.744ZM79.5449 165.076L80.4766 166.359C81.9531 165.656 82.9902 164.338 83.5615 162.826C84.0889 164.188 85.0557 165.313 86.4531 165.955L87.3848 164.672C85.3721 163.793 84.3438 161.93 84.3438 160.084V157.834H82.7266V160.084C82.7354 161.947 81.6191 164.092 79.5449 165.076ZM82.5684 172.16H93.4668V170.807H84.2207V167.115H82.5684V172.16ZM85.9785 161.982H88.2812V168.1H89.8809V157.025H88.2812V160.611H85.9785V161.982ZM100.814 160.752V158.062H99.127V160.752C99.1182 163.67 97.4922 166.702 95.0488 167.871L96.1035 169.225C97.9229 168.284 99.2939 166.368 99.9883 164.101C100.683 166.254 102.036 168.029 103.82 168.926L104.84 167.59C102.432 166.509 100.814 163.635 100.814 160.752ZM103.1 163.336H106.615V172.529H108.268V156.744H106.615V161.982H103.1V163.336ZM128.641 156.744H127.041V163.002H125.178V157.061H123.596V171.686H125.178V164.373H127.041V172.494H128.641V156.744ZM114.912 167.291L115.105 168.697C117.136 168.697 120.432 168.627 122.91 168.152L122.822 166.922C122.348 166.983 121.838 167.036 121.311 167.089V160.031H122.559V158.66H115.246V160.031H116.494V167.282C115.914 167.291 115.378 167.291 114.912 167.291ZM118.023 167.256V160.031H119.781V167.186C119.192 167.221 118.604 167.238 118.023 167.256ZM143.688 156.744H142.018V172.494H143.688V156.744ZM130.873 168.188L131.805 169.471C133.633 168.645 135.065 166.896 135.777 164.786C136.507 166.772 137.948 168.416 139.768 169.207L140.682 167.924C138.229 166.887 136.577 164.32 136.568 161.807V160.77H140.102V159.434H136.568V157.061H134.916V159.434H131.348V160.77H134.934V161.807C134.925 164.443 133.308 167.098 130.873 168.188ZM158.471 156.744H156.801V172.477H158.471V164.408H160.914V163.02H158.471V156.744ZM146.219 168.275L147.15 169.576C152.336 167.019 154.34 162.949 154.357 158.396H147.01V159.785H152.652C152.31 163.459 150.165 166.307 146.219 168.275ZM179.283 156.744H177.613V160.752H174.678V162.123H177.613V166.113H179.283V156.744ZM166.152 164.689L167.031 166.025C168.912 165.331 170.292 163.916 170.978 162.158C171.663 163.714 172.964 164.979 174.73 165.586L175.592 164.268C173.21 163.459 171.786 161.517 171.795 159.521V159.188H175.17V157.834H166.68V159.188H170.09V159.539C170.099 161.71 168.596 163.837 166.152 164.689ZM168.684 169.523C168.675 171.396 170.696 172.485 174.01 172.494C177.306 172.485 179.327 171.396 179.336 169.523C179.327 167.651 177.306 166.562 174.01 166.553C170.696 166.562 168.675 167.651 168.684 169.523ZM170.336 169.523C170.327 168.451 171.698 167.845 174.01 167.854C176.304 167.845 177.675 168.451 177.684 169.523C177.675 170.587 176.304 171.193 174.01 171.176C171.698 171.193 170.327 170.587 170.336 169.523ZM194.102 156.762H192.432V167.361H194.102V162.809H196.352V161.438H194.102V156.762ZM181.604 165.604L181.779 166.939C184.557 166.939 188.292 166.913 191.676 166.324L191.535 165.129C190.217 165.322 188.793 165.437 187.387 165.507V164.505C189.162 164.294 190.278 163.45 190.287 162.193C190.278 160.752 188.802 159.855 186.543 159.873C184.284 159.855 182.781 160.752 182.799 162.193C182.781 163.459 183.924 164.303 185.717 164.505V165.568C184.24 165.604 182.825 165.604 181.604 165.604ZM182.008 159.346H191.096V158.098H187.387V156.621H185.717V158.098H182.008V159.346ZM183.572 169.4H192.432V172.494H194.102V168.1H183.572V169.4ZM184.381 162.193C184.381 161.438 185.198 160.998 186.543 161.016C187.87 160.998 188.696 161.438 188.688 162.193C188.696 162.932 187.87 163.415 186.543 163.406C185.198 163.415 184.381 162.932 184.381 162.193ZM209.641 156.762H207.971V168.539H209.641V163.213H211.926V161.824H209.641V156.762ZM197.283 159.943H206.67V158.59H202.82V156.744H201.15V158.59H197.283V159.943ZM198.145 163.67C198.136 165.454 199.691 166.614 201.977 166.623C204.235 166.614 205.791 165.454 205.791 163.67C205.791 161.868 204.235 160.69 201.977 160.699C199.691 160.69 198.136 161.868 198.145 163.67ZM199.656 172.16H210.309V170.807H201.326V167.607H199.656V172.16ZM199.762 163.67C199.744 162.633 200.641 161.991 201.977 161.982C203.312 161.991 204.209 162.633 204.227 163.67C204.209 164.698 203.312 165.331 201.977 165.322C200.641 165.331 199.744 164.698 199.762 163.67ZM222.385 157.465C220.021 157.456 218.315 158.783 218.324 160.734C218.315 162.668 220.021 164.004 222.385 163.986C224.758 164.004 226.472 162.668 226.48 160.734C226.472 158.783 224.758 157.456 222.385 157.465ZM217.199 165.217L217.428 166.605C218.676 166.597 220.117 166.588 221.646 166.518V172.002H223.316V166.421C224.767 166.324 226.252 166.157 227.693 165.885L227.57 164.637C224.125 165.155 220.108 165.217 217.199 165.217ZM219.941 160.734C219.924 159.583 220.952 158.81 222.385 158.818C223.853 158.81 224.881 159.583 224.881 160.734C224.881 161.877 223.853 162.633 222.385 162.615C220.952 162.633 219.924 161.877 219.941 160.734ZM228.66 172.494H230.312V156.762H228.66V172.494ZM245.816 156.744H244.146V172.494H245.816V156.744ZM233.002 168.188L233.934 169.471C235.762 168.645 237.194 166.896 237.906 164.786C238.636 166.772 240.077 168.416 241.896 169.207L242.811 167.924C240.358 166.887 238.706 164.32 238.697 161.807V160.77H242.23V159.434H238.697V157.061H237.045V159.434H233.477V160.77H237.062V161.807C237.054 164.443 235.437 167.098 233.002 168.188ZM261.883 156.744H260.283V172.494H261.883V156.744ZM248.506 163.547C248.506 166.966 249.842 169.11 251.898 169.102C253.85 169.11 255.159 167.203 255.309 164.127H257.084V171.721H258.684V157.043H257.084V162.773H255.3C255.106 159.82 253.814 158.001 251.898 158.01C249.842 158.001 248.506 160.137 248.506 163.547ZM250.053 163.547C250.053 161.033 250.765 159.565 251.898 159.574C253.059 159.565 253.779 161.033 253.779 163.547C253.779 166.052 253.059 167.528 251.898 167.52C250.765 167.528 250.053 166.052 250.053 163.547ZM282.678 166.008H268.264V167.326H274.609V172.494H276.244V167.326H282.678V166.008ZM270.057 164.215H280.867V157.377H279.197V159.434H271.709V157.377H270.057V164.215ZM271.709 162.879V160.77H279.197V162.879H271.709ZM289.357 160.154V159.926H292.785V158.59H289.375V156.691H287.705V158.59H284.277V159.926H287.705V160.154C287.705 162.167 286.229 164.03 283.82 164.76L284.646 166.061C286.492 165.472 287.863 164.224 288.558 162.624C289.252 164.083 290.597 165.234 292.398 165.779L293.189 164.443C290.781 163.767 289.357 162.009 289.357 160.154ZM285.807 168.486H294.543V172.512H296.213V167.133H285.807V168.486ZM294.543 166.377H296.213V162.264H298.498V160.84H296.213V156.744H294.543V166.377ZM308.781 163.406H302.277V159.557H308.711V158.203H300.625V164.777H303.789V167.757C302.277 167.792 300.81 167.801 299.482 167.801L299.693 169.189C302.69 169.181 306.417 169.128 309.889 168.609L309.766 167.379C308.386 167.537 306.918 167.634 305.459 167.695V164.777H308.781V163.406ZM310.75 172.529H312.42V156.744H310.75V172.529ZM322.984 158.08H315.672V165.533H322.984V164.162H326.412V168.24H328.082V156.762H326.412V159.416H322.984V158.08ZM317.324 164.215V159.434H321.35V164.215H317.324ZM317.799 172.16H328.434V170.807H319.486V167.186H317.799V172.16ZM322.984 162.791V160.787H326.412V162.791H322.984ZM136.015 182.693C132.719 182.693 130.205 184.442 130.214 187.088C130.205 189.751 132.719 191.491 136.015 191.482C139.319 191.491 141.833 189.751 141.833 187.088C141.833 184.442 139.319 182.693 136.015 182.693ZM128.843 195.455H143.257V194.066H128.843V195.455ZM131.813 187.088C131.805 185.26 133.598 184.038 136.015 184.047C138.423 184.038 140.207 185.26 140.216 187.088C140.207 188.925 138.423 190.111 136.015 190.111C133.598 190.111 131.805 188.925 131.813 187.088ZM158.813 194.207H152.397V191.447H157.425V190.076H147.81V187.773H157.056V182.852H146.122V184.223H155.403V186.438H146.157V191.447H150.745V194.207H144.399V195.613H158.813V194.207ZM176.743 181.744H175.073V191.025H176.743V187.088H178.993V185.664H176.743V181.744ZM164.245 189.531L164.421 190.727C167.189 190.727 170.934 190.7 174.317 190.146L174.177 189.057C172.858 189.241 171.435 189.355 170.028 189.417V188.6C171.812 188.424 172.92 187.694 172.929 186.525C172.92 185.242 171.452 184.486 169.185 184.486C166.899 184.486 165.423 185.242 165.44 186.525C165.423 187.703 166.548 188.433 168.358 188.6V189.487C166.882 189.522 165.467 189.531 164.245 189.531ZM164.649 184.029H173.737V182.869H170.028V181.604H168.358V182.869H164.649V184.029ZM166.337 192.854H175.091V193.908H166.372V197.336H177.323V196.176H168.042V194.98H176.743V191.693H166.337V192.854ZM167.022 186.525C167.022 185.919 167.84 185.576 169.185 185.576C170.512 185.576 171.338 185.919 171.329 186.525C171.338 187.158 170.512 187.545 169.185 187.545C167.84 187.545 167.022 187.158 167.022 186.525ZM185.497 184.1V182.623H183.845V184.17C183.827 186.534 182.368 188.635 179.854 189.496L180.751 190.832C182.658 190.146 184.029 188.731 184.706 186.93C185.392 188.512 186.666 189.725 188.397 190.357L189.312 189.057C186.921 188.274 185.488 186.306 185.497 184.1ZM182.438 194.488C182.43 196.387 184.451 197.468 187.765 197.459C191.061 197.468 193.082 196.387 193.091 194.488C193.082 192.581 191.061 191.474 187.765 191.482C184.451 191.474 182.43 192.581 182.438 194.488ZM184.091 194.488C184.082 193.407 185.453 192.783 187.765 192.783C190.059 192.783 191.43 193.407 191.438 194.488C191.43 195.534 190.059 196.149 187.765 196.141C185.453 196.149 184.082 195.534 184.091 194.488ZM188.046 186.314H191.368V191.043H193.038V181.744H191.368V184.943H188.046V186.314ZM207.804 181.744H206.134V197.494H207.804V189.742H210.177V188.336H207.804V181.744ZM195.271 193.205L195.534 194.594C198.25 194.603 201.933 194.567 205.343 193.961L205.237 192.73C203.928 192.915 202.521 193.029 201.124 193.1V191.562C202.908 191.307 204.086 190.226 204.095 188.705C204.086 186.93 202.53 185.761 200.298 185.752C198.057 185.761 196.519 186.93 196.536 188.705C196.519 190.226 197.679 191.298 199.454 191.562V193.161C197.951 193.205 196.51 193.205 195.271 193.205ZM195.569 184.943H205.009V183.607H201.124V181.779H199.454V183.607H195.569V184.943ZM198.101 188.705C198.101 187.694 198.979 187.053 200.298 187.053C201.616 187.053 202.486 187.694 202.495 188.705C202.486 189.707 201.616 190.331 200.298 190.322C198.979 190.331 198.101 189.707 198.101 188.705ZM228.511 181.762H226.823V190.832H228.511V181.762ZM215.45 189.162L215.696 190.516C218.518 190.498 222.306 190.445 225.716 189.865L225.628 188.688C224.31 188.863 222.895 188.969 221.497 189.039V187.562H224.521V186.244H218.526V183.871H224.38V182.5H216.856V187.562H219.845V189.109C218.271 189.153 216.76 189.162 215.45 189.162ZM217.999 197.301H228.511V191.518H226.858V193.029H219.669V191.518H217.999V197.301ZM219.669 195.947V194.312H226.858V195.947H219.669ZM244.05 181.744H242.38V197.494H244.05V181.744ZM231.938 193.486H233.257C235.744 193.495 238.275 193.302 241.062 192.73L240.833 191.324C238.311 191.834 235.894 192.036 233.591 192.045V183.273H231.938V193.486ZM258.798 181.744H257.128V197.529H258.798V189.215H261.329V187.844H258.798V181.744ZM247.196 193.609H248.462C251.389 193.618 253.48 193.539 255.95 193.1L255.739 191.693C253.489 192.098 251.512 192.212 248.866 192.221V184.609H254.562V183.256H247.196V193.609ZM263.878 196.123C264.555 196.114 265.117 195.561 265.126 194.875C265.117 194.189 264.555 193.627 263.878 193.627C263.192 193.627 262.621 194.189 262.63 194.875C262.621 195.561 263.192 196.114 263.878 196.123Z" fill="#6662A8"/>
<path d="M89.1309 182.381H79.7051V184.273H81.208V191.89C80.5308 191.899 79.8813 191.899 79.2783 191.899L79.5381 193.829C82.4419 193.811 86.3013 193.746 89.7617 193.143L89.6318 191.436C88.9824 191.519 88.3145 191.584 87.6279 191.64V184.273H89.1309V182.381ZM83.4902 191.853V184.273H85.3457V191.779C84.7241 191.807 84.1025 191.834 83.4902 191.853ZM90.4482 197.707H92.8232V189.172H95.3096V187.242H92.8232V180.822H90.4482V197.707ZM109.318 180.841H106.943V193.272H109.318V187.669H111.601V185.684H109.318V180.841ZM96.5156 183.754H101.971V185.368H96.5342V190.842H97.9629C101.386 190.842 103.557 190.777 105.979 190.322L105.719 188.411C103.566 188.801 101.674 188.921 98.8906 188.931V187.149H104.271V181.861H96.5156V183.754ZM98.4268 197.41H109.968V195.518H100.82V192.271H98.4268V197.41ZM117.742 183.754V181.806H115.441V183.754C115.441 185.665 114.486 187.762 112.102 188.782L113.363 190.619C114.931 189.96 115.998 188.745 116.61 187.298C117.213 188.569 118.206 189.599 119.635 190.174L120.915 188.355C118.67 187.465 117.742 185.637 117.742 183.754ZM115.182 193.699H124.496V197.707H126.853V191.807H115.182V193.699ZM120.989 190.972H123.197V186.871H124.607V191.064H126.853V180.841H124.607V184.941H123.197V181.101H120.989V190.972Z" fill="#7AA9E7"/>
<path fill-rule="evenodd" clip-rule="evenodd" d="M245.744 297.999C245.744 318.986 228.731 335.999 207.745 335.999C186.758 335.999 169.745 318.986 169.745 297.999C169.745 277.013 186.758 260 207.745 260C228.731 260 245.744 277.013 245.744 297.999ZM199 511.856H212V691.5C212 706.136 223.864 718 238.5 718C253.136 718 265 706.136 265 691.5V419.5C265 418.152 264.899 416.827 264.705 415.532H273V515C273 524.941 281.059 533 291 533C300.941 533 309 524.941 309 515L309 415.532L309 411L309 408C309 372.654 280.346 344 245 344H231.321C230.727 343.968 230.13 343.952 229.529 343.952H181.531C180.929 343.952 180.332 343.968 179.738 344H166C130.654 344 102 372.654 102 408L102 410.965C102 410.977 102 410.988 102 411V515C102 524.941 110.059 533 120 533C129.941 533 138 524.941 138 515V415.532H146.295C146.101 416.827 146 418.152 146 419.5V691.5C146 706.136 157.864 718 172.5 718C187.136 718 199 706.136 199 691.5V511.856Z" fill="#F3EFFF"/>
<path d="M206.09 367.621V470.121" stroke="#7AA9E7" stroke-width="3" stroke-linecap="round" stroke-linejoin="round"/>
<path d="M174.59 580.121L165.09 493.621" stroke="#7AA9E7" stroke-width="3" stroke-linecap="round" stroke-linejoin="round"/>
<path d="M247.59 493.621L238.09 580.121" stroke="#7AA9E7" stroke-width="3" stroke-linecap="round" stroke-linejoin="round"/>
<path d="M271.59 377.621L289.59 429.621M121.59 429.621L139.59 377.621" stroke="#7AA9E7" stroke-width="3" stroke-linecap="round" stroke-linejoin="round"/>
<path d="M172.09 354.621H238.59" stroke="#7AA9E7" stroke-width="3" stroke-linecap="round" stroke-linejoin="round"/>
<path fill-rule="evenodd" clip-rule="evenodd" d="M164.228 466.994C168.58 465.191 172.539 469.159 172.539 473.87C172.539 476.138 174.378 477.977 176.647 477.977H188.087C189.839 477.977 191.423 477.023 192.555 475.686C195.785 471.872 200.61 469.45 206 469.45C211.39 469.45 216.214 471.872 219.445 475.686C220.577 477.023 222.161 477.977 223.913 477.977H234.176C236.444 477.977 238.283 476.138 238.283 473.87C238.283 469.16 242.242 465.192 246.594 466.994C249.229 468.086 251.624 469.686 253.641 471.702C255.657 473.719 257.257 476.114 258.349 478.749C259.44 481.384 260.002 484.208 260.002 487.06C260.002 489.912 259.44 492.737 258.349 495.372C257.257 498.007 255.657 500.401 253.641 502.418C251.624 504.435 249.229 506.035 246.594 507.126C242.242 508.929 238.283 504.961 238.283 500.25C238.283 497.562 236.103 495.382 233.415 495.382H224.513C222.672 495.382 221.025 496.432 219.892 497.884C216.67 502.014 211.645 504.67 206 504.67C200.355 504.67 195.33 502.014 192.108 497.884C190.975 496.432 189.328 495.382 187.486 495.382H177.407C174.719 495.382 172.539 497.561 172.539 500.25C172.539 504.96 168.58 508.928 164.228 507.126C161.593 506.034 159.198 504.434 157.182 502.418C155.165 500.401 153.565 498.006 152.474 495.371C151.382 492.736 150.82 489.912 150.82 487.06C150.82 484.208 151.382 481.383 152.474 478.748C153.565 476.113 155.165 473.719 157.182 471.702C159.198 469.685 161.593 468.086 164.228 466.994Z" fill="#7AA9E7"/>
<g filter="url(#filter0_d_685_14865)">
<ellipse cx="248.627" cy="487.43" rx="8.225" ry="8.225" transform="rotate(90 248.627 487.43)" fill="#7AA9E7"/>
</g>
<g filter="url(#filter1_d_685_14865)">
<ellipse cx="164.106" cy="487.431" rx="8.22559" ry="8.22559" transform="rotate(90 164.106 487.431)" fill="#7AA9E7"/>
</g>
<path d="M161.689 492H167.104V490.547H163.447V483.516H161.689V492Z" fill="white"/>
<path d="M245.174 492H246.932V488.988H248.273L249.896 492H251.842L250.037 488.701C251.004 488.285 251.537 487.441 251.537 486.281C251.537 484.6 250.43 483.516 248.502 483.516H245.174V492ZM246.932 487.559V484.957H248.174C249.217 484.963 249.727 485.426 249.721 486.281C249.727 487.131 249.217 487.559 248.174 487.559H246.932Z" fill="white"/>
<g filter="url(#filter2_d_685_14865)">
<ellipse cx="205.868" cy="487.431" rx="8.22559" ry="8.22559" transform="rotate(90 205.868 487.431)" fill="#7AA9E7"/>
</g>
<g filter="url(#filter3_d_685_14865)">
<ellipse cx="237" cy="585.14" rx="21" ry="21" transform="rotate(90 237 585.14)" fill="#7AA9E7"/>
<g filter="url(#filter4_d_685_14865)">
<circle cx="236.922" cy="585.625" r="9.5" transform="rotate(90 236.922 585.625)" fill="#7AA9E7"/>
</g>
<path d="M233.436 590.117C235.352 590.117 236.729 589.074 236.717 587.621C236.729 586.561 236.043 585.805 234.795 585.652V585.582C235.744 585.412 236.406 584.738 236.4 583.789C236.406 582.447 235.229 581.398 233.459 581.398C231.719 581.398 230.406 582.412 230.377 583.871H232.064C232.094 583.221 232.709 582.799 233.459 582.805C234.209 582.799 234.707 583.244 234.701 583.895C234.707 584.562 234.121 585.02 233.283 585.02H232.498V586.32H233.283C234.279 586.326 234.895 586.812 234.889 587.504C234.895 588.189 234.291 588.658 233.447 588.664C232.627 588.658 232.012 588.242 231.982 587.609H230.201C230.236 589.092 231.572 590.117 233.436 590.117ZM238.006 590H239.764V586.988H241.105L242.729 590H244.674L242.869 586.701C243.836 586.285 244.369 585.441 244.369 584.281C244.369 582.6 243.262 581.516 241.334 581.516H238.006V590ZM239.764 585.559V582.957H241.006C242.049 582.963 242.559 583.426 242.553 584.281C242.559 585.131 242.049 585.559 241.006 585.559H239.764Z" fill="white"/>
</g>
<ellipse cx="173" cy="585.14" rx="21" ry="21" transform="rotate(90 173 585.14)" fill="#7AA9E7"/>
<g filter="url(#filter5_d_685_14865)">
<circle cx="173.473" cy="584.054" r="9.5" transform="rotate(90 173.473 584.054)" fill="#7AA9E7"/>
</g>
<path d="M169.951 588.117C171.867 588.117 173.244 587.074 173.232 585.621C173.244 584.561 172.559 583.805 171.311 583.652V583.582C172.26 583.412 172.922 582.738 172.916 581.789C172.922 580.447 171.744 579.398 169.975 579.398C168.234 579.398 166.922 580.412 166.893 581.871H168.58C168.609 581.221 169.225 580.799 169.975 580.805C170.725 580.799 171.223 581.244 171.217 581.895C171.223 582.562 170.637 583.02 169.799 583.02H169.014V584.32H169.799C170.795 584.326 171.41 584.812 171.404 585.504C171.41 586.189 170.807 586.658 169.963 586.664C169.143 586.658 168.527 586.242 168.498 585.609H166.717C166.752 587.092 168.088 588.117 169.951 588.117ZM174.521 588H179.936V586.547H176.279V579.516H174.521V588Z" fill="white"/>
<ellipse cx="118" cy="451" rx="21" ry="21" transform="rotate(90 118 451)" fill="#7AA9E7"/>
<g filter="url(#filter6_d_685_14865)">
<ellipse cx="118.069" cy="450.096" rx="8.68138" ry="8.90346" transform="rotate(90 118.069 450.096)" fill="#7AA9E7"/>
</g>
<path d="M111.98 453.86H118.051V452.407H114.43V452.36L115.719 451.106C117.465 449.524 117.934 448.733 117.934 447.767C117.934 446.296 116.727 445.259 114.91 445.259C113.123 445.259 111.893 446.319 111.898 447.978H113.574C113.568 447.163 114.09 446.659 114.887 446.665C115.666 446.659 116.234 447.128 116.234 447.884C116.234 448.558 115.807 449.026 115.016 449.782L111.969 452.583L111.98 453.86ZM119.352 453.86H124.766V452.407H121.109V445.376H119.352V453.86Z" fill="white"/>
<ellipse cx="151" cy="360" rx="21" ry="21" transform="rotate(90 151 360)" fill="#7AA9E7"/>
<g filter="url(#filter7_d_685_14865)">
<circle cx="150.922" cy="359.485" r="9.5" transform="rotate(90 150.922 359.485)" fill="#7AA9E7"/>
</g>
<path d="M149.486 354.376H147.822L145.725 355.712V357.271L147.67 356.052H147.717V362.86H149.486V354.376ZM151.502 362.86H156.916V361.407H153.26V354.376H151.502V362.86Z" fill="white"/>
<ellipse cx="260" cy="359" rx="21" ry="21" transform="rotate(90 260 359)" fill="#7AA9E7"/>
<g filter="url(#filter8_d_685_14865)">
<circle cx="259.922" cy="359.485" r="9.5" transform="rotate(90 259.922 359.485)" fill="#7AA9E7"/>
</g>
<path d="M257.971 354.376H256.307L254.209 355.712V357.271L256.154 356.052H256.201V362.86H257.971V354.376ZM259.986 362.86H261.744V359.849H263.086L264.709 362.86H266.654L264.85 359.562C265.816 359.146 266.35 358.302 266.35 357.142C266.35 355.46 265.242 354.376 263.314 354.376H259.986V362.86ZM261.744 358.419V355.817H262.986C264.029 355.823 264.539 356.286 264.533 357.142C264.539 357.991 264.029 358.419 262.986 358.419H261.744Z" fill="white"/>
<ellipse cx="206" cy="420.621" rx="21" ry="21" transform="rotate(90 206 420.621)" fill="#7AA9E7"/>
<g filter="url(#filter9_d_685_14865)">
<circle cx="206.473" cy="420.536" r="9.5" transform="rotate(90 206.473 420.536)" fill="#7AA9E7"/>
</g>
<circle cx="291" cy="450" r="21" transform="rotate(90 291 450)" fill="#7AA9E7"/>
<g filter="url(#filter10_d_685_14865)">
<circle cx="291.371" cy="449.764" r="9.5" transform="rotate(90 291.371 449.764)" fill="#7AA9E7"/>
</g>
<path d="M284.465 453.86H290.535V452.407H286.914V452.36L288.203 451.106C289.949 449.524 290.418 448.733 290.418 447.767C290.418 446.296 289.211 445.259 287.395 445.259C285.607 445.259 284.377 446.319 284.383 447.978H286.059C286.053 447.163 286.574 446.659 287.371 446.665C288.15 446.659 288.719 447.128 288.719 447.884C288.719 448.558 288.291 449.026 287.5 449.782L284.453 452.583L284.465 453.86ZM291.836 453.86H293.594V450.849H294.936L296.559 453.86H298.504L296.699 450.562C297.666 450.146 298.199 449.302 298.199 448.142C298.199 446.46 297.092 445.376 295.164 445.376H291.836V453.86ZM293.594 449.419V446.817H294.836C295.879 446.823 296.389 447.286 296.383 448.142C296.389 448.991 295.879 449.419 294.836 449.419H293.594Z" fill="white"/>
<rect x="195" y="323.621" width="22.3008" height="52.7933" rx="11.1504" fill="#7AA9E7"/>
<g filter="url(#filter11_d_685_14865)">
<rect width="11.4883" height="29.6962" rx="5.74414" transform="matrix(-1 0 0 1 211.902 335.17)" fill="#7AA9E7"/>
</g>
<path fill-rule="evenodd" clip-rule="evenodd" d="M203.469 349.742L206.5 345.242L209.531 349.742H208V356.242H205V349.742H203.469Z" fill="white"/>
<path fill-rule="evenodd" clip-rule="evenodd" d="M209.063 422.742L206.031 427.242L203 422.742L204.531 422.742L204.531 416.242L207.531 416.242L207.531 422.742L209.063 422.742Z" fill="white"/>
<defs>
<filter id="filter0_d_685_14865" x="236.402" y="475.205" width="24.4492" height="24.45" filterUnits="userSpaceOnUse" color-interpolation-filters="sRGB">
<feFlood flood-opacity="0" result="BackgroundImageFix"/>
<feColorMatrix in="SourceAlpha" type="matrix" values="0 0 0 0 0 0 0 0 0 0 0 0 0 0 0 0 0 0 127 0" result="hardAlpha"/>
<feMorphology radius="1" operator="dilate" in="SourceAlpha" result="effect1_dropShadow_685_14865"/>
<feOffset/>
<feGaussianBlur stdDeviation="1.5"/>
<feComposite in2="hardAlpha" operator="out"/>
<feColorMatrix type="matrix" values="0 0 0 0 0 0 0 0 0 0 0 0 0 0 0 0 0 0 0.3 0"/>
<feBlend mode="normal" in2="BackgroundImageFix" result="effect1_dropShadow_685_14865"/>
<feBlend mode="normal" in="SourceGraphic" in2="effect1_dropShadow_685_14865" result="shape"/>
</filter>
<filter id="filter1_d_685_14865" x="151.879" y="475.205" width="24.4531" height="24.4512" filterUnits="userSpaceOnUse" color-interpolation-filters="sRGB">
<feFlood flood-opacity="0" result="BackgroundImageFix"/>
<feColorMatrix in="SourceAlpha" type="matrix" values="0 0 0 0 0 0 0 0 0 0 0 0 0 0 0 0 0 0 127 0" result="hardAlpha"/>
<feMorphology radius="1" operator="dilate" in="SourceAlpha" result="effect1_dropShadow_685_14865"/>
<feOffset/>
<feGaussianBlur stdDeviation="1.5"/>
<feComposite in2="hardAlpha" operator="out"/>
<feColorMatrix type="matrix" values="0 0 0 0 0 0 0 0 0 0 0 0 0 0 0 0 0 0 0.3 0"/>
<feBlend mode="normal" in2="BackgroundImageFix" result="effect1_dropShadow_685_14865"/>
<feBlend mode="normal" in="SourceGraphic" in2="effect1_dropShadow_685_14865" result="shape"/>
</filter>
<filter id="filter2_d_685_14865" x="193.641" y="475.205" width="24.4531" height="24.4512" filterUnits="userSpaceOnUse" color-interpolation-filters="sRGB">
<feFlood flood-opacity="0" result="BackgroundImageFix"/>
<feColorMatrix in="SourceAlpha" type="matrix" values="0 0 0 0 0 0 0 0 0 0 0 0 0 0 0 0 0 0 127 0" result="hardAlpha"/>
<feMorphology radius="1" operator="dilate" in="SourceAlpha" result="effect1_dropShadow_685_14865"/>
<feOffset/>
<feGaussianBlur stdDeviation="1.5"/>
<feComposite in2="hardAlpha" operator="out"/>
<feColorMatrix type="matrix" values="0 0 0 0 0 0 0 0 0 0 0 0 0 0 0 0 0 0 0.3 0"/>
<feBlend mode="normal" in2="BackgroundImageFix" result="effect1_dropShadow_685_14865"/>
<feBlend mode="normal" in="SourceGraphic" in2="effect1_dropShadow_685_14865" result="shape"/>
</filter>
<filter id="filter3_d_685_14865" x="212" y="560.14" width="50" height="50" filterUnits="userSpaceOnUse" color-interpolation-filters="sRGB">
<feFlood flood-opacity="0" result="BackgroundImageFix"/>
<feColorMatrix in="SourceAlpha" type="matrix" values="0 0 0 0 0 0 0 0 0 0 0 0 0 0 0 0 0 0 127 0" result="hardAlpha"/>
<feMorphology radius="1" operator="dilate" in="SourceAlpha" result="effect1_dropShadow_685_14865"/>
<feOffset/>
<feGaussianBlur stdDeviation="1.5"/>
<feComposite in2="hardAlpha" operator="out"/>
<feColorMatrix type="matrix" values="0 0 0 0 0 0 0 0 0 0 0 0 0 0 0 0 0 0 0.3 0"/>
<feBlend mode="normal" in2="BackgroundImageFix" result="effect1_dropShadow_685_14865"/>
<feBlend mode="normal" in="SourceGraphic" in2="effect1_dropShadow_685_14865" result="shape"/>
</filter>
<filter id="filter4_d_685_14865" x="223.422" y="572.125" width="27" height="27" filterUnits="userSpaceOnUse" color-interpolation-filters="sRGB">
<feFlood flood-opacity="0" result="BackgroundImageFix"/>
<feColorMatrix in="SourceAlpha" type="matrix" values="0 0 0 0 0 0 0 0 0 0 0 0 0 0 0 0 0 0 127 0" result="hardAlpha"/>
<feMorphology radius="1" operator="dilate" in="SourceAlpha" result="effect1_dropShadow_685_14865"/>
<feOffset/>
<feGaussianBlur stdDeviation="1.5"/>
<feComposite in2="hardAlpha" operator="out"/>
<feColorMatrix type="matrix" values="0 0 0 0 0 0 0 0 0 0 0 0 0 0 0 0 0 0 0.3 0"/>
<feBlend mode="normal" in2="BackgroundImageFix" result="effect1_dropShadow_685_14865"/>
<feBlend mode="normal" in="SourceGraphic" in2="effect1_dropShadow_685_14865" result="shape"/>
</filter>
<filter id="filter5_d_685_14865" x="159.973" y="570.554" width="27" height="27" filterUnits="userSpaceOnUse" color-interpolation-filters="sRGB">
<feFlood flood-opacity="0" result="BackgroundImageFix"/>
<feColorMatrix in="SourceAlpha" type="matrix" values="0 0 0 0 0 0 0 0 0 0 0 0 0 0 0 0 0 0 127 0" result="hardAlpha"/>
<feMorphology radius="1" operator="dilate" in="SourceAlpha" result="effect1_dropShadow_685_14865"/>
<feOffset/>
<feGaussianBlur stdDeviation="1.5"/>
<feComposite in2="hardAlpha" operator="out"/>
<feColorMatrix type="matrix" values="0 0 0 0 0 0 0 0 0 0 0 0 0 0 0 0 0 0 0.3 0"/>
<feBlend mode="normal" in2="BackgroundImageFix" result="effect1_dropShadow_685_14865"/>
<feBlend mode="normal" in="SourceGraphic" in2="effect1_dropShadow_685_14865" result="shape"/>
</filter>
<filter id="filter6_d_685_14865" x="105.164" y="437.415" width="25.8086" height="25.3628" filterUnits="userSpaceOnUse" color-interpolation-filters="sRGB">
<feFlood flood-opacity="0" result="BackgroundImageFix"/>
<feColorMatrix in="SourceAlpha" type="matrix" values="0 0 0 0 0 0 0 0 0 0 0 0 0 0 0 0 0 0 127 0" result="hardAlpha"/>
<feMorphology radius="1" operator="dilate" in="SourceAlpha" result="effect1_dropShadow_685_14865"/>
<feOffset/>
<feGaussianBlur stdDeviation="1.5"/>
<feComposite in2="hardAlpha" operator="out"/>
<feColorMatrix type="matrix" values="0 0 0 0 0 0 0 0 0 0 0 0 0 0 0 0 0 0 0.3 0"/>
<feBlend mode="normal" in2="BackgroundImageFix" result="effect1_dropShadow_685_14865"/>
<feBlend mode="normal" in="SourceGraphic" in2="effect1_dropShadow_685_14865" result="shape"/>
</filter>
<filter id="filter7_d_685_14865" x="137.422" y="345.985" width="27" height="27" filterUnits="userSpaceOnUse" color-interpolation-filters="sRGB">
<feFlood flood-opacity="0" result="BackgroundImageFix"/>
<feColorMatrix in="SourceAlpha" type="matrix" values="0 0 0 0 0 0 0 0 0 0 0 0 0 0 0 0 0 0 127 0" result="hardAlpha"/>
<feMorphology radius="1" operator="dilate" in="SourceAlpha" result="effect1_dropShadow_685_14865"/>
<feOffset/>
<feGaussianBlur stdDeviation="1.5"/>
<feComposite in2="hardAlpha" operator="out"/>
<feColorMatrix type="matrix" values="0 0 0 0 0 0 0 0 0 0 0 0 0 0 0 0 0 0 0.3 0"/>
<feBlend mode="normal" in2="BackgroundImageFix" result="effect1_dropShadow_685_14865"/>
<feBlend mode="normal" in="SourceGraphic" in2="effect1_dropShadow_685_14865" result="shape"/>
</filter>
<filter id="filter8_d_685_14865" x="246.422" y="345.985" width="27" height="27" filterUnits="userSpaceOnUse" color-interpolation-filters="sRGB">
<feFlood flood-opacity="0" result="BackgroundImageFix"/>
<feColorMatrix in="SourceAlpha" type="matrix" values="0 0 0 0 0 0 0 0 0 0 0 0 0 0 0 0 0 0 127 0" result="hardAlpha"/>
<feMorphology radius="1" operator="dilate" in="SourceAlpha" result="effect1_dropShadow_685_14865"/>
<feOffset/>
<feGaussianBlur stdDeviation="1.5"/>
<feComposite in2="hardAlpha" operator="out"/>
<feColorMatrix type="matrix" values="0 0 0 0 0 0 0 0 0 0 0 0 0 0 0 0 0 0 0.3 0"/>
<feBlend mode="normal" in2="BackgroundImageFix" result="effect1_dropShadow_685_14865"/>
<feBlend mode="normal" in="SourceGraphic" in2="effect1_dropShadow_685_14865" result="shape"/>
</filter>
<filter id="filter9_d_685_14865" x="192.973" y="407.036" width="27" height="27" filterUnits="userSpaceOnUse" color-interpolation-filters="sRGB">
<feFlood flood-opacity="0" result="BackgroundImageFix"/>
<feColorMatrix in="SourceAlpha" type="matrix" values="0 0 0 0 0 0 0 0 0 0 0 0 0 0 0 0 0 0 127 0" result="hardAlpha"/>
<feMorphology radius="1" operator="dilate" in="SourceAlpha" result="effect1_dropShadow_685_14865"/>
<feOffset/>
<feGaussianBlur stdDeviation="1.5"/>
<feComposite in2="hardAlpha" operator="out"/>
<feColorMatrix type="matrix" values="0 0 0 0 0 0 0 0 0 0 0 0 0 0 0 0 0 0 0.3 0"/>
<feBlend mode="normal" in2="BackgroundImageFix" result="effect1_dropShadow_685_14865"/>
<feBlend mode="normal" in="SourceGraphic" in2="effect1_dropShadow_685_14865" result="shape"/>
</filter>
<filter id="filter10_d_685_14865" x="277.871" y="436.264" width="27" height="27" filterUnits="userSpaceOnUse" color-interpolation-filters="sRGB">
<feFlood flood-opacity="0" result="BackgroundImageFix"/>
<feColorMatrix in="SourceAlpha" type="matrix" values="0 0 0 0 0 0 0 0 0 0 0 0 0 0 0 0 0 0 127 0" result="hardAlpha"/>
<feMorphology radius="1" operator="dilate" in="SourceAlpha" result="effect1_dropShadow_685_14865"/>
<feOffset/>
<feGaussianBlur stdDeviation="1.5"/>
<feComposite in2="hardAlpha" operator="out"/>
<feColorMatrix type="matrix" values="0 0 0 0 0 0 0 0 0 0 0 0 0 0 0 0 0 0 0.3 0"/>
<feBlend mode="normal" in2="BackgroundImageFix" result="effect1_dropShadow_685_14865"/>
<feBlend mode="normal" in="SourceGraphic" in2="effect1_dropShadow_685_14865" result="shape"/>
</filter>
<filter id="filter11_d_685_14865" x="195.414" y="330.17" width="21.4883" height="39.6963" filterUnits="userSpaceOnUse" color-interpolation-filters="sRGB">
<feFlood flood-opacity="0" result="BackgroundImageFix"/>
<feColorMatrix in="SourceAlpha" type="matrix" values="0 0 0 0 0 0 0 0 0 0 0 0 0 0 0 0 0 0 127 0" result="hardAlpha"/>
<feMorphology radius="1" operator="dilate" in="SourceAlpha" result="effect1_dropShadow_685_14865"/>
<feOffset/>
<feGaussianBlur stdDeviation="2"/>
<feComposite in2="hardAlpha" operator="out"/>
<feColorMatrix type="matrix" values="0 0 0 0 0 0 0 0 0 0 0 0 0 0 0 0 0 0 0.25 0"/>
<feBlend mode="normal" in2="BackgroundImageFix" result="effect1_dropShadow_685_14865"/>
<feBlend mode="normal" in="SourceGraphic" in2="effect1_dropShadow_685_14865" result="shape"/>
</filter>
</defs>
</svg>
