<svg width="414" height="896" viewBox="0 0 414 896" fill="none" xmlns="http://www.w3.org/2000/svg">
<rect width="414" height="896" fill="white"/>
<path d="M119.977 89.2773V87.6016H116.523V89.2773C116.498 92.6289 113.489 96.2598 108.348 97.1738L109.744 99.8652C113.743 99.0527 116.739 96.7676 118.263 93.835C119.761 96.793 122.744 99.0654 126.781 99.8652L128.203 97.1738C122.973 96.2852 119.964 92.667 119.977 89.2773ZM107.814 106.492H128.965V103.826H107.814V106.492ZM142.117 88.4141H131.021V103.699H142.117V88.4141ZM134.221 101.135V90.9531H138.893V101.135H134.221ZM145.266 109.336H148.516V97.6309H151.918V94.9395H148.516V86.2305H145.266V109.336ZM171.596 98.1641H158.545V95.5234H170.885V92.9844H158.545V90.5469H171.418V87.9316H155.244V100.729H171.596V98.1641ZM152.756 106.645H173.906V104.004H152.756V106.645ZM200.947 86.2559H197.646V101.795H192.949V104.232H197.646V109.336H200.947V86.2559ZM181.117 97.9609L181.523 100.602C183.161 100.602 184.989 100.589 186.906 100.525V108.65H190.182V100.36C192.238 100.221 194.32 99.9922 196.352 99.6367L196.174 97.2754C191.185 97.9355 185.446 97.9609 181.117 97.9609ZM182.742 91.918C182.729 94.7617 185.218 96.6406 188.684 96.6406C192.099 96.6406 194.612 94.7617 194.625 91.918C194.612 89.1377 192.099 87.1826 188.684 87.1699C185.218 87.1826 182.729 89.1377 182.742 91.918ZM185.789 91.918C185.776 90.5088 186.957 89.6328 188.684 89.6328C190.359 89.6328 191.527 90.5088 191.553 91.918C191.527 93.3652 190.347 94.1777 188.684 94.1777C186.957 94.1777 185.776 93.3652 185.789 91.918ZM223.012 86.2305H219.762V109.336H223.012V86.2305ZM203.816 102.531L205.543 105.02C208.234 103.89 210.126 101.528 211.154 98.7227C212.208 101.376 214.087 103.585 216.715 104.664L218.467 102.176C214.62 100.589 212.729 96.8184 212.729 93.4668V92.5781H217.527V89.9883H212.703V86.7383H209.479V89.9883H204.578V92.5781H209.504V93.4668C209.491 96.9834 207.612 100.868 203.816 102.531ZM237.561 87.5C234.463 87.4873 232.241 89.6836 232.254 92.8574C232.241 95.9932 234.463 98.2148 237.561 98.2148C240.658 98.2148 242.905 95.9932 242.918 92.8574C242.905 89.6836 240.658 87.4873 237.561 87.5ZM235.148 92.8574C235.136 91.0801 236.139 90.1025 237.561 90.1152C238.97 90.1025 239.96 91.0801 239.973 92.8574C239.96 94.5713 238.97 95.5488 237.561 95.5488C236.139 95.5488 235.136 94.5713 235.148 92.8574ZM236.215 109.082H252.008V99.7383H248.809V101.846H239.414V99.7383H236.215V109.082ZM239.414 106.492V104.41H248.809V106.492H239.414ZM243.984 98.6465H247.006V93.6953H248.936V98.7988H252.008V86.2559H248.936V91.0547H247.006V86.6621H243.984V98.6465ZM267.064 86.8906C263.535 86.8779 260.895 89.0615 260.92 92.1973C260.895 95.3584 263.535 97.542 267.064 97.5547C268.943 97.542 270.581 96.8945 271.686 95.8027H276.865V97.8086H280.09V86.2305H276.865V88.5918H271.66C270.556 87.5127 268.931 86.8779 267.064 86.8906ZM263.992 92.1973C263.979 90.5088 265.262 89.4932 267.064 89.5059C268.804 89.4932 270.073 90.5088 270.086 92.1973C270.073 93.9238 268.804 94.9395 267.064 94.9395C265.262 94.9395 263.979 93.9238 263.992 92.1973ZM264.703 101.287H276.865V102.658H264.729V109.082H280.775V106.543H267.979V105.045H280.09V98.7988H264.703V101.287ZM273.044 91.1055H276.865V93.2891H273.044C273.12 92.9463 273.158 92.5781 273.158 92.1973C273.158 91.8164 273.12 91.4482 273.044 91.1055ZM302.51 86.2305H299.234V109.336H302.51V86.2305ZM283.162 102.785L284.863 105.375C293.115 101.478 295.565 95.6504 295.578 88.6426H284.406V91.1816H292.277C291.757 96.3105 289.129 99.9668 283.162 102.785Z" fill="#8666FF"/>
<path d="M49.7461 131.762H48.0586V142.467H44.5781V143.732H48.0586V147.494H49.7461V131.762ZM36.5098 139.953L36.7383 141.342C37.9512 141.342 39.3223 141.324 40.7637 141.271V147.002H42.4336V141.192C43.9453 141.096 45.501 140.938 47.0039 140.674L46.916 139.443C43.4619 139.927 39.498 139.936 36.5098 139.953ZM37.6699 135.629C37.6787 137.527 39.3311 138.749 41.6953 138.758C44.0244 138.749 45.6855 137.527 45.6855 135.629C45.6855 133.766 44.0244 132.482 41.6953 132.482C39.3311 132.482 37.6787 133.766 37.6699 135.629ZM39.252 135.629C39.2432 134.521 40.2451 133.774 41.6953 133.766C43.1016 133.774 44.0947 134.521 44.1035 135.629C44.0947 136.754 43.0928 137.483 41.6953 137.475C40.2451 137.483 39.2432 136.754 39.252 135.629ZM65.1797 131.744H63.5098V147.494H65.1797V131.744ZM52.3652 143.188L53.2969 144.471C55.125 143.645 56.5576 141.896 57.2695 139.786C57.999 141.772 59.4404 143.416 61.2598 144.207L62.1738 142.924C59.7217 141.887 58.0693 139.32 58.0605 136.807V135.77H61.5938V134.434H58.0605V132.061H56.4082V134.434H52.8398V135.77H56.4258V136.807C56.417 139.443 54.7998 142.098 52.3652 143.188ZM81.2461 131.744H79.6465V147.494H81.2461V131.744ZM67.8691 138.547C67.8691 141.966 69.2051 144.11 71.2617 144.102C73.2129 144.11 74.5225 142.203 74.6719 139.127H76.4473V146.721H78.0469V132.043H76.4473V137.773H74.6631C74.4697 134.82 73.1777 133.001 71.2617 133.01C69.2051 133.001 67.8691 135.137 67.8691 138.547ZM69.416 138.547C69.416 136.033 70.1279 134.565 71.2617 134.574C72.4219 134.565 73.1426 136.033 73.1426 138.547C73.1426 141.052 72.4219 142.528 71.2617 142.52C70.1279 142.528 69.416 141.052 69.416 138.547ZM88.9277 135.752V133.062H87.2402V135.752C87.2314 138.67 85.6055 141.702 83.1621 142.871L84.2168 144.225C86.0361 143.284 87.4072 141.368 88.1016 139.101C88.7959 141.254 90.1494 143.029 91.9336 143.926L92.9531 142.59C90.5449 141.509 88.9277 138.635 88.9277 135.752ZM91.2129 138.336H94.7285V147.529H96.3809V131.744H94.7285V136.982H91.2129V138.336ZM112.342 133.309H103.57V134.68H105.1V142.282L103.096 142.309L103.271 143.697C106.005 143.697 109.696 143.627 112.904 143.117L112.799 141.887C112.096 141.966 111.366 142.036 110.619 142.089V134.68H112.342V133.309ZM106.734 142.256V134.68H109.02V142.177C108.255 142.212 107.481 142.238 106.734 142.256ZM111.832 138.986H114.68V147.494H116.332V131.744H114.68V137.615H111.832V138.986ZM133.172 144.084H118.758V145.455H133.172V144.084ZM119.426 140.146L120.111 141.482C122.607 140.999 124.937 139.479 125.947 137.387C126.976 139.461 129.322 140.938 131.871 141.412L132.539 140.094C129.542 139.619 126.809 137.492 126.809 135.084V134.592H131.924V133.238H119.953V134.592H125.068V135.084C125.068 137.492 122.353 139.672 119.426 140.146ZM148.729 144.189H142.295V140.832H147.357V139.514H145.002V134.557H147.41V133.203H135.545V134.557H137.936V139.514H135.58V140.832H140.643V144.189H134.314V145.613H148.729V144.189ZM139.588 139.514V134.557H143.367V139.514H139.588ZM164.285 144.084H149.871V145.455H164.285V144.084ZM150.539 140.146L151.225 141.482C153.721 140.999 156.05 139.479 157.061 137.387C158.089 139.461 160.436 140.938 162.984 141.412L163.652 140.094C160.655 139.619 157.922 137.492 157.922 135.084V134.592H163.037V133.238H151.066V134.592H156.182V135.084C156.182 137.492 153.466 139.672 150.539 140.146ZM182.953 131.762H181.283V136.016H178.277V137.369H181.283V143.293H182.953V131.762ZM169.84 140.006L170.701 141.359C172.573 140.691 173.953 139.303 174.639 137.562C175.324 139.127 176.634 140.393 178.4 141.008L179.262 139.672C176.88 138.881 175.456 136.903 175.465 134.943V134.328H178.84V132.957H170.35V134.328H173.76V134.943C173.769 137.114 172.257 139.188 169.84 140.006ZM172.723 147.16H183.375V145.807H174.393V142.256H172.723V147.16ZM199.74 139.426H196.26V137.316C197.481 136.815 198.167 136.024 198.176 134.979C198.167 133.106 196.005 132.017 192.551 132.025C189.088 132.017 186.917 133.106 186.926 134.979C186.917 136.024 187.603 136.815 188.824 137.308V139.426H185.379V140.779H199.74V139.426ZM187.084 144.646C187.084 146.466 189.123 147.459 192.551 147.459C195.935 147.459 197.974 146.466 197.982 144.646C197.974 142.845 195.935 141.852 192.551 141.852C189.123 141.852 187.084 142.845 187.084 144.646ZM188.648 134.979C188.64 133.924 190.099 133.317 192.551 133.309C194.985 133.317 196.462 133.924 196.453 134.979C196.462 136.033 194.985 136.622 192.551 136.631C190.099 136.622 188.64 136.033 188.648 134.979ZM188.771 144.646C188.763 143.68 190.143 143.135 192.551 143.135C194.924 143.135 196.312 143.68 196.312 144.646C196.312 145.631 194.924 146.193 192.551 146.176C190.143 146.193 188.763 145.631 188.771 144.646ZM190.512 139.426V137.756C191.127 137.844 191.812 137.896 192.551 137.896C193.298 137.896 193.992 137.844 194.607 137.747V139.426H190.512ZM209.074 132.623C206.956 132.605 205.462 134.082 205.471 136.209C205.462 138.318 206.956 139.804 209.074 139.795C211.184 139.804 212.695 138.318 212.695 136.209C212.695 134.082 211.184 132.605 209.074 132.623ZM206.965 136.209C206.956 134.864 207.853 133.968 209.074 133.977C210.287 133.968 211.166 134.864 211.184 136.209C211.166 137.527 210.287 138.415 209.074 138.424C207.853 138.415 206.956 137.527 206.965 136.209ZM208.248 147.301H218.76V141.008H217.125V142.73H209.9V141.008H208.248V147.301ZM209.9 145.947V144.084H217.125V145.947H209.9ZM213.785 140.217H215.332V136.648H217.178V140.322H218.76V131.762H217.178V135.26H215.332V132.043H213.785V140.217ZM228.059 132.008C224.508 131.999 222.425 132.957 222.434 134.715C222.425 136.481 224.508 137.439 228.059 137.439C231.609 137.439 233.675 136.481 233.684 134.715C233.675 132.957 231.609 131.999 228.059 132.008ZM220.887 139.742H235.248V138.406H220.887V139.742ZM222.609 142.203H231.785V143.434H222.627V147.336H233.877V146.053H224.262V144.646H233.438V140.955H222.609V142.203ZM224.174 134.715C224.165 133.783 225.554 133.238 228.059 133.238C230.581 133.238 231.97 133.783 231.961 134.715C231.97 135.69 230.581 136.191 228.059 136.191C225.554 136.191 224.165 135.69 224.174 134.715ZM245.197 132.254C242.815 132.254 241.058 133.722 241.066 135.84C241.058 137.984 242.815 139.452 245.197 139.443C246.568 139.452 247.729 138.951 248.467 138.107H252.299V139.76H253.951V131.744H252.299V133.555H248.432C247.693 132.737 246.551 132.254 245.197 132.254ZM242.666 135.84C242.657 134.521 243.721 133.616 245.197 133.625C246.63 133.616 247.693 134.521 247.693 135.84C247.693 137.193 246.63 138.099 245.197 138.107C243.721 138.099 242.657 137.193 242.666 135.84ZM243.65 141.834H252.299V143.205H243.686V147.301H254.514V145.965H245.355V144.453H253.951V140.533H243.65V141.834ZM249.161 134.873H252.299V136.789H249.17C249.249 136.49 249.293 136.174 249.293 135.84C249.293 135.497 249.249 135.181 249.161 134.873ZM269.139 133.256H257.906V134.609H267.469V134.803C267.46 136.692 267.46 138.925 266.854 141.975L268.541 142.15C269.13 138.925 269.13 136.745 269.139 134.803V133.256ZM256.395 145.367H270.756V143.979H263.514V138.424H261.861V143.979H256.395V145.367ZM290.742 141.184H276.328V142.572H279.967V147.494H281.637V142.572H285.434V147.494H287.121V142.572H290.742V141.184ZM278.227 139.725H289.143V138.389H279.861V136.684H288.615V135.365H279.861V133.783H288.967V132.447H278.227V139.725ZM304.682 139.812H295.4V137.668H304.189V136.35H295.4V134.328H304.523V132.957H293.713V141.148H298.248V144.225H291.902V145.596H306.316V144.225H299.918V141.148H304.682V139.812ZM320.537 131.744H318.867V147.529H320.537V131.744ZM308.338 134.521H314.016V137.58H308.355V143.75H309.691C312.478 143.741 314.851 143.636 317.637 143.17L317.479 141.799C314.842 142.229 312.618 142.353 310.061 142.361V138.916H315.721V133.168H308.338V134.521ZM336.129 131.744H334.477V135.137H331.4C331.058 133.405 329.458 132.254 327.375 132.254C324.993 132.254 323.235 133.722 323.244 135.822C323.235 137.958 324.993 139.443 327.375 139.443C329.458 139.443 331.066 138.266 331.409 136.508H334.477V139.707H336.129V131.744ZM324.844 135.822C324.835 134.521 325.898 133.616 327.375 133.625C328.808 133.616 329.871 134.521 329.871 135.822C329.871 137.176 328.808 138.072 327.375 138.072C325.898 138.072 324.835 137.176 324.844 135.822ZM325.828 141.834H334.477V143.205H325.863V147.301H336.691V145.965H327.533V144.453H336.129V140.533H325.828V141.834ZM345.744 132.008C342.193 131.999 340.11 132.957 340.119 134.715C340.11 136.481 342.193 137.439 345.744 137.439C349.295 137.439 351.36 136.481 351.369 134.715C351.36 132.957 349.295 131.999 345.744 132.008ZM338.572 139.742H352.934V138.406H338.572V139.742ZM340.295 142.203H349.471V143.434H340.312V147.336H351.562V146.053H341.947V144.646H351.123V140.955H340.295V142.203ZM341.859 134.715C341.851 133.783 343.239 133.238 345.744 133.238C348.267 133.238 349.655 133.783 349.646 134.715C349.655 135.69 348.267 136.191 345.744 136.191C343.239 136.191 341.851 135.69 341.859 134.715ZM371.566 131.744H369.914V139.848H371.566V131.744ZM358.576 138.441L359.42 139.76C361.301 139.118 362.707 137.747 363.419 136.024C364.131 137.624 365.511 138.863 367.348 139.461L368.174 138.16C365.757 137.404 364.245 135.488 364.254 133.379V132.166H362.549V133.379C362.54 135.559 361.037 137.624 358.576 138.441ZM361.23 141.922H369.932V143.275H361.283V147.336H372.111V146H362.9V144.541H371.584V140.604H361.23V141.922ZM50.0098 156.744H48.4277V160.91H46.5996V157.043H45.0352V166.131H46.5996V162.281H48.4277V166.676H50.0098V156.744ZM36.4922 159.855H44.4551V158.537H41.3262V156.867H39.6738V158.537H36.4922V159.855ZM37.1074 163.301C37.1074 164.936 38.5137 166.008 40.4824 166.008C42.4951 166.008 43.8926 164.936 43.8926 163.301C43.8926 161.666 42.4951 160.594 40.4824 160.594C38.5137 160.594 37.1074 161.666 37.1074 163.301ZM38.6016 163.301C38.6016 162.404 39.3662 161.815 40.4824 161.824C41.6162 161.815 42.3896 162.404 42.3809 163.301C42.3896 164.197 41.6162 164.786 40.4824 164.795C39.3662 164.786 38.6016 164.197 38.6016 163.301ZM39.4102 169.699C39.3926 171.466 41.3965 172.468 44.7363 172.459C48.085 172.468 50.0889 171.466 50.0977 169.699C50.0889 167.915 48.085 166.904 44.7363 166.904C41.3965 166.904 39.3926 167.915 39.4102 169.699ZM41.0625 169.699C41.0449 168.706 42.3984 168.179 44.7363 168.188C47.083 168.179 48.4189 168.706 48.4277 169.699C48.4189 170.648 47.083 171.193 44.7363 171.176C42.3984 171.193 41.0449 170.648 41.0625 169.699ZM59.9238 159.346H56.8477V157.201H55.1953V159.346H52.1016V160.699H59.9238V159.346ZM52.6113 165.27C52.6025 167.423 54.0439 168.935 56.0215 168.926C58.0166 168.935 59.4404 167.423 59.4492 165.27C59.4404 163.151 58.0166 161.648 56.0215 161.648C54.0439 161.648 52.6025 163.151 52.6113 165.27ZM54.0879 165.27C54.0791 163.96 54.8877 163.046 56.0215 163.037C57.1553 163.046 57.9727 163.96 57.9727 165.27C57.9727 166.605 57.1553 167.502 56.0215 167.502C54.8877 167.502 54.0791 166.605 54.0879 165.27ZM60.6445 171.756H62.2266V164.672H64.0371V172.494H65.6191V156.744H64.0371V163.301H62.2266V157.096H60.6445V171.756ZM82.0547 165.621H67.6934V166.975H74.0215V172.477H75.6562V166.975H82.0547V165.621ZM68.502 163.107L69.1348 164.426C71.6836 164.021 73.9072 162.747 74.874 160.954C75.832 162.747 78.0645 164.021 80.6484 164.426L81.2637 163.107C78.2842 162.703 75.8584 160.954 75.832 159.012H80.7012V157.676H69.0293V159.012H73.9336C73.8809 160.954 71.4375 162.703 68.502 163.107ZM88.0488 161.051V158.186H86.4316V161.121C86.4404 163.802 85.2627 166.588 83.0391 167.924L84.0762 169.172C85.6055 168.24 86.6953 166.535 87.2666 164.54C87.8115 166.359 88.8047 167.933 90.2812 168.82L91.2129 167.537C89.1035 166.245 88.0488 163.564 88.0488 161.051ZM89.5078 163.67H91.9512V171.721H93.5332V157.043H91.9512V162.281H89.5078V163.67ZM95.2031 172.494H96.8027V156.744H95.2031V172.494ZM113.221 169.137H109.775V164.988C111.041 164.276 111.797 163.16 111.797 161.771C111.797 159.293 109.362 157.667 105.979 157.658C102.604 157.667 100.169 159.293 100.178 161.771C100.169 163.187 100.96 164.312 102.252 165.023V169.137H98.8066V170.525H113.221V169.137ZM101.795 161.771C101.795 160.075 103.509 158.994 105.979 158.994C108.431 158.994 110.171 160.075 110.18 161.771C110.171 163.459 108.431 164.558 105.979 164.566C103.509 164.558 101.795 163.459 101.795 161.771ZM103.904 169.137V165.639C104.537 165.788 105.24 165.867 105.979 165.867C106.734 165.867 107.446 165.788 108.088 165.639V169.137H103.904ZM116.156 171.123C116.833 171.114 117.396 170.561 117.404 169.875C117.396 169.189 116.833 168.627 116.156 168.627C115.471 168.627 114.899 169.189 114.908 169.875C114.899 170.561 115.471 171.114 116.156 171.123ZM132.434 158.309H123.662V159.68H125.191V167.282L123.188 167.309L123.363 168.697C126.097 168.697 129.788 168.627 132.996 168.117L132.891 166.887C132.188 166.966 131.458 167.036 130.711 167.089V159.68H132.434V158.309ZM126.826 167.256V159.68H129.111V167.177C128.347 167.212 127.573 167.238 126.826 167.256ZM131.924 163.986H134.771V172.494H136.424V156.744H134.771V162.615H131.924V163.986ZM153.264 169.084H138.85V170.455H153.264V169.084ZM139.518 165.146L140.203 166.482C142.699 165.999 145.028 164.479 146.039 162.387C147.067 164.461 149.414 165.938 151.963 166.412L152.631 165.094C149.634 164.619 146.9 162.492 146.9 160.084V159.592H152.016V158.238H140.045V159.592H145.16V160.084C145.16 162.492 142.444 164.672 139.518 165.146ZM168.82 169.189H162.387V165.832H167.449V164.514H165.094V159.557H167.502V158.203H155.637V159.557H158.027V164.514H155.672V165.832H160.734V169.189H154.406V170.613H168.82V169.189ZM159.68 164.514V159.557H163.459V164.514H159.68ZM184.377 169.084H169.963V170.455H184.377V169.084ZM170.631 165.146L171.316 166.482C173.812 165.999 176.142 164.479 177.152 162.387C178.181 164.461 180.527 165.938 183.076 166.412L183.744 165.094C180.747 164.619 178.014 162.492 178.014 160.084V159.592H183.129V158.238H171.158V159.592H176.273V160.084C176.273 162.492 173.558 164.672 170.631 165.146ZM198.264 161.35H189.07V157.307H187.418V162.686H198.264V161.35ZM185.502 166.008H199.916V164.672H185.502V166.008ZM187.295 172.125H198.369V170.754H188.965V167.502H187.295V172.125ZM209.936 157.271C207.536 157.289 205.796 158.739 205.787 160.805C205.796 162.879 207.536 164.32 209.936 164.32C212.309 164.32 214.058 162.879 214.066 160.805C214.058 158.739 212.309 157.289 209.936 157.271ZM207.422 160.805C207.413 159.521 208.485 158.66 209.936 158.678C211.377 158.66 212.449 159.521 212.449 160.805C212.449 162.105 211.377 162.967 209.936 162.967C208.485 162.967 207.413 162.105 207.422 160.805ZM208.178 166.816H216.879V168.205H208.23V172.301H219.059V170.965H209.848V169.453H218.531V165.48H208.178V166.816ZM216.861 164.76H218.531V156.744H216.861V164.76ZM226.459 159.258V157.57H224.807V159.117C224.789 161.473 223.365 163.573 220.904 164.443L221.801 165.779C223.638 165.103 224.974 163.714 225.659 161.947C226.345 163.503 227.637 164.733 229.359 165.34L230.256 164.021C227.909 163.248 226.45 161.323 226.459 159.258ZM223.031 169.541C223.031 171.404 225.044 172.468 228.322 172.459C231.557 172.468 233.543 171.404 233.543 169.541C233.543 167.695 231.557 166.614 228.322 166.623C225.044 166.614 223.031 167.695 223.031 169.541ZM224.701 169.541C224.692 168.539 226.046 167.941 228.322 167.941C230.581 167.941 231.917 168.539 231.908 169.541C231.917 170.578 230.581 171.141 228.322 171.158C226.046 171.141 224.692 170.578 224.701 169.541ZM231.732 166.254H233.402V162.105H235.688V160.699H233.402V156.744H231.732V166.254ZM255.375 164.566H248.977V162.264H247.324V164.566H240.979V165.938H255.375V164.566ZM241.805 161.807L242.42 163.125C244.934 162.721 247.14 161.508 248.142 159.768C249.144 161.508 251.35 162.721 253.846 163.125L254.496 161.807C251.455 161.42 248.985 159.671 248.994 157.658V156.99H247.307V157.658C247.298 159.645 244.819 161.42 241.805 161.807ZM242.578 168.645H251.895V172.494H253.582V167.326H242.578V168.645ZM273.199 156.744H271.529V172.494H273.199V164.25H275.73V162.844H273.199V156.744ZM261.527 168.75H268.998V158.062H267.346V162.105H263.18V158.062H261.527V168.75ZM263.18 167.379V163.424H267.346V167.379H263.18ZM290.883 165.393H276.469V166.746H290.883V165.393ZM278.279 158.537H287.402V160.049H278.314V164.092H289.389V162.809H279.967V161.262H289.072V157.219H278.279V158.537ZM278.35 172.16H289.406V170.807H280.02V167.871H278.35V172.16ZM297.527 161.385V159.715H300.955V158.326H292.324V159.715H295.875V161.385C295.866 164.048 294.135 167.019 291.744 168.17L292.729 169.488C294.521 168.592 295.998 166.649 296.719 164.408C297.431 166.465 298.837 168.24 300.604 169.084L301.553 167.783C299.162 166.649 297.519 163.872 297.527 161.385ZM302.643 172.494H304.312V164.391H306.844V162.984H304.312V156.744H302.643V172.494ZM312.398 161.051V158.186H310.781V161.121C310.79 163.802 309.612 166.588 307.389 167.924L308.426 169.172C309.955 168.24 311.045 166.535 311.616 164.54C312.161 166.359 313.154 167.933 314.631 168.82L315.562 167.537C313.453 166.245 312.398 163.564 312.398 161.051ZM313.857 163.67H316.301V171.721H317.883V157.043H316.301V162.281H313.857V163.67ZM319.553 172.494H321.152V156.744H319.553V172.494ZM330.979 166.184H329.326V172.301H340.049V166.184H338.379V167.854H330.979V166.184ZM327.551 165.199H341.912V163.811H327.551V165.199ZM328.324 161.525L328.957 162.844C331.488 162.492 333.721 161.288 334.74 159.601C335.751 161.279 337.975 162.492 340.523 162.844L341.121 161.525C338.106 161.156 335.593 159.398 335.584 157.588V156.92H333.879V157.588C333.87 159.451 331.374 161.13 328.324 161.525ZM330.979 170.965V169.154H338.379V170.965H330.979ZM351.879 157.939H343.934V159.311H350.235C350.218 160.304 350.165 161.578 349.822 163.318L351.475 163.477C351.861 161.438 351.861 159.873 351.879 158.818V157.939ZM342.984 164.83L343.143 166.184C345.92 166.175 349.682 166.113 352.969 165.533L352.863 164.32C351.281 164.549 349.541 164.672 347.854 164.742V161.473H346.201V164.795C345.05 164.821 343.951 164.83 342.984 164.83ZM345.375 172.16H356.08V170.807H347.045V167.502H345.375V172.16ZM353.865 168.574H355.57V163.16H357.732V161.754H355.57V156.744H353.865V168.574ZM365.836 157.008C362.285 156.999 360.202 157.957 360.211 159.715C360.202 161.481 362.285 162.439 365.836 162.439C369.387 162.439 371.452 161.481 371.461 159.715C371.452 157.957 369.387 156.999 365.836 157.008ZM358.664 164.742H373.025V163.406H358.664V164.742ZM360.387 167.203H369.562V168.434H360.404V172.336H371.654V171.053H362.039V169.646H371.215V165.955H360.387V167.203ZM361.951 159.715C361.942 158.783 363.331 158.238 365.836 158.238C368.358 158.238 369.747 158.783 369.738 159.715C369.747 160.69 368.358 161.191 365.836 161.191C363.331 161.191 361.942 160.69 361.951 159.715ZM50.9414 190.023H44.5781V188.652H49.2891V187.352H40.1133V186.016H48.7793V184.768H40.1133V183.484H49.1836V182.166H38.4258V188.652H42.9082V190.023H36.5449V191.342H50.9414V190.023ZM38.2852 194.928C38.2852 196.589 40.2451 197.468 43.752 197.459C47.2061 197.468 49.1748 196.589 49.1836 194.928C49.1748 193.275 47.2061 192.37 43.752 192.379C40.2451 192.37 38.2852 193.275 38.2852 194.928ZM39.9551 194.928C39.9463 194.075 41.2646 193.627 43.752 193.627C46.2041 193.627 47.5137 194.075 47.5137 194.928C47.5137 195.78 46.2041 196.211 43.752 196.193C41.2646 196.211 39.9463 195.78 39.9551 194.928ZM59.9238 184.346H56.8477V182.201H55.1953V184.346H52.1016V185.699H59.9238V184.346ZM52.6113 190.27C52.6025 192.423 54.0439 193.935 56.0215 193.926C58.0166 193.935 59.4404 192.423 59.4492 190.27C59.4404 188.151 58.0166 186.648 56.0215 186.648C54.0439 186.648 52.6025 188.151 52.6113 190.27ZM54.0879 190.27C54.0791 188.96 54.8877 188.046 56.0215 188.037C57.1553 188.046 57.9727 188.96 57.9727 190.27C57.9727 191.605 57.1553 192.502 56.0215 192.502C54.8877 192.502 54.0791 191.605 54.0879 190.27ZM60.6445 196.756H62.2266V189.672H64.0371V197.494H65.6191V181.744H64.0371V188.301H62.2266V182.096H60.6445V196.756ZM85.5176 181.762H83.9355V185.594H82.0371V182.043H80.4551V190.938H82.0371V186.982H83.9355V191.025H85.5176V181.762ZM72.0879 189.918L72.8965 191.166C76.9307 189.496 78.9785 186.71 78.9785 182.887H72.7734V184.24H77.2822C76.9922 186.71 75.2695 188.67 72.0879 189.918ZM74.7598 193.064H83.8652V197.494H85.5176V191.711H74.7598V193.064ZM96.416 182.939H88.4707V184.311H94.7725C94.7549 185.304 94.7021 186.578 94.3594 188.318L96.0117 188.477C96.3984 186.438 96.3984 184.873 96.416 183.818V182.939ZM87.5215 189.83L87.6797 191.184C90.457 191.175 94.2188 191.113 97.5059 190.533L97.4004 189.32C95.8184 189.549 94.0781 189.672 92.3906 189.742V186.473H90.7383V189.795C89.5869 189.821 88.4883 189.83 87.5215 189.83ZM89.9121 197.16H100.617V195.807H91.582V192.502H89.9121V197.16ZM98.4023 193.574H100.107V188.16H102.27V186.754H100.107V181.744H98.4023V193.574ZM108.844 184.539V184.117H112.219V182.764H103.729V184.117H107.139V184.557C107.147 186.692 105.636 188.793 103.219 189.619L104.08 190.938C105.952 190.278 107.332 188.89 108.018 187.158C108.703 188.714 110.013 189.979 111.779 190.586L112.641 189.285C110.259 188.468 108.835 186.525 108.844 184.539ZM105.662 193.311H114.662V197.494H116.332V191.957H105.662V193.311ZM111.744 187.123H114.662V191.166H116.332V181.744H114.662V185.752H111.744V187.123ZM131.818 181.762H130.148V193.205H131.818V181.762ZM119.074 186.719C119.083 189.03 120.894 190.639 123.275 190.639C125.648 190.639 127.459 189.03 127.459 186.719C127.459 184.442 125.648 182.825 123.275 182.816C120.894 182.825 119.083 184.442 119.074 186.719ZM120.709 186.719C120.7 185.269 121.808 184.275 123.275 184.275C124.717 184.275 125.824 185.269 125.824 186.719C125.824 188.204 124.717 189.18 123.275 189.18C121.808 189.18 120.7 188.204 120.709 186.719ZM121.518 197.16H132.293V195.807H123.205V192.045H121.518V197.16ZM153.07 190.023H146.707V188.652H151.418V187.352H142.242V186.016H150.908V184.768H142.242V183.484H151.312V182.166H140.555V188.652H145.037V190.023H138.674V191.342H153.07V190.023ZM140.414 194.928C140.414 196.589 142.374 197.468 145.881 197.459C149.335 197.468 151.304 196.589 151.312 194.928C151.304 193.275 149.335 192.37 145.881 192.379C142.374 192.37 140.414 193.275 140.414 194.928ZM142.084 194.928C142.075 194.075 143.394 193.627 145.881 193.627C148.333 193.627 149.643 194.075 149.643 194.928C149.643 195.78 148.333 196.211 145.881 196.193C143.394 196.211 142.075 195.78 142.084 194.928ZM168.627 189.162H154.266V190.516H168.627V189.162ZM155.021 187.018L155.602 188.336C158.335 188.02 160.576 186.868 161.446 185.207C162.299 186.868 164.558 188.02 167.291 188.336L167.889 187.018C164.971 186.71 162.747 185.418 162.554 183.889H167.344V182.518H155.584V183.889H160.321C160.137 185.427 157.878 186.71 155.021 187.018ZM155.971 194.611C155.971 196.439 158.019 197.468 161.438 197.459C164.83 197.468 166.86 196.439 166.869 194.611C166.86 192.783 164.83 191.729 161.438 191.729C158.019 191.729 155.971 192.783 155.971 194.611ZM157.658 194.611C157.649 193.592 159.029 193.047 161.438 193.029C163.811 193.047 165.199 193.592 165.199 194.611C165.199 195.604 163.811 196.149 161.438 196.141C159.029 196.149 157.649 195.604 157.658 194.611ZM187.699 181.744H186.1V187.967H184.148V182.166H182.584V196.738H184.148V189.32H186.1V197.494H187.699V181.744ZM174.164 192.994L175.131 194.154C179.64 191.614 181.011 187.888 181.02 183.748H174.832V185.119H179.394C179.13 188.327 177.662 191.008 174.164 192.994ZM195.328 184.627V182.711H193.676V184.574C193.667 186.947 192.208 189.136 189.756 190.006L190.652 191.324C192.507 190.612 193.852 189.18 194.528 187.369C195.205 188.995 196.497 190.296 198.211 190.955L199.125 189.654C196.752 188.819 195.337 186.763 195.328 184.627ZM192.621 197.16H203.256V195.807H194.309V192.186H192.621V197.16ZM197.912 186.719H201.234V193.504H202.904V181.762H201.234V185.348H197.912V186.719ZM223.26 181.744H221.643V197.494H223.26V181.744ZM210.287 193.785H211.324C213.785 193.785 215.341 193.706 217.143 193.346L217.002 191.939C215.367 192.291 213.979 192.379 211.922 192.396V184.996H216.264V183.625H210.287V193.785ZM215.191 189.057H218.426V196.703H220.008V182.078H218.426V187.668H215.191V189.057ZM238.324 181.744H236.654V197.529H238.324V181.744ZM225.826 188.441C225.826 191.843 227.522 193.987 229.904 193.979C232.242 193.987 233.965 191.843 233.965 188.441C233.965 185.075 232.242 182.931 229.904 182.922C227.522 182.931 225.826 185.075 225.826 188.441ZM227.443 188.441C227.435 185.972 228.437 184.425 229.904 184.416C231.346 184.425 232.348 185.972 232.348 188.441C232.348 190.946 231.346 192.484 229.904 192.484C228.437 192.484 227.435 190.946 227.443 188.441ZM253.969 181.744H252.316V187.562H249.188V188.934H252.316V197.529H253.969V181.744ZM241.559 193.803H242.789C245.707 193.794 247.685 193.697 249.979 193.328L249.803 191.975C247.711 192.335 245.883 192.414 243.246 192.414V188.898H248.256V187.562H243.246V184.504H248.924V183.15H241.559V193.803ZM270.791 188.969H256.377V190.252H270.791V188.969ZM258.082 192.555H267.363V193.715H258.1V197.301H269.508V196.123H259.77V194.822H269.016V191.359H258.082V192.555ZM258.188 183.326H267.311V184.451H258.223V187.932H269.244V186.754H259.875V185.559H268.98V182.148H258.188V183.326ZM289.09 181.744H287.438V190.094H289.09V186.455H291.023V185.084H289.09V181.744ZM276.17 187.984L277.066 189.18C278.227 188.521 278.947 187.404 279.352 186.174C279.703 187.431 280.362 188.617 281.514 189.329L281.531 189.355C282.691 188.661 283.359 187.501 283.72 186.262C284.124 187.483 284.845 188.547 286.031 189.18L286.928 187.984C285.108 187.044 284.476 185.031 284.467 183.309V182.359H283.289V182.395H282.92V183.326C282.911 184.574 282.621 186.253 281.549 187.439C280.45 186.218 280.16 184.513 280.16 183.309V182.359H278.578V183.309C278.578 184.891 277.945 186.974 276.17 187.984ZM278.438 192.238H289.67V190.938H284.906V189.461H283.236V190.938H278.438V192.238ZM279.387 195.174C279.369 196.677 281.083 197.468 284.062 197.459C287.007 197.468 288.729 196.677 288.721 195.174C288.729 193.724 287.007 192.906 284.062 192.889C281.083 192.906 279.369 193.724 279.387 195.174ZM281.039 195.174C281.021 194.488 282.067 194.102 284.062 194.102C286.014 194.102 287.095 194.488 287.086 195.174C287.095 195.903 286.014 196.272 284.062 196.264C282.067 196.272 281.021 195.903 281.039 195.174ZM304.998 181.744H303.311V197.494H304.998V181.744ZM292.061 193.275L292.939 194.629C298.345 192.036 300.305 188.046 300.305 183.432H292.816V184.768H298.617C298.292 188.441 296.244 191.28 292.061 193.275ZM317.021 182.465C314.657 182.456 312.952 183.783 312.961 185.734C312.952 187.668 314.657 189.004 317.021 188.986C319.395 189.004 321.108 187.668 321.117 185.734C321.108 183.783 319.395 182.456 317.021 182.465ZM311.836 190.217L312.064 191.605C313.312 191.597 314.754 191.588 316.283 191.518V197.002H317.953V191.421C319.403 191.324 320.889 191.157 322.33 190.885L322.207 189.637C318.762 190.155 314.745 190.217 311.836 190.217ZM314.578 185.734C314.561 184.583 315.589 183.81 317.021 183.818C318.489 183.81 319.518 184.583 319.518 185.734C319.518 186.877 318.489 187.633 317.021 187.615C315.589 187.633 314.561 186.877 314.578 185.734ZM323.297 197.494H324.949V181.762H323.297V197.494ZM335.197 184.346H332.121V182.201H330.469V184.346H327.375V185.699H335.197V184.346ZM327.885 190.27C327.876 192.423 329.317 193.935 331.295 193.926C333.29 193.935 334.714 192.423 334.723 190.27C334.714 188.151 333.29 186.648 331.295 186.648C329.317 186.648 327.876 188.151 327.885 190.27ZM329.361 190.27C329.353 188.96 330.161 188.046 331.295 188.037C332.429 188.046 333.246 188.96 333.246 190.27C333.246 191.605 332.429 192.502 331.295 192.502C330.161 192.502 329.353 191.605 329.361 190.27ZM335.918 196.756H337.5V189.672H339.311V197.494H340.893V181.744H339.311V188.301H337.5V182.096H335.918V196.756ZM360.914 181.744H359.314V187.914H357.363V182.043H355.781V196.721H357.363V189.285H359.314V197.494H360.914V181.744ZM347.889 193.346H354.006V183.52H347.889V193.346ZM349.471 192.01V184.838H352.441V192.01H349.471ZM367.383 182.271C364.983 182.289 363.243 183.739 363.234 185.805C363.243 187.879 364.983 189.32 367.383 189.32C369.756 189.32 371.505 187.879 371.514 185.805C371.505 183.739 369.756 182.289 367.383 182.271ZM364.869 185.805C364.86 184.521 365.933 183.66 367.383 183.678C368.824 183.66 369.896 184.521 369.896 185.805C369.896 187.105 368.824 187.967 367.383 187.967C365.933 187.967 364.86 187.105 364.869 185.805ZM365.625 191.816H374.326V193.205H365.678V197.301H376.506V195.965H367.295V194.453H375.979V190.48H365.625V191.816ZM374.309 189.76H375.979V181.744H374.309V189.76ZM48.9551 206.744H47.2676V218.188H48.9551V212.791H51.2402V211.402H48.9551V206.744ZM36.5625 215.129L37.2656 216.465C41.8711 215.067 44.6836 212.07 44.6836 207.939H37.2305V209.328H42.8643C42.5391 211.921 40.2539 214.021 36.5625 215.129ZM38.9531 222.16H49.6055V220.807H40.6406V217.01H38.9531V222.16ZM64.5117 206.727H62.8418V218.135H64.5117V212.686H66.8145V211.297H64.5117V206.727ZM52.8398 215.41H54.0879C57.4629 215.41 59.3262 215.305 61.4531 214.883L61.2598 213.529C59.2822 213.934 57.5596 214.03 54.4922 214.021V209.434H59.8711V208.08H52.8398V215.41ZM54.5273 222.16H65.1797V220.807H56.1973V216.957H54.5273V222.16ZM80.0684 206.762H78.3984V218.539H80.0684V213.213H82.3535V211.824H80.0684V206.762ZM67.7109 209.943H77.0977V208.59H73.248V206.744H71.5781V208.59H67.7109V209.943ZM68.5723 213.67C68.5635 215.454 70.1191 216.614 72.4043 216.623C74.6631 216.614 76.2188 215.454 76.2188 213.67C76.2188 211.868 74.6631 210.69 72.4043 210.699C70.1191 210.69 68.5635 211.868 68.5723 213.67ZM70.084 222.16H80.7363V220.807H71.7539V217.607H70.084V222.16ZM70.1895 213.67C70.1719 212.633 71.0684 211.991 72.4043 211.982C73.7402 211.991 74.6367 212.633 74.6543 213.67C74.6367 214.698 73.7402 215.331 72.4043 215.322C71.0684 215.331 70.1719 214.698 70.1895 213.67ZM164.879 207.008C161.328 206.999 159.245 207.957 159.254 209.715C159.245 211.481 161.328 212.439 164.879 212.439C168.43 212.439 170.495 211.481 170.504 209.715C170.495 207.957 168.43 206.999 164.879 207.008ZM157.707 214.742H172.068V213.406H157.707V214.742ZM159.43 217.203H168.605V218.434H159.447V222.336H170.697V221.053H161.082V219.646H170.258V215.955H159.43V217.203ZM160.994 209.715C160.985 208.783 162.374 208.238 164.879 208.238C167.401 208.238 168.79 208.783 168.781 209.715C168.79 210.69 167.401 211.191 164.879 211.191C162.374 211.191 160.985 210.69 160.994 209.715ZM190.719 206.744H189.049V215.199H190.719V206.744ZM177.975 211.121C177.983 213.274 179.759 214.777 182.176 214.76C184.584 214.777 186.359 213.274 186.359 211.121C186.359 208.959 184.584 207.456 182.176 207.465C179.759 207.456 177.983 208.959 177.975 211.121ZM179.609 211.121C179.601 209.776 180.682 208.862 182.176 208.871C183.652 208.862 184.725 209.776 184.725 211.121C184.725 212.483 183.652 213.389 182.176 213.389C180.682 213.389 179.601 212.483 179.609 211.121ZM180.418 222.301H190.719V215.955H189.066V217.73H182.053V215.955H180.418V222.301ZM182.053 220.93V219.049H189.066V220.93H182.053ZM200.721 207.693H193.848V209.029H199.051V211.016H193.865V215.814H195.008C198.146 215.806 199.763 215.753 201.688 215.428L201.529 214.074C199.754 214.399 198.26 214.461 195.518 214.461V212.281H200.721V207.693ZM195.658 218.592H204.676V222.512H206.346V217.238H195.658V218.592ZM201.723 213.67H204.676V216.447H206.346V206.762H204.676V209.047H201.723V210.383H204.676V212.334H201.723V213.67ZM221.146 206.744H219.477V215.938H221.146V211.859H223.432V210.471H221.146V206.744ZM209.387 215.023H216.805V207.641H215.152V209.926H211.021V207.641H209.387V215.023ZM211.021 213.705V211.244H215.152V213.705H211.021ZM211.109 222.266H221.551V220.947H212.779V218.1H221.27V216.764H211.109V222.266ZM227.756 216.184H226.104V222.301H236.826V216.184H235.156V217.854H227.756V216.184ZM224.328 215.199H238.689V213.811H224.328V215.199ZM225.102 211.525L225.734 212.844C228.266 212.492 230.498 211.288 231.518 209.601C232.528 211.279 234.752 212.492 237.301 212.844L237.898 211.525C234.884 211.156 232.37 209.398 232.361 207.588V206.92H230.656V207.588C230.647 209.451 228.151 211.13 225.102 211.525ZM227.756 220.965V219.154H235.156V220.965H227.756ZM252.963 206.744H251.293V222.494H252.963V206.744ZM240.852 218.486H242.17C244.657 218.495 247.188 218.302 249.975 217.73L249.746 216.324C247.224 216.834 244.807 217.036 242.504 217.045V208.273H240.852V218.486ZM267.711 206.744H266.041V222.529H267.711V214.215H270.242V212.844H267.711V206.744ZM256.109 218.609H257.375C260.302 218.618 262.394 218.539 264.863 218.1L264.652 216.693C262.402 217.098 260.425 217.212 257.779 217.221V209.609H263.475V208.256H256.109V218.609ZM272.791 221.123C273.468 221.114 274.03 220.561 274.039 219.875C274.03 219.189 273.468 218.627 272.791 218.627C272.105 218.627 271.534 219.189 271.543 219.875C271.534 220.561 272.105 221.114 272.791 221.123Z" fill="#6662A8"/>
<path d="M102.966 214.524H96.4346V213.485H101.314V211.667H91.833V210.702H100.776V208.995H91.833V208.049H101.166V206.23H89.458V213.485H94.0596V214.524H87.5283V216.38H102.966V214.524ZM89.3281 219.924C89.3281 221.742 91.4619 222.716 95.2471 222.707C98.9673 222.716 101.11 221.742 101.129 219.924C101.11 218.143 98.9673 217.141 95.2471 217.159C91.4619 217.141 89.3281 218.143 89.3281 219.924ZM91.7031 219.924C91.6846 219.219 92.8164 218.894 95.2471 218.903C97.6221 218.894 98.7446 219.219 98.7539 219.924C98.7446 220.647 97.6221 220.963 95.2471 220.963C92.8164 220.963 91.6846 220.647 91.7031 219.924ZM119.387 213.597H103.986V215.508H119.387V213.597ZM104.673 211.129L105.452 212.984C108.653 212.678 110.777 211.472 111.668 209.839C112.568 211.472 114.711 212.678 117.902 212.984L118.737 211.129C115.49 210.841 113.765 209.672 113.384 208.494H117.995V206.602H105.396V208.494H109.97C109.581 209.682 107.846 210.841 104.673 211.129ZM105.749 219.59C105.749 221.584 107.976 222.716 111.668 222.707C115.333 222.716 117.531 221.584 117.55 219.59C117.531 217.604 115.333 216.454 111.668 216.454C107.976 216.454 105.749 217.604 105.749 219.59ZM108.161 219.59C108.152 218.708 109.33 218.291 111.668 218.291C113.959 218.291 115.166 218.708 115.175 219.59C115.166 220.462 113.959 220.87 111.668 220.87C109.33 220.87 108.152 220.462 108.161 219.59ZM138.98 205.822H136.587V222.707H138.98V205.822ZM124.842 217.92L126.085 219.812C132.115 216.964 133.906 212.706 133.915 207.585H125.751V209.44H131.503C131.123 213.188 129.202 215.86 124.842 217.92ZM156.645 214.877H150.095V213.652H155.086V211.834H145.475V210.721H154.771V206.138H143.081V207.975H152.396V209.014H143.118V213.652H147.738V214.877H141.188V216.77H156.645V214.877ZM142.914 219.59H152.47V222.633H154.863V217.734H142.914V219.59Z" fill="#8666FF"/>
<g filter="url(#filter0_d_685_14263)">
<g filter="url(#filter1_d_685_14263)">
<rect x="49" y="312" width="316" height="384" rx="40" fill="black"/>
</g>
<path d="M70 360C70 354.477 74.4772 350 80 350H334C339.523 350 344 354.477 344 360V596C344 601.523 339.523 606 334 606H80C74.4771 606 70 601.523 70 596V360Z" fill="black"/>
<path d="M117.219 635.76H115.283C115.651 633.696 115.651 632.192 115.651 630.816V629.488H105.427V631.184H113.587C113.587 632.448 113.555 633.888 113.187 635.76H103.907V637.456H109.411V643.376H111.555V637.456H117.219V635.76ZM128.29 634.048H122.226V632.528H128.29V634.048ZM130.37 629.2H128.29V630.88H122.226V629.2H120.13V635.728H130.37V629.2ZM131.954 637.12H118.61V638.8H124.178V643.392H126.29V638.8H131.954V637.12ZM135.921 635.568H140.385V629.872H133.809V631.552H138.305V633.904H133.841V640.128H135.025C137.233 640.128 139.105 640.08 141.281 639.744L141.121 638.016C139.281 638.288 137.697 638.368 135.921 638.384V635.568ZM143.537 628.624V631.76H141.121V633.456H143.537V635.76H141.089V637.456H143.537V643.408H145.665V628.624H143.537ZM153.379 632.8C153.379 631.712 154.179 631.072 155.267 631.072C156.355 631.072 157.155 631.712 157.155 632.8C157.155 633.888 156.355 634.544 155.267 634.544C154.179 634.544 153.379 633.888 153.379 632.8ZM159.187 632.8C159.187 630.784 157.507 629.344 155.267 629.344C153.027 629.344 151.347 630.784 151.347 632.8C151.347 634.832 153.027 636.272 155.267 636.272C157.507 636.272 159.187 634.832 159.187 632.8ZM163.411 638.688V637.056H157.171V638.688H159.299C159.283 639.888 158.611 641.04 157.043 641.616L156.739 640.672C156.083 640.96 155.347 641.12 154.579 641.2V637.472H152.531V642.96H153.363C154.643 642.96 155.923 642.848 157.059 642.352L157.651 643.312C158.915 642.928 159.763 642.192 160.275 641.264C160.787 642.208 161.651 642.944 162.947 643.312L163.907 641.744C162.067 641.248 161.299 640.032 161.283 638.688H163.411ZM162.819 631.712V628.624H160.707V636.432H162.819V633.44H164.771V631.712H162.819ZM177.826 632.624H169.714V629.168H167.602V634.304H177.826V632.624ZM169.586 638.672H167.458V643.056H177.906V641.376H169.586V638.672ZM165.954 635.808V637.504H179.298V635.808H165.954ZM189.268 631.792H192.196V630.048H184.1V631.792H187.156V632.608C187.156 635.04 185.956 637.808 183.54 638.928L184.724 640.608C186.404 639.808 187.588 638.192 188.244 636.272C188.9 638.016 190.052 639.488 191.684 640.24L192.852 638.576C190.436 637.456 189.268 634.848 189.268 632.608V631.792ZM197.54 634.256H195.396V628.64H193.284V643.376H195.396V636H197.54V634.256ZM203.283 629.92H201.251V632.4C201.251 634.912 200.467 637.552 198.307 638.864L199.571 640.448C200.899 639.648 201.763 638.24 202.275 636.608C202.739 638.096 203.523 639.344 204.771 640.112L205.923 638.48C203.923 637.152 203.283 634.704 203.283 632.32V629.92ZM206.227 633.616H204.371V635.328H206.227V642.72H208.195V628.88H206.227V633.616ZM209.219 628.64V643.376H211.219V628.64H209.219ZM222.929 631.04H214.961V634.56H225.265V633.136H217.041V632.368H225.009V628.896H214.929V630.32H222.929V631.04ZM216.913 641.024H225.057V637.52H214.801V638.944H222.961V639.696H214.817V643.248H225.457V641.824H216.913V641.024ZM213.297 635.264V636.784H226.641V635.264H213.297ZM232.612 635.936C235.188 635.584 236.996 634.48 237.876 632.976C238.756 634.48 240.564 635.584 243.14 635.936L243.892 634.288C240.9 633.92 239.348 632.48 239.14 631.072H243.316V629.392H232.388V631.072H236.628C236.42 632.48 234.852 633.92 231.844 634.288L232.612 635.936ZM244.532 636.784H231.22V638.464H236.772V643.408H238.884V638.464H244.532V636.784ZM250.658 629.616C248.354 629.616 246.61 631.136 246.61 633.248C246.61 635.376 248.354 636.88 250.658 636.88C252.962 636.88 254.722 635.376 254.722 633.248C254.722 631.136 252.962 629.616 250.658 629.616ZM250.658 631.424C251.794 631.424 252.658 632.096 252.658 633.248C252.658 634.4 251.794 635.072 250.658 635.072C249.522 635.072 248.658 634.4 248.658 633.248C248.658 632.096 249.522 631.424 250.658 631.424ZM256.098 628.624V643.408H258.21V628.624H256.098ZM246.258 640.416C248.802 640.416 252.258 640.384 255.426 639.744L255.298 638.224C252.194 638.688 248.578 638.704 245.986 638.704L246.258 640.416ZM264.897 638.64C263.905 638.64 263.169 637.968 263.169 636.848C263.169 635.728 263.905 635.04 264.897 635.04C265.889 635.04 266.609 635.728 266.609 636.832C266.609 637.968 265.889 638.64 264.897 638.64ZM264.897 633.328C262.753 633.328 261.153 634.784 261.153 636.832C261.153 638.912 262.753 640.368 264.897 640.368C267.025 640.368 268.609 638.912 268.609 636.832C268.609 634.784 267.025 633.328 264.897 633.328ZM265.937 628.896H263.825V630.816H260.561V632.496H269.137V630.816H265.937V628.896ZM274.321 634.4H272.209V628.64H270.097V643.376H272.209V636.144H274.321V634.4ZM280.064 629.92H278.032V632.4C278.032 634.912 277.248 637.552 275.088 638.864L276.352 640.448C277.68 639.648 278.544 638.24 279.056 636.608C279.52 638.096 280.304 639.344 281.552 640.112L282.704 638.48C280.704 637.152 280.064 634.704 280.064 632.32V629.92ZM283.008 633.616H281.152V635.328H283.008V642.72H284.976V628.88H283.008V633.616ZM286 628.64V643.376H288V628.64H286ZM295.119 637.136C295.631 637.232 296.159 637.28 296.735 637.28C297.311 637.28 297.855 637.232 298.367 637.136V639.952H295.119V637.136ZM296.735 631.024C298.783 631.024 300.159 631.856 300.159 633.328C300.159 634.784 298.783 635.632 296.735 635.632C294.687 635.632 293.327 634.784 293.327 633.328C293.327 631.856 294.687 631.024 296.735 631.024ZM300.463 639.952V636.352C301.567 635.664 302.239 634.608 302.239 633.328C302.239 630.912 299.919 629.36 296.735 629.36C293.567 629.36 291.247 630.912 291.247 633.328C291.231 634.608 291.903 635.664 293.023 636.352V639.952H290.079V641.664H303.423V639.952H300.463ZM308.541 630.364L308.246 638.364H305.655L305.359 630.364H308.541ZM306.95 642.182C306.511 642.182 306.134 642.028 305.82 641.722C305.509 641.411 305.356 641.034 305.359 640.591C305.356 640.159 305.509 639.79 305.82 639.483C306.134 639.176 306.511 639.023 306.95 639.023C307.367 639.023 307.734 639.176 308.053 639.483C308.375 639.79 308.537 640.159 308.541 640.591C308.537 640.886 308.46 641.155 308.308 641.398C308.161 641.636 307.967 641.828 307.729 641.972C307.49 642.112 307.231 642.182 306.95 642.182ZM107.442 663.288H104.482V660.024H107.442V663.288ZM107.442 658.376H104.482V654.808H102.386V664.968H109.538V654.808H107.442V658.376ZM115.618 659.128H113.474V653.656H111.362V668.376H113.474V660.888H115.618V659.128ZM126.417 657.896H118.193V662.872H128.833V661.192H120.289V659.544H128.497V654.632H118.177V656.312H126.417V657.896ZM116.657 664.984V666.712H130.001V664.984H116.657ZM138.944 659.272H137.296C137.648 658.072 137.776 656.776 137.776 655.384H132V657.064H135.68C135.424 659.944 134.128 662.072 131.184 663.832L132.384 665.32C134.464 664.104 135.808 662.648 136.64 660.968H138.944V667.72H140.912V653.96H138.944V659.272ZM142.048 653.624V668.36H144.048V653.624H142.048ZM151.426 657.8C151.426 656.712 152.226 656.072 153.314 656.072C154.402 656.072 155.202 656.712 155.202 657.8C155.202 658.888 154.402 659.544 153.314 659.544C152.226 659.544 151.426 658.888 151.426 657.8ZM157.234 657.8C157.234 655.784 155.554 654.344 153.314 654.344C151.074 654.344 149.394 655.784 149.394 657.8C149.394 659.832 151.074 661.272 153.314 661.272C155.554 661.272 157.234 659.832 157.234 657.8ZM161.458 663.688V662.056H155.218V663.688H157.346C157.33 664.888 156.658 666.04 155.09 666.616L154.786 665.672C154.13 665.96 153.394 666.12 152.626 666.2V662.472H150.578V667.96H151.41C152.69 667.96 153.97 667.848 155.106 667.352L155.698 668.312C156.962 667.928 157.81 667.192 158.322 666.264C158.834 667.208 159.698 667.944 160.994 668.312L161.954 666.744C160.114 666.248 159.346 665.032 159.33 663.688H161.458ZM160.866 656.712V653.624H158.754V661.432H160.866V658.44H162.818V656.712H160.866ZM175.873 657.624H167.761V654.168H165.649V659.304H175.873V657.624ZM167.633 663.672H165.505V668.056H175.953V666.376H167.633V663.672ZM164.001 660.808V662.504H177.345V660.808H164.001ZM187.315 656.792H190.243V655.048H182.147V656.792H185.203V657.608C185.203 660.04 184.003 662.808 181.587 663.928L182.771 665.608C184.451 664.808 185.635 663.192 186.291 661.272C186.947 663.016 188.099 664.488 189.731 665.24L190.899 663.576C188.483 662.456 187.315 659.848 187.315 657.608V656.792ZM195.587 659.256H193.443V653.64H191.331V668.376H193.443V661H195.587V659.256ZM201.33 654.92H199.298V657.4C199.298 659.912 198.514 662.552 196.354 663.864L197.618 665.448C198.946 664.648 199.81 663.24 200.322 661.608C200.786 663.096 201.57 664.344 202.818 665.112L203.97 663.48C201.97 662.152 201.33 659.704 201.33 657.32V654.92ZM204.274 658.616H202.418V660.328H204.274V667.72H206.242V653.88H204.274V658.616ZM207.266 653.64V668.376H209.266V653.64H207.266ZM220.976 656.04H213.008V659.56H223.312V658.136H215.088V657.368H223.056V653.896H212.976V655.32H220.976V656.04ZM214.96 666.024H223.104V662.52H212.848V663.944H221.008V664.696H212.864V668.248H223.504V666.824H214.96V666.024ZM211.344 660.264V661.784H224.688V660.264H211.344ZM230.627 661.16C232.339 660.808 233.507 659.992 234.163 658.92C234.819 659.88 235.923 660.616 237.571 660.936L238.387 659.304C236.243 658.92 235.235 657.896 235.171 656.728H238.051V655.096H235.171V653.656H233.059V655.096H230.179V656.728H233.059C232.995 657.976 231.987 659.112 229.779 659.528L230.627 661.16ZM238.643 661.352C235.555 661.768 231.987 661.784 229.299 661.784L229.555 663.496C230.611 663.496 231.795 663.496 233.043 663.448V667.928H235.155V663.32C236.355 663.224 237.587 663.08 238.771 662.872L238.643 661.352ZM239.475 653.64V668.36H241.587V653.64H239.475ZM247.505 663.448C246.705 663.448 246.129 662.808 246.129 661.704C246.129 660.6 246.705 659.944 247.505 659.944C248.305 659.944 248.881 660.6 248.881 661.704C248.881 662.808 248.305 663.448 247.505 663.448ZM247.505 658.184C245.617 658.184 244.273 659.64 244.273 661.704C244.273 663.752 245.617 665.208 247.505 665.208C249.393 665.208 250.737 663.752 250.737 661.704C250.737 659.64 249.393 658.184 247.505 658.184ZM248.545 654.04H246.465V655.864H243.953V657.544H250.993V655.864H248.545V654.04ZM254.609 653.624V659.64H253.489V653.912H251.521V667.752H253.489V661.336H254.609V668.36H256.609V653.624H254.609ZM262.32 665.896H270.384V662.152H260.208V663.704H268.304V664.44H260.224V668.264H270.768V666.696H262.32V665.896ZM262.48 656.376H268.224V657.24H262.48V656.376ZM266.368 659.736V658.792H270.32V653.864H268.224V654.84H262.48V653.864H260.384V658.792H264.256V659.736H258.688V661.384H272.016V659.736H266.368ZM273.759 655.144V656.84H275.743C275.631 659.8 275.055 661.928 273.103 664.088L274.751 665.288C277.375 662.376 277.743 659.208 277.743 655.144H273.759ZM278.255 655.144V656.84H279.823C279.711 660.12 279.183 662.584 277.231 665.048L278.895 666.216C281.471 663.032 281.807 659.4 281.807 655.144H278.255ZM287.023 659.4H285.119V653.624H282.991V668.36H285.119V661.144H287.023V659.4ZM293.166 662.136C293.678 662.232 294.206 662.28 294.782 662.28C295.358 662.28 295.902 662.232 296.414 662.136V664.952H293.166V662.136ZM294.782 656.024C296.83 656.024 298.206 656.856 298.206 658.328C298.206 659.784 296.83 660.632 294.782 660.632C292.734 660.632 291.374 659.784 291.374 658.328C291.374 656.856 292.734 656.024 294.782 656.024ZM298.51 664.952V661.352C299.614 660.664 300.286 659.608 300.286 658.328C300.286 655.912 297.966 654.36 294.782 654.36C291.614 654.36 289.294 655.912 289.294 658.328C289.278 659.608 289.95 660.664 291.07 661.352V664.952H288.126V666.664H301.47V664.952H298.51ZM305.247 663.364V663.091C305.247 662.466 305.296 661.968 305.395 661.597C305.493 661.225 305.639 660.928 305.832 660.705C306.026 660.477 306.262 660.273 306.543 660.091C306.785 659.932 307.001 659.778 307.19 659.631C307.384 659.483 307.535 659.326 307.645 659.159C307.759 658.992 307.815 658.803 307.815 658.591C307.815 658.402 307.77 658.235 307.679 658.091C307.588 657.947 307.465 657.835 307.31 657.756C307.154 657.676 306.982 657.636 306.793 657.636C306.588 657.636 306.399 657.684 306.224 657.778C306.054 657.873 305.916 658.004 305.81 658.17C305.707 658.337 305.656 658.53 305.656 658.75H302.747C302.755 657.917 302.944 657.241 303.315 656.722C303.687 656.199 304.179 655.816 304.793 655.574C305.406 655.328 306.08 655.205 306.815 655.205C307.626 655.205 308.349 655.324 308.986 655.562C309.622 655.797 310.124 656.153 310.491 656.631C310.859 657.104 311.043 657.697 311.043 658.409C311.043 658.867 310.963 659.271 310.804 659.619C310.649 659.964 310.431 660.269 310.151 660.534C309.874 660.795 309.55 661.034 309.179 661.25C308.906 661.409 308.677 661.574 308.491 661.744C308.306 661.911 308.166 662.102 308.071 662.318C307.976 662.53 307.929 662.788 307.929 663.091V663.364H305.247ZM306.634 667.182C306.194 667.182 305.817 667.028 305.503 666.722C305.192 666.411 305.039 666.034 305.043 665.591C305.039 665.159 305.192 664.79 305.503 664.483C305.817 664.176 306.194 664.023 306.634 664.023C307.05 664.023 307.418 664.176 307.736 664.483C308.058 664.79 308.221 665.159 308.224 665.591C308.221 665.886 308.143 666.155 307.991 666.398C307.844 666.636 307.651 666.828 307.412 666.972C307.173 667.112 306.914 667.182 306.634 667.182Z" fill="black"/>
</g>
<path d="M304.472 330.205C305.029 330.208 305.571 330.307 306.097 330.5C306.628 330.689 307.105 331 307.529 331.432C307.953 331.86 308.29 332.434 308.54 333.153C308.79 333.873 308.915 334.763 308.915 335.824C308.919 336.824 308.813 337.718 308.597 338.506C308.385 339.29 308.08 339.953 307.683 340.494C307.285 341.036 306.806 341.449 306.245 341.733C305.684 342.017 305.054 342.159 304.353 342.159C303.618 342.159 302.967 342.015 302.398 341.727C301.834 341.439 301.378 341.045 301.029 340.545C300.681 340.045 300.467 339.473 300.387 338.83H302.461C302.567 339.292 302.783 339.659 303.109 339.932C303.438 340.201 303.853 340.335 304.353 340.335C305.16 340.335 305.781 339.985 306.217 339.284C306.652 338.583 306.87 337.61 306.87 336.364H306.79C306.605 336.697 306.364 336.985 306.069 337.227C305.773 337.466 305.438 337.65 305.063 337.778C304.692 337.907 304.298 337.972 303.881 337.972C303.2 337.972 302.586 337.809 302.04 337.483C301.499 337.157 301.069 336.71 300.751 336.142C300.436 335.574 300.277 334.924 300.273 334.193C300.273 333.436 300.448 332.756 300.796 332.153C301.148 331.547 301.639 331.07 302.268 330.722C302.897 330.369 303.631 330.197 304.472 330.205ZM304.478 331.909C304.069 331.909 303.7 332.009 303.37 332.21C303.044 332.407 302.787 332.676 302.597 333.017C302.412 333.354 302.319 333.731 302.319 334.148C302.323 334.561 302.415 334.936 302.597 335.273C302.783 335.61 303.035 335.877 303.353 336.074C303.675 336.271 304.042 336.369 304.455 336.369C304.762 336.369 305.048 336.311 305.313 336.193C305.578 336.076 305.809 335.913 306.006 335.705C306.207 335.492 306.362 335.252 306.472 334.983C306.586 334.714 306.641 334.43 306.637 334.131C306.637 333.733 306.542 333.366 306.353 333.028C306.167 332.691 305.912 332.42 305.586 332.216C305.264 332.011 304.895 331.909 304.478 331.909ZM312.097 340.602C311.753 340.602 311.457 340.481 311.211 340.239C310.965 339.992 310.844 339.697 310.847 339.352C310.844 339.011 310.965 338.72 311.211 338.477C311.457 338.235 311.753 338.114 312.097 338.114C312.431 338.114 312.72 338.235 312.967 338.477C313.217 338.72 313.344 339.011 313.347 339.352C313.344 339.583 313.283 339.794 313.165 339.983C313.052 340.172 312.9 340.324 312.711 340.438C312.525 340.547 312.321 340.602 312.097 340.602ZM312.097 334.835C311.753 334.835 311.457 334.714 311.211 334.472C310.965 334.225 310.844 333.93 310.847 333.585C310.844 333.244 310.965 332.953 311.211 332.71C311.457 332.464 311.753 332.341 312.097 332.341C312.431 332.341 312.72 332.464 312.967 332.71C313.217 332.953 313.344 333.244 313.347 333.585C313.344 333.812 313.283 334.021 313.165 334.21C313.052 334.4 312.9 334.551 312.711 334.665C312.525 334.778 312.321 334.835 312.097 334.835ZM315.238 339.841V338.165L320.175 330.364H321.573V332.75H320.721L317.397 338.017V338.108H324.289V339.841H315.238ZM320.789 342V339.33L320.812 338.58V330.364H322.8V342H320.789ZM330.681 330.364V342H328.573V332.415H328.505L325.783 334.153V332.222L328.675 330.364H330.681Z" fill="white"/>
<circle cx="207.273" cy="480.727" r="76.2735" fill="#8666FF"/>
<path d="M194.164 524.717C194.164 526.488 192.729 527.924 190.957 527.924C189.186 527.924 187.75 526.488 187.75 524.717V496.173C187.75 494.723 188.323 493.332 189.345 492.303C190.367 491.276 191.754 490.695 193.203 490.685L208.058 490.612H208.171C213.584 490.63 218.972 489.868 224.168 488.349C234.068 485.289 239.442 479.666 240.092 471.639C240.568 465.875 239.193 461.202 236.008 457.74C229.294 450.443 216.775 450.386 216.656 450.386C214.883 450.386 213.443 448.948 213.443 447.175C213.443 445.403 214.879 443.966 216.651 443.966C217.278 443.966 232.128 444.079 240.726 453.418C245.178 458.255 247.113 464.574 246.479 472.199C245.591 482.987 238.475 490.719 225.905 494.555C220.103 496.26 214.082 497.106 208.035 497.066L194.159 497.134L194.164 524.717Z" fill="white"/>
<path d="M195.399 461.462C192.867 461.462 190.392 460.711 188.286 459.305C186.181 457.898 184.54 455.898 183.572 453.559C182.603 451.219 182.35 448.645 182.844 446.162C183.338 443.678 184.558 441.397 186.349 439.607C188.14 437.817 190.421 436.598 192.905 436.105C195.389 435.612 197.963 435.866 200.302 436.836C202.641 437.806 204.64 439.447 206.046 441.553C207.452 443.659 208.201 446.135 208.2 448.667C208.196 452.06 206.846 455.313 204.446 457.712C202.046 460.111 198.792 461.459 195.399 461.462ZM195.399 442.286C194.137 442.287 192.904 442.662 191.856 443.364C190.807 444.066 189.99 445.063 189.508 446.229C189.026 447.395 188.9 448.678 189.147 449.915C189.394 451.152 190.002 452.289 190.895 453.181C191.787 454.072 192.924 454.68 194.162 454.925C195.4 455.171 196.682 455.045 197.848 454.561C199.013 454.078 200.01 453.26 200.711 452.211C201.412 451.162 201.786 449.929 201.786 448.667C201.786 446.973 201.113 445.348 199.915 444.151C198.717 442.953 197.093 442.28 195.399 442.28V442.286Z" fill="white"/>
<path d="M208.506 524.992V507.971C208.506 506.198 207.069 504.76 205.296 504.76C203.523 504.76 202.086 506.198 202.086 507.971V524.992C202.086 526.765 203.523 528.202 205.296 528.202C207.069 528.202 208.506 526.765 208.506 524.992Z" fill="white"/>
<rect x="66" y="625" width="282" height="43" rx="10" fill="#F3EFFF" fill-opacity="0.2"/>
<path d="M153.456 644.973H144.233V643.685H152.934V641.845H144.233V640.613H153.294V638.699H141.873V646.868H153.456V644.973ZM155.023 648.027H140V649.977H143.477V654.963H145.872V649.977H149.205V654.963H151.601V649.977H155.023V648.027Z" fill="white"/>
<path d="M165.289 651.136V648.321H170.009V646.408H160.768V644.642H169.505V642.765H160.768V641.109H169.883V639.177H158.354V648.321H162.912V651.136H156.589V653.105H171.612V651.136H165.289Z" fill="white"/>
<path d="M176.474 646.003H181.86V639.453H174.025V641.385H179.429V644.09H174.043V651.063H175.538C178.546 651.063 180.978 650.952 183.68 650.474L183.428 648.505C181.086 648.91 178.996 649.039 176.474 649.057V646.003ZM184.58 638V655H186.958V638H184.58Z" fill="white"/>
<path d="M192.217 642.379C192.217 641.165 193.081 640.429 194.306 640.429C195.531 640.429 196.432 641.165 196.432 642.379C196.432 643.593 195.531 644.329 194.306 644.329C193.081 644.329 192.217 643.593 192.217 642.379ZM201.223 643.335V646.5H203.601V638.018H201.223V641.404H198.575C198.125 639.637 196.432 638.46 194.306 638.46C191.82 638.46 189.947 640.097 189.947 642.379C189.947 644.66 191.82 646.279 194.306 646.279C196.45 646.279 198.125 645.102 198.575 643.335H201.223ZM195.027 652.884V651.817H203.601V647.218H192.649V649.076H201.241V650.069H192.685V654.761H204.07V652.884H195.027Z" fill="white"/>
<path d="M216.902 639.325H214.524V641.79C214.524 645.083 213.155 648.358 210.255 649.628L211.678 651.633C213.659 650.676 215.01 648.855 215.749 646.592C216.487 648.671 217.766 650.345 219.676 651.228L221.027 649.26C218.217 648.027 216.902 644.936 216.902 641.79V639.325ZM221.837 638V655H224.215V638H221.837Z" fill="white"/>
<path d="M236.949 645.764C234.337 644.899 233.202 642.894 233.148 640.944H236.391V639.012H227.42V640.944H230.717C230.663 643.041 229.492 645.157 226.79 646.058L228.033 647.953C229.942 647.31 231.239 646.003 231.978 644.366C232.698 645.856 233.941 647.052 235.742 647.641L236.949 645.764ZM229.023 650.916H237.724V654.982H240.102V648.984H229.023V650.916ZM242.299 642.103H240.102V638.018H237.724V648.229H240.102V644.108H242.299V642.103Z" fill="white"/>
<path d="M248.404 649.517C247.288 649.517 246.459 648.745 246.459 647.457C246.459 646.169 247.288 645.378 248.404 645.378C249.521 645.378 250.332 646.169 250.332 647.438C250.332 648.745 249.521 649.517 248.404 649.517ZM248.404 643.409C245.991 643.409 244.189 645.083 244.189 647.438C244.189 649.83 245.991 651.504 248.404 651.504C250.8 651.504 252.583 649.83 252.583 647.438C252.583 645.083 250.8 643.409 248.404 643.409ZM249.575 638.313H247.197V640.521H243.523V642.452H253.178V640.521H249.575V638.313ZM259.014 644.642H256.636V638.018H254.259V654.963H256.636V646.647H259.014V644.642Z" fill="white"/>
<path d="M261.102 639.766V641.698H266.633C266.29 645.451 264.453 648.101 260.22 650.18L261.463 652.093C267.353 649.186 269.064 644.955 269.064 639.766H261.102ZM271.604 638V654.945H274V638H271.604Z" fill="white"/>
<defs>
<filter id="filter0_d_685_14263" x="34" y="302" width="346" height="414" filterUnits="userSpaceOnUse" color-interpolation-filters="sRGB">
<feFlood flood-opacity="0" result="BackgroundImageFix"/>
<feColorMatrix in="SourceAlpha" type="matrix" values="0 0 0 0 0 0 0 0 0 0 0 0 0 0 0 0 0 0 127 0" result="hardAlpha"/>
<feOffset dy="5"/>
<feGaussianBlur stdDeviation="7.5"/>
<feComposite in2="hardAlpha" operator="out"/>
<feColorMatrix type="matrix" values="0 0 0 0 0 0 0 0 0 0 0 0 0 0 0 0 0 0 0.15 0"/>
<feBlend mode="normal" in2="BackgroundImageFix" result="effect1_dropShadow_685_14263"/>
<feBlend mode="normal" in="SourceGraphic" in2="effect1_dropShadow_685_14263" result="shape"/>
</filter>
<filter id="filter1_d_685_14263" x="34" y="302" width="346" height="414" filterUnits="userSpaceOnUse" color-interpolation-filters="sRGB">
<feFlood flood-opacity="0" result="BackgroundImageFix"/>
<feColorMatrix in="SourceAlpha" type="matrix" values="0 0 0 0 0 0 0 0 0 0 0 0 0 0 0 0 0 0 127 0" result="hardAlpha"/>
<feOffset dy="5"/>
<feGaussianBlur stdDeviation="7.5"/>
<feComposite in2="hardAlpha" operator="out"/>
<feColorMatrix type="matrix" values="0 0 0 0 0 0 0 0 0 0 0 0 0 0 0 0 0 0 0.15 0"/>
<feBlend mode="normal" in2="BackgroundImageFix" result="effect1_dropShadow_685_14263"/>
<feBlend mode="normal" in="SourceGraphic" in2="effect1_dropShadow_685_14263" result="shape"/>
</filter>
</defs>
</svg>
