<svg width="28" height="50" viewBox="0 0 28 50" fill="none" xmlns="http://www.w3.org/2000/svg">
<path d="M12.0586 35.125H11.1328V37.0469H8.8125V37.8086H11.1328V40.5156H12.0586V35.125ZM3.41016 39.8008L3.91406 40.5391C5.14453 40.0938 6.08789 39.1855 6.5332 37.9961C6.99609 39.0508 7.91602 39.8711 9.07031 40.2812L9.5625 39.5664C8.03906 39.0684 6.96094 37.8145 6.97266 36.4492V35.4648H6.07031V36.4492C6.05859 37.9727 4.98047 39.2793 3.41016 39.8008ZM5.30859 41.7812H11.1445V42.8242H5.33203V45.4023H12.4453V44.6641H6.23438V43.5273H12.0586V41.043H5.30859V41.7812ZM22.4297 35.125H21.5039V37.8438H19.4062V38.6055H21.5039V41.3359H22.4297V35.125ZM13.8398 40.5039L14.3203 41.2422C15.5625 40.7676 16.5293 39.7949 16.9746 38.5762C17.4258 39.6484 18.334 40.5273 19.5 40.9492L19.9805 40.2109C18.457 39.6895 17.4141 38.3945 17.4141 37.0352V36.6602H19.7461V35.8867H14.1328V36.6602H16.4883V37.0469C16.4883 38.5352 15.3867 39.9473 13.8398 40.5039ZM15.4805 43.5977C15.4746 44.8281 16.8047 45.5312 18.9727 45.543C21.1348 45.5312 22.4648 44.8281 22.4648 43.5977C22.4648 42.373 21.1348 41.6582 18.9727 41.6641C16.8047 41.6582 15.4746 42.373 15.4805 43.5977ZM16.3945 43.5977C16.3887 42.8359 17.373 42.3789 18.9727 42.3789C20.5664 42.3789 21.5508 42.8359 21.5508 43.5977C21.5508 44.3535 20.5664 44.8105 18.9727 44.8047C17.373 44.8105 16.3887 44.3535 16.3945 43.5977Z" fill="#8666FF"/>
<path fill-rule="evenodd" clip-rule="evenodd" d="M27.1949 18.4338C26.9349 17.5037 26.2949 16.6938 25.4349 16.2137C25.0549 16.0037 24.7849 15.6537 24.6749 15.2437C24.5649 14.8438 24.6249 14.4037 24.8449 14.0337C24.9849 13.7937 25.1849 13.5938 25.4449 13.4537C27.1849 12.4637 27.8149 10.2937 26.8749 8.57375C26.8549 8.53375 26.8349 8.50375 26.8149 8.46375L25.9349 6.97375C24.8949 5.23375 22.5849 4.62375 20.7749 5.63375C20.3949 5.84375 19.9549 5.90375 19.5349 5.80375C19.1149 5.69375 18.7549 5.43375 18.5349 5.06375C18.3949 4.83375 18.3249 4.58375 18.3149 4.36375C18.3449 3.37375 17.9549 2.40375 17.2549 1.70375C16.5449 0.99375 15.5549 0.59375 14.5449 0.59375H12.7749C11.7649 0.59375 10.8149 0.97375 10.1049 1.66375C9.39489 2.36375 9.00489 3.28375 9.01489 4.24375C8.99489 5.11375 8.25489 5.81375 7.37489 5.81375C7.10489 5.81375 6.83489 5.74375 6.59489 5.60375C4.79489 4.59375 2.48489 5.20375 1.46489 6.93375L0.50489 8.46375C-0.53511 10.2037 0.0848897 12.4437 1.87489 13.4537C2.38489 13.7437 2.70489 14.2738 2.70489 14.8438C2.70489 15.4137 2.38489 15.9438 1.87489 16.2238C0.0848897 17.2337 -0.53511 19.4638 0.50489 21.2138L1.38489 22.6938C1.87489 23.5338 2.69489 24.1737 3.65489 24.4338C4.61489 24.6938 5.65489 24.5837 6.54489 24.1038C6.92489 23.8938 7.37489 23.8337 7.78489 23.9438C8.19489 24.0438 8.55489 24.3138 8.78489 24.6938C8.91489 24.9137 8.99489 25.1737 8.99489 25.4237C8.99489 27.4438 10.6849 29.0837 12.7749 29.0837H14.5449C16.6149 29.0837 18.3049 27.4538 18.3149 25.4338C18.3149 25.0037 18.4849 24.6037 18.7949 24.3037C19.1049 24.0037 19.5249 23.8337 19.9349 23.8337H19.9449C20.2149 23.8438 20.4949 23.9137 20.7349 24.0537C22.5249 25.0537 24.8349 24.4637 25.8749 22.7337L26.8149 21.2138C27.3149 20.3738 27.4549 19.3638 27.1949 18.4338ZM13.6649 19.4937C11.0249 19.4937 8.86489 17.4037 8.86489 14.8438C8.86489 12.2738 11.0149 10.1838 13.6649 10.1838C16.3149 10.1838 18.4649 12.2738 18.4649 14.8438C18.4649 17.4037 16.3149 19.4937 13.6649 19.4937Z" fill="#8666FF"/>
<path fill-rule="evenodd" clip-rule="evenodd" d="M13.6641 12.2437C12.1941 12.2437 10.9941 13.4037 10.9941 14.8337C10.9941 16.2637 12.1941 17.4237 13.6641 17.4237C15.1341 17.4237 16.3341 16.2637 16.3341 14.8337C16.3341 13.4037 15.1441 12.2437 13.6641 12.2437Z" fill="#8666FF"/>
</svg>
