<svg width="42" height="50" viewBox="0 0 42 50" fill="none" xmlns="http://www.w3.org/2000/svg">
<path d="M5.61328 36.6602V35.8633H4.65234V36.6602C4.64648 38.4531 2.625 40.0293 0.820312 40.375L1.24219 41.1484C2.81836 40.7793 4.46484 39.666 5.14453 38.1367C5.81836 39.666 7.4707 40.7852 9.04688 41.1484L9.46875 40.375C7.6582 40.0352 5.61914 38.4473 5.61328 36.6602ZM0.421875 44.125H9.96094V43.3633H0.421875V44.125ZM19.2305 40.7617H12.9609V39.0859H18.8906V38.3477H12.9609V36.8008H19.1133V36.0273H12.0234V41.5117H19.2305V40.7617ZM10.793 44.1836H20.332V43.4219H10.793V44.1836ZM25.2305 36.2852H21.4922V37.0469H24.3516V39.1211H21.5156V42.9766H22.207C23.5254 42.9707 24.7207 42.9355 26.2031 42.6719L26.1328 41.9102C24.7441 42.1562 23.6074 42.1914 22.4062 42.2031V39.8828H25.2305V36.2852ZM25.7344 39.6367H27.0703V44.9922H27.9375V35.3828H27.0703V38.8867H25.7344V39.6367ZM29.1914 45.543H30.0703V35.125H29.1914V45.543ZM35.3203 37.3047V37.1641H37.7109V36.4258H35.332V35.125H34.4062V36.4258H32.0039V37.1641H34.4062V37.3047C34.4062 38.7344 33.293 40.0117 31.7461 40.5039L32.2031 41.2305C33.457 40.8145 34.4297 39.918 34.8867 38.7695C35.3613 39.8066 36.3516 40.6035 37.582 40.9609L38.0156 40.2461C36.457 39.7949 35.3145 38.6289 35.3203 37.3047ZM33.1406 43.6211C33.1348 44.834 34.459 45.5195 36.6562 45.5195C38.8359 45.5195 40.1602 44.834 40.1719 43.6211C40.1602 42.4316 38.8359 41.7344 36.6562 41.7461C34.459 41.7344 33.1348 42.4316 33.1406 43.6211ZM34.0664 43.6211C34.0664 42.9121 35.0332 42.4727 36.6562 42.4727C38.2734 42.4727 39.2578 42.9121 39.2578 43.6211C39.2578 44.3594 38.2734 44.793 36.6562 44.793C35.0332 44.793 34.0664 44.3594 34.0664 43.6211ZM39.2227 41.5234H40.1367V35.1367H39.2227V41.5234Z" fill="#8666FF"/>
<path fill-rule="evenodd" clip-rule="evenodd" d="M21.3847 21.0114C15.2605 21.0114 12.1559 22.0635 12.1559 24.1403C12.1559 26.2359 15.2605 27.2981 21.3847 27.2981C27.5076 27.2981 30.6106 26.246 30.6106 24.1691C30.6106 22.0735 27.5076 21.0114 21.3847 21.0114ZM21.3847 29.454C18.5691 29.454 10 29.454 10 24.1404C10 19.4031 16.498 18.8555 21.3847 18.8555C24.2003 18.8555 32.7666 18.8555 32.7666 24.1691C32.7666 28.9064 26.27 29.454 21.3847 29.454Z" fill="#8666FF"/>
<mask id="mask0_837_16526" style="mask-type:alpha" maskUnits="userSpaceOnUse" x="13" y="0" width="17" height="16">
<path fill-rule="evenodd" clip-rule="evenodd" d="M13.75 0.59375H29.014V15.8557H13.75V0.59375Z" fill="white"/>
</mask>
<g mask="url(#mask0_837_16526)">
<path fill-rule="evenodd" clip-rule="evenodd" d="M21.3834 2.64529C18.3062 2.64529 15.8024 5.1476 15.8024 8.22482C15.7924 11.292 18.2774 13.7929 21.3417 13.8044L21.3834 14.8306V13.8044C24.4592 13.8044 26.9615 11.3006 26.9615 8.22482C26.9615 5.1476 24.4592 2.64529 21.3834 2.64529ZM21.3835 15.8553H21.3375C17.1377 15.8423 13.7357 12.4173 13.75 8.22043C13.75 4.01638 17.1737 0.592773 21.3835 0.592773C25.5918 0.592773 29.014 4.01638 29.014 8.22474C29.014 12.4331 25.5918 15.8553 21.3835 15.8553Z" fill="#8666FF"/>
</g>
<circle cx="21.5" cy="8.09375" r="6.5" fill="#8666FF"/>
<ellipse cx="21.5" cy="24.5938" rx="10.5" ry="4" fill="#8666FF"/>
</svg>
