<svg width="27" height="50" viewBox="0 0 27 50" fill="none" xmlns="http://www.w3.org/2000/svg">
<path d="M16.7539 42.4258H9.58203V45.4023H16.7539V42.4258ZM8.42188 41.6289H17.9141V40.8906H13.625V40.0879C15.4941 40.0176 16.543 39.5254 16.543 38.6172C16.543 37.6504 15.3242 37.1523 13.168 37.1406C11.0059 37.1523 9.78125 37.6504 9.78125 38.6172C9.78125 39.5254 10.8359 40.0176 12.7109 40.0879V40.8906H8.42188V41.6289ZM8.91406 36.7188H17.3633V36.0039H13.625V34.9727H12.7109V36.0039H8.91406V36.7188ZM10.4961 44.6875V43.1406H15.8516V44.6875H10.4961ZM10.7656 38.6172C10.7598 38.0781 11.6387 37.7969 13.168 37.7852C14.6973 37.7969 15.5645 38.0781 15.5703 38.6172C15.5645 39.1504 14.6973 39.4492 13.168 39.4492C11.6387 39.4492 10.7598 39.1504 10.7656 38.6172Z" fill="#8666FF"/>
<path fill-rule="evenodd" clip-rule="evenodd" d="M9 20.6591C9.01484 20.6372 9.02997 20.6155 9.04539 20.594H9V20.6591ZM18.3372 28.9271H20.7952C23.7707 28.9271 26.1905 26.4515 26.1905 23.4094V11.9009C26.1739 10.6071 25.5887 9.41085 24.6012 8.63484L16.1921 1.71791C14.3575 0.21859 11.7959 0.21859 9.95749 1.72055L1.60848 8.63088C0.597909 9.42007 0.0127758 10.619 0 11.9286V23.4094C0 26.4515 2.41974 28.9271 5.39524 28.9271H7.85331C9.16283 28.9271 10.2437 27.9074 10.3816 26.603C10.4085 26.5134 10.4213 26.4186 10.4213 26.3198V22.2803C10.4213 21.7981 10.8109 21.4015 11.2823 21.3989H14.9695C15.4511 21.3989 15.8433 21.7941 15.8433 22.2803V26.3329C15.8433 27.7532 16.9293 28.8928 18.3372 28.9271Z" fill="#8666FF"/>
</svg>
