<svg width="186" height="45" viewBox="0 0 186 45" fill="none" xmlns="http://www.w3.org/2000/svg">
<path d="M3.64122 17.8915C4.99254 7.98178 13.4564 0.59375 23.4578 0.59375H162.339C172.283 0.59375 180.718 7.90057 182.135 17.7439L186 44.5938H0L3.64122 17.8915Z" fill="#F3EFFF"/>
<path d="M35.0898 19.4609V18.3672H38.6641V16.3359H28.8203V18.3672H32.5898V19.4609C32.5703 22.4004 31.0762 25.7012 28.1172 27.0781L29.5625 29.0508C31.6133 28.084 33.0781 26.0918 33.8691 23.748C34.6699 25.877 36.0762 27.6934 38.0586 28.6016L39.4453 26.6484C36.5254 25.291 35.0801 22.166 35.0898 19.4609ZM40.0508 32.3906H42.5508V23.4844H45.168V21.3945H42.5508V14.6172H40.0508V32.3906ZM51.5156 19.0898V16.1406H49.0938V19.207C49.0938 22.2148 48.1172 25.3496 45.4805 26.9805L47.0039 28.8164C48.6152 27.8398 49.6797 26.1504 50.3145 24.1387C50.8809 25.9551 51.8477 27.498 53.3906 28.4258L54.7383 26.4922C52.3066 24.9395 51.5059 21.9707 51.5156 19.0898ZM52.8633 22.6445H55.168V31.5703H57.4922V14.8711H55.168V20.6133H52.8633V22.6445ZM58.8398 32.3906H61.2227V14.6172H58.8398V32.3906ZM83.918 23.4258H67.707V25.418H83.918V23.4258ZM68.3906 20.8867L69.1523 22.7812C72.4043 22.5371 74.6699 21.5898 75.7832 20.1543C76.9062 21.5898 79.1621 22.5371 82.4336 22.7812L83.1953 20.8867C79.3086 20.6426 77.5117 19.4902 77.2188 18.2109H82.3555V16.2773H77.0234V14.6758H74.5625V16.2773H69.2695V18.2109H74.3574C74.0547 19.4902 72.248 20.6426 68.3906 20.8867ZM69.5039 28.7188H79.4648V32.3906H81.9453V26.7656H69.5039V28.7188ZM99.9727 14.6172H97.4922V18.9531H94.7188V20.9648H97.4922V25.1641H99.9727V14.6172ZM84.875 23.2109L86.1641 25.1836C88.2734 24.4609 89.6992 23.0059 90.4805 21.1992C91.252 22.791 92.6094 24.0801 94.5625 24.7148L95.793 22.7617C93.0293 21.8438 91.7598 19.7539 91.7109 17.6836H95.2461V15.6914H85.5977V17.6836H89.1719C89.1133 19.9102 87.7852 22.2344 84.875 23.2109ZM87.7852 28.9922C87.7852 31.1504 90.1094 32.4102 93.8984 32.4102C97.6973 32.4102 100.021 31.1504 100.031 28.9922C100.021 26.834 97.6973 25.5645 93.8984 25.5547C90.1094 25.5645 87.7852 26.834 87.7852 28.9922ZM90.2656 28.9922C90.2656 27.9668 91.5449 27.459 93.8984 27.4688C96.2617 27.459 97.541 27.9668 97.5508 28.9922C97.541 30.0078 96.2617 30.5156 93.8984 30.5156C91.5449 30.5156 90.2656 30.0078 90.2656 28.9922ZM121.789 14.6172H119.309V32.4297H121.789V14.6172ZM107.824 18.1133H113.742V20.9844H107.844V28.2695H109.445C112.688 28.2695 115.334 28.1621 118.254 27.6445L118.039 25.6328C115.432 26.0625 113.137 26.1992 110.422 26.2188V22.957H116.281V16.1016H107.824V18.1133ZM140.441 28.3281H133.488V25.125H138.996V23.1719H136.574V18.0938H139.074V16.1016H125.441V18.0938H127.902V23.1719H125.52V25.125H131.008V28.3281H124.172V30.418H140.441V28.3281ZM130.402 23.1719V18.0938H134.113V23.1719H130.402ZM155.949 23.7969H145.91V21.7656H155.402V19.8125H145.91V17.9375H155.812V15.9258H143.371V25.7695H155.949V23.7969ZM141.457 30.3203H157.727V28.2891H141.457V30.3203Z" fill="#8666FF"/>
</svg>
