<svg width="186" height="44" viewBox="0 0 186 44" fill="none" xmlns="http://www.w3.org/2000/svg">
<path d="M3.64122 17.2977C4.99254 7.38803 13.4564 0 23.4578 0H162.339C172.283 0 180.718 7.30682 182.135 17.1501L186 44H0L3.64122 17.2977Z" fill="#FAF8FF"/>
<path d="M35.0898 18.8672V17.7734H38.6641V15.7422H28.8203V17.7734H32.5898V18.8672C32.5703 21.8066 31.0762 25.1074 28.1172 26.4844L29.5625 28.457C31.6133 27.4902 33.0781 25.498 33.8691 23.1543C34.6699 25.2832 36.0762 27.0996 38.0586 28.0078L39.4453 26.0547C36.5254 24.6973 35.0801 21.5723 35.0898 18.8672ZM40.0508 31.7969H42.5508V22.8906H45.168V20.8008H42.5508V14.0234H40.0508V31.7969ZM51.5156 18.4961V15.5469H49.0938V18.6133C49.0938 21.6211 48.1172 24.7559 45.4805 26.3867L47.0039 28.2227C48.6152 27.2461 49.6797 25.5566 50.3145 23.5449C50.8809 25.3613 51.8477 26.9043 53.3906 27.832L54.7383 25.8984C52.3066 24.3457 51.5059 21.377 51.5156 18.4961ZM52.8633 22.0508H55.168V30.9766H57.4922V14.2773H55.168V20.0195H52.8633V22.0508ZM58.8398 31.7969H61.2227V14.0234H58.8398V31.7969ZM83.918 22.832H67.707V24.8242H83.918V22.832ZM68.3906 20.293L69.1523 22.1875C72.4043 21.9434 74.6699 20.9961 75.7832 19.5605C76.9062 20.9961 79.1621 21.9434 82.4336 22.1875L83.1953 20.293C79.3086 20.0488 77.5117 18.8965 77.2188 17.6172H82.3555V15.6836H77.0234V14.082H74.5625V15.6836H69.2695V17.6172H74.3574C74.0547 18.8965 72.248 20.0488 68.3906 20.293ZM69.5039 28.125H79.4648V31.7969H81.9453V26.1719H69.5039V28.125ZM99.9727 14.0234H97.4922V18.3594H94.7188V20.3711H97.4922V24.5703H99.9727V14.0234ZM84.875 22.6172L86.1641 24.5898C88.2734 23.8672 89.6992 22.4121 90.4805 20.6055C91.252 22.1973 92.6094 23.4863 94.5625 24.1211L95.793 22.168C93.0293 21.25 91.7598 19.1602 91.7109 17.0898H95.2461V15.0977H85.5977V17.0898H89.1719C89.1133 19.3164 87.7852 21.6406 84.875 22.6172ZM87.7852 28.3984C87.7852 30.5566 90.1094 31.8164 93.8984 31.8164C97.6973 31.8164 100.021 30.5566 100.031 28.3984C100.021 26.2402 97.6973 24.9707 93.8984 24.9609C90.1094 24.9707 87.7852 26.2402 87.7852 28.3984ZM90.2656 28.3984C90.2656 27.373 91.5449 26.8652 93.8984 26.875C96.2617 26.8652 97.541 27.373 97.5508 28.3984C97.541 29.4141 96.2617 29.9219 93.8984 29.9219C91.5449 29.9219 90.2656 29.4141 90.2656 28.3984ZM121.789 14.0234H119.309V31.8359H121.789V14.0234ZM107.824 17.5195H113.742V20.3906H107.844V27.6758H109.445C112.688 27.6758 115.334 27.5684 118.254 27.0508L118.039 25.0391C115.432 25.4688 113.137 25.6055 110.422 25.625V22.3633H116.281V15.5078H107.824V17.5195ZM140.441 27.7344H133.488V24.5312H138.996V22.5781H136.574V17.5H139.074V15.5078H125.441V17.5H127.902V22.5781H125.52V24.5312H131.008V27.7344H124.172V29.8242H140.441V27.7344ZM130.402 22.5781V17.5H134.113V22.5781H130.402ZM155.949 23.2031H145.91V21.1719H155.402V19.2188H145.91V17.3438H155.812V15.332H143.371V25.1758H155.949V23.2031ZM141.457 29.7266H157.727V27.6953H141.457V29.7266Z" fill="#8666FF"/>
</svg>
