<svg width="76" height="19" viewBox="0 0 76 19" fill="none" xmlns="http://www.w3.org/2000/svg">
<path d="M18.6101 0C17.9514 0 17.4176 0.532496 17.4176 1.18942V10.1186H14.8956C14.237 10.1186 13.7031 10.6511 13.7031 11.3081C13.7031 11.965 14.237 12.4975 14.8956 12.4975H17.4176V17.576C17.4176 18.233 17.9514 18.7654 18.6101 18.7654C19.2687 18.7654 19.8026 18.233 19.8026 17.576V1.18942C19.8026 0.532496 19.2687 0 18.6101 0Z" fill="#8666FF"/>
<path d="M42.7901 3.56732H54.1078C54.7664 3.56732 55.3003 3.03483 55.3003 2.3779C55.3003 1.72097 54.7664 1.18848 54.1078 1.18848H42.7901C42.1315 1.18848 41.5977 1.72097 41.5977 2.3779C41.5977 3.03483 42.1315 3.56732 42.7901 3.56732Z" fill="#8666FF"/>
<path d="M38.4631 16.3574C38.4631 15.7005 37.9293 15.168 37.2706 15.168H22.5284C21.8698 15.168 21.3359 15.7005 21.3359 16.3574C21.3359 17.0143 21.8698 17.5468 22.5284 17.5468H37.2706C37.9293 17.5468 38.4631 17.0143 38.4631 16.3574Z" fill="#8666FF"/>
<path d="M74.8058 15.168H60.0636C59.405 15.168 58.8711 15.7005 58.8711 16.3574C58.8711 17.0143 59.405 17.5468 60.0636 17.5468H74.8058C75.4644 17.5468 75.9983 17.0143 75.9983 16.3574C75.9983 15.7005 75.4644 15.168 74.8058 15.168Z" fill="#8666FF"/>
<path d="M56.1445 15.1685H49.9741V14.1035C49.9741 13.4466 49.4402 12.9141 48.7816 12.9141C48.123 12.9141 47.5891 13.4466 47.5891 14.1035V15.1685H41.1925C40.5339 15.1685 40 15.701 40 16.3579C40 17.0148 40.5339 17.5473 41.1925 17.5473H56.1445C56.8031 17.5473 57.337 17.0148 57.337 16.3579C57.337 15.701 56.8031 15.1685 56.1445 15.1685Z" fill="#8666FF"/>
<path d="M1.19249 6.53022H12.5101C13.1687 6.53022 13.7026 5.99772 13.7026 5.34079C13.7026 4.68386 13.1687 4.15137 12.5101 4.15137H1.19249C0.533868 4.15137 0 4.68386 0 5.34079C0 5.99772 0.533868 6.53022 1.19249 6.53022Z" fill="#8666FF"/>
<path d="M25.3487 3.56732H31.5008L24.5684 10.247C24.1043 10.6947 24.0235 11.4425 24.4473 11.9281C24.8993 12.4465 25.6875 12.4752 26.1768 12.0043L30.1688 8.15789L33.103 11.8616C33.4558 12.3068 34.079 12.4728 34.5866 12.216C35.2849 11.8628 35.4525 10.9906 34.9932 10.4117L31.8921 6.49697L34.4844 3.99918C34.9651 3.53622 35.1155 2.82866 34.8654 2.21077C34.6153 1.59288 34.0135 1.18848 33.3458 1.18848H25.3487C24.6901 1.18848 24.1562 1.72097 24.1562 2.3779C24.1562 3.03483 24.6901 3.56732 25.3487 3.56732Z" fill="#8666FF"/>
<path d="M62.8845 3.56732H69.0365L62.1042 10.247C61.64 10.6947 61.5593 11.4425 61.9831 11.9281C62.435 12.4465 63.2233 12.4752 63.7125 12.0043L67.704 8.15789L70.6381 11.8616C70.991 12.3068 71.6141 12.4728 72.1217 12.216C72.8201 11.8628 72.9876 10.9906 72.5284 10.4117L69.4273 6.49697L72.0196 3.99918C72.5002 3.53622 72.6507 2.82866 72.4006 2.21077C72.1505 1.59288 71.5487 1.18848 70.8809 1.18848H62.8839C62.2253 1.18848 61.6914 1.72097 61.6914 2.3779C61.6914 3.03483 62.2253 3.56732 62.8839 3.56732H62.8845Z" fill="#8666FF"/>
<path d="M42.7908 12.2152H54.1084C54.767 12.2152 55.3009 11.6827 55.3009 11.0258C55.3009 10.3689 54.767 9.83635 54.1084 9.83635H52.4615V5.57517C52.4615 4.91824 51.9277 4.38574 51.269 4.38574C50.6104 4.38574 50.0766 4.91824 50.0766 5.57517V9.83574H47.0097V5.57517C47.0097 4.91824 46.4759 4.38574 45.8172 4.38574C45.1586 4.38574 44.6247 4.91824 44.6247 5.57517V9.83574H42.7901C42.1315 9.83574 41.5977 10.3682 41.5977 11.0252C41.5977 11.6821 42.1315 12.2146 42.7901 12.2146L42.7908 12.2152Z" fill="#8666FF"/>
<path d="M12.5101 13.4046H10.8633V8.41208C10.8633 7.75515 10.3294 7.22266 9.67078 7.22266C9.01216 7.22266 8.47829 7.75515 8.47829 8.41208V13.4046H5.41145V8.41208C5.41145 7.75515 4.87759 7.22266 4.21897 7.22266C3.56034 7.22266 3.02648 7.75515 3.02648 8.41208V13.4046H1.19249C0.533868 13.4046 0 13.9371 0 14.594C0 15.251 0.533868 15.7835 1.19249 15.7835H12.5101C13.1687 15.7835 13.7026 15.251 13.7026 14.594C13.7026 13.9371 13.1687 13.4046 12.5101 13.4046Z" fill="#8666FF"/>
</svg>
