<svg width="78" height="27" viewBox="0 0 78 27" fill="none" xmlns="http://www.w3.org/2000/svg">
<path d="M56.9827 2.85303H45.7389C45.0849 2.85303 44.5547 3.38323 44.5547 4.03727C44.5547 4.69131 45.0849 5.22152 45.7389 5.22152H56.9827C57.6367 5.22152 58.1669 4.69131 58.1669 4.03727C58.1669 3.38323 57.6367 2.85303 56.9827 2.85303Z" fill="#806CF6"/>
<path d="M20.2469 14.3101H14.0046C13.3505 14.3101 12.8203 14.8403 12.8203 15.4943C12.8203 16.1483 13.3505 16.6785 14.0046 16.6785H20.2469C20.9009 16.6785 21.4311 16.1483 21.4311 15.4943C21.4311 14.8403 20.9009 14.3101 20.2469 14.3101Z" fill="#806CF6"/>
<path d="M21.431 1.8029C21.431 1.14886 20.9008 0.618652 20.2467 0.618652C19.5927 0.618652 19.0625 1.14886 19.0625 1.8029V21.7386C19.0625 22.3927 19.5927 22.9229 20.2467 22.9229C20.9008 22.9229 21.431 22.3927 21.431 21.7386V1.8029Z" fill="#806CF6"/>
<path d="M56.9827 12.0684H45.7389C45.0849 12.0684 44.5547 12.5986 44.5547 13.2526C44.5547 13.9066 45.0849 14.4368 45.7389 14.4368H56.9827C57.6367 14.4368 58.1669 13.9066 58.1669 13.2526C58.1669 12.5986 57.6367 12.0684 56.9827 12.0684Z" fill="#806CF6"/>
<path d="M40.2632 17.9404H25.6178C24.9638 17.9404 24.4336 18.4706 24.4336 19.1247C24.4336 19.7787 24.9638 20.3089 25.6178 20.3089H40.2632C40.9172 20.3089 41.4474 19.7787 41.4474 19.1247C41.4474 18.4706 40.9172 17.9404 40.2632 17.9404Z" fill="#806CF6"/>
<path d="M76.814 17.9404H62.1686C61.5146 17.9404 60.9844 18.4706 60.9844 19.1247C60.9844 19.7787 61.5146 20.3089 62.1686 20.3089H76.814C77.468 20.3089 77.9982 19.7787 77.9982 19.1247C77.9982 18.4706 77.468 17.9404 76.814 17.9404Z" fill="#806CF6"/>
<path d="M59.0088 23.7803H37.9889C37.3349 23.7803 36.8047 24.3105 36.8047 24.9645C36.8047 25.6186 37.3349 26.1488 37.9889 26.1488H59.0088C59.6628 26.1488 60.193 25.6186 60.193 24.9645C60.193 24.3105 59.6628 23.7803 59.0088 23.7803Z" fill="#806CF6"/>
<path d="M55.349 7.09733C55.349 6.44329 54.8188 5.91309 54.1647 5.91309C53.5107 5.91309 52.9805 6.44329 52.9805 7.09733V12.2763C52.9805 12.9303 53.5107 13.4605 54.1647 13.4605C54.8188 13.4605 55.349 12.9303 55.349 12.2763V7.09733Z" fill="#8666FF"/>
<path d="M49.931 7.09733C49.931 6.44329 49.4008 5.91309 48.7467 5.91309C48.0927 5.91309 47.5625 6.44329 47.5625 7.09733V12.2763C47.5625 12.9303 48.0927 13.4605 48.7467 13.4605C49.4008 13.4605 49.931 12.9303 49.931 12.2763V7.09733Z" fill="#8666FF"/>
<path d="M12.428 18.9185H1.18424C0.530204 18.9185 0 19.4487 0 20.1027C0 20.7567 0.530204 21.2869 1.18424 21.2869H12.428C13.082 21.2869 13.6122 20.7567 13.6122 20.1027C13.6122 19.4487 13.082 18.9185 12.428 18.9185Z" fill="#806CF6"/>
<path d="M12.428 9.70361H1.18424C0.530204 9.70361 0 10.2338 0 10.8879C0 11.5419 0.530204 12.0721 1.18424 12.0721H12.428C13.082 12.0721 13.6122 11.5419 13.6122 10.8879C13.6122 10.2338 13.082 9.70361 12.428 9.70361Z" fill="#806CF6"/>
<path d="M10.7904 13.946C10.7904 13.2919 10.2602 12.7617 9.60612 12.7617C8.95208 12.7617 8.42188 13.2919 8.42188 13.946V19.1249C8.42188 19.779 8.95208 20.3092 9.60612 20.3092C10.2602 20.3092 10.7904 19.779 10.7904 19.1249V13.946Z" fill="#8666FF"/>
<path d="M5.3763 13.946C5.3763 13.2919 4.8461 12.7617 4.19206 12.7617C3.53802 12.7617 3.00781 13.2919 3.00781 13.946V19.1249C3.00781 19.779 3.53802 20.3092 4.19206 20.3092C4.8461 20.3092 5.3763 19.779 5.3763 19.1249V13.946Z" fill="#8666FF"/>
<path d="M52.8763 17.1676C52.8763 16.5136 52.3461 15.9834 51.6921 15.9834C51.038 15.9834 50.5078 16.5136 50.5078 17.1676V24.1333C50.5078 24.7874 51.038 25.3176 51.6921 25.3176C52.3461 25.3176 52.8763 24.7874 52.8763 24.1333V17.1676Z" fill="#806CF6"/>
<path d="M27.5676 14.1949C27.4594 14.083 27.3743 13.951 27.3171 13.8062C27.26 13.6615 27.2319 13.5069 27.2345 13.3513C27.2372 13.1957 27.2704 13.0422 27.3324 12.8995C27.3944 12.7568 27.484 12.6276 27.5959 12.5195L34.5295 5.82205H28.4194C28.2637 5.82205 28.1096 5.79135 27.9658 5.73171C27.822 5.67208 27.6913 5.58469 27.5814 5.47452C27.4714 5.36436 27.3842 5.23357 27.3248 5.08967C27.2654 4.94578 27.2349 4.79158 27.2352 4.63591V4.63591C27.2352 4.32183 27.3599 4.0206 27.582 3.79851C27.8041 3.57643 28.1053 3.45166 28.4194 3.45166H36.6619C36.8982 3.45205 37.1289 3.52289 37.3247 3.65511C37.5206 3.78733 37.6725 3.97494 37.7612 4.19395L37.984 4.74734C38.0729 4.96598 38.0943 5.20622 38.0455 5.43713C37.9967 5.66804 37.8799 5.87905 37.7102 6.04302L29.2429 14.2232C29.1311 14.3314 28.999 14.4165 28.8543 14.4737C28.7095 14.5308 28.5549 14.5588 28.3994 14.5562C28.2438 14.5536 28.0902 14.5203 27.9475 14.4583C27.8048 14.3963 27.6757 14.3068 27.5676 14.1949V14.1949Z" fill="#806CF6"/>
<path d="M36.1386 14.1119L31.9531 8.82346L33.8116 7.354L37.999 12.6425C38.194 12.8881 38.2836 13.201 38.2482 13.5126C38.2128 13.8242 38.0553 14.109 37.8101 14.3046V14.3046C37.688 14.4024 37.5477 14.475 37.3974 14.5183C37.247 14.5616 37.0896 14.5747 36.9342 14.5567C36.7788 14.5388 36.6284 14.4903 36.4919 14.414C36.3553 14.3376 36.2352 14.235 36.1386 14.1119V14.1119Z" fill="#806CF6"/>
<path d="M64.1176 14.1949C63.8997 13.9685 63.7806 13.665 63.7863 13.3509C63.7919 13.0369 63.922 12.7379 64.1478 12.5195L71.0814 5.82205H64.9694C64.6551 5.82155 64.3539 5.69636 64.1319 5.47397C63.9099 5.25158 63.7852 4.95016 63.7852 4.63591V4.63591C63.7852 4.32183 63.9099 4.0206 64.132 3.79851C64.3541 3.57643 64.6553 3.45166 64.9694 3.45166H73.2138C73.4498 3.45218 73.6803 3.52309 73.8758 3.65531C74.0712 3.78754 74.2228 3.97509 74.3111 4.19395L74.5359 4.74734C74.6246 4.96616 74.6457 5.20651 74.5965 5.43743C74.5474 5.66835 74.4302 5.87926 74.2602 6.04302L65.7929 14.2232C65.6811 14.3314 65.549 14.4165 65.4043 14.4737C65.2595 14.5308 65.105 14.5588 64.9494 14.5562C64.7938 14.5536 64.6402 14.5203 64.4975 14.4583C64.3548 14.3963 64.2257 14.3068 64.1176 14.1949V14.1949Z" fill="#806CF6"/>
<path d="M72.6933 14.1119L68.5078 8.82346L70.3664 7.354L74.5518 12.6425C74.6486 12.764 74.7205 12.9034 74.7634 13.0527C74.8063 13.202 74.8193 13.3583 74.8018 13.5127C74.7843 13.667 74.7365 13.8164 74.6612 13.9523C74.5859 14.0882 74.4845 14.2079 74.3629 14.3046V14.3046C74.2409 14.4021 74.1007 14.4745 73.9506 14.5176C73.8004 14.5607 73.6432 14.5737 73.488 14.5558C73.3328 14.5379 73.1827 14.4894 73.0463 14.4133C72.9099 14.3371 72.7899 14.2347 72.6933 14.1119V14.1119Z" fill="#806CF6"/>
</svg>
