<svg width="29" height="29" viewBox="0 0 29 29" fill="none" xmlns="http://www.w3.org/2000/svg">
<path d="M21 10.3335C21 8.47698 20.2625 6.6965 18.9497 5.38375C17.637 4.07099 15.8565 3.3335 14 3.3335C12.1435 3.3335 10.363 4.07099 9.05025 5.38375C7.7375 6.6965 7 8.47698 7 10.3335C7 18.5002 3.5 20.8335 3.5 20.8335H24.5C24.5 20.8335 21 18.5002 21 10.3335Z" stroke="#8666FF" stroke-width="2" stroke-linecap="round" stroke-linejoin="round"/>
<path d="M16.0171 25.5C15.812 25.8536 15.5176 26.1471 15.1634 26.3511C14.8092 26.5551 14.4076 26.6625 13.9988 26.6625C13.59 26.6625 13.1884 26.5551 12.8342 26.3511C12.48 26.1471 12.1856 25.8536 11.9805 25.5" stroke="#8666FF" stroke-width="2" stroke-linecap="round" stroke-linejoin="round"/>
<circle cx="26.5" cy="2.5" r="2.5" fill="#8666FF"/>
</svg>
