<svg width="414" height="896" viewBox="0 0 414 896" fill="none" xmlns="http://www.w3.org/2000/svg">
<rect width="414" height="896" fill="white"/>
<path d="M134.84 86.2305H131.742V95.1426H129.838V86.6113H126.791V108.219H129.838V97.7578H131.742V109.336H134.84V86.2305ZM114.553 101.389L114.908 104.055C117.765 104.055 122.487 103.966 126.029 103.217L125.852 100.855C125.318 100.932 124.747 100.995 124.15 101.059V91.4609H125.648V88.8457H114.984V91.4609H116.508V101.389H114.553ZM119.428 101.338V91.4609H121.256V101.262C120.646 101.3 120.024 101.312 119.428 101.338ZM156.6 86.2305H153.35V109.336H156.6V86.2305ZM137.404 102.531L139.131 105.02C141.822 103.89 143.714 101.528 144.742 98.7227C145.796 101.376 147.675 103.585 150.303 104.664L152.055 102.176C148.208 100.589 146.316 96.8184 146.316 93.4668V92.5781H151.115V89.9883H146.291V86.7383H143.066V89.9883H138.166V92.5781H143.092V93.4668C143.079 96.9834 141.2 100.868 137.404 102.531ZM179.604 86.2305H176.531V103.521H179.604V86.2305ZM159.469 98.0625L161.246 100.525C163.29 99.5732 164.674 97.8975 165.486 95.8789C166.248 97.6436 167.492 99.1035 169.346 99.9668L171.148 97.4785C168.178 96.1201 167.022 93.4668 167.035 90.8008V87.7793H163.887V90.8008C163.887 93.5303 162.617 96.5518 159.469 98.0625ZM163.938 108.93H180.188V106.34H167.188V101.49H163.938V108.93ZM169.041 94.1523H171.859V102.836H174.932V86.5859H171.859V91.5117H169.041V94.1523ZM190.953 91.4609V88.0078H187.678V91.4609C187.652 95.8027 185.85 100.259 181.889 102.049L183.92 104.689C186.561 103.395 188.338 100.906 189.328 97.8721C190.293 100.729 192.02 103.039 194.584 104.283L196.564 101.693C192.718 100.03 190.966 95.8027 190.953 91.4609ZM193.975 96.1074H198.52V109.387H201.719V86.2305H198.52V93.4922H193.975V96.1074ZM231.807 99.5605H210.656V102.1H219.568V109.336H222.768V102.1H231.807V99.5605ZM213.145 97.3262H229.293V87.1191H226.043V89.7852H216.344V87.1191H213.145V97.3262ZM216.344 94.7363V92.3242H226.043V94.7363H216.344ZM241.658 91.207H246.33V88.6426H241.709V86.1543H238.434V88.6426H233.787V91.207H238.434C238.434 93.7969 236.72 96.4629 232.975 97.4785L234.523 100.018C237.228 99.2432 239.068 97.5928 240.084 95.498C241.138 97.4023 242.966 98.9258 245.594 99.6367L247.092 97.0723C243.321 96.082 241.671 93.5938 241.658 91.207ZM235.92 103.928H248.234V109.361H251.484V101.338H235.92V103.928ZM248.234 100.398H251.484V94.6348H254.607V91.918H251.484V86.2305H248.234V100.398ZM273.854 86.2305H270.654V109.336H273.854V97.9355H277.256V95.2695H273.854V86.2305ZM255.496 92.2734H269.08V89.6836H263.977V86.5859H260.727V89.6836H255.496V92.2734ZM256.436 99.0781C256.423 102.303 258.937 104.575 262.352 104.588C265.716 104.575 268.242 102.303 268.242 99.0781C268.242 95.8535 265.716 93.5557 262.352 93.5684C258.937 93.5557 256.423 95.8535 256.436 99.0781ZM259.533 99.0781C259.533 97.3008 260.714 96.209 262.352 96.1836C263.964 96.209 265.145 97.3008 265.145 99.0781C265.145 100.868 263.964 101.935 262.352 101.922C260.714 101.935 259.533 100.868 259.533 99.0781ZM297.518 86.2305H294.242V109.336H297.518V86.2305ZM278.17 102.785L279.871 105.375C288.123 101.478 290.573 95.6504 290.586 88.6426H279.414V91.1816H287.285C286.765 96.3105 284.137 99.9668 278.17 102.785Z" fill="#8666FF"/>
<path d="M42.7988 132.922C40.4434 132.931 38.7646 135.075 38.7734 138.441C38.7646 141.843 40.4434 143.987 42.7988 143.979C45.1543 143.987 46.833 141.843 46.8418 138.441C46.833 135.075 45.1543 132.931 42.7988 132.922ZM40.373 138.441C40.3643 135.972 41.3662 134.425 42.7988 134.416C44.2578 134.425 45.2422 135.972 45.2422 138.441C45.2422 140.946 44.2578 142.484 42.7988 142.484C41.3662 142.484 40.3643 140.946 40.373 138.441ZM49.1797 147.494H50.8496V139.32H53.3809V137.914H50.8496V131.744H49.1797V147.494ZM60.5703 133.396H54.6113V134.768H58.9531V137.721H54.6289V143.82H55.7012C57.6611 143.803 59.4189 143.75 61.6074 143.363L61.4668 142.027C59.5684 142.326 57.9512 142.405 56.2461 142.414V139.092H60.5703V133.396ZM62.4863 146.686H64.0156V139.232H66.0547V147.494H67.6543V131.744H66.0547V137.879H64.0156V132.061H62.4863V146.686ZM78.4473 132.658C76.0742 132.649 74.3076 134.214 74.3164 136.438C74.3076 138.635 76.0742 140.208 78.4473 140.199C79.748 140.208 80.8643 139.725 81.6025 138.916H85.5488V141.043H87.2188V131.744H85.5488V133.959H81.6113C80.873 133.142 79.7568 132.649 78.4473 132.658ZM75.916 136.438C75.9072 135.022 76.9707 134.082 78.4473 134.1C79.8799 134.082 80.9434 135.022 80.9434 136.438C80.9434 137.817 79.8799 138.793 78.4473 138.775C76.9707 138.793 75.9072 137.817 75.916 136.438ZM76.6191 144.436C76.6104 146.352 78.6494 147.468 81.9453 147.459C85.2236 147.468 87.2627 146.352 87.2715 144.436C87.2627 142.511 85.2236 141.386 81.9453 141.395C78.6494 141.386 76.6104 142.511 76.6191 144.436ZM78.2539 144.436C78.2451 143.311 79.6338 142.687 81.9453 142.678C84.2568 142.687 85.6367 143.311 85.6367 144.436C85.6367 145.517 84.2568 146.149 81.9453 146.141C79.6338 146.149 78.2451 145.517 78.2539 144.436ZM82.376 135.295H85.5488V137.545H82.376C82.4814 137.202 82.543 136.824 82.543 136.438C82.543 136.033 82.4814 135.646 82.376 135.295ZM95.0762 134.258V132.57H93.4238V134.117C93.4062 136.473 91.9824 138.573 89.5215 139.443L90.418 140.779C92.2549 140.103 93.5908 138.714 94.2764 136.947C94.9619 138.503 96.2539 139.733 97.9766 140.34L98.873 139.021C96.5264 138.248 95.0674 136.323 95.0762 134.258ZM91.6484 144.541C91.6484 146.404 93.6611 147.468 96.9395 147.459C100.174 147.468 102.16 146.404 102.16 144.541C102.16 142.695 100.174 141.614 96.9395 141.623C93.6611 141.614 91.6484 142.695 91.6484 144.541ZM93.3184 144.541C93.3096 143.539 94.6631 142.941 96.9395 142.941C99.1982 142.941 100.534 143.539 100.525 144.541C100.534 145.578 99.1982 146.141 96.9395 146.158C94.6631 146.141 93.3096 145.578 93.3184 144.541ZM100.35 141.254H102.02V137.105H104.305V135.699H102.02V131.744H100.35V141.254ZM112.373 132.008C108.822 131.999 106.739 132.957 106.748 134.715C106.739 136.481 108.822 137.439 112.373 137.439C115.924 137.439 117.989 136.481 117.998 134.715C117.989 132.957 115.924 131.999 112.373 132.008ZM105.201 139.742H119.562V138.406H105.201V139.742ZM106.924 142.203H116.1V143.434H106.941V147.336H118.191V146.053H108.576V144.646H117.752V140.955H106.924V142.203ZM108.488 134.715C108.479 133.783 109.868 133.238 112.373 133.238C114.896 133.238 116.284 133.783 116.275 134.715C116.284 135.69 114.896 136.191 112.373 136.191C109.868 136.191 108.479 135.69 108.488 134.715ZM139.566 144.154H133.15V140.92H137.861V132.816H136.209V135.523H128.475V132.816H126.805V140.92H131.498V144.154H125.152V145.543H139.566V144.154ZM128.475 139.566V136.877H136.209V139.566H128.475ZM148.742 133.08H141.43V140.533H148.742V139.162H152.17V143.24H153.84V131.762H152.17V134.416H148.742V133.08ZM143.082 139.215V134.434H147.107V139.215H143.082ZM143.557 147.16H154.191V145.807H145.244V142.186H143.557V147.16ZM148.742 137.791V135.787H152.17V137.791H148.742ZM161.943 135.752V133.062H160.256V135.752C160.247 138.67 158.621 141.702 156.178 142.871L157.232 144.225C159.052 143.284 160.423 141.368 161.117 139.101C161.812 141.254 163.165 143.029 164.949 143.926L165.969 142.59C163.561 141.509 161.943 138.635 161.943 135.752ZM164.229 138.336H167.744V147.529H169.396V131.744H167.744V136.982H164.229V138.336ZM189.77 131.744H188.17V138.002H186.307V132.061H184.725V146.686H186.307V139.373H188.17V147.494H189.77V131.744ZM176.041 142.291L176.234 143.697C178.265 143.697 181.561 143.627 184.039 143.152L183.951 141.922C183.477 141.983 182.967 142.036 182.439 142.089V135.031H183.688V133.66H176.375V135.031H177.623V142.282C177.043 142.291 176.507 142.291 176.041 142.291ZM179.152 142.256V135.031H180.91V142.186C180.321 142.221 179.732 142.238 179.152 142.256ZM204.816 131.744H203.146V147.494H204.816V131.744ZM192.002 143.188L192.934 144.471C194.762 143.645 196.194 141.896 196.906 139.786C197.636 141.772 199.077 143.416 200.896 144.207L201.811 142.924C199.358 141.887 197.706 139.32 197.697 136.807V135.77H201.23V134.434H197.697V132.061H196.045V134.434H192.477V135.77H196.062V136.807C196.054 139.443 194.437 142.098 192.002 143.188ZM225.154 131.744H223.572V143.557H225.154V131.744ZM211.689 140.076L212.621 141.359C214.098 140.656 215.135 139.338 215.706 137.826C216.233 139.188 217.2 140.313 218.598 140.955L219.529 139.672C217.517 138.793 216.488 136.93 216.488 135.084V132.834H214.871V135.084C214.88 136.947 213.764 139.092 211.689 140.076ZM214.713 147.16H225.611V145.807H216.365V142.115H214.713V147.16ZM218.123 136.982H220.426V143.1H222.025V132.025H220.426V135.611H218.123V136.982ZM232.959 135.752V133.062H231.271V135.752C231.263 138.67 229.637 141.702 227.193 142.871L228.248 144.225C230.067 143.284 231.438 141.368 232.133 139.101C232.827 141.254 234.181 143.029 235.965 143.926L236.984 142.59C234.576 141.509 232.959 138.635 232.959 135.752ZM235.244 138.336H238.76V147.529H240.412V131.744H238.76V136.982H235.244V138.336ZM257.234 138.969H242.82V140.252H257.234V138.969ZM244.525 142.555H253.807V143.715H244.543V147.301H255.951V146.123H246.213V144.822H255.459V141.359H244.525V142.555ZM244.631 133.326H253.754V134.451H244.666V137.932H255.688V136.754H246.318V135.559H255.424V132.148H244.631V133.326ZM275.463 141.342H270.787V139.848H277.15V138.529H262.789V139.848H269.117V141.342H264.564V147.336H275.674V146.088H266.217V144.893H275.111V143.715H266.217V142.537H275.463V141.342ZM264.67 137.352H275.287V132.008H273.617V133.432H266.322V132.008H264.67V137.352ZM266.322 136.068V134.697H273.617V136.068H266.322ZM282.617 132.922C280.271 132.931 278.609 135.075 278.627 138.441C278.609 141.843 280.271 143.987 282.617 143.979C284.138 143.987 285.368 143.064 286.045 141.482H289.824V147.529H291.477V131.744H289.824V135.172H285.931C285.236 133.748 284.059 132.931 282.617 132.922ZM280.209 138.441C280.218 135.972 281.193 134.425 282.617 134.416C284.041 134.425 285.017 135.972 285.025 138.441C285.017 140.946 284.041 142.484 282.617 142.484C281.193 142.484 280.218 140.946 280.209 138.441ZM286.405 136.543H289.824V140.111H286.449C286.555 139.593 286.607 139.039 286.607 138.441C286.607 137.756 286.528 137.123 286.405 136.543ZM308.264 140.621H293.902V141.975H300.23V147.477H301.865V141.975H308.264V140.621ZM294.711 138.107L295.344 139.426C297.893 139.021 300.116 137.747 301.083 135.954C302.041 137.747 304.273 139.021 306.857 139.426L307.473 138.107C304.493 137.703 302.067 135.954 302.041 134.012H306.91V132.676H295.238V134.012H300.143C300.09 135.954 297.646 137.703 294.711 138.107ZM314.258 136.051V133.186H312.641V136.121C312.649 138.802 311.472 141.588 309.248 142.924L310.285 144.172C311.814 143.24 312.904 141.535 313.476 139.54C314.021 141.359 315.014 142.933 316.49 143.82L317.422 142.537C315.312 141.245 314.258 138.564 314.258 136.051ZM315.717 138.67H318.16V146.721H319.742V132.043H318.16V137.281H315.717V138.67ZM321.412 147.494H323.012V131.744H321.412V147.494ZM339.43 144.137H335.984V139.988C337.25 139.276 338.006 138.16 338.006 136.771C338.006 134.293 335.571 132.667 332.188 132.658C328.812 132.667 326.378 134.293 326.387 136.771C326.378 138.187 327.169 139.312 328.461 140.023V144.137H325.016V145.525H339.43V144.137ZM328.004 136.771C328.004 135.075 329.718 133.994 332.188 133.994C334.64 133.994 336.38 135.075 336.389 136.771C336.38 138.459 334.64 139.558 332.188 139.566C329.718 139.558 328.004 138.459 328.004 136.771ZM330.113 144.137V140.639C330.746 140.788 331.449 140.867 332.188 140.867C332.943 140.867 333.655 140.788 334.297 140.639V144.137H330.113ZM342.365 146.123C343.042 146.114 343.604 145.561 343.613 144.875C343.604 144.189 343.042 143.627 342.365 143.627C341.68 143.627 341.108 144.189 341.117 144.875C341.108 145.561 341.68 146.114 342.365 146.123ZM50.9551 156.744H49.2852V165.955H50.9551V162.035H53.2402V160.629H50.9551V156.744ZM38.4922 164.531L39.1777 165.814C43.8535 164.61 46.5869 161.763 46.5957 157.711H39.248V159.064H44.8027C44.5127 161.543 42.2715 163.538 38.4922 164.531ZM40.5488 167.994H49.2852V172.494H50.9551V166.641H40.5488V167.994ZM72.9277 166.008H58.5137V167.326H64.8594V172.494H66.4941V167.326H72.9277V166.008ZM60.3066 164.215H71.1172V157.377H69.4473V159.434H61.959V157.377H60.3066V164.215ZM61.959 162.879V160.77H69.4473V162.879H61.959ZM79.2559 157.465C76.8916 157.456 75.1865 158.783 75.1953 160.734C75.1865 162.668 76.8916 164.004 79.2559 163.986C81.6289 164.004 83.3428 162.668 83.3516 160.734C83.3428 158.783 81.6289 157.456 79.2559 157.465ZM74.0703 165.217L74.2988 166.605C75.5469 166.597 76.9883 166.588 78.5176 166.518V172.002H80.1875V166.421C81.6377 166.324 83.123 166.157 84.5645 165.885L84.4414 164.637C80.9961 165.155 76.9795 165.217 74.0703 165.217ZM76.8125 160.734C76.7949 159.583 77.8232 158.81 79.2559 158.818C80.7236 158.81 81.752 159.583 81.752 160.734C81.752 161.877 80.7236 162.633 79.2559 162.615C77.8232 162.633 76.7949 161.877 76.8125 160.734ZM85.5312 172.494H87.1836V156.762H85.5312V172.494ZM103.197 156.744H101.598V172.494H103.197V156.744ZM89.8203 163.547C89.8203 166.966 91.1562 169.11 93.2129 169.102C95.1641 169.11 96.4736 167.203 96.623 164.127H98.3984V171.721H99.998V157.043H98.3984V162.773H96.6143C96.4209 159.82 95.1289 158.001 93.2129 158.01C91.1562 158.001 89.8203 160.137 89.8203 163.547ZM91.3672 163.547C91.3672 161.033 92.0791 159.565 93.2129 159.574C94.373 159.565 95.0938 161.033 95.0938 163.547C95.0938 166.052 94.373 167.528 93.2129 167.52C92.0791 167.528 91.3672 166.052 91.3672 163.547ZM123.992 166.008H109.578V167.326H115.924V172.494H117.559V167.326H123.992V166.008ZM111.371 164.215H122.182V157.377H120.512V159.434H113.023V157.377H111.371V164.215ZM113.023 162.879V160.77H120.512V162.879H113.023ZM130.672 160.154V159.926H134.1V158.59H130.689V156.691H129.02V158.59H125.592V159.926H129.02V160.154C129.02 162.167 127.543 164.03 125.135 164.76L125.961 166.061C127.807 165.472 129.178 164.224 129.872 162.624C130.566 164.083 131.911 165.234 133.713 165.779L134.504 164.443C132.096 163.767 130.672 162.009 130.672 160.154ZM127.121 168.486H135.857V172.512H137.527V167.133H127.121V168.486ZM135.857 166.377H137.527V162.264H139.812V160.84H137.527V156.744H135.857V166.377ZM147.881 157.008C144.33 156.999 142.247 157.957 142.256 159.715C142.247 161.481 144.33 162.439 147.881 162.439C151.432 162.439 153.497 161.481 153.506 159.715C153.497 157.957 151.432 156.999 147.881 157.008ZM140.709 164.742H155.07V163.406H140.709V164.742ZM142.432 167.203H151.607V168.434H142.449V172.336H153.699V171.053H144.084V169.646H153.26V165.955H142.432V167.203ZM143.996 159.715C143.987 158.783 145.376 158.238 147.881 158.238C150.403 158.238 151.792 158.783 151.783 159.715C151.792 160.69 150.403 161.191 147.881 161.191C145.376 161.191 143.987 160.69 143.996 159.715ZM165.441 157.447C163.13 157.447 161.513 158.713 161.521 160.594C161.513 162.22 162.77 163.406 164.65 163.67V165.129C163.2 165.182 161.82 165.19 160.643 165.182L160.818 166.535C163.525 166.544 167.234 166.482 170.539 165.885L170.416 164.654C169.115 164.848 167.709 164.979 166.32 165.059V163.652C168.148 163.362 169.361 162.193 169.379 160.594C169.361 158.713 167.744 157.447 165.441 157.447ZM162.875 172.16H173.615V170.789H164.545V167.748H162.875V172.16ZM163.086 160.594C163.068 159.451 164.053 158.73 165.441 158.73C166.839 158.73 167.797 159.451 167.797 160.594C167.797 161.71 166.839 162.439 165.441 162.439C164.053 162.439 163.068 161.71 163.086 160.594ZM171.383 168.803H173.053V163.371H175.303V161.965H173.053V156.762H171.383V168.803ZM190.631 169.207H186.852V166.43H189.242V165.059H179.627V162.773H188.873V157.852H177.939V159.223H187.221V161.42H177.975V166.43H180.154V169.207H176.217V170.613H190.631V169.207ZM181.771 169.207V166.43H185.217V169.207H181.771ZM205.203 156.762H203.621V160.998H201.828V156.99H200.264V166.271H201.828V162.352H203.621V166.5H205.203V156.762ZM191.686 159.785H199.648V158.449H196.52V156.814H194.867V158.449H191.686V159.785ZM192.301 163.213C192.301 164.821 193.707 165.92 195.676 165.92C197.688 165.92 199.086 164.821 199.086 163.213C199.086 161.552 197.688 160.488 195.676 160.488C193.707 160.488 192.301 161.552 192.301 163.213ZM192.74 171.035L193.531 172.301C195.017 171.782 196.08 170.78 196.651 169.594C197.135 170.833 198.084 171.896 199.596 172.441C201.055 171.879 201.995 170.745 202.479 169.523C203.032 170.771 204.096 171.791 205.66 172.301L206.451 171.035C204.412 170.455 203.313 168.943 203.322 167.432V166.957H201.67V167.432C201.67 168.557 200.976 169.98 199.552 170.842C198.146 170.051 197.495 168.715 197.504 167.432V166.957H195.869V167.432C195.86 168.855 194.735 170.402 192.74 171.035ZM193.795 163.213C193.795 162.272 194.56 161.71 195.676 161.719C196.81 161.71 197.583 162.272 197.574 163.213C197.583 164.109 196.81 164.681 195.676 164.689C194.56 164.681 193.795 164.109 193.795 163.213ZM214.502 157.693C211.206 157.693 208.692 159.442 208.701 162.088C208.692 164.751 211.206 166.491 214.502 166.482C217.807 166.491 220.32 164.751 220.32 162.088C220.32 159.442 217.807 157.693 214.502 157.693ZM207.33 170.455H221.744V169.066H207.33V170.455ZM210.301 162.088C210.292 160.26 212.085 159.038 214.502 159.047C216.91 159.038 218.694 160.26 218.703 162.088C218.694 163.925 216.91 165.111 214.502 165.111C212.085 165.111 210.292 163.925 210.301 162.088ZM230.92 158.08H223.607V165.533H230.92V164.162H234.348V168.24H236.018V156.762H234.348V159.416H230.92V158.08ZM225.26 164.215V159.434H229.285V164.215H225.26ZM225.734 172.16H236.369V170.807H227.422V167.186H225.734V172.16ZM230.92 162.791V160.787H234.348V162.791H230.92ZM255.23 156.762H253.561V167.361H255.23V162.809H257.48V161.438H255.23V156.762ZM242.732 165.604L242.908 166.939C245.686 166.939 249.421 166.913 252.805 166.324L252.664 165.129C251.346 165.322 249.922 165.437 248.516 165.507V164.505C250.291 164.294 251.407 163.45 251.416 162.193C251.407 160.752 249.931 159.855 247.672 159.873C245.413 159.855 243.91 160.752 243.928 162.193C243.91 163.459 245.053 164.303 246.846 164.505V165.568C245.369 165.604 243.954 165.604 242.732 165.604ZM243.137 159.346H252.225V158.098H248.516V156.621H246.846V158.098H243.137V159.346ZM244.701 169.4H253.561V172.494H255.23V168.1H244.701V169.4ZM245.51 162.193C245.51 161.438 246.327 160.998 247.672 161.016C248.999 160.998 249.825 161.438 249.816 162.193C249.825 162.932 248.999 163.415 247.672 163.406C246.327 163.415 245.51 162.932 245.51 162.193ZM271.455 156.762H269.785V168.205H271.455V156.762ZM258.711 161.719C258.72 164.03 260.53 165.639 262.912 165.639C265.285 165.639 267.096 164.03 267.096 161.719C267.096 159.442 265.285 157.825 262.912 157.816C260.53 157.825 258.72 159.442 258.711 161.719ZM260.346 161.719C260.337 160.269 261.444 159.275 262.912 159.275C264.354 159.275 265.461 160.269 265.461 161.719C265.461 163.204 264.354 164.18 262.912 164.18C261.444 164.18 260.337 163.204 260.346 161.719ZM261.154 172.16H271.93V170.807H262.842V167.045H261.154V172.16ZM281.123 157.008C277.572 156.999 275.489 157.957 275.498 159.715C275.489 161.481 277.572 162.439 281.123 162.439C284.674 162.439 286.739 161.481 286.748 159.715C286.739 157.957 284.674 156.999 281.123 157.008ZM273.951 164.742H288.312V163.406H273.951V164.742ZM275.674 167.203H284.85V168.434H275.691V172.336H286.941V171.053H277.326V169.646H286.502V165.955H275.674V167.203ZM277.238 159.715C277.229 158.783 278.618 158.238 281.123 158.238C283.646 158.238 285.034 158.783 285.025 159.715C285.034 160.69 283.646 161.191 281.123 161.191C278.618 161.191 277.229 160.69 277.238 159.715ZM306.611 160.33H297.436V156.973H295.801V161.684H306.611V160.33ZM293.885 164.268H300.248V165.779H295.643V167.062H304.836V168.363H295.678V172.336H307.033V171.035H297.348V169.541H306.488V165.779H301.865V164.268H308.299V162.896H293.885V164.268ZM322.572 156.744H320.92V162.668H318.037V164.057H320.92V172.529H322.572V156.744ZM310.004 159.521H315.488V162.439H310.039V168.785H311.287C314.064 168.768 316.139 168.671 318.494 168.258L318.354 166.887C316.156 167.282 314.223 167.361 311.709 167.379V163.793H317.105V158.168H310.004V159.521ZM339.377 165.621H325.016V166.975H331.344V172.477H332.979V166.975H339.377V165.621ZM325.824 163.107L326.457 164.426C329.006 164.021 331.229 162.747 332.196 160.954C333.154 162.747 335.387 164.021 337.971 164.426L338.586 163.107C335.606 162.703 333.181 160.954 333.154 159.012H338.023V157.676H326.352V159.012H331.256C331.203 160.954 328.76 162.703 325.824 163.107ZM345.371 161.051V158.186H343.754V161.121C343.763 163.802 342.585 166.588 340.361 167.924L341.398 169.172C342.928 168.24 344.018 166.535 344.589 164.54C345.134 166.359 346.127 167.933 347.604 168.82L348.535 167.537C346.426 166.245 345.371 163.564 345.371 161.051ZM346.83 163.67H349.273V171.721H350.855V157.043H349.273V162.281H346.83V163.67ZM352.525 172.494H354.125V156.744H352.525V172.494ZM370.543 169.137H367.098V164.988C368.363 164.276 369.119 163.16 369.119 161.771C369.119 159.293 366.685 157.667 363.301 157.658C359.926 157.667 357.491 159.293 357.5 161.771C357.491 163.187 358.282 164.312 359.574 165.023V169.137H356.129V170.525H370.543V169.137ZM359.117 161.771C359.117 160.075 360.831 158.994 363.301 158.994C365.753 158.994 367.493 160.075 367.502 161.771C367.493 163.459 365.753 164.558 363.301 164.566C360.831 164.558 359.117 163.459 359.117 161.771ZM361.227 169.137V165.639C361.859 165.788 362.562 165.867 363.301 165.867C364.057 165.867 364.769 165.788 365.41 165.639V169.137H361.227ZM373.479 171.123C374.155 171.114 374.718 170.561 374.727 169.875C374.718 169.189 374.155 168.627 373.479 168.627C372.793 168.627 372.222 169.189 372.23 169.875C372.222 170.561 372.793 171.114 373.479 171.123Z" fill="#6662A8"/>
</svg>
