<svg width="414" height="896" viewBox="0 0 414 896" fill="none" xmlns="http://www.w3.org/2000/svg">
<rect width="414" height="896" fill="white"/>
<path d="M158.76 86.2305H155.688V109.336H158.76V86.2305ZM138.295 102.582L140.25 104.969C142.37 103.674 143.767 101.389 144.554 98.6973C145.341 101.186 146.687 103.242 148.756 104.461L150.66 102.074C147.283 100.145 146.077 96.2598 146.09 92.4258V91.1816H149.594V88.5918H139.184V91.1816H142.967V92.4258C142.967 96.3486 141.697 100.487 138.295 102.582ZM147.943 96.7676H150.99V108.27H154.037V86.6113H150.99V94.1523H147.943V96.7676ZM182.322 97.0469H161.248V99.6113H170.16V101.592H163.686V109.082H179.809V101.592H173.385V99.6113H182.322V97.0469ZM163.102 89.4551H166.098V92.9844H163.254V95.5742H180.291V92.9844H177.422V89.4551H180.443V86.8652H163.102V89.4551ZM166.885 106.492V104.105H176.635V106.492H166.885ZM169.348 92.9844V89.4551H174.172V92.9844H169.348ZM208.195 86.2559H204.945V101.947H208.195V95.5234H211.141V92.8574H208.195V86.2559ZM189.457 98.9766L189.787 101.49C193.862 101.49 199.22 101.439 204.107 100.576L203.879 98.3418C202.102 98.5703 200.197 98.71 198.293 98.8115V97.6182C200.769 97.2627 202.317 96.0439 202.33 94.2793C202.317 92.1338 200.07 90.8135 196.668 90.8262C193.24 90.8135 190.993 92.1338 191.006 94.2793C190.993 96.0439 192.555 97.2754 195.068 97.6309V98.9258C193.062 98.9766 191.146 98.9766 189.457 98.9766ZM190.066 90.293H203.295V87.9316H198.293V86.0527H195.068V87.9316H190.066V90.293ZM192.402 105.375H204.945V109.336H208.195V102.887H192.402V105.375ZM194.104 94.2793C194.091 93.3779 195.018 92.9844 196.668 92.9844C198.293 92.9844 199.22 93.3779 199.232 94.2793C199.22 95.1172 198.293 95.6123 196.668 95.5996C195.018 95.6123 194.091 95.1172 194.104 94.2793ZM231.529 86.2559H228.279V102.861H231.529V86.2559ZM212.537 93.543C212.537 96.9834 215.305 99.4082 218.859 99.4082C222.401 99.4082 225.169 96.9834 225.182 93.543C225.169 90.1533 222.401 87.7158 218.859 87.7285C215.305 87.7158 212.537 90.1533 212.537 93.543ZM215.711 93.543C215.686 91.6641 217.044 90.5342 218.859 90.5469C220.611 90.5342 221.97 91.6641 221.982 93.543C221.97 95.4727 220.611 96.5898 218.859 96.5898C217.044 96.5898 215.686 95.4727 215.711 93.543ZM216.041 108.93H232.139V106.34H219.316V101.186H216.041V108.93ZM252.883 86.2305H249.684V109.336H252.883V97.9355H256.285V95.2695H252.883V86.2305ZM234.525 92.2734H248.109V89.6836H243.006V86.5859H239.756V89.6836H234.525V92.2734ZM235.465 99.0781C235.452 102.303 237.966 104.575 241.381 104.588C244.745 104.575 247.271 102.303 247.271 99.0781C247.271 95.8535 244.745 93.5557 241.381 93.5684C237.966 93.5557 235.452 95.8535 235.465 99.0781ZM238.562 99.0781C238.562 97.3008 239.743 96.209 241.381 96.1836C242.993 96.209 244.174 97.3008 244.174 99.0781C244.174 100.868 242.993 101.935 241.381 101.922C239.743 101.935 238.562 100.868 238.562 99.0781ZM276.547 86.2305H273.271V109.336H276.547V86.2305ZM257.199 102.785L258.9 105.375C267.152 101.478 269.603 95.6504 269.615 88.6426H258.443V91.1816H266.314C265.794 96.3105 263.166 99.9668 257.199 102.785Z" fill="#8666FF"/>
<path d="M79.1328 126.744H77.5332V133.002H75.6699V127.061H74.0879V141.686H75.6699V134.373H77.5332V142.494H79.1328V126.744ZM65.4043 137.291L65.5977 138.697C67.6279 138.697 70.9238 138.627 73.4023 138.152L73.3145 136.922C72.8398 136.983 72.3301 137.036 71.8027 137.089V130.031H73.0508V128.66H65.7383V130.031H66.9863V137.282C66.4062 137.291 65.8701 137.291 65.4043 137.291ZM68.5156 137.256V130.031H70.2734V137.186C69.6846 137.221 69.0957 137.238 68.5156 137.256ZM89.627 128.344H82.2793V129.697H87.9658C87.9043 130.594 87.7549 131.446 87.5 132.246L81.4883 132.633L81.7168 134.092L86.9639 133.608C85.9795 135.612 84.2305 137.309 81.4004 138.68L82.2969 139.98C88.0801 137.159 89.6182 132.984 89.627 128.344ZM92.5449 142.494H94.2324V126.744H92.5449V142.494ZM102.494 131.385V129.715H106.08V128.326H97.2031V129.715H100.807V131.385C100.789 134.101 99.0312 137.054 96.6582 138.17L97.625 139.488C99.4619 138.592 100.938 136.676 101.668 134.426C102.397 136.526 103.874 138.267 105.729 139.084L106.643 137.783C104.217 136.746 102.485 134.021 102.494 131.385ZM108.066 142.494H109.736V126.744H108.066V142.494ZM129.02 126.744H127.35V136.236H129.02V132.141H131.305V130.77H129.02V126.744ZM117.26 135.234H124.678V127.729H123.025V130.084H118.895V127.729H117.26V135.234ZM118.613 138.381H127.35V142.494H129.02V137.027H118.613V138.381ZM118.895 133.898V131.402H123.025V133.898H118.895ZM140.199 128.977V127.781H138.441V128.977C138.433 131.543 135.717 133.951 132.729 134.514L133.467 135.902C135.989 135.34 138.301 133.696 139.338 131.49C140.357 133.705 142.669 135.357 145.191 135.902L145.965 134.514C142.933 133.969 140.199 131.543 140.199 128.977ZM132.201 140.42H146.615V139.031H132.201V140.42ZM160.133 126.727H158.463V138.311H160.133V132.844H162.418V131.438H160.133V126.727ZM148.004 131.736C147.986 134.03 149.814 135.665 152.188 135.656C154.569 135.665 156.371 134.03 156.389 131.736C156.371 129.442 154.569 127.825 152.188 127.816C149.814 127.825 147.986 129.442 148.004 131.736ZM149.639 131.736C149.621 130.269 150.746 129.275 152.188 129.275C153.646 129.275 154.745 130.269 154.754 131.736C154.745 133.204 153.646 134.197 152.188 134.197C150.746 134.197 149.621 133.204 149.639 131.736ZM150.148 142.16H160.801V140.807H151.818V137.098H150.148V142.16ZM176.867 126.744H175.268V142.494H176.867V126.744ZM163.49 133.547C163.49 136.966 164.826 139.11 166.883 139.102C168.834 139.11 170.144 137.203 170.293 134.127H172.068V141.721H173.668V127.043H172.068V132.773H170.284C170.091 129.82 168.799 128.001 166.883 128.01C164.826 128.001 163.49 130.137 163.49 133.547ZM165.037 133.547C165.037 131.033 165.749 129.565 166.883 129.574C168.043 129.565 168.764 131.033 168.764 133.547C168.764 136.052 168.043 137.528 166.883 137.52C165.749 137.528 165.037 136.052 165.037 133.547ZM188.75 131.385V129.715H192.178V128.326H183.547V129.715H187.098V131.385C187.089 134.048 185.357 137.019 182.967 138.17L183.951 139.488C185.744 138.592 187.221 136.649 187.941 134.408C188.653 136.465 190.06 138.24 191.826 139.084L192.775 137.783C190.385 136.649 188.741 133.872 188.75 131.385ZM193.865 142.494H195.535V134.391H198.066V132.984H195.535V126.744H193.865V142.494ZM203.621 131.051V128.186H202.004V131.121C202.013 133.802 200.835 136.588 198.611 137.924L199.648 139.172C201.178 138.24 202.268 136.535 202.839 134.54C203.384 136.359 204.377 137.933 205.854 138.82L206.785 137.537C204.676 136.245 203.621 133.564 203.621 131.051ZM205.08 133.67H207.523V141.721H209.105V127.043H207.523V132.281H205.08V133.67ZM210.775 142.494H212.375V126.744H210.775V142.494ZM233.135 134.654H218.773V135.99H233.135V134.654ZM219.547 132.58L220.074 133.863C222.772 133.608 224.97 132.694 225.945 131.218C226.912 132.694 229.101 133.608 231.816 133.863L232.344 132.58C229.18 132.334 227.026 131.174 226.868 129.609H231.693V128.291H226.771V126.727H225.119V128.291H220.215V129.609H225.022C224.847 131.174 222.685 132.334 219.547 132.58ZM220.373 138.855H229.689V142.494H231.377V137.52H220.373V138.855ZM247.461 126.744H245.791V130.752H242.855V132.123H245.791V136.113H247.461V126.744ZM234.33 134.689L235.209 136.025C237.09 135.331 238.47 133.916 239.155 132.158C239.841 133.714 241.142 134.979 242.908 135.586L243.77 134.268C241.388 133.459 239.964 131.517 239.973 129.521V129.188H243.348V127.834H234.857V129.188H238.268V129.539C238.276 131.71 236.773 133.837 234.33 134.689ZM236.861 139.523C236.853 141.396 238.874 142.485 242.188 142.494C245.483 142.485 247.505 141.396 247.514 139.523C247.505 137.651 245.483 136.562 242.188 136.553C238.874 136.562 236.853 137.651 236.861 139.523ZM238.514 139.523C238.505 138.451 239.876 137.845 242.188 137.854C244.481 137.845 245.853 138.451 245.861 139.523C245.853 140.587 244.481 141.193 242.188 141.176C239.876 141.193 238.505 140.587 238.514 139.523ZM257.059 127.008C253.508 126.999 251.425 127.957 251.434 129.715C251.425 131.481 253.508 132.439 257.059 132.439C260.609 132.439 262.675 131.481 262.684 129.715C262.675 127.957 260.609 126.999 257.059 127.008ZM249.887 134.742H264.248V133.406H249.887V134.742ZM251.609 137.203H260.785V138.434H251.627V142.336H262.877V141.053H253.262V139.646H262.438V135.955H251.609V137.203ZM253.174 129.715C253.165 128.783 254.554 128.238 257.059 128.238C259.581 128.238 260.97 128.783 260.961 129.715C260.97 130.69 259.581 131.191 257.059 131.191C254.554 131.191 253.165 130.69 253.174 129.715ZM275.006 127.465C272.642 127.456 270.937 128.783 270.945 130.734C270.937 132.668 272.642 134.004 275.006 133.986C277.379 134.004 279.093 132.668 279.102 130.734C279.093 128.783 277.379 127.456 275.006 127.465ZM269.82 135.217L270.049 136.605C271.297 136.597 272.738 136.588 274.268 136.518V142.002H275.938V136.421C277.388 136.324 278.873 136.157 280.314 135.885L280.191 134.637C276.746 135.155 272.729 135.217 269.82 135.217ZM272.562 130.734C272.545 129.583 273.573 128.81 275.006 128.818C276.474 128.81 277.502 129.583 277.502 130.734C277.502 131.877 276.474 132.633 275.006 132.615C273.573 132.633 272.545 131.877 272.562 130.734ZM281.281 142.494H282.934V126.762H281.281V142.494ZM297.77 126.762H296.1V138.539H297.77V133.213H300.055V131.824H297.77V126.762ZM285.412 129.943H294.799V128.59H290.949V126.744H289.279V128.59H285.412V129.943ZM286.273 133.67C286.265 135.454 287.82 136.614 290.105 136.623C292.364 136.614 293.92 135.454 293.92 133.67C293.92 131.868 292.364 130.69 290.105 130.699C287.82 130.69 286.265 131.868 286.273 133.67ZM287.785 142.16H298.438V140.807H289.455V137.607H287.785V142.16ZM287.891 133.67C287.873 132.633 288.77 131.991 290.105 131.982C291.441 131.991 292.338 132.633 292.355 133.67C292.338 134.698 291.441 135.331 290.105 135.322C288.77 135.331 287.873 134.698 287.891 133.67ZM310.268 128.098C307.499 128.08 305.697 129.979 305.697 132.404C305.697 134.839 307.525 136.588 309.811 136.588C311.182 136.588 312.377 135.938 313.062 134.865H313.221C313.203 137.774 312.052 139.479 310.092 139.488C308.809 139.479 307.982 138.732 307.719 137.66H305.803C306.11 139.726 307.745 141.176 310.092 141.176C313.142 141.176 315.066 138.645 315.066 134.18C315.058 129.521 312.605 128.115 310.268 128.098ZM307.578 132.369C307.569 130.91 308.729 129.715 310.268 129.715C311.823 129.715 312.957 130.972 312.957 132.352C312.957 133.758 311.771 135.015 310.232 135.006C308.686 135.015 307.587 133.846 307.578 132.369ZM330.043 126.744H328.443V132.967H326.492V127.166H324.928V141.738H326.492V134.32H328.443V142.494H330.043V126.744ZM316.508 137.994L317.475 139.154C321.983 136.614 323.354 132.888 323.363 128.748H317.176V130.119H321.737C321.474 133.327 320.006 136.008 316.508 137.994ZM337.25 127.869C334.771 127.86 332.952 129.398 332.961 131.613C332.952 133.828 334.771 135.366 337.25 135.375C339.737 135.366 341.53 133.828 341.539 131.613C341.53 129.398 339.737 127.86 337.25 127.869ZM332.205 137.748L332.416 139.137C335.229 139.137 339.052 139.119 342.611 138.434L342.488 137.221C339.043 137.722 335.07 137.748 332.205 137.748ZM334.613 131.613C334.596 130.233 335.721 129.311 337.25 129.311C338.779 129.311 339.904 130.233 339.904 131.613C339.904 133.011 338.779 133.916 337.25 133.916C335.721 133.916 334.596 133.011 334.613 131.613ZM343.473 142.529H345.143V126.744H343.473V142.529ZM79.9414 159.654H65.5801V160.99H79.9414V159.654ZM66.3535 157.58L66.8809 158.863C69.5791 158.608 71.7764 157.694 72.752 156.218C73.7188 157.694 75.9072 158.608 78.623 158.863L79.1504 157.58C75.9863 157.334 73.833 156.174 73.6748 154.609H78.5V153.291H73.5781V151.727H71.9258V153.291H67.0215V154.609H71.8291C71.6533 156.174 69.4912 157.334 66.3535 157.58ZM67.1797 163.855H76.4961V167.494H78.1836V162.52H67.1797V163.855ZM94.2676 151.744H92.5977V155.752H89.6621V157.123H92.5977V161.113H94.2676V151.744ZM81.1367 159.689L82.0156 161.025C83.8965 160.331 85.2764 158.916 85.9619 157.158C86.6475 158.714 87.9482 159.979 89.7148 160.586L90.5762 159.268C88.1943 158.459 86.7705 156.517 86.7793 154.521V154.188H90.1543V152.834H81.6641V154.188H85.0742V154.539C85.083 156.71 83.5801 158.837 81.1367 159.689ZM83.668 164.523C83.6592 166.396 85.6807 167.485 88.9941 167.494C92.29 167.485 94.3115 166.396 94.3203 164.523C94.3115 162.651 92.29 161.562 88.9941 161.553C85.6807 161.562 83.6592 162.651 83.668 164.523ZM85.3203 164.523C85.3115 163.451 86.6826 162.845 88.9941 162.854C91.2881 162.845 92.6592 163.451 92.668 164.523C92.6592 165.587 91.2881 166.193 88.9941 166.176C86.6826 166.193 85.3115 165.587 85.3203 164.523ZM110.123 151.744H108.541V163.557H110.123V151.744ZM96.6582 160.076L97.5898 161.359C99.0664 160.656 100.104 159.338 100.675 157.826C101.202 159.188 102.169 160.313 103.566 160.955L104.498 159.672C102.485 158.793 101.457 156.93 101.457 155.084V152.834H99.8398V155.084C99.8486 156.947 98.7324 159.092 96.6582 160.076ZM99.6816 167.16H110.58V165.807H101.334V162.115H99.6816V167.16ZM103.092 156.982H105.395V163.1H106.994V152.025H105.395V155.611H103.092V156.982ZM117.928 155.752V153.062H116.24V155.752C116.231 158.67 114.605 161.702 112.162 162.871L113.217 164.225C115.036 163.284 116.407 161.368 117.102 159.101C117.796 161.254 119.149 163.029 120.934 163.926L121.953 162.59C119.545 161.509 117.928 158.635 117.928 155.752ZM120.213 158.336H123.729V167.529H125.381V151.744H123.729V156.982H120.213V158.336ZM140.076 151.744H138.406V167.477H140.076V159.408H142.52V158.02H140.076V151.744ZM127.824 163.275L128.756 164.576C133.941 162.019 135.945 157.949 135.963 153.396H128.615V154.785H134.258C133.915 158.459 131.771 161.307 127.824 163.275ZM162.172 164.137H155.756V160.498H160.449V153.01H149.41V160.498H154.104V164.137H147.758V165.525H162.172V164.137ZM151.027 159.18V154.346H158.814V159.18H151.027ZM175.936 157.545H166.936V153.994H175.742V152.641H165.248V158.863H175.936V157.545ZM163.297 162.133H169.643V167.459H171.277V162.133H177.711V160.779H163.297V162.133ZM188.732 162.15V161.395H187.115V162.15C187.106 163.671 186.008 165.314 183.986 166.035L184.83 167.266C186.315 166.721 187.353 165.675 187.924 164.436C188.407 165.719 189.365 166.835 190.877 167.406C192.318 166.809 193.259 165.657 193.76 164.392C194.305 165.675 195.368 166.729 196.924 167.266L197.75 166.035C195.693 165.367 194.612 163.785 194.621 162.15V161.395H192.986V162.15C192.986 163.363 192.274 164.866 190.833 165.789C189.4 164.937 188.732 163.504 188.732 162.15ZM183.582 156.35C183.591 158.529 185.366 160.041 187.783 160.041C190.191 160.041 191.967 158.529 191.967 156.35C191.967 154.144 190.191 152.632 187.783 152.623C185.366 152.632 183.591 154.144 183.582 156.35ZM185.217 156.35C185.208 154.97 186.289 154.038 187.783 154.047C189.26 154.038 190.332 154.97 190.332 156.35C190.332 157.721 189.26 158.652 187.783 158.652C186.289 158.652 185.208 157.721 185.217 156.35ZM194.656 160.727H196.326V151.762H194.656V160.727ZM211.566 156.35H202.373V152.307H200.721V157.686H211.566V156.35ZM198.805 161.008H213.219V159.672H198.805V161.008ZM200.598 167.125H211.672V165.754H202.268V162.502H200.598V167.125ZM220.18 156.385V154.715H223.766V153.326H214.889V154.715H218.492V156.385C218.475 159.101 216.717 162.054 214.344 163.17L215.311 164.488C217.147 163.592 218.624 161.676 219.354 159.426C220.083 161.526 221.56 163.267 223.414 164.084L224.328 162.783C221.902 161.746 220.171 159.021 220.18 156.385ZM225.752 167.494H227.422V151.744H225.752V167.494ZM246.723 151.762H245.053V162.361H246.723V157.809H248.973V156.438H246.723V151.762ZM234.225 160.604L234.4 161.939C237.178 161.939 240.913 161.913 244.297 161.324L244.156 160.129C242.838 160.322 241.414 160.437 240.008 160.507V159.505C241.783 159.294 242.899 158.45 242.908 157.193C242.899 155.752 241.423 154.855 239.164 154.873C236.905 154.855 235.402 155.752 235.42 157.193C235.402 158.459 236.545 159.303 238.338 159.505V160.568C236.861 160.604 235.446 160.604 234.225 160.604ZM234.629 154.346H243.717V153.098H240.008V151.621H238.338V153.098H234.629V154.346ZM236.193 164.4H245.053V167.494H246.723V163.1H236.193V164.4ZM237.002 157.193C237.002 156.438 237.819 155.998 239.164 156.016C240.491 155.998 241.317 156.438 241.309 157.193C241.317 157.932 240.491 158.415 239.164 158.406C237.819 158.415 237.002 157.932 237.002 157.193ZM262.947 151.762H261.277V163.205H262.947V151.762ZM250.203 156.719C250.212 159.03 252.022 160.639 254.404 160.639C256.777 160.639 258.588 159.03 258.588 156.719C258.588 154.442 256.777 152.825 254.404 152.816C252.022 152.825 250.212 154.442 250.203 156.719ZM251.838 156.719C251.829 155.269 252.937 154.275 254.404 154.275C255.846 154.275 256.953 155.269 256.953 156.719C256.953 158.204 255.846 159.18 254.404 159.18C252.937 159.18 251.829 158.204 251.838 156.719ZM252.646 167.16H263.422V165.807H254.334V162.045H252.646V167.16ZM273.23 154.346H270.154V152.201H268.502V154.346H265.408V155.699H273.23V154.346ZM265.918 160.27C265.909 162.423 267.351 163.935 269.328 163.926C271.323 163.935 272.747 162.423 272.756 160.27C272.747 158.151 271.323 156.648 269.328 156.648C267.351 156.648 265.909 158.151 265.918 160.27ZM267.395 160.27C267.386 158.96 268.194 158.046 269.328 158.037C270.462 158.046 271.279 158.96 271.279 160.27C271.279 161.605 270.462 162.502 269.328 162.502C268.194 162.502 267.386 161.605 267.395 160.27ZM273.951 166.756H275.533V159.672H277.344V167.494H278.926V151.744H277.344V158.301H275.533V152.096H273.951V166.756ZM295.361 160.621H281V161.975H287.328V167.477H288.963V161.975H295.361V160.621ZM281.809 158.107L282.441 159.426C284.99 159.021 287.214 157.747 288.181 155.954C289.139 157.747 291.371 159.021 293.955 159.426L294.57 158.107C291.591 157.703 289.165 155.954 289.139 154.012H294.008V152.676H282.336V154.012H287.24C287.188 155.954 284.744 157.703 281.809 158.107ZM301.355 156.051V153.186H299.738V156.121C299.747 158.802 298.569 161.588 296.346 162.924L297.383 164.172C298.912 163.24 300.002 161.535 300.573 159.54C301.118 161.359 302.111 162.933 303.588 163.82L304.52 162.537C302.41 161.245 301.355 158.564 301.355 156.051ZM302.814 158.67H305.258V166.721H306.84V152.043H305.258V157.281H302.814V158.67ZM308.51 167.494H310.109V151.744H308.51V167.494ZM326.527 164.137H323.082V159.988C324.348 159.276 325.104 158.16 325.104 156.771C325.104 154.293 322.669 152.667 319.285 152.658C315.91 152.667 313.476 154.293 313.484 156.771C313.476 158.187 314.267 159.312 315.559 160.023V164.137H312.113V165.525H326.527V164.137ZM315.102 156.771C315.102 155.075 316.815 153.994 319.285 153.994C321.737 153.994 323.478 155.075 323.486 156.771C323.478 158.459 321.737 159.558 319.285 159.566C316.815 159.558 315.102 158.459 315.102 156.771ZM317.211 164.137V160.639C317.844 160.788 318.547 160.867 319.285 160.867C320.041 160.867 320.753 160.788 321.395 160.639V164.137H317.211ZM329.463 166.123C330.14 166.114 330.702 165.561 330.711 164.875C330.702 164.189 330.14 163.627 329.463 163.627C328.777 163.627 328.206 164.189 328.215 164.875C328.206 165.561 328.777 166.114 329.463 166.123Z" fill="#6662A8"/>
<g filter="url(#filter0_d_685_14715)">
<path d="M79 257.801C79 229.239 102.081 206.086 130.552 206.086H282.448C310.919 206.086 334 229.239 334 257.801V639.199C334 667.761 310.919 690.914 282.448 690.914H130.552C102.081 690.914 79 667.761 79 639.199V257.801Z" fill="white"/>
</g>
<path fill-rule="evenodd" clip-rule="evenodd" d="M242.642 282.814C242.642 302.222 226.901 317.955 207.483 317.955C188.066 317.955 172.325 302.222 172.325 282.814C172.325 263.407 188.066 247.674 207.483 247.674C226.901 247.674 242.642 263.407 242.642 282.814ZM199.392 480.581H211.42V646.708C211.42 660.243 222.398 671.215 235.939 671.215C249.48 671.215 260.458 660.243 260.458 646.708V395.173C260.458 393.926 260.365 392.701 260.185 391.504H267.86V483.488C267.86 492.681 275.316 500.134 284.514 500.134C293.712 500.134 301.168 492.681 301.168 483.488L301.168 391.504L301.168 387.313L301.168 384.539C301.168 351.852 274.657 325.354 241.953 325.354H229.297C228.748 325.324 228.195 325.31 227.639 325.31H183.229C182.673 325.31 182.12 325.324 181.571 325.354H168.86C136.156 325.354 109.645 351.852 109.645 384.539L109.645 387.28C109.645 387.291 109.645 387.302 109.645 387.313V483.488C109.645 492.681 117.101 500.134 126.299 500.134C135.497 500.134 142.953 492.681 142.953 483.488V391.504H150.628C150.448 392.701 150.355 393.926 150.355 395.173V646.708C150.355 660.243 161.332 671.215 174.874 671.215C188.415 671.215 199.392 660.243 199.392 646.708V480.581Z" fill="#F3EFFF"/>
<path fill-rule="evenodd" clip-rule="evenodd" d="M167.974 439.6C171.987 437.965 175.639 441.564 175.639 445.837C175.639 447.895 177.334 449.563 179.426 449.563H189.976C191.592 449.563 193.053 448.698 194.097 447.485C197.076 444.025 201.525 441.828 206.496 441.828C211.466 441.828 215.916 444.025 218.894 447.485C219.939 448.698 221.399 449.563 223.015 449.563H232.479C234.571 449.563 236.267 447.895 236.267 445.837C236.267 441.564 239.918 437.965 243.932 439.6C246.362 440.59 248.57 442.042 250.43 443.871C252.29 445.701 253.765 447.873 254.771 450.263C255.778 452.653 256.296 455.215 256.296 457.803C256.296 460.39 255.778 462.952 254.771 465.342C253.765 467.733 252.29 469.905 250.43 471.734C248.57 473.564 246.362 475.015 243.932 476.005C239.918 477.64 236.267 474.041 236.267 469.768C236.267 467.329 234.257 465.352 231.777 465.352H223.569C221.871 465.352 220.352 466.304 219.307 467.621C216.335 471.368 211.702 473.778 206.496 473.778C201.29 473.778 196.656 471.368 193.684 467.621C192.64 466.304 191.121 465.352 189.423 465.352H180.128C177.648 465.352 175.639 467.329 175.639 469.768C175.639 474.041 171.987 477.64 167.974 476.005C165.544 475.015 163.336 473.563 161.476 471.734C159.616 469.904 158.141 467.732 157.134 465.342C156.127 462.952 155.609 460.39 155.609 457.802C155.609 455.215 156.127 452.653 157.134 450.263C158.141 447.872 159.616 445.7 161.476 443.871C163.336 442.041 165.544 440.59 167.974 439.6Z" fill="#EDC1A8"/>
<g filter="url(#filter1_d_685_14715)">
<path d="M244.257 465.463C240.026 465.463 236.596 462.034 236.596 457.803C236.596 453.572 240.026 450.142 244.257 450.142C248.488 450.142 251.918 453.572 251.918 457.803C251.918 462.034 248.488 465.463 244.257 465.463Z" fill="#EDC1A8"/>
</g>
<g filter="url(#filter2_d_685_14715)">
<path d="M167.648 465.463C163.417 465.463 159.987 462.034 159.987 457.803C159.987 453.572 163.417 450.142 167.648 450.142C171.879 450.142 175.309 453.572 175.309 457.803C175.309 462.034 171.879 465.463 167.648 465.463Z" fill="#EDC1A8"/>
</g>
<path d="M165.461 462.18H169.839V460.868H166.882V454.519H165.461V462.18Z" fill="#917566"/>
<path d="M242.07 462.18H243.801V459.461H245.123L246.721 462.18H248.637L246.86 459.202C247.812 458.826 248.337 458.064 248.337 457.017C248.337 455.498 247.246 454.519 245.348 454.519H242.07V462.18ZM243.801 458.17V455.821H245.025C246.052 455.826 246.554 456.244 246.548 457.017C246.554 457.784 246.052 458.17 245.025 458.17H243.801Z" fill="#917566"/>
<g filter="url(#filter3_d_685_14715)">
<path d="M205.952 465.463C201.721 465.463 198.291 462.034 198.291 457.803C198.291 453.572 201.721 450.142 205.952 450.142C210.183 450.142 213.613 453.572 213.613 457.803C213.613 462.034 210.183 465.463 205.952 465.463Z" fill="#EDC1A8"/>
</g>
<path d="M236.297 568.94C225.251 568.94 216.297 559.986 216.297 548.94C216.297 537.894 225.251 528.94 236.297 528.94C247.343 528.94 256.297 537.894 256.297 548.94C256.297 559.986 247.343 568.94 236.297 568.94Z" fill="#EDC1A8"/>
<g filter="url(#filter4_d_685_14715)">
<path d="M235.758 558.884C230.511 558.884 226.258 554.631 226.258 549.384C226.258 544.137 230.511 539.884 235.758 539.884C241.005 539.884 245.258 544.137 245.258 549.384C245.258 554.631 241.005 558.884 235.758 558.884Z" fill="#EDC1A8"/>
</g>
<path d="M232.117 553.017C234.001 553.017 235.354 551.97 235.343 550.511C235.354 549.446 234.68 548.687 233.453 548.534V548.463C234.387 548.292 235.037 547.616 235.032 546.663C235.037 545.315 233.88 544.262 232.14 544.262C230.429 544.262 229.139 545.28 229.11 546.745H230.769C230.798 546.092 231.403 545.668 232.14 545.674C232.877 545.668 233.367 546.115 233.361 546.768C233.367 547.439 232.791 547.898 231.967 547.898H231.195V549.204H231.967C232.947 549.21 233.551 549.699 233.546 550.393C233.551 551.081 232.958 551.552 232.129 551.558C231.322 551.552 230.717 551.134 230.689 550.499H228.938C228.972 551.988 230.285 553.017 232.117 553.017Z" fill="#917566"/>
<path d="M236.61 552.9H238.338V549.875H239.657L241.253 552.9H243.165L241.391 549.587C242.341 549.169 242.865 548.322 242.865 547.157C242.865 545.468 241.777 544.38 239.882 544.38H236.61V552.9ZM238.338 548.439V545.827H239.559C240.584 545.833 241.086 546.298 241.08 547.157C241.086 548.01 240.584 548.439 239.559 548.439H238.338Z" fill="#917566"/>
<path d="M175.195 568.94C164.15 568.94 155.195 559.986 155.195 548.94C155.195 537.894 164.15 528.94 175.195 528.94C186.241 528.94 195.195 537.894 195.195 548.94C195.195 559.986 186.241 568.94 175.195 568.94Z" fill="#EDC1A8"/>
<g filter="url(#filter5_d_685_14715)">
<path d="M174.66 558.884C169.413 558.884 165.16 554.631 165.16 549.384C165.16 544.137 169.413 539.884 174.66 539.884C179.907 539.884 184.16 544.137 184.16 549.384C184.16 554.631 179.907 558.884 174.66 558.884Z" fill="#EDC1A8"/>
</g>
<path d="M171.875 553.017C173.62 553.017 174.874 551.97 174.864 550.511C174.874 549.446 174.25 548.687 173.113 548.534V548.463C173.978 548.292 174.581 547.616 174.575 546.663C174.581 545.315 173.508 544.262 171.897 544.262C170.312 544.262 169.116 545.28 169.09 546.745H170.627C170.653 546.092 171.214 545.668 171.897 545.674C172.58 545.668 173.033 546.115 173.028 546.768C173.033 547.439 172.5 547.898 171.737 547.898H171.022V549.204H171.737C172.644 549.21 173.204 549.699 173.199 550.393C173.204 551.081 172.654 551.552 171.886 551.558C171.139 551.552 170.579 551.134 170.552 550.499H168.93C168.962 551.988 170.178 553.017 171.875 553.017Z" fill="#917566"/>
<path d="M176.038 552.9H180.968V551.44H177.638V544.38H176.038V552.9Z" fill="#917566"/>
<path d="M126 445C114.954 445 106 436.046 106 425C106 413.954 114.954 405 126 405C137.046 405 146 413.954 146 425C146 436.046 137.046 445 126 445Z" fill="#EDC1A8"/>
<g filter="url(#filter6_d_685_14715)">
<path d="M125.5 435C120.253 435 116 430.747 116 425.5C116 420.253 120.253 416 125.5 416C130.747 416 135 420.253 135 425.5C135 430.747 130.747 435 125.5 435Z" fill="#EDC1A8"/>
</g>
<path d="M120.66 429.348H125.823V427.869H122.743V427.821L123.839 426.545C125.324 424.934 125.723 424.129 125.723 423.145C125.723 421.648 124.696 420.592 123.151 420.592C121.631 420.592 120.585 421.672 120.59 423.36H122.015C122.01 422.531 122.454 422.018 123.132 422.024C123.794 422.018 124.278 422.495 124.278 423.264C124.278 423.95 123.914 424.427 123.241 425.197L120.65 428.047L120.66 429.348Z" fill="#917566"/>
<path d="M126.929 429.348H131.534V427.869H128.424V420.712H126.929V429.348Z" fill="#917566"/>
<path d="M155.062 359.305C143.88 359.305 134.815 350.24 134.815 339.058C134.815 327.876 143.88 318.811 155.062 318.811C166.244 318.811 175.309 327.876 175.309 339.058C175.309 350.24 166.244 359.305 155.062 359.305Z" fill="#EDC1A8"/>
<g filter="url(#filter7_d_685_14715)">
<path d="M155 348C150.029 348 146 343.971 146 339C146 334.029 150.029 330 155 330C159.971 330 164 334.029 164 339C164 343.971 159.971 348 155 348Z" fill="#EDC1A8"/>
</g>
<path d="M153.815 335.227H152.188L150.137 336.434V337.841L152.039 336.741H152.085V342.888H153.815V335.227Z" fill="#917566"/>
<path d="M155.786 342.888H161.081V341.576H157.505V335.227H155.786V342.888Z" fill="#917566"/>
<path d="M255.749 359.305C244.567 359.305 235.503 350.24 235.503 339.058C235.503 327.876 244.567 318.811 255.749 318.811C266.931 318.811 275.996 327.876 275.996 339.058C275.996 350.24 266.931 359.305 255.749 359.305Z" fill="#EDC1A8"/>
<g filter="url(#filter8_d_685_14715)">
<path d="M256 348C251.029 348 247 343.971 247 339C247 334.029 251.029 330 256 330C260.971 330 265 334.029 265 339C265 343.971 260.971 348 256 348Z" fill="#EDC1A8"/>
</g>
<path d="M254.132 335.227H252.669L250.824 336.434V337.841L252.535 336.741H252.576V342.888H254.132V335.227Z" fill="#917566"/>
<path d="M255.905 342.888H257.451V340.169H258.63L260.058 342.888H261.768L260.181 339.91C261.032 339.534 261.5 338.772 261.5 337.725C261.5 336.206 260.527 335.227 258.831 335.227H255.905V342.888ZM257.451 338.878V336.529H258.543C259.46 336.534 259.908 336.952 259.903 337.725C259.908 338.492 259.46 338.878 258.543 338.878H257.451Z" fill="#917566"/>
<path d="M206.499 416.215C195.317 416.215 186.253 407.395 186.253 396.515C186.253 385.635 195.317 376.815 206.499 376.815C217.681 376.815 226.746 385.635 226.746 396.515C226.746 407.395 217.681 416.215 206.499 416.215Z" fill="#EDC1A8"/>
<g filter="url(#filter9_d_685_14715)">
<path d="M205.952 405.27C201.116 405.27 197.196 401.35 197.196 396.515C197.196 391.68 201.116 387.76 205.952 387.76C210.787 387.76 214.707 391.68 214.707 396.515C214.707 401.35 210.787 405.27 205.952 405.27Z" fill="#EDC1A8"/>
</g>
<path d="M285.547 445.27C274.501 445.27 265.547 436.316 265.547 425.27C265.547 414.225 274.501 405.27 285.547 405.27C296.593 405.27 305.547 414.225 305.547 425.27C305.547 436.316 296.593 445.27 285.547 445.27Z" fill="#EDC1A8"/>
<g filter="url(#filter10_d_685_14715)">
<path d="M285.102 435.215C279.855 435.215 275.602 430.961 275.602 425.715C275.602 420.468 279.855 416.215 285.102 416.215C290.348 416.215 294.602 420.468 294.602 425.715C294.602 430.961 290.348 435.215 285.102 435.215Z" fill="#EDC1A8"/>
</g>
<path d="M279.354 429.348H284.999V427.869H281.631V427.821L282.83 426.545C284.454 424.934 284.89 424.129 284.89 423.145C284.89 421.648 283.768 420.592 282.078 420.592C280.416 420.592 279.272 421.672 279.277 423.36H280.836C280.83 422.531 281.315 422.018 282.057 422.024C282.781 422.018 283.31 422.495 283.31 423.264C283.31 423.95 282.912 424.427 282.176 425.197L279.343 428.047L279.354 429.348Z" fill="#917566"/>
<path d="M286.209 429.348H287.844V426.282H289.092L290.601 429.348H292.41L290.732 425.99C291.631 425.566 292.127 424.708 292.127 423.527C292.127 421.815 291.097 420.712 289.304 420.712H286.209V429.348ZM287.844 424.827V422.179H288.999C289.969 422.185 290.443 422.656 290.438 423.527C290.443 424.391 289.969 424.827 288.999 424.827H287.844Z" fill="#917566"/>
<path d="M170.252 224.205V223.378H172.29V222.376H166.932V223.378H169.056V224.205C169.05 225.843 168.107 227.682 166.555 228.428L167.255 229.375C168.377 228.83 169.228 227.677 169.67 226.327C170.107 227.557 170.921 228.613 172.02 229.135L172.689 228.177C171.152 227.454 170.247 225.723 170.252 224.205ZM173.195 231.247H174.392V226.251H175.89V225.239H174.392V221.408H173.195V231.247Z" fill="#6662A8"/>
<path d="M179.34 223.987V222.278H178.187V224.042C178.181 225.718 177.556 227.454 176.138 228.319L176.882 229.222C177.798 228.656 178.424 227.655 178.774 226.474C179.097 227.546 179.669 228.46 180.547 228.994L181.205 228.069C179.884 227.231 179.345 225.576 179.34 223.987ZM180.159 225.794H181.55V230.768H182.682V221.582H181.55V224.793H180.159V225.794ZM183.555 231.247H184.709V221.408H183.555V231.247Z" fill="#6662A8"/>
<path d="M194.723 226.316H185.841V227.285H194.723V226.316ZM186.261 224.967L186.638 225.892C188.368 225.745 189.657 225.201 190.271 224.346C190.875 225.201 192.163 225.745 193.904 225.892L194.281 224.967C192.228 224.825 191.08 224.14 190.95 223.301H193.85V222.355H190.864V221.429H189.678V222.355H186.714V223.301H189.587C189.452 224.14 188.304 224.825 186.261 224.967ZM186.822 229.092H192.438V231.247H193.635V228.134H186.822V229.092Z" fill="#6662A8"/>
<path d="M203.542 221.408H202.345V223.857H200.685V224.847H202.345V227.252H203.542V221.408ZM195.349 226.273L195.974 227.231C197.133 226.817 197.947 225.968 198.373 224.923C198.804 225.848 199.569 226.599 200.653 226.969L201.256 226.012C199.747 225.5 198.96 224.292 198.96 223.095V223.029H200.976V222.05H195.715V223.029H197.742V223.106C197.742 224.406 196.917 225.729 195.349 226.273ZM196.933 229.375C196.923 230.555 198.189 231.241 200.243 231.247C202.307 231.241 203.569 230.555 203.574 229.375C203.569 228.194 202.307 227.503 200.243 227.503C198.189 227.503 196.923 228.194 196.933 229.375ZM198.119 229.375C198.114 228.76 198.89 228.428 200.243 228.428C201.607 228.428 202.377 228.76 202.377 229.375C202.377 229.984 201.607 230.316 200.243 230.311C198.89 230.316 198.114 229.984 198.119 229.375Z" fill="#6662A8"/>
<path d="M215.874 221.408H214.732V228.776H215.874V221.408ZM207.476 226.534L208.134 227.448C209.023 227.029 209.632 226.262 209.977 225.359C210.301 226.158 210.861 226.822 211.681 227.209L212.349 226.273C211.109 225.712 210.549 224.569 210.549 223.421V222.083H209.385V223.421C209.385 224.591 208.775 225.897 207.476 226.534ZM209.352 231.051H216.144V230.071H210.549V227.894H209.352V231.051ZM211.476 224.738H212.78V228.482H213.923V221.582H212.78V223.748H211.476V224.738Z" fill="#6662A8"/>
<path d="M220.682 223.769V222.202H219.464V223.769C219.459 225.609 218.575 227.503 216.985 228.254L217.739 229.233C218.86 228.662 219.658 227.53 220.084 226.169C220.499 227.459 221.275 228.504 222.375 229.048L223.097 228.079C221.545 227.394 220.677 225.598 220.682 223.769ZM222.019 225.565H224.067V231.258H225.253V221.408H224.067V224.586H222.019V225.565Z" fill="#6662A8"/>
<path d="M235.031 221.408H233.877V225.261H232.907V221.593H231.775V230.746H232.907V226.251H233.877V231.247H235.031V221.408ZM226.514 227.927L226.654 228.928C227.878 228.934 229.889 228.896 231.409 228.58L231.344 227.699C231.08 227.737 230.805 227.769 230.514 227.791V223.552H231.214V222.572H226.708V223.552H227.42V227.927H226.514ZM228.498 227.905V223.552H229.425V227.867C229.112 227.884 228.805 227.894 228.498 227.905Z" fill="#6662A8"/>
<path d="M244.259 221.408H243.062V231.247H244.259V221.408ZM236.26 228.449L236.906 229.385C238.044 228.885 238.885 227.835 239.321 226.577C239.769 227.764 240.609 228.743 241.725 229.222L242.383 228.297C240.809 227.633 239.898 226.028 239.903 224.531V224.02H241.995V223.051H239.893V221.615H238.707V223.051H236.561V224.02H238.707V224.531C238.707 226.104 237.812 227.758 236.26 228.449Z" fill="#6662A8"/>
<path d="M196.102 309.282C196.102 303.665 200.756 299.112 206.499 299.112C212.241 299.112 216.896 303.665 216.896 309.282V337.095C216.896 342.713 212.241 347.266 206.499 347.266C200.756 347.266 196.102 342.713 196.102 337.095V309.282Z" fill="#EDC1A8"/>
<g filter="url(#filter11_d_685_14715)">
<path d="M211.426 314.465C211.426 311.426 208.976 308.961 205.954 308.961C202.932 308.961 200.482 311.426 200.482 314.465V331.912C200.482 334.952 202.932 337.416 205.954 337.416C208.976 337.416 211.426 334.952 211.426 331.912V314.465Z" fill="#EDC1A8"/>
</g>
<path fill-rule="evenodd" clip-rule="evenodd" d="M203.766 322.841L206.502 318.811L209.238 322.841H207.856V328.661H205.148V322.841H203.766Z" fill="#917566"/>
<path fill-rule="evenodd" clip-rule="evenodd" d="M209 397.909L206 402L203 397.909L204.515 397.909L204.515 392L207.485 392L207.485 397.909L209 397.909Z" fill="#917566"/>
<path d="M143.188 725.164C141.553 725.164 140.369 726.635 140.375 728.961C140.369 731.305 141.553 732.77 143.188 732.77C144.816 732.77 145.994 731.305 146 728.961C145.994 726.635 144.816 725.164 143.188 725.164ZM141.816 728.961C141.816 727.379 142.373 726.512 143.188 726.512C144.02 726.512 144.564 727.379 144.57 728.961C144.564 730.549 144.02 731.416 143.188 731.41C142.373 731.416 141.816 730.549 141.816 728.961ZM147.23 735.078H148.73V729.676H150.301V728.434H148.73V724.414H147.23V735.078ZM159.617 724.414H158.117V730.836H159.617V724.414ZM150.734 729.512L151.508 730.672C152.762 730.256 153.629 729.418 154.115 728.363C154.596 729.33 155.434 730.098 156.629 730.473L157.391 729.312C155.65 728.785 154.854 727.484 154.848 726.23H156.992V725.035H151.133V726.23H153.324C153.312 727.561 152.498 728.943 150.734 729.512ZM152.281 732.5H158.117V735.078H159.617V731.305H152.281V732.5ZM173.047 724.414H171.629V735.078H173.047V724.414ZM163.602 731.961L164.504 733.062C165.482 732.465 166.127 731.41 166.49 730.168C166.854 731.316 167.475 732.266 168.43 732.828L169.309 731.727C167.75 730.836 167.193 729.043 167.199 727.273V726.699H168.816V725.504H164.012V726.699H165.758V727.273C165.758 729.084 165.172 730.994 163.602 731.961ZM168.055 729.277H169.461V734.586H170.867V724.59H169.461V728.07H168.055V729.277ZM183.922 729.406H174.195V730.59H178.309V731.504H175.32V734.961H182.762V731.504H179.797V730.59H183.922V729.406ZM175.051 725.902H176.434V727.531H175.121V728.727H182.984V727.531H181.66V725.902H183.055V724.707H175.051V725.902ZM176.797 733.766V732.664H181.297V733.766H176.797ZM177.934 727.531V725.902H180.16V727.531H177.934ZM193.496 724.414H191.984V735.102H193.496V724.414ZM184.883 728.961C184.877 731.305 186.066 732.77 187.707 732.77C189.312 732.77 190.508 731.305 190.508 728.961C190.508 726.635 189.312 725.164 187.707 725.164C186.066 725.164 184.877 726.635 184.883 728.961ZM186.324 728.961C186.318 727.379 186.875 726.512 187.707 726.512C188.516 726.512 189.061 727.379 189.066 728.961C189.061 730.549 188.516 731.416 187.707 731.41C186.875 731.416 186.318 730.549 186.324 728.961ZM200.27 730.648H198.887V734.961H202.801V734.135L203.41 735.055C204.277 734.721 204.863 734.105 205.215 733.361C205.555 734.129 206.146 734.738 207.066 735.055L207.84 733.941C206.504 733.508 205.982 732.477 205.988 731.387V730.566H204.488V731.387C204.488 732.354 203.984 733.35 202.801 733.889V730.648H201.418V731.715H200.27V730.648ZM197.844 727.32C197.832 728.809 199.039 729.852 200.68 729.852C202.039 729.852 203.129 729.084 203.416 727.93H205.203V730.062H206.691V724.414H205.203V726.699H203.41C203.117 725.568 202.033 724.818 200.68 724.812C199.039 724.818 197.832 725.855 197.844 727.32ZM199.262 727.32C199.256 726.535 199.842 726.049 200.68 726.043C201.488 726.049 202.068 726.535 202.074 727.32C202.068 728.129 201.488 728.627 200.68 728.633C199.842 728.627 199.256 728.129 199.262 727.32ZM200.27 733.824V732.816H201.418V733.824H200.27ZM212.938 724.953C210.682 724.959 208.93 726.178 208.93 728.023C208.93 729.887 210.682 731.1 212.938 731.094C215.188 731.1 216.951 729.887 216.957 728.023C216.951 726.178 215.188 724.959 212.938 724.953ZM208.074 733.777H217.836V732.57H208.074V733.777ZM210.383 728.023C210.377 726.881 211.455 726.16 212.938 726.172C214.408 726.16 215.475 726.881 215.48 728.023C215.475 729.184 214.408 729.875 212.938 729.875C211.455 729.875 210.377 729.184 210.383 728.023ZM227.375 724.426H225.875V732.207H227.375V724.426ZM218.41 729.57L219.184 730.754C220.432 730.326 221.281 729.447 221.762 728.357C222.236 729.371 223.062 730.168 224.27 730.566L225.031 729.395C223.279 728.832 222.523 727.455 222.535 726.043V725.012H220.977V726.043C220.977 727.49 220.197 728.973 218.41 729.57ZM220.227 734.891H227.656V733.695H221.738V731.457H220.227V734.891ZM237.23 724.414H235.73V735.055H237.23V729.734H238.742V728.504H237.23V724.414ZM228.699 732.066L229.543 733.215C233.129 731.451 234.371 728.691 234.383 725.504H229.309V726.723H232.865C232.584 729.102 231.225 730.801 228.699 732.066ZM248.949 732.605H246.781V729.963C247.584 729.465 248.064 728.721 248.07 727.801C248.064 726.072 246.359 724.936 244.051 724.93C241.73 724.936 240.043 726.072 240.043 727.801C240.043 728.738 240.541 729.494 241.367 729.992V732.605H239.188V733.836H248.949V732.605ZM241.52 727.801C241.52 726.729 242.521 726.107 244.051 726.113C245.557 726.107 246.588 726.729 246.594 727.801C246.588 728.844 245.557 729.488 244.051 729.488C242.521 729.488 241.52 728.844 241.52 727.801ZM242.844 732.605V730.537C243.219 730.607 243.623 730.648 244.051 730.648C244.479 730.648 244.889 730.607 245.27 730.531V732.605H242.844ZM251.422 731.328V731.457H252.969V731.328C252.975 730.508 253.268 730.127 253.93 729.734C254.697 729.271 255.195 728.662 255.195 727.695C255.195 726.248 254.041 725.398 252.406 725.398C250.906 725.398 249.682 726.189 249.652 727.836H251.316C251.34 727.15 251.85 726.787 252.395 726.781C252.963 726.787 253.42 727.168 253.414 727.754C253.42 728.293 253.027 728.656 252.523 728.984C251.82 729.424 251.428 729.869 251.422 731.328ZM251.246 733.121C251.234 733.666 251.68 734.105 252.23 734.105C252.752 734.105 253.203 733.666 253.203 733.121C253.203 732.582 252.752 732.143 252.23 732.148C251.68 732.143 251.234 732.582 251.246 733.121Z" fill="#6662A8"/>
<path d="M264.625 725.75L268.375 729.5L264.625 733.25" stroke="#6662A8" stroke-width="1.5" stroke-linecap="round" stroke-linejoin="round"/>
<defs>
<filter id="filter0_d_685_14715" x="64" y="196.086" width="285" height="514.828" filterUnits="userSpaceOnUse" color-interpolation-filters="sRGB">
<feFlood flood-opacity="0" result="BackgroundImageFix"/>
<feColorMatrix in="SourceAlpha" type="matrix" values="0 0 0 0 0 0 0 0 0 0 0 0 0 0 0 0 0 0 127 0" result="hardAlpha"/>
<feOffset dy="5"/>
<feGaussianBlur stdDeviation="7.5"/>
<feComposite in2="hardAlpha" operator="out"/>
<feColorMatrix type="matrix" values="0 0 0 0 0 0 0 0 0 0 0 0 0 0 0 0 0 0 0.15 0"/>
<feBlend mode="normal" in2="BackgroundImageFix" result="effect1_dropShadow_685_14715"/>
<feBlend mode="normal" in="SourceGraphic" in2="effect1_dropShadow_685_14715" result="shape"/>
</filter>
<filter id="filter1_d_685_14715" x="233.598" y="447.142" width="21.3203" height="21.3219" filterUnits="userSpaceOnUse" color-interpolation-filters="sRGB">
<feFlood flood-opacity="0" result="BackgroundImageFix"/>
<feColorMatrix in="SourceAlpha" type="matrix" values="0 0 0 0 0 0 0 0 0 0 0 0 0 0 0 0 0 0 127 0" result="hardAlpha"/>
<feOffset/>
<feGaussianBlur stdDeviation="1.5"/>
<feComposite in2="hardAlpha" operator="out"/>
<feColorMatrix type="matrix" values="0 0 0 0 0 0 0 0 0 0 0 0 0 0 0 0 0 0 0.3 0"/>
<feBlend mode="normal" in2="BackgroundImageFix" result="effect1_dropShadow_685_14715"/>
<feBlend mode="normal" in="SourceGraphic" in2="effect1_dropShadow_685_14715" result="shape"/>
</filter>
<filter id="filter2_d_685_14715" x="156.988" y="447.142" width="21.3203" height="21.3219" filterUnits="userSpaceOnUse" color-interpolation-filters="sRGB">
<feFlood flood-opacity="0" result="BackgroundImageFix"/>
<feColorMatrix in="SourceAlpha" type="matrix" values="0 0 0 0 0 0 0 0 0 0 0 0 0 0 0 0 0 0 127 0" result="hardAlpha"/>
<feOffset/>
<feGaussianBlur stdDeviation="1.5"/>
<feComposite in2="hardAlpha" operator="out"/>
<feColorMatrix type="matrix" values="0 0 0 0 0 0 0 0 0 0 0 0 0 0 0 0 0 0 0.3 0"/>
<feBlend mode="normal" in2="BackgroundImageFix" result="effect1_dropShadow_685_14715"/>
<feBlend mode="normal" in="SourceGraphic" in2="effect1_dropShadow_685_14715" result="shape"/>
</filter>
<filter id="filter3_d_685_14715" x="195.293" y="447.142" width="21.3203" height="21.3219" filterUnits="userSpaceOnUse" color-interpolation-filters="sRGB">
<feFlood flood-opacity="0" result="BackgroundImageFix"/>
<feColorMatrix in="SourceAlpha" type="matrix" values="0 0 0 0 0 0 0 0 0 0 0 0 0 0 0 0 0 0 127 0" result="hardAlpha"/>
<feOffset/>
<feGaussianBlur stdDeviation="1.5"/>
<feComposite in2="hardAlpha" operator="out"/>
<feColorMatrix type="matrix" values="0 0 0 0 0 0 0 0 0 0 0 0 0 0 0 0 0 0 0.3 0"/>
<feBlend mode="normal" in2="BackgroundImageFix" result="effect1_dropShadow_685_14715"/>
<feBlend mode="normal" in="SourceGraphic" in2="effect1_dropShadow_685_14715" result="shape"/>
</filter>
<filter id="filter4_d_685_14715" x="223.258" y="536.884" width="25" height="25" filterUnits="userSpaceOnUse" color-interpolation-filters="sRGB">
<feFlood flood-opacity="0" result="BackgroundImageFix"/>
<feColorMatrix in="SourceAlpha" type="matrix" values="0 0 0 0 0 0 0 0 0 0 0 0 0 0 0 0 0 0 127 0" result="hardAlpha"/>
<feOffset/>
<feGaussianBlur stdDeviation="1.5"/>
<feComposite in2="hardAlpha" operator="out"/>
<feColorMatrix type="matrix" values="0 0 0 0 0 0 0 0 0 0 0 0 0 0 0 0 0 0 0.3 0"/>
<feBlend mode="normal" in2="BackgroundImageFix" result="effect1_dropShadow_685_14715"/>
<feBlend mode="normal" in="SourceGraphic" in2="effect1_dropShadow_685_14715" result="shape"/>
</filter>
<filter id="filter5_d_685_14715" x="162.16" y="536.884" width="25" height="25" filterUnits="userSpaceOnUse" color-interpolation-filters="sRGB">
<feFlood flood-opacity="0" result="BackgroundImageFix"/>
<feColorMatrix in="SourceAlpha" type="matrix" values="0 0 0 0 0 0 0 0 0 0 0 0 0 0 0 0 0 0 127 0" result="hardAlpha"/>
<feOffset/>
<feGaussianBlur stdDeviation="1.5"/>
<feComposite in2="hardAlpha" operator="out"/>
<feColorMatrix type="matrix" values="0 0 0 0 0 0 0 0 0 0 0 0 0 0 0 0 0 0 0.3 0"/>
<feBlend mode="normal" in2="BackgroundImageFix" result="effect1_dropShadow_685_14715"/>
<feBlend mode="normal" in="SourceGraphic" in2="effect1_dropShadow_685_14715" result="shape"/>
</filter>
<filter id="filter6_d_685_14715" x="113" y="413" width="25" height="25" filterUnits="userSpaceOnUse" color-interpolation-filters="sRGB">
<feFlood flood-opacity="0" result="BackgroundImageFix"/>
<feColorMatrix in="SourceAlpha" type="matrix" values="0 0 0 0 0 0 0 0 0 0 0 0 0 0 0 0 0 0 127 0" result="hardAlpha"/>
<feOffset/>
<feGaussianBlur stdDeviation="1.5"/>
<feComposite in2="hardAlpha" operator="out"/>
<feColorMatrix type="matrix" values="0 0 0 0 0 0 0 0 0 0 0 0 0 0 0 0 0 0 0.3 0"/>
<feBlend mode="normal" in2="BackgroundImageFix" result="effect1_dropShadow_685_14715"/>
<feBlend mode="normal" in="SourceGraphic" in2="effect1_dropShadow_685_14715" result="shape"/>
</filter>
<filter id="filter7_d_685_14715" x="143" y="327" width="24" height="24" filterUnits="userSpaceOnUse" color-interpolation-filters="sRGB">
<feFlood flood-opacity="0" result="BackgroundImageFix"/>
<feColorMatrix in="SourceAlpha" type="matrix" values="0 0 0 0 0 0 0 0 0 0 0 0 0 0 0 0 0 0 127 0" result="hardAlpha"/>
<feOffset/>
<feGaussianBlur stdDeviation="1.5"/>
<feComposite in2="hardAlpha" operator="out"/>
<feColorMatrix type="matrix" values="0 0 0 0 0 0 0 0 0 0 0 0 0 0 0 0 0 0 0.3 0"/>
<feBlend mode="normal" in2="BackgroundImageFix" result="effect1_dropShadow_685_14715"/>
<feBlend mode="normal" in="SourceGraphic" in2="effect1_dropShadow_685_14715" result="shape"/>
</filter>
<filter id="filter8_d_685_14715" x="244" y="327" width="24" height="24" filterUnits="userSpaceOnUse" color-interpolation-filters="sRGB">
<feFlood flood-opacity="0" result="BackgroundImageFix"/>
<feColorMatrix in="SourceAlpha" type="matrix" values="0 0 0 0 0 0 0 0 0 0 0 0 0 0 0 0 0 0 127 0" result="hardAlpha"/>
<feOffset/>
<feGaussianBlur stdDeviation="1.5"/>
<feComposite in2="hardAlpha" operator="out"/>
<feColorMatrix type="matrix" values="0 0 0 0 0 0 0 0 0 0 0 0 0 0 0 0 0 0 0.3 0"/>
<feBlend mode="normal" in2="BackgroundImageFix" result="effect1_dropShadow_685_14715"/>
<feBlend mode="normal" in="SourceGraphic" in2="effect1_dropShadow_685_14715" result="shape"/>
</filter>
<filter id="filter9_d_685_14715" x="194.195" y="384.76" width="23.5117" height="23.5107" filterUnits="userSpaceOnUse" color-interpolation-filters="sRGB">
<feFlood flood-opacity="0" result="BackgroundImageFix"/>
<feColorMatrix in="SourceAlpha" type="matrix" values="0 0 0 0 0 0 0 0 0 0 0 0 0 0 0 0 0 0 127 0" result="hardAlpha"/>
<feOffset/>
<feGaussianBlur stdDeviation="1.5"/>
<feComposite in2="hardAlpha" operator="out"/>
<feColorMatrix type="matrix" values="0 0 0 0 0 0 0 0 0 0 0 0 0 0 0 0 0 0 0.3 0"/>
<feBlend mode="normal" in2="BackgroundImageFix" result="effect1_dropShadow_685_14715"/>
<feBlend mode="normal" in="SourceGraphic" in2="effect1_dropShadow_685_14715" result="shape"/>
</filter>
<filter id="filter10_d_685_14715" x="272.602" y="413.215" width="25" height="25" filterUnits="userSpaceOnUse" color-interpolation-filters="sRGB">
<feFlood flood-opacity="0" result="BackgroundImageFix"/>
<feColorMatrix in="SourceAlpha" type="matrix" values="0 0 0 0 0 0 0 0 0 0 0 0 0 0 0 0 0 0 127 0" result="hardAlpha"/>
<feOffset/>
<feGaussianBlur stdDeviation="1.5"/>
<feComposite in2="hardAlpha" operator="out"/>
<feColorMatrix type="matrix" values="0 0 0 0 0 0 0 0 0 0 0 0 0 0 0 0 0 0 0.3 0"/>
<feBlend mode="normal" in2="BackgroundImageFix" result="effect1_dropShadow_685_14715"/>
<feBlend mode="normal" in="SourceGraphic" in2="effect1_dropShadow_685_14715" result="shape"/>
</filter>
<filter id="filter11_d_685_14715" x="196.48" y="304.961" width="18.9453" height="36.455" filterUnits="userSpaceOnUse" color-interpolation-filters="sRGB">
<feFlood flood-opacity="0" result="BackgroundImageFix"/>
<feColorMatrix in="SourceAlpha" type="matrix" values="0 0 0 0 0 0 0 0 0 0 0 0 0 0 0 0 0 0 127 0" result="hardAlpha"/>
<feOffset/>
<feGaussianBlur stdDeviation="2"/>
<feComposite in2="hardAlpha" operator="out"/>
<feColorMatrix type="matrix" values="0 0 0 0 0 0 0 0 0 0 0 0 0 0 0 0 0 0 0.25 0"/>
<feBlend mode="normal" in2="BackgroundImageFix" result="effect1_dropShadow_685_14715"/>
<feBlend mode="normal" in="SourceGraphic" in2="effect1_dropShadow_685_14715" result="shape"/>
</filter>
</defs>
</svg>
