<svg width="64" height="39" viewBox="0 0 64 39" fill="none" xmlns="http://www.w3.org/2000/svg">
<path d="M0 6.87845C0 3.07959 3.07959 0 6.87845 0H56.7838C60.5826 0 63.6622 3.07959 63.6622 6.87845V32.0262C63.6622 35.8251 60.5826 38.9047 56.7838 38.9047H6.87845C3.07959 38.9047 0 35.8251 0 32.0262V6.87845Z" fill="#FA827A"/>
<path d="M29.3066 12.2188H18.1445V13.9766H27.0654C27.0479 14.7588 26.9951 15.6641 26.8105 16.8066L29.0254 16.9824C29.2979 15.4004 29.2979 14.126 29.3066 13.168V12.2188ZM16.5098 19.373H31.0293V17.6328H24.1738V15.2773H21.959V17.6328H16.5098V19.373ZM18.127 22.1504H27.0918V23.1348H18.1445V27.4941H29.7461V25.7715H20.377V24.6465H29.3066V20.375H18.127V22.1504ZM44.7227 11.6387H42.4727V23.416H44.7227V17.9844H46.8848V16.1387H44.7227V11.6387ZM32.5059 20.8672H40.2578V12.7637H38.0078V15.084H34.7383V12.7637H32.5059V20.8672ZM34.3516 27.3359H45.3027V25.543H36.584V22.2031H34.3516V27.3359ZM34.7383 19.1094V16.8066H38.0078V19.1094H34.7383Z" fill="white"/>
</svg>
