<svg width="64" height="39" viewBox="0 0 64 39" fill="none" xmlns="http://www.w3.org/2000/svg">
<path d="M0 6.87845C0 3.07959 3.07959 0 6.87845 0H56.7838C60.5826 0 63.6622 3.07959 63.6622 6.87845V32.0262C63.6622 35.8251 60.5826 38.9047 56.7838 38.9047H6.87845C3.07959 38.9047 0 35.8251 0 32.0262V6.87845Z" fill="#FA827A"/>
<path d="M25.9141 14.0117H22.3105V11.8672H20.0781V14.0117H16.5098V15.8047H25.9141V14.0117ZM17.3359 20.5156C17.3359 22.6953 18.9883 24.3213 21.2031 24.3301C23.4092 24.3213 25.0352 22.6953 25.0527 20.5156C25.0352 18.3096 23.4092 16.6924 21.2031 16.7012C18.9883 16.6924 17.3359 18.3096 17.3359 20.5156ZM19.4277 20.5156C19.4189 19.3291 20.1836 18.5908 21.2031 18.582C22.2227 18.5908 22.9873 19.3291 22.9785 20.5156C22.9873 21.7197 22.2227 22.4316 21.2031 22.4141C20.1836 22.4316 19.4189 21.7197 19.4277 20.5156ZM25.5801 19.7598H27.7598V27.6172H29.9746V11.6211H27.7598V17.9492H25.5801V19.7598ZM45.4434 11.6211H43.2109V27.6523H45.4434V11.6211ZM32.875 14.7676H38.2012V17.3516H32.8926V23.9082H34.334C37.252 23.9082 39.6338 23.8115 42.2617 23.3457L42.0684 21.5352C39.7217 21.9219 37.6562 22.0449 35.2129 22.0625V19.127H40.4863V12.957H32.875V14.7676Z" fill="white"/>
</svg>
