<svg width="64" height="38" viewBox="0 0 64 38" fill="none" xmlns="http://www.w3.org/2000/svg">
<path d="M0 6.87845C0 3.07959 3.07959 0 6.87845 0H56.7838C60.5826 0 63.6622 3.07959 63.6622 6.87845V30.8473C63.6622 34.6462 60.5826 37.7258 56.7838 37.7258H6.87845C3.07959 37.7258 0 34.6462 0 30.8473V6.87845Z" fill="#FA827A"/>
<path d="M31.0996 19.5684H16.457V21.3613H22.627V26.5996H24.8418V21.3613H31.0996V19.5684ZM18.1797 17.8457H29.3418V11.3945H18.1797V17.8457ZM20.3945 16.0879V13.1699H27.1094V16.0879H20.3945ZM46.6562 18.5664H32.0137V20.2539H46.6562V18.5664ZM33.4551 26.3535H45.2324V24.6309H42.9121V22.8379H45.0566V21.1152H33.5957V22.8379H35.7754V24.6309H33.4551V26.3535ZM33.8066 12.6777H42.6309V13.5215H33.8418V17.7051H45.1797V16.0176H36.0742V15.1387H44.8809V10.9551H33.8066V12.6777ZM37.9902 24.6309V22.8379H40.7148V24.6309H37.9902Z" fill="white"/>
</svg>
