<svg width="64" height="39" viewBox="0 0 64 39" fill="none" xmlns="http://www.w3.org/2000/svg">
<path d="M0 6.87845C0 3.07959 3.07959 0 6.87845 0H56.7838C60.5826 0 63.6622 3.07959 63.6622 6.87845V32.0262C63.6622 35.8251 60.5826 38.9047 56.7838 38.9047H6.87845C3.07959 38.9047 0 35.8251 0 32.0262V6.87845Z" fill="#FA827A"/>
<path d="M37.2188 12.2539H26.2852V17.8789H30.627V19.4082H24.4746V21.2188H39.0645V19.4082H32.877V17.8789H37.2188V12.2539ZM26.0918 24.1543H35.0566V27.6172H37.2891V22.3965H26.0918V24.1543ZM28.4824 16.1211V13.9941H35.0215V16.1211H28.4824Z" fill="white"/>
</svg>
