<svg width="64" height="38" viewBox="0 0 64 38" fill="none" xmlns="http://www.w3.org/2000/svg">
<path d="M0 6.87845C0 3.07959 3.07959 0 6.87845 0H56.7838C60.5826 0 63.6622 3.07959 63.6622 6.87845V30.8473C63.6622 34.6462 60.5826 37.7258 56.7838 37.7258H6.87845C3.07959 37.7258 0 34.6462 0 30.8473V6.87845Z" fill="#FA827A"/>
<path d="M20.8867 11.7461C18.4609 11.7461 16.7207 13.9521 16.7383 17.4414C16.7207 20.957 18.4609 23.1543 20.8867 23.1543C23.1191 23.1543 24.7715 21.2734 25.0088 18.1973H27.7598V26.6523H29.9746V10.6211H27.7598V16.4043H24.9824C24.666 13.5215 23.0488 11.7461 20.8867 11.7461ZM18.8828 17.4414C18.874 15.0684 19.6914 13.7676 20.8867 13.7676C22.0908 13.7676 22.8906 15.0684 22.8906 17.4414C22.8906 19.8232 22.0908 21.124 20.8867 21.1152C19.6914 21.124 18.874 19.8232 18.8828 17.4414ZM46.2344 10.6035H44.0723V16.7031H42.8242V10.8848H40.7324V25.9141H42.8242V18.5137H44.0723V26.5996H46.2344V10.6035ZM31.7676 21.8711L33.5254 22.873C35.5645 19.8232 35.9951 16.3955 36.0039 12.4844H32.3477V14.2773H34.0879C33.9561 17.248 33.3936 19.5332 31.7676 21.8711ZM35.5293 22.8555L37.3047 23.8047C39.4492 20.4912 39.792 16.5449 39.8008 12.4844H36.4785V14.2773H37.8408C37.7529 17.4941 37.3047 20.2188 35.5293 22.8555Z" fill="white"/>
</svg>
