<svg width="109" height="109" viewBox="0 0 109 109" fill="none" xmlns="http://www.w3.org/2000/svg">
<mask id="mask0_685_14562" style="mask-type:alpha" maskUnits="userSpaceOnUse" x="0" y="0" width="109" height="109">
<ellipse cx="54.6118" cy="54.7536" rx="54.3891" ry="54.1682" fill="#D9D9D9"/>
</mask>
<g mask="url(#mask0_685_14562)">
<path d="M97.107 174.533C97.6642 177.323 97.9237 180.164 97.8811 183.009H10.8399C10.8 180.166 11.0623 177.328 11.6223 174.541L32.1205 72.2446C33.5226 67.2639 36.4584 62.8494 40.5125 59.626C44.4488 56.4992 49.3258 54.7877 54.3564 54.7677C64.5849 54.7677 73.6111 61.8538 76.5923 72.2282L97.107 174.533Z" fill="#BB7AAB"/>
<path d="M7.5476 107.837L-30.9041 169.968L-35.2195 176.676C-35.3833 177.036 -35.4119 177.443 -35.3001 177.821C-35.1883 178.2 -34.9435 178.526 -34.6106 178.74C-34.2776 178.954 -33.8788 179.04 -33.487 178.985C-33.0952 178.929 -32.7367 178.734 -32.4771 178.436L-28.0463 173.627L-32.1641 180.088C-32.3218 180.446 -32.3464 180.848 -32.2336 181.223C-32.1208 181.598 -31.878 181.92 -31.5486 182.132C-31.2193 182.343 -30.8251 182.431 -30.4368 182.379C-30.0485 182.327 -29.6915 182.138 -29.4299 181.847L-24.4886 176.241L-28.8699 183.713C-29.029 183.89 -29.1476 184.1 -29.2177 184.327C-29.2878 184.554 -29.3077 184.794 -29.2759 185.03C-29.2442 185.266 -29.1616 185.492 -29.0338 185.692C-28.9061 185.893 -28.7362 186.064 -28.5359 186.193C-28.3356 186.322 -28.1097 186.406 -27.8738 186.439C-27.6379 186.472 -27.3975 186.454 -27.1693 186.385C-26.9411 186.317 -26.7306 186.2 -26.5521 186.042C-26.3737 185.885 -26.2316 185.69 -26.1357 185.472L-21.0379 178.789L-24.3321 185.415C-24.4892 185.593 -24.606 185.803 -24.6742 186.03C-24.7425 186.257 -24.7608 186.496 -24.7277 186.731C-24.6947 186.966 -24.6111 187.191 -24.4828 187.39C-24.3544 187.59 -24.1843 187.759 -23.9841 187.887C-23.784 188.015 -23.5585 188.098 -23.3232 188.131C-23.0878 188.163 -22.8482 188.145 -22.6207 188.076C-22.3933 188.008 -22.1833 187.891 -22.0054 187.734C-21.8274 187.577 -21.6856 187.383 -21.5897 187.166L-17.7931 181.091L-12.9259 173.742L-11.0153 176.068C-10.7461 176.45 -10.3512 176.724 -9.89953 176.845C-9.44791 176.965 -8.96833 176.923 -8.54462 176.726C-8.16887 176.519 -7.88889 176.174 -7.7643 175.764C-7.63971 175.354 -7.68035 174.911 -7.87755 174.531L-10.3482 169.845L24.0845 117.85" fill="#F6C4DE"/>
<path d="M102.043 107.837L140.503 169.968L144.811 176.676C144.97 176.854 145.088 177.063 145.158 177.29C145.228 177.518 145.248 177.757 145.217 177.993C145.185 178.229 145.102 178.455 144.975 178.656C144.847 178.856 144.677 179.027 144.477 179.156C144.276 179.285 144.05 179.369 143.814 179.402C143.579 179.435 143.338 179.417 143.11 179.348C142.882 179.28 142.671 179.163 142.493 179.005C142.314 178.848 142.172 178.653 142.076 178.436L137.637 173.627L141.796 180.088C141.96 180.448 141.989 180.854 141.877 181.233C141.765 181.612 141.52 181.938 141.187 182.152C140.854 182.365 140.456 182.452 140.064 182.396C139.672 182.34 139.314 182.145 139.054 181.847L134.113 176.241L138.494 183.713C138.653 183.89 138.772 184.1 138.842 184.327C138.912 184.554 138.932 184.794 138.9 185.03C138.868 185.266 138.786 185.492 138.658 185.692C138.53 185.893 138.36 186.064 138.16 186.193C137.96 186.322 137.734 186.406 137.498 186.439C137.262 186.472 137.022 186.454 136.793 186.385C136.565 186.317 136.355 186.2 136.176 186.042C135.998 185.885 135.856 185.69 135.76 185.472L130.654 178.789L133.948 185.415C134.109 185.592 134.229 185.802 134.301 186.03C134.372 186.258 134.393 186.499 134.361 186.736C134.33 186.973 134.247 187.2 134.119 187.402C133.99 187.603 133.819 187.775 133.618 187.904C133.416 188.033 133.189 188.117 132.952 188.149C132.715 188.181 132.473 188.162 132.244 188.092C132.015 188.021 131.805 187.902 131.627 187.742C131.449 187.582 131.308 187.386 131.214 187.166L127.409 181.091L122.55 173.742L120.639 176.068C120.37 176.45 119.975 176.724 119.524 176.845C119.072 176.965 118.592 176.923 118.169 176.726C117.791 176.52 117.51 176.176 117.384 175.766C117.257 175.355 117.297 174.912 117.493 174.531L119.964 169.845L85.5312 117.85" fill="#F6C4DE"/>
<path d="M104.53 111.49L77.8713 124.964L58.7979 71.5302C58.1585 69.7364 58.1954 67.7716 58.9017 66.003C59.608 64.2345 60.9353 62.7831 62.6356 61.9203C64.3392 61.0575 66.2995 60.8445 68.1492 61.3212C69.9989 61.7979 71.6108 62.9316 72.6829 64.5098L104.53 111.49Z" fill="#BB7AAB"/>
<path d="M3.96484 111.49L30.615 124.972L49.6967 71.538C50.3378 69.7423 50.3009 67.7747 49.5929 66.0042C48.8849 64.2336 47.5544 62.7815 45.8507 61.92C44.1478 61.0566 42.1876 60.8441 40.3387 61.3225C38.4899 61.8009 36.8799 62.9372 35.8116 64.5176L3.96484 111.49Z" fill="#BB7AAB"/>
<path d="M85.8674 123.046C85.7725 123.046 85.6805 123.013 85.6069 122.953C85.5334 122.894 85.4829 122.81 85.4639 122.717L79.5343 93.1232C79.5146 93.0166 79.5371 92.9065 79.597 92.8161C79.6569 92.7257 79.7495 92.6619 79.8555 92.6382C79.9085 92.6274 79.9631 92.6271 80.0162 92.6374C80.0693 92.6477 80.1199 92.6682 80.165 92.698C80.2101 92.7278 80.2489 92.7661 80.2792 92.8109C80.3094 92.8556 80.3306 92.9059 80.3414 92.9588L86.2709 122.553C86.2829 122.605 86.284 122.66 86.2741 122.713C86.2642 122.765 86.2436 122.816 86.2135 122.86C86.1834 122.905 86.1445 122.943 86.0992 122.972C86.0538 123.001 86.003 123.021 85.9498 123.03L85.8674 123.046Z" fill="#1D1D1B"/>
<path d="M22.5274 122.046H22.4532C22.3458 122.024 22.2511 121.961 22.1895 121.87C22.128 121.78 22.1044 121.669 22.1238 121.561L27.4687 93.3232C27.4883 93.2142 27.5506 93.1174 27.6417 93.0542C27.7328 92.991 27.8454 92.9665 27.9546 92.9861C28.0638 93.0057 28.1607 93.0678 28.224 93.1588C28.2874 93.2498 28.3119 93.3621 28.2922 93.4711L22.9556 121.709C22.9394 121.808 22.8864 121.898 22.8072 121.96C22.7279 122.023 22.628 122.053 22.5274 122.046Z" fill="#1D1D1B"/>
<path d="M65.1147 32.5797C68.6579 32.5797 71.5302 29.7127 71.5302 26.1759C71.5302 22.6392 68.6579 19.7721 65.1147 19.7721C61.5715 19.7721 58.6992 22.6392 58.6992 26.1759C58.6992 29.7127 61.5715 32.5797 65.1147 32.5797Z" fill="#B7679F"/>
<path d="M66.1761 45.8722C56.2193 28.9872 41.3789 41.9511 41.3789 40.7097V39.4602C41.3789 39.4602 41.593 25.1729 56.2934 25.1729C69.0338 25.1729 69.5444 39.6904 69.9726 41.1536L66.1761 45.8722Z" fill="#B7679F"/>
<path d="M55.3868 53.773C62.5277 53.773 68.3166 48.2155 68.3166 41.36C68.3166 34.5044 62.5277 28.9469 55.3868 28.9469C48.2459 28.9469 42.457 34.5044 42.457 41.36C42.457 48.2155 48.2459 53.773 55.3868 53.773Z" fill="#F6C4DE"/>
<path d="M65.1172 39.3787H69.5397C70.0661 39.3787 70.5709 39.5874 70.9431 39.9589C71.3153 40.3305 71.5244 40.8344 71.5244 41.3598C71.5244 41.8853 71.3153 42.3892 70.9431 42.7607C70.5709 43.1322 70.0661 43.341 69.5397 43.341H65.1172V39.3787Z" fill="#F6C4DE"/>
<path d="M45.6641 43.3411H41.2416C40.7152 43.3411 40.2104 43.1323 39.8381 42.7608C39.4659 42.3893 39.2568 41.8854 39.2568 41.3599C39.2568 40.8345 39.4659 40.3306 39.8381 39.9591C40.2104 39.5875 40.7152 39.3788 41.2416 39.3788H45.6641V43.3411Z" fill="#F6C4DE"/>
<path d="M49.6052 41.177C50.0646 41.177 50.437 40.8053 50.437 40.3468C50.437 39.8882 50.0646 39.5165 49.6052 39.5165C49.1458 39.5165 48.7734 39.8882 48.7734 40.3468C48.7734 40.8053 49.1458 41.177 49.6052 41.177Z" fill="#624EC5"/>
<path d="M59.6873 41.177C60.1466 41.177 60.519 40.8053 60.519 40.3468C60.519 39.8882 60.1466 39.5165 59.6873 39.5165C59.2279 39.5165 58.8555 39.8882 58.8555 40.3468C58.8555 40.8053 59.2279 41.177 59.6873 41.177Z" fill="#624EC5"/>
<path d="M55.7999 44.4186C55.7211 44.4315 55.6402 44.4214 55.5671 44.3893C55.494 44.3571 55.4318 44.3045 55.3881 44.2377C54.9603 43.586 54.4869 42.9652 53.9716 42.3799C53.9936 43.0139 54.0596 43.6457 54.1693 44.2706C54.1861 44.3783 54.1603 44.4883 54.0973 44.5773C54.0342 44.6663 53.9389 44.7273 53.8316 44.7474C53.7225 44.764 53.6112 44.7372 53.5218 44.6725C53.4325 44.6079 53.3721 44.5108 53.3539 44.4022C52.9339 41.8702 53.2798 41.5496 53.4116 41.4345C53.4755 41.3747 53.5536 41.332 53.6386 41.3104C53.7236 41.2888 53.8126 41.2891 53.8975 41.3112C54.4246 41.451 55.3716 42.7334 56.0717 43.7774C56.1321 43.867 56.1547 43.9767 56.1347 44.0829C56.1146 44.189 56.0535 44.2831 55.9646 44.3446C55.9151 44.3799 55.8591 44.405 55.7999 44.4186Z" fill="#B7577E"/>
<path d="M54.0867 47.6804C52.9851 47.6363 51.899 47.4056 50.8748 46.9981C50.8215 46.9798 50.7728 46.9501 50.7321 46.9111C50.6915 46.8722 50.6599 46.8248 50.6395 46.7724C50.6191 46.7199 50.6104 46.6636 50.6141 46.6075C50.6178 46.5513 50.6337 46.4967 50.6607 46.4473C50.7323 46.3454 50.8378 46.2721 50.9584 46.2405C51.0791 46.2089 51.207 46.221 51.3195 46.2746C51.4595 46.3322 54.8526 47.7708 57.9079 45.9458C58.0165 45.8837 58.1429 45.8596 58.2668 45.8775C58.3907 45.8953 58.505 45.9541 58.5915 46.0445C58.6277 46.0873 58.6539 46.1375 58.6683 46.1916C58.6827 46.2458 58.6848 46.3025 58.6745 46.3575C58.6643 46.4126 58.6419 46.4647 58.6091 46.5101C58.5762 46.5554 58.5336 46.593 58.4844 46.6199C57.1561 47.4003 55.6255 47.7694 54.0867 47.6804Z" fill="#624EC5"/>
<path d="M55.4714 27.9679C55.4714 27.9679 55.4714 39.3945 42.4922 36.9036C42.4922 36.9036 44.3122 28.0583 48.8088 27.713C53.3054 27.3678 55.4714 27.9679 55.4714 27.9679Z" fill="#B7679F"/>
<path d="M54.6484 28.6596C54.6484 28.6596 55.299 39.3956 68.3112 36.8801C68.3112 36.8801 66.4994 28.0348 61.9945 27.6895C59.5036 27.4408 56.9889 27.7728 54.6484 28.6596Z" fill="#B7679F"/>
<path d="M108.497 54.7536C108.497 84.3918 84.3719 108.422 54.6079 108.422C24.8438 108.422 0.71875 84.3918 0.71875 54.7536C0.71875 25.1154 24.8438 1.08545 54.6079 1.08545C84.3719 1.08545 108.497 25.1154 108.497 54.7536Z" stroke="#8666FF"/>
</g>
</svg>
