<svg width="287" height="66" viewBox="0 0 287 66" fill="none" xmlns="http://www.w3.org/2000/svg">
<path d="M9.7207 1.68774H0.949219V3.05884H2.47852V10.6614L0.474609 10.6877L0.650391 12.0764C3.38379 12.0764 7.0752 12.0061 10.2832 11.4963L10.1777 10.2659C9.47461 10.345 8.74512 10.4153 7.99805 10.468V3.05884H9.7207V1.68774ZM4.11328 10.635V3.05884H6.39844V10.5559C5.63379 10.5911 4.86035 10.6174 4.11328 10.635ZM9.21094 7.36548H12.0586V15.8733H13.7109V0.123291H12.0586V5.99438H9.21094V7.36548ZM30.5508 12.4631H16.1367V13.8342H30.5508V12.4631ZM16.8047 8.52563L17.4902 9.86157C19.9863 9.37817 22.3154 7.85767 23.3262 5.76587C24.3545 7.84009 26.7012 9.31665 29.25 9.79126L29.918 8.4729C26.9209 7.99829 24.1875 5.87134 24.1875 3.46313V2.97095H29.3027V1.61743H17.332V2.97095H22.4473V3.46313C22.4473 5.87134 19.7314 8.05103 16.8047 8.52563ZM46.1074 12.5686H39.6738V9.21118H44.7363V7.89282H42.3809V2.93579H44.7891V1.58228H32.9238V2.93579H35.3145V7.89282H32.959V9.21118H38.0215V12.5686H31.6934V13.9924H46.1074V12.5686ZM36.9668 7.89282V2.93579H40.7461V7.89282H36.9668ZM61.6641 12.4631H47.25V13.8342H61.6641V12.4631ZM47.918 8.52563L48.6035 9.86157C51.0996 9.37817 53.4287 7.85767 54.4395 5.76587C55.4678 7.84009 57.8145 9.31665 60.3633 9.79126L61.0312 8.4729C58.0342 7.99829 55.3008 5.87134 55.3008 3.46313V2.97095H60.416V1.61743H48.4453V2.97095H53.5605V3.46313C53.5605 5.87134 50.8447 8.05103 47.918 8.52563ZM63.7559 9.52759C63.7734 12.8499 64.7139 15.6008 66.3574 17.9651H68.0801C66.8672 16.2161 65.707 12.6741 65.707 9.52759C65.707 6.38989 66.8672 2.8479 68.0801 1.10767H66.3574C64.7139 3.46313 63.7734 6.21411 63.7559 9.52759ZM69.9609 14.3792H71.8945V9.91431H74.4961C77.4492 9.91431 78.9082 8.13013 78.9082 5.78345C78.9082 3.42798 77.458 1.65259 74.4961 1.65259H69.9609V14.3792ZM71.8945 8.26196V3.30493H74.3027C76.1748 3.31372 76.957 4.34204 76.957 5.78345C76.957 7.21606 76.1748 8.27075 74.3027 8.26196H71.8945ZM80.2617 11.6897C80.2529 13.553 81.668 14.5901 83.4785 14.5901C85.0605 14.5901 85.9395 13.7903 86.3086 13.0784H86.3789V14.3792H88.207V8.03345C88.1982 5.26489 85.9834 4.71118 84.4629 4.71118C82.2041 4.71118 80.7275 5.85376 80.5605 7.43579H82.4238C82.6172 6.73267 83.2852 6.2229 84.3926 6.2229C85.667 6.2229 86.335 6.84692 86.3262 7.92798L86.335 8.69263C85.8955 8.71021 84.4629 8.78931 83.8301 8.82446C82.1074 8.94751 80.2529 9.51001 80.2617 11.6897ZM82.0898 11.7073C82.0898 10.7668 82.8633 10.301 84.0938 10.2131C84.542 10.1868 85.9043 10.0901 86.335 10.0637L86.3438 10.9338C86.3438 12.0676 85.4297 13.0872 83.9004 13.0959C82.8457 13.0872 82.0898 12.6213 82.0898 11.7073ZM96.5391 10.4065C96.5391 12.0325 95.335 12.7971 94.2891 12.7971C93.1465 12.7971 92.3555 11.9709 92.3555 10.6702V4.83423H90.4746V10.8987C90.4746 13.2629 91.7754 14.5022 93.6211 14.5022C95.0537 14.5022 96.0293 13.7463 96.4688 12.7268H96.5742V14.3792H98.4023V4.83423H96.5391V10.4065ZM106.049 7.43579H107.859C107.675 5.79224 106.348 4.71118 104.221 4.71118C102.006 4.71118 100.529 5.88013 100.529 7.57642C100.529 8.89478 101.426 9.81763 103.148 10.1956L104.643 10.512C105.653 10.7493 106.11 11.1448 106.119 11.76C106.11 12.5598 105.328 13.0696 104.115 13.0608C102.981 13.0696 102.331 12.6389 102.164 11.7776H100.248C100.485 13.553 101.839 14.5725 104.133 14.5725C106.567 14.5725 108.026 13.342 108.035 11.6194C108.026 10.2659 107.174 9.43091 105.416 9.0354L103.904 8.68384C102.85 8.43774 102.401 8.03345 102.41 7.47095C102.401 6.74146 103.166 6.18774 104.238 6.18774C105.275 6.18774 105.873 6.67993 106.049 7.43579ZM113.977 14.5725C116.077 14.5725 117.545 13.5354 117.967 11.9885H116.068C115.752 12.5686 115.058 13.0256 113.994 13.0256C112.43 13.0256 111.357 11.9973 111.305 10.178H118.09V9.51001C118.09 6.05591 116.024 4.71118 113.854 4.71118C111.19 4.71118 109.433 6.73267 109.441 9.66821C109.433 12.6301 111.164 14.5725 113.977 14.5725ZM111.313 8.77173C111.393 7.427 112.368 6.24927 113.871 6.25806C115.304 6.24927 116.244 7.32153 116.244 8.77173H111.313ZM124.506 14.3792H126.439V9.91431H129.041C131.994 9.91431 133.453 8.13013 133.453 5.78345C133.453 3.42798 132.003 1.65259 129.041 1.65259H124.506V14.3792ZM126.439 8.26196V3.30493H128.848C130.72 3.31372 131.502 4.34204 131.502 5.78345C131.502 7.21606 130.72 8.27075 128.848 8.26196H126.439ZM139.254 14.5725C141.943 14.5725 143.701 12.6038 143.701 9.65063C143.701 6.67993 141.943 4.71118 139.254 4.71118C136.547 4.71118 134.78 6.67993 134.789 9.65063C134.78 12.6038 136.547 14.5725 139.254 14.5725ZM136.67 9.65063C136.67 7.82251 137.505 6.26685 139.254 6.25806C140.977 6.26685 141.803 7.82251 141.803 9.65063C141.803 11.47 140.977 13.0081 139.254 13.0081C137.505 13.0081 136.67 11.47 136.67 9.65063ZM150.908 7.43579H152.719C152.534 5.79224 151.207 4.71118 149.08 4.71118C146.865 4.71118 145.389 5.88013 145.389 7.57642C145.389 8.89478 146.285 9.81763 148.008 10.1956L149.502 10.512C150.513 10.7493 150.97 11.1448 150.979 11.76C150.97 12.5598 150.188 13.0696 148.975 13.0608C147.841 13.0696 147.19 12.6389 147.023 11.7776H145.107C145.345 13.553 146.698 14.5725 148.992 14.5725C151.427 14.5725 152.886 13.342 152.895 11.6194C152.886 10.2659 152.033 9.43091 150.275 9.0354L148.764 8.68384C147.709 8.43774 147.261 8.03345 147.27 7.47095C147.261 6.74146 148.025 6.18774 149.098 6.18774C150.135 6.18774 150.732 6.67993 150.908 7.43579ZM158.836 14.5725C160.937 14.5725 162.404 13.5354 162.826 11.9885H160.928C160.611 12.5686 159.917 13.0256 158.854 13.0256C157.289 13.0256 156.217 11.9973 156.164 10.178H162.949V9.51001C162.949 6.05591 160.884 4.71118 158.713 4.71118C156.05 4.71118 154.292 6.73267 154.301 9.66821C154.292 12.6301 156.023 14.5725 158.836 14.5725ZM156.173 8.77173C156.252 7.427 157.228 6.24927 158.73 6.25806C160.163 6.24927 161.104 7.32153 161.104 8.77173H156.173ZM168.574 9.52759C168.557 6.21411 167.616 3.46313 165.973 1.10767H164.25C165.463 2.8479 166.623 6.38989 166.623 9.52759C166.623 12.6741 165.463 16.2161 164.25 17.9651H165.973C167.616 15.6008 168.557 12.8499 168.574 9.52759ZM183.428 4.72876H174.234V0.685791H172.582V6.0647H183.428V4.72876ZM170.666 9.38696H185.08V8.05103H170.666V9.38696ZM172.459 15.5042H183.533V14.1331H174.129V10.8811H172.459V15.5042ZM204.17 0.123291H202.553V6.3811H200.619V0.492432H199.055V15.1174H200.619V7.7522H202.553V15.8733H204.17V0.123291ZM190.688 11.4963L191.672 12.6917C196.444 10.0286 197.64 6.21411 197.648 2.00415H191.531V3.35767H196.014C195.961 4.1311 195.847 4.87817 195.653 5.59009L190.74 5.88892L190.951 7.3479L195.188 6.89966C194.405 8.66626 193.008 10.2131 190.688 11.4963ZM219.252 0.140869H217.582V9.7561H219.252V0.140869ZM206.982 2.40845H212.572V4.25415H207.018V8.94751H208.336C211.315 8.9563 213.46 8.86841 216.035 8.4729L215.824 7.11938C213.425 7.47095 211.412 7.55884 208.652 7.57642V5.55493H214.225V1.05493H206.982V2.40845ZM208.582 11.9358H217.582V15.8733H219.252V10.5647H208.582V11.9358ZM234.879 0.123291H233.227V5.94165H230.098V7.31274H233.227V15.9084H234.879V0.123291ZM222.469 12.1819H223.699C226.617 12.1731 228.595 12.0764 230.889 11.7073L230.713 10.3538C228.621 10.7141 226.793 10.7932 224.156 10.7932V7.27759H229.166V5.94165H224.156V2.88306H229.834V1.52954H222.469V12.1819ZM251.701 7.3479H237.287V8.6311H251.701V7.3479ZM238.992 10.9338H248.273V12.094H239.01V15.6799H250.418V14.5022H240.68V13.2014H249.926V9.73853H238.992V10.9338ZM239.098 1.70532H248.221V2.83032H239.133V6.31079H250.154V5.13306H240.785V3.93774H249.891V0.527588H239.098V1.70532ZM271.617 8.40259H265.254V7.03149H269.965V5.73071H260.789V4.39478H269.455V3.14673H260.789V1.86353H269.859V0.545166H259.102V7.03149H263.584V8.40259H257.221V9.72095H271.617V8.40259ZM258.961 13.3069C258.961 14.968 260.921 15.8469 264.428 15.8381C267.882 15.8469 269.851 14.968 269.859 13.3069C269.851 11.6545 267.882 10.7493 264.428 10.7581C260.921 10.7493 258.961 11.6545 258.961 13.3069ZM260.631 13.3069C260.622 12.4543 261.94 12.0061 264.428 12.0061C266.88 12.0061 268.189 12.4543 268.189 13.3069C268.189 14.1594 266.88 14.5901 264.428 14.5725C261.94 14.5901 260.622 14.1594 260.631 13.3069ZM280.6 2.72485H277.523V0.580322H275.871V2.72485H272.777V4.07837H280.6V2.72485ZM273.287 8.64868C273.278 10.802 274.72 12.3137 276.697 12.3049C278.692 12.3137 280.116 10.802 280.125 8.64868C280.116 6.53052 278.692 5.02759 276.697 5.02759C274.72 5.02759 273.278 6.53052 273.287 8.64868ZM274.764 8.64868C274.755 7.33911 275.563 6.42505 276.697 6.41626C277.831 6.42505 278.648 7.33911 278.648 8.64868C278.648 9.98462 277.831 10.8811 276.697 10.8811C275.563 10.8811 274.755 9.98462 274.764 8.64868ZM281.32 15.135H282.902V8.05103H284.713V15.8733H286.295V0.123291H284.713V6.67993H282.902V0.474854H281.32V15.135ZM6.06445 29.7639V28.094H9.49219V26.7053H0.861328V28.094H4.41211V29.7639C4.40332 32.427 2.67188 35.3977 0.28125 36.5491L1.26562 37.8674C3.05859 36.9709 4.53516 35.0286 5.25586 32.7874C5.96777 34.844 7.37402 36.6194 9.14062 37.4631L10.0898 36.1624C7.69922 35.0286 6.05566 32.2512 6.06445 29.7639ZM11.1797 40.8733H12.8496V32.7698H15.3809V31.3635H12.8496V25.1233H11.1797V40.8733ZM20.9355 29.4299V26.5647H19.3184V29.5002C19.3271 32.1809 18.1494 34.967 15.9258 36.303L16.9629 37.551C18.4922 36.6194 19.582 34.9143 20.1533 32.9192C20.6982 34.7385 21.6914 36.3118 23.168 37.1995L24.0996 35.9163C21.9902 34.6243 20.9355 31.9436 20.9355 29.4299ZM22.3945 32.0491H24.8379V40.0999H26.4199V25.4221H24.8379V30.6604H22.3945V32.0491ZM28.0898 40.8733H29.6895V25.1233H28.0898V40.8733ZM36.4219 26.1252C33.9521 26.1252 32.1768 27.6545 32.1855 29.8694C32.1768 31.8293 33.5654 33.2532 35.5957 33.552V36.1096C34.1279 36.1448 32.7217 36.1536 31.5 36.1624L31.7637 37.5334C34.4883 37.5598 38.1533 37.5334 41.4844 36.9534L41.3613 35.7053C40.0605 35.8723 38.6631 35.9778 37.2656 36.0481V33.552C39.252 33.2356 40.6494 31.8206 40.6582 29.8694C40.6494 27.6545 38.8477 26.1252 36.4219 26.1252ZM33.8027 29.8694C33.7939 28.4631 34.9102 27.5491 36.4219 27.5315C37.916 27.5491 39.0146 28.4631 39.0234 29.8694C39.0146 31.2668 37.916 32.1985 36.4219 32.1897C34.9102 32.1985 33.7939 31.2668 33.8027 29.8694ZM42.3105 40.8733H43.9805V32.928H46.4062V31.5217H43.9805V25.1233H42.3105V40.8733ZM60.416 26.3186H52.4707V27.6897H58.7725C58.7549 28.6829 58.7021 29.9573 58.3594 31.6975L60.0117 31.8557C60.3984 29.8167 60.3984 28.2522 60.416 27.1975V26.3186ZM51.5215 33.2092L51.6797 34.5627C54.457 34.554 58.2188 34.4924 61.5059 33.9124L61.4004 32.6995C59.8184 32.928 58.0781 33.051 56.3906 33.1213V29.8518H54.7383V33.1741C53.5869 33.2004 52.4883 33.2092 51.5215 33.2092ZM53.9121 40.5393H64.6172V39.1858H55.582V35.8811H53.9121V40.5393ZM62.4023 36.9534H64.1074V31.5393H66.2695V30.1331H64.1074V25.1233H62.4023V36.9534ZM74.707 26.2307H67.7988V27.5667H73.0195V29.6936H67.834V34.6682H68.9941C71.9824 34.6682 73.6611 34.6243 75.709 34.2639L75.5332 32.9104C73.6875 33.2268 72.1318 33.3059 69.5039 33.3147V30.9768H74.707V26.2307ZM69.9785 40.4866H80.7891V39.1155H71.6484V35.8635H69.9785V40.4866ZM75.7266 32.594H78.6621V36.7249H80.332V25.1409H78.6621V27.7073H75.7266V29.0432H78.6621V31.2229H75.7266V32.594ZM91.9336 30.1682H85.9043V27.4788H91.793V26.1252H84.2344V31.5217H87.2051V33.5784C85.667 33.6223 84.1729 33.6399 82.8281 33.6487L83.0566 34.9846C86.0186 34.9934 89.7012 34.8967 93.0586 34.4397L92.9355 33.2092C91.6436 33.3499 90.2549 33.4465 88.8574 33.5168V31.5217H91.9336V30.1682ZM85.4297 40.5393H96.3105V39.1858H87.0996V36.092H85.4297V40.5393ZM94.1484 36.9358H95.8184V25.1233H94.1484V36.9358ZM114.979 25.1233H113.309V40.9084H114.979V32.594H117.51V31.2229H114.979V25.1233ZM103.377 36.9885H104.643C107.569 36.9973 109.661 36.9182 112.131 36.4788L111.92 35.0725C109.67 35.4768 107.692 35.5911 105.047 35.5999V27.9885H110.742V26.635H103.377V36.9885ZM132.873 27.3557H130.641V25.1233H128.971V34.4221H130.641V32.1194H132.873V30.7307H130.641V28.7268H132.873V27.3557ZM118.512 29.7815C118.494 31.9788 120.287 33.5168 122.695 33.5256C125.112 33.5168 126.879 31.9788 126.896 29.7815C126.879 27.5667 125.112 26.0374 122.695 26.0374C120.287 26.0374 118.494 27.5667 118.512 29.7815ZM120.146 29.7815C120.129 28.3928 121.219 27.4348 122.695 27.4436C124.172 27.4348 125.253 28.3928 125.262 29.7815C125.253 31.179 124.172 32.1018 122.695 32.1194C121.219 32.1018 120.129 31.179 120.146 29.7815ZM120.27 37.8499C120.27 39.7307 122.309 40.8469 125.561 40.8381C128.777 40.8469 130.781 39.7307 130.781 37.8499C130.781 35.9602 128.777 34.8528 125.561 34.844C122.309 34.8528 120.27 35.9602 120.27 37.8499ZM121.939 37.8499C121.931 36.7952 123.284 36.1887 125.561 36.1975C127.819 36.1887 129.155 36.7952 129.146 37.8499C129.155 38.9221 127.819 39.511 125.561 39.5022C123.284 39.511 121.931 38.9221 121.939 37.8499ZM146.197 25.1409H144.527V36.9182H146.197V31.592H148.482V30.2034H146.197V25.1409ZM133.84 28.3225H143.227V26.969H139.377V25.1233H137.707V26.969H133.84V28.3225ZM134.701 32.0491C134.692 33.8333 136.248 34.9934 138.533 35.0022C140.792 34.9934 142.348 33.8333 142.348 32.0491C142.348 30.2473 140.792 29.0696 138.533 29.0784C136.248 29.0696 134.692 30.2473 134.701 32.0491ZM136.213 40.5393H146.865V39.1858H137.883V35.9866H136.213V40.5393ZM136.318 32.0491C136.301 31.012 137.197 30.3704 138.533 30.3616C139.869 30.3704 140.766 31.012 140.783 32.0491C140.766 33.0774 139.869 33.7102 138.533 33.7014C137.197 33.7102 136.301 33.0774 136.318 32.0491ZM166.904 25.1233H165.234V29.1311H162.299V30.5022H165.234V34.4924H166.904V25.1233ZM153.773 33.0686L154.652 34.4045C156.533 33.7102 157.913 32.2952 158.599 30.5374C159.284 32.093 160.585 33.3586 162.352 33.9651L163.213 32.6467C160.831 31.8381 159.407 29.8958 159.416 27.9006V27.5667H162.791V26.2131H154.301V27.5667H157.711V27.9182C157.72 30.0891 156.217 32.2161 153.773 33.0686ZM156.305 37.9026C156.296 39.7747 158.317 40.8645 161.631 40.8733C164.927 40.8645 166.948 39.7747 166.957 37.9026C166.948 36.0305 164.927 34.9407 161.631 34.9319C158.317 34.9407 156.296 36.0305 156.305 37.9026ZM157.957 37.9026C157.948 36.8303 159.319 36.2239 161.631 36.2327C163.925 36.2239 165.296 36.8303 165.305 37.9026C165.296 38.9661 163.925 39.5725 161.631 39.5549C159.319 39.5725 157.948 38.9661 157.957 37.9026ZM183.744 37.5334H177.328V34.2991H182.039V26.1956H180.387V28.9026H172.652V26.1956H170.982V34.2991H175.676V37.5334H169.33V38.9221H183.744V37.5334ZM172.652 32.9456V30.2561H180.387V32.9456H172.652ZM199.283 32.3479H184.869V33.6311H199.283V32.3479ZM186.574 35.9338H195.855V37.094H186.592V40.6799H198V39.5022H188.262V38.2014H197.508V34.7385H186.574V35.9338ZM186.68 26.7053H195.803V27.8303H186.715V31.3108H197.736V30.1331H188.367V28.9377H197.473V25.5276H186.68V26.7053ZM217.213 25.1233H215.543V33.0862H217.213V29.7991H219.498V28.4104H217.213V25.1233ZM205.084 29.1838C205.066 31.2493 206.833 32.6995 209.215 32.6995C211.605 32.6995 213.346 31.2493 213.346 29.1838C213.346 27.1008 211.605 25.677 209.215 25.6682C206.833 25.677 205.066 27.1008 205.084 29.1838ZM206.701 29.1838C206.692 27.9006 207.765 27.0305 209.215 27.0393C210.665 27.0305 211.729 27.9006 211.729 29.1838C211.729 30.467 210.665 31.3635 209.215 31.3635C207.765 31.3635 206.692 30.467 206.701 29.1838ZM207.035 35.1077H215.561V36.5491H207.07V40.6799H217.758V39.344H208.705V37.7971H217.213V33.8069H207.035V35.1077ZM233.508 25.1233H231.855V28.6389H228.867V30.01H231.855V32.928H228.779V34.3167H231.855V40.9084H233.508V25.1233ZM220.939 27.8655H226.283V30.9417H220.975V37.2698H222.17C224.657 37.2698 226.67 37.1995 229.131 36.8127L228.99 35.4417C226.749 35.7668 224.868 35.8723 222.645 35.8811V32.26H227.918V26.512H220.939V27.8655ZM248.713 32.594H239.396V27.9006H248.572V26.5295H237.744V33.9651H248.713V32.594ZM235.951 38.7991H250.365V37.4104H235.951V38.7991ZM264.621 25.1233H262.969V28.6389H259.98V30.01H262.969V32.928H259.893V34.3167H262.969V40.9084H264.621V25.1233ZM252.053 27.8655H257.396V30.9417H252.088V37.2698H253.283C255.771 37.2698 257.783 37.1995 260.244 36.8127L260.104 35.4417C257.862 35.7668 255.981 35.8723 253.758 35.8811V32.26H259.031V26.512H252.053V27.8655ZM281.479 37.5159H278.033V33.3674C279.299 32.6555 280.055 31.5393 280.055 30.1506C280.055 27.6721 277.62 26.0461 274.236 26.0374C270.861 26.0461 268.427 27.6721 268.436 30.1506C268.427 31.5657 269.218 32.6907 270.51 33.4026V37.5159H267.064V38.9045H281.479V37.5159ZM270.053 30.1506C270.053 28.4543 271.767 27.3733 274.236 27.3733C276.688 27.3733 278.429 28.4543 278.438 30.1506C278.429 31.8381 276.688 32.9368 274.236 32.9456C271.767 32.9368 270.053 31.8381 270.053 30.1506ZM272.162 37.5159V34.0178C272.795 34.1672 273.498 34.2463 274.236 34.2463C274.992 34.2463 275.704 34.1672 276.346 34.0178V37.5159H272.162ZM285.521 26.6526H283.465L283.623 35.7053H285.363L285.521 26.6526ZM283.254 38.2542C283.245 38.9397 283.816 39.4934 284.502 39.5022C285.179 39.4934 285.741 38.9397 285.75 38.2542C285.741 37.5686 285.179 37.0061 284.502 37.0061C283.816 37.0061 283.245 37.5686 283.254 38.2542ZM12.9551 50.1409H11.2852V59.0002H12.9551V55.2209H15.2402V53.8674H12.9551V50.1409ZM0.826172 54.7288C0.808594 56.9172 2.60156 58.429 5.00977 58.4377C7.42676 58.429 9.19336 56.9172 9.21094 54.7288C9.19336 52.5227 7.42676 51.0022 5.00977 51.0022C2.60156 51.0022 0.808594 52.5227 0.826172 54.7288ZM2.46094 54.7288C2.44336 53.3225 3.5332 52.3909 5.00977 52.4084C6.48633 52.3909 7.56738 53.3225 7.57617 54.7288C7.56738 56.1174 6.48633 57.0403 5.00977 57.0491C3.5332 57.0403 2.44336 56.1174 2.46094 54.7288ZM2.63672 65.6272H13.5352V64.2737H11.2324V61.1272H13.3242V59.7913H2.75977V61.1272H4.9043V64.2737H2.63672V65.6272ZM6.52148 64.2737V61.1272H9.59766V64.2737H6.52148ZM23.3086 51.0725C20.0127 51.0725 17.499 52.8215 17.5078 55.467C17.499 58.1301 20.0127 59.8704 23.3086 59.8616C26.6133 59.8704 29.127 58.1301 29.127 55.467C29.127 52.8215 26.6133 51.0725 23.3086 51.0725ZM16.1367 63.8342H30.5508V62.4456H16.1367V63.8342ZM19.1074 55.467C19.0986 53.6389 20.8916 52.4172 23.3086 52.426C25.7168 52.4172 27.501 53.6389 27.5098 55.467C27.501 57.304 25.7168 58.4905 23.3086 58.4905C20.8916 58.4905 19.0986 57.304 19.1074 55.467ZM46.1074 62.5862H39.6914V59.8264H44.7188V58.4553H35.1035V56.1526H44.3496V51.2307H33.416V52.6018H42.6973V54.8167H33.4512V59.8264H38.0391V62.5862H31.6934V63.9924H46.1074V62.5862ZM64.0195 50.1233H62.3496V59.6155H64.0195V55.6252H66.3047V54.2014H64.0195V50.1233ZM51.6621 53.0588H61.0488V51.7229H57.1992V50.0002H55.5293V51.7229H51.6621V53.0588ZM52.5234 56.5569C52.5146 58.262 54.0615 59.3782 56.3555 59.387C58.623 59.3782 60.1699 58.262 60.1699 56.5569C60.1699 54.8782 58.6318 53.7444 56.3555 53.7444C54.0615 53.7444 52.5146 54.8782 52.5234 56.5569ZM53.9648 65.6799H64.0195V60.4417H53.9648V65.6799ZM54.1406 56.5569C54.123 55.6165 55.0195 55.0188 56.3555 55.0276C57.6914 55.0188 58.5879 55.6165 58.6055 56.5569C58.5879 57.5325 57.6914 58.1125 56.3555 58.1213C55.0195 58.1125 54.123 57.5325 54.1406 56.5569ZM55.5996 64.3264V61.76H62.3672V64.3264H55.5996ZM71.1035 51.9866H67.5176V53.3577H69.6533C69.5391 56.3196 68.9854 59.053 67.1484 61.5139L68.4492 62.2522C70.6465 59.1672 71.0859 55.511 71.1035 51.9866ZM70.6816 62.4456L71.9824 63.2014C73.2041 61.4788 73.8545 59.5364 74.2061 57.5764H76.2539V65.0999H77.8359V50.5276H76.2539V56.2229H74.3994C74.5664 54.7551 74.6016 53.3137 74.6016 51.9866H71.5781V53.3577H73.1602C73.0986 56.4075 72.7207 59.7034 70.6816 62.4456ZM79.2246 65.8733H80.8242V50.1233H79.2246V65.8733ZM95.1328 50.0706H93.4629V58.7366H95.1328V55.1331H97.4355V53.762H95.1328V50.0706ZM82.7754 52.7776H92.1621V51.4592H88.3125V49.9827H86.6426V51.4592H82.7754V52.7776ZM83.6367 55.9592C83.6279 57.5588 85.1572 58.5344 87.4688 58.5256C89.7803 58.5344 91.2832 57.5588 91.2832 55.9592C91.2832 54.3684 89.7803 53.3752 87.4688 53.3752C85.1572 53.3752 83.6279 54.3684 83.6367 55.9592ZM84.9551 60.7229H93.4805V61.9534H84.9902V65.7151H95.6777V64.4495H86.625V63.1311H95.1328V59.4749H84.9551V60.7229ZM85.2539 55.9592C85.2363 55.1067 86.1064 54.5793 87.4688 54.5706C88.8223 54.5793 89.7012 55.1067 89.7188 55.9592C89.7012 56.8118 88.8223 57.3127 87.4688 57.3127C86.1064 57.3127 85.2363 56.8118 85.2539 55.9592ZM116.244 50.1233H114.627V56.3811H112.693V50.4924H111.129V65.1174H112.693V57.7522H114.627V65.8733H116.244V50.1233ZM102.762 61.4963L103.746 62.6917C108.519 60.0286 109.714 56.2141 109.723 52.0042H103.605V53.3577H108.088C108.035 54.1311 107.921 54.8782 107.728 55.5901L102.814 55.8889L103.025 57.3479L107.262 56.8997C106.479 58.6663 105.082 60.2131 102.762 61.4963ZM131.326 50.1409H129.656V59.7561H131.326V50.1409ZM119.057 52.4084H124.646V54.2542H119.092V58.9475H120.41C123.39 58.9563 125.534 58.8684 128.109 58.4729L127.898 57.1194C125.499 57.4709 123.486 57.5588 120.727 57.5764V55.5549H126.299V51.0549H119.057V52.4084ZM120.656 61.9358H129.656V65.8733H131.326V60.5647H120.656V61.9358ZM146.953 50.1233H145.301V55.9417H142.172V57.3127H145.301V65.9084H146.953V50.1233ZM134.543 62.1819H135.773C138.691 62.1731 140.669 62.0764 142.963 61.7073L142.787 60.3538C140.695 60.7141 138.867 60.7932 136.23 60.7932V57.2776H141.24V55.9417H136.23V52.8831H141.908V51.5295H134.543V62.1819ZM163.775 57.3479H149.361V58.6311H163.775V57.3479ZM151.066 60.9338H160.348V62.094H151.084V65.6799H162.492V64.5022H152.754V63.2014H162V59.7385H151.066V60.9338ZM151.172 51.7053H160.295V52.8303H151.207V56.3108H162.229V55.1331H152.859V53.9377H161.965V50.5276H151.172V51.7053ZM174.885 53.0061V51.0901H173.232V52.9534C173.224 55.3264 171.765 57.5149 169.312 58.385L170.209 59.7034C172.063 58.9915 173.408 57.5588 174.085 55.7483C174.762 57.3743 176.054 58.675 177.768 59.3342L178.682 58.0334C176.309 57.1985 174.894 55.1418 174.885 53.0061ZM172.178 65.5393H182.812V64.1858H173.865V60.5647H172.178V65.5393ZM177.469 55.0979H180.791V61.8831H182.461V50.1409H180.791V53.7268H177.469V55.0979ZM191.689 51.2483H185.537V58.9299H186.557C189.062 58.9387 190.564 58.8684 192.41 58.5256L192.252 57.1545C190.626 57.4622 189.246 57.5413 187.137 57.5588V55.6428H191.514V54.3596H187.137V52.6018H191.689V51.2483ZM187.611 61.8127H196.664V65.8733H198.316V60.4592H187.611V61.8127ZM193.236 59.5803H194.801V55.5022H196.734V59.7034H198.316V50.1409H196.734V54.1487H194.801V50.4221H193.236V59.5803ZM208.23 52.7249H205.154V50.5803H203.502V52.7249H200.408V54.0784H208.23V52.7249ZM200.918 58.6487C200.909 60.802 202.351 62.3137 204.328 62.3049C206.323 62.3137 207.747 60.802 207.756 58.6487C207.747 56.5305 206.323 55.0276 204.328 55.0276C202.351 55.0276 200.909 56.5305 200.918 58.6487ZM202.395 58.6487C202.386 57.3391 203.194 56.425 204.328 56.4163C205.462 56.425 206.279 57.3391 206.279 58.6487C206.279 59.9846 205.462 60.8811 204.328 60.8811C203.194 60.8811 202.386 59.9846 202.395 58.6487ZM208.951 65.135H210.533V58.051H212.344V65.8733H213.926V50.1233H212.344V56.6799H210.533V50.4749H208.951V65.135ZM230.361 59.0002H216V60.3538H222.328V65.8557H223.963V60.3538H230.361V59.0002ZM216.809 56.4866L217.441 57.8049C219.99 57.4006 222.214 56.1262 223.181 54.3333C224.139 56.1262 226.371 57.4006 228.955 57.8049L229.57 56.4866C226.591 56.0823 224.165 54.3333 224.139 52.3909H229.008V51.0549H217.336V52.3909H222.24C222.188 54.3333 219.744 56.0823 216.809 56.4866ZM236.355 54.4299V51.5647H234.738V54.5002C234.747 57.1809 233.569 59.967 231.346 61.303L232.383 62.551C233.912 61.6194 235.002 59.9143 235.573 57.9192C236.118 59.7385 237.111 61.3118 238.588 62.1995L239.52 60.9163C237.41 59.6243 236.355 56.9436 236.355 54.4299ZM237.814 57.0491H240.258V65.0999H241.84V50.4221H240.258V55.6604H237.814V57.0491ZM243.51 65.8733H245.109V50.1233H243.51V65.8733ZM261.527 62.5159H258.082V58.3674C259.348 57.6555 260.104 56.5393 260.104 55.1506C260.104 52.6721 257.669 51.0461 254.285 51.0374C250.91 51.0461 248.476 52.6721 248.484 55.1506C248.476 56.5657 249.267 57.6907 250.559 58.4026V62.5159H247.113V63.9045H261.527V62.5159ZM250.102 55.1506C250.102 53.4543 251.815 52.3733 254.285 52.3733C256.737 52.3733 258.478 53.4543 258.486 55.1506C258.478 56.8381 256.737 57.9368 254.285 57.9456C251.815 57.9368 250.102 56.8381 250.102 55.1506ZM252.211 62.5159V59.0178C252.844 59.1672 253.547 59.2463 254.285 59.2463C255.041 59.2463 255.753 59.1672 256.395 59.0178V62.5159H252.211ZM264.463 64.5022C265.14 64.4934 265.702 63.9397 265.711 63.2542C265.702 62.5686 265.14 62.0061 264.463 62.0061C263.777 62.0061 263.206 62.5686 263.215 63.2542C263.206 63.9397 263.777 64.4934 264.463 64.5022Z" fill="#6662A8"/>
</svg>
