<svg width="230" height="230" viewBox="0 0 230 230" fill="none" xmlns="http://www.w3.org/2000/svg">
<path d="M229.498 54.1864C229.498 83.8349 205.373 107.873 175.61 107.873C145.847 107.873 121.723 83.8349 121.723 54.1864C121.723 24.538 145.847 0.5 175.61 0.5C205.373 0.5 229.498 24.538 229.498 54.1864Z" stroke="#8666FF"/>
<mask id="mask0_795_11407" style="mask-type:alpha" maskUnits="userSpaceOnUse" x="121" y="0" width="109" height="109">
<ellipse cx="175.614" cy="54.1864" rx="54.3876" ry="54.1864" fill="#F1EFEF"/>
</mask>
<g mask="url(#mask0_795_11407)">
<path d="M218.128 174.672C218.693 177.497 218.957 180.375 218.913 183.255H130.553C130.526 180.376 130.806 177.501 131.388 174.68L152.112 71.0775C153.535 66.0332 156.514 61.5624 160.627 58.2978C164.621 55.1311 169.57 53.3977 174.674 53.3774C185.053 53.3774 194.212 60.554 197.237 71.0608L218.128 174.672Z" fill="#8C81F7"/>
<path d="M127.209 107.127L88.1927 170.051L83.8139 176.845C83.6477 177.209 83.6187 177.621 83.7322 178.004C83.8456 178.388 84.094 178.718 84.4318 178.935C84.7696 179.151 85.1743 179.239 85.5719 179.182C85.9694 179.126 86.3332 178.928 86.5966 178.626L91.0924 173.756L86.9142 180.3C86.7542 180.662 86.7292 181.07 86.8436 181.449C86.9581 181.829 87.2045 182.155 87.5387 182.37C87.8729 182.584 88.2728 182.673 88.6669 182.62C89.0609 182.567 89.4231 182.376 89.6885 182.082L94.7024 176.412L90.2735 183.98C90.1284 184.339 90.1134 184.737 90.2309 185.106C90.3484 185.474 90.5912 185.791 90.9175 186.001C91.2438 186.211 91.6332 186.301 92.0189 186.255C92.4047 186.21 92.7625 186.033 93.0311 185.753L98.2037 178.976L94.8612 185.687C94.6949 186.051 94.6659 186.462 94.7794 186.846C94.8928 187.23 95.1412 187.56 95.479 187.776C95.8168 187.993 96.2215 188.081 96.6191 188.024C97.0166 187.967 97.3804 187.77 97.6438 187.468L101.496 181.307L106.435 173.864L108.373 176.229C108.648 176.614 109.049 176.89 109.507 177.01C109.965 177.131 110.451 177.087 110.88 176.886C111.262 176.677 111.546 176.327 111.672 175.912C111.799 175.497 111.757 175.049 111.557 174.664L109.05 169.926L143.98 117.259" fill="#F6C4DE"/>
<path d="M223.089 107.127L262.114 170.051L266.484 176.845C266.646 177.024 266.766 177.236 266.837 177.466C266.908 177.697 266.929 177.94 266.896 178.178C266.864 178.417 266.78 178.646 266.651 178.849C266.521 179.053 266.349 179.225 266.145 179.356C265.942 179.486 265.713 179.571 265.474 179.605C265.234 179.639 264.99 179.62 264.759 179.551C264.527 179.482 264.314 179.363 264.133 179.203C263.951 179.044 263.807 178.847 263.71 178.626L259.206 173.756L263.384 180.3C263.55 180.664 263.579 181.076 263.466 181.46C263.352 181.843 263.104 182.174 262.766 182.39C262.428 182.606 262.024 182.694 261.626 182.637C261.229 182.581 260.865 182.383 260.601 182.082L255.588 176.412L260.033 183.98C260.195 184.159 260.315 184.371 260.386 184.601C260.457 184.832 260.477 185.075 260.445 185.313C260.413 185.552 260.329 185.781 260.2 185.984C260.07 186.188 259.897 186.36 259.694 186.491C259.491 186.621 259.262 186.706 259.022 186.74C258.783 186.774 258.539 186.755 258.308 186.686C258.076 186.617 257.862 186.498 257.681 186.338C257.5 186.179 257.356 185.982 257.259 185.761L252.078 178.984L255.42 185.695C255.582 185.874 255.702 186.086 255.773 186.317C255.844 186.547 255.865 186.79 255.832 187.028C255.8 187.267 255.716 187.496 255.587 187.699C255.457 187.903 255.285 188.075 255.082 188.206C254.878 188.336 254.649 188.421 254.41 188.455C254.17 188.489 253.926 188.47 253.695 188.401C253.463 188.332 253.25 188.213 253.069 188.053C252.888 187.894 252.743 187.697 252.646 187.477L248.785 181.316L243.855 173.873L241.916 176.237C241.642 176.622 241.241 176.899 240.783 177.019C240.325 177.139 239.839 177.095 239.409 176.895C239.027 176.687 238.741 176.338 238.613 175.922C238.485 175.507 238.525 175.058 238.724 174.672L241.231 169.935L206.293 117.267" fill="#F6C4DE"/>
<path d="M225.65 110.823L198.6 124.477L179.246 70.3615C178.597 68.5436 178.634 66.5524 179.351 64.7599C180.068 62.9673 181.415 61.496 183.141 60.6206C184.87 59.7494 186.86 59.5359 188.736 60.0201C190.613 60.5043 192.248 61.6531 193.335 63.2515L225.65 110.823Z" fill="#8C81F7"/>
<path d="M123.574 110.824L150.616 124.469L169.977 70.3534C170.628 68.5347 170.59 66.5421 169.872 64.7489C169.154 62.9558 167.804 61.4851 166.075 60.6125C164.347 59.74 162.358 59.5258 160.483 60.0102C158.607 60.4946 156.974 61.6442 155.889 63.2434L123.574 110.824Z" fill="#8C81F7"/>
<path d="M161.551 37.8757C161.551 37.8757 161.768 24.022 176.659 23.4059C189.102 22.9064 192.887 34.2291 193.322 35.7027C196.18 45.3353 207.87 55.2177 221.625 56.9328C235.38 58.6478 227.399 76.0815 219.954 74.8992C212.508 73.717 194.667 67.6977 184.573 50.6054C174.478 33.5131 161.551 40.4066 161.551 39.1412V37.8757Z" fill="#806CF6"/>
<path d="M175.752 52.3785C182.998 52.3785 188.872 46.7501 188.872 39.807C188.872 32.8639 182.998 27.2355 175.752 27.2355C168.507 27.2355 162.633 32.8639 162.633 39.807C162.633 46.7501 168.507 52.3785 175.752 52.3785Z" fill="#F6C4DE"/>
<path d="M185.617 37.7921H190.105C190.639 37.7921 191.151 38.0035 191.529 38.3798C191.906 38.7561 192.118 39.2664 192.118 39.7986C192.118 40.3307 191.906 40.8411 191.529 41.2173C191.151 41.5936 190.639 41.805 190.105 41.805H185.617V37.7921Z" fill="#F6C4DE"/>
<path d="M165.879 41.8135H161.392C160.857 41.8135 160.345 41.6021 159.967 41.2258C159.59 40.8495 159.378 40.3392 159.378 39.807C159.378 39.2749 159.59 38.7645 159.967 38.3883C160.345 38.012 160.857 37.8006 161.392 37.8006H165.879V41.8135Z" fill="#F6C4DE"/>
<path d="M169.887 37.942C170.354 37.942 170.732 37.5655 170.732 37.1011C170.732 36.6367 170.354 36.2603 169.887 36.2603C169.421 36.2603 169.043 36.6367 169.043 37.1011C169.043 37.5655 169.421 37.942 169.887 37.942Z" fill="#624EC5"/>
<path d="M180.114 37.942C180.58 37.942 180.958 37.5655 180.958 37.1011C180.958 36.6367 180.58 36.2603 180.114 36.2603C179.648 36.2603 179.27 36.6367 179.27 37.1011C179.27 37.5655 179.648 37.942 180.114 37.942Z" fill="#624EC5"/>
<path d="M175.39 40.9724C175.308 40.9738 175.228 40.9508 175.159 40.9062C175.091 40.8617 175.037 40.7978 175.005 40.7227C174.679 40.0052 174.311 39.3075 173.902 38.633C173.812 39.27 173.77 39.9129 173.777 40.5562C173.777 40.6666 173.733 40.7724 173.655 40.8505C173.576 40.9286 173.47 40.9724 173.359 40.9724C173.248 40.9724 173.142 40.9286 173.064 40.8505C172.985 40.7724 172.941 40.6666 172.941 40.5562C172.941 37.9503 173.343 37.6922 173.493 37.5923C173.569 37.5492 173.656 37.5266 173.744 37.5266C173.831 37.5266 173.918 37.5492 173.994 37.5923C174.504 37.8171 175.239 39.2574 175.766 40.4146C175.811 40.5151 175.815 40.6294 175.775 40.7324C175.736 40.8353 175.658 40.9187 175.557 40.9641C175.502 40.9774 175.446 40.9803 175.39 40.9724Z" fill="#B7577E"/>
<path d="M174.558 46.3759C173.61 46.3796 172.671 46.1898 171.8 45.8181C171.699 45.7727 171.621 45.6893 171.582 45.5863C171.543 45.4834 171.546 45.3691 171.591 45.2686C171.615 45.2166 171.648 45.1697 171.69 45.1306C171.732 45.0915 171.781 45.0611 171.834 45.041C171.888 45.0208 171.945 45.0115 172.002 45.0134C172.059 45.0153 172.116 45.0285 172.168 45.0521C173.077 45.4477 174.073 45.6004 175.06 45.4953C176.046 45.3902 176.987 45.0308 177.792 44.4527C177.835 44.4153 177.885 44.387 177.939 44.3696C177.993 44.3522 178.051 44.3461 178.107 44.3516C178.164 44.3571 178.219 44.3741 178.269 44.4016C178.319 44.4291 178.363 44.4665 178.398 44.5115C178.433 44.5565 178.458 44.6081 178.472 44.6631C178.486 44.7182 178.489 44.7756 178.48 44.8317C178.471 44.8878 178.45 44.9415 178.419 44.9894C178.389 45.0374 178.349 45.0785 178.301 45.1104C177.235 45.9456 175.914 46.3922 174.558 46.3759Z" fill="#624EC5"/>
<path d="M206.677 122.122L200.66 92.1416" stroke="#1D1D1B" stroke-linecap="round" stroke-linejoin="round"/>
<path d="M142.426 121.097L147.841 92.4993" stroke="#1D1D1B" stroke-linecap="round" stroke-linejoin="round"/>
</g>
<mask id="mask1_795_11407" style="mask-type:alpha" maskUnits="userSpaceOnUse" x="121" y="121" width="109" height="110">
<ellipse cx="175.606" cy="175.814" rx="54.3876" ry="54.1864" fill="#D9D9D9"/>
</mask>
<g mask="url(#mask1_795_11407)">
<g clip-path="url(#clip0_795_11407)">
<path d="M186.192 153.365C189.693 153.365 192.532 150.536 192.532 147.047C192.532 143.558 189.693 140.729 186.192 140.729C182.69 140.729 179.852 143.558 179.852 147.047C179.852 150.536 182.69 153.365 186.192 153.365Z" fill="#BB7AAB"/>
<path d="M217.799 293.419C218.366 296.17 218.639 298.973 218.613 301.781H132.555C132.513 298.978 132.77 296.177 133.32 293.427L153.577 192.499C154.961 187.582 157.866 183.225 161.879 180.049C165.768 176.97 170.585 175.287 175.552 175.272C185.668 175.272 194.588 182.263 197.526 192.499L217.799 293.419Z" fill="#BB7AAB"/>
<path d="M129.3 227.626L91.3012 288.926L87.0366 295.544C86.8747 295.899 86.8464 296.3 86.9569 296.674C87.0674 297.048 87.3093 297.37 87.6384 297.58C87.9674 297.791 88.3615 297.877 88.7487 297.821C89.1359 297.766 89.4901 297.574 89.7467 297.28L94.1253 292.535L90.056 298.91C89.897 299.085 89.778 299.292 89.7075 299.517C89.6369 299.742 89.6164 299.98 89.6475 300.213C89.6785 300.447 89.7603 300.671 89.8872 300.87C90.0141 301.069 90.183 301.238 90.3822 301.366C90.5813 301.493 90.806 301.576 91.0405 301.608C91.2749 301.64 91.5134 301.62 91.7396 301.551C91.9657 301.482 92.1741 301.364 92.35 301.206C92.5258 301.049 92.6651 300.855 92.7581 300.638L97.6413 295.114L93.3033 302.487C93.1414 302.842 93.1131 303.243 93.2236 303.617C93.3341 303.99 93.576 304.312 93.9051 304.523C94.2341 304.734 94.6282 304.819 95.0154 304.764C95.4025 304.709 95.7569 304.517 96.0135 304.223L101.051 297.621L97.7958 304.158C97.6426 304.333 97.5291 304.54 97.463 304.763C97.3969 304.986 97.3799 305.221 97.4129 305.452C97.446 305.682 97.5284 305.903 97.6546 306.098C97.7808 306.294 97.9478 306.461 98.1443 306.587C98.3407 306.712 98.5621 306.795 98.7933 306.828C99.0245 306.861 99.2601 306.844 99.4842 306.778C99.7082 306.712 99.9154 306.599 100.092 306.447C100.268 306.294 100.409 306.105 100.506 305.893L104.258 299.9L109.068 292.649L110.956 294.944C111.222 295.32 111.612 295.592 112.059 295.71C112.505 295.829 112.979 295.787 113.398 295.593C113.769 295.389 114.046 295.048 114.169 294.644C114.292 294.239 114.252 293.803 114.057 293.427L111.615 288.804L145.635 237.505" fill="#F6C4DE"/>
<path d="M222.682 227.626L260.681 288.926L264.946 295.544C265.103 295.719 265.22 295.926 265.289 296.15C265.359 296.374 265.378 296.611 265.347 296.843C265.316 297.076 265.234 297.299 265.108 297.497C264.981 297.695 264.814 297.863 264.616 297.991C264.418 298.118 264.194 298.201 263.961 298.233C263.728 298.266 263.491 298.248 263.265 298.181C263.04 298.113 262.832 297.997 262.655 297.842C262.479 297.686 262.338 297.495 262.244 297.28L257.857 292.535L261.926 298.91C262.098 299.082 262.229 299.289 262.31 299.518C262.39 299.746 262.419 299.99 262.393 300.231C262.366 300.472 262.286 300.704 262.158 300.91C262.03 301.116 261.858 301.291 261.653 301.422C261.448 301.552 261.217 301.636 260.976 301.666C260.734 301.696 260.489 301.672 260.259 301.595C260.028 301.518 259.818 301.391 259.643 301.222C259.468 301.054 259.333 300.849 259.249 300.621L254.365 295.098L258.695 302.471C258.852 302.645 258.97 302.852 259.039 303.076C259.108 303.301 259.128 303.537 259.097 303.77C259.065 304.002 258.983 304.225 258.857 304.423C258.731 304.621 258.563 304.79 258.365 304.917C258.167 305.044 257.944 305.127 257.711 305.16C257.478 305.193 257.24 305.175 257.015 305.107C256.789 305.039 256.581 304.924 256.405 304.768C256.228 304.613 256.088 304.421 255.993 304.206L250.947 297.604L254.203 304.141C254.36 304.316 254.477 304.523 254.546 304.747C254.616 304.971 254.635 305.208 254.604 305.441C254.573 305.673 254.491 305.896 254.365 306.094C254.238 306.292 254.071 306.461 253.873 306.588C253.675 306.715 253.451 306.798 253.218 306.831C252.985 306.863 252.748 306.845 252.522 306.778C252.297 306.71 252.089 306.595 251.912 306.439C251.736 306.284 251.595 306.092 251.501 305.877L247.741 299.883L242.939 292.633L241.051 294.928C240.785 295.304 240.394 295.575 239.948 295.694C239.502 295.813 239.028 295.771 238.609 295.577C238.236 295.374 237.958 295.034 237.833 294.629C237.709 294.225 237.747 293.788 237.942 293.411L240.383 288.788L206.348 237.497" fill="#F6C4DE"/>
<path d="M225.14 231.211L198.796 244.504L179.947 191.785C179.313 190.016 179.349 188.076 180.047 186.331C180.745 184.586 182.058 183.154 183.739 182.304C185.423 181.453 187.36 181.242 189.188 181.713C191.016 182.183 192.609 183.302 193.668 184.859L225.14 231.211Z" fill="#BB7AAB"/>
<path d="M125.777 231.219L152.114 244.52L170.971 191.801C171.605 190.03 171.568 188.088 170.868 186.342C170.169 184.595 168.854 183.162 167.17 182.312C165.488 181.461 163.552 181.251 161.726 181.722C159.899 182.192 158.307 183.31 157.249 184.867L125.777 231.219Z" fill="#BB7AAB"/>
<path d="M187.255 166.48C177.416 149.821 162.75 162.611 162.75 161.378V160.154C162.75 160.154 162.945 146.082 177.465 146.074C190.055 146.074 190.568 160.397 190.991 161.841L187.255 166.48Z" fill="#BB7AAB"/>
<path d="M176.578 174.274C183.635 174.274 189.356 168.791 189.356 162.027C189.356 155.263 183.635 149.78 176.578 149.78C169.522 149.78 163.801 155.263 163.801 162.027C163.801 168.791 169.522 174.274 176.578 174.274Z" fill="#F6C4DE"/>
<path d="M186.191 160.073H190.562C191.082 160.073 191.581 160.279 191.949 160.645C192.317 161.012 192.523 161.509 192.523 162.027C192.523 162.546 192.317 163.043 191.949 163.409C191.581 163.776 191.082 163.982 190.562 163.982H186.191V160.073Z" fill="#F6C4DE"/>
<path d="M166.965 163.982H162.594C162.074 163.982 161.575 163.776 161.207 163.409C160.84 163.043 160.633 162.546 160.633 162.027C160.633 161.509 160.84 161.012 161.207 160.645C161.575 160.279 162.074 160.073 162.594 160.073H166.965V163.982Z" fill="#F6C4DE"/>
<path d="M170.865 161.849C171.319 161.849 171.688 161.482 171.688 161.03C171.688 160.577 171.319 160.211 170.865 160.211C170.411 160.211 170.043 160.577 170.043 161.03C170.043 161.482 170.411 161.849 170.865 161.849Z" fill="#624EC5"/>
<path d="M180.826 161.849C181.28 161.849 181.649 161.482 181.649 161.03C181.649 160.577 181.28 160.211 180.826 160.211C180.372 160.211 180.004 160.577 180.004 161.03C180.004 161.482 180.372 161.849 180.826 161.849Z" fill="#624EC5"/>
<path d="M176.984 165.045C176.906 165.057 176.826 165.047 176.754 165.016C176.681 164.984 176.62 164.932 176.577 164.866C176.154 164.223 175.686 163.611 175.177 163.033C175.199 163.659 175.264 164.282 175.372 164.899C175.389 165.005 175.363 165.113 175.301 165.201C175.239 165.289 175.145 165.349 175.038 165.369C174.931 165.385 174.821 165.359 174.732 165.295C174.644 165.231 174.584 165.136 174.566 165.028C174.151 162.53 174.493 162.214 174.623 162.1C174.687 162.041 174.764 161.999 174.848 161.978C174.932 161.957 175.02 161.957 175.104 161.979C175.624 162.117 176.56 163.382 177.252 164.412C177.282 164.456 177.304 164.505 177.314 164.558C177.325 164.61 177.325 164.664 177.314 164.716C177.304 164.768 177.282 164.817 177.252 164.861C177.222 164.905 177.183 164.943 177.138 164.972C177.093 165.007 177.04 165.032 176.984 165.045Z" fill="#B7577E"/>
<path d="M175.284 168.264C174.198 168.22 173.127 167.993 172.118 167.591C172.065 167.573 172.017 167.544 171.977 167.505C171.937 167.467 171.905 167.42 171.885 167.368C171.865 167.317 171.857 167.261 171.86 167.206C171.864 167.15 171.88 167.096 171.906 167.048C171.978 166.948 172.082 166.876 172.2 166.844C172.319 166.811 172.445 166.82 172.557 166.869C172.696 166.934 176.049 168.354 179.068 166.553C179.176 166.492 179.3 166.468 179.423 166.486C179.545 166.503 179.658 166.561 179.744 166.65C179.781 166.692 179.807 166.742 179.822 166.797C179.836 166.851 179.838 166.907 179.827 166.962C179.816 167.017 179.793 167.069 179.758 167.113C179.724 167.157 179.68 167.193 179.63 167.218C178.317 167.989 176.804 168.353 175.284 168.264Z" fill="#624EC5"/>
<path d="M206.7 242.217L200.84 213.011" stroke="#1D1D1B" stroke-linecap="round" stroke-linejoin="round"/>
<path d="M144.121 241.219L149.395 213.368" stroke="#1D1D1B" stroke-linecap="round" stroke-linejoin="round"/>
<path d="M176.627 148.815C176.627 148.815 176.627 160.081 163.801 157.631C163.801 157.631 165.591 148.904 170.043 148.564C174.495 148.223 176.627 148.815 176.627 148.815Z" fill="#BB7AAB"/>
<path d="M175.848 149.496C175.848 149.496 176.491 160.081 189.35 157.607C189.35 157.607 187.551 148.88 183.107 148.539C180.646 148.294 178.161 148.622 175.848 149.496Z" fill="#BB7AAB"/>
</g>
</g>
<path d="M229.49 175.814C229.49 205.462 205.366 229.5 175.602 229.5C145.839 229.5 121.715 205.462 121.715 175.814C121.715 146.165 145.839 122.127 175.602 122.127C205.366 122.127 229.49 146.165 229.49 175.814Z" stroke="#8666FF"/>
<mask id="mask2_795_11407" style="mask-type:alpha" maskUnits="userSpaceOnUse" x="0" y="121" width="109" height="110">
<ellipse cx="54.3876" cy="175.814" rx="54.3876" ry="54.1864" fill="#D9D9D9"/>
</mask>
<g mask="url(#mask2_795_11407)">
<path d="M55.2808 172.724C63.265 172.724 69.7375 166.522 69.7375 158.871C69.7375 151.22 63.265 145.017 55.2808 145.017C47.2967 145.017 40.8242 151.22 40.8242 158.871C40.8242 166.522 47.2967 172.724 55.2808 172.724Z" fill="#3D5DA2"/>
<path d="M97.6163 297.948C98.1816 300.774 98.4449 303.651 98.4018 306.532H10.0994C10.0727 303.652 10.3528 300.778 10.935 297.957L31.6757 194.354C33.0961 189.311 36.0721 184.84 40.1825 181.574C44.1789 178.406 49.1308 176.672 54.2381 176.654C64.6168 176.654 73.7754 183.831 76.8004 194.337L97.6163 297.948Z" fill="#4D71B1"/>
<path d="M105.142 234.1L78.1007 247.754L58.7388 193.638C58.0888 191.821 58.1266 189.829 58.845 188.037C59.5635 186.246 60.9133 184.777 62.6413 183.906C64.3686 183.032 66.3564 182.817 68.2318 183.3C70.1072 183.782 71.7414 184.93 72.8278 186.528L105.142 234.1Z" fill="#4D71B1"/>
<path d="M3.10547 234.1L30.1552 247.754L49.5171 193.638C50.1675 191.819 50.1301 189.827 49.4117 188.033C48.6933 186.24 47.3433 184.77 45.6146 183.897C43.882 183.023 41.8884 182.812 40.0101 183.303C38.1319 183.794 36.499 184.953 35.4198 186.561L3.10547 234.1Z" fill="#4D71B1"/>
<path d="M55.2876 175.647C62.5333 175.647 68.4072 170.018 68.4072 163.075C68.4072 156.132 62.5333 150.504 55.2876 150.504C48.0418 150.504 42.168 156.132 42.168 163.075C42.168 170.018 48.0418 175.647 55.2876 175.647Z" fill="#F6C4DE"/>
<path d="M65.1523 161.069H69.6397C70.1739 161.069 70.6861 161.28 71.0638 161.657C71.4415 162.033 71.6536 162.543 71.6536 163.075C71.6536 163.607 71.4415 164.118 71.0638 164.494C70.6861 164.87 70.1739 165.082 69.6397 165.082H65.1523V161.069Z" fill="#F6C4DE"/>
<path d="M45.4141 165.09H40.9267C40.3925 165.09 39.8803 164.879 39.5026 164.502C39.1249 164.126 38.9128 163.616 38.9128 163.084C38.9128 162.551 39.1249 162.041 39.5026 161.665C39.8803 161.288 40.3925 161.077 40.9267 161.077H45.4141V165.09Z" fill="#F6C4DE"/>
<path d="M49.4224 161.21C49.8887 161.21 50.2667 160.834 50.2667 160.369C50.2667 159.905 49.8887 159.529 49.4224 159.529C48.9561 159.529 48.5781 159.905 48.5781 160.369C48.5781 160.834 48.9561 161.21 49.4224 161.21Z" fill="#3D5DA2"/>
<path d="M59.649 161.21C60.1153 161.21 60.4933 160.834 60.4933 160.369C60.4933 159.905 60.1153 159.529 59.649 159.529C59.1827 159.529 58.8047 159.905 58.8047 160.369C58.8047 160.834 59.1827 161.21 59.649 161.21Z" fill="#3D5DA2"/>
<path d="M55.7018 164.732C55.6214 164.731 55.5429 164.708 55.4761 164.663C55.4092 164.619 55.3569 164.556 55.3258 164.482C55.002 163.762 54.6307 163.064 54.2144 162.392C54.1313 163.03 54.0923 163.672 54.0974 164.315C54.0952 164.425 54.0505 164.53 53.9726 164.607C53.8947 164.685 53.7897 164.73 53.6795 164.732C53.5687 164.732 53.4625 164.688 53.3841 164.61C53.3057 164.532 53.2617 164.426 53.2617 164.315C53.2617 161.71 53.6628 161.451 53.8132 161.352C53.8897 161.309 53.9761 161.286 54.0639 161.286C54.1518 161.286 54.2381 161.309 54.3146 161.352C54.8244 161.576 55.5597 163.017 56.0862 164.174C56.1314 164.274 56.1348 164.389 56.0957 164.492C56.0565 164.595 55.978 164.678 55.8773 164.723C55.8199 164.738 55.7603 164.74 55.7018 164.732Z" fill="#B7577E"/>
<path d="M54.8487 169.652C53.8989 169.65 52.9589 169.46 52.0827 169.095C51.9835 169.047 51.9064 168.964 51.8675 168.862C51.8286 168.759 51.8308 168.646 51.8738 168.545C51.9227 168.446 52.008 168.369 52.1122 168.33C52.2163 168.291 52.3314 168.294 52.4337 168.337C53.3428 168.732 54.3393 168.884 55.3253 168.779C56.3113 168.674 57.2529 168.315 58.0576 167.737C58.0991 167.695 58.1493 167.661 58.205 167.639C58.2606 167.617 58.3203 167.608 58.38 167.611C58.4397 167.614 58.4981 167.63 58.5511 167.657C58.6042 167.685 58.6507 167.723 58.6875 167.77C58.7244 167.817 58.7507 167.871 58.7647 167.929C58.7786 167.987 58.78 168.047 58.7686 168.106C58.7572 168.164 58.7333 168.22 58.6986 168.268C58.6639 168.317 58.6191 168.357 58.5673 168.387C57.5094 169.22 56.197 169.666 54.8487 169.652Z" fill="#3D5DA2"/>
<path d="M86.208 245.389L80.1914 215.409" stroke="#1D1D1B" stroke-linecap="round" stroke-linejoin="round"/>
<path d="M21.9727 244.374L27.3793 215.776" stroke="#1D1D1B" stroke-linecap="round" stroke-linejoin="round"/>
</g>
<path d="M108.275 175.814C108.275 205.462 84.1507 229.5 54.3876 229.5C24.6246 229.5 0.5 205.462 0.5 175.814C0.5 146.165 24.6246 122.127 54.3876 122.127C84.1507 122.127 108.275 146.165 108.275 175.814Z" stroke="#8666FF"/>
<mask id="mask3_795_11407" style="mask-type:alpha" maskUnits="userSpaceOnUse" x="0" y="0" width="109" height="109">
<ellipse cx="54.3876" cy="54.1864" rx="54.3876" ry="54.1864" fill="#B64141"/>
</mask>
<g mask="url(#mask3_795_11407)">
<path d="M66.5988 50.6534H68.27L69.2143 39.3723H69.1057C69.2049 38.672 69.2329 37.9635 69.1893 37.2576V37.0079C68.2283 25.7351 55.6686 19.5243 46.6854 26.0348C44.8429 27.3078 43.3117 28.9775 42.205 30.9202C41.0984 32.863 40.4448 35.029 40.2927 37.2576C40.1859 38.5375 40.3248 39.826 40.7022 41.0541L41.0364 50.6534H66.6071H66.5988Z" fill="#EEC539"/>
<path d="M97.1241 174.487C97.6894 177.313 97.9527 180.19 97.9096 183.071H9.60722C9.58048 180.191 9.8606 177.317 10.4429 174.496L31.242 70.8929C32.6467 65.8573 35.6015 61.3875 39.6904 58.1132C43.6867 54.9525 48.6351 53.225 53.7375 53.2095C64.1162 53.2095 73.2748 60.3861 76.2999 70.8929L97.1241 174.487Z" fill="#EEC539"/>
<path d="M6.26382 106.942L-32.7691 169.841L-37.1395 176.635C-37.3009 176.814 -37.4213 177.026 -37.4924 177.257C-37.5636 177.487 -37.5837 177.73 -37.5515 177.968C-37.5193 178.207 -37.4355 178.436 -37.3058 178.639C-37.1762 178.843 -37.0038 179.016 -36.8006 179.146C-36.5974 179.277 -36.3682 179.362 -36.1288 179.395C-35.8894 179.429 -35.6455 179.411 -35.414 179.341C-35.1824 179.272 -34.9687 179.153 -34.7877 178.994C-34.6066 178.834 -34.4624 178.637 -34.3651 178.417L-29.861 173.555L-34.081 180.09C-34.2472 180.454 -34.2763 180.866 -34.1628 181.25C-34.0494 181.634 -33.801 181.964 -33.4632 182.18C-33.1253 182.396 -32.7206 182.484 -32.3231 182.428C-31.9256 182.371 -31.5618 182.174 -31.2983 181.872L-26.2845 176.202L-30.7301 183.77C-30.8901 184.133 -30.9151 184.54 -30.8007 184.919C-30.6862 185.299 -30.4397 185.625 -30.1056 185.84C-29.7714 186.054 -29.3714 186.143 -28.9774 186.09C-28.5834 186.038 -28.2212 185.847 -27.9558 185.552L-22.7831 178.775L-26.1257 185.485C-26.2919 185.849 -26.321 186.261 -26.2075 186.645C-26.094 187.028 -25.8457 187.359 -25.5079 187.575C-25.17 187.791 -24.7653 187.879 -24.3678 187.823C-23.9703 187.766 -23.6065 187.569 -23.343 187.267L-19.4907 181.106L-14.5521 173.671L-12.6134 176.027C-12.339 176.412 -11.9377 176.689 -11.4796 176.809C-11.0214 176.929 -10.5354 176.885 -10.1064 176.685C-9.72516 176.475 -9.44108 176.126 -9.31466 175.711C-9.18824 175.295 -9.22947 174.847 -9.42956 174.462L-11.9365 169.725L23.0017 117.066" fill="#F6C4DE"/>
<path d="M102.141 106.942L141.157 169.841L145.527 176.635C145.689 176.814 145.809 177.026 145.88 177.257C145.951 177.487 145.972 177.73 145.939 177.968C145.907 178.207 145.823 178.436 145.694 178.639C145.564 178.843 145.392 179.016 145.188 179.146C144.985 179.277 144.756 179.362 144.517 179.395C144.277 179.429 144.033 179.411 143.802 179.341C143.57 179.272 143.357 179.153 143.176 178.994C142.995 178.834 142.85 178.637 142.753 178.417L138.299 173.58L142.477 180.115C142.644 180.479 142.673 180.891 142.559 181.275C142.446 181.659 142.197 181.989 141.859 182.205C141.522 182.421 141.117 182.509 140.719 182.453C140.322 182.396 139.958 182.199 139.695 181.897L134.681 176.227L139.126 183.795C139.288 183.974 139.408 184.186 139.479 184.417C139.55 184.647 139.571 184.89 139.538 185.128C139.506 185.367 139.422 185.596 139.293 185.799C139.163 186.003 138.991 186.176 138.787 186.306C138.584 186.437 138.355 186.522 138.116 186.555C137.876 186.589 137.632 186.57 137.401 186.501C137.169 186.432 136.956 186.313 136.775 186.154C136.593 185.994 136.449 185.797 136.352 185.577L131.179 178.8L134.522 185.51C134.688 185.874 134.717 186.286 134.604 186.67C134.49 187.053 134.242 187.384 133.904 187.6C133.566 187.816 133.162 187.904 132.764 187.848C132.367 187.791 132.003 187.594 131.739 187.292L127.887 181.131L122.948 173.696L121.01 176.052C120.735 176.437 120.334 176.714 119.876 176.834C119.418 176.954 118.932 176.91 118.503 176.71C118.121 176.5 117.837 176.151 117.711 175.736C117.585 175.32 117.626 174.872 117.826 174.487L120.333 169.75L85.3945 117.091" fill="#F6C4DE"/>
<path d="M104.65 110.639L77.609 124.284L58.2472 70.1682C57.5967 68.3495 57.6342 66.3569 58.3526 64.5638C59.0709 62.7706 60.421 61.3 62.1496 60.4274C63.8779 59.5548 65.8664 59.3406 67.7419 59.825C69.6174 60.3094 71.251 61.459 72.3361 63.0582L104.65 110.639Z" fill="#EEC539"/>
<path d="M2.60938 110.647L29.6591 124.293L49.021 70.1767C49.6714 68.358 49.634 66.3655 48.9156 64.5723C48.1972 62.7792 46.8472 61.3085 45.1185 60.4359C43.3899 59.5652 41.402 59.352 39.527 59.8363C37.652 60.3205 36.0184 61.469 34.932 63.0668L2.60938 110.647Z" fill="#EEC539"/>
<path d="M54.7915 52.1936C62.0372 52.1936 67.9111 46.5652 67.9111 39.6221C67.9111 32.679 62.0372 27.0505 54.7915 27.0505C47.5457 27.0505 41.6719 32.679 41.6719 39.6221C41.6719 46.5652 47.5457 52.1936 54.7915 52.1936Z" fill="#F6C4DE"/>
<path d="M64.6562 37.6158H69.1436C69.6778 37.6158 70.19 37.8272 70.5677 38.2035C70.9454 38.5798 71.1576 39.0902 71.1576 39.6223C71.1576 40.1545 70.9454 40.6648 70.5677 41.0411C70.19 41.4174 69.6778 41.6287 69.1436 41.6287H64.6562V37.6158Z" fill="#F6C4DE"/>
<path d="M44.9219 41.6204H40.4345C39.9004 41.6204 39.3881 41.409 39.0104 41.0327C38.6328 40.6564 38.4206 40.146 38.4206 39.6139C38.4206 39.0817 38.6328 38.5714 39.0104 38.1951C39.3881 37.8188 39.9004 37.6075 40.4345 37.6075H44.9219V41.6204Z" fill="#F6C4DE"/>
<path d="M48.9263 37.7573C49.3926 37.7573 49.7706 37.3809 49.7706 36.9164C49.7706 36.452 49.3926 36.0756 48.9263 36.0756C48.46 36.0756 48.082 36.452 48.082 36.9164C48.082 37.3809 48.46 37.7573 48.9263 37.7573Z" fill="#3D5DA2"/>
<path d="M59.149 37.7572C59.6153 37.7572 59.9933 37.3807 59.9933 36.9163C59.9933 36.4519 59.6153 36.0754 59.149 36.0754C58.6827 36.0754 58.3047 36.4519 58.3047 36.9163C58.3047 37.3807 58.6827 37.7572 59.149 37.7572Z" fill="#3D5DA2"/>
<path d="M54.2968 46.749C53.347 46.7461 52.407 46.5565 51.5308 46.1911C51.4807 46.1679 51.4356 46.135 51.3983 46.0943C51.361 46.0536 51.3322 46.0059 51.3135 45.954C51.2949 45.9021 51.2868 45.847 51.2896 45.792C51.2925 45.7369 51.3063 45.683 51.3303 45.6333C51.3527 45.5836 51.385 45.5389 51.4251 45.5018C51.4652 45.4647 51.5123 45.436 51.5637 45.4174C51.6151 45.3988 51.6698 45.3906 51.7244 45.3934C51.779 45.3961 51.8325 45.4098 51.8818 45.4335C52.7927 45.8286 53.7912 45.9803 54.7788 45.8737C55.7665 45.7672 56.7092 45.406 57.514 44.8258C57.557 44.7883 57.6071 44.76 57.6614 44.7427C57.7157 44.7253 57.773 44.7191 57.8298 44.7246C57.8865 44.7301 57.9416 44.7472 57.9915 44.7747C58.0414 44.8022 58.0851 44.8395 58.12 44.8845C58.1549 44.9295 58.1801 44.9811 58.1942 45.0362C58.2083 45.0913 58.2109 45.1486 58.2019 45.2047C58.1928 45.2608 58.1724 45.3145 58.1418 45.3624C58.1111 45.4104 58.071 45.4516 58.0238 45.4835C56.9616 46.3145 55.6473 46.7608 54.2968 46.749Z" fill="#3D5DA2"/>
<path d="M85.7158 121.936L79.6992 91.9561" stroke="#1D1D1B" stroke-linecap="round" stroke-linejoin="round"/>
<path d="M21.4727 120.912L26.8793 92.3141" stroke="#1D1D1B" stroke-linecap="round" stroke-linejoin="round"/>
<path d="M59.1513 34.9179C58.3888 34.9149 57.6483 35.1717 57.0525 35.6457C56.4566 36.1197 56.0414 36.7824 55.8755 37.5238C55.3157 37.214 54.6859 37.0514 54.0455 37.0514C53.4051 37.0514 52.7753 37.214 52.2154 37.5238C52.0503 36.6752 51.5682 35.9206 50.8663 35.4123C50.1645 34.9041 49.2952 34.6801 48.4341 34.7855C47.5729 34.8909 46.7839 35.318 46.2265 35.9804C45.669 36.6428 45.3846 37.4912 45.4306 38.3544C45.4766 39.2177 45.8496 40.0314 46.4744 40.6313C47.0991 41.2311 47.929 41.5725 48.7965 41.5865C49.664 41.6005 50.5046 41.286 51.1485 40.7066C51.7923 40.1271 52.1916 39.3259 52.2656 38.4646C52.7781 38.0861 53.3992 37.8818 54.0371 37.8818C54.6751 37.8818 55.2962 38.0861 55.8087 38.4646C55.8558 39.1109 56.0912 39.7294 56.486 40.2444C56.8808 40.7594 57.4177 41.1485 58.0311 41.3639C58.6445 41.5793 59.3077 41.6118 59.9393 41.4574C60.571 41.3029 61.1437 40.9681 61.5872 40.4942C62.0307 40.0203 62.3259 39.4277 62.4364 38.7891C62.547 38.1505 62.4681 37.4937 62.2095 36.8992C61.9509 36.3046 61.5239 35.7981 60.9806 35.4417C60.4374 35.0854 59.8017 34.8946 59.1513 34.8929V34.9179ZM48.923 40.7957C48.4272 40.7957 47.9425 40.6492 47.5302 40.3748C47.118 40.1003 46.7966 39.7103 46.6069 39.2539C46.4172 38.7975 46.3675 38.2953 46.4642 37.8108C46.561 37.3263 46.7997 36.8813 47.1503 36.532C47.5009 36.1827 47.9476 35.9448 48.4339 35.8484C48.9202 35.752 49.4243 35.8015 49.8824 35.9905C50.3404 36.1796 50.732 36.4997 51.0074 36.9105C51.2829 37.3212 51.4299 37.8041 51.4299 38.2981C51.4299 38.9605 51.1658 39.5958 50.6957 40.0642C50.2255 40.5326 49.5879 40.7957 48.923 40.7957ZM59.1513 40.7957C58.6554 40.7957 58.1708 40.6492 57.7585 40.3748C57.3462 40.1003 57.0249 39.7103 56.8352 39.2539C56.6454 38.7975 56.5958 38.2953 56.6925 37.8108C56.7892 37.3263 57.028 36.8813 57.3786 36.532C57.7292 36.1827 58.1759 35.9448 58.6622 35.8484C59.1485 35.752 59.6525 35.8015 60.1106 35.9905C60.5687 36.1796 60.9602 36.4997 61.2357 36.9105C61.5112 37.3212 61.6582 37.8041 61.6582 38.2981C61.6582 38.6261 61.5934 38.9509 61.4674 39.2539C61.3414 39.5569 61.1567 39.8323 60.9239 40.0642C60.6911 40.2961 60.4148 40.4801 60.1106 40.6056C59.8065 40.7312 59.4805 40.7957 59.1513 40.7957Z" fill="#3D5DA2"/>
<path d="M55.2057 41.2705C55.1263 41.2709 55.0484 41.2483 54.9817 41.2055C54.9149 41.1626 54.8621 41.1013 54.8297 41.0291C54.5057 40.3063 54.1344 39.6054 53.7183 38.931C53.6355 39.5687 53.5964 40.2113 53.6013 40.8542C53.6013 40.9646 53.5573 41.0705 53.4789 41.1486C53.4005 41.2266 53.2943 41.2705 53.1834 41.2705C53.0726 41.2705 52.9664 41.2266 52.888 41.1486C52.8097 41.0705 52.7656 40.9646 52.7656 40.8542C52.7656 38.2484 53.1667 37.9903 53.3172 37.8904C53.3936 37.8473 53.48 37.8247 53.5678 37.8247C53.6557 37.8247 53.7421 37.8473 53.8185 37.8904C54.3283 38.1151 55.0636 39.5554 55.5901 40.721C55.6331 40.8218 55.6354 40.9352 55.5965 41.0376C55.5575 41.14 55.4804 41.2234 55.3812 41.2705C55.3233 41.2824 55.2636 41.2824 55.2057 41.2705Z" fill="#B7577E"/>
<path d="M42.3477 33.5861C42.3477 33.5861 54.6149 23.7453 66.8571 33.5861C65.9663 31.1302 64.3204 29.017 62.1537 27.5475C59.9871 26.0781 57.4103 25.3273 54.7904 25.4021C52.1241 25.3289 49.4997 26.0751 47.2737 27.5392C45.0477 29.0033 43.3278 31.1145 42.3477 33.5861Z" fill="#EEC539"/>
</g>
<path d="M108.275 54.1864C108.275 83.8349 84.1507 107.873 54.3876 107.873C24.6246 107.873 0.5 83.8349 0.5 54.1864C0.5 24.538 24.6246 0.5 54.3876 0.5C84.1507 0.5 108.275 24.538 108.275 54.1864Z" stroke="#8666FF"/>
<defs>
<clipPath id="clip0_795_11407">
<rect width="178.423" height="248.712" fill="white" transform="translate(86.7852 140.729)"/>
</clipPath>
</defs>
</svg>
