<svg width="109" height="109" viewBox="0 0 109 109" fill="none" xmlns="http://www.w3.org/2000/svg">
<path d="M108.498 54.1864C108.498 83.8349 84.3733 107.873 54.6103 107.873C24.8472 107.873 0.722656 83.8349 0.722656 54.1864C0.722656 24.538 24.8472 0.5 54.6103 0.5C84.3733 0.5 108.498 24.538 108.498 54.1864Z" fill="#F3EFFF" stroke="#8666FF"/>
<mask id="mask0_685_14487" style="mask-type:alpha" maskUnits="userSpaceOnUse" x="0" y="0" width="109" height="109">
<ellipse cx="54.6103" cy="54.1864" rx="54.3876" ry="54.1864" fill="#F1EFEF"/>
</mask>
<g mask="url(#mask0_685_14487)">
<path d="M97.12 174.672C97.6854 177.498 97.9487 180.375 97.9055 183.256H9.54472C9.51798 180.376 9.7981 177.501 10.3804 174.68L31.1043 71.0776C32.527 66.0333 35.5059 61.5625 39.6195 58.2979C43.6136 55.1312 48.5622 53.3978 53.6666 53.3776C64.0453 53.3776 73.2039 60.5542 76.229 71.061L97.12 174.672Z" fill="#8C81F7"/>
<path d="M6.20104 107.127L-32.8151 170.051L-37.1939 176.845C-37.3601 177.209 -37.3891 177.621 -37.2757 178.004C-37.1622 178.388 -36.9138 178.718 -36.576 178.935C-36.2382 179.151 -35.8335 179.239 -35.436 179.182C-35.0384 179.126 -34.6746 178.928 -34.4112 178.626L-29.9154 173.756L-34.0936 180.3C-34.2536 180.662 -34.2786 181.07 -34.1642 181.449C-34.0497 181.829 -33.8033 182.155 -33.4691 182.37C-33.135 182.584 -32.735 182.673 -32.3409 182.62C-31.9469 182.567 -31.5847 182.376 -31.3193 182.082L-26.3054 176.412L-30.7343 183.98C-30.8794 184.339 -30.8945 184.737 -30.7769 185.106C-30.6594 185.474 -30.4166 185.791 -30.0903 186.001C-29.764 186.21 -29.3746 186.301 -28.9889 186.255C-28.6032 186.21 -28.2453 186.033 -27.9767 185.753L-22.8041 178.976L-26.1467 185.687C-26.3129 186.051 -26.3419 186.462 -26.2285 186.846C-26.115 187.23 -25.8666 187.56 -25.5288 187.776C-25.191 187.993 -24.7863 188.081 -24.3888 188.024C-23.9912 187.967 -23.6274 187.77 -23.364 187.468L-19.5117 181.307L-14.573 173.864L-12.6343 176.229C-12.36 176.614 -11.9587 176.89 -11.5006 177.01C-11.0424 177.131 -10.5564 177.087 -10.1274 176.886C-9.74614 176.677 -9.46206 176.327 -9.33564 175.912C-9.20922 175.497 -9.25045 175.049 -9.45054 174.664L-11.9575 169.926L22.9724 117.259" fill="#F6C4DE"/>
<path d="M102.082 107.127L141.106 170.051L145.476 176.845C145.638 177.024 145.758 177.236 145.829 177.466C145.901 177.697 145.921 177.94 145.888 178.178C145.856 178.417 145.772 178.646 145.643 178.849C145.513 179.053 145.341 179.225 145.138 179.356C144.934 179.486 144.705 179.571 144.466 179.605C144.226 179.639 143.982 179.62 143.751 179.551C143.519 179.482 143.306 179.363 143.125 179.203C142.944 179.044 142.799 178.847 142.702 178.626L138.198 173.756L142.376 180.3C142.542 180.664 142.571 181.076 142.458 181.46C142.345 181.843 142.096 182.174 141.758 182.39C141.421 182.606 141.016 182.694 140.618 182.637C140.221 182.581 139.857 182.383 139.594 182.082L134.58 176.412L139.025 183.98C139.187 184.159 139.307 184.371 139.378 184.601C139.449 184.832 139.47 185.075 139.437 185.313C139.405 185.552 139.321 185.781 139.192 185.984C139.062 186.188 138.89 186.36 138.686 186.491C138.483 186.621 138.254 186.706 138.015 186.74C137.775 186.774 137.531 186.755 137.3 186.686C137.068 186.617 136.855 186.498 136.674 186.338C136.492 186.179 136.348 185.982 136.251 185.761L131.07 178.984L134.413 185.695C134.574 185.874 134.694 186.086 134.766 186.316C134.837 186.547 134.857 186.79 134.825 187.028C134.792 187.267 134.709 187.496 134.579 187.699C134.449 187.903 134.277 188.075 134.074 188.206C133.87 188.336 133.641 188.421 133.402 188.455C133.162 188.489 132.919 188.47 132.687 188.401C132.456 188.332 132.242 188.213 132.061 188.053C131.88 187.894 131.736 187.697 131.638 187.477L127.778 181.316L122.847 173.873L120.909 176.237C120.634 176.622 120.233 176.899 119.775 177.019C119.317 177.139 118.831 177.095 118.402 176.895C118.019 176.687 117.733 176.338 117.605 175.922C117.477 175.507 117.517 175.058 117.716 174.672L120.223 169.935L85.2852 117.267" fill="#F6C4DE"/>
<path d="M104.642 110.823L77.5921 124.477L58.2387 70.3613C57.5894 68.5435 57.6266 66.5523 58.3432 64.7598C59.0598 62.9672 60.4069 61.4958 62.1328 60.6205C63.8626 59.7492 65.8518 59.5358 67.7283 60.02C69.6047 60.5042 71.2398 61.653 72.3276 63.2514L104.642 110.823Z" fill="#8C81F7"/>
<path d="M2.56641 110.824L29.6078 124.469L48.9696 70.3534C49.6201 68.5347 49.5826 66.5421 48.8642 64.7489C48.1458 62.9558 46.7958 61.4851 45.0672 60.6125C43.3389 59.74 41.3504 59.5258 39.4749 60.0102C37.5994 60.4946 35.9658 61.6442 34.8807 63.2434L2.56641 110.824Z" fill="#8C81F7"/>
<path d="M40.543 37.8757C40.543 37.8757 40.7602 24.022 55.6514 23.4059C68.0941 22.9064 71.8796 34.2291 72.3141 35.7027C75.172 45.3353 86.8626 55.2177 100.617 56.9328C114.372 58.6478 106.392 76.0815 98.946 74.8992C91.5004 73.717 73.6595 67.6977 63.5649 50.6054C53.4704 33.5131 40.543 40.4066 40.543 39.1412V37.8757Z" fill="#806CF6"/>
<path d="M54.7446 52.3785C61.9903 52.3785 67.8642 46.7501 67.8642 39.807C67.8642 32.8639 61.9903 27.2355 54.7446 27.2355C47.4988 27.2355 41.625 32.8639 41.625 39.807C41.625 46.7501 47.4988 52.3785 54.7446 52.3785Z" fill="#F6C4DE"/>
<path d="M64.6094 37.7921H69.0968C69.6309 37.7921 70.1431 38.0035 70.5208 38.3798C70.8985 38.7561 71.1107 39.2664 71.1107 39.7986C71.1107 40.3307 70.8985 40.8411 70.5208 41.2173C70.1431 41.5936 69.6309 41.805 69.0968 41.805H64.6094V37.7921Z" fill="#F6C4DE"/>
<path d="M44.8711 41.8134H40.3837C39.8496 41.8134 39.3373 41.602 38.9597 41.2257C38.582 40.8494 38.3698 40.339 38.3698 39.8069C38.3698 39.2748 38.582 38.7644 38.9597 38.3881C39.3373 38.0119 39.8496 37.8005 40.3837 37.8005H44.8711V41.8134Z" fill="#F6C4DE"/>
<path d="M48.8795 37.942C49.3458 37.942 49.7238 37.5655 49.7238 37.1011C49.7238 36.6367 49.3458 36.2603 48.8795 36.2603C48.4132 36.2603 48.0352 36.6367 48.0352 37.1011C48.0352 37.5655 48.4132 37.942 48.8795 37.942Z" fill="#624EC5"/>
<path d="M59.106 37.942C59.5723 37.942 59.9503 37.5655 59.9503 37.1011C59.9503 36.6367 59.5723 36.2603 59.106 36.2603C58.6397 36.2603 58.2617 36.6367 58.2617 37.1011C58.2617 37.5655 58.6397 37.942 59.106 37.942Z" fill="#624EC5"/>
<path d="M54.382 40.9724C54.3002 40.9738 54.2199 40.9508 54.1514 40.9062C54.0829 40.8617 54.0293 40.7978 53.9976 40.7227C53.6712 40.0052 53.3029 39.3075 52.8946 38.633C52.8042 39.27 52.7623 39.9129 52.7692 40.5562C52.7692 40.6666 52.7252 40.7724 52.6469 40.8505C52.5685 40.9286 52.4622 40.9724 52.3514 40.9724C52.2406 40.9724 52.1343 40.9286 52.056 40.8505C51.9776 40.7724 51.9336 40.6666 51.9336 40.5562C51.9336 37.9503 52.3347 37.6922 52.4851 37.5923C52.5616 37.5492 52.648 37.5266 52.7358 37.5266C52.8237 37.5266 52.91 37.5492 52.9865 37.5923C53.4963 37.8171 54.2316 39.2574 54.7581 40.4146C54.8033 40.5151 54.8067 40.6294 54.7675 40.7324C54.7284 40.8353 54.6499 40.9187 54.5492 40.9641C54.4945 40.9774 54.4378 40.9803 54.382 40.9724Z" fill="#B7577E"/>
<path d="M53.55 46.3759C52.6022 46.3796 51.6636 46.1898 50.7923 45.8181C50.6916 45.7727 50.6131 45.6893 50.574 45.5863C50.5348 45.4834 50.5382 45.3691 50.5834 45.2686C50.6069 45.2166 50.6405 45.1697 50.6822 45.1306C50.7239 45.0915 50.773 45.0611 50.8266 45.041C50.8801 45.0208 50.9372 45.0115 50.9944 45.0134C51.0516 45.0153 51.1079 45.0285 51.16 45.0521C52.0689 45.4477 53.0656 45.6004 54.0517 45.4953C55.0379 45.3902 55.9796 45.0308 56.7839 44.4527C56.8268 44.4153 56.877 44.387 56.9313 44.3696C56.9856 44.3522 57.0429 44.3461 57.0996 44.3516C57.1564 44.3571 57.2114 44.3741 57.2613 44.4016C57.3113 44.4291 57.355 44.4665 57.3899 44.5115C57.4247 44.5565 57.45 44.6081 57.4641 44.6631C57.4781 44.7182 57.4807 44.7756 57.4717 44.8317C57.4627 44.8878 57.4423 44.9415 57.4116 44.9894C57.381 45.0374 57.3408 45.0785 57.2936 45.1104C56.2273 45.9456 54.9063 46.3922 53.55 46.3759Z" fill="#624EC5"/>
<path d="M85.669 122.122L79.6523 92.1416" stroke="#1D1D1B" stroke-linecap="round" stroke-linejoin="round"/>
<path d="M21.418 121.098L26.8329 92.4994" stroke="#1D1D1B" stroke-linecap="round" stroke-linejoin="round"/>
</g>
</svg>
