<svg width="414" height="896" viewBox="0 0 414 896" fill="none" xmlns="http://www.w3.org/2000/svg">
<rect width="414" height="896" fill="white"/>
<path d="M171.163 103.953H150.013V106.645H171.163V103.953ZM151.663 90.8516H154.862V97.8594H151.765V100.398H169.284V97.8594H166.136V90.8516H169.386V88.2617H151.663V90.8516ZM158.112 97.8594V90.8516H162.937V97.8594H158.112ZM193.634 104.105H184.62V100.627H191.729V97.9863H178.171V95.3965H191.196V87.7285H174.896V90.3184H187.997V92.8574H174.921V100.627H181.396V104.105H172.483V106.771H193.634V104.105ZM214.353 86.2305H211.103V98.0879H214.353V86.2305ZM195.335 95.0918L195.69 97.6309C199.702 97.6309 204.958 97.5039 209.554 96.7676L209.401 94.457C208.5 94.5586 207.561 94.6475 206.608 94.7236V90.1152H208.513V87.6523H195.944V90.1152H197.823V95.0664C196.96 95.0791 196.122 95.0918 195.335 95.0918ZM198.636 101.516H211.153V102.861H198.687V109.184H214.987V106.619H201.886V105.172H214.353V99.002H198.636V101.516ZM200.921 95.0029V90.1152H203.485V94.9141C202.622 94.9521 201.771 94.9775 200.921 95.0029ZM242.892 86.2305H239.667V89.6836H235.325V92.248H239.667V97.9863H242.892V86.2305ZM223.239 95.5996L224.915 98.1641C227.619 97.3135 229.435 95.5869 230.45 93.3652C231.453 95.3457 233.18 96.8945 235.655 97.6816L237.356 95.1934C233.675 94.1016 232.062 91.4229 232.075 88.668V86.9922H228.8V88.668C228.787 91.6514 227.073 94.4697 223.239 95.5996ZM227.53 101.439H239.692V102.76H227.556V109.082H243.552V106.543H230.755V105.121H242.892V98.9512H227.53V101.439ZM265.362 86.2305H262.138V91.8672H258.532V94.4824H262.138V99.9414H265.362V86.2305ZM245.735 97.4023L247.411 99.9668C250.153 99.0273 252.007 97.1357 253.022 94.7871C254.025 96.8564 255.79 98.5322 258.329 99.3574L259.929 96.8184C256.336 95.625 254.686 92.9082 254.622 90.2168H259.218V87.627H246.675V90.2168H251.321C251.245 93.1113 249.519 96.1328 245.735 97.4023ZM249.519 104.918C249.519 107.724 252.54 109.361 257.466 109.361C262.404 109.361 265.426 107.724 265.438 104.918C265.426 102.112 262.404 100.462 257.466 100.449C252.54 100.462 249.519 102.112 249.519 104.918ZM252.743 104.918C252.743 103.585 254.406 102.925 257.466 102.938C260.538 102.925 262.201 103.585 262.214 104.918C262.201 106.238 260.538 106.898 257.466 106.898C254.406 106.898 252.743 106.238 252.743 104.918Z" fill="#8666FF"/>
<path d="M121.182 550.621H119.02V556.738H117.561V550.973H115.469V565.914H117.561V558.549H119.02V566.617H121.182V550.621ZM107.26 561.941L108.561 563.523C113.36 560.781 114.476 557.037 114.485 552.484H108.227V554.277H112.305C112.261 554.919 112.165 555.525 112.024 556.105L107.401 556.352L107.665 558.25L111.409 557.846C110.644 559.41 109.352 560.746 107.26 561.941ZM136.264 550.639H134.014V560.43H136.264V550.639ZM123.696 553.311H128.882V554.717H123.714V559.779H125.12C128.293 559.788 130.455 559.709 132.907 559.322L132.626 557.529C130.472 557.846 128.583 557.934 125.911 557.951V556.422H131.114V551.518H123.696V553.311ZM125.26 562.943H134.014V566.617H136.264V561.133H125.26V562.943ZM151.926 550.621H149.712V556.264H146.899V558.074H149.712V566.652H151.926V550.621ZM139.165 563.031H140.43C143.173 563.022 145.264 562.943 147.602 562.592L147.374 560.799C145.396 561.106 143.621 561.186 141.397 561.203V558.18H146.055V556.422H141.397V553.768H146.635V551.957H139.165V563.031ZM171.526 560.412H160.522V562.223H169.276V566.652H171.526V560.412ZM159.046 558.9H160.434C162.842 558.9 165.435 558.725 168.186 558.18L167.923 556.369C165.602 556.817 163.361 557.002 161.296 557.046V551.482H159.046V558.9ZM169.276 559.762H171.526V550.639H169.276V559.762ZM176.553 552.15H174.303V562.785H175.428C177.485 562.794 179.208 562.724 181.176 562.293L180.878 560.412C179.375 560.729 178.021 560.834 176.553 560.86V552.15ZM178.803 557.494H182.003V565.914H184.13V550.92H182.003V555.684H178.803V557.494ZM185.448 566.617H187.557V550.621H185.448V566.617ZM202.639 550.639H200.389V559.674H202.639V550.639ZM189.491 555.227C189.491 557.424 191.372 559.041 193.868 559.041C196.355 559.041 198.236 557.424 198.245 555.227C198.236 552.941 196.355 551.359 193.868 551.359C191.372 551.359 189.491 552.941 189.491 555.227ZM191.688 555.227C191.671 553.97 192.585 553.24 193.868 553.24C195.116 553.24 196.021 553.97 196.03 555.227C196.021 556.413 195.116 557.16 193.868 557.16C192.585 557.16 191.671 556.413 191.688 555.227ZM191.917 566.441H202.639V560.395H191.917V566.441ZM194.132 564.648V562.17H200.442V564.648H194.132ZM212.096 550.85C208.405 550.85 206.26 551.816 206.26 553.574C206.26 555.358 208.405 556.316 212.096 556.316C215.779 556.316 217.906 555.358 217.915 553.574C217.906 551.816 215.779 550.85 212.096 550.85ZM204.801 558.848H219.391V557.072H204.801V558.848ZM206.489 561.414H215.401V562.293H206.507V566.512H218.038V564.824H208.704V563.857H217.616V559.779H206.489V561.414ZM208.616 553.574C208.607 552.862 209.75 552.484 212.096 552.484C214.461 552.484 215.594 552.862 215.594 553.574C215.594 554.356 214.461 554.664 212.096 554.664C209.75 554.664 208.607 554.356 208.616 553.574ZM237.989 550.621H235.757V554.523H233.26V556.334H235.757V560.113H237.989V550.621ZM224.401 558.355L225.561 560.131C227.46 559.48 228.743 558.171 229.446 556.545C230.14 557.978 231.362 559.138 233.12 559.709L234.227 557.951C231.74 557.125 230.597 555.244 230.553 553.381H233.735V551.588H225.051V553.381H228.268C228.216 555.385 227.02 557.477 224.401 558.355ZM227.02 563.559C227.02 565.501 229.112 566.635 232.522 566.635C235.941 566.635 238.033 565.501 238.042 563.559C238.033 561.616 235.941 560.474 232.522 560.465C229.112 560.474 227.02 561.616 227.02 563.559ZM229.253 563.559C229.253 562.636 230.404 562.179 232.522 562.188C234.649 562.179 235.801 562.636 235.809 563.559C235.801 564.473 234.649 564.93 232.522 564.93C230.404 564.93 229.253 564.473 229.253 563.559ZM247.78 553.064H245.038V551.061H242.823V553.064H240.046V554.84H247.78V553.064ZM240.415 559.357C240.415 561.59 241.909 563.172 243.948 563.172C245.996 563.172 247.455 561.59 247.464 559.357C247.455 557.134 245.996 555.569 243.948 555.561C241.909 555.569 240.415 557.134 240.415 559.357ZM242.384 559.357C242.384 558.153 243.016 557.424 243.948 557.424C244.844 557.424 245.486 558.153 245.495 559.357C245.486 560.579 244.844 561.273 243.948 561.273C243.016 561.273 242.384 560.579 242.384 559.357ZM248.378 565.932H250.469V558.918H251.77V566.617H253.897V550.621H251.77V557.125H250.469V550.938H248.378V565.932ZM270.21 559.445H255.62V561.238H261.772V566.617H263.987V561.238H270.21V559.445ZM256.341 556.756L257.167 558.514C259.953 558.136 261.948 556.94 262.924 555.297C263.89 556.94 265.903 558.136 268.716 558.514L269.524 556.756C266.237 556.36 264.47 554.796 264.242 553.223H268.909V551.465H256.938V553.223H261.605C261.368 554.796 259.575 556.36 256.341 556.756ZM276.309 554.646V551.992H274.13V554.752C274.13 557.459 273.251 560.28 270.878 561.748L272.249 563.4C273.699 562.521 274.657 561.001 275.228 559.19C275.738 560.825 276.608 562.214 277.997 563.049L279.21 561.309C277.021 559.911 276.301 557.239 276.309 554.646ZM277.522 557.846H279.596V565.879H281.688V550.85H279.596V556.018H277.522V557.846ZM282.901 566.617H285.046V550.621H282.901V566.617ZM301.376 562.908H298.124V558.944C299.328 558.197 300.049 557.081 300.057 555.701C300.049 553.108 297.491 551.403 294.028 551.395C290.548 551.403 288.016 553.108 288.016 555.701C288.016 557.107 288.763 558.241 290.003 558.988V562.908H286.733V564.754H301.376V562.908ZM290.231 555.701C290.231 554.093 291.734 553.161 294.028 553.17C296.287 553.161 297.834 554.093 297.842 555.701C297.834 557.266 296.287 558.232 294.028 558.232C291.734 558.232 290.231 557.266 290.231 555.701ZM292.217 562.908V559.806C292.78 559.911 293.386 559.973 294.028 559.973C294.67 559.973 295.285 559.911 295.856 559.797V562.908H292.217ZM304.364 565.158C305.146 565.158 305.823 564.499 305.823 563.682C305.823 562.873 305.146 562.214 304.364 562.223C303.538 562.214 302.87 562.873 302.887 563.682C302.87 564.499 303.538 565.158 304.364 565.158Z" fill="#6662A8"/>
<path d="M321.498 293.186C321.498 322.835 297.373 346.873 267.61 346.873C237.847 346.873 213.723 322.835 213.723 293.186C213.723 263.538 237.847 239.5 267.61 239.5C297.373 239.5 321.498 263.538 321.498 293.186Z" stroke="#8666FF"/>
<mask id="mask0_685_14360" style="mask-type:alpha" maskUnits="userSpaceOnUse" x="213" y="239" width="109" height="109">
<ellipse cx="267.614" cy="293.186" rx="54.3876" ry="54.1864" fill="#F1EFEF"/>
</mask>
<g mask="url(#mask0_685_14360)">
<path d="M310.128 413.672C310.693 416.497 310.957 419.375 310.913 422.256H222.553C222.526 419.376 222.806 416.501 223.388 413.68L244.112 310.078C245.535 305.033 248.514 300.562 252.627 297.298C256.621 294.131 261.57 292.398 266.674 292.378C277.053 292.378 286.212 299.554 289.237 310.061L310.128 413.672Z" fill="#8C81F7"/>
<path d="M219.209 346.127L180.193 409.051L175.814 415.845C175.648 416.209 175.619 416.621 175.732 417.004C175.846 417.388 176.094 417.718 176.432 417.935C176.77 418.151 177.174 418.239 177.572 418.182C177.969 418.126 178.333 417.928 178.597 417.626L183.092 412.756L178.914 419.3C178.754 419.662 178.729 420.07 178.844 420.449C178.958 420.829 179.205 421.155 179.539 421.37C179.873 421.584 180.273 421.673 180.667 421.62C181.061 421.567 181.423 421.376 181.689 421.082L186.702 415.412L182.273 422.98C182.128 423.339 182.113 423.737 182.231 424.106C182.348 424.474 182.591 424.791 182.917 425.001C183.244 425.211 183.633 425.301 184.019 425.255C184.405 425.21 184.763 425.033 185.031 424.753L190.204 417.976L186.861 424.687C186.695 425.051 186.666 425.462 186.779 425.846C186.893 426.23 187.141 426.56 187.479 426.776C187.817 426.993 188.222 427.081 188.619 427.024C189.017 426.967 189.38 426.77 189.644 426.468L193.496 420.307L198.435 412.864L200.373 415.229C200.648 415.614 201.049 415.89 201.507 416.01C201.965 416.131 202.451 416.087 202.88 415.886C203.262 415.677 203.546 415.327 203.672 414.912C203.799 414.497 203.757 414.049 203.557 413.664L201.05 408.926L235.98 356.259" fill="#F6C4DE"/>
<path d="M315.089 346.127L354.114 409.051L358.484 415.845C358.646 416.024 358.766 416.236 358.837 416.466C358.908 416.697 358.929 416.94 358.896 417.178C358.864 417.417 358.78 417.646 358.651 417.849C358.521 418.053 358.349 418.225 358.145 418.356C357.942 418.486 357.713 418.571 357.474 418.605C357.234 418.639 356.99 418.62 356.759 418.551C356.527 418.482 356.314 418.363 356.133 418.203C355.951 418.044 355.807 417.847 355.71 417.626L351.206 412.756L355.384 419.3C355.55 419.664 355.579 420.076 355.466 420.46C355.352 420.843 355.104 421.174 354.766 421.39C354.428 421.606 354.024 421.694 353.626 421.637C353.229 421.581 352.865 421.383 352.601 421.082L347.588 415.412L352.033 422.98C352.195 423.159 352.315 423.371 352.386 423.601C352.457 423.832 352.477 424.075 352.445 424.313C352.413 424.552 352.329 424.781 352.2 424.984C352.07 425.188 351.897 425.36 351.694 425.491C351.491 425.621 351.262 425.706 351.022 425.74C350.783 425.774 350.539 425.755 350.308 425.686C350.076 425.617 349.862 425.498 349.681 425.338C349.5 425.179 349.356 424.982 349.259 424.761L344.078 417.984L347.42 424.695C347.582 424.874 347.702 425.086 347.773 425.317C347.844 425.547 347.865 425.79 347.832 426.028C347.8 426.267 347.716 426.496 347.587 426.699C347.457 426.903 347.285 427.075 347.082 427.206C346.878 427.336 346.649 427.421 346.41 427.455C346.17 427.489 345.926 427.47 345.695 427.401C345.463 427.332 345.25 427.213 345.069 427.053C344.888 426.894 344.743 426.697 344.646 426.477L340.785 420.316L335.855 412.873L333.916 415.237C333.642 415.622 333.241 415.899 332.783 416.019C332.325 416.139 331.839 416.095 331.409 415.895C331.027 415.687 330.741 415.338 330.613 414.922C330.485 414.507 330.525 414.058 330.724 413.672L333.231 408.935L298.293 356.267" fill="#F6C4DE"/>
<path d="M317.65 349.823L290.6 363.477L271.246 309.361C270.597 307.544 270.634 305.552 271.351 303.76C272.068 301.967 273.415 300.496 275.141 299.621C276.87 298.749 278.86 298.536 280.736 299.02C282.613 299.504 284.248 300.653 285.335 302.251L317.65 349.823Z" fill="#8C81F7"/>
<path d="M215.574 349.824L242.616 363.469L261.977 309.353C262.628 307.535 262.59 305.542 261.872 303.749C261.154 301.956 259.804 300.485 258.075 299.613C256.347 298.74 254.358 298.526 252.483 299.01C250.607 299.495 248.974 300.644 247.889 302.243L215.574 349.824Z" fill="#8C81F7"/>
<path d="M253.551 276.876C253.551 276.876 253.768 263.022 268.659 262.406C281.102 261.906 284.887 273.229 285.322 274.703C288.18 284.335 299.87 294.218 313.625 295.933C327.38 297.648 319.399 315.081 311.954 313.899C304.508 312.717 286.667 306.698 276.573 289.605C266.478 272.513 253.551 279.407 253.551 278.141V276.876Z" fill="#806CF6"/>
<path d="M267.752 291.379C274.998 291.379 280.872 285.75 280.872 278.807C280.872 271.864 274.998 266.235 267.752 266.235C260.507 266.235 254.633 271.864 254.633 278.807C254.633 285.75 260.507 291.379 267.752 291.379Z" fill="#F6C4DE"/>
<path d="M277.617 276.792H282.105C282.639 276.792 283.151 277.004 283.529 277.38C283.906 277.756 284.118 278.266 284.118 278.799C284.118 279.331 283.906 279.841 283.529 280.217C283.151 280.594 282.639 280.805 282.105 280.805H277.617V276.792Z" fill="#F6C4DE"/>
<path d="M257.879 280.813H253.392C252.857 280.813 252.345 280.602 251.967 280.226C251.59 279.849 251.378 279.339 251.378 278.807C251.378 278.275 251.59 277.764 251.967 277.388C252.345 277.012 252.857 276.801 253.392 276.801H257.879V280.813Z" fill="#F6C4DE"/>
<path d="M261.887 276.942C262.354 276.942 262.732 276.565 262.732 276.101C262.732 275.637 262.354 275.26 261.887 275.26C261.421 275.26 261.043 275.637 261.043 276.101C261.043 276.565 261.421 276.942 261.887 276.942Z" fill="#624EC5"/>
<path d="M272.114 276.942C272.58 276.942 272.958 276.565 272.958 276.101C272.958 275.637 272.58 275.26 272.114 275.26C271.648 275.26 271.27 275.637 271.27 276.101C271.27 276.565 271.648 276.942 272.114 276.942Z" fill="#624EC5"/>
<path d="M267.39 279.972C267.308 279.974 267.228 279.951 267.159 279.906C267.091 279.862 267.037 279.798 267.005 279.723C266.679 279.005 266.311 278.307 265.902 277.633C265.812 278.27 265.77 278.913 265.777 279.556C265.777 279.667 265.733 279.772 265.655 279.851C265.576 279.929 265.47 279.972 265.359 279.972C265.248 279.972 265.142 279.929 265.064 279.851C264.985 279.772 264.941 279.667 264.941 279.556C264.941 276.95 265.343 276.692 265.493 276.592C265.569 276.549 265.656 276.527 265.744 276.527C265.831 276.527 265.918 276.549 265.994 276.592C266.504 276.817 267.239 278.257 267.766 279.415C267.811 279.515 267.815 279.629 267.775 279.732C267.736 279.835 267.658 279.919 267.557 279.964C267.502 279.977 267.446 279.98 267.39 279.972Z" fill="#B7577E"/>
<path d="M266.558 285.376C265.61 285.38 264.671 285.19 263.8 284.818C263.699 284.773 263.621 284.689 263.582 284.586C263.543 284.483 263.546 284.369 263.591 284.269C263.615 284.217 263.648 284.17 263.69 284.131C263.732 284.091 263.781 284.061 263.834 284.041C263.888 284.021 263.945 284.011 264.002 284.013C264.059 284.015 264.116 284.028 264.168 284.052C265.077 284.448 266.073 284.6 267.06 284.495C268.046 284.39 268.987 284.031 269.792 283.453C269.835 283.415 269.885 283.387 269.939 283.37C269.993 283.352 270.051 283.346 270.107 283.352C270.164 283.357 270.219 283.374 270.269 283.402C270.319 283.429 270.363 283.466 270.398 283.511C270.433 283.556 270.458 283.608 270.472 283.663C270.486 283.718 270.489 283.776 270.48 283.832C270.471 283.888 270.45 283.941 270.419 283.989C270.389 284.037 270.349 284.078 270.301 284.11C269.235 284.946 267.914 285.392 266.558 285.376Z" fill="#624EC5"/>
<path d="M298.677 361.122L292.66 331.142" stroke="#1D1D1B" stroke-linecap="round" stroke-linejoin="round"/>
<path d="M234.426 360.097L239.841 331.499" stroke="#1D1D1B" stroke-linecap="round" stroke-linejoin="round"/>
</g>
<mask id="mask1_685_14360" style="mask-type:alpha" maskUnits="userSpaceOnUse" x="213" y="360" width="109" height="109">
<ellipse cx="267.606" cy="414.814" rx="54.3876" ry="54.1864" fill="#D9D9D9"/>
</mask>
<g mask="url(#mask1_685_14360)">
<g clip-path="url(#clip0_685_14360)">
<path d="M278.192 392.365C281.693 392.365 284.532 389.536 284.532 386.047C284.532 382.558 281.693 379.729 278.192 379.729C274.69 379.729 271.852 382.558 271.852 386.047C271.852 389.536 274.69 392.365 278.192 392.365Z" fill="#BB7AAB"/>
<path d="M309.799 532.419C310.366 535.17 310.639 537.973 310.613 540.781H224.555C224.513 537.977 224.77 535.177 225.32 532.427L245.577 431.499C246.961 426.582 249.866 422.225 253.879 419.049C257.768 415.97 262.585 414.287 267.552 414.272C277.668 414.272 286.588 421.263 289.526 431.499L309.799 532.419Z" fill="#BB7AAB"/>
<path d="M221.3 466.626L183.301 527.926L179.037 534.544C178.875 534.899 178.846 535.3 178.957 535.674C179.067 536.048 179.309 536.369 179.638 536.58C179.967 536.791 180.362 536.877 180.749 536.821C181.136 536.766 181.49 536.574 181.747 536.28L186.125 531.535L182.056 537.91C181.897 538.085 181.778 538.292 181.707 538.517C181.637 538.742 181.616 538.979 181.647 539.213C181.679 539.447 181.76 539.671 181.887 539.87C182.014 540.069 182.183 540.238 182.382 540.366C182.581 540.493 182.806 540.576 183.04 540.608C183.275 540.64 183.513 540.62 183.74 540.551C183.966 540.482 184.174 540.364 184.35 540.206C184.526 540.048 184.665 539.854 184.758 539.638L189.641 534.114L185.303 541.487C185.141 541.842 185.113 542.243 185.224 542.616C185.334 542.99 185.576 543.312 185.905 543.523C186.234 543.734 186.628 543.819 187.015 543.764C187.403 543.709 187.757 543.517 188.014 543.222L193.051 536.62L189.796 543.158C189.643 543.333 189.529 543.54 189.463 543.763C189.397 543.986 189.38 544.221 189.413 544.451C189.446 544.682 189.528 544.902 189.655 545.098C189.781 545.294 189.948 545.461 190.144 545.586C190.341 545.712 190.562 545.795 190.793 545.828C191.024 545.861 191.26 545.844 191.484 545.778C191.708 545.712 191.915 545.599 192.092 545.446C192.268 545.294 192.409 545.105 192.506 544.893L196.258 538.899L201.068 531.649L202.956 533.944C203.222 534.32 203.612 534.591 204.059 534.71C204.505 534.829 204.979 534.787 205.398 534.593C205.769 534.389 206.046 534.048 206.169 533.643C206.292 533.239 206.252 532.803 206.057 532.427L203.615 527.804L237.635 476.505" fill="#F6C4DE"/>
<path d="M314.682 466.626L352.681 527.926L356.946 534.544C357.103 534.719 357.22 534.925 357.289 535.15C357.359 535.374 357.378 535.611 357.347 535.843C357.316 536.076 357.234 536.299 357.108 536.497C356.981 536.695 356.814 536.863 356.616 536.99C356.418 537.118 356.194 537.2 355.961 537.233C355.728 537.266 355.491 537.248 355.265 537.18C355.04 537.113 354.832 536.997 354.655 536.842C354.479 536.686 354.338 536.495 354.244 536.28L349.857 531.535L353.926 537.91C354.098 538.081 354.229 538.289 354.31 538.518C354.39 538.746 354.419 538.99 354.393 539.231C354.366 539.472 354.286 539.704 354.158 539.91C354.03 540.116 353.858 540.291 353.653 540.422C353.448 540.552 353.217 540.636 352.976 540.666C352.734 540.696 352.489 540.671 352.259 540.595C352.028 540.518 351.818 540.391 351.643 540.222C351.468 540.054 351.333 539.848 351.249 539.621L346.365 534.098L350.695 541.471C350.852 541.645 350.97 541.852 351.039 542.076C351.108 542.3 351.128 542.537 351.097 542.77C351.065 543.002 350.983 543.225 350.857 543.423C350.731 543.621 350.563 543.79 350.365 543.917C350.167 544.044 349.944 544.127 349.711 544.16C349.478 544.192 349.24 544.174 349.015 544.107C348.789 544.039 348.581 543.924 348.405 543.768C348.228 543.613 348.088 543.421 347.993 543.206L342.947 536.604L346.203 543.141C346.36 543.316 346.477 543.523 346.546 543.747C346.616 543.971 346.635 544.208 346.604 544.44C346.573 544.673 346.491 544.896 346.365 545.094C346.238 545.292 346.071 545.461 345.873 545.588C345.675 545.715 345.451 545.798 345.218 545.83C344.985 545.863 344.748 545.845 344.522 545.778C344.297 545.71 344.089 545.595 343.912 545.439C343.736 545.284 343.595 545.092 343.501 544.877L339.741 538.883L334.939 531.632L333.051 533.928C332.785 534.304 332.394 534.575 331.948 534.694C331.502 534.812 331.028 534.771 330.609 534.577C330.236 534.374 329.958 534.034 329.833 533.629C329.709 533.224 329.747 532.787 329.942 532.411L332.383 527.788L298.348 476.496" fill="#F6C4DE"/>
<path d="M317.14 470.211L290.796 483.504L271.947 430.785C271.313 429.015 271.349 427.076 272.047 425.331C272.745 423.585 274.058 422.154 275.739 421.304C277.423 420.452 279.36 420.242 281.188 420.713C283.016 421.183 284.609 422.302 285.668 423.859L317.14 470.211Z" fill="#BB7AAB"/>
<path d="M217.777 470.219L244.114 483.52L262.971 430.801C263.605 429.03 263.568 427.088 262.868 425.341C262.169 423.595 260.854 422.162 259.17 421.312C257.488 420.461 255.552 420.251 253.726 420.721C251.899 421.192 250.307 422.31 249.249 423.867L217.777 470.219Z" fill="#BB7AAB"/>
<path d="M279.255 405.48C269.416 388.821 254.75 401.611 254.75 400.378V399.154C254.75 399.154 254.945 385.082 269.465 385.074C282.055 385.074 282.568 399.397 282.991 400.841L279.255 405.48Z" fill="#BB7AAB"/>
<path d="M268.578 413.274C275.635 413.274 281.356 407.791 281.356 401.027C281.356 394.263 275.635 388.78 268.578 388.78C261.522 388.78 255.801 394.263 255.801 401.027C255.801 407.791 261.522 413.274 268.578 413.274Z" fill="#F6C4DE"/>
<path d="M278.191 399.073H282.562C283.082 399.073 283.581 399.279 283.949 399.645C284.317 400.012 284.523 400.509 284.523 401.027C284.523 401.546 284.317 402.043 283.949 402.409C283.581 402.776 283.082 402.982 282.562 402.982H278.191V399.073Z" fill="#F6C4DE"/>
<path d="M258.965 402.982H254.594C254.074 402.982 253.575 402.776 253.207 402.409C252.84 402.043 252.633 401.546 252.633 401.027C252.633 400.509 252.84 400.012 253.207 399.645C253.575 399.279 254.074 399.073 254.594 399.073H258.965V402.982Z" fill="#F6C4DE"/>
<path d="M262.865 400.849C263.319 400.849 263.688 400.482 263.688 400.03C263.688 399.577 263.319 399.21 262.865 399.21C262.411 399.21 262.043 399.577 262.043 400.03C262.043 400.482 262.411 400.849 262.865 400.849Z" fill="#624EC5"/>
<path d="M272.826 400.849C273.28 400.849 273.649 400.482 273.649 400.03C273.649 399.577 273.28 399.21 272.826 399.21C272.372 399.21 272.004 399.577 272.004 400.03C272.004 400.482 272.372 400.849 272.826 400.849Z" fill="#624EC5"/>
<path d="M268.984 404.044C268.906 404.057 268.826 404.047 268.754 404.015C268.681 403.984 268.62 403.932 268.577 403.866C268.154 403.223 267.686 402.61 267.177 402.033C267.199 402.659 267.264 403.282 267.372 403.898C267.389 404.005 267.363 404.113 267.301 404.201C267.239 404.289 267.145 404.349 267.038 404.369C266.931 404.385 266.821 404.359 266.732 404.295C266.644 404.231 266.584 404.135 266.566 404.028C266.151 401.53 266.493 401.214 266.623 401.1C266.687 401.041 266.764 400.999 266.848 400.978C266.932 400.957 267.02 400.957 267.104 400.979C267.624 401.116 268.56 402.382 269.252 403.412C269.282 403.456 269.304 403.505 269.314 403.557C269.325 403.61 269.325 403.663 269.314 403.716C269.304 403.768 269.282 403.817 269.252 403.861C269.222 403.905 269.183 403.943 269.138 403.971C269.093 404.007 269.04 404.032 268.984 404.044Z" fill="#B7577E"/>
<path d="M267.284 407.264C266.198 407.22 265.127 406.993 264.118 406.591C264.065 406.573 264.017 406.544 263.977 406.505C263.937 406.467 263.905 406.42 263.885 406.368C263.865 406.317 263.857 406.261 263.86 406.206C263.864 406.15 263.88 406.096 263.906 406.048C263.978 405.948 264.082 405.876 264.2 405.844C264.319 405.811 264.445 405.82 264.557 405.869C264.696 405.934 268.049 407.354 271.068 405.553C271.176 405.492 271.3 405.468 271.423 405.485C271.545 405.503 271.658 405.561 271.744 405.65C271.781 405.692 271.807 405.742 271.822 405.797C271.836 405.851 271.838 405.907 271.827 405.962C271.816 406.017 271.793 406.069 271.758 406.113C271.724 406.157 271.68 406.193 271.63 406.218C270.317 406.989 268.804 407.353 267.284 407.264Z" fill="#624EC5"/>
<path d="M298.7 481.217L292.84 452.011" stroke="#1D1D1B" stroke-linecap="round" stroke-linejoin="round"/>
<path d="M236.121 480.219L241.395 452.367" stroke="#1D1D1B" stroke-linecap="round" stroke-linejoin="round"/>
<path d="M268.627 387.815C268.627 387.815 268.627 399.081 255.801 396.631C255.801 396.631 257.591 387.904 262.043 387.564C266.495 387.223 268.627 387.815 268.627 387.815Z" fill="#BB7AAB"/>
<path d="M267.848 388.496C267.848 388.496 268.491 399.081 281.35 396.607C281.35 396.607 279.551 387.88 275.107 387.539C272.646 387.294 270.161 387.621 267.848 388.496Z" fill="#BB7AAB"/>
</g>
</g>
<path d="M321.49 414.814C321.49 444.462 297.366 468.5 267.602 468.5C237.839 468.5 213.715 444.462 213.715 414.814C213.715 385.165 237.839 361.127 267.602 361.127C297.366 361.127 321.49 385.165 321.49 414.814Z" stroke="#8666FF"/>
<mask id="mask2_685_14360" style="mask-type:alpha" maskUnits="userSpaceOnUse" x="92" y="360" width="109" height="109">
<ellipse cx="146.388" cy="414.814" rx="54.3876" ry="54.1864" fill="#D9D9D9"/>
</mask>
<g mask="url(#mask2_685_14360)">
<path d="M147.281 411.724C155.265 411.724 161.737 405.522 161.737 397.871C161.737 390.219 155.265 384.017 147.281 384.017C139.297 384.017 132.824 390.219 132.824 397.871C132.824 405.522 139.297 411.724 147.281 411.724Z" fill="#3D5DA2"/>
<path d="M189.616 536.948C190.182 539.774 190.445 542.651 190.402 545.532H102.099C102.073 542.652 102.353 539.778 102.935 536.957L123.676 433.354C125.096 428.311 128.072 423.84 132.183 420.574C136.179 417.406 141.131 415.672 146.238 415.654C156.617 415.654 165.775 422.831 168.8 433.337L189.616 536.948Z" fill="#4D71B1"/>
<path d="M197.142 473.1L170.101 486.754L150.739 432.638C150.089 430.82 150.127 428.829 150.845 427.037C151.563 425.246 152.913 423.777 154.641 422.905C156.369 422.032 158.356 421.817 160.232 422.299C162.107 422.782 163.741 423.93 164.828 425.528L197.142 473.1Z" fill="#4D71B1"/>
<path d="M95.1055 473.1L122.155 486.754L141.517 432.638C142.168 430.819 142.13 428.827 141.412 427.033C140.693 425.24 139.343 423.77 137.615 422.897C135.882 422.023 133.888 421.812 132.01 422.303C130.132 422.794 128.499 423.953 127.42 425.561L95.1055 473.1Z" fill="#4D71B1"/>
<path d="M147.288 414.647C154.533 414.647 160.407 409.018 160.407 402.075C160.407 395.132 154.533 389.504 147.288 389.504C140.042 389.504 134.168 395.132 134.168 402.075C134.168 409.018 140.042 414.647 147.288 414.647Z" fill="#F6C4DE"/>
<path d="M157.152 400.069H161.64C162.174 400.069 162.686 400.28 163.064 400.656C163.441 401.033 163.654 401.543 163.654 402.075C163.654 402.607 163.441 403.118 163.064 403.494C162.686 403.87 162.174 404.082 161.64 404.082H157.152V400.069Z" fill="#F6C4DE"/>
<path d="M137.414 404.09H132.927C132.393 404.09 131.88 403.878 131.503 403.502C131.125 403.126 130.913 402.616 130.913 402.083C130.913 401.551 131.125 401.041 131.503 400.665C131.88 400.288 132.393 400.077 132.927 400.077H137.414V404.09Z" fill="#F6C4DE"/>
<path d="M141.422 400.21C141.889 400.21 142.267 399.834 142.267 399.369C142.267 398.905 141.889 398.529 141.422 398.529C140.956 398.529 140.578 398.905 140.578 399.369C140.578 399.834 140.956 400.21 141.422 400.21Z" fill="#3D5DA2"/>
<path d="M151.649 400.21C152.115 400.21 152.493 399.834 152.493 399.369C152.493 398.905 152.115 398.529 151.649 398.529C151.183 398.529 150.805 398.905 150.805 399.369C150.805 399.834 151.183 400.21 151.649 400.21Z" fill="#3D5DA2"/>
<path d="M147.702 403.732C147.621 403.731 147.543 403.708 147.476 403.663C147.409 403.619 147.357 403.556 147.326 403.482C147.002 402.762 146.631 402.064 146.214 401.392C146.131 402.03 146.092 402.672 146.097 403.315C146.095 403.425 146.051 403.53 145.973 403.607C145.895 403.685 145.79 403.73 145.68 403.732C145.569 403.732 145.462 403.688 145.384 403.61C145.306 403.532 145.262 403.426 145.262 403.315C145.262 400.709 145.663 400.451 145.813 400.351C145.89 400.308 145.976 400.286 146.064 400.286C146.152 400.286 146.238 400.308 146.315 400.351C146.824 400.576 147.56 402.017 148.086 403.174C148.131 403.274 148.135 403.389 148.096 403.492C148.057 403.595 147.978 403.678 147.877 403.723C147.82 403.738 147.76 403.74 147.702 403.732Z" fill="#B7577E"/>
<path d="M146.849 408.652C145.899 408.649 144.959 408.46 144.083 408.094C143.984 408.047 143.906 407.964 143.867 407.862C143.829 407.759 143.831 407.646 143.874 407.545C143.923 407.446 144.008 407.369 144.112 407.33C144.216 407.291 144.331 407.294 144.434 407.337C145.343 407.732 146.339 407.884 147.325 407.779C148.311 407.674 149.253 407.315 150.058 406.737C150.099 406.695 150.149 406.661 150.205 406.639C150.261 406.617 150.32 406.607 150.38 406.611C150.44 406.614 150.498 406.629 150.551 406.657C150.604 406.684 150.651 406.723 150.688 406.77C150.724 406.817 150.751 406.871 150.765 406.929C150.779 406.987 150.78 407.047 150.769 407.106C150.757 407.164 150.733 407.219 150.699 407.268C150.664 407.316 150.619 407.357 150.567 407.387C149.509 408.22 148.197 408.666 146.849 408.652Z" fill="#3D5DA2"/>
<path d="M178.208 484.389L172.191 454.409" stroke="#1D1D1B" stroke-linecap="round" stroke-linejoin="round"/>
<path d="M113.973 483.374L119.379 454.775" stroke="#1D1D1B" stroke-linecap="round" stroke-linejoin="round"/>
</g>
<path d="M200.275 414.814C200.275 444.462 176.151 468.5 146.388 468.5C116.625 468.5 92.5 444.462 92.5 414.814C92.5 385.165 116.625 361.127 146.388 361.127C176.151 361.127 200.275 385.165 200.275 414.814Z" stroke="#8666FF"/>
<mask id="mask3_685_14360" style="mask-type:alpha" maskUnits="userSpaceOnUse" x="92" y="239" width="109" height="109">
<ellipse cx="146.388" cy="293.186" rx="54.3876" ry="54.1864" fill="#B64141"/>
</mask>
<g mask="url(#mask3_685_14360)">
<path d="M158.599 289.653H160.27L161.214 278.372H161.106C161.205 277.672 161.233 276.964 161.189 276.258V276.008C160.228 264.735 147.669 258.524 138.685 265.035C136.843 266.308 135.312 267.977 134.205 269.92C133.098 271.863 132.445 274.029 132.293 276.258C132.186 277.538 132.325 278.826 132.702 280.054L133.036 289.653H158.607H158.599Z" fill="#EEC539"/>
<path d="M189.124 413.487C189.689 416.313 189.953 419.19 189.91 422.071H101.607C101.58 419.191 101.861 416.317 102.443 413.496L123.242 309.893C124.647 304.857 127.602 300.388 131.69 297.113C135.687 293.952 140.635 292.225 145.738 292.209C156.116 292.209 165.275 299.386 168.3 309.893L189.124 413.487Z" fill="#EEC539"/>
<path d="M98.2638 345.942L59.2309 408.841L54.8605 415.635C54.6991 415.814 54.5787 416.026 54.5076 416.257C54.4364 416.487 54.4163 416.73 54.4485 416.968C54.4807 417.207 54.5645 417.436 54.6942 417.639C54.8238 417.843 54.9962 418.016 55.1994 418.146C55.4026 418.277 55.6318 418.362 55.8712 418.395C56.1106 418.429 56.3545 418.411 56.586 418.341C56.8176 418.272 57.0313 418.153 57.2123 417.994C57.3934 417.834 57.5376 417.637 57.6349 417.417L62.139 412.555L57.919 419.09C57.7528 419.454 57.7237 419.866 57.8372 420.25C57.9506 420.634 58.199 420.964 58.5368 421.18C58.8747 421.396 59.2794 421.484 59.6769 421.428C60.0744 421.371 60.4382 421.174 60.7017 420.872L65.7155 415.202L61.2699 422.77C61.1099 423.133 61.0849 423.54 61.1993 423.919C61.3138 424.299 61.5603 424.625 61.8944 424.84C62.2286 425.054 62.6286 425.143 63.0226 425.09C63.4166 425.038 63.7788 424.847 64.0442 424.552L69.2169 417.775L65.8743 424.485C65.7081 424.849 65.679 425.261 65.7925 425.645C65.906 426.028 66.1543 426.359 66.4921 426.575C66.83 426.791 67.2347 426.879 67.6322 426.823C68.0297 426.766 68.3935 426.569 68.657 426.267L72.5093 420.106L77.4479 412.671L79.3866 415.027C79.661 415.412 80.0623 415.689 80.5204 415.809C80.9786 415.929 81.4646 415.885 81.8936 415.685C82.2748 415.475 82.5589 415.126 82.6853 414.711C82.8118 414.295 82.7705 413.847 82.5704 413.462L80.0635 408.725L115.002 356.066" fill="#F6C4DE"/>
<path d="M194.141 345.942L233.157 408.841L237.527 415.635C237.689 415.814 237.809 416.026 237.88 416.257C237.951 416.487 237.972 416.73 237.939 416.968C237.907 417.207 237.823 417.436 237.694 417.639C237.564 417.843 237.392 418.016 237.188 418.146C236.985 418.277 236.756 418.362 236.517 418.395C236.277 418.429 236.033 418.411 235.802 418.341C235.57 418.272 235.357 418.153 235.176 417.994C234.995 417.834 234.85 417.637 234.753 417.417L230.299 412.58L234.477 419.115C234.644 419.479 234.673 419.891 234.559 420.275C234.446 420.659 234.197 420.989 233.859 421.205C233.522 421.421 233.117 421.509 232.719 421.453C232.322 421.396 231.958 421.199 231.695 420.897L226.681 415.227L231.126 422.795C231.288 422.974 231.408 423.186 231.479 423.417C231.55 423.647 231.571 423.89 231.538 424.128C231.506 424.367 231.422 424.596 231.293 424.799C231.163 425.003 230.991 425.176 230.787 425.306C230.584 425.437 230.355 425.522 230.116 425.555C229.876 425.589 229.632 425.57 229.401 425.501C229.169 425.432 228.956 425.313 228.775 425.154C228.593 424.994 228.449 424.797 228.352 424.577L223.179 417.8L226.522 424.51C226.688 424.874 226.717 425.286 226.604 425.67C226.49 426.053 226.242 426.384 225.904 426.6C225.566 426.816 225.162 426.904 224.764 426.848C224.367 426.791 224.003 426.594 223.739 426.292L219.887 420.131L214.948 412.696L213.01 415.052C212.735 415.437 212.334 415.714 211.876 415.834C211.418 415.954 210.932 415.91 210.503 415.71C210.121 415.5 209.837 415.151 209.711 414.736C209.585 414.32 209.626 413.872 209.826 413.487L212.333 408.75L177.395 356.091" fill="#F6C4DE"/>
<path d="M196.65 349.639L169.609 363.284L150.247 309.168C149.597 307.35 149.634 305.357 150.353 303.564C151.071 301.771 152.421 300.3 154.15 299.427C155.878 298.555 157.866 298.341 159.742 298.825C161.617 299.309 163.251 300.459 164.336 302.058L196.65 349.639Z" fill="#EEC539"/>
<path d="M94.6094 349.647L121.659 363.293L141.021 309.177C141.671 307.358 141.634 305.365 140.916 303.572C140.197 301.779 138.847 300.309 137.119 299.436C135.39 298.565 133.402 298.352 131.527 298.836C129.652 299.321 128.018 300.469 126.932 302.067L94.6094 349.647Z" fill="#EEC539"/>
<path d="M146.791 291.194C154.037 291.194 159.911 285.565 159.911 278.622C159.911 271.679 154.037 266.05 146.791 266.05C139.546 266.05 133.672 271.679 133.672 278.622C133.672 285.565 139.546 291.194 146.791 291.194Z" fill="#F6C4DE"/>
<path d="M156.656 276.616H161.144C161.678 276.616 162.19 276.827 162.568 277.204C162.945 277.58 163.158 278.09 163.158 278.622C163.158 279.154 162.945 279.665 162.568 280.041C162.19 280.417 161.678 280.629 161.144 280.629H156.656V276.616Z" fill="#F6C4DE"/>
<path d="M136.922 280.62H132.434C131.9 280.62 131.388 280.409 131.01 280.033C130.633 279.656 130.421 279.146 130.421 278.614C130.421 278.082 130.633 277.571 131.01 277.195C131.388 276.819 131.9 276.608 132.434 276.608H136.922V280.62Z" fill="#F6C4DE"/>
<path d="M140.926 276.757C141.393 276.757 141.771 276.381 141.771 275.916C141.771 275.452 141.393 275.076 140.926 275.076C140.46 275.076 140.082 275.452 140.082 275.916C140.082 276.381 140.46 276.757 140.926 276.757Z" fill="#3D5DA2"/>
<path d="M151.149 276.757C151.615 276.757 151.993 276.381 151.993 275.916C151.993 275.452 151.615 275.076 151.149 275.076C150.683 275.076 150.305 275.452 150.305 275.916C150.305 276.381 150.683 276.757 151.149 276.757Z" fill="#3D5DA2"/>
<path d="M146.297 285.749C145.347 285.746 144.407 285.556 143.531 285.191C143.481 285.168 143.436 285.135 143.398 285.094C143.361 285.054 143.332 285.006 143.314 284.954C143.295 284.902 143.287 284.847 143.29 284.792C143.293 284.737 143.306 284.683 143.33 284.633C143.353 284.584 143.385 284.539 143.425 284.502C143.465 284.465 143.512 284.436 143.564 284.417C143.615 284.399 143.67 284.391 143.724 284.393C143.779 284.396 143.833 284.41 143.882 284.433C144.793 284.829 145.791 284.98 146.779 284.874C147.766 284.767 148.709 284.406 149.514 283.826C149.557 283.788 149.607 283.76 149.661 283.743C149.716 283.725 149.773 283.719 149.83 283.725C149.887 283.73 149.942 283.747 149.991 283.775C150.041 283.802 150.085 283.839 150.12 283.884C150.155 283.929 150.18 283.981 150.194 284.036C150.208 284.091 150.211 284.149 150.202 284.205C150.193 284.261 150.172 284.314 150.142 284.362C150.111 284.41 150.071 284.452 150.024 284.483C148.962 285.314 147.647 285.761 146.297 285.749Z" fill="#3D5DA2"/>
<path d="M177.716 360.936L171.699 330.956" stroke="#1D1D1B" stroke-linecap="round" stroke-linejoin="round"/>
<path d="M113.473 359.912L118.879 331.314" stroke="#1D1D1B" stroke-linecap="round" stroke-linejoin="round"/>
<path d="M151.151 273.918C150.389 273.915 149.648 274.172 149.052 274.646C148.457 275.12 148.041 275.782 147.876 276.524C147.316 276.214 146.686 276.051 146.045 276.051C145.405 276.051 144.775 276.214 144.215 276.524C144.05 275.675 143.568 274.921 142.866 274.412C142.164 273.904 141.295 273.68 140.434 273.786C139.573 273.891 138.784 274.318 138.226 274.98C137.669 275.643 137.385 276.491 137.431 277.355C137.477 278.218 137.85 279.031 138.474 279.631C139.099 280.231 139.929 280.573 140.797 280.587C141.664 280.601 142.505 280.286 143.148 279.707C143.792 279.127 144.192 278.326 144.266 277.465C144.778 277.086 145.399 276.882 146.037 276.882C146.675 276.882 147.296 277.086 147.809 277.465C147.856 278.111 148.091 278.729 148.486 279.244C148.881 279.759 149.418 280.149 150.031 280.364C150.645 280.579 151.308 280.612 151.939 280.457C152.571 280.303 153.144 279.968 153.587 279.494C154.031 279.02 154.326 278.428 154.436 277.789C154.547 277.151 154.468 276.494 154.21 275.899C153.951 275.305 153.524 274.798 152.981 274.442C152.437 274.085 151.802 273.895 151.151 273.893V273.918ZM140.923 279.796C140.427 279.796 139.942 279.649 139.53 279.375C139.118 279.1 138.797 278.71 138.607 278.254C138.417 277.798 138.368 277.295 138.464 276.811C138.561 276.326 138.8 275.881 139.15 275.532C139.501 275.183 139.948 274.945 140.434 274.848C140.92 274.752 141.424 274.802 141.882 274.991C142.34 275.18 142.732 275.5 143.007 275.911C143.283 276.321 143.43 276.804 143.43 277.298C143.43 277.961 143.166 278.596 142.696 279.064C142.226 279.533 141.588 279.796 140.923 279.796ZM151.151 279.796C150.655 279.796 150.171 279.649 149.758 279.375C149.346 279.1 149.025 278.71 148.835 278.254C148.645 277.798 148.596 277.295 148.693 276.811C148.789 276.326 149.028 275.881 149.379 275.532C149.729 275.183 150.176 274.945 150.662 274.848C151.148 274.752 151.653 274.802 152.111 274.991C152.569 275.18 152.96 275.5 153.236 275.911C153.511 276.321 153.658 276.804 153.658 277.298C153.658 277.626 153.593 277.951 153.467 278.254C153.341 278.557 153.157 278.832 152.924 279.064C152.691 279.296 152.415 279.48 152.111 279.606C151.806 279.731 151.48 279.796 151.151 279.796Z" fill="#3D5DA2"/>
<path d="M147.206 280.271C147.126 280.271 147.048 280.248 146.982 280.206C146.915 280.163 146.862 280.101 146.83 280.029C146.506 279.306 146.134 278.605 145.718 277.931C145.635 278.569 145.596 279.211 145.601 279.854C145.601 279.965 145.557 280.071 145.479 280.149C145.401 280.227 145.294 280.271 145.183 280.271C145.073 280.271 144.966 280.227 144.888 280.149C144.81 280.071 144.766 279.965 144.766 279.854C144.766 277.248 145.167 276.99 145.317 276.89C145.394 276.847 145.48 276.825 145.568 276.825C145.656 276.825 145.742 276.847 145.819 276.89C146.328 277.115 147.064 278.555 147.59 279.721C147.633 279.822 147.635 279.935 147.596 280.038C147.558 280.14 147.48 280.223 147.381 280.271C147.323 280.282 147.264 280.282 147.206 280.271Z" fill="#B7577E"/>
<path d="M134.348 272.586C134.348 272.586 146.615 262.745 158.857 272.586C157.966 270.13 156.32 268.017 154.154 266.547C151.987 265.078 149.41 264.327 146.79 264.402C144.124 264.329 141.5 265.075 139.274 266.539C137.048 268.003 135.328 270.114 134.348 272.586Z" fill="#EEC539"/>
</g>
<path d="M200.275 293.186C200.275 322.835 176.151 346.873 146.388 346.873C116.625 346.873 92.5 322.835 92.5 293.186C92.5 263.538 116.625 239.5 146.388 239.5C176.151 239.5 200.275 263.538 200.275 293.186Z" stroke="#8666FF"/>
<path d="M70.7207 136.688H61.9492V138.059H63.4785V145.661L61.4746 145.688L61.6504 147.076C64.3838 147.076 68.0752 147.006 71.2832 146.496L71.1777 145.266C70.4746 145.345 69.7451 145.415 68.998 145.468V138.059H70.7207V136.688ZM65.1133 145.635V138.059H67.3984V145.556C66.6338 145.591 65.8604 145.617 65.1133 145.635ZM70.2109 142.365H73.0586V150.873H74.7109V135.123H73.0586V140.994H70.2109V142.365ZM91.5508 147.463H77.1367V148.834H91.5508V147.463ZM77.8047 143.526L78.4902 144.862C80.9863 144.378 83.3154 142.858 84.3262 140.766C85.3545 142.84 87.7012 144.317 90.25 144.791L90.918 143.473C87.9209 142.998 85.1875 140.871 85.1875 138.463V137.971H90.3027V136.617H78.332V137.971H83.4473V138.463C83.4473 140.871 80.7314 143.051 77.8047 143.526ZM107.107 147.569H100.674V144.211H105.736V142.893H103.381V137.936H105.789V136.582H93.9238V137.936H96.3145V142.893H93.959V144.211H99.0215V147.569H92.6934V148.992H107.107V147.569ZM97.9668 142.893V137.936H101.746V142.893H97.9668ZM122.664 147.463H108.25V148.834H122.664V147.463ZM108.918 143.526L109.604 144.862C112.1 144.378 114.429 142.858 115.439 140.766C116.468 142.84 118.814 144.317 121.363 144.791L122.031 143.473C119.034 142.998 116.301 140.871 116.301 138.463V137.971H121.416V136.617H109.445V137.971H114.561V138.463C114.561 140.871 111.845 143.051 108.918 143.526ZM124.756 144.528C124.773 147.85 125.714 150.601 127.357 152.965H129.08C127.867 151.216 126.707 147.674 126.707 144.528C126.707 141.39 127.867 137.848 129.08 136.108H127.357C125.714 138.463 124.773 141.214 124.756 144.528ZM130.961 149.379H132.895V144.914H135.496C138.449 144.914 139.908 143.13 139.908 140.783C139.908 138.428 138.458 136.653 135.496 136.653H130.961V149.379ZM132.895 143.262V138.305H135.303C137.175 138.314 137.957 139.342 137.957 140.783C137.957 142.216 137.175 143.271 135.303 143.262H132.895ZM141.262 146.69C141.253 148.553 142.668 149.59 144.479 149.59C146.061 149.59 146.939 148.79 147.309 148.078H147.379V149.379H149.207V143.033C149.198 140.265 146.983 139.711 145.463 139.711C143.204 139.711 141.728 140.854 141.561 142.436H143.424C143.617 141.733 144.285 141.223 145.393 141.223C146.667 141.223 147.335 141.847 147.326 142.928L147.335 143.693C146.896 143.71 145.463 143.789 144.83 143.824C143.107 143.948 141.253 144.51 141.262 146.69ZM143.09 146.707C143.09 145.767 143.863 145.301 145.094 145.213C145.542 145.187 146.904 145.09 147.335 145.064L147.344 145.934C147.344 147.068 146.43 148.087 144.9 148.096C143.846 148.087 143.09 147.621 143.09 146.707ZM157.539 145.406C157.539 147.032 156.335 147.797 155.289 147.797C154.146 147.797 153.355 146.971 153.355 145.67V139.834H151.475V145.899C151.475 148.263 152.775 149.502 154.621 149.502C156.054 149.502 157.029 148.746 157.469 147.727H157.574V149.379H159.402V139.834H157.539V145.406ZM167.049 142.436H168.859C168.675 140.792 167.348 139.711 165.221 139.711C163.006 139.711 161.529 140.88 161.529 142.576C161.529 143.895 162.426 144.818 164.148 145.196L165.643 145.512C166.653 145.749 167.11 146.145 167.119 146.76C167.11 147.56 166.328 148.07 165.115 148.061C163.981 148.07 163.331 147.639 163.164 146.778H161.248C161.485 148.553 162.839 149.573 165.133 149.573C167.567 149.573 169.026 148.342 169.035 146.619C169.026 145.266 168.174 144.431 166.416 144.035L164.904 143.684C163.85 143.438 163.401 143.033 163.41 142.471C163.401 141.741 164.166 141.188 165.238 141.188C166.275 141.188 166.873 141.68 167.049 142.436ZM174.977 149.573C177.077 149.573 178.545 148.535 178.967 146.989H177.068C176.752 147.569 176.058 148.026 174.994 148.026C173.43 148.026 172.357 146.997 172.305 145.178H179.09V144.51C179.09 141.056 177.024 139.711 174.854 139.711C172.19 139.711 170.433 141.733 170.441 144.668C170.433 147.63 172.164 149.573 174.977 149.573ZM172.313 143.772C172.393 142.427 173.368 141.249 174.871 141.258C176.304 141.249 177.244 142.322 177.244 143.772H172.313ZM185.506 149.379H187.439V144.914H190.041C192.994 144.914 194.453 143.13 194.453 140.783C194.453 138.428 193.003 136.653 190.041 136.653H185.506V149.379ZM187.439 143.262V138.305H189.848C191.72 138.314 192.502 139.342 192.502 140.783C192.502 142.216 191.72 143.271 189.848 143.262H187.439ZM200.254 149.573C202.943 149.573 204.701 147.604 204.701 144.651C204.701 141.68 202.943 139.711 200.254 139.711C197.547 139.711 195.78 141.68 195.789 144.651C195.78 147.604 197.547 149.573 200.254 149.573ZM197.67 144.651C197.67 142.823 198.505 141.267 200.254 141.258C201.977 141.267 202.803 142.823 202.803 144.651C202.803 146.47 201.977 148.008 200.254 148.008C198.505 148.008 197.67 146.47 197.67 144.651ZM211.908 142.436H213.719C213.534 140.792 212.207 139.711 210.08 139.711C207.865 139.711 206.389 140.88 206.389 142.576C206.389 143.895 207.285 144.818 209.008 145.196L210.502 145.512C211.513 145.749 211.97 146.145 211.979 146.76C211.97 147.56 211.188 148.07 209.975 148.061C208.841 148.07 208.19 147.639 208.023 146.778H206.107C206.345 148.553 207.698 149.573 209.992 149.573C212.427 149.573 213.886 148.342 213.895 146.619C213.886 145.266 213.033 144.431 211.275 144.035L209.764 143.684C208.709 143.438 208.261 143.033 208.27 142.471C208.261 141.741 209.025 141.188 210.098 141.188C211.135 141.188 211.732 141.68 211.908 142.436ZM219.836 149.573C221.937 149.573 223.404 148.535 223.826 146.989H221.928C221.611 147.569 220.917 148.026 219.854 148.026C218.289 148.026 217.217 146.997 217.164 145.178H223.949V144.51C223.949 141.056 221.884 139.711 219.713 139.711C217.05 139.711 215.292 141.733 215.301 144.668C215.292 147.63 217.023 149.573 219.836 149.573ZM217.173 143.772C217.252 142.427 218.228 141.249 219.73 141.258C221.163 141.249 222.104 142.322 222.104 143.772H217.173ZM229.574 144.528C229.557 141.214 228.616 138.463 226.973 136.108H225.25C226.463 137.848 227.623 141.39 227.623 144.528C227.623 147.674 226.463 151.216 225.25 152.965H226.973C228.616 150.601 229.557 147.85 229.574 144.528ZM244.428 139.729H235.234V135.686H233.582V141.065H244.428V139.729ZM231.666 144.387H246.08V143.051H231.666V144.387ZM233.459 150.504H244.533V149.133H235.129V145.881H233.459V150.504ZM265.17 135.123H263.553V141.381H261.619V135.492H260.055V150.117H261.619V142.752H263.553V150.873H265.17V135.123ZM251.688 146.496L252.672 147.692C257.444 145.029 258.64 141.214 258.648 137.004H252.531V138.358H257.014C256.961 139.131 256.847 139.878 256.653 140.59L251.74 140.889L251.951 142.348L256.188 141.9C255.405 143.666 254.008 145.213 251.688 146.496ZM280.252 135.141H278.582V144.756H280.252V135.141ZM267.982 137.408H273.572V139.254H268.018V143.948H269.336C272.315 143.956 274.46 143.868 277.035 143.473L276.824 142.119C274.425 142.471 272.412 142.559 269.652 142.576V140.555H275.225V136.055H267.982V137.408ZM269.582 146.936H278.582V150.873H280.252V145.565H269.582V146.936ZM295.879 135.123H294.227V140.942H291.098V142.313H294.227V150.908H295.879V135.123ZM283.469 147.182H284.699C287.617 147.173 289.595 147.076 291.889 146.707L291.713 145.354C289.621 145.714 287.793 145.793 285.156 145.793V142.278H290.166V140.942H285.156V137.883H290.834V136.53H283.469V147.182ZM312.701 142.348H298.287V143.631H312.701V142.348ZM299.992 145.934H309.273V147.094H300.01V150.68H311.418V149.502H301.68V148.201H310.926V144.739H299.992V145.934ZM300.098 136.705H309.221V137.83H300.133V141.311H311.154V140.133H301.785V138.938H310.891V135.528H300.098V136.705ZM332.617 143.403H326.254V142.031H330.965V140.731H321.789V139.395H330.455V138.147H321.789V136.864H330.859V135.545H320.102V142.031H324.584V143.403H318.221V144.721H332.617V143.403ZM319.961 148.307C319.961 149.968 321.921 150.847 325.428 150.838C328.882 150.847 330.851 149.968 330.859 148.307C330.851 146.655 328.882 145.749 325.428 145.758C321.921 145.749 319.961 146.655 319.961 148.307ZM321.631 148.307C321.622 147.454 322.94 147.006 325.428 147.006C327.88 147.006 329.189 147.454 329.189 148.307C329.189 149.159 327.88 149.59 325.428 149.573C322.94 149.59 321.622 149.159 321.631 148.307ZM341.6 137.725H338.523V135.58H336.871V137.725H333.777V139.078H341.6V137.725ZM334.287 143.649C334.278 145.802 335.72 147.314 337.697 147.305C339.692 147.314 341.116 145.802 341.125 143.649C341.116 141.531 339.692 140.028 337.697 140.028C335.72 140.028 334.278 141.531 334.287 143.649ZM335.764 143.649C335.755 142.339 336.563 141.425 337.697 141.416C338.831 141.425 339.648 142.339 339.648 143.649C339.648 144.985 338.831 145.881 337.697 145.881C336.563 145.881 335.755 144.985 335.764 143.649ZM342.32 150.135H343.902V143.051H345.713V150.873H347.295V135.123H345.713V141.68H343.902V135.475H342.32V150.135ZM67.0645 164.764V163.094H70.4922V161.705H61.8613V163.094H65.4121V164.764C65.4033 167.427 63.6719 170.398 61.2812 171.549L62.2656 172.867C64.0586 171.971 65.5352 170.029 66.2559 167.787C66.9678 169.844 68.374 171.619 70.1406 172.463L71.0898 171.162C68.6992 170.029 67.0557 167.251 67.0645 164.764ZM72.1797 175.873H73.8496V167.77H76.3809V166.364H73.8496V160.123H72.1797V175.873ZM81.9355 164.43V161.565H80.3184V164.5C80.3271 167.181 79.1494 169.967 76.9258 171.303L77.9629 172.551C79.4922 171.619 80.582 169.914 81.1533 167.919C81.6982 169.739 82.6914 171.312 84.168 172.199L85.0996 170.916C82.9902 169.624 81.9355 166.944 81.9355 164.43ZM83.3945 167.049H85.8379V175.1H87.4199V160.422H85.8379V165.66H83.3945V167.049ZM89.0898 175.873H90.6895V160.123H89.0898V175.873ZM97.4219 161.125C94.9521 161.125 93.1768 162.655 93.1855 164.869C93.1768 166.829 94.5654 168.253 96.5957 168.552V171.11C95.1279 171.145 93.7217 171.154 92.5 171.162L92.7637 172.533C95.4883 172.56 99.1533 172.533 102.484 171.953L102.361 170.705C101.061 170.872 99.6631 170.978 98.2656 171.048V168.552C100.252 168.236 101.649 166.821 101.658 164.869C101.649 162.655 99.8477 161.125 97.4219 161.125ZM94.8027 164.869C94.7939 163.463 95.9102 162.549 97.4219 162.531C98.916 162.549 100.015 163.463 100.023 164.869C100.015 166.267 98.916 167.198 97.4219 167.19C95.9102 167.198 94.7939 166.267 94.8027 164.869ZM103.311 175.873H104.98V167.928H107.406V166.522H104.98V160.123H103.311V175.873ZM121.416 161.319H113.471V162.69H119.772C119.755 163.683 119.702 164.957 119.359 166.698L121.012 166.856C121.398 164.817 121.398 163.252 121.416 162.198V161.319ZM112.521 168.209L112.68 169.563C115.457 169.554 119.219 169.492 122.506 168.912L122.4 167.699C120.818 167.928 119.078 168.051 117.391 168.121V164.852H115.738V168.174C114.587 168.2 113.488 168.209 112.521 168.209ZM114.912 175.539H125.617V174.186H116.582V170.881H114.912V175.539ZM123.402 171.953H125.107V166.539H127.27V165.133H125.107V160.123H123.402V171.953ZM135.707 161.231H128.799V162.567H134.02V164.694H128.834V169.668H129.994C132.982 169.668 134.661 169.624 136.709 169.264L136.533 167.91C134.688 168.227 133.132 168.306 130.504 168.315V165.977H135.707V161.231ZM130.979 175.487H141.789V174.115H132.648V170.864H130.979V175.487ZM136.727 167.594H139.662V171.725H141.332V160.141H139.662V162.707H136.727V164.043H139.662V166.223H136.727V167.594ZM152.934 165.168H146.904V162.479H152.793V161.125H145.234V166.522H148.205V168.578C146.667 168.622 145.173 168.64 143.828 168.649L144.057 169.985C147.019 169.993 150.701 169.897 154.059 169.44L153.936 168.209C152.644 168.35 151.255 168.447 149.857 168.517V166.522H152.934V165.168ZM146.43 175.539H157.311V174.186H148.1V171.092H146.43V175.539ZM155.148 171.936H156.818V160.123H155.148V171.936ZM175.979 160.123H174.309V175.908H175.979V167.594H178.51V166.223H175.979V160.123ZM164.377 171.989H165.643C168.569 171.997 170.661 171.918 173.131 171.479L172.92 170.073C170.67 170.477 168.692 170.591 166.047 170.6V162.989H171.742V161.635H164.377V171.989ZM193.873 162.356H191.641V160.123H189.971V169.422H191.641V167.119H193.873V165.731H191.641V163.727H193.873V162.356ZM179.512 164.781C179.494 166.979 181.287 168.517 183.695 168.526C186.112 168.517 187.879 166.979 187.896 164.781C187.879 162.567 186.112 161.037 183.695 161.037C181.287 161.037 179.494 162.567 179.512 164.781ZM181.146 164.781C181.129 163.393 182.219 162.435 183.695 162.444C185.172 162.435 186.253 163.393 186.262 164.781C186.253 166.179 185.172 167.102 183.695 167.119C182.219 167.102 181.129 166.179 181.146 164.781ZM181.27 172.85C181.27 174.731 183.309 175.847 186.561 175.838C189.777 175.847 191.781 174.731 191.781 172.85C191.781 170.96 189.777 169.853 186.561 169.844C183.309 169.853 181.27 170.96 181.27 172.85ZM182.939 172.85C182.931 171.795 184.284 171.189 186.561 171.198C188.819 171.189 190.155 171.795 190.146 172.85C190.155 173.922 188.819 174.511 186.561 174.502C184.284 174.511 182.931 173.922 182.939 172.85ZM207.197 160.141H205.527V171.918H207.197V166.592H209.482V165.203H207.197V160.141ZM194.84 163.323H204.227V161.969H200.377V160.123H198.707V161.969H194.84V163.323ZM195.701 167.049C195.692 168.833 197.248 169.993 199.533 170.002C201.792 169.993 203.348 168.833 203.348 167.049C203.348 165.247 201.792 164.07 199.533 164.078C197.248 164.07 195.692 165.247 195.701 167.049ZM197.213 175.539H207.865V174.186H198.883V170.987H197.213V175.539ZM197.318 167.049C197.301 166.012 198.197 165.37 199.533 165.362C200.869 165.37 201.766 166.012 201.783 167.049C201.766 168.077 200.869 168.71 199.533 168.701C198.197 168.71 197.301 168.077 197.318 167.049ZM227.904 160.123H226.234V164.131H223.299V165.502H226.234V169.492H227.904V160.123ZM214.773 168.069L215.652 169.405C217.533 168.71 218.913 167.295 219.599 165.537C220.284 167.093 221.585 168.359 223.352 168.965L224.213 167.647C221.831 166.838 220.407 164.896 220.416 162.901V162.567H223.791V161.213H215.301V162.567H218.711V162.918C218.72 165.089 217.217 167.216 214.773 168.069ZM217.305 172.903C217.296 174.775 219.317 175.865 222.631 175.873C225.927 175.865 227.948 174.775 227.957 172.903C227.948 171.031 225.927 169.941 222.631 169.932C219.317 169.941 217.296 171.031 217.305 172.903ZM218.957 172.903C218.948 171.83 220.319 171.224 222.631 171.233C224.925 171.224 226.296 171.83 226.305 172.903C226.296 173.966 224.925 174.573 222.631 174.555C220.319 174.573 218.948 173.966 218.957 172.903ZM244.744 172.533H238.328V169.299H243.039V161.196H241.387V163.903H233.652V161.196H231.982V169.299H236.676V172.533H230.33V173.922H244.744V172.533ZM233.652 167.946V165.256H241.387V167.946H233.652ZM260.283 167.348H245.869V168.631H260.283V167.348ZM247.574 170.934H256.855V172.094H247.592V175.68H259V174.502H249.262V173.201H258.508V169.739H247.574V170.934ZM247.68 161.705H256.803V162.83H247.715V166.311H258.736V165.133H249.367V163.938H258.473V160.528H247.68V161.705ZM278.213 160.123H276.543V168.086H278.213V164.799H280.498V163.41H278.213V160.123ZM266.084 164.184C266.066 166.249 267.833 167.699 270.215 167.699C272.605 167.699 274.346 166.249 274.346 164.184C274.346 162.101 272.605 160.677 270.215 160.668C267.833 160.677 266.066 162.101 266.084 164.184ZM267.701 164.184C267.692 162.901 268.765 162.031 270.215 162.039C271.665 162.031 272.729 162.901 272.729 164.184C272.729 165.467 271.665 166.364 270.215 166.364C268.765 166.364 267.692 165.467 267.701 164.184ZM268.035 170.108H276.561V171.549H268.07V175.68H278.758V174.344H269.705V172.797H278.213V168.807H268.035V170.108ZM294.508 160.123H292.855V163.639H289.867V165.01H292.855V167.928H289.779V169.317H292.855V175.908H294.508V160.123ZM281.939 162.865H287.283V165.942H281.975V172.27H283.17C285.657 172.27 287.67 172.199 290.131 171.813L289.99 170.442C287.749 170.767 285.868 170.872 283.645 170.881V167.26H288.918V161.512H281.939V162.865ZM309.713 167.594H300.396V162.901H309.572V161.53H298.744V168.965H309.713V167.594ZM296.951 173.799H311.365V172.41H296.951V173.799ZM325.621 160.123H323.969V163.639H320.98V165.01H323.969V167.928H320.893V169.317H323.969V175.908H325.621V160.123ZM313.053 162.865H318.396V165.942H313.088V172.27H314.283C316.771 172.27 318.783 172.199 321.244 171.813L321.104 170.442C318.862 170.767 316.981 170.872 314.758 170.881V167.26H320.031V161.512H313.053V162.865ZM342.479 172.516H339.033V168.367C340.299 167.656 341.055 166.539 341.055 165.151C341.055 162.672 338.62 161.046 335.236 161.037C331.861 161.046 329.427 162.672 329.436 165.151C329.427 166.566 330.218 167.691 331.51 168.403V172.516H328.064V173.905H342.479V172.516ZM331.053 165.151C331.053 163.454 332.767 162.373 335.236 162.373C337.688 162.373 339.429 163.454 339.438 165.151C339.429 166.838 337.688 167.937 335.236 167.946C332.767 167.937 331.053 166.838 331.053 165.151ZM333.162 172.516V169.018C333.795 169.167 334.498 169.246 335.236 169.246C335.992 169.246 336.704 169.167 337.346 169.018V172.516H333.162ZM346.521 161.653H344.465L344.623 170.705H346.363L346.521 161.653ZM344.254 173.254C344.245 173.94 344.816 174.493 345.502 174.502C346.179 174.493 346.741 173.94 346.75 173.254C346.741 172.569 346.179 172.006 345.502 172.006C344.816 172.006 344.245 172.569 344.254 173.254ZM73.9551 185.141H72.2852V194H73.9551V190.221H76.2402V188.867H73.9551V185.141ZM61.8262 189.729C61.8086 191.917 63.6016 193.429 66.0098 193.438C68.4268 193.429 70.1934 191.917 70.2109 189.729C70.1934 187.523 68.4268 186.002 66.0098 186.002C63.6016 186.002 61.8086 187.523 61.8262 189.729ZM63.4609 189.729C63.4434 188.323 64.5332 187.391 66.0098 187.408C67.4863 187.391 68.5674 188.323 68.5762 189.729C68.5674 191.117 67.4863 192.04 66.0098 192.049C64.5332 192.04 63.4434 191.117 63.4609 189.729ZM63.6367 200.627H74.5352V199.274H72.2324V196.127H74.3242V194.791H63.7598V196.127H65.9043V199.274H63.6367V200.627ZM67.5215 199.274V196.127H70.5977V199.274H67.5215ZM84.3086 186.073C81.0127 186.073 78.499 187.822 78.5078 190.467C78.499 193.13 81.0127 194.87 84.3086 194.862C87.6133 194.87 90.127 193.13 90.127 190.467C90.127 187.822 87.6133 186.073 84.3086 186.073ZM77.1367 198.834H91.5508V197.446H77.1367V198.834ZM80.1074 190.467C80.0986 188.639 81.8916 187.417 84.3086 187.426C86.7168 187.417 88.501 188.639 88.5098 190.467C88.501 192.304 86.7168 193.49 84.3086 193.49C81.8916 193.49 80.0986 192.304 80.1074 190.467ZM107.107 197.586H100.691V194.826H105.719V193.455H96.1035V191.153H105.35V186.231H94.416V187.602H103.697V189.817H94.4512V194.826H99.0391V197.586H92.6934V198.992H107.107V197.586ZM125.02 185.123H123.35V194.615H125.02V190.625H127.305V189.201H125.02V185.123ZM112.662 188.059H122.049V186.723H118.199V185H116.529V186.723H112.662V188.059ZM113.523 191.557C113.515 193.262 115.062 194.378 117.355 194.387C119.623 194.378 121.17 193.262 121.17 191.557C121.17 189.878 119.632 188.744 117.355 188.744C115.062 188.744 113.515 189.878 113.523 191.557ZM114.965 200.68H125.02V195.442H114.965V200.68ZM115.141 191.557C115.123 190.616 116.02 190.019 117.355 190.028C118.691 190.019 119.588 190.616 119.605 191.557C119.588 192.532 118.691 193.113 117.355 193.121C116.02 193.113 115.123 192.532 115.141 191.557ZM116.6 199.326V196.76H123.367V199.326H116.6ZM132.104 186.987H128.518V188.358H130.653C130.539 191.32 129.985 194.053 128.148 196.514L129.449 197.252C131.646 194.167 132.086 190.511 132.104 186.987ZM131.682 197.446L132.982 198.201C134.204 196.479 134.854 194.536 135.206 192.576H137.254V200.1H138.836V185.528H137.254V191.223H135.399C135.566 189.755 135.602 188.314 135.602 186.987H132.578V188.358H134.16C134.099 191.407 133.721 194.703 131.682 197.446ZM140.225 200.873H141.824V185.123H140.225V200.873ZM156.133 185.071H154.463V193.737H156.133V190.133H158.436V188.762H156.133V185.071ZM143.775 187.778H153.162V186.459H149.312V184.983H147.643V186.459H143.775V187.778ZM144.637 190.959C144.628 192.559 146.157 193.534 148.469 193.526C150.78 193.534 152.283 192.559 152.283 190.959C152.283 189.368 150.78 188.375 148.469 188.375C146.157 188.375 144.628 189.368 144.637 190.959ZM145.955 195.723H154.48V196.953H145.99V200.715H156.678V199.449H147.625V198.131H156.133V194.475H145.955V195.723ZM146.254 190.959C146.236 190.107 147.106 189.579 148.469 189.571C149.822 189.579 150.701 190.107 150.719 190.959C150.701 191.812 149.822 192.313 148.469 192.313C147.106 192.313 146.236 191.812 146.254 190.959ZM177.244 185.123H175.627V191.381H173.693V185.492H172.129V200.117H173.693V192.752H175.627V200.873H177.244V185.123ZM163.762 196.496L164.746 197.692C169.519 195.029 170.714 191.214 170.723 187.004H164.605V188.358H169.088C169.035 189.131 168.921 189.878 168.728 190.59L163.814 190.889L164.025 192.348L168.262 191.9C167.479 193.666 166.082 195.213 163.762 196.496ZM192.326 185.141H190.656V194.756H192.326V185.141ZM180.057 187.408H185.646V189.254H180.092V193.948H181.41C184.39 193.956 186.534 193.868 189.109 193.473L188.898 192.119C186.499 192.471 184.486 192.559 181.727 192.576V190.555H187.299V186.055H180.057V187.408ZM181.656 196.936H190.656V200.873H192.326V195.565H181.656V196.936ZM207.953 185.123H206.301V190.942H203.172V192.313H206.301V200.908H207.953V185.123ZM195.543 197.182H196.773C199.691 197.173 201.669 197.076 203.963 196.707L203.787 195.354C201.695 195.714 199.867 195.793 197.23 195.793V192.278H202.24V190.942H197.23V187.883H202.908V186.53H195.543V197.182ZM224.775 192.348H210.361V193.631H224.775V192.348ZM212.066 195.934H221.348V197.094H212.084V200.68H223.492V199.502H213.754V198.201H223V194.739H212.066V195.934ZM212.172 186.705H221.295V187.83H212.207V191.311H223.229V190.133H213.859V188.938H222.965V185.528H212.172V186.705ZM235.885 188.006V186.09H234.232V187.953C234.224 190.326 232.765 192.515 230.312 193.385L231.209 194.703C233.063 193.991 234.408 192.559 235.085 190.748C235.762 192.374 237.054 193.675 238.768 194.334L239.682 193.033C237.309 192.198 235.894 190.142 235.885 188.006ZM233.178 200.539H243.812V199.186H234.865V195.565H233.178V200.539ZM238.469 190.098H241.791V196.883H243.461V185.141H241.791V188.727H238.469V190.098ZM252.689 186.248H246.537V193.93H247.557C250.062 193.939 251.564 193.868 253.41 193.526L253.252 192.155C251.626 192.462 250.246 192.541 248.137 192.559V190.643H252.514V189.36H248.137V187.602H252.689V186.248ZM248.611 196.813H257.664V200.873H259.316V195.459H248.611V196.813ZM254.236 194.58H255.801V190.502H257.734V194.703H259.316V185.141H257.734V189.149H255.801V185.422H254.236V194.58ZM269.23 187.725H266.154V185.58H264.502V187.725H261.408V189.078H269.23V187.725ZM261.918 193.649C261.909 195.802 263.351 197.314 265.328 197.305C267.323 197.314 268.747 195.802 268.756 193.649C268.747 191.531 267.323 190.028 265.328 190.028C263.351 190.028 261.909 191.531 261.918 193.649ZM263.395 193.649C263.386 192.339 264.194 191.425 265.328 191.416C266.462 191.425 267.279 192.339 267.279 193.649C267.279 194.985 266.462 195.881 265.328 195.881C264.194 195.881 263.386 194.985 263.395 193.649ZM269.951 200.135H271.533V193.051H273.344V200.873H274.926V185.123H273.344V191.68H271.533V185.475H269.951V200.135ZM291.361 194H277V195.354H283.328V200.856H284.963V195.354H291.361V194ZM277.809 191.487L278.441 192.805C280.99 192.401 283.214 191.126 284.181 189.333C285.139 191.126 287.371 192.401 289.955 192.805L290.57 191.487C287.591 191.082 285.165 189.333 285.139 187.391H290.008V186.055H278.336V187.391H283.24C283.188 189.333 280.744 191.082 277.809 191.487ZM297.355 189.43V186.565H295.738V189.5C295.747 192.181 294.569 194.967 292.346 196.303L293.383 197.551C294.912 196.619 296.002 194.914 296.573 192.919C297.118 194.739 298.111 196.312 299.588 197.199L300.52 195.916C298.41 194.624 297.355 191.944 297.355 189.43ZM298.814 192.049H301.258V200.1H302.84V185.422H301.258V190.66H298.814V192.049ZM304.51 200.873H306.109V185.123H304.51V200.873ZM322.527 197.516H319.082V193.367C320.348 192.656 321.104 191.539 321.104 190.151C321.104 187.672 318.669 186.046 315.285 186.037C311.91 186.046 309.476 187.672 309.484 190.151C309.476 191.566 310.267 192.691 311.559 193.403V197.516H308.113V198.905H322.527V197.516ZM311.102 190.151C311.102 188.454 312.815 187.373 315.285 187.373C317.737 187.373 319.478 188.454 319.486 190.151C319.478 191.838 317.737 192.937 315.285 192.946C312.815 192.937 311.102 191.838 311.102 190.151ZM313.211 197.516V194.018C313.844 194.167 314.547 194.246 315.285 194.246C316.041 194.246 316.753 194.167 317.395 194.018V197.516H313.211ZM325.463 199.502C326.14 199.493 326.702 198.94 326.711 198.254C326.702 197.569 326.14 197.006 325.463 197.006C324.777 197.006 324.206 197.569 324.215 198.254C324.206 198.94 324.777 199.493 325.463 199.502Z" fill="#6662A8"/>
<defs>
<clipPath id="clip0_685_14360">
<rect width="178.423" height="248.712" fill="white" transform="translate(178.785 379.729)"/>
</clipPath>
</defs>
</svg>
