<svg width="414" height="896" viewBox="0 0 414 896" fill="none" xmlns="http://www.w3.org/2000/svg">
<rect width="414" height="896" fill="white"/>
<rect y="44" width="414" height="852" fill="#8666FF"/>
<rect width="414" height="44" fill="#8666FF"/>
<path d="M187.534 415.357C187.534 417.696 185.638 419.593 183.298 419.593C180.959 419.593 179.063 417.697 179.063 415.357V377.657C179.062 375.743 179.82 373.905 181.169 372.547C182.52 371.191 184.351 370.423 186.265 370.41L205.884 370.313H206.033C213.183 370.337 220.299 369.331 227.162 367.325C240.236 363.283 247.334 355.857 248.193 345.255C248.821 337.642 247.005 331.471 242.799 326.898C233.931 317.261 217.397 317.186 217.24 317.186C214.898 317.186 212.996 315.286 212.996 312.944C212.996 310.605 214.893 308.706 217.233 308.706C218.062 308.706 237.674 308.856 249.03 321.19C254.91 327.578 257.465 335.924 256.628 345.995C255.455 360.242 246.056 370.455 229.455 375.521C221.792 377.772 213.841 378.89 205.854 378.838L187.527 378.927L187.534 415.357Z" fill="white"/>
<path d="M189.165 331.814C185.821 331.814 182.552 330.823 179.771 328.965C176.991 327.106 174.824 324.465 173.544 321.376C172.265 318.286 171.93 314.886 172.583 311.606C173.236 308.326 174.847 305.314 177.213 302.949C179.578 300.585 182.591 298.975 185.871 298.324C189.151 297.672 192.551 298.008 195.64 299.289C198.73 300.57 201.37 302.738 203.227 305.52C205.084 308.301 206.074 311.57 206.072 314.915C206.066 319.396 204.283 323.692 201.113 326.861C197.944 330.029 193.647 331.811 189.165 331.814ZM189.165 306.487C187.499 306.489 185.87 306.984 184.485 307.911C183.1 308.838 182.021 310.155 181.384 311.695C180.748 313.235 180.582 314.929 180.908 316.563C181.234 318.198 182.037 319.699 183.216 320.876C184.395 322.054 185.897 322.856 187.531 323.181C189.166 323.505 190.86 323.338 192.399 322.7C193.939 322.062 195.255 320.982 196.18 319.596C197.106 318.21 197.6 316.581 197.6 314.915C197.6 312.678 196.711 310.532 195.129 308.95C193.548 307.368 191.402 306.48 189.165 306.48V306.487Z" fill="white"/>
<path d="M206.48 415.721V393.24C206.48 390.898 204.581 389 202.24 389C199.898 389 198 390.898 198 393.24V415.721C198 418.062 199.898 419.96 202.24 419.96C204.581 419.96 206.48 418.062 206.48 415.721Z" fill="white"/>
<path d="M159.762 470.281H143.953C142.296 470.281 140.953 471.624 140.953 473.28C140.953 474.937 142.296 476.28 143.953 476.28H159.762C161.418 476.28 162.761 474.937 162.761 473.28C162.761 471.624 161.418 470.281 159.762 470.281Z" fill="white"/>
<path d="M162.753 489.089V438.614C162.753 436.957 161.41 435.615 159.754 435.615C158.097 435.615 156.754 436.957 156.754 438.614V489.089C156.754 490.746 158.097 492.089 159.754 492.089C161.41 492.089 162.753 490.746 162.753 489.089Z" fill="white"/>
<path d="M252.777 441.27H224.312C222.655 441.27 221.312 442.613 221.312 444.27C221.312 445.926 222.655 447.269 224.312 447.269H252.777C254.434 447.269 255.777 445.926 255.777 444.27C255.777 442.613 254.434 441.27 252.777 441.27Z" fill="white"/>
<path d="M210.431 479.478H173.351C171.695 479.478 170.352 480.821 170.352 482.477C170.352 484.134 171.695 485.477 173.351 485.477H210.431C212.087 485.477 213.43 484.134 213.43 482.477C213.43 480.821 212.087 479.478 210.431 479.478Z" fill="white"/>
<path d="M302.993 479.478H265.914C264.257 479.478 262.914 480.821 262.914 482.477C262.914 484.134 264.257 485.477 265.914 485.477H302.993C304.65 485.477 305.993 484.134 305.993 482.477C305.993 480.821 304.65 479.478 302.993 479.478Z" fill="white"/>
<path d="M257.904 494.263H204.679C203.023 494.263 201.68 495.606 201.68 497.263C201.68 498.919 203.023 500.262 204.679 500.262H257.904C259.561 500.262 260.904 498.919 260.904 497.263C260.904 495.606 259.561 494.263 257.904 494.263Z" fill="white"/>
<path d="M248.636 465.129V452.017C248.636 450.361 247.293 449.018 245.636 449.018C243.98 449.018 242.637 450.361 242.637 452.017V465.129C242.637 466.786 243.98 468.129 245.636 468.129C247.293 468.129 248.636 466.786 248.636 465.129Z" fill="white"/>
<path d="M234.925 465.129V452.017C234.925 450.361 233.582 449.018 231.925 449.018C230.269 449.018 228.926 450.361 228.926 452.017V465.129C228.926 466.786 230.269 468.129 231.925 468.129C233.582 468.129 234.925 466.786 234.925 465.129Z" fill="white"/>
<path d="M139.949 458.618H111.484C109.827 458.618 108.484 459.961 108.484 461.618C108.484 463.275 109.827 464.617 111.484 464.617H139.949C141.606 464.617 142.949 463.275 142.949 461.618C142.949 459.961 141.606 458.618 139.949 458.618Z" fill="white"/>
<path d="M135.816 482.477V469.365C135.816 467.709 134.473 466.366 132.816 466.366C131.159 466.366 129.816 467.709 129.816 469.365V482.477C129.816 484.134 131.159 485.477 132.816 485.477C134.473 485.477 135.816 484.134 135.816 482.477Z" fill="white"/>
<path d="M122.097 482.477V469.365C122.097 467.709 120.754 466.366 119.097 466.366C117.441 466.366 116.098 467.709 116.098 469.365V482.477C116.098 484.134 117.441 485.477 119.097 485.477C120.754 485.477 122.097 484.134 122.097 482.477Z" fill="white"/>
<path d="M242.382 495.148V477.516C242.382 475.86 241.039 474.517 239.382 474.517C237.726 474.517 236.383 475.86 236.383 477.516V495.148C236.383 496.805 237.726 498.148 239.382 498.148C241.039 498.148 242.382 496.805 242.382 495.148Z" fill="white"/>
<path d="M182.53 470.078C181.339 471.229 179.438 471.196 178.287 470.003C177.136 468.812 177.169 466.912 178.36 465.761L195.919 448.801H180.443C178.786 448.801 177.443 447.458 177.443 445.801C177.443 444.145 178.786 442.802 180.443 442.802H201.315C202.538 442.802 203.638 443.544 204.097 444.677L204.664 446.081C205.123 447.215 204.847 448.513 203.968 449.363L182.53 470.078Z" fill="white"/>
<path d="M204.699 465.922L195.957 454.861C194.93 453.561 193.044 453.341 191.744 454.368C190.444 455.395 190.223 457.281 191.251 458.581L199.992 469.642C201.019 470.942 202.906 471.163 204.205 470.135C205.505 469.108 205.726 467.222 204.699 465.922Z" fill="white"/>
<path d="M275.089 470.078C273.897 471.23 271.997 471.196 270.846 470.004C269.695 468.812 269.727 466.912 270.919 465.761L288.478 448.801H273.009C271.352 448.801 270.009 447.458 270.009 445.801C270.009 444.145 271.352 442.802 273.009 442.802H293.881C295.104 442.802 296.204 443.544 296.663 444.677L297.23 446.081C297.689 447.215 297.413 448.513 296.533 449.363L275.089 470.078Z" fill="white"/>
<path d="M297.258 465.923L288.516 454.862C287.489 453.563 285.602 453.342 284.303 454.369C283.003 455.396 282.782 457.283 283.809 458.582L292.551 469.643C293.578 470.943 295.464 471.164 296.764 470.137C298.064 469.109 298.285 467.223 297.258 465.923Z" fill="white"/>
<path d="M252.777 464.603H224.312C222.655 464.603 221.312 465.946 221.312 467.602C221.312 469.259 222.655 470.602 224.312 470.602H252.777C254.434 470.602 255.777 469.259 255.777 467.602C255.777 465.946 254.434 464.603 252.777 464.603Z" fill="white"/>
<path d="M139.949 481.951H111.484C109.827 481.951 108.484 483.294 108.484 484.95C108.484 486.607 109.827 487.95 111.484 487.95H139.949C141.606 487.95 142.949 486.607 142.949 484.95C142.949 483.294 141.606 481.951 139.949 481.951Z" fill="white"/>
</svg>
