<svg width="162" height="45" viewBox="0 0 162 45" fill="none" xmlns="http://www.w3.org/2000/svg">
<path d="M4.31809 17.4515C5.86295 7.74093 14.2371 0.59375 24.0697 0.59375H138.344C148.431 0.59375 156.939 8.10448 158.19 18.1131L161.5 44.5938H0L4.31809 17.4515Z" fill="#FAF8FF"/>
<path d="M51.7383 23.7773H44.8633V22.6836H50V20.7695H40.0195V19.7539H49.4336V17.957H40.0195V16.9609H49.8438V15.0469H37.5195V22.6836H42.3633V23.7773H35.4883V25.7305H51.7383V23.7773ZM37.3828 29.4609C37.3828 31.375 39.6289 32.4004 43.6133 32.3906C47.5293 32.4004 49.7852 31.375 49.8047 29.4609C49.7852 27.5859 47.5293 26.5312 43.6133 26.5508C39.6289 26.5312 37.3828 27.5859 37.3828 29.4609ZM39.8828 29.4609C39.8633 28.7188 41.0547 28.377 43.6133 28.3867C46.1133 28.377 47.2949 28.7188 47.3047 29.4609C47.2949 30.2227 46.1133 30.5547 43.6133 30.5547C41.0547 30.5547 39.8633 30.2227 39.8828 29.4609ZM69.0234 22.8008H52.8125V24.8125H69.0234V22.8008ZM53.5352 20.2031L54.3555 22.1562C57.7246 21.834 59.9609 20.5645 60.8984 18.8457C61.8457 20.5645 64.1016 21.834 67.4609 22.1562L68.3398 20.2031C64.9219 19.9004 63.1055 18.6699 62.7051 17.4297H67.5586V15.4375H54.2969V17.4297H59.1113C58.7012 18.6797 56.875 19.9004 53.5352 20.2031ZM54.668 29.1094C54.668 31.209 57.0117 32.4004 60.8984 32.3906C64.7559 32.4004 67.0703 31.209 67.0898 29.1094C67.0703 27.0195 64.7559 25.8086 60.8984 25.8086C57.0117 25.8086 54.668 27.0195 54.668 29.1094ZM57.207 29.1094C57.1973 28.1816 58.4375 27.7422 60.8984 27.7422C63.3105 27.7422 64.5801 28.1816 64.5898 29.1094C64.5801 30.0273 63.3105 30.457 60.8984 30.457C58.4375 30.457 57.1973 30.0273 57.207 29.1094ZM89.6094 14.6172H87.1289V32.4297H89.6094V14.6172ZM75.6445 18.1133H81.5625V20.9844H75.6641V28.2695H77.2656C80.5078 28.2695 83.1543 28.1621 86.0742 27.6445L85.8594 25.6328C83.252 26.0625 80.957 26.1992 78.2422 26.2188V22.957H84.1016V16.1016H75.6445V18.1133ZM108.262 28.3281H101.309V25.125H106.816V23.1719H104.395V18.0938H106.895V16.1016H93.2617V18.0938H95.7227V23.1719H93.3398V25.125H98.8281V28.3281H91.9922V30.418H108.262V28.3281ZM98.2227 23.1719V18.0938H101.934V23.1719H98.2227ZM123.77 23.7969H113.73V21.7656H123.223V19.8125H113.73V17.9375H123.633V15.9258H111.191V25.7695H123.77V23.7969ZM109.277 30.3203H125.547V28.2891H109.277V30.3203Z" fill="#8666FF"/>
</svg>
