<svg width="162" height="44" viewBox="0 0 162 44" fill="none" xmlns="http://www.w3.org/2000/svg">
<path d="M4.31809 16.8577C5.86295 7.14718 14.2371 0 24.0697 0H138.344C148.431 0 156.939 7.51073 158.19 17.5193L161.5 44H0L4.31809 16.8577Z" fill="#F3EFFF"/>
<path d="M51.7383 23.1836H44.8633V22.0898H50V20.1758H40.0195V19.1602H49.4336V17.3633H40.0195V16.3672H49.8438V14.4531H37.5195V22.0898H42.3633V23.1836H35.4883V25.1367H51.7383V23.1836ZM37.3828 28.8672C37.3828 30.7812 39.6289 31.8066 43.6133 31.7969C47.5293 31.8066 49.7852 30.7812 49.8047 28.8672C49.7852 26.9922 47.5293 25.9375 43.6133 25.957C39.6289 25.9375 37.3828 26.9922 37.3828 28.8672ZM39.8828 28.8672C39.8633 28.125 41.0547 27.7832 43.6133 27.793C46.1133 27.7832 47.2949 28.125 47.3047 28.8672C47.2949 29.6289 46.1133 29.9609 43.6133 29.9609C41.0547 29.9609 39.8633 29.6289 39.8828 28.8672ZM69.0234 22.207H52.8125V24.2188H69.0234V22.207ZM53.5352 19.6094L54.3555 21.5625C57.7246 21.2402 59.9609 19.9707 60.8984 18.252C61.8457 19.9707 64.1016 21.2402 67.4609 21.5625L68.3398 19.6094C64.9219 19.3066 63.1055 18.0762 62.7051 16.8359H67.5586V14.8438H54.2969V16.8359H59.1113C58.7012 18.0859 56.875 19.3066 53.5352 19.6094ZM54.668 28.5156C54.668 30.6152 57.0117 31.8066 60.8984 31.7969C64.7559 31.8066 67.0703 30.6152 67.0898 28.5156C67.0703 26.4258 64.7559 25.2148 60.8984 25.2148C57.0117 25.2148 54.668 26.4258 54.668 28.5156ZM57.207 28.5156C57.1973 27.5879 58.4375 27.1484 60.8984 27.1484C63.3105 27.1484 64.5801 27.5879 64.5898 28.5156C64.5801 29.4336 63.3105 29.8633 60.8984 29.8633C58.4375 29.8633 57.1973 29.4336 57.207 28.5156ZM89.6094 14.0234H87.1289V31.8359H89.6094V14.0234ZM75.6445 17.5195H81.5625V20.3906H75.6641V27.6758H77.2656C80.5078 27.6758 83.1543 27.5684 86.0742 27.0508L85.8594 25.0391C83.252 25.4688 80.957 25.6055 78.2422 25.625V22.3633H84.1016V15.5078H75.6445V17.5195ZM108.262 27.7344H101.309V24.5312H106.816V22.5781H104.395V17.5H106.895V15.5078H93.2617V17.5H95.7227V22.5781H93.3398V24.5312H98.8281V27.7344H91.9922V29.8242H108.262V27.7344ZM98.2227 22.5781V17.5H101.934V22.5781H98.2227ZM123.77 23.2031H113.73V21.1719H123.223V19.2188H113.73V17.3438H123.633V15.332H111.191V25.1758H123.77V23.2031ZM109.277 29.7266H125.547V27.6953H109.277V29.7266Z" fill="#8666FF"/>
</svg>
