<svg width="414" height="896" viewBox="0 0 414 896" fill="none" xmlns="http://www.w3.org/2000/svg">
<rect width="414" height="896" fill="white"/>
<path d="M121.149 98.1387H112.212V96.7168H118.89V94.2285H105.915V92.9082H118.153V90.5723H105.915V89.2773H118.687V86.7891H102.665V96.7168H108.962V98.1387H100.024V100.678H121.149V98.1387ZM102.487 105.527C102.487 108.016 105.407 109.349 110.587 109.336C115.678 109.349 118.61 108.016 118.636 105.527C118.61 103.09 115.678 101.719 110.587 101.744C105.407 101.719 102.487 103.09 102.487 105.527ZM105.737 105.527C105.712 104.562 107.261 104.118 110.587 104.131C113.837 104.118 115.373 104.562 115.386 105.527C115.373 106.518 113.837 106.949 110.587 106.949C107.261 106.949 105.712 106.518 105.737 105.527ZM143.62 96.8691H122.546V99.4844H143.62V96.8691ZM123.485 93.4922L124.552 96.0312C128.932 95.6123 131.839 93.9619 133.058 91.7275C134.289 93.9619 137.222 95.6123 141.589 96.0312L142.731 93.4922C138.288 93.0986 135.927 91.499 135.406 89.8867H141.716V87.2969H124.476V89.8867H130.734C130.201 91.5117 127.827 93.0986 123.485 93.4922ZM124.958 105.07C124.958 107.8 128.005 109.349 133.058 109.336C138.072 109.349 141.081 107.8 141.106 105.07C141.081 102.354 138.072 100.779 133.058 100.779C128.005 100.779 124.958 102.354 124.958 105.07ZM128.259 105.07C128.246 103.864 129.858 103.293 133.058 103.293C136.193 103.293 137.844 103.864 137.856 105.07C137.844 106.264 136.193 106.822 133.058 106.822C129.858 106.822 128.246 106.264 128.259 105.07ZM170.433 86.2305H167.157V109.336H170.433V86.2305ZM151.085 102.785L152.786 105.375C161.038 101.478 163.488 95.6504 163.501 88.6426H152.329V91.1816H160.2C159.68 96.3105 157.052 99.9668 151.085 102.785ZM194.604 98.6211H185.642V96.9453H192.472V94.457H179.319V92.9336H192.04V86.6621H176.044V89.1758H188.79V90.5977H176.095V96.9453H182.417V98.6211H173.454V101.211H194.604V98.6211ZM175.815 105.07H188.892V109.234H192.167V102.531H175.815V105.07ZM221.29 86.2305H218.04V98.6465H221.29V86.2305ZM202.298 92.6797C202.298 95.8281 205.015 98.0879 208.62 98.0879C212.213 98.0879 214.93 95.8281 214.942 92.6797C214.93 89.4297 212.213 87.1699 208.62 87.1953C205.015 87.1699 202.298 89.4297 202.298 92.6797ZM205.472 92.6797C205.446 90.9404 206.767 89.874 208.62 89.8867C210.423 89.874 211.73 90.9404 211.743 92.6797C211.73 94.3936 210.423 95.4219 208.62 95.4219C206.767 95.4219 205.446 94.3936 205.472 92.6797ZM205.827 109.082H221.29V99.6621H218.065V101.82H209.026V99.6621H205.827V109.082ZM209.026 106.467V104.334H218.065V106.467H209.026ZM235.509 87.5762H225.276V90.1152H232.259V92.375H225.327V99.8398H227.054C231.522 99.8271 233.947 99.7637 236.651 99.2812L236.347 96.6914C234.011 97.1357 231.954 97.25 228.526 97.25V94.7871H235.509V87.5762ZM227.968 104.105H240.663V109.336H243.888V101.516H227.968V104.105ZM236.829 96.9199H240.663V100.475H243.888V86.2559H240.663V89.4551H236.829V92.0195H240.663V94.3555H236.829V96.9199ZM258.03 89.7598H254.069V86.8652H250.87V89.7598H246.858V92.3242H258.03V89.7598ZM247.392 98.8496C247.392 102.074 249.55 104.359 252.495 104.359C255.453 104.359 257.561 102.074 257.573 98.8496C257.561 95.6377 255.453 93.3779 252.495 93.3652C249.55 93.3779 247.392 95.6377 247.392 98.8496ZM250.235 98.8496C250.235 97.1104 251.149 96.0566 252.495 96.0566C253.79 96.0566 254.717 97.1104 254.729 98.8496C254.717 100.614 253.79 101.617 252.495 101.617C251.149 101.617 250.235 100.614 250.235 98.8496ZM258.894 108.346H261.915V98.2148H263.794V109.336H266.866V86.2305H263.794V95.625H261.915V86.6875H258.894V108.346ZM290.505 104.004H281.491V99.7383H288.144V87.7031H284.919V91.2832H274.839V87.7031H271.589V99.7383H278.267V104.004H269.354V106.645H290.505V104.004ZM274.839 97.1484V93.873H284.919V97.1484H274.839ZM311.249 86.2305H307.974V109.336H311.249V86.2305ZM291.901 102.785L293.603 105.375C301.854 101.478 304.305 95.6504 304.317 88.6426H293.146V91.1816H301.017C300.496 96.3105 297.868 99.9668 291.901 102.785Z" fill="#8666FF"/>
<path d="M76.7461 131.762H75.0586V142.467H71.5781V143.732H75.0586V147.494H76.7461V131.762ZM63.5098 139.953L63.7383 141.342C64.9512 141.342 66.3223 141.324 67.7637 141.271V147.002H69.4336V141.192C70.9453 141.096 72.501 140.938 74.0039 140.674L73.916 139.443C70.4619 139.927 66.498 139.936 63.5098 139.953ZM64.6699 135.629C64.6787 137.527 66.3311 138.749 68.6953 138.758C71.0244 138.749 72.6855 137.527 72.6855 135.629C72.6855 133.766 71.0244 132.482 68.6953 132.482C66.3311 132.482 64.6787 133.766 64.6699 135.629ZM66.252 135.629C66.2432 134.521 67.2451 133.774 68.6953 133.766C70.1016 133.774 71.0947 134.521 71.1035 135.629C71.0947 136.754 70.0928 137.483 68.6953 137.475C67.2451 137.483 66.2432 136.754 66.252 135.629ZM92.1797 131.744H90.5098V147.494H92.1797V131.744ZM79.3652 143.188L80.2969 144.471C82.125 143.645 83.5576 141.896 84.2695 139.786C84.999 141.772 86.4404 143.416 88.2598 144.207L89.1738 142.924C86.7217 141.887 85.0693 139.32 85.0605 136.807V135.77H88.5938V134.434H85.0605V132.061H83.4082V134.434H79.8398V135.77H83.4258V136.807C83.417 139.443 81.7998 142.098 79.3652 143.188ZM108.246 131.744H106.646V147.494H108.246V131.744ZM94.8691 138.547C94.8691 141.966 96.2051 144.11 98.2617 144.102C100.213 144.11 101.522 142.203 101.672 139.127H103.447V146.721H105.047V132.043H103.447V137.773H101.663C101.47 134.82 100.178 133.001 98.2617 133.01C96.2051 133.001 94.8691 135.137 94.8691 138.547ZM96.416 138.547C96.416 136.033 97.1279 134.565 98.2617 134.574C99.4219 134.565 100.143 136.033 100.143 138.547C100.143 141.052 99.4219 142.528 98.2617 142.52C97.1279 142.528 96.416 141.052 96.416 138.547ZM115.928 135.752V133.062H114.24V135.752C114.231 138.67 112.605 141.702 110.162 142.871L111.217 144.225C113.036 143.284 114.407 141.368 115.102 139.101C115.796 141.254 117.149 143.029 118.934 143.926L119.953 142.59C117.545 141.509 115.928 138.635 115.928 135.752ZM118.213 138.336H121.729V147.529H123.381V131.744H121.729V136.982H118.213V138.336ZM136.037 134.574V134.135H139.5V132.781H130.816V134.135H134.35V134.574C134.341 136.71 132.829 138.767 130.377 139.619L131.238 140.902C133.11 140.243 134.508 138.89 135.22 137.185C135.932 138.767 137.303 140.006 139.113 140.604L139.975 139.303C137.54 138.538 136.037 136.596 136.037 134.574ZM132.592 143.398H141.592V147.494H143.262V142.045H132.592V143.398ZM141.592 141.254H143.262V131.744H141.592V141.254ZM158.871 131.744H157.219V135.471H154.266V136.842H157.219V140.322H158.871V131.744ZM145.775 139.268L146.637 140.586C148.509 139.927 149.889 138.538 150.574 136.807C151.26 138.354 152.561 139.602 154.336 140.234L155.197 138.934C152.815 138.134 151.392 136.156 151.4 134.205V133.977H154.775V132.623H146.285V133.977H149.695V134.188C149.704 136.358 148.192 138.424 145.775 139.268ZM148.623 147.301H158.871V141.025H157.219V142.836H150.275V141.025H148.623V147.301ZM150.275 145.947V144.137H157.219V145.947H150.275ZM180.07 140.023H173.707V138.652H178.418V137.352H169.242V136.016H177.908V134.768H169.242V133.484H178.312V132.166H167.555V138.652H172.037V140.023H165.674V141.342H180.07V140.023ZM167.414 144.928C167.414 146.589 169.374 147.468 172.881 147.459C176.335 147.468 178.304 146.589 178.312 144.928C178.304 143.275 176.335 142.37 172.881 142.379C169.374 142.37 167.414 143.275 167.414 144.928ZM169.084 144.928C169.075 144.075 170.394 143.627 172.881 143.627C175.333 143.627 176.643 144.075 176.643 144.928C176.643 145.78 175.333 146.211 172.881 146.193C170.394 146.211 169.075 145.78 169.084 144.928ZM195.627 139.162H181.266V140.516H195.627V139.162ZM182.021 137.018L182.602 138.336C185.335 138.02 187.576 136.868 188.446 135.207C189.299 136.868 191.558 138.02 194.291 138.336L194.889 137.018C191.971 136.71 189.747 135.418 189.554 133.889H194.344V132.518H182.584V133.889H187.321C187.137 135.427 184.878 136.71 182.021 137.018ZM182.971 144.611C182.971 146.439 185.019 147.468 188.438 147.459C191.83 147.468 193.86 146.439 193.869 144.611C193.86 142.783 191.83 141.729 188.438 141.729C185.019 141.729 182.971 142.783 182.971 144.611ZM184.658 144.611C184.649 143.592 186.029 143.047 188.438 143.029C190.811 143.047 192.199 143.592 192.199 144.611C192.199 145.604 190.811 146.149 188.438 146.141C186.029 146.149 184.649 145.604 184.658 144.611ZM214.312 131.744H212.625V147.494H214.312V131.744ZM201.375 143.275L202.254 144.629C207.659 142.036 209.619 138.046 209.619 133.432H202.131V134.768H207.932C207.606 138.441 205.559 141.28 201.375 143.275ZM231.17 140.34H224.789V138.846H229.676V137.545H220.254V136.068H229.359V132.113H218.566V133.432H227.689V134.838H218.602V138.846H223.137V140.34H216.756V141.693H231.17V140.34ZM218.373 144.137H227.76V147.371H229.447V142.801H218.373V144.137ZM239.502 132.008C235.951 131.999 233.868 132.957 233.877 134.715C233.868 136.481 235.951 137.439 239.502 137.439C243.053 137.439 245.118 136.481 245.127 134.715C245.118 132.957 243.053 131.999 239.502 132.008ZM232.33 139.742H246.691V138.406H232.33V139.742ZM234.053 142.203H243.229V143.434H234.07V147.336H245.32V146.053H235.705V144.646H244.881V140.955H234.053V142.203ZM235.617 134.715C235.608 133.783 236.997 133.238 239.502 133.238C242.024 133.238 243.413 133.783 243.404 134.715C243.413 135.69 242.024 136.191 239.502 136.191C236.997 136.191 235.608 135.69 235.617 134.715ZM265.342 131.744H263.672V140.199H265.342V131.744ZM252.598 136.121C252.606 138.274 254.382 139.777 256.799 139.76C259.207 139.777 260.982 138.274 260.982 136.121C260.982 133.959 259.207 132.456 256.799 132.465C254.382 132.456 252.606 133.959 252.598 136.121ZM254.232 136.121C254.224 134.776 255.305 133.862 256.799 133.871C258.275 133.862 259.348 134.776 259.348 136.121C259.348 137.483 258.275 138.389 256.799 138.389C255.305 138.389 254.224 137.483 254.232 136.121ZM255.041 147.301H265.342V140.955H263.689V142.73H256.676V140.955H255.041V147.301ZM256.676 145.93V144.049H263.689V145.93H256.676ZM275.344 132.693H268.471V134.029H273.674V136.016H268.488V140.814H269.631C272.769 140.806 274.386 140.753 276.311 140.428L276.152 139.074C274.377 139.399 272.883 139.461 270.141 139.461V137.281H275.344V132.693ZM270.281 143.592H279.299V147.512H280.969V142.238H270.281V143.592ZM276.346 138.67H279.299V141.447H280.969V131.762H279.299V134.047H276.346V135.383H279.299V137.334H276.346V138.67ZM291.182 134.346H288.105V132.201H286.453V134.346H283.359V135.699H291.182V134.346ZM283.869 140.27C283.86 142.423 285.302 143.935 287.279 143.926C289.274 143.935 290.698 142.423 290.707 140.27C290.698 138.151 289.274 136.648 287.279 136.648C285.302 136.648 283.86 138.151 283.869 140.27ZM285.346 140.27C285.337 138.96 286.146 138.046 287.279 138.037C288.413 138.046 289.23 138.96 289.23 140.27C289.23 141.605 288.413 142.502 287.279 142.502C286.146 142.502 285.337 141.605 285.346 140.27ZM291.902 146.756H293.484V139.672H295.295V147.494H296.877V131.744H295.295V138.301H293.484V132.096H291.902V146.756ZM313.365 144.154H306.949V140.92H311.66V132.816H310.008V135.523H302.273V132.816H300.604V140.92H305.297V144.154H298.951V145.543H313.365V144.154ZM302.273 139.566V136.877H310.008V139.566H302.273ZM319.307 136.051V133.186H317.689V136.121C317.698 138.802 316.521 141.588 314.297 142.924L315.334 144.172C316.863 143.24 317.953 141.535 318.524 139.54C319.069 141.359 320.062 142.933 321.539 143.82L322.471 142.537C320.361 141.245 319.307 138.564 319.307 136.051ZM320.766 138.67H323.209V146.721H324.791V132.043H323.209V137.281H320.766V138.67ZM326.461 147.494H328.061V131.744H326.461V147.494ZM344.479 144.137H341.033V139.988C342.299 139.276 343.055 138.16 343.055 136.771C343.055 134.293 340.62 132.667 337.236 132.658C333.861 132.667 331.427 134.293 331.436 136.771C331.427 138.187 332.218 139.312 333.51 140.023V144.137H330.064V145.525H344.479V144.137ZM333.053 136.771C333.053 135.075 334.767 133.994 337.236 133.994C339.688 133.994 341.429 135.075 341.438 136.771C341.429 138.459 339.688 139.558 337.236 139.566C334.767 139.558 333.053 138.459 333.053 136.771ZM335.162 144.137V140.639C335.795 140.788 336.498 140.867 337.236 140.867C337.992 140.867 338.704 140.788 339.346 140.639V144.137H335.162ZM347.414 146.123C348.091 146.114 348.653 145.561 348.662 144.875C348.653 144.189 348.091 143.627 347.414 143.627C346.729 143.627 346.157 144.189 346.166 144.875C346.157 145.561 346.729 146.114 347.414 146.123Z" fill="#6662A8"/>
<path d="M77.6211 323.352H72.6719V322.285H76.3359V321.273H69.1992V320.234H75.9395V319.264H69.1992V318.266H76.2539V317.24H67.8867V322.285H71.373V323.352H66.4238V324.377H77.6211V323.352ZM67.7773 327.166C67.7773 328.458 69.3018 329.142 72.0293 329.135C74.7158 329.142 76.2471 328.458 76.2539 327.166C76.2471 325.881 74.7158 325.177 72.0293 325.184C69.3018 325.177 67.7773 325.881 67.7773 327.166ZM69.0762 327.166C69.0693 326.503 70.0947 326.154 72.0293 326.154C73.9365 326.154 74.9551 326.503 74.9551 327.166C74.9551 327.829 73.9365 328.164 72.0293 328.15C70.0947 328.164 69.0693 327.829 69.0762 327.166ZM89.7207 322.682H78.5508V323.734H89.7207V322.682ZM79.1387 321.014L79.5898 322.039C81.7158 321.793 83.459 320.897 84.1357 319.605C84.7988 320.897 86.5557 321.793 88.6816 322.039L89.1465 321.014C86.877 320.774 85.1475 319.77 84.9971 318.58H88.7227V317.514H79.5762V318.58H83.2607C83.1172 319.776 81.3604 320.774 79.1387 321.014ZM79.877 326.92C79.877 328.342 81.4697 329.142 84.1289 329.135C86.7676 329.142 88.3467 328.342 88.3535 326.92C88.3467 325.498 86.7676 324.678 84.1289 324.678C81.4697 324.678 79.877 325.498 79.877 326.92ZM81.1895 326.92C81.1826 326.127 82.2559 325.703 84.1289 325.689C85.9746 325.703 87.0547 326.127 87.0547 326.92C87.0547 327.692 85.9746 328.116 84.1289 328.109C82.2559 328.116 81.1826 327.692 81.1895 326.92ZM105.266 324.117H94.0547V325.143H98.9902V329.162H100.262V325.143H105.266V324.117ZM95.4492 322.723H103.857V317.404H102.559V319.004H96.7344V317.404H95.4492V322.723ZM96.7344 321.684V320.043H102.559V321.684H96.7344ZM110.188 317.473C108.349 317.466 107.022 318.498 107.029 320.016C107.022 321.52 108.349 322.559 110.188 322.545C112.033 322.559 113.366 321.52 113.373 320.016C113.366 318.498 112.033 317.466 110.188 317.473ZM106.154 323.502L106.332 324.582C107.303 324.575 108.424 324.568 109.613 324.514V328.779H110.912V324.438C112.04 324.363 113.195 324.233 114.316 324.021L114.221 323.051C111.541 323.454 108.417 323.502 106.154 323.502ZM108.287 320.016C108.273 319.12 109.073 318.519 110.188 318.525C111.329 318.519 112.129 319.12 112.129 320.016C112.129 320.904 111.329 321.492 110.188 321.479C109.073 321.492 108.273 320.904 108.287 320.016ZM115.068 329.162H116.354V316.926H115.068V329.162ZM128.18 320.494H121.029V317.35H119.744V321.533H128.18V320.494ZM118.254 324.117H129.465V323.078H118.254V324.117ZM119.648 328.875H128.262V327.809H120.947V325.279H119.648V328.875ZM137.107 317.828C135.282 317.835 133.99 319.503 134.004 322.121C133.99 324.767 135.282 326.435 137.107 326.428C138.29 326.435 139.247 325.717 139.773 324.486H142.713V329.189H143.998V316.912H142.713V319.578H139.685C139.145 318.471 138.229 317.835 137.107 317.828ZM135.234 322.121C135.241 320.2 136 318.997 137.107 318.99C138.215 318.997 138.974 320.2 138.98 322.121C138.974 324.069 138.215 325.266 137.107 325.266C136 325.266 135.241 324.069 135.234 322.121ZM140.054 320.645H142.713V323.42H140.088C140.17 323.017 140.211 322.586 140.211 322.121C140.211 321.588 140.149 321.096 140.054 320.645ZM156.084 316.912H154.799V321.52H152.557V322.6H154.799V329.189H156.084V316.912ZM146.309 319.072H150.574V321.342H146.336V326.277H147.307C149.467 326.264 151.08 326.188 152.912 325.867L152.803 324.801C151.094 325.108 149.59 325.17 147.635 325.184V322.395H151.832V318.02H146.309V319.072ZM172.6 324.117H161.389V325.143H166.324V329.162H167.596V325.143H172.6V324.117ZM162.783 322.723H171.191V317.404H169.893V319.004H164.068V317.404H162.783V322.723ZM164.068 321.684V320.043H169.893V321.684H164.068ZM184.699 323.324H173.488V324.363H178.547V326.619H179.832V324.363H184.699V323.324ZM174.883 328.902H183.455V327.85H176.168V325.553H174.883V328.902ZM174.965 322.244H183.223V317.295H181.924V318.785H176.25V317.295H174.965V322.244ZM176.25 321.205V319.756H181.924V321.205H176.25ZM191.18 317.117C188.418 317.11 186.798 317.855 186.805 319.223C186.798 320.597 188.418 321.342 191.18 321.342C193.941 321.342 195.548 320.597 195.555 319.223C195.548 317.855 193.941 317.11 191.18 317.117ZM185.602 323.133H196.771V322.094H185.602V323.133ZM186.941 325.047H194.078V326.004H186.955V329.039H195.705V328.041H188.227V326.947H195.363V324.076H186.941V325.047ZM188.158 319.223C188.151 318.498 189.231 318.074 191.18 318.074C193.142 318.074 194.222 318.498 194.215 319.223C194.222 319.981 193.142 320.371 191.18 320.371C189.231 320.371 188.151 319.981 188.158 319.223ZM212.303 322.873H207.34V321.574H211.004V320.535H203.799V318.498H210.922V317.473H202.514V321.574H206.082V322.873H201.119V323.912H212.303V322.873ZM202.445 326.934C202.445 328.355 204.038 329.155 206.697 329.162C209.336 329.155 210.915 328.355 210.922 326.934C210.915 325.512 209.336 324.712 206.697 324.705C204.038 324.712 202.445 325.512 202.445 326.934ZM203.758 326.934C203.751 326.161 204.824 325.717 206.697 325.717C208.543 325.717 209.623 326.161 209.623 326.934C209.623 327.72 208.543 328.15 206.697 328.137C204.824 328.15 203.751 327.72 203.758 326.934ZM217.717 320.029V317.938H216.404V320.029C216.404 322.367 215.051 324.712 213.123 325.566L213.916 326.66C215.386 325.942 216.514 324.466 217.081 322.668C217.655 324.343 218.77 325.717 220.178 326.387L220.957 325.361C219.057 324.521 217.703 322.265 217.717 320.029ZM222.064 329.189H223.363V316.912H222.064V329.189ZM235.859 316.912H234.615V329.162H235.859V316.912ZM225.455 322.203C225.455 324.862 226.494 326.53 228.094 326.523C229.611 326.53 230.63 325.047 230.746 322.654H232.127V328.561H233.371V317.145H232.127V321.602H230.739C230.589 319.305 229.584 317.89 228.094 317.896C226.494 317.89 225.455 319.551 225.455 322.203ZM226.658 322.203C226.658 320.248 227.212 319.106 228.094 319.113C228.996 319.106 229.557 320.248 229.557 322.203C229.557 324.151 228.996 325.3 228.094 325.293C227.212 325.3 226.658 324.151 226.658 322.203ZM250.994 316.912H249.695V323.488H250.994V316.912ZM241.082 320.316C241.089 321.991 242.47 323.16 244.35 323.146C246.223 323.16 247.604 321.991 247.604 320.316C247.604 318.635 246.223 317.466 244.35 317.473C242.47 317.466 241.089 318.635 241.082 320.316ZM242.354 320.316C242.347 319.271 243.188 318.56 244.35 318.566C245.498 318.56 246.332 319.271 246.332 320.316C246.332 321.376 245.498 322.08 244.35 322.08C243.188 322.08 242.347 321.376 242.354 320.316ZM242.982 329.012H250.994V324.076H249.709V325.457H244.254V324.076H242.982V329.012ZM244.254 327.945V326.482H249.709V327.945H244.254ZM258.773 317.65H253.428V318.689H257.475V320.234H253.441V323.967H254.33C256.771 323.96 258.028 323.919 259.525 323.666L259.402 322.613C258.021 322.866 256.859 322.914 254.727 322.914V321.219H258.773V317.65ZM254.836 326.127H261.85V329.176H263.148V325.074H254.836V326.127ZM259.553 322.299H261.85V324.459H263.148V316.926H261.85V318.703H259.553V319.742H261.85V321.26H259.553V322.299ZM278.078 316.871H276.779V323.611H278.078V320.809H279.869V319.742H278.078V316.871ZM268.467 318.977H275.768V317.951H272.773V316.803H271.475V317.951H268.467V318.977ZM269.137 321.451C269.13 322.695 270.319 323.454 272.117 323.447C273.915 323.454 275.084 322.695 275.084 321.451C275.084 320.214 273.915 319.441 272.117 319.441C270.319 319.441 269.13 320.214 269.137 321.451ZM270.162 325.156H276.793V326.113H270.189V329.039H278.502V328.055H271.461V327.029H278.078V324.186H270.162V325.156ZM270.395 321.451C270.381 320.788 271.058 320.378 272.117 320.371C273.17 320.378 273.854 320.788 273.867 321.451C273.854 322.114 273.17 322.504 272.117 322.504C271.058 322.504 270.381 322.114 270.395 321.451ZM290.246 317.992V317.322H288.893V317.992C288.886 319.64 286.903 321.144 284.504 321.465L285.023 322.531C287.013 322.21 288.77 321.171 289.569 319.729C290.369 321.171 292.126 322.21 294.129 322.531L294.635 321.465C292.229 321.144 290.239 319.619 290.246 317.992ZM283.971 324.801H288.893V329.162H290.164V324.801H295.141V323.734H283.971V324.801ZM303.74 325.006V324.418H302.482V325.006C302.476 326.188 301.621 327.467 300.049 328.027L300.705 328.984C301.86 328.561 302.667 327.747 303.111 326.783C303.487 327.781 304.232 328.649 305.408 329.094C306.529 328.629 307.261 327.733 307.65 326.749C308.074 327.747 308.901 328.567 310.111 328.984L310.754 328.027C309.154 327.508 308.313 326.277 308.32 325.006V324.418H307.049V325.006C307.049 325.949 306.495 327.118 305.374 327.836C304.26 327.173 303.74 326.059 303.74 325.006ZM299.734 320.494C299.741 322.189 301.122 323.365 303.002 323.365C304.875 323.365 306.256 322.189 306.256 320.494C306.256 318.778 304.875 317.603 303.002 317.596C301.122 317.603 299.741 318.778 299.734 320.494ZM301.006 320.494C300.999 319.421 301.84 318.696 303.002 318.703C304.15 318.696 304.984 319.421 304.984 320.494C304.984 321.561 304.15 322.285 303.002 322.285C301.84 322.285 300.999 321.561 301.006 320.494ZM308.348 323.898H309.646V316.926H308.348V323.898ZM314.254 324.254H312.969V329.012H321.309V324.254H320.01V325.553H314.254V324.254ZM311.588 323.488H322.758V322.408H311.588V323.488ZM312.189 320.631L312.682 321.656C314.65 321.383 316.387 320.446 317.18 319.134C317.966 320.439 319.695 321.383 321.678 321.656L322.143 320.631C319.798 320.344 317.843 318.977 317.836 317.568V317.049H316.51V317.568C316.503 319.018 314.562 320.323 312.189 320.631ZM314.254 327.973V326.564H320.01V327.973H314.254ZM333.859 316.912H332.561V329.162H333.859V316.912ZM324.439 326.045H325.465C327.399 326.052 329.368 325.901 331.535 325.457L331.357 324.363C329.396 324.76 327.516 324.917 325.725 324.924V318.102H324.439V326.045ZM345.33 316.912H344.031V329.189H345.33V322.723H347.299V321.656H345.33V316.912ZM336.307 326.141H337.291C339.567 326.147 341.194 326.086 343.115 325.744L342.951 324.65C341.201 324.965 339.663 325.054 337.605 325.061V319.141H342.035V318.088H336.307V326.141Z" fill="#6662A8"/>
<g filter="url(#filter0_d_685_14292)">
<g clip-path="url(#clip0_685_14292)">
<rect x="209" y="358" width="184" height="224" rx="28" fill="white"/>
<g filter="url(#filter1_ddd_685_14292)">
<path d="M209 358H393V582H209V358Z" fill="black"/>
</g>
<path d="M237.555 377.631H234.059V376.977H236.656V376.146H231.607V375.521H236.373V374.721H231.607V374.115H236.588V373.275H230.523V376.977H232.975V377.631H229.488V378.49H237.555V377.631ZM230.445 380.414C230.445 381.361 231.554 381.859 233.521 381.859C235.46 381.859 236.573 381.361 236.578 380.414C236.573 379.491 235.46 378.974 233.521 378.979C231.554 378.974 230.445 379.491 230.445 380.414ZM231.529 380.414C231.529 379.994 232.193 379.789 233.521 379.789C234.825 379.789 235.484 379.994 235.494 380.414C235.484 380.844 234.825 381.049 233.521 381.049C232.193 381.049 231.529 380.844 231.529 380.414ZM246.197 377.152H238.15V378.031H246.197V377.152ZM238.541 375.902L238.912 376.762C240.514 376.596 241.686 375.956 242.164 375.062C242.643 375.956 243.829 376.596 245.436 376.762L245.816 375.902C244.142 375.741 243.087 375.077 242.926 374.35H245.475V373.461H238.883V374.35H241.407C241.241 375.087 240.177 375.741 238.541 375.902ZM239.088 380.238C239.088 381.278 240.245 381.859 242.164 381.859C244.068 381.859 245.216 381.278 245.221 380.238C245.216 379.213 244.068 378.617 242.164 378.617C240.245 378.617 239.088 379.213 239.088 380.238ZM240.191 380.238C240.187 379.726 240.88 379.467 242.164 379.467C243.429 379.467 244.127 379.726 244.137 380.238C244.127 380.751 243.429 381.005 242.164 381.01C240.88 381.005 240.187 380.751 240.191 380.238ZM254.85 378.178H246.783V379.037H250.26V381.869H251.334V379.037H254.85V378.178ZM247.76 377.26H253.873V373.393H252.779V374.477H248.834V373.393H247.76V377.26ZM248.834 376.381V375.336H252.779V376.381H248.834ZM258.316 373.432C256.988 373.427 256.021 374.179 256.021 375.287C256.021 376.376 256.988 377.138 258.316 377.133C259.659 377.138 260.631 376.376 260.631 375.287C260.631 374.179 259.659 373.427 258.316 373.432ZM255.445 377.738L255.582 378.637C256.246 378.632 257.013 378.622 257.828 378.588V381.596H258.922V378.524C259.693 378.466 260.484 378.373 261.246 378.227L261.168 377.426C259.269 377.709 257.037 377.738 255.445 377.738ZM257.076 375.287C257.071 374.677 257.594 374.301 258.316 374.311C259.068 374.301 259.596 374.677 259.596 375.287C259.596 375.878 259.068 376.249 258.316 376.244C257.594 376.249 257.071 375.878 257.076 375.287ZM261.744 381.859H262.818V373.051H261.744V381.859Z" fill="white"/>
<path d="M350.754 373.93H349.533L347.785 375.062V376.225L349.436 375.17H349.475V381H350.754V373.93ZM355.08 381.098C356.779 381.098 357.795 379.784 357.795 377.465C357.795 375.16 356.774 373.832 355.08 373.832C353.386 373.832 352.36 375.16 352.365 377.465C352.36 379.779 353.376 381.098 355.08 381.098ZM353.645 377.465C353.649 375.78 354.196 374.892 355.08 374.887C355.964 374.892 356.511 375.78 356.516 377.465C356.516 379.164 355.964 380.028 355.08 380.033C354.191 380.028 353.645 379.164 353.645 377.465ZM359.641 380.121C360.046 380.121 360.393 379.779 360.393 379.359C360.393 378.949 360.046 378.612 359.641 378.607C359.221 378.612 358.874 378.949 358.879 379.359C358.874 379.779 359.221 380.121 359.641 380.121ZM358.879 375.57C358.874 375.99 359.221 376.332 359.641 376.332C360.046 376.332 360.393 375.99 360.393 375.57C360.393 375.16 360.046 374.823 359.641 374.818C359.221 374.823 358.874 375.16 358.879 375.57ZM364.152 381.098C365.681 381.098 366.799 380.233 366.789 379.037C366.799 378.148 366.232 377.509 365.236 377.377V377.318C366.008 377.157 366.535 376.586 366.525 375.795C366.535 374.711 365.607 373.832 364.172 373.832C362.79 373.832 361.711 374.647 361.682 375.834H362.902C362.927 375.238 363.498 374.867 364.162 374.867C364.851 374.867 365.3 375.268 365.295 375.863C365.3 376.479 364.777 376.898 364.025 376.898H363.391V377.875H364.025C364.943 377.88 365.49 378.334 365.49 378.969C365.49 379.599 364.929 380.028 364.152 380.023C363.415 380.028 362.849 379.652 362.814 379.086H361.535C361.564 380.277 362.644 381.098 364.152 381.098ZM370.51 381.098C372.209 381.098 373.225 379.784 373.225 377.465C373.225 375.16 372.204 373.832 370.51 373.832C368.815 373.832 367.79 375.16 367.795 377.465C367.79 379.779 368.806 381.098 370.51 381.098ZM369.074 377.465C369.079 375.78 369.626 374.892 370.51 374.887C371.394 374.892 371.94 375.78 371.945 377.465C371.945 379.164 371.394 380.028 370.51 380.033C369.621 380.028 369.074 379.164 369.074 377.465Z" fill="white"/>
<rect x="217" y="405" width="168" height="30" rx="6" fill="#8666FF"/>
<rect x="217" y="438" width="168" height="30" rx="6" fill="#313033"/>
<rect x="217" y="471" width="168" height="30" rx="6" fill="#8666FF"/>
<rect x="217" y="504" width="168" height="30" rx="6" fill="#313033"/>
<rect x="217" y="537" width="168" height="30" rx="6" fill="#313033"/>
<path d="M234.453 415.363H229.344V422.477H234.453V419.312H236.469V425.102H237.945V414.414H236.469V418.105H234.453V415.363ZM230.832 421.316V416.523H232.988V421.316H230.832ZM248.258 414.414H246.77V425.102H248.258V414.414ZM239.879 416.512H243.43V418.234H239.891V422.605H240.852C242.797 422.605 244.385 422.541 246.137 422.23L246.008 421.023C244.443 421.281 243.066 421.363 241.438 421.375V419.418H244.953V415.305H239.879V416.512Z" fill="white"/>
<path d="M242.627 447.836H235.338V451.586H238.232V452.605H234.131V453.812H243.857V452.605H239.732V451.586H242.627V447.836ZM235.209 455.77H241.186V458.078H242.674V454.598H235.209V455.77ZM236.803 450.414V448.996H241.162V450.414H236.803Z" fill="white"/>
<path d="M231.887 481.164C230.27 481.164 229.109 482.635 229.121 484.961C229.109 487.305 230.27 488.77 231.887 488.77C233.375 488.77 234.477 487.516 234.635 485.465H236.469V491.102H237.945V480.414H236.469V484.27H234.617C234.406 482.348 233.328 481.164 231.887 481.164ZM230.551 484.961C230.545 483.379 231.09 482.512 231.887 482.512C232.689 482.512 233.223 483.379 233.223 484.961C233.223 486.549 232.689 487.416 231.887 487.41C231.09 487.416 230.545 486.549 230.551 484.961ZM248.785 480.402H247.344V484.469H246.512V480.59H245.117V490.609H246.512V485.676H247.344V491.066H248.785V480.402ZM239.141 487.914L240.312 488.582C241.672 486.549 241.959 484.264 241.965 481.656H239.527V482.852H240.688C240.6 484.832 240.225 486.355 239.141 487.914ZM241.648 488.57L242.832 489.203C244.262 486.994 244.49 484.363 244.496 481.656H242.281V482.852H243.189C243.131 484.996 242.832 486.812 241.648 488.57Z" fill="white"/>
<path d="M235.238 515.008H232.836V513.578H231.348V515.008H228.969V516.203H235.238V515.008ZM229.52 519.344C229.52 520.797 230.621 521.881 232.098 521.887C233.568 521.881 234.652 520.797 234.664 519.344C234.652 517.873 233.568 516.795 232.098 516.801C230.621 516.795 229.52 517.873 229.52 519.344ZM230.914 519.344C230.908 518.553 231.418 518.061 232.098 518.055C232.777 518.061 233.287 518.553 233.281 519.344C233.287 520.146 232.777 520.621 232.098 520.609C231.418 520.621 230.908 520.146 230.914 519.344ZM235.016 518.84H236.469V524.078H237.945V513.414H236.469V517.633H235.016V518.84ZM248.258 513.414H246.77V524.102H248.258V513.414ZM239.879 515.512H243.43V517.234H239.891V521.605H240.852C242.797 521.605 244.385 521.541 246.137 521.23L246.008 520.023C244.443 520.281 243.066 520.363 241.438 520.375V518.418H244.953V514.305H239.879V515.512Z" fill="white"/>
<path d="M237.5 546.812H230.059V547.984H236.006C235.994 548.506 235.959 549.109 235.836 549.871L237.312 549.988C237.494 548.934 237.494 548.084 237.5 547.445V546.812ZM228.969 551.582H238.648V550.422H234.078V548.852H232.602V550.422H228.969V551.582ZM230.047 553.434H236.023V554.09H230.059V556.996H237.793V555.848H231.547V555.098H237.5V552.25H230.047V553.434ZM247.777 546.426H246.277V554.277H247.777V550.656H249.219V549.426H247.777V546.426ZM239.633 552.578H244.801V547.176H243.301V548.723H241.121V547.176H239.633V552.578ZM240.863 556.891H248.164V555.695H242.352V553.469H240.863V556.891ZM241.121 551.406V549.871H243.301V551.406H241.121Z" fill="white"/>
<path d="M368.768 423.531H370.232V421.34H372.424V419.875H370.232V417.684H368.768V419.875H366.576V421.34H368.768V423.531Z" fill="#8666FF"/>
<path d="M368.768 456.531H370.232V454.34H372.424V452.875H370.232V450.684H368.768V452.875H366.576V454.34H368.768V456.531Z" fill="#8666FF"/>
<path d="M368.768 489.531H370.232V487.34H372.424V485.875H370.232V483.684H368.768V485.875H366.576V487.34H368.768V489.531Z" fill="#8666FF"/>
<path d="M368.768 522.531H370.232V520.34H372.424V518.875H370.232V516.684H368.768V518.875H366.576V520.34H368.768V522.531Z" fill="#8666FF"/>
<path d="M368.768 555.531H370.232V553.34H372.424V551.875H370.232V549.684H368.768V551.875H366.576V553.34H368.768V555.531Z" fill="#8666FF"/>
<rect x="217" y="570" width="168" height="30" rx="6" fill="#313033"/>
<path d="M238.695 585.379H228.934V586.574H233.047V590.066H234.523V586.574H238.695V585.379ZM230.082 584.23H237.523V579.93H230.082V584.23ZM231.559 583.059V581.113H236.035V583.059H231.559ZM249.066 584.711H239.305V585.836H249.066V584.711ZM240.266 589.902H248.117V588.754H246.57V587.559H248V586.41H240.359V587.559H241.812V588.754H240.266V589.902ZM240.5 580.785H246.383V581.348H240.523V584.137H248.082V583.012H242.012V582.426H247.883V579.637H240.5V580.785ZM243.289 588.754V587.559H245.105V588.754H243.289Z" fill="white"/>
</g>
<rect x="209.5" y="358.5" width="183" height="223" rx="27.5" stroke="#6662A8"/>
</g>
<g filter="url(#filter2_d_685_14292)">
<g clip-path="url(#clip1_685_14292)">
<rect x="21" y="358" width="184" height="224" rx="28" fill="white"/>
<g filter="url(#filter3_d_685_14292)">
<path d="M21 358H205V582H21V358Z" fill="black"/>
</g>
<path d="M162.754 373.93H161.533L159.785 375.062V376.225L161.436 375.17H161.475V381H162.754V373.93Z" fill="white"/>
<path d="M167.08 381.098C168.779 381.098 169.795 379.784 169.795 377.465C169.795 375.16 168.774 373.832 167.08 373.832C165.386 373.832 164.36 375.16 164.365 377.465C164.36 379.779 165.376 381.098 167.08 381.098ZM165.645 377.465C165.649 375.78 166.196 374.892 167.08 374.887C167.964 374.892 168.511 375.78 168.516 377.465C168.516 379.164 167.964 380.028 167.08 380.033C166.191 380.028 165.645 379.164 165.645 377.465Z" fill="white"/>
<path d="M171.641 380.121C172.046 380.121 172.393 379.779 172.393 379.359C172.393 378.949 172.046 378.612 171.641 378.607C171.221 378.612 170.874 378.949 170.879 379.359C170.874 379.779 171.221 380.121 171.641 380.121ZM170.879 375.57C170.874 375.99 171.221 376.332 171.641 376.332C172.046 376.332 172.393 375.99 172.393 375.57C172.393 375.16 172.046 374.823 171.641 374.818C171.221 374.823 170.874 375.16 170.879 375.57Z" fill="white"/>
<path d="M176.152 381.098C177.681 381.098 178.799 380.233 178.789 379.037C178.799 378.148 178.232 377.509 177.236 377.377V377.318C178.008 377.157 178.535 376.586 178.525 375.795C178.535 374.711 177.607 373.832 176.172 373.832C174.79 373.832 173.711 374.647 173.682 375.834H174.902C174.927 375.238 175.498 374.867 176.162 374.867C176.851 374.867 177.3 375.268 177.295 375.863C177.3 376.479 176.777 376.898 176.025 376.898H175.391V377.875H176.025C176.943 377.88 177.49 378.334 177.49 378.969C177.49 379.599 176.929 380.028 176.152 380.023C175.415 380.028 174.849 379.652 174.814 379.086H173.535C173.564 380.277 174.644 381.098 176.152 381.098Z" fill="white"/>
<path d="M182.51 381.098C184.209 381.098 185.225 379.784 185.225 377.465C185.225 375.16 184.204 373.832 182.51 373.832C180.815 373.832 179.79 375.16 179.795 377.465C179.79 379.779 180.806 381.098 182.51 381.098ZM181.074 377.465C181.079 375.78 181.626 374.892 182.51 374.887C183.394 374.892 183.94 375.78 183.945 377.465C183.945 379.164 183.394 380.028 182.51 380.033C181.621 380.028 181.074 379.164 181.074 377.465Z" fill="white"/>
<path d="M30 397C30 393.686 32.6863 391 36 391H190C193.314 391 196 393.686 196 397V527C196 530.314 193.314 533 190 533H36C32.6863 533 30 530.314 30 527V397Z" fill="#F3EFFF" fill-opacity="0.2"/>
<path d="M30 397C30 393.686 32.6863 391 36 391H190C193.314 391 196 393.686 196 397V416C196 419.314 193.314 422 190 422H36C32.6863 422 30 419.314 30 416V397Z" fill="#686078"/>
<path d="M29.0312 549C29.0312 544.582 32.613 541 37.0312 541H187.997C192.416 541 195.997 544.582 195.997 549V556.103C195.997 560.521 192.416 564.103 187.997 564.103H37.0313C32.613 564.103 29.0312 560.521 29.0312 556.103V549Z" fill="#F3EFFF" fill-opacity="0.2"/>
<path d="M110.457 548.021H109.207V554.057H110.457V551.586H111.59V550.561H110.457V548.021ZM103.25 552.914L103.377 553.881C104.944 553.881 107.005 553.861 108.885 553.529L108.797 552.67C108.113 552.758 107.381 552.812 106.648 552.851V552.392C107.601 552.255 108.196 551.786 108.201 551.107C108.196 550.282 107.332 549.774 106.023 549.779C104.705 549.774 103.841 550.282 103.846 551.107C103.841 551.786 104.441 552.26 105.408 552.396V552.895C104.637 552.914 103.899 552.914 103.25 552.914ZM103.484 549.574H108.572V548.666H106.648V547.943H105.408V548.666H103.484V549.574ZM104.383 555.375H109.207V556.898H110.457V554.418H104.383V555.375ZM105.037 551.107C105.032 550.761 105.389 550.609 106.023 550.609C106.648 550.609 107.005 550.761 107.01 551.107C107.005 551.43 106.648 551.62 106.023 551.615C105.389 551.62 105.032 551.43 105.037 551.107Z" fill="white"/>
<path d="M119.432 548.021H118.182V554.408H119.432V548.021ZM112.127 550.824C112.127 552.147 113.191 553.08 114.559 553.08C115.921 553.08 116.985 552.147 116.99 550.824C116.985 549.521 115.921 548.583 114.559 548.588C113.191 548.583 112.127 549.521 112.127 550.824ZM113.348 550.824C113.338 550.102 113.86 549.667 114.559 549.672C115.232 549.667 115.755 550.102 115.76 550.824C115.755 551.566 115.232 551.996 114.559 551.996C113.86 551.996 113.338 551.566 113.348 550.824ZM113.475 556.742H119.666V555.746H114.734V553.764H113.475V556.742Z" fill="white"/>
<path d="M99.207 407.251H95.4258V406.649H98.251V405.597H92.7617V405.038H97.9395V404.05H92.7617V403.502H98.165V402.449H91.3867V406.649H94.0508V407.251H90.2695V408.325H99.207V407.251ZM91.3115 410.377C91.3115 411.43 92.5469 411.994 94.7383 411.988C96.8921 411.994 98.1328 411.43 98.1436 410.377C98.1328 409.346 96.8921 408.766 94.7383 408.776C92.5469 408.766 91.3115 409.346 91.3115 410.377ZM92.6865 410.377C92.6758 409.969 93.3311 409.781 94.7383 409.786C96.1133 409.781 96.7632 409.969 96.7686 410.377C96.7632 410.796 96.1133 410.979 94.7383 410.979C93.3311 410.979 92.6758 410.796 92.6865 410.377Z" fill="white"/>
<path d="M108.714 406.714H99.7979V407.82H108.714V406.714ZM100.195 405.285L100.646 406.359C102.5 406.182 103.729 405.484 104.245 404.539C104.766 405.484 106.007 406.182 107.854 406.359L108.338 405.285C106.458 405.119 105.459 404.442 105.239 403.76H107.908V402.664H100.614V403.76H103.262C103.037 404.447 102.032 405.119 100.195 405.285ZM100.818 410.184C100.818 411.338 102.107 411.994 104.245 411.988C106.367 411.994 107.64 411.338 107.65 410.184C107.64 409.034 106.367 408.368 104.245 408.368C102.107 408.368 100.818 409.034 100.818 410.184ZM102.215 410.184C102.209 409.673 102.892 409.432 104.245 409.432C105.572 409.432 106.27 409.673 106.275 410.184C106.27 410.688 105.572 410.925 104.245 410.925C102.892 410.925 102.209 410.688 102.215 410.184Z" fill="white"/>
<path d="M117.49 402.213H116.115V407.466H117.49V402.213ZM109.455 404.941C109.455 406.273 110.604 407.229 112.13 407.229C113.65 407.229 114.799 406.273 114.805 404.941C114.799 403.566 113.65 402.61 112.13 402.621C110.604 402.61 109.455 403.566 109.455 404.941ZM110.798 404.941C110.787 404.206 111.346 403.754 112.13 403.76C112.893 403.754 113.446 404.206 113.451 404.941C113.446 405.667 112.893 406.102 112.13 406.102C111.346 406.102 110.787 405.667 110.798 404.941ZM110.948 411.881H117.49V407.896H116.126V408.809H112.302V407.896H110.948V411.881ZM112.302 410.774V409.872H116.126V410.774H112.302Z" fill="white"/>
<path d="M123.506 402.782H119.177V403.856H122.131V404.812H119.198V407.971H119.929C121.819 407.965 122.845 407.938 123.989 407.734L123.86 406.639C122.872 406.827 122.002 406.875 120.552 406.875V405.833H123.506V402.782ZM120.315 409.775H125.687V411.988H127.051V408.68H120.315V409.775ZM124.064 406.735H125.687V408.239H127.051V402.224H125.687V403.577H124.064V404.662H125.687V405.65H124.064V406.735Z" fill="white"/>
<path d="M136.031 402.213H134.678V411.988H136.031V407.165H137.471V406.037H136.031V402.213ZM128.265 404.77H134.012V403.674H131.853V402.363H130.478V403.674H128.265V404.77ZM128.662 407.648C128.657 409.013 129.72 409.974 131.165 409.979C132.588 409.974 133.657 409.013 133.657 407.648C133.657 406.284 132.588 405.312 131.165 405.317C129.72 405.312 128.657 406.284 128.662 407.648ZM129.973 407.648C129.973 406.896 130.472 406.435 131.165 406.424C131.847 406.435 132.347 406.896 132.347 407.648C132.347 408.406 131.847 408.857 131.165 408.852C130.472 408.857 129.973 408.406 129.973 407.648Z" fill="white"/>
<path d="M146.043 402.213H144.657V411.988H146.043V402.213ZM137.857 409.217L138.577 410.312C142.068 408.664 143.105 406.198 143.11 403.233H138.384V404.308H141.714C141.494 406.478 140.382 408.024 137.857 409.217Z" fill="white"/>
<path d="M54.7471 448.718C52.647 448.718 51.0732 449.781 51.0732 451.393C51.0732 452.864 52.314 453.853 54.0596 454.051V455.722H50.2891V456.85H59.2373V455.722H55.4238V454.051C57.1802 453.858 58.4263 452.87 58.4316 451.393C58.4263 449.781 56.8472 448.718 54.7471 448.718ZM52.4268 451.393C52.4268 450.415 53.3774 449.808 54.7471 449.813C56.1221 449.808 57.0728 450.415 57.0781 451.393C57.0728 452.424 56.1221 452.999 54.7471 453.004C53.3774 452.999 52.4268 452.424 52.4268 451.393Z" fill="white"/>
<path d="M67.7021 450.189H62.2666V448.331H60.9023V451.274H67.7021V450.189ZM59.7852 453.015H68.7334V451.93H59.7852V453.015ZM60.8057 454.658H66.2949V455.217H60.8271V457.881H67.96V456.828H62.2021V456.205H67.6592V453.605H60.8057V454.658Z" fill="white"/>
<path d="M72.4717 448.868C70.9302 448.863 69.7485 449.862 69.7539 451.264C69.7485 452.671 70.9302 453.665 72.4717 453.67C74.0239 453.665 75.1733 452.671 75.1787 451.264C75.1733 449.862 74.0239 448.863 72.4717 448.868ZM69.3457 454.895L69.5068 456.012C71.2148 456.012 73.5352 455.996 75.7051 455.571L75.5977 454.583C73.5083 454.878 71.0913 454.9 69.3457 454.895ZM71.1182 451.264C71.1128 450.501 71.6982 450.05 72.4717 450.05C73.2505 450.05 73.8413 450.501 73.8467 451.264C73.8413 452.037 73.2505 452.483 72.4717 452.478C71.6982 452.483 71.1128 452.037 71.1182 451.264ZM76.1562 458.01H77.5205V448.213H76.1562V458.01Z" fill="white"/>
<path d="M90.2607 453.251H86.4795V452.649H89.3047V451.597H83.8154V451.038H88.9932V450.05H83.8154V449.502H89.2188V448.449H82.4404V452.649H85.1045V453.251H81.3232V454.325H90.2607V453.251ZM82.3652 456.377C82.3652 457.43 83.6006 457.994 85.792 457.988C87.9458 457.994 89.1865 457.43 89.1973 456.377C89.1865 455.346 87.9458 454.766 85.792 454.776C83.6006 454.766 82.3652 455.346 82.3652 456.377ZM83.7402 456.377C83.7295 455.969 84.3848 455.781 85.792 455.786C87.167 455.781 87.8169 455.969 87.8223 456.377C87.8169 456.796 87.167 456.979 85.792 456.979C84.3848 456.979 83.7295 456.796 83.7402 456.377Z" fill="white"/>
<path d="M99.7676 452.714H90.8516V453.82H99.7676V452.714ZM91.249 451.285L91.7002 452.359C93.5532 452.182 94.7832 451.484 95.2988 450.539C95.8198 451.484 97.0605 452.182 98.9082 452.359L99.3916 451.285C97.5117 451.119 96.5127 450.442 96.2925 449.76H98.9619V448.664H91.668V449.76H94.3159C94.0903 450.447 93.0859 451.119 91.249 451.285ZM91.8721 456.184C91.8721 457.338 93.1611 457.994 95.2988 457.988C97.4204 457.994 98.6934 457.338 98.7041 456.184C98.6934 455.034 97.4204 454.368 95.2988 454.368C93.1611 454.368 91.8721 455.034 91.8721 456.184ZM93.2686 456.184C93.2632 455.673 93.9453 455.432 95.2988 455.432C96.6255 455.432 97.3237 455.673 97.3291 456.184C97.3237 456.688 96.6255 456.925 95.2988 456.925C93.9453 456.925 93.2632 456.688 93.2686 456.184Z" fill="white"/>
<path d="M104.816 448.353C102.561 448.353 101.25 448.943 101.25 450.018C101.25 451.108 102.561 451.693 104.816 451.693C107.067 451.693 108.367 451.108 108.372 450.018C108.367 448.943 107.067 448.353 104.816 448.353ZM100.358 453.24H109.274V452.155H100.358V453.24ZM101.39 454.809H106.836V455.346H101.4V457.924H108.447V456.893H102.743V456.302H108.189V453.81H101.39V454.809ZM102.689 450.018C102.684 449.583 103.382 449.352 104.816 449.352C106.261 449.352 106.954 449.583 106.954 450.018C106.954 450.496 106.261 450.684 104.816 450.684C103.382 450.684 102.684 450.496 102.689 450.018Z" fill="white"/>
<path d="M120.586 448.213H119.211V453.466H120.586V448.213ZM112.551 450.941C112.551 452.273 113.7 453.229 115.226 453.229C116.746 453.229 117.895 452.273 117.9 450.941C117.895 449.566 116.746 448.61 115.226 448.621C113.7 448.61 112.551 449.566 112.551 450.941ZM113.894 450.941C113.883 450.206 114.441 449.754 115.226 449.76C115.988 449.754 116.542 450.206 116.547 450.941C116.542 451.667 115.988 452.102 115.226 452.102C114.441 452.102 113.883 451.667 113.894 450.941ZM114.044 457.881H120.586V453.896H119.222V454.809H115.397V453.896H114.044V457.881ZM115.397 456.774V455.872H119.222V456.774H115.397Z" fill="white"/>
<path d="M126.602 448.782H122.272V449.856H125.227V450.812H122.294V453.971H123.024C124.915 453.965 125.941 453.938 127.085 453.734L126.956 452.639C125.968 452.827 125.098 452.875 123.647 452.875V451.833H126.602V448.782ZM123.411 455.775H128.782V457.988H130.146V454.68H123.411V455.775ZM127.16 452.735H128.782V454.239H130.146V448.224H128.782V449.577H127.16V450.662H128.782V451.65H127.16V452.735Z" fill="white"/>
<path d="M136.13 449.706H134.454V448.481H133.101V449.706H131.403V450.791H136.13V449.706ZM131.629 453.552C131.629 454.916 132.542 455.883 133.788 455.883C135.04 455.883 135.931 454.916 135.937 453.552C135.931 452.193 135.04 451.237 133.788 451.231C132.542 451.237 131.629 452.193 131.629 453.552ZM132.832 453.552C132.832 452.816 133.219 452.37 133.788 452.37C134.336 452.37 134.728 452.816 134.733 453.552C134.728 454.298 134.336 454.723 133.788 454.723C133.219 454.723 132.832 454.298 132.832 453.552ZM136.495 457.569H137.773V453.283H138.568V457.988H139.868V448.213H138.568V452.188H137.773V448.406H136.495V457.569Z" fill="white"/>
<path d="M149.837 453.605H140.921V454.701H144.681V457.988H146.034V454.701H149.837V453.605ZM141.361 451.962L141.866 453.036C143.569 452.805 144.788 452.075 145.384 451.07C145.975 452.075 147.205 452.805 148.924 453.036L149.418 451.962C147.409 451.72 146.33 450.764 146.19 449.803H149.042V448.729H141.727V449.803H144.579C144.434 450.764 143.338 451.72 141.361 451.962Z" fill="white"/>
<path d="M153.564 450.673V449.051H152.232V450.737C152.232 452.392 151.695 454.116 150.245 455.013L151.083 456.022C151.969 455.485 152.555 454.556 152.904 453.45C153.215 454.449 153.747 455.297 154.596 455.808L155.337 454.744C154 453.89 153.559 452.257 153.564 450.673ZM154.306 452.628H155.573V457.537H156.852V448.353H155.573V451.511H154.306V452.628ZM157.593 457.988H158.903V448.213H157.593V457.988Z" fill="white"/>
<path d="M168.883 455.722H166.896V453.299C167.631 452.843 168.072 452.161 168.077 451.317C168.072 449.733 166.509 448.691 164.393 448.686C162.266 448.691 160.719 449.733 160.719 451.317C160.719 452.177 161.175 452.87 161.933 453.326V455.722H159.935V456.85H168.883V455.722ZM162.072 451.317C162.072 450.334 162.991 449.765 164.393 449.771C165.773 449.765 166.718 450.334 166.724 451.317C166.718 452.273 165.773 452.864 164.393 452.864C162.991 452.864 162.072 452.273 162.072 451.317ZM163.286 455.722V453.826C163.63 453.89 164 453.928 164.393 453.928C164.785 453.928 165.161 453.89 165.51 453.82V455.722H163.286Z" fill="white"/>
</g>
</g>
<circle cx="61.5" cy="391.5" r="23.5" fill="#8666FF"/>
<path d="M57.4606 405.053C57.4607 405.599 57.0183 406.042 56.4725 406.042V406.042C55.9268 406.042 55.4844 405.599 55.4844 405.054V396.259C55.4843 395.812 55.661 395.384 55.9759 395.067C56.2908 394.75 56.718 394.571 57.1645 394.568L61.7413 394.546H61.7761C63.444 394.551 65.104 394.317 66.705 393.849C69.755 392.906 71.4107 391.173 71.6112 388.7C71.7576 386.924 71.3341 385.485 70.3528 384.418C68.284 382.17 64.427 382.152 64.3904 382.152V382.152C63.8442 382.152 63.4005 381.709 63.4005 381.163V381.163C63.4005 380.617 63.8429 380.174 64.3887 380.174V380.174C64.5821 380.174 69.1572 380.209 71.8063 383.086C73.178 384.577 73.7741 386.523 73.5789 388.873C73.3052 392.196 71.1127 394.579 67.24 395.761C65.4524 396.286 63.5975 396.547 61.7343 396.534L57.4591 396.555L57.4606 405.053Z" fill="white"/>
<path d="M57.8426 385.565C57.0624 385.565 56.2998 385.333 55.6511 384.9C55.0025 384.466 54.497 383.85 54.1985 383.13C53.9 382.409 53.822 381.616 53.9743 380.851C54.1267 380.085 54.5025 379.383 55.0543 378.831C55.6061 378.28 56.309 377.904 57.0742 377.752C57.8394 377.6 58.6325 377.678 59.3531 377.977C60.0738 378.276 60.6897 378.782 61.1228 379.431C61.556 380.08 61.787 380.842 61.7867 381.622C61.7853 382.668 61.3693 383.67 60.6299 384.409C59.8904 385.148 58.888 385.564 57.8426 385.565V385.565ZM57.8426 379.656C57.4538 379.657 57.0739 379.772 56.7508 379.989C56.4277 380.205 56.176 380.512 56.0275 380.871C55.879 381.23 55.8403 381.626 55.9164 382.007C55.9924 382.388 56.1798 382.738 56.4548 383.013C56.7298 383.288 57.0801 383.475 57.4614 383.551C57.8427 383.626 58.2379 383.587 58.597 383.439C58.9562 383.29 59.2631 383.038 59.4791 382.714C59.695 382.391 59.8103 382.011 59.8103 381.622C59.8103 381.101 59.603 380.6 59.2339 380.231C58.8649 379.862 58.3644 379.655 57.8426 379.655V379.656Z" fill="white"/>
<path d="M61.8805 405.138V399.894C61.8805 399.348 61.4377 398.905 60.8914 398.905C60.3452 398.905 59.9023 399.348 59.9023 399.894V405.138C59.9023 405.685 60.3452 406.127 60.8914 406.127C61.4377 406.127 61.8805 405.685 61.8805 405.138Z" fill="white"/>
<defs>
<filter id="filter0_d_685_14292" x="194" y="348" width="214" height="254" filterUnits="userSpaceOnUse" color-interpolation-filters="sRGB">
<feFlood flood-opacity="0" result="BackgroundImageFix"/>
<feColorMatrix in="SourceAlpha" type="matrix" values="0 0 0 0 0 0 0 0 0 0 0 0 0 0 0 0 0 0 127 0" result="hardAlpha"/>
<feOffset dy="5"/>
<feGaussianBlur stdDeviation="7.5"/>
<feComposite in2="hardAlpha" operator="out"/>
<feColorMatrix type="matrix" values="0 0 0 0 0 0 0 0 0 0 0 0 0 0 0 0 0 0 0.15 0"/>
<feBlend mode="normal" in2="BackgroundImageFix" result="effect1_dropShadow_685_14292"/>
<feBlend mode="normal" in="SourceGraphic" in2="effect1_dropShadow_685_14292" result="shape"/>
</filter>
<filter id="filter1_ddd_685_14292" x="205" y="358" width="192" height="232" filterUnits="userSpaceOnUse" color-interpolation-filters="sRGB">
<feFlood flood-opacity="0" result="BackgroundImageFix"/>
<feColorMatrix in="SourceAlpha" type="matrix" values="0 0 0 0 0 0 0 0 0 0 0 0 0 0 0 0 0 0 127 0" result="hardAlpha"/>
<feOffset dy="4"/>
<feGaussianBlur stdDeviation="2"/>
<feComposite in2="hardAlpha" operator="out"/>
<feColorMatrix type="matrix" values="0 0 0 0 0 0 0 0 0 0 0 0 0 0 0 0 0 0 0.25 0"/>
<feBlend mode="normal" in2="BackgroundImageFix" result="effect1_dropShadow_685_14292"/>
<feColorMatrix in="SourceAlpha" type="matrix" values="0 0 0 0 0 0 0 0 0 0 0 0 0 0 0 0 0 0 127 0" result="hardAlpha"/>
<feOffset dy="4"/>
<feGaussianBlur stdDeviation="2"/>
<feComposite in2="hardAlpha" operator="out"/>
<feColorMatrix type="matrix" values="0 0 0 0 0 0 0 0 0 0 0 0 0 0 0 0 0 0 0.25 0"/>
<feBlend mode="normal" in2="effect1_dropShadow_685_14292" result="effect2_dropShadow_685_14292"/>
<feColorMatrix in="SourceAlpha" type="matrix" values="0 0 0 0 0 0 0 0 0 0 0 0 0 0 0 0 0 0 127 0" result="hardAlpha"/>
<feOffset dy="4"/>
<feGaussianBlur stdDeviation="2"/>
<feComposite in2="hardAlpha" operator="out"/>
<feColorMatrix type="matrix" values="0 0 0 0 0 0 0 0 0 0 0 0 0 0 0 0 0 0 0.25 0"/>
<feBlend mode="normal" in2="effect2_dropShadow_685_14292" result="effect3_dropShadow_685_14292"/>
<feBlend mode="normal" in="SourceGraphic" in2="effect3_dropShadow_685_14292" result="shape"/>
</filter>
<filter id="filter2_d_685_14292" x="6" y="348" width="214" height="254" filterUnits="userSpaceOnUse" color-interpolation-filters="sRGB">
<feFlood flood-opacity="0" result="BackgroundImageFix"/>
<feColorMatrix in="SourceAlpha" type="matrix" values="0 0 0 0 0 0 0 0 0 0 0 0 0 0 0 0 0 0 127 0" result="hardAlpha"/>
<feOffset dy="5"/>
<feGaussianBlur stdDeviation="7.5"/>
<feComposite in2="hardAlpha" operator="out"/>
<feColorMatrix type="matrix" values="0 0 0 0 0 0 0 0 0 0 0 0 0 0 0 0 0 0 0.15 0"/>
<feBlend mode="normal" in2="BackgroundImageFix" result="effect1_dropShadow_685_14292"/>
<feBlend mode="normal" in="SourceGraphic" in2="effect1_dropShadow_685_14292" result="shape"/>
</filter>
<filter id="filter3_d_685_14292" x="17" y="358" width="192" height="232" filterUnits="userSpaceOnUse" color-interpolation-filters="sRGB">
<feFlood flood-opacity="0" result="BackgroundImageFix"/>
<feColorMatrix in="SourceAlpha" type="matrix" values="0 0 0 0 0 0 0 0 0 0 0 0 0 0 0 0 0 0 127 0" result="hardAlpha"/>
<feOffset dy="4"/>
<feGaussianBlur stdDeviation="2"/>
<feComposite in2="hardAlpha" operator="out"/>
<feColorMatrix type="matrix" values="0 0 0 0 0 0 0 0 0 0 0 0 0 0 0 0 0 0 0.25 0"/>
<feBlend mode="normal" in2="BackgroundImageFix" result="effect1_dropShadow_685_14292"/>
<feBlend mode="normal" in="SourceGraphic" in2="effect1_dropShadow_685_14292" result="shape"/>
</filter>
<clipPath id="clip0_685_14292">
<rect x="209" y="358" width="184" height="224" rx="28" fill="white"/>
</clipPath>
<clipPath id="clip1_685_14292">
<rect x="21" y="358" width="184" height="224" rx="28" fill="white"/>
</clipPath>
</defs>
</svg>
