<svg width="64" height="39" viewBox="0 0 64 39" fill="none" xmlns="http://www.w3.org/2000/svg">
<path d="M0 6.87845C0 3.07959 3.07959 0 6.87845 0H56.7838C60.5826 0 63.6622 3.07959 63.6622 6.87845V32.0262C63.6622 35.8251 60.5826 38.9047 56.7838 38.9047H6.87845C3.07959 38.9047 0 35.8251 0 32.0262V6.87845Z" fill="#E2E2E2"/>
<path d="M24.7363 13.0449H17.0723V23.7148H24.7363V18.9688H27.7598V27.6523H29.9746V11.6211H27.7598V17.1582H24.7363V13.0449ZM19.3047 21.9746V14.7852H22.5391V21.9746H19.3047ZM45.4434 11.6211H43.2109V27.6523H45.4434V11.6211ZM32.875 14.7676H38.2012V17.3516H32.8926V23.9082H34.334C37.252 23.9082 39.6338 23.8115 42.2617 23.3457L42.0684 21.5352C39.7217 21.9219 37.6562 22.0449 35.2129 22.0625V19.127H40.4863V12.957H32.875V14.7676Z" fill="white"/>
</svg>
